<svg width="302" height="75" viewBox="0 0 302 75" fill="none" xmlns="http://www.w3.org/2000/svg">
    <g clip-path="url(#clip0_1395_18775)">
        <path fill-rule="evenodd" clip-rule="evenodd"
              d="M54.255 13.2891L35.589 18.7551L29.366 44.7171L33.1 63.8472L45.544 67.9473H265.81L272.032 40.6182L269.543 17.3891L260.832 13.2891H54.255Z"
              fill="#493830"/>
    </g>
    <path d="M257.866 12.8027H46.9111C38.2202 12.8027 31.1421 19.8864 31.1421 28.5841V53.4218C31.1421 62.1195 38.2202 69.2032 46.9111 69.2032H257.866C266.557 69.2032 273.635 62.1195 273.635 53.4218V28.5841C273.635 19.8416 266.557 12.8027 257.866 12.8027ZM51.9733 61.8953C42.5208 61.8953 38.3994 57.9948 38.3994 50.1938V31.7224C38.3994 23.4282 42.924 20.0209 51.9733 20.0209H252.759C262.033 20.0209 266.333 23.6524 266.333 31.7224V50.1938C266.333 58.1741 261.943 61.8953 252.759 61.8953H51.9733Z"
          fill="url(#paint0_linear_1395_18775)"/>
    <g opacity="0.44">
        <path d="M252.759 18.0938H51.9733C42.9241 18.0938 38.3994 21.5459 38.3994 29.7953V31.7679C38.3994 23.4738 42.9241 20.0664 51.9733 20.0664H252.759C262.033 20.0664 266.333 23.6979 266.333 31.7679V29.7953C266.333 21.6804 262.033 18.0938 252.759 18.0938Z"
              fill="#AC4600"/>
        <path d="M257.866 67.1857H46.9111C38.2202 67.1857 31.1421 60.102 31.1421 51.4043V53.377C31.1421 62.0746 38.2202 69.1583 46.9111 69.1583H257.866C266.557 69.1583 273.635 62.0746 273.635 53.377V51.4043C273.635 60.1468 266.557 67.1857 257.866 67.1857Z"
              fill="#AC4600"/>
    </g>
    <path opacity="0.3"
          d="M97.4884 14.0584C93.591 14.0584 93.7254 16.5691 97.4884 16.5691C103.357 16.5691 247.384 16.4346 252.311 16.4346C257.194 16.4346 268.932 17.4209 268.932 27.1498C268.932 36.8786 268.932 43.6036 268.932 47.3696C268.932 51.1356 271.709 50.7321 271.709 47.3696C271.709 44.0071 271.709 30.8709 271.709 26.7911C271.709 22.7113 267.498 13.9688 257.374 13.9688C247.294 13.9688 97.802 14.0584 97.4884 14.0584Z"
          fill="white"/>
    <path opacity="0.3"
          d="M49.1062 13.9238C53.8548 13.9238 69.9374 13.9238 73.7005 13.9238C77.4636 13.9238 77.598 16.8828 73.7005 16.8828C69.8031 16.8828 55.7812 16.8828 49.7782 16.8828C42.0729 16.8828 36.3387 20.6488 36.3387 30.7364C36.3387 38.5822 36.3387 48.9387 36.3387 51.1804C36.3387 53.4221 37.4587 63.1061 49.3302 63.1061C61.2018 63.1061 177.722 63.1061 189.863 63.1061C193.357 63.1061 193.357 65.8857 190.266 65.8857C179.783 65.8857 55.154 65.8857 48.7478 65.8857C42.3417 65.8857 33.2028 63.5096 33.2028 51.8977C33.2028 40.2859 33.2028 31.0502 33.2028 26.4323C33.2028 21.8145 38.0858 13.9238 49.1062 13.9238Z"
          fill="white"/>
    <path opacity="0.3"
          d="M212.441 63.1502C206.976 63.1502 206.572 65.6608 212.575 65.6608C218.578 65.6608 250.072 65.6608 257.732 65.6608C265.437 65.6608 268.932 61.581 270.32 57.6805C271.709 53.78 267.991 54.4076 267.677 56.6942C267.409 58.6668 264.049 63.2847 258.046 63.2847C252.043 63.3295 212.665 63.1502 212.441 63.1502Z"
          fill="white"/>
    <path d="M3.3223 65.3022C3.3223 65.3022 7.21976 66.1988 10.1316 67.0955C13.0435 68.037 16.3586 69.6958 18.1953 69.92C20.0321 70.1442 24.4671 69.2923 25.6319 68.575C26.7966 67.9025 26.259 66.7368 26.259 66.7368C26.259 66.7368 16.269 66.0643 15.0595 65.7505C13.8051 65.5263 7.04056 64.5848 3.3223 65.3022Z"
          fill="#7F3B16"/>
    <path d="M28.9021 63.913C28.9021 63.913 18.9569 61.0885 13.0435 62.03C7.13016 62.9715 3.3223 65.3477 3.3223 65.3477C3.3223 65.3477 12.7747 66.5134 16.8066 68.6654C20.8384 70.8174 27.6926 67.2307 28.4094 67.2307C29.1261 67.2307 32.5756 64.8097 28.9021 63.913Z"
          fill="url(#paint1_linear_1395_18775)"/>
    <path opacity="0.38"
          d="M29.2158 66.5137C29.0814 65.617 28.9022 64.7203 28.6334 63.8237C27.1103 63.4202 18.3746 61.1336 12.9988 61.9855C12.4612 62.0751 11.9236 62.1648 11.4308 62.2993C12.73 63.0167 15.2387 64.4962 14.0739 64.4962C12.5508 64.4962 15.2835 65.5722 15.0147 66.424C14.8803 66.7827 13.9844 67.0068 12.8644 67.1862C14.3427 67.5897 15.7315 68.0828 16.7618 68.6208C20.7937 70.7728 27.6478 67.1862 28.3646 67.1862C28.5438 67.1862 28.8574 67.0516 29.2158 66.8275C29.2606 66.7378 29.2606 66.6482 29.2158 66.5137Z"
          fill="#492410"/>
    <path d="M0.72403 48.041C0.72403 48.041 0.76883 48.0858 0.813628 48.1307C1.26161 48.6687 3.81511 51.7173 6.36862 54.228C9.19091 57.0077 12.058 61.76 14.3875 63.1499C16.6722 64.5397 22.4064 66.7814 25.5871 65.4364C28.723 64.0914 23.2128 62.4325 20.3457 61.0875C17.4786 59.7425 12.0132 55.0799 10.6245 54.0039C9.19091 52.9727 0.72403 48.041 0.72403 48.041Z"
          fill="#7F3B16"/>
    <path d="M28.9021 64.6295C28.9021 64.6295 21.1072 51.7175 14.7011 49.6552C8.29491 47.5928 0.5 48.0412 0.5 48.0412C0.5 48.0412 9.50446 55.3938 11.162 58.7115C12.8195 62.0292 17.837 64.4054 21.824 64.8537C25.8559 65.3469 29.6189 65.3469 29.6189 65.3469L28.9021 64.6295Z"
          fill="url(#paint2_linear_1395_18775)"/>
    <path opacity="0.38"
          d="M28.9021 64.6304C28.9021 64.6304 21.1072 51.7184 14.7011 49.6561C13.1779 49.1629 11.5652 48.8042 9.99725 48.5801C10.0421 48.5801 12.9091 49.7009 14.0291 51.2252C15.1043 52.7496 13.1331 53.1083 13.1331 53.1083C13.1331 53.1083 15.8658 55.8879 15.1939 57.8158C14.6563 59.3401 12.1924 58.5779 10.4452 57.5019C10.7588 57.9503 11.0276 58.3538 11.2068 58.7124C12.8643 62.0301 17.8818 64.4063 21.8688 64.8546C25.9007 65.3478 29.6637 65.3478 29.6637 65.3478L28.9021 64.6304Z"
          fill="#492410"/>
    <path opacity="0.5"
          d="M8.96692 51.4941C8.96692 51.4941 12.6852 52.1666 15.2835 54.767C17.8818 57.3673 19.5841 60.2367 22.272 61.1782C24.9599 62.1197 24.2432 59.9677 24.2432 59.9677C24.2432 59.9677 15.1043 51.7183 8.96692 51.4941Z"
          fill="#380D0A"/>
    <path d="M6.23419 30.4219C6.23419 30.4219 8.33971 34.95 10.938 39.8369C13.0883 43.8271 16.0002 50.3279 16.8514 54.0491C17.7026 57.7703 21.824 61.5811 23.5264 61.9846C25.2287 62.3881 27.4238 61.8053 27.4238 61.5811C27.4238 61.2673 8.87729 31.991 6.23419 30.4219Z"
          fill="#7F3B16"/>
    <path d="M28.8126 56.4705C28.8126 56.4705 31.3213 44.0068 24.4671 37.1473C17.613 30.2878 5.78622 29.6602 5.78622 29.6602C5.78622 29.6602 13.2676 40.8685 15.1491 46.4727C17.0306 52.0769 18.6881 60.1469 25.9455 62.0299C33.158 63.9577 28.8126 56.4705 28.8126 56.4705Z"
          fill="url(#paint3_linear_1395_18775)"/>
    <path opacity="0.38"
          d="M24.4671 37.1478C23.1679 35.8477 21.6896 34.7717 20.1664 33.875C20.1664 33.875 24.1087 37.8203 23.3919 40.062C22.6751 42.2588 21.2864 41.0035 21.0176 41.0035C20.7488 41.0035 22.9439 47.1905 21.7792 49.5219C20.8832 51.3152 18.1057 51.2255 16.493 50.7772C18.1057 55.5744 20.3456 60.6405 25.9006 62.0752C33.158 63.9582 28.8125 56.471 28.8125 56.471C28.8125 56.471 31.3212 44.0073 24.4671 37.1478Z"
          fill="#492410"/>
    <path opacity="0.5"
          d="M15.373 37.1016C15.373 37.1016 21.1968 40.6882 22.8991 45.8441C24.6015 50.9999 24.7359 56.0661 24.7359 56.0661C24.7359 56.0661 25.2734 48.5341 24.6015 46.2476C23.9743 44.0059 22.5855 40.1951 15.373 37.1016Z"
          fill="#380D0A"/>
    <path opacity="0.49"
          d="M18.0609 33.9187C21.1072 35.9362 22.7648 38.8055 21.376 38.8055C19.9425 38.8055 16.1346 35.9362 13.6259 35.3534C13.6259 35.3534 15.149 37.7295 17.4337 40.016C19.1809 41.7645 20.7936 45.396 19.2257 47.01C17.6129 48.6241 14.8354 41.361 12.6403 37.6399C10.4452 33.9187 8.33969 31.3184 8.33969 31.3184C8.33969 31.3184 15.0146 31.8564 18.0609 33.9187Z"
          fill="url(#paint4_linear_1395_18775)"/>
    <path opacity="0.49"
          d="M9.45969 49.1182C9.45969 49.1182 4.35268 48.6251 3.36711 48.7596C2.38155 48.8941 5.87582 50.7771 7.35416 52.2566C8.83251 53.7361 11.1172 56.6054 12.3716 56.6054C13.6259 56.6054 12.5956 53.1981 10.2213 52.4807C7.84695 51.7634 7.08537 50.5977 8.83251 50.5977C10.5796 50.5977 12.5508 52.1221 12.954 51.7186C13.3123 51.3151 12.2372 49.7011 9.45969 49.1182Z"
          fill="url(#paint5_linear_1395_18775)"/>
    <path d="M15.8658 33.5605C15.8658 33.5605 13.8051 33.695 15.1043 34.4572C16.4034 35.2194 20.1665 37.7749 20.3905 36.9231C20.6145 36.1161 18.7777 33.5605 15.8658 33.5605Z"
          fill="#FFDE8F"/>
    <path d="M16.269 39.8824C16.269 39.8824 15.1938 39.2547 16.045 41.3619C16.8962 43.4242 18.2849 45.3521 18.5089 44.0967C18.7329 42.7966 17.3442 40.5549 16.269 39.8824Z"
          fill="#FFDE8F"/>
    <path d="M7.9813 49.2968C7.9813 49.2968 6.05497 49.6106 7.9813 50.0141C9.90763 50.4176 11.7444 50.9556 11.4308 50.4624C11.1172 49.9693 9.90763 48.9829 7.9813 49.2968Z"
          fill="#FFDE8F"/>
    <path d="M9.50445 52.8383C9.50445 52.8383 7.98131 52.0762 9.19086 53.2867C10.4004 54.4972 11.162 55.349 11.4308 54.6765C11.6548 54.004 10.0868 53.0625 9.50445 52.8383Z"
          fill="#FFDE8F"/>
    <path opacity="0.5"
          d="M7.57809 64.3611C7.57809 64.3611 12.3267 63.1955 14.925 64.2266C17.5233 65.213 19.8976 65.9303 20.1216 65.9303C20.3456 65.9303 17.1201 65.9303 14.925 65.3026C12.7299 64.675 9.10124 64.3611 7.57809 64.3611Z"
          fill="#380D0A"/>
    <path opacity="0.49"
          d="M11.4308 62.8359C11.4308 62.8359 8.69808 63.2394 6.59256 63.9568C4.48703 64.7189 5.06942 64.8086 6.99574 65.2121C8.92207 65.6156 13.3123 66.9158 13.4467 66.3778C13.5811 65.8398 11.6996 65.1673 9.45965 64.8983C7.21974 64.6741 6.32377 64.3603 7.39893 64.2258C8.47409 64.0913 10.2212 63.4636 11.2516 63.4636C12.1924 63.4636 12.058 62.8359 11.4308 62.8359Z"
          fill="url(#paint6_linear_1395_18775)"/>
    <path d="M9.41487 64.8984C9.41487 64.8984 7.04056 65.2123 8.92209 65.6606C10.8484 66.1089 13.0883 65.5261 9.41487 64.8984Z"
          fill="#FFDE8F"/>
    <path d="M40.9529 44.5448C39.4746 44.5448 38.3994 44.6344 37.5482 44.7689C36.8763 41.8547 36.1595 36.5644 36.1595 27.5529C36.1595 11.5025 42.6552 12.982 48.031 13.0717C57.9763 13.2062 64.4272 13.0717 64.4272 13.0717C64.4272 13.0717 39.4746 -3.56148 32.3964 0.697694C25.3183 4.95687 24.8703 26.6114 24.3775 43.6032C23.8847 60.5951 21.6 74.2693 34.7259 74.7176C51.2117 75.3005 67.6975 75.8833 62.5457 64.8991C57.3491 54.0046 47.6279 44.5448 40.9529 44.5448Z"
          fill="url(#paint7_linear_1395_18775)"/>
    <g opacity="0.5">
        <path d="M36.2043 24.6383C35.3531 23.0692 31.6349 17.3305 25.4527 21.2758C25.3631 22.0828 25.3183 22.9347 25.2287 23.7417C26.1695 22.6208 28.0958 21.0068 31.4109 21.769C35.9803 22.8002 36.1595 26.8352 36.1595 27.418C36.1595 26.4765 36.1595 25.535 36.2043 24.6383Z"
              fill="#40170A"/>
        <path d="M31.1869 14.5498C34.5916 15.4465 36.4283 17.5985 37.0555 19.1676C37.1451 18.8986 37.1899 18.6745 37.2795 18.4503C35.6668 16.0741 31.5901 11.1425 26.5279 13.2945C26.4383 13.698 26.3935 14.1015 26.3039 14.505C27.4239 14.1463 29.0814 13.967 31.1869 14.5498Z"
              fill="#40170A"/>
        <path d="M35.9803 8.13926C38.713 10.8741 39.0714 13.5641 38.937 15.3126C39.3402 14.8643 39.7434 14.5056 40.1914 14.1918C39.2954 10.8293 36.3387 3.02825 29.171 4.55259C28.947 5.04576 28.723 5.53892 28.499 6.07692C30.2909 5.53892 33.158 5.35959 35.9803 8.13926Z"
              fill="#40170A"/>
    </g>
    <g opacity="0.42">
        <path d="M44.8504 54.4527C43.2377 53.8699 41.2665 57.8601 42.4313 59.0706C43.6408 60.2811 44.2232 60.0569 43.6408 59.4741C43.0585 58.8913 44.4472 56.6944 45.0296 56.6944C45.612 56.6944 54.6164 62.8814 51.2118 65.4817C47.8071 68.0821 38.8026 66.2888 36.3387 64.5851C33.83 62.8814 33.9196 52.3904 36.5179 48.1761C39.1162 44.0066 43.7304 45.0826 43.7304 45.0826C42.7449 44.7687 41.7593 44.5894 40.8634 44.5894C39.385 44.5894 38.3099 44.6791 37.4587 44.8136C36.7867 41.8994 36.0699 36.6091 36.0699 27.5975C36.0699 11.5472 42.5657 13.0267 47.9415 13.1163C57.8867 13.2508 64.3377 13.1163 64.3377 13.1163C64.3377 13.1163 58.5587 9.26068 51.7493 5.76367C56.498 8.18468 56.722 11.7265 52.7797 11.9059C48.7927 12.13 41.4009 12.3093 37.7723 14.6855C34.1884 17.1065 35.174 27.9114 35.174 31.498C35.174 35.0847 35.9803 44.0962 35.398 47.1001C34.8156 50.1039 29.2158 59.9224 32.9788 65.3024C36.7867 70.6824 51.4806 68.9788 54.7508 65.7059C58.1555 62.3882 46.4631 55.0804 44.8504 54.4527Z"
              fill="#300F0A"/>
        <path d="M50.8534 5.22656C51.0774 5.36106 51.3013 5.45072 51.4805 5.54039C51.2565 5.45072 51.0774 5.31623 50.8534 5.22656Z"
              fill="#38320A"/>
    </g>
    <path opacity="0.57"
          d="M42.924 46.9653C42.924 46.9653 38.2202 46.4273 37.0106 51.5831C35.8011 56.7389 37.369 60.5498 37.9066 61.0878C38.489 61.6706 39.6537 56.4699 41.5801 54.4973C43.5064 52.5694 47.0007 52.3004 50.5397 55.7974C54.034 59.2944 58.917 64.5399 58.917 62.7914C58.917 61.0878 50.4501 46.5618 42.924 46.9653Z"
          fill="url(#paint8_linear_1395_18775)"/>
    <path d="M63.3522 67.365C62.7698 70.5482 59.2756 72.207 55.5573 72.8347C51.7942 73.4624 37.8172 74.2245 31.187 72.5657C27.2 71.5794 25.0048 64.137 23.9297 58.3535C23.9745 67.8582 25.7216 74.359 34.7261 74.7177C49.8679 75.3005 65.0098 75.7937 63.3522 67.365Z"
          fill="#7F3B16"/>
    <path opacity="0.85"
          d="M31.9037 23.562C31.9037 23.562 26.7967 23.293 26.1695 26.5658C25.5423 29.8387 26.0351 33.8289 26.4383 35.7119C26.7967 37.5949 28.5886 28.4488 30.067 30.9595C31.5453 33.4702 30.8285 38.357 32.1725 38.357C33.5612 38.357 33.2924 42.3472 33.6508 45.1269C34.0092 47.8617 34.5468 45.62 34.5468 42.123C34.5468 38.5812 35.398 23.9207 31.9037 23.562Z"
          fill="#F7A634"/>
    <path d="M28.275 15.0449C28.275 15.0449 26.5278 16.3003 26.5278 17.5556C26.5278 18.8109 27.6478 17.0624 29.8877 17.8246C32.1276 18.5868 33.158 19.2144 33.7852 19.2144C34.4123 19.1696 34.7707 15.0449 28.275 15.0449Z"
          fill="url(#paint9_linear_1395_18775)"/>
    <path d="M32.934 7.64786C32.934 7.64786 29.4397 6.75119 28.5438 9.26186C27.6478 11.7725 30.6493 9.39636 31.9932 10.6965C33.2924 11.9967 35.6667 14.6419 36.2939 14.0142C36.9211 13.4314 37.0555 9.30669 32.934 7.64786Z"
          fill="url(#paint10_linear_1395_18775)"/>
    <path d="M33.2924 2.53566C33.2924 2.53566 35.1739 0.518156 39.5642 1.54932C43.9544 2.53566 51.4357 6.16717 52.4213 7.19834C53.4068 8.18467 50.4054 7.557 47.5383 7.557C44.6712 7.557 40.7737 7.19833 39.9673 8.00533C39.161 8.81233 38.8026 6.6155 37.7722 5.31533C36.4283 3.52199 35.1739 2.89433 33.2924 2.53566Z"
          fill="url(#paint11_linear_1395_18775)"/>
    <path d="M45.164 47.9974C45.164 47.9974 41.6249 47.011 40.0121 48.5802C38.4442 50.1494 42.9688 49.97 45.7463 50.9564C48.5238 51.9427 52.5557 54.3189 51.2565 52.2117C50.0022 50.1045 48.479 48.2215 45.164 47.9974Z"
          fill="#FFDE8F"/>
    <path d="M33.2476 24.6379C33.2476 25.4001 31.8589 26.0277 30.2013 26.0277C28.499 26.0277 27.1551 25.4001 27.1551 24.6379C27.1551 23.8757 28.5438 23.248 30.2013 23.248C31.8589 23.248 33.2476 23.8309 33.2476 24.6379Z"
          fill="#FFDE8F"/>
    <path d="M33.5612 28.0004C33.5612 28.4487 33.0236 28.8074 32.3516 28.8074C31.6796 28.8074 31.0973 28.4487 31.0973 28.0004C31.0973 27.552 31.6348 27.1934 32.3516 27.1934C32.9788 27.1934 33.5612 27.552 33.5612 28.0004Z"
          fill="#FFDE8F"/>
    <path d="M32.3516 16.2542C32.3516 16.7473 31.4557 17.106 30.3805 17.106C29.3053 17.106 28.4094 16.7025 28.4094 16.2542C28.4094 15.761 29.3053 15.4023 30.3805 15.4023C31.5005 15.4023 32.3516 15.761 32.3516 16.2542Z"
          fill="#FFDE8F"/>
    <path d="M40.1017 2.58035C40.1017 3.07351 39.0714 3.43219 37.7722 3.43219C36.5179 3.43219 35.4427 3.02868 35.4427 2.58035C35.4427 2.08718 36.4731 1.72852 37.7722 1.72852C39.0714 1.72852 40.1017 2.13201 40.1017 2.58035Z"
          fill="#FFDE8F"/>
    <path d="M34.0988 9.17189C34.0988 9.70989 33.2924 10.1582 32.3516 10.1582C31.3661 10.1582 30.5597 9.70989 30.5597 9.17189C30.5597 8.63389 31.3661 8.18555 32.3516 8.18555C33.2924 8.18555 34.0988 8.63389 34.0988 9.17189Z"
          fill="#FFDE8F"/>
    <path opacity="0.57"
          d="M33.5164 49.9688C33.5164 49.9688 28.9918 59.5183 32.038 65.3466C35.0843 71.1749 44.0888 68.5298 45.5671 69.3368C47.0455 70.1438 40.0121 71.5784 34.9499 69.6058C29.9325 67.6331 29.6189 64.8086 29.5741 60.4598C29.5293 56.0661 33.5164 49.9688 33.5164 49.9688Z"
          fill="url(#paint12_linear_1395_18775)"/>
    <path opacity="0.57"
          d="M26.7519 42.7065C26.7519 42.7065 28.1406 41.8098 28.6334 43.1996C29.1262 44.5895 30.2013 47.5485 30.8285 47.3243C31.5005 47.1002 32.486 47.145 31.9933 48.9831C31.5005 50.7765 28.1406 54.6322 27.4686 57.8602C26.8415 61.0433 25.4527 46.5173 26.7519 42.7065Z"
          fill="url(#paint13_linear_1395_18775)"/>
    <path opacity="0.57"
          d="M45.7911 58.3984C45.7911 58.3984 50.8981 60.5056 50.5846 62.8818C50.271 65.2579 47.4487 64.6751 45.9255 64.6751C44.4472 64.6751 48.1654 63.9578 47.7175 62.7473C47.3143 61.5368 43.9992 58.3984 45.7911 58.3984Z"
          fill="url(#paint14_linear_1395_18775)"/>
    <path d="M298.678 65.3022C298.678 65.3022 294.78 66.1988 291.868 67.0955C288.956 68.037 285.641 69.6958 283.805 69.92C281.968 70.1442 277.533 69.2923 276.368 68.575C275.203 67.9025 275.696 66.7368 275.696 66.7368C275.696 66.7368 285.686 66.0643 286.896 65.7505C288.195 65.5263 294.959 64.5848 298.678 65.3022Z"
          fill="#7F3B16"/>
    <path d="M273.098 63.913C273.098 63.913 283.043 61.0885 288.956 62.03C294.87 62.9715 298.678 65.3477 298.678 65.3477C298.678 65.3477 289.225 66.5134 285.193 68.6654C281.162 70.8174 274.307 67.2307 273.591 67.2307C272.874 67.2307 269.424 64.8097 273.098 63.913Z"
          fill="url(#paint15_linear_1395_18775)"/>
    <path opacity="0.28"
          d="M272.784 66.5137C272.919 65.617 273.098 64.7203 273.367 63.8237C274.89 63.4202 283.581 61.1336 289.001 61.9855C289.539 62.0751 290.076 62.1648 290.569 62.2993C289.27 63.0167 286.761 64.4962 287.926 64.4962C289.449 64.4962 286.717 65.5722 286.985 66.424C287.12 66.7827 288.016 67.0068 289.136 67.1862C287.657 67.5897 286.269 68.0828 285.238 68.6208C281.206 70.7728 274.352 67.1862 273.635 67.1862C273.456 67.1862 273.143 67.0516 272.784 66.8275C272.784 66.7378 272.74 66.6482 272.784 66.5137Z"
          fill="#492710"/>
    <path d="M301.276 48.041C301.276 48.041 301.231 48.0858 301.186 48.1307C300.738 48.6687 298.185 51.7173 295.631 54.228C292.809 57.0077 289.942 61.76 287.613 63.1499C285.328 64.5397 279.594 66.7814 276.413 65.4364C273.277 64.0914 278.787 62.4325 281.654 61.0875C284.521 59.7425 289.987 55.0799 291.376 54.0039C292.809 52.9727 301.276 48.041 301.276 48.041Z"
          fill="#7F3B16"/>
    <path d="M273.098 64.6295C273.098 64.6295 280.893 51.7175 287.299 49.6552C293.705 47.5928 301.5 48.0412 301.5 48.0412C301.5 48.0412 292.496 55.3938 290.838 58.7115C289.18 62.0292 284.163 64.4054 280.176 64.8537C276.144 65.3469 272.381 65.3469 272.381 65.3469L273.098 64.6295Z"
          fill="url(#paint16_linear_1395_18775)"/>
    <path opacity="0.28"
          d="M273.098 64.6304C273.098 64.6304 280.893 51.7184 287.299 49.6561C288.822 49.1629 290.435 48.8042 292.003 48.5801C291.958 48.5801 289.091 49.7009 288.016 51.2252C286.896 52.7496 288.912 53.1083 288.912 53.1083C288.912 53.1083 286.179 55.8879 286.851 57.8158C287.389 59.3401 289.852 58.5779 291.6 57.5019C291.286 57.9503 291.017 58.3538 290.838 58.7124C289.18 62.0301 284.163 64.4063 280.176 64.8546C276.144 65.3478 272.381 65.3478 272.381 65.3478L273.098 64.6304Z"
          fill="#492710"/>
    <path opacity="0.5"
          d="M293.033 51.4941C293.033 51.4941 289.315 52.1666 286.717 54.767C284.118 57.3673 282.416 60.2367 279.728 61.1782C277.04 62.1197 277.757 59.9677 277.757 59.9677C277.757 59.9677 286.896 51.7183 293.033 51.4941Z"
          fill="#38320A"/>
    <path d="M295.766 30.4219C295.766 30.4219 293.66 34.95 291.062 39.8369C288.912 43.8271 286 50.3279 285.149 54.0491C284.297 57.7703 280.176 61.5811 278.474 61.9846C276.771 62.3881 274.576 61.8053 274.576 61.5811C274.576 61.2673 293.123 31.991 295.766 30.4219Z"
          fill="#7F3B16"/>
    <path d="M273.187 56.4705C273.187 56.4705 270.679 44.0068 277.533 37.1473C284.387 30.2878 296.214 29.6602 296.214 29.6602C296.214 29.6602 288.732 40.8685 286.851 46.4727C284.969 52.0769 283.312 60.1469 276.055 62.0299C268.842 63.9577 273.187 56.4705 273.187 56.4705Z"
          fill="url(#paint17_linear_1395_18775)"/>
    <path opacity="0.28"
          d="M277.533 37.1478C278.832 35.8477 280.31 34.7717 281.834 33.875C281.834 33.875 277.891 37.8203 278.608 40.062C279.325 42.2588 280.714 41.0035 280.982 41.0035C281.251 41.0035 279.056 47.1905 280.221 49.5219C281.117 51.3152 283.894 51.2255 285.507 50.7772C283.894 55.5744 281.654 60.6405 276.099 62.0752C268.842 63.9582 273.187 56.471 273.187 56.471C273.187 56.471 270.679 44.0073 277.533 37.1478Z"
          fill="#492710"/>
    <path opacity="0.5"
          d="M286.627 37.1016C286.627 37.1016 280.803 40.6882 279.101 45.8441C277.398 50.9999 277.264 56.0661 277.264 56.0661C277.264 56.0661 276.727 48.5341 277.398 46.2476C278.026 44.0059 279.414 40.1951 286.627 37.1016Z"
          fill="#38320A"/>
    <path opacity="0.49"
          d="M283.939 33.9187C280.893 35.9362 279.235 38.8055 280.669 38.8055C282.102 38.8055 285.91 35.9362 288.419 35.3534C288.419 35.3534 286.896 37.7295 284.611 40.016C282.864 41.7645 281.251 45.396 282.819 47.01C284.432 48.6241 287.209 41.361 289.404 37.6399C291.6 33.9187 293.705 31.3184 293.705 31.3184C293.705 31.3184 286.985 31.8564 283.939 33.9187Z"
          fill="url(#paint18_linear_1395_18775)"/>
    <path opacity="0.49"
          d="M292.54 49.1182C292.54 49.1182 297.647 48.6251 298.633 48.7596C299.618 48.8941 296.124 50.7771 294.646 52.2566C293.168 53.7361 290.883 56.6054 289.628 56.6054C288.374 56.6054 289.404 53.1981 291.779 52.4807C294.153 51.7634 294.915 50.5977 293.168 50.5977C291.42 50.5977 289.404 52.1221 289.046 51.7186C288.688 51.3151 289.763 49.7011 292.54 49.1182Z"
          fill="url(#paint19_linear_1395_18775)"/>
    <path d="M286.134 33.5605C286.134 33.5605 288.195 33.695 286.896 34.4572C285.597 35.2194 281.834 37.7749 281.61 36.9231C281.386 36.1161 283.222 33.5605 286.134 33.5605Z"
          fill="#FFDE8F"/>
    <path d="M285.731 39.8824C285.731 39.8824 286.806 39.2547 285.955 41.3619C285.104 43.4242 283.715 45.3521 283.491 44.0967C283.267 42.7966 284.656 40.5549 285.731 39.8824Z"
          fill="#FFDE8F"/>
    <path d="M294.019 49.2968C294.019 49.2968 295.945 49.6106 294.019 50.0141C292.092 50.4176 290.256 50.9556 290.569 50.4624C290.883 49.9693 292.092 48.9829 294.019 49.2968Z"
          fill="#FFDE8F"/>
    <path d="M292.496 52.8383C292.496 52.8383 294.019 52.0762 292.809 53.2867C291.6 54.4972 290.838 55.349 290.569 54.6765C290.345 54.004 291.913 53.0625 292.496 52.8383Z"
          fill="#FFDE8F"/>
    <path opacity="0.5"
          d="M294.422 64.3611C294.422 64.3611 289.673 63.1955 287.075 64.2266C284.477 65.213 282.102 65.9303 281.878 65.9303C281.654 65.9303 284.88 65.9303 287.075 65.3026C289.27 64.675 292.899 64.3611 294.422 64.3611Z"
          fill="#38320A"/>
    <path opacity="0.49"
          d="M290.569 62.8359C290.569 62.8359 293.302 63.2394 295.407 63.9568C297.513 64.7189 296.931 64.8086 295.004 65.2121C293.078 65.6156 288.732 66.9158 288.553 66.3778C288.419 65.8398 290.3 65.1673 292.54 64.8983C294.78 64.6741 295.676 64.3603 294.601 64.2258C293.526 64.0913 291.779 63.4636 290.748 63.4636C289.808 63.4636 289.942 62.8359 290.569 62.8359Z"
          fill="url(#paint20_linear_1395_18775)"/>
    <path d="M292.585 64.8984C292.585 64.8984 294.959 65.2123 293.078 65.6606C291.152 66.1089 288.912 65.5261 292.585 64.8984Z"
          fill="#FFDE8F"/>
    <path d="M261.047 44.5448C262.525 44.5448 263.601 44.6344 264.452 44.7689C265.079 41.8547 265.841 36.5644 265.841 27.5529C265.841 11.5025 259.345 12.982 253.969 13.0717C244.024 13.2062 237.573 13.0717 237.573 13.0717C237.573 13.0717 262.57 -3.56148 269.604 0.697694C276.682 4.95687 277.13 26.6114 277.623 43.6032C278.115 60.5951 280.4 74.2693 267.274 74.7176C250.788 75.3005 234.303 75.8833 239.454 64.8991C244.651 54.0046 254.372 44.5448 261.047 44.5448Z"
          fill="url(#paint21_linear_1395_18775)"/>
    <g opacity="0.5">
        <path d="M265.796 24.6383C266.647 23.0692 270.365 17.3305 276.547 21.2758C276.637 22.0828 276.682 22.9347 276.771 23.7417C275.831 22.6208 273.904 21.0068 270.589 21.769C266.02 22.8002 265.841 26.8352 265.841 27.418C265.841 26.4765 265.841 25.535 265.796 24.6383Z"
              fill="#300F0A"/>
        <path d="M270.813 14.5498C267.408 15.4465 265.572 17.5985 264.945 19.1676C264.855 18.8986 264.81 18.6745 264.721 18.4503C266.333 16.0741 270.41 11.1425 275.472 13.2945C275.562 13.698 275.607 14.1015 275.696 14.505C274.576 14.1463 272.919 13.967 270.813 14.5498Z"
              fill="#300F0A"/>
        <path d="M266.02 8.13926C263.287 10.8741 262.929 13.5641 263.063 15.3126C262.66 14.8643 262.257 14.5056 261.809 14.1918C262.705 10.8293 265.661 3.02825 272.829 4.55259C273.053 5.04576 273.277 5.53892 273.501 6.07692C271.709 5.53892 268.842 5.35959 266.02 8.13926Z"
              fill="#300F0A"/>
    </g>
    <g opacity="0.42">
        <path d="M257.15 54.4527C258.762 53.8699 260.734 57.8601 259.569 59.0706C258.359 60.2811 257.777 60.0569 258.359 59.4741C258.942 58.8913 257.553 56.6944 256.97 56.6944C256.388 56.6944 247.384 62.8814 250.788 65.4817C254.193 68.0821 263.197 66.2888 265.661 64.5851C268.17 62.8814 268.08 52.3904 265.482 48.1761C262.884 44.0066 258.27 45.0826 258.27 45.0826C259.255 44.7687 260.241 44.5894 261.137 44.5894C262.615 44.5894 263.69 44.6791 264.541 44.8136C265.169 41.8994 265.93 36.6091 265.93 27.5975C265.93 11.5472 259.434 13.0267 254.059 13.1163C244.113 13.2508 237.662 13.1163 237.662 13.1163C237.662 13.1163 243.441 9.26068 250.251 5.76367C245.502 8.18468 245.278 11.7265 249.22 11.9059C253.207 12.13 260.599 12.3093 264.228 14.6855C267.812 17.1065 266.826 27.9114 266.826 31.498C266.826 35.0847 266.02 44.0962 266.647 47.1001C267.229 50.1039 272.829 59.9224 269.066 65.3024C265.258 70.6824 250.564 68.9788 247.294 65.7059C243.845 62.3882 255.537 55.0804 257.15 54.4527Z"
              fill="#300F0A"/>
        <path d="M251.147 5.22656C250.923 5.36106 250.699 5.45072 250.52 5.54039C250.743 5.45072 250.967 5.31623 251.147 5.22656Z"
              fill="#38320A"/>
    </g>
    <path opacity="0.57"
          d="M259.076 46.9653C259.076 46.9653 263.78 46.4273 264.989 51.5831C266.199 56.7389 264.631 60.5498 264.093 61.0878C263.511 61.6706 262.346 56.4699 260.42 54.4973C258.494 52.5694 254.999 52.3004 251.46 55.7974C247.966 59.2944 243.083 64.5399 243.083 62.7914C243.083 61.0878 251.55 46.5618 259.076 46.9653Z"
          fill="url(#paint22_linear_1395_18775)"/>
    <path d="M238.648 67.365C239.23 70.5482 242.725 72.207 246.443 72.8347C250.206 73.4624 264.183 74.2245 270.813 72.5657C274.8 71.5794 276.995 64.137 278.07 58.3535C278.026 67.8582 276.279 74.359 267.229 74.7177C252.132 75.3005 236.99 75.7937 238.648 67.365Z"
          fill="#7F3B16"/>
    <path opacity="0.85"
          d="M270.096 23.562C270.096 23.562 275.203 23.293 275.831 26.5658C276.458 29.8387 275.965 33.8289 275.562 35.7119C275.203 37.5949 273.411 28.4488 271.933 30.9595C270.41 33.4702 271.172 38.357 269.783 38.357C268.394 38.357 268.663 42.3472 268.26 45.1269C267.901 47.8617 267.364 45.62 267.364 42.123C267.453 38.5812 266.602 23.9207 270.096 23.562Z"
          fill="#F7A634"/>
    <path d="M273.725 15.0449C273.725 15.0449 275.472 16.3003 275.472 17.5556C275.472 18.8109 274.352 17.0624 272.112 17.8246C269.872 18.5868 268.842 19.2144 268.215 19.2144C267.588 19.1696 267.184 15.0449 273.725 15.0449Z"
          fill="url(#paint23_linear_1395_18775)"/>
    <path d="M269.066 7.64786C269.066 7.64786 272.56 6.75119 273.456 9.26186C274.352 11.7725 271.351 9.39636 270.007 10.6965C268.708 11.9967 266.333 14.6419 265.706 14.0142C265.079 13.4314 264.945 9.30669 269.066 7.64786Z"
          fill="url(#paint24_linear_1395_18775)"/>
    <path d="M268.708 2.53566C268.708 2.53566 266.826 0.518156 262.436 1.54932C258.046 2.53566 250.564 6.16717 249.579 7.19834C248.593 8.18467 251.595 7.557 254.462 7.557C257.329 7.557 261.226 7.19833 262.033 8.00533C262.839 8.81233 263.197 6.6155 264.228 5.31533C265.572 3.52199 266.826 2.89433 268.708 2.53566Z"
          fill="url(#paint25_linear_1395_18775)"/>
    <path d="M256.836 47.9974C256.836 47.9974 260.375 47.011 261.988 48.5802C263.556 50.1494 259.031 49.97 256.254 50.9564C253.476 51.9427 249.444 54.3189 250.743 52.2117C251.998 50.1045 253.521 48.2215 256.836 47.9974Z"
          fill="#FFDE8F"/>
    <path d="M268.797 24.6379C268.797 25.4001 270.186 26.0277 271.844 26.0277C273.546 26.0277 274.89 25.4001 274.89 24.6379C274.89 23.8757 273.501 23.248 271.844 23.248C270.141 23.248 268.797 23.8309 268.797 24.6379Z"
          fill="#FFDE8F"/>
    <path d="M268.439 28.0004C268.439 28.4487 268.976 28.8074 269.693 28.8074C270.365 28.8074 270.948 28.4487 270.948 28.0004C270.948 27.552 270.41 27.1934 269.693 27.1934C269.021 27.1934 268.439 27.552 268.439 28.0004Z"
          fill="#FFDE8F"/>
    <path d="M269.648 16.2542C269.648 16.7473 270.544 17.106 271.62 17.106C272.695 17.106 273.591 16.7025 273.591 16.2542C273.591 15.761 272.695 15.4023 271.62 15.4023C270.544 15.4023 269.648 15.761 269.648 16.2542Z"
          fill="#FFDE8F"/>
    <path d="M261.898 2.58035C261.898 3.07351 262.929 3.43219 264.228 3.43219C265.482 3.43219 266.557 3.02868 266.557 2.58035C266.557 2.08718 265.527 1.72852 264.228 1.72852C262.929 1.72852 261.898 2.13201 261.898 2.58035Z"
          fill="#FFDE8F"/>
    <path d="M267.901 9.17189C267.901 9.70989 268.708 10.1582 269.693 10.1582C270.679 10.1582 271.485 9.70989 271.485 9.17189C271.485 8.63389 270.679 8.18555 269.693 8.18555C268.708 8.18555 267.901 8.63389 267.901 9.17189Z"
          fill="#FFDE8F"/>
    <path opacity="0.57"
          d="M268.484 49.9688C268.484 49.9688 273.008 59.5183 269.962 65.3466C266.916 71.1749 257.911 68.5298 256.433 69.3368C254.955 70.1438 261.988 71.5784 267.05 69.6058C272.067 67.6331 272.381 64.8086 272.426 60.4598C272.471 56.0661 268.484 49.9688 268.484 49.9688Z"
          fill="url(#paint26_linear_1395_18775)"/>
    <path opacity="0.57"
          d="M275.248 42.7065C275.248 42.7065 273.859 41.8098 273.367 43.1996C272.874 44.5895 271.799 47.5485 271.172 47.3243C270.5 47.1002 269.514 47.145 270.007 48.9831C270.5 50.7765 273.859 54.6322 274.531 57.8602C275.159 61.0433 276.547 46.5173 275.248 42.7065Z"
          fill="url(#paint27_linear_1395_18775)"/>
    <path opacity="0.57"
          d="M256.209 58.3984C256.209 58.3984 251.102 60.5056 251.415 62.8818C251.729 65.2579 254.551 64.6751 256.074 64.6751C257.553 64.6751 253.835 63.9578 254.283 62.7473C254.686 61.5368 258.001 58.3984 256.209 58.3984Z"
          fill="url(#paint28_linear_1395_18775)"/>
    <defs>
        <linearGradient id="paint0_linear_1395_18775" x1="152.383" y1="70.6906" x2="152.383" y2="9.10743"
                        gradientUnits="userSpaceOnUse">
            <stop stop-color="#E38044"/>
            <stop offset="0.2647" stop-color="#99450F"/>
            <stop offset="0.9994" stop-color="#FC991A"/>
        </linearGradient>
        <linearGradient id="paint1_linear_1395_18775" x1="3.32776" y1="65.5667" x2="30.5659" y2="65.5667"
                        gradientUnits="userSpaceOnUse">
            <stop offset="0.1636" stop-color="#99450F"/>
            <stop offset="0.9994" stop-color="#FC991A"/>
        </linearGradient>
        <linearGradient id="paint2_linear_1395_18775" x1="0.484993" y1="56.6566" x2="29.5914" y2="56.6566"
                        gradientUnits="userSpaceOnUse">
            <stop offset="0.1636" stop-color="#99450F"/>
            <stop offset="0.9994" stop-color="#FC991A"/>
        </linearGradient>
        <linearGradient id="paint3_linear_1395_18775" x1="5.764" y1="46.0229" x2="30.1085" y2="46.0229"
                        gradientUnits="userSpaceOnUse">
            <stop offset="0.1636" stop-color="#99450F"/>
            <stop offset="0.9994" stop-color="#FC991A"/>
        </linearGradient>
        <linearGradient id="paint4_linear_1395_18775" x1="15.3738" y1="35.4204" x2="32.4387" y2="76.5292"
                        gradientUnits="userSpaceOnUse">
            <stop offset="0.0606061" stop-color="#F0C252"/>
            <stop offset="1" stop-color="#EB9978"/>
        </linearGradient>
        <linearGradient id="paint5_linear_1395_18775" x1="7.316" y1="49.1116" x2="21.2392" y2="66.3094"
                        gradientUnits="userSpaceOnUse">
            <stop offset="0.0606061" stop-color="#F0C252"/>
            <stop offset="1" stop-color="#EB9978"/>
        </linearGradient>
        <linearGradient id="paint6_linear_1395_18775" x1="10.0929" y1="64.3725" x2="26.8274" y2="69.9721"
                        gradientUnits="userSpaceOnUse">
            <stop offset="0.0606061" stop-color="#F0C252"/>
            <stop offset="1" stop-color="#EB9978"/>
        </linearGradient>
        <linearGradient id="paint7_linear_1395_18775" x1="44.7837" y1="83.5863" x2="43.6166" y2="-5.51377"
                        gradientUnits="userSpaceOnUse">
            <stop stop-color="#99450F"/>
            <stop offset="0.9994" stop-color="#FC991A"/>
        </linearGradient>
        <linearGradient id="paint8_linear_1395_18775" x1="48.2507" y1="45.9535" x2="47.5482" y2="63.8201"
                        gradientUnits="userSpaceOnUse">
            <stop offset="0.0606061" stop-color="#FAB529"/>
            <stop offset="1" stop-color="#FF9400"/>
        </linearGradient>
        <linearGradient id="paint9_linear_1395_18775" x1="30.3928" y1="15.3497" x2="30.3023" y2="19.1184"
                        gradientUnits="userSpaceOnUse">
            <stop offset="0.0606061" stop-color="#FAC954"/>
            <stop offset="1" stop-color="#FF9400"/>
        </linearGradient>
        <linearGradient id="paint10_linear_1395_18775" x1="32.5041" y1="7.06323" x2="32.5041" y2="14.1564"
                        gradientUnits="userSpaceOnUse">
            <stop offset="0.0606061" stop-color="#FAC954"/>
            <stop offset="1" stop-color="#FF9400"/>
        </linearGradient>
        <linearGradient id="paint11_linear_1395_18775" x1="42.9144" y1="1.54444" x2="43.0335" y2="11.2214"
                        gradientUnits="userSpaceOnUse">
            <stop offset="0.0606061" stop-color="#FAC954"/>
            <stop offset="1" stop-color="#FF9400"/>
        </linearGradient>
        <linearGradient id="paint12_linear_1395_18775" x1="37.7943" y1="49.7377" x2="37.6176" y2="70.8415"
                        gradientUnits="userSpaceOnUse">
            <stop offset="0.0606061" stop-color="#FAB529"/>
            <stop offset="1" stop-color="#FF9400"/>
        </linearGradient>
        <linearGradient id="paint13_linear_1395_18775" x1="29.1993" y1="41.1326" x2="29.113" y2="58.5625"
                        gradientUnits="userSpaceOnUse">
            <stop offset="0.0606061" stop-color="#FAB529"/>
            <stop offset="1" stop-color="#FF9400"/>
        </linearGradient>
        <linearGradient id="paint14_linear_1395_18775" x1="47.9459" y1="57.7694" x2="47.9459" y2="66.1723"
                        gradientUnits="userSpaceOnUse">
            <stop offset="0.0606061" stop-color="#FAB529"/>
            <stop offset="1" stop-color="#FF9400"/>
        </linearGradient>
        <linearGradient id="paint15_linear_1395_18775" x1="298.675" y1="65.5667" x2="271.436" y2="65.5667"
                        gradientUnits="userSpaceOnUse">
            <stop offset="0.1636" stop-color="#99450F"/>
            <stop offset="0.9994" stop-color="#FC991A"/>
        </linearGradient>
        <linearGradient id="paint16_linear_1395_18775" x1="301.512" y1="56.6566" x2="272.411" y2="56.6566"
                        gradientUnits="userSpaceOnUse">
            <stop offset="0.1636" stop-color="#99450F"/>
            <stop offset="0.9994" stop-color="#FC991A"/>
        </linearGradient>
        <linearGradient id="paint17_linear_1395_18775" x1="296.238" y1="46.0229" x2="271.893" y2="46.0229"
                        gradientUnits="userSpaceOnUse">
            <stop offset="0.1636" stop-color="#99450F"/>
            <stop offset="0.9994" stop-color="#FC991A"/>
        </linearGradient>
        <linearGradient id="paint18_linear_1395_18775" x1="286.628" y1="35.4202" x2="269.565" y2="76.5254"
                        gradientUnits="userSpaceOnUse">
            <stop offset="0.0606061" stop-color="#F0C252"/>
            <stop offset="1" stop-color="#EB9978"/>
        </linearGradient>
        <linearGradient id="paint19_linear_1395_18775" x1="294.685" y1="49.1113" x2="280.762" y2="66.3085"
                        gradientUnits="userSpaceOnUse">
            <stop offset="0.0606061" stop-color="#F0C252"/>
            <stop offset="1" stop-color="#EB9978"/>
        </linearGradient>
        <linearGradient id="paint20_linear_1395_18775" x1="291.908" y1="64.3726" x2="275.174" y2="69.9724"
                        gradientUnits="userSpaceOnUse">
            <stop offset="0.0606061" stop-color="#F0C252"/>
            <stop offset="1" stop-color="#EB9978"/>
        </linearGradient>
        <linearGradient id="paint21_linear_1395_18775" x1="258.44" y1="80.7875" x2="257.273" y2="-8.31245"
                        gradientUnits="userSpaceOnUse">
            <stop stop-color="#99450F"/>
            <stop offset="0.9994" stop-color="#FC991A"/>
        </linearGradient>
        <linearGradient id="paint22_linear_1395_18775" x1="254.474" y1="50.7401" x2="253.847" y2="75.6456"
                        gradientUnits="userSpaceOnUse">
            <stop offset="0.0606061" stop-color="#FAB529"/>
            <stop offset="1" stop-color="#FF9400"/>
        </linearGradient>
        <linearGradient id="paint23_linear_1395_18775" x1="271.951" y1="7.63034" x2="270.448" y2="63.3147"
                        gradientUnits="userSpaceOnUse">
            <stop offset="0.0606061" stop-color="#FAC954"/>
            <stop offset="1" stop-color="#FF9400"/>
        </linearGradient>
        <linearGradient id="paint24_linear_1395_18775" x1="269.599" y1="7.56855" x2="268.097" y2="63.2384"
                        gradientUnits="userSpaceOnUse">
            <stop offset="0.0606061" stop-color="#FAC954"/>
            <stop offset="1" stop-color="#FF9400"/>
        </linearGradient>
        <linearGradient id="paint25_linear_1395_18775" x1="258.983" y1="7.28006" x2="257.481" y2="62.9596"
                        gradientUnits="userSpaceOnUse">
            <stop offset="0.0606061" stop-color="#FAC954"/>
            <stop offset="1" stop-color="#FF9400"/>
        </linearGradient>
        <linearGradient id="paint26_linear_1395_18775" x1="264.232" y1="64.0084" x2="269.538" y2="90.1162"
                        gradientUnits="userSpaceOnUse">
            <stop offset="0.0606061" stop-color="#FAB529"/>
            <stop offset="1" stop-color="#FF9400"/>
        </linearGradient>
        <linearGradient id="paint27_linear_1395_18775" x1="273.142" y1="46.356" x2="268.937" y2="91.1329"
                        gradientUnits="userSpaceOnUse">
            <stop offset="0.0606061" stop-color="#FAB529"/>
            <stop offset="1" stop-color="#FF9400"/>
        </linearGradient>
        <linearGradient id="paint28_linear_1395_18775" x1="254.242" y1="59.8813" x2="252.493" y2="78.5008"
                        gradientUnits="userSpaceOnUse">
            <stop offset="0.0606061" stop-color="#FAB529"/>
            <stop offset="1" stop-color="#FF9400"/>
        </linearGradient>
        <clipPath id="clip0_1395_18775">
            <rect width="244" height="56" fill="white" transform="translate(28.5 13)"/>
        </clipPath>
    </defs>
</svg>
