<svg xmlns="http://www.w3.org/2000/svg" xmlns:xlink="http://www.w3.org/1999/xlink" viewBox="0 0 75.53 23.08">
  <defs>
    <radialGradient xlink:href="#a" id="f" cx="15.92" cy="-34.26" r="66.82" fx="15.92" fy="-34.26">
      <stop offset="0" stop-color="#b0a499"/>
      <stop offset="1" stop-color="#7a6e63"/>
    </radialGradient>
    <radialGradient xlink:href="#a" id="b" cx="-3.79" cy="8.6" r="30.28" fx="-3.79" fy="8.6">
      <stop offset="0" stop-color="#918173"/>
      <stop offset="1"/>
    </radialGradient>
    <radialGradient xlink:href="#a" id="c" cx="78.47" cy="12.08" r="22.46" fx="78.47" fy="12.08">
      <stop offset="0" stop-color="#918173"/>
      <stop offset="1" stop-color="#fff"/>
    </radialGradient>
    <radialGradient xlink:href="#a" id="h" cx="62.26" cy="61.18" r="90.41" fx="62.26" fy="61.18">
      <stop offset="0" stop-color="#b0a499"/>
      <stop offset="1" stop-color="#69594b"/>
    </radialGradient>
    <radialGradient xlink:href="#b" id="i" cx="31.11" cy="-118.83" r="161.68" fx="31.11" fy="-118.83"/>
    <radialGradient xlink:href="#a" id="j" cx="35.9" cy=".02" r="5.36" fx="35.9" fy=".02">
      <stop offset="0" stop-color="#b0a499"/>
      <stop offset="1" stop-color="#4f3c2a"/>
    </radialGradient>
    <radialGradient xlink:href="#b" id="k" cx="74.61" cy="20.1" r="16.75" fx="74.61" fy="20.1"/>
    <radialGradient xlink:href="#c" id="l" cx="9.23" cy="19.49" r="19.06" fx="9.23" fy="19.49"/>
    <radialGradient xlink:href="#b" id="m" cx="83.72" cy="33.17" r="87.75" fx="83.72" fy="33.17"/>
    <radialGradient xlink:href="#a" id="d" cx="66.82" cy="21.81" r="4.96" fx="66.82" fy="21.81">
      <stop offset="0" stop-color="#85786b"/>
      <stop offset="1" stop-color="#4f3c2a"/>
    </radialGradient>
    <radialGradient xlink:href="#b" id="n" cx="67.49" cy="22.8" r="6.12" fx="67.49" fy="22.8"/>
    <radialGradient xlink:href="#b" id="o" cx="8.15" cy="-24.04" r="92.9" fx="8.15" fy="-24.04"/>
    <radialGradient xlink:href="#d" id="p" cx="13.65" cy="1.98" r="7.92" fx="13.65" fy="1.98"/>
    <radialGradient xlink:href="#b" id="q" cx="14.69" cy=".96" r="4.68" fx="14.69" fy=".96"/>
    <radialGradient xlink:href="#d" id="r" cx="54.58" cy="2.06" r="7.19" fx="54.58" fy="2.06"/>
    <radialGradient xlink:href="#b" id="s" cx="55.87" cy="3.23" r="4.53" fx="55.87" fy="3.23"/>
    <radialGradient xlink:href="#b" id="t" cx="-6.88" cy="-86.94" r="133.4" fx="-6.88" fy="-86.94"/>
    <radialGradient xlink:href="#b" id="u" cx="39.48" cy="-65.83" r="96.52" fx="39.48" fy="-65.83"/>
    <radialGradient xlink:href="#b" id="v" cx="98.31" cy="-77.83" r="113.45" fx="98.31" fy="-77.83"/>
    <radialGradient xlink:href="#b" id="w" cx="41.65" cy="-76.6" r="91.83" fx="41.65" fy="-76.6"/>
    <radialGradient xlink:href="#a" id="e" cx="-4.87" cy="-89.04" r="124.55" fx="-4.87" fy="-89.04">
      <stop offset="0" stop-color="#6b5f55"/>
      <stop offset="1"/>
    </radialGradient>
    <radialGradient xlink:href="#e" id="x" cx="19.47" cy="-93.5" r="132.44" fx="19.47" fy="-93.5"/>
    <radialGradient xlink:href="#e" id="y" cx="76.79" cy="-86.83" r="110.46" fx="76.79" fy="-86.83"/>
    <radialGradient xlink:href="#e" id="z" cx="59.32" cy="-58.95" r="86.99" fx="59.32" fy="-58.95"/>
    <radialGradient xlink:href="#e" id="A" cx="-10.22" cy="-83.85" r="112.87" fx="-10.22" fy="-83.85"/>
    <radialGradient xlink:href="#e" id="B" cx="103.49" cy="-92.85" r="123.8" fx="103.49" fy="-92.85"/>
    <radialGradient xlink:href="#c" id="C" cx="35.37" cy="-5.07" r="43.44" fx="35.37" fy="-5.07"/>
    <linearGradient xlink:href="#a" id="g" x1="37.77" x2="37.77" y1="21.78" y2="4.97">
      <stop offset="0" stop-color="#66584d"/>
      <stop offset="1" stop-color="#544639"/>
    </linearGradient>
    <linearGradient id="a" gradientUnits="userSpaceOnUse"/>
  </defs>
  <g fill-rule="evenodd">
    <path fill="url(#f)" d="m4.67 0 27.37.13a3.04 3.04 0 0 0 1.26.58c.33.05 1.83-.19 2.47-.57L70.86 0c.19 0 .36.05.51.17l.45.33a.78.78 0 0 1 .31.44l3.39 10.61v1.84c-1.05 3.19-2.41 5.58-3.39 8.77-.06.18-.16.32-.31.44l-.45.33c-.16.11-.32.17-.51.17-18.85-.19-47.58-.18-66.19 0-.19 0-.36-.05-.51-.17l-.45-.33c-.15-.11-.26-.25-.32-.44-.36-1.2-.78-2.29-1.22-3.35.01-.05.02-.08.02-.1.01-.19-.13-.53-.47-.96-.59-1.39-1.2-2.78-1.73-4.37v-1.84C1.2 8.03 2.32 4.5 3.39.93a.87.87 0 0 1 .32-.44l.45-.33c.15-.11.32-.16.51-.16z"/>
    <path fill="url(#g)" d="M5.99 4.97 3.3 13.38l2.69 8.4h63.56l2.69-8.4-2.69-8.4H6z"/>
    <path fill="url(#b)" d="M4.4 1.88 4.42.04c-.09.03-.18.07-.26.13L3.71.5c-.15.11-.26.25-.32.44C2.32 4.5 1.19 8.04 0 11.55v1.84c1.2-3.5 2.32-7.04 3.39-10.61.06-.18.16-.32.32-.44l.45-.33c.08-.06.16-.1.24-.13Z" style="mix-blend-mode:screen"/>
    <path fill="url(#c)" d="m71.01.01.02 1.84c.12.02.24.07.34.15l.45.33a.78.78 0 0 1 .31.44l3.39 10.61v-1.84L72.13.93c-.06-.18-.16-.32-.31-.44l-.45-.33a.97.97 0 0 0-.36-.16z" style="mix-blend-mode:multiply"/>
    <path fill="url(#h)" d="M69.55 20.86c-17.85-.17-45.71-.17-63.56 0l-2.54-7.94-.15.46 2.69 8.4h63.56l2.69-8.4-.15-.46-2.54 7.94z"/>
    <path fill="url(#i)" d="m74.96 12.23-3-9.41c-.04-.15-.13-.26-.25-.35l-.45-.33a.66.66 0 0 0-.27-.12c-.04 0-.09-.01-.13-.01H4.66c-.07 0-.14 0-.21.03-.07.02-.13.06-.19.1l-.45.33c-.12.09-.21.2-.25.35C2.6 6.02 1.59 9.2.53 12.36c-.63 1.87 2.6.97 3-.21L4 10.72l1.83-5.8.04-.12h63.81l.04.12 1.83 5.77.52 1.58c.43 1.3 3.61 2.06 2.91-.05z" style="mix-blend-mode:screen"/>
    <path fill="url(#j)" d="M32.04.13c.54.82 1.14 1.25 1.36 1.26.26.01 1.39-.46 2.37-1.25-.65.38-2.15.62-2.47.57-.25-.04-.86-.24-1.26-.58Z"/>
    <path fill="url(#k)" d="M69.55 20.86v.92l2.69-8.4-.15-.46-2.54 7.94z" style="mix-blend-mode:screen"/>
    <path fill="url(#l)" d="m5.99 20.86-2.54-7.94-.15.46 2.69 8.4v-.92z" style="mix-blend-mode:multiply"/>
    <path fill="url(#m)" d="m4.4 16.73 1.49 5.17c.01.05.08.06.13.06l56.5-.08c.08 0 .14.06.21.08.44.15.85.45 1.31.45.38 0 .71-.28 1.06-.42.12-.04.41-.15.52-.16l3.9.04c.04 0 .08-.03.09-.07l1.91-6.29-1.98 6.14c0 .03-.02.07-.05.07-1.31 0-2.61-.02-3.92-.05-.21 0-.39-.05-.59-.06l-.97-.02c-.3 0-.6-.02-.9 0-.21.01-.41.08-.62.08l-56.46.01c-.04 0-.08-.05-.09-.09l-1.57-4.88z" style="mix-blend-mode:screen"/>
    <path fill="url(#d)" d="M62.51 21.72c.53-.28 2.71-.21 2.92.02-.43.47-.89.79-1.31.78-.35 0-1.23-.42-1.61-.8Z"/>
    <path fill="url(#n)" d="M64.12 22.52c.42 0 .88-.31 1.31-.78-.08-.09-.47-.16-.94-.19-.26-.02-1.03.96-.38.97Z" style="mix-blend-mode:screen"/>
    <path fill="url(#o)" d="m2.79 4.75.58-2.12c.02-.07.13-.21.19-.26.23-.18.47-.34.71-.5.08-.06.2-.08.3-.08l3.76-.09c.43-.02 1.49-.33 2.1-.4a4.49 4.49 0 0 1 1.1.02c.65.09 1.2.32 1.79.44.13.03.26.03.38.03l36.38.07c.21 0 .43-.19.63-.25.47-.12 1.36-.16 1.85-.17.24 0 .48 0 .71.05.29.07.53.25.82.32.25.05.51.03.76.03l16.03-.09c.18 0 .34.04.48.15l.56.49-.68-.45c-.08-.05-.21-.08-.44-.08l-16.61.17a.51.51 0 0 0-.22.05c-.59.3-.8.54-1.54.71-.14.03-.29 0-.43-.02-.44-.1-.87-.25-1.3-.38-.18-.05-.35-.12-.53-.18-.13-.04-.25-.09-.38-.11-.24-.04-.48-.06-.72-.06l-35.6-.05c-.07 0-.13.04-.19.08-.14.1-.26.24-.4.35-.53.45-.98.91-1.75.8-.35-.05-.7-.15-1.04-.25-.64-.2-1.12-.53-1.71-.81a2.9 2.9 0 0 0-1-.22l-2.81-.03a.62.62 0 0 0-.32.09c-.21.14-.4.3-.59.46-.11.09-.16.15-.25.4l-.64 1.88z" style="mix-blend-mode:screen"/>
    <path fill="url(#p)" d="M8.37 1.8c.67-.25 1.95-.45 2.19-.46.99-.01 2.36.27 2.73.56-.57 1.04-1.52 1.44-1.88 1.43-.53 0-2.27-.51-3.05-1.54Z"/>
    <path fill="url(#q)" d="M11.42 3.34c.24 0 .77-.18 1.25-.63.23-.21.44-.47.62-.8-.11-.08-.3-.17-.54-.25-.59-.19-1.49-.33-2.19-.32-.64 0 .56 2 .85 2Z" style="mix-blend-mode:screen"/>
    <path fill="url(#r)" d="M50.24 1.96c.12-.1.35-.26.54-.29.61-.11 1.87-.23 2.64-.1.32.05.57.25.66.37-.6.57-1.3.88-1.5.91-.31.03-1.47-.26-2.34-.89Z"/>
    <path fill="url(#s)" d="M52.18 2.81c.18.04.32.05.4.04.16-.02.61-.21 1.09-.56.14-.1.28-.22.42-.35-.1-.12-.34-.32-.66-.37-.11-.02-.23-.03-.35-.04-.21-.01-1.31 1.19-.89 1.28Z" style="mix-blend-mode:screen"/>
    <path fill="url(#t)" d="M7.38 20.38c-.3 0-.62-.03-.87-.18a1.74 1.74 0 0 1-.69-.78c-.21-.5-1.38-3.43-1.33-3.77.05-.31.36-.31.15-.96-.18-.56-.71-1.71-.59-2.24.07-.32.24-.8.35-1.13.21-.68 1.16-3.5 1.46-3.9.24-.32.77-.48 1.13-.69.74-.44.54-.41 1.46-.42 2.45-.02 12.68.06 15.11.24 1.13.08 1.48.09 2.55-.05 1.13-.15 3.97-.02 4.94.32.55.19 6.96 4.19 7.74 5.24.31.41 1.28 3.84 1.35 4.35.09.7.05 1.15.25 1.87.11.4.39 1.56-.23 1.68-.42.08-1.41.12-1.88.15l-3.23.24c-1.4.12-1.51-.26-2.74-.3-1.57-.05-2.74.04-4.29.17-1.52.12-2.05.04-3.49-.15-1.73-.22-9.97-.15-11.61.21-1.03.22-3.11.11-4.26.12H7.4z" style="mix-blend-mode:screen"/>
    <path fill="url(#u)" d="M42.18 20.12c-.46-.03-.81-.57-.96-1.01-.49-1.44-.97-3-1.12-4.51a13.92 13.92 0 0 0-.38-2.22c-.11-.44.43-.87.71-1.17.57-.6.91-1 1.58-1.49 1.06-.77 1.58-1.54 2.5-2.3.28-.23.45-.19.78-.19.9 0 .94-.65 1.62-.7l2.91-.18c1.13-.04 2.12.32 3.22.24.64-.04.79.19 1.06.75.33.67.55 1.08.76 1.82.98 3.33 1.71 6.51 2.38 9.91.07.37-.04 1.03-.41 1.06-.52.04-3.55.27-3.92.18-.8-.2-.75-.29-1.72-.29-1.77-.01-3.39.14-5.15.25-1.16.07-2.68-.06-3.87-.13z" style="mix-blend-mode:screen"/>
    <path fill="url(#v)" d="M58.63 20.17c-.77-.14-.85-.92-1.03-1.55-.06-.2-.22-.59-.15-.79.19-.56.07-.85-.09-1.42-.28-1.01-.56-1.85-.98-2.81-.29-.67-.55-2.03-.72-2.8l-.68-3.09c-.1-.46.09-.49.33-.84.09-.13.29-.29.45-.33.22-.06 1.07-.1 1.35-.12l2.22-.1c1.33-.02 5.11.68 6.33.16.7-.3 1.03-.23 1.79-.23.21 0 .8-.01.97.05.26.09.48.35.71.51.51.38.56.77.73 1.37.36 1.26.43 2.22 1.01 3.44.17.37.55 1.2.55 1.58 0 .66.05.95-.24 1.57-.18.37-.54 1.5-.55 1.88 0 .34.07.28-.09.62l-1 1.9-.03.05c-.14.26-.28.4-.5.6-.26.25-.52.39-.88.4l-8.76.01-.77-.06z" style="mix-blend-mode:screen"/>
    <path fill="url(#w)" d="M37.38 10.19c.43.38.89.54 1.47.6.42.05.91-.26 1.28-.46.73-.38 1.58-1.17 2.23-1.71l1.42-1.25.34-.34c.12-.12.05-.46-.13-.47l-6.62-.09-2.79.1c-.24 0-1.87-.04-2.01.1-.22.2.19.5.34.65.44.43 1.21.92 1.76 1.23.89.5 1.41.48 2.26 1.23l.44.41z" style="mix-blend-mode:screen"/>
    <path fill="url(#e)" d="M8.14 6.89c-.86-.04-2.06.55-2.26 1.35-.22.87-2.12 4.69-1.3 5.32.66.5.22 2.17 1.64 2.17 5.78 0 2.87-2.07 6.25-3.14.54-.17 11.93.11 13.55-.3 3.26-.82 1.98-1.69 6.24-.51 1.58.44 2.31.37 4.01 1.24.72.37 3.01.01.67-1.5s-3.53-1.46-6.05-3.37c-1.59-1.2-.07-1.33-3.45-1.33-2.53 0-1.76.66-2.77.88-.57.13-11.76-.93-13.14-.93-.63 0-2.88.14-3.38.11Z" style="mix-blend-mode:screen"/>
    <path fill="url(#x)" d="M34.7 6.83c-.39-.09-1.71.21-.79.68.72.36 2.51 1.35 3.27 1.35.41 0 1.44.85 2.06.89.86.06.48.02 1.39-.45.9-.46 1.57-.45 2.2-1.36.22-.31 1.09-.84.54-1.19-.03-.02-8.04-.09-8.32.11-.06.04-.34-.04-.35-.04Z" style="mix-blend-mode:screen"/>
    <path fill="url(#y)" d="M40.35 12.99c0-1.64 0-.86 1.15-2.27.54-.66 2.41-2 3.22-2.6.52-.4.71.95 2.48-.88.32-.33 5.92-.36 6.3 0 1.47 1.43 1.26 3.76 1.73 4.86.08.18.72 3.92.71 3.95-.4 1.08-4.14.21-5.48.28-.49.02-2.11-.53-2.53-.99-.75-.81-1.79-1.77-2.95-1.77-1.91 0-2.86.14-4.6-.44-.03-.09-.03-.06-.03-.16Z" style="mix-blend-mode:screen"/>
    <path fill="url(#z)" d="M44.93 14.46c-.43-.16-2.65-.1-2.94.31-.34.49-.78.42-.47 1.46s-.24 1.31 1.46 1.31c.82 0 4.18.35 4.12-.83-.06-1.13-.29-1.02-1.14-1.65-.08-.06-.76-.49-1.03-.59z" style="mix-blend-mode:screen"/>
    <path fill="url(#A)" d="M11.35 15.12c-.04-.23.37-1.62.58-1.64.43-.04.93-.34 1.62-.37l9.36-.19c1.03 0 1.1-.09 2.06.24.4.14 3.25-.5 3.7-.69.56-.23 1.35.12 1.61.75.35.86-.71 1.3-1.34 1.63-.77.4-3.44.99-4.54 1.39-1.71.62-10.17-.68-11.11-.3-.23.09-1.35.05-1.53-.14-.09-.09-.43-.76-.42-.69z" style="mix-blend-mode:screen"/>
    <path fill="url(#B)" d="M55.57 7.61c-.19 1.19-.24.77.21 2 .19.52.35 1.4.41 1.96.11 1.08.73.83 1.48 1.2.02 0 1.17.24 1.39.33 1.37.57 3.98.2 5.48 1.12.7.43 1.83.47 2.38 1.28.19.28 3.02.6 3.31.38.51-.4.17-.59.63-1.22.33-.44.38-1.72.07-2.19-.27-.41-.3-.57-.73-.8-.12-.07-.87-3.33-1.1-3.78-.13-.26-.19-.71-.62-.95-.88-.49-.55-.26-1.54-.31-.07 0-1.21.33-1.59.37-.98.09-1.34.23-2.45.23-1.48 0-2.51-.48-4.12-.48-.86 0-3.05-.09-3.2.86Z" style="mix-blend-mode:screen"/>
    <path fill="url(#C)" d="m36.14 9.66 2.65 1.98a1.59 1.59 0 0 1 .37.61l.91 3.19c-.11-1.27-.37-1.95-.59-3.13-.08-.42.27-.99.54-1.28.3-.33.67-.57 1.11-.92l.92-.69 2.29-2.12-3.69 3c-.14.11-.64.47-1.01.71-.58.38-.8.33-1.43-.02-.5-.28-.92-.72-1.31-.95-.24-.15-.51-.24-.77-.36z" style="mix-blend-mode:multiply"/>
  </g>
</svg>
