<svg width="176" height="43" viewBox="0 0 176 43" fill="none" xmlns="http://www.w3.org/2000/svg">
<path fill-rule="evenodd" clip-rule="evenodd" d="M12.6122 0.221069C30.0512 0.403982 47.2218 0.40398 64.6608 0.40398C65.734 0.952719 67.3438 1.31854 68.1486 1.50146C68.9535 1.68437 72.9779 1.13563 74.8559 0.40398C104.368 0.40398 134.148 0.403982 163.66 0.221069C164.197 0.221069 164.734 0.403977 165.002 0.58689C165.27 0.769803 165.807 0.952721 166.075 1.13563C166.612 1.31855 166.88 1.68437 166.88 1.86728C169.831 8.26924 172.782 14.6712 176.002 21.2561V24.5485C173.051 30.4017 169.563 34.7916 166.88 40.6448C166.612 41.0107 166.343 41.1936 166.075 41.3765C165.807 41.5594 165.27 41.7423 165.002 41.9252C164.465 42.1081 164.197 42.2911 163.66 42.2911C112.953 41.9252 62.7828 41.9252 12.8805 42.2911C12.3439 42.2911 11.8073 42.1081 11.539 41.9252C11.2708 41.7423 10.7342 41.5594 10.4659 41.3765C9.92931 41.1936 9.66097 40.8278 9.66097 40.6448C8.5878 38.4499 7.51468 36.4378 6.44151 34.6087V34.4258C6.44151 34.06 6.17322 33.5112 5.10006 32.5967C3.4903 30.0359 1.88052 27.4751 0.539062 24.5485V21.2561C3.75856 14.8541 6.70976 8.45215 9.66097 1.86728C9.92926 1.50146 10.1976 1.31855 10.4659 1.13563C10.7342 0.952721 11.2708 0.769803 11.539 0.58689C11.539 0.403977 12.0756 0.221069 12.6122 0.221069Z" fill="url(#paint0_radial_656_179723)"/>
<path d="M16.0993 9.36694C13.6847 14.4885 11.2701 19.6101 8.85547 24.7316C11.2701 29.8532 13.6847 34.9748 16.0993 40.0963C64.1235 39.7305 111.879 39.7305 159.904 40.0963C162.318 34.9748 164.733 29.8532 167.148 24.7316C164.733 19.6101 162.318 14.4885 159.904 9.36694C111.879 9.73277 64.1235 9.73277 16.0993 9.36694Z" fill="url(#paint1_linear_656_179723)"/>
<path fill-rule="evenodd" clip-rule="evenodd" d="M11.8049 3.69661V0.404175C11.5366 0.404175 11.2683 0.587085 11 0.587085C10.7317 0.769998 10.1951 0.952917 9.92683 1.13583C9.39025 1.31874 9.12199 1.68456 9.12199 1.86748C6.17078 8.45235 3.2195 14.8543 0 21.2563V24.5487C3.2195 18.1467 6.17078 11.7448 9.12199 5.15991C9.39028 4.79409 9.65854 4.61118 9.92683 4.42826C10.1951 4.24535 10.7317 4.06244 11 3.87953C11.5366 3.87953 11.5366 3.69661 11.8049 3.69661Z" fill="url(#paint2_radial_656_179723)"/>
<path fill-rule="evenodd" clip-rule="evenodd" d="M163.658 0.221069V3.5135C163.926 3.5135 164.195 3.69642 164.463 3.87933C164.731 4.06224 165.268 4.24516 165.536 4.42807C166.073 4.61098 166.341 4.9768 166.341 5.15972C169.292 11.5617 172.244 17.9636 175.463 24.5485V21.2561C172.244 14.6712 169.292 8.26924 166.341 1.86728C166.073 1.50146 165.805 1.31855 165.536 1.13563C165.268 0.952722 164.731 0.769803 164.463 0.58689C164.463 0.403977 164.195 0.403982 163.658 0.221069Z" fill="url(#paint3_radial_656_179723)"/>
<path fill-rule="evenodd" clip-rule="evenodd" d="M159.9 38.4498C111.876 38.0839 64.1196 38.0839 16.0954 38.4498C13.9491 33.5111 11.5344 28.7554 9.3881 23.9996C9.11981 24.3655 9.11985 24.5484 8.85156 24.9142C11.2662 30.0358 13.6808 35.1573 16.0954 40.2789C64.1196 39.9131 111.876 39.9131 159.9 40.2789C162.314 35.1573 164.729 30.0358 167.144 24.9142C166.875 24.5484 166.875 24.3655 166.607 23.9996C164.192 28.7554 162.046 33.5111 159.9 38.4498Z" fill="url(#paint4_radial_656_179723)"/>
<path fill-rule="evenodd" clip-rule="evenodd" d="M7.51193 34.0604C7.51193 33.6945 6.43874 33.1458 4.5607 32.0483C4.29241 31.8654 4.02415 31.6825 3.75586 31.6825C5.6339 32.9629 6.17047 33.8775 6.17047 34.4262V34.6091C6.17047 34.792 5.90214 35.1579 5.63385 35.7066C5.90214 35.5237 6.17049 35.3408 6.43878 35.1578C6.97536 34.792 7.51193 34.2433 7.51193 34.0604Z" fill="url(#paint5_radial_656_179723)"/>
<path fill-rule="evenodd" clip-rule="evenodd" d="M64.6582 0.404175C65.9997 1.86748 67.6094 2.78204 68.4143 2.78204C69.2191 2.78204 72.1704 1.86748 74.8533 0.404175C73.2436 1.13583 69.2192 1.50165 68.146 1.50165C67.3412 1.50165 65.7314 1.13583 64.6582 0.404175Z" fill="url(#paint6_radial_656_179723)"/>
<path fill-rule="evenodd" clip-rule="evenodd" d="M159.902 38.4498V40.096C162.317 34.9745 164.732 29.8529 167.146 24.7313C166.878 24.3655 166.878 24.1826 166.61 23.8168C164.195 28.7554 162.049 33.5112 159.902 38.4498Z" fill="url(#paint7_radial_656_179723)"/>
<path fill-rule="evenodd" clip-rule="evenodd" d="M16.0954 38.4498C13.9491 33.5111 11.5344 28.7554 9.3881 23.9996C9.11981 24.3655 9.11985 24.5484 8.85156 24.9142C11.2662 30.0358 13.6808 35.1573 16.0954 40.2789V38.4498Z" fill="url(#paint8_radial_656_179723)"/>
<path fill-rule="evenodd" clip-rule="evenodd" d="M140.854 39.9135C142.195 39.3647 148.097 39.5476 148.634 39.9135C147.561 40.828 146.219 41.3768 145.146 41.3768C144.341 41.3768 141.927 40.6451 140.854 39.9135Z" fill="url(#paint9_radial_656_179723)"/>
<path fill-rule="evenodd" clip-rule="evenodd" d="M145.147 41.3765C146.22 41.3765 147.562 40.8277 148.635 39.9132C148.366 39.7303 147.293 39.5474 146.22 39.5474C145.683 39.7303 143.537 41.3765 145.147 41.3765Z" fill="url(#paint10_radial_656_179723)"/>
<path fill-rule="evenodd" clip-rule="evenodd" d="M7.51172 9.00071C8.0483 7.72032 8.5849 6.43992 9.12149 5.15953C9.12149 4.97662 9.38973 4.79371 9.65802 4.6108C10.1946 4.24497 10.9995 4.06206 11.5361 3.69623C11.8044 3.51332 12.0726 3.51332 12.3409 3.51332C15.8287 3.51332 19.0483 3.51332 22.5361 3.3304C23.6092 3.3304 26.5604 2.78167 28.1701 2.59875C29.2433 2.59875 30.0482 2.59875 31.1214 2.59875C32.9994 2.78167 34.3409 3.14749 35.9507 3.3304C36.219 3.3304 36.7555 3.3304 37.0238 3.3304C62.5115 3.3304 87.7309 3.51332 113.219 3.51332C113.755 3.51332 114.292 3.14749 114.828 3.14749C116.17 2.96458 118.584 2.78167 119.658 2.78167C120.194 2.78167 120.999 2.78167 121.536 2.78167C122.341 2.96458 122.877 3.3304 123.682 3.3304C124.219 3.51332 125.024 3.3304 125.828 3.3304C138.438 3.3304 150.78 3.14749 163.389 3.14749C163.926 3.14749 164.194 3.14749 164.731 3.51332C165.267 3.87915 165.804 4.06206 166.34 4.42789C165.804 4.06206 165.267 3.87915 164.462 3.51332C164.194 3.51332 163.926 3.3304 163.389 3.3304C150.243 3.3304 137.365 3.51332 124.219 3.69623C123.95 3.69623 123.682 3.69623 123.682 3.87915C122.072 4.42789 121.536 4.79371 119.658 5.15953C119.389 5.15953 118.853 5.15953 118.584 5.15953C117.511 4.97662 116.17 4.79371 115.097 4.42789C114.56 4.24497 114.024 4.24497 113.755 4.06206C113.487 4.06206 113.219 3.87915 112.682 3.87915C112.145 3.87915 111.341 3.69623 110.804 3.69623C86.1212 3.69623 61.4383 3.51332 36.7555 3.51332C36.4872 3.51332 36.4872 3.51332 36.2189 3.69623C35.9506 3.87914 35.414 4.06206 35.1457 4.42789C33.8043 5.15954 32.4629 6.0741 30.5848 5.89119C29.5117 5.70828 28.7068 5.70828 27.9019 5.34245C26.2922 4.97662 24.9507 4.42789 23.3409 3.87915C22.536 3.69623 21.4629 3.51332 20.658 3.51332C18.2434 3.51332 15.5605 3.51332 13.1459 3.51332C12.8776 3.51332 12.6092 3.51332 12.3409 3.69623C11.8044 3.87914 11.2678 4.24497 10.7312 4.6108C10.4629 4.79371 10.1946 4.79371 9.92633 5.34245C8.58487 6.62284 8.0483 7.72032 7.51172 9.00071Z" fill="url(#paint11_radial_656_179723)"/>
<path fill-rule="evenodd" clip-rule="evenodd" d="M22.5352 3.51332C24.4132 2.96458 27.6327 2.59875 28.4375 2.59875C31.1204 2.59875 34.8766 3.14749 35.6814 3.69623C34.0717 5.52536 31.6571 6.25702 30.5839 6.25702C29.2425 6.43993 24.6815 5.52536 22.5352 3.51332Z" fill="url(#paint12_radial_656_179723)"/>
<path fill-rule="evenodd" clip-rule="evenodd" d="M113.488 3.87932C113.757 3.69641 114.561 3.33058 114.83 3.33058C116.439 3.14766 119.927 2.96475 121.805 3.14767C122.61 3.33058 123.415 3.69641 123.683 3.87932C122.074 4.9768 120.196 5.52553 119.659 5.52553C118.854 5.52553 115.635 4.9768 113.488 3.87932Z" fill="url(#paint13_radial_656_179723)"/>
<path fill-rule="evenodd" clip-rule="evenodd" d="M118.584 5.34259C119.12 5.34259 119.388 5.5255 119.657 5.34259C120.193 5.34259 121.267 4.97676 122.608 4.24511C122.876 4.06219 123.413 3.87928 123.681 3.69637C123.413 3.51346 122.876 3.14763 121.803 2.96472C121.535 2.96472 121.266 2.96472 120.73 2.96472C120.462 2.96472 117.51 5.15968 118.584 5.34259Z" fill="url(#paint14_radial_656_179723)"/>
<path fill-rule="evenodd" clip-rule="evenodd" d="M19.8536 37.5351C19.0487 37.5351 18.2438 37.5351 17.4389 37.1693C16.634 36.8035 15.8292 36.2547 15.5609 35.706C15.0243 34.7914 11.8048 29.4869 12.0731 28.7553C12.3414 28.2066 13.1463 28.2066 12.6097 26.9262C12.0731 25.8287 10.7316 23.8166 10.9999 22.9021C11.2682 22.3533 11.5366 21.4388 11.8049 20.89C12.3414 19.6096 15.0244 14.4881 15.8292 13.7564C16.3658 13.2077 17.9755 12.8419 18.7804 12.476C20.6584 11.7444 20.1218 11.7444 22.8048 11.7444C29.2438 11.7444 35.4145 11.9273 41.8535 12.1102C44.8047 12.2931 45.8779 12.2931 48.5608 11.9273C51.512 11.7444 59.2924 11.9273 61.7071 12.476C63.0485 12.8419 80.4875 20.1584 82.3656 21.9875C83.1704 22.7192 85.8533 28.9382 85.8533 30.0357C86.1216 31.3161 85.8534 32.0477 86.3899 33.511C86.6582 34.2427 87.4631 36.4376 85.8533 36.6206C84.7802 36.8035 82.0973 36.8035 80.7558 36.8035C77.8046 36.9864 75.1217 36.9864 72.1705 37.1693C68.4144 37.3522 68.1461 36.6206 64.9266 36.6206C60.6339 36.4376 57.6828 36.6206 53.3901 36.9864C49.3657 37.1693 47.756 36.9864 43.9999 36.8035C39.4389 36.4376 38.634 36.6206 34.3413 37.1693C31.6584 37.5351 26.0243 37.3522 22.8048 37.3522H21.7316C21.4633 37.5351 20.6585 37.5351 19.8536 37.5351Z" fill="url(#paint15_radial_656_179723)"/>
<path fill-rule="evenodd" clip-rule="evenodd" d="M91.7578 36.9864C90.4164 36.9864 89.6115 35.8889 89.0749 35.1573C87.7334 32.5965 86.392 29.6699 86.1237 26.9262C85.8554 25.28 85.5871 24.5483 85.0505 22.9021C84.7822 22.1704 86.1237 21.2559 86.9286 20.7071C88.5383 19.6096 89.3432 18.878 91.2212 17.9634C94.1724 16.5001 95.5139 15.2197 97.9285 13.7564C98.7334 13.3906 99.0017 13.3906 100.075 13.3906C102.49 13.3906 102.49 12.2931 104.368 12.1102C107.05 11.9273 109.733 11.9273 112.148 11.7444C115.099 11.7444 117.782 12.2931 120.733 12.1102C122.343 12.1102 122.88 12.476 123.685 13.3906C124.489 14.671 125.026 15.4026 125.831 16.683C128.514 22.7192 130.392 28.5724 132.27 34.7914C132.538 35.5231 132.27 36.6206 131.197 36.8035C129.855 36.8035 121.806 37.3522 120.733 37.1693C118.587 36.8035 118.855 36.6206 116.172 36.6206C111.343 36.6206 107.05 36.8035 102.489 36.9864C99.0017 37.5351 94.9773 37.1693 91.7578 36.9864Z" fill="url(#paint16_radial_656_179723)"/>
<path fill-rule="evenodd" clip-rule="evenodd" d="M136.023 37.1692C133.877 36.9862 133.608 35.5229 133.34 34.4255C133.072 34.0596 132.803 33.328 133.072 32.9622C133.608 31.8647 133.34 31.3159 132.803 30.4014C131.998 28.5723 131.194 27.1089 130.12 25.2798C129.316 23.9994 128.779 21.6216 128.242 20.1582C127.706 18.3291 126.901 16.3171 126.364 14.4879C126.096 13.5734 126.633 13.5734 127.169 13.0246C127.438 12.8417 127.974 12.4759 128.242 12.4759C128.779 12.293 131.194 12.293 131.998 12.293C133.877 12.1101 136.023 12.1101 137.901 12.1101C141.389 12.1101 146.218 13.3905 149.437 12.4759C151.315 11.9272 152.12 12.1101 154.267 12.1101C154.803 12.1101 156.413 12.1101 156.95 12.1101C157.754 12.293 158.291 12.8417 158.828 13.0246C160.169 13.7563 160.437 14.4879 160.706 15.5854C161.779 17.9633 161.779 19.6095 163.389 21.8045C163.925 22.5361 164.998 23.9994 164.73 24.7311C164.73 26.0115 164.998 26.3773 164.193 27.6577C163.657 28.3893 162.852 30.4014 162.852 31.133C162.852 31.6818 163.12 31.6818 162.584 32.2305C161.779 33.328 160.706 34.6084 159.901 35.7059C159.633 36.2546 159.096 36.4375 158.559 36.8033C157.754 37.1692 157.218 37.535 156.145 37.535C150.242 37.7179 143.803 37.9008 137.901 37.535C137.364 37.1692 136.559 37.1692 136.023 37.1692Z" fill="url(#paint17_radial_656_179723)"/>
<path fill-rule="evenodd" clip-rule="evenodd" d="M78.8778 18.8782C79.951 19.6098 81.2924 19.7928 82.9022 19.9757C83.9753 19.9757 85.3168 19.4269 86.3899 19.0611C88.268 18.3294 90.6826 16.8661 92.2924 15.9516C93.6338 15.2199 94.9753 14.4883 96.0484 13.5737C96.3167 13.3908 96.585 13.2079 96.8533 13.025C97.1216 12.8421 96.8533 12.1104 96.585 12.1104C90.9508 11.9275 84.5119 11.9275 78.8778 11.9275C76.1949 11.9275 74.0485 12.1104 71.3656 12.1104C70.829 12.1104 66.268 12.1104 65.9997 12.2933C65.4631 12.6591 66.5364 13.2079 66.8047 13.3908C67.8778 14.1224 70.0241 15.037 71.6339 15.5858C74.0485 16.5003 75.3899 16.5003 77.8046 17.7807C78.0728 18.3294 78.6095 18.6953 78.8778 18.8782Z" fill="url(#paint18_radial_656_179723)"/>
<path fill-rule="evenodd" clip-rule="evenodd" d="M21.9996 12.842C19.585 12.842 16.3655 13.9395 15.8289 15.4028C15.2923 17.049 10.1947 23.9997 12.3411 25.0972C14.2191 26.0118 12.8777 29.1213 16.6338 29.1213C32.1947 29.1213 24.4142 25.2801 33.5361 23.451C34.8776 23.0852 43.9995 23.6339 48.2922 22.9023C57.1458 21.439 53.658 19.7927 64.9263 21.9877C69.2189 22.7193 71.097 22.7193 75.658 24.1826C77.536 24.9143 83.7067 24.1826 77.536 21.439C71.3653 18.6953 68.1458 18.6953 61.1702 15.2199C56.8775 13.0249 60.9019 12.842 52.0483 12.842C45.341 12.842 47.219 14.1224 44.5361 14.4883C42.9263 14.6712 34.341 12.842 30.8532 12.842C29.2434 12.6591 23.3411 12.842 21.9996 12.842Z" fill="url(#paint19_radial_656_179723)"/>
<path fill-rule="evenodd" clip-rule="evenodd" d="M71.6329 12.8421C70.5598 12.6592 67.072 13.2079 69.4866 14.1225C71.3647 14.8542 76.1939 16.6833 78.3402 16.6833C79.4134 16.6833 82.0963 18.1466 83.9744 18.3295C86.389 18.5124 85.3158 18.3295 87.7304 17.5979C90.1451 16.6833 92.0231 16.8662 93.6329 15.0371C94.1695 14.4883 96.5841 13.5738 94.9743 12.8421C94.9743 12.8421 73.511 12.6592 72.7061 13.025C72.4378 12.8421 71.6329 12.8421 71.6329 12.8421Z" fill="url(#paint20_radial_656_179723)"/>
<path fill-rule="evenodd" clip-rule="evenodd" d="M86.9277 23.9996C86.9277 21.073 86.9277 22.3534 89.8789 19.7926C91.2203 18.5122 96.3179 16.1344 98.4642 15.0369C99.8057 14.3052 100.342 16.6831 105.172 13.3907C105.976 12.8419 121.001 12.659 122.074 13.3907C126.098 15.9514 125.562 20.3414 126.635 22.3534C126.903 22.7192 128.513 29.487 128.513 29.6699C127.44 31.682 117.513 30.0358 113.757 30.2187C112.415 30.2187 108.123 29.3041 107.05 28.3895C105.172 26.9262 102.22 25.0971 99.2691 25.0971C94.1715 25.0971 91.4887 25.28 86.9277 24.3654C86.9277 24.1825 86.9277 24.1825 86.9277 23.9996Z" fill="url(#paint21_radial_656_179723)"/>
<path fill-rule="evenodd" clip-rule="evenodd" d="M99.2666 26.7431C98.1934 26.3773 92.0227 26.5602 91.4861 27.2918C90.6813 28.2064 89.3398 28.0235 90.1447 30.0355C90.9495 31.8647 89.6081 32.4134 94.169 32.4134C96.3154 32.4134 105.437 33.145 105.169 30.9501C104.901 28.938 104.364 29.121 102.218 27.8406C101.681 27.6577 99.8032 26.926 99.2666 26.7431Z" fill="url(#paint22_radial_656_179723)"/>
<path fill-rule="evenodd" clip-rule="evenodd" d="M30.5859 27.8412C30.5859 27.4753 31.659 24.9146 32.1956 24.9146C33.2688 24.9146 34.6103 24.3658 36.4883 24.1829C37.2932 24.1829 38.3663 23.8171 40.2444 23.8171C42.9273 23.8171 43.1956 23.6342 45.8785 24.1829C46.9517 24.3658 54.7322 23.2683 55.8054 22.9025C57.4151 22.5367 59.5615 23.0854 60.098 24.3658C61.1712 26.012 58.2199 26.7437 56.6102 27.2924C54.4639 28.0241 47.4883 29.1216 44.5371 29.8532C39.9761 30.9507 38.6346 28.5728 36.22 29.3045C35.6834 29.4874 32.7322 29.4874 32.1956 29.1216C31.3907 28.9386 30.5859 27.8412 30.5859 27.8412Z" fill="url(#paint23_radial_656_179723)"/>
<path fill-rule="evenodd" clip-rule="evenodd" d="M127.706 14.1226C127.169 16.3175 127.169 15.5859 128.243 17.7808C128.779 18.6954 129.316 20.3416 129.316 21.4391C129.584 23.4511 131.194 22.9024 133.34 23.6341C133.34 23.6341 136.56 23.9999 137.096 24.1828C140.852 25.2803 142.462 24.5486 146.486 26.1948C148.364 26.9265 151.316 27.1094 152.925 28.5727C153.462 29.1215 160.974 29.6702 161.779 29.3044C163.121 28.5727 162.316 28.2069 163.389 27.1094C164.194 26.3778 164.462 23.9999 163.657 23.0853C162.852 22.3537 162.852 21.9878 161.779 21.622C161.511 21.4391 159.364 15.5859 158.828 14.6713C158.56 14.1226 158.291 13.3909 157.218 12.8422C154.803 11.9276 155.608 12.2935 153.194 12.2935C152.925 12.2935 149.974 12.8422 148.901 13.0251C146.218 13.208 145.413 13.3909 142.194 13.3909C138.169 13.3909 140.852 12.4764 136.56 12.4764C133.877 12.6593 128.243 12.4764 127.706 14.1226Z" fill="url(#paint24_radial_656_179723)"/>
<path fill-rule="evenodd" clip-rule="evenodd" d="M75.5566 18.2169C77.4347 19.1315 81.1908 20.7777 82.8006 21.8751C83.3371 22.241 83.6054 22.6068 83.8737 22.9726C84.6786 24.8018 85.4834 26.9967 86.2883 28.8258C86.02 26.448 85.2151 25.3505 84.6785 23.1555C84.4103 22.4239 85.4834 21.3264 86.02 20.7777C86.8249 20.2289 87.8981 19.6802 88.9712 19.1315C89.7761 18.7656 90.581 18.3998 91.3858 17.8511C93.5322 16.5707 95.9468 15.1074 97.5566 14.0099C94.3371 15.839 91.1176 17.6681 87.6298 19.4973C87.3615 19.6802 86.02 20.4118 84.9469 20.7777C83.3371 21.5093 82.8005 21.3264 81.1908 20.7777C79.8493 20.2289 78.7761 19.4973 77.7029 18.9485C76.8981 18.5827 76.0932 18.3998 75.5566 18.2169Z" fill="url(#paint25_radial_656_179723)"/>
<defs>
<radialGradient id="paint0_radial_656_179723" cx="0" cy="0" r="1" gradientUnits="userSpaceOnUse" gradientTransform="translate(37.1512 -62.3981) scale(167.373 114.11)">
<stop stop-color="#B0A499"/>
<stop offset="1" stop-color="#7A6E63"/>
</radialGradient>
<linearGradient id="paint1_linear_656_179723" x1="87.9946" y1="40.0952" x2="87.9946" y2="9.36109" gradientUnits="userSpaceOnUse">
<stop stop-color="#66584D"/>
<stop offset="1" stop-color="#544639"/>
</linearGradient>
<radialGradient id="paint2_radial_656_179723" cx="0" cy="0" r="1" gradientUnits="userSpaceOnUse" gradientTransform="translate(-10.0881 15.9986) scale(81.2518 55.3947)">
<stop stop-color="#918173"/>
<stop offset="1"/>
</radialGradient>
<radialGradient id="paint3_radial_656_179723" cx="0" cy="0" r="1" gradientUnits="userSpaceOnUse" gradientTransform="translate(183.79 22.3603) scale(60.2496 41.076)">
<stop stop-color="#918173"/>
<stop offset="1" stop-color="white"/>
</radialGradient>
<radialGradient id="paint4_radial_656_179723" cx="0" cy="0" r="1" gradientUnits="userSpaceOnUse" gradientTransform="translate(144.168 112.176) scale(240.587 164.025)">
<stop stop-color="#B0A499"/>
<stop offset="1" stop-color="#69594B"/>
</radialGradient>
<radialGradient id="paint5_radial_656_179723" cx="0" cy="0" r="1" gradientUnits="userSpaceOnUse" gradientTransform="translate(2.92523 39.4378) scale(11.7474 8.00905)">
<stop stop-color="#B0A499"/>
<stop offset="1" stop-color="#4F3C2A"/>
</radialGradient>
<radialGradient id="paint6_radial_656_179723" cx="0" cy="0" r="1" gradientUnits="userSpaceOnUse" gradientTransform="translate(74.9287 0.30467) scale(14.3792 9.80322)">
<stop stop-color="#B0A499"/>
<stop offset="1" stop-color="#4F3C2A"/>
</radialGradient>
<radialGradient id="paint7_radial_656_179723" cx="0" cy="0" r="1" gradientUnits="userSpaceOnUse" gradientTransform="translate(173.428 37.032) scale(44.9305 30.6321)">
<stop stop-color="#918173"/>
<stop offset="1"/>
</radialGradient>
<radialGradient id="paint8_radial_656_179723" cx="0" cy="0" r="1" gradientUnits="userSpaceOnUse" gradientTransform="translate(24.8575 35.9199) scale(51.1361 34.8632)">
<stop stop-color="#918173"/>
<stop offset="1" stop-color="white"/>
</radialGradient>
<radialGradient id="paint9_radial_656_179723" cx="0" cy="0" r="1" gradientUnits="userSpaceOnUse" gradientTransform="translate(152.52 40.1652) scale(13.3187 9.0802)">
<stop stop-color="#85786B"/>
<stop offset="1" stop-color="#4F3C2A"/>
</radialGradient>
<radialGradient id="paint10_radial_656_179723" cx="0" cy="0" r="1" gradientUnits="userSpaceOnUse" gradientTransform="translate(154.319 41.9728) scale(16.4331 11.2034)">
<stop stop-color="#918173"/>
<stop offset="1"/>
</radialGradient>
<radialGradient id="paint11_radial_656_179723" cx="0" cy="0" r="1" gradientUnits="userSpaceOnUse" gradientTransform="translate(19.8738 -43.7121) scale(219.707 149.79)">
<stop stop-color="#918173"/>
<stop offset="1"/>
</radialGradient>
<radialGradient id="paint12_radial_656_179723" cx="0" cy="0" r="1" gradientUnits="userSpaceOnUse" gradientTransform="translate(36.7098 3.87549) scale(21.2358 14.4779)">
<stop stop-color="#85786B"/>
<stop offset="1" stop-color="#4F3C2A"/>
</radialGradient>
<radialGradient id="paint13_radial_656_179723" cx="0" cy="0" r="1" gradientUnits="userSpaceOnUse" gradientTransform="translate(125.056 4.02802) scale(19.2805 13.1449)">
<stop stop-color="#85786B"/>
<stop offset="1" stop-color="#4F3C2A"/>
</radialGradient>
<radialGradient id="paint14_radial_656_179723" cx="0" cy="0" r="1" gradientUnits="userSpaceOnUse" gradientTransform="translate(128.516 6.17027) scale(12.1646 8.29346)">
<stop stop-color="#918173"/>
<stop offset="1"/>
</radialGradient>
<radialGradient id="paint15_radial_656_179723" cx="0" cy="0" r="1" gradientUnits="userSpaceOnUse" gradientTransform="translate(-11.961 -158.766) scale(346.293 236.092)">
<stop stop-color="#918173"/>
<stop offset="1" stop-color="#55473A"/>
</radialGradient>
<radialGradient id="paint16_radial_656_179723" cx="0" cy="0" r="1" gradientUnits="userSpaceOnUse" gradientTransform="translate(84.5528 -120.153) scale(258.947 176.542)">
<stop stop-color="#918173"/>
<stop offset="1" stop-color="#55473A"/>
</radialGradient>
<radialGradient id="paint17_radial_656_179723" cx="0" cy="0" r="1" gradientUnits="userSpaceOnUse" gradientTransform="translate(228.266 -142.107) scale(301.941 205.854)">
<stop stop-color="#918173"/>
<stop offset="1" stop-color="#55473A"/>
</radialGradient>
<radialGradient id="paint18_radial_656_179723" cx="0" cy="0" r="1" gradientUnits="userSpaceOnUse" gradientTransform="translate(90.3569 -139.842) scale(246.377 167.972)">
<stop stop-color="#918173"/>
<stop offset="1" stop-color="#55473A"/>
</radialGradient>
<radialGradient id="paint19_radial_656_179723" cx="0" cy="0" r="1" gradientUnits="userSpaceOnUse" gradientTransform="translate(-7.07092 -162.597) scale(323.961 220.867)">
<stop stop-color="#6B5F55"/>
<stop offset="1" stop-color="#695B4E"/>
</radialGradient>
<radialGradient id="paint20_radial_656_179723" cx="0" cy="0" r="1" gradientUnits="userSpaceOnUse" gradientTransform="translate(30.8467 -170.764) scale(355.314 242.242)">
<stop stop-color="#6B5F55"/>
<stop offset="1" stop-color="#695B4E"/>
</radialGradient>
<radialGradient id="paint21_radial_656_179723" cx="0" cy="0" r="1" gradientUnits="userSpaceOnUse" gradientTransform="translate(184.643 -158.555) scale(296.367 202.054)">
<stop stop-color="#6B5F55"/>
<stop offset="1" stop-color="#695B4E"/>
</radialGradient>
<radialGradient id="paint22_radial_656_179723" cx="0" cy="0" r="1" gradientUnits="userSpaceOnUse" gradientTransform="translate(137.768 -107.57) scale(233.395 159.121)">
<stop stop-color="#6B5F55"/>
<stop offset="1" stop-color="#695B4E"/>
</radialGradient>
<radialGradient id="paint23_radial_656_179723" cx="0" cy="0" r="1" gradientUnits="userSpaceOnUse" gradientTransform="translate(-2.97978 -153.115) scale(288.311 196.561)">
<stop stop-color="#6B5F55"/>
<stop offset="1" stop-color="#695B4E"/>
</radialGradient>
<radialGradient id="paint24_radial_656_179723" cx="0" cy="0" r="1" gradientUnits="userSpaceOnUse" gradientTransform="translate(239.848 -169.575) scale(328.901 224.234)">
<stop stop-color="#6B5F55"/>
<stop offset="1" stop-color="#695B4E"/>
</radialGradient>
<radialGradient id="paint25_radial_656_179723" cx="0" cy="0" r="1" gradientUnits="userSpaceOnUse" gradientTransform="translate(73.4275 -8.76645) scale(116.54 79.4531)">
<stop stop-color="#918173"/>
<stop offset="1" stop-color="white"/>
</radialGradient>
</defs>
</svg>
