<svg width="281" height="46" viewBox="0 0 281 46" fill="none" xmlns="http://www.w3.org/2000/svg">
<path d="M262.727 0.115234H18.273C8.2021 0.115234 0 5.87662 0 12.9507V33.1521C0 40.2262 8.2021 45.9876 18.273 45.9876H262.727C272.798 45.9876 281 40.2262 281 33.1521V12.9507C281 5.84015 272.798 0.115234 262.727 0.115234ZM24.1391 40.0438C13.1857 40.0438 8.40975 36.8714 8.40975 30.5266V15.5032C8.40975 8.75731 13.6529 5.98602 24.1391 5.98602H256.809C267.555 5.98602 272.538 8.93964 272.538 15.5032V30.5266C272.538 37.0173 267.451 40.0438 256.809 40.0438H24.1391Z" fill="url(#paint0_linear_657_180978)"/>
<g opacity="0.44">
<path d="M256.807 4.41797H24.1376C13.6513 4.41797 8.4082 7.22574 8.4082 13.9352V15.5396C8.4082 8.79371 13.6513 6.0224 24.1376 6.0224H256.807C267.553 6.0224 272.537 8.97603 272.537 15.5396V13.9352C272.537 7.33513 267.553 4.41797 256.807 4.41797Z" fill="#AC4600"/>
<path d="M262.727 44.3467H18.273C8.2021 44.3467 0 38.5853 0 31.5112V33.1157C0 40.1898 8.2021 45.9512 18.273 45.9512H262.727C272.798 45.9512 281 40.1898 281 33.1157V31.5112C281 38.6218 272.798 44.3467 262.727 44.3467Z" fill="#AC4600"/>
</g>
<path opacity="0.3" d="M76.8819 1.13615C72.3655 1.13615 72.5212 3.17817 76.8819 3.17817C83.6823 3.17817 250.58 3.06878 256.29 3.06878C261.948 3.06878 275.549 3.871 275.549 11.7838C275.549 19.6966 275.549 25.1663 275.549 28.2293C275.549 31.2923 278.768 30.9641 278.768 28.2293C278.768 25.4944 278.768 14.8103 278.768 11.4921C278.768 8.1738 273.888 1.06323 262.156 1.06323C250.476 1.06323 77.2452 1.13615 76.8819 1.13615Z" fill="white"/>
<path opacity="0.3" d="M20.8155 1.02686C26.3182 1.02686 44.9546 1.02686 49.3152 1.02686C53.6758 1.02686 53.8316 3.43351 49.3152 3.43351C44.7989 3.43351 28.5504 3.43351 21.5942 3.43351C12.6653 3.43351 6.02056 6.49653 6.02056 14.701C6.02056 21.0823 6.02056 29.5056 6.02056 31.3289C6.02056 33.1521 7.31836 41.0284 21.0751 41.0284C34.8318 41.0284 169.855 41.0284 183.923 41.0284C187.972 41.0284 187.972 43.2892 184.39 43.2892C172.243 43.2892 27.8236 43.2892 20.4002 43.2892C12.9768 43.2892 2.38672 41.3566 2.38672 31.9123C2.38672 22.468 2.38672 14.9563 2.38672 11.2004C2.38672 7.4446 8.04513 1.02686 20.8155 1.02686Z" fill="white"/>
<path opacity="0.3" d="M210.088 41.0648C203.755 41.0648 203.288 43.1068 210.244 43.1068C217.2 43.1068 253.694 43.1068 262.571 43.1068C271.5 43.1068 275.549 39.7886 277.158 36.6162C278.768 33.4437 274.459 33.9542 274.096 35.8139C273.784 37.4184 269.891 41.1742 262.934 41.1742C255.978 41.2107 210.348 41.0648 210.088 41.0648Z" fill="white"/>
<defs>
<linearGradient id="paint0_linear_657_180978" x1="140.493" y1="47.1973" x2="140.493" y2="-2.89028" gradientUnits="userSpaceOnUse">
<stop stop-color="#E38044"/>
<stop offset="0.2647" stop-color="#99450F"/>
<stop offset="0.9994" stop-color="#FC991A"/>
</linearGradient>
</defs>
</svg>
