<svg width="111" height="145" viewBox="0 0 111 145" fill="none" xmlns="http://www.w3.org/2000/svg">
<path d="M68.7059 141.118L68.9485 143.666C68.9485 143.666 66.5222 144.879 66.5222 144.757C66.5222 144.636 66.7649 141.118 66.7649 141.118H68.7059Z" fill="#666977"/>
<path d="M39.2268 113.216L45.899 114.187L47.3548 107.029L49.781 94.2913L50.509 90.6519L40.9252 86.6486L39.2268 113.216Z" fill="#666977"/>
<path opacity="0.4" d="M39.2268 113.216L45.899 114.187L47.2335 107.029L40.8039 105.331C40.8039 105.331 41.7744 91.7437 42.5023 91.2584C42.9875 90.8945 47.7188 93.3208 49.6598 94.2913L50.3876 90.6519L40.8039 86.6486L39.2268 113.216Z" fill="#666977"/>
<path d="M53.4207 91.2583C53.6633 91.3797 65.9159 113.944 65.9159 113.944L69.1913 113.095L71.4963 112.488L71.011 111.275L69.1913 106.301L63.0044 90.1665L61.6699 86.7698L53.4207 91.2583Z" fill="#666977"/>
<path opacity="0.4" d="M53.4207 91.2583C53.6633 91.3797 65.9159 113.944 65.9159 113.944L69.1913 113.095L71.1324 111.275L69.3127 106.301C67.9782 106.786 65.4307 107.636 65.0667 107.514C64.4602 107.272 58.3945 95.383 58.1519 94.1699C58.0306 93.3207 61.306 91.2583 63.247 90.1665L61.9126 86.7698L53.4207 91.2583Z" fill="#666977"/>
<path d="M63.0044 77.186C63.0044 94.2911 68.3422 108.121 74.7718 108.121C81.3227 108.121 86.539 94.2911 86.539 77.186C86.539 60.0809 81.2013 46.2512 74.7718 46.2512C68.3422 46.3725 63.0044 60.2022 63.0044 77.186Z" fill="#B6C9C9"/>
<path d="M64.7026 77.186C64.7026 86.2845 66.1584 94.4124 68.342 99.6289C70.0404 103.39 72.1028 105.695 74.2864 105.695C75.1356 105.695 75.9848 105.331 76.7126 104.845C77.8045 103.996 78.775 102.662 79.6242 100.963C82.1717 95.8682 83.8701 87.1337 83.8701 77.186C83.8701 70.5138 83.1422 64.3269 81.8078 59.4743C80.8373 56.0776 79.7454 53.2874 78.2897 51.3464C77.0766 49.648 75.6209 48.6775 74.1651 48.6775C72.2241 48.6775 70.2831 50.4972 68.8273 53.53C66.401 58.6251 64.7026 67.3597 64.7026 77.186Z" fill="#7D5B51"/>
<path opacity="0.2" d="M71.2534 79.0059C71.2534 88.1044 72.7092 96.2323 74.8928 101.449C75.4994 102.783 76.1059 103.875 76.7125 104.846C77.8043 103.996 78.7748 102.662 79.624 100.964C82.1716 95.8684 83.87 87.1339 83.87 77.1862C83.87 70.514 83.1421 64.327 81.8077 59.4745C80.8371 56.0778 79.7453 53.2876 78.2895 51.3466C77.1977 52.1957 76.2273 53.5302 75.3781 55.2286C72.9518 60.445 71.2534 69.1796 71.2534 79.0059Z" fill="#7D5B51"/>
<path d="M60.3351 31.0872L60.5777 34.2414L48.0825 34.3627L48.4464 30.8446L60.3351 31.0872Z" fill="#454A63"/>
<path d="M61.6697 65.0549L62.0337 66.0254L65.0665 76.4583L65.3091 76.9436L65.7943 75.7304L67.8567 71.6058L67.614 69.6648L66.7648 63.1139L65.7943 54.9859L64.3386 52.4384L63.9747 52.5597L62.3976 53.2876L62.0337 59.3532L61.9123 61.9008L61.6697 65.0549Z" fill="#666977"/>
<path opacity="0.4" d="M61.7913 60.0811V61.9008L61.9125 66.0254L65.0667 76.4583L65.7946 75.8517L67.7355 71.6058L67.493 69.6648L64.3388 70.7566C64.3388 70.7566 63.9749 69.7861 64.2175 68.6943C64.3388 67.8451 65.9159 64.8123 66.7651 63.2352L65.7946 55.1072L64.3388 52.4384L63.9749 52.5597L63.7322 53.1662L62.0339 59.2319L61.7913 60.0811Z" fill="#666977"/>
<path d="M38.0139 86.0419C38.3779 88.5895 53.1781 93.3207 55.1191 93.3207C57.0601 93.3207 63.2471 87.4977 63.2471 87.4977C63.2471 87.4977 59.8503 81.796 59.4863 81.4321L42.7452 80.4615C42.7452 80.4615 42.3812 80.7042 41.896 81.1894C40.3189 82.4026 37.7713 84.8288 38.0139 86.0419Z" fill="#B6C9C9"/>
<path opacity="0.4" d="M38.014 86.042C38.3779 88.5895 53.1781 93.3207 55.1191 93.3207C55.1191 93.3207 54.9978 88.8322 54.3912 84.7075L41.7747 81.1895C40.3189 82.4026 37.7713 84.8288 38.014 86.042Z" fill="#B6C9C9"/>
<path d="M39.227 64.5696C39.3483 66.8746 41.0468 79.9764 41.7746 81.0682C42.5025 82.16 53.5419 84.8289 54.3911 84.7076C55.2403 84.5863 59.001 82.4026 59.4863 81.4321C59.9715 80.5829 63.4896 69.6648 64.2175 65.1762C64.2175 64.9336 64.3388 64.6909 64.3388 64.4483C64.5814 62.6286 64.4601 58.9892 64.2175 55.5925C64.0962 52.8023 63.8535 50.2547 63.7322 49.1629C63.7322 48.799 63.7322 48.5563 63.7322 48.5563C63.7322 48.5563 63.6109 48.5563 63.4896 48.435C62.6404 47.9498 59.4863 46.1301 59.2436 46.1301L51.8436 46.0088L46.1419 45.8875L44.2009 46.2514L44.0795 46.3727L43.5943 47.4645L39.8336 57.1695C39.8336 57.1695 39.7123 58.1401 39.4697 59.4745C39.3483 59.9597 39.3483 60.445 39.227 60.9302C39.227 62.2647 39.1057 63.7204 39.227 64.5696Z" fill="#B6C9C9"/>
<path opacity="0.5" d="M43.23 51.2252L43.5939 55.7138C43.5939 55.7138 45.8988 54.258 46.5054 53.0449C47.1119 51.8318 46.9906 48.0711 47.3546 48.3137C47.7185 48.5563 54.2694 50.7399 56.9383 50.2547C58.3941 50.0121 59.6072 48.7989 60.5777 47.8284L64.4597 55.4711C64.3384 52.6809 64.0958 50.1334 63.9745 49.0416L63.7318 48.3137C62.8826 47.8284 59.7285 46.0087 59.4859 46.0087L52.0858 45.8874L46.3841 45.7661L44.4431 46.1301L44.3218 46.2514L43.23 51.2252Z" fill="#B6C9C9"/>
<path opacity="0.5" d="M39.2269 64.5696C39.3482 66.8746 41.0466 79.9764 41.7745 81.0682C42.5024 82.16 53.5418 84.8289 54.391 84.7076C58.273 74.2747 58.2731 61.9007 55.9681 47.4645L51.9647 46.0088L46.2631 45.8875L44.322 46.2514L43.8368 47.5858L40.0761 57.2909C40.0761 57.2909 39.8335 59.1105 39.5909 61.0516C39.2269 62.2647 39.1056 63.7204 39.2269 64.5696Z" fill="#B6C9C9"/>
<path opacity="0.3" d="M39.2268 64.5695C39.3481 66.8745 41.0465 79.9763 41.7744 81.0681C42.5022 82.1599 53.5417 84.8288 54.3909 84.7075C55.2401 84.5862 59.0008 82.4025 59.486 81.432C59.9713 80.5828 63.4894 69.6647 64.2172 65.1761C59.6074 71.727 42.6235 64.4482 42.2596 62.7498C42.1383 61.9006 40.9252 60.6875 39.5908 59.5957C39.4694 60.081 39.4694 60.5662 39.3481 61.0515C39.2268 62.2646 39.1054 63.7203 39.2268 64.5695Z" fill="#B6C9C9"/>
<path d="M47.9613 40.9136C48.2039 41.5202 47.2334 44.1891 46.1416 45.8874C46.7482 46.6153 47.5974 47.3432 48.5679 47.9498C51.6007 49.7694 56.5746 49.5268 56.5746 49.5268C56.5746 49.5268 59.3647 48.1924 60.4565 46.1301C58.1516 43.2185 57.7876 41.0349 58.6368 40.307C62.2762 37.1529 63.2467 34.484 62.8828 33.9988C62.7615 33.8775 61.3057 33.8775 59.486 33.8775C55.7253 33.8775 50.0236 34.1201 49.5384 33.8775C48.8105 33.5135 48.8105 31.9364 49.2958 31.8151C49.6597 31.8151 55.604 32.0578 59.486 32.0578C61.3057 32.0578 62.6402 32.0578 62.6402 31.9365C62.6402 31.6938 61.427 29.1463 59.85 25.9921C58.1516 22.838 56.0893 19.3199 54.1483 17.3789C54.1483 17.3789 53.663 17.3789 53.0565 17.3789C52.086 17.3789 50.6302 17.3789 50.2663 17.6215C50.145 17.7428 50.0237 17.8642 49.9024 17.8642C49.781 17.9855 49.781 17.9855 49.6597 18.1068C49.4171 18.3494 49.2958 18.4707 49.0532 18.7133C48.9318 18.8347 48.9318 18.8347 48.8105 18.956C48.4466 19.4412 48.0826 19.8052 47.7187 20.4117C47.7187 20.533 47.5974 20.533 47.5974 20.6544C47.5974 20.7757 47.4761 20.7757 47.4761 20.897C47.3548 21.1396 47.1121 21.3822 46.9908 21.6249C46.7482 21.9888 46.5056 22.474 46.1416 22.9593C46.1416 23.0806 46.0203 23.0806 46.0203 23.2019C45.899 23.3232 45.7777 23.5659 45.7777 23.6872C45.6564 23.8085 45.6564 24.0511 45.5351 24.1724C45.4137 24.5364 45.1712 24.779 45.0498 25.1429C44.8072 25.6282 44.5646 26.1134 44.3219 26.72C44.3219 26.8413 44.2006 26.9626 44.2006 26.9626C44.2006 27.0839 44.0793 27.0839 44.0793 27.2052C44.0793 27.3266 43.958 27.4479 43.958 27.5692C43.958 27.6905 43.8367 27.6905 43.8367 27.8118C43.7154 28.0544 43.7154 28.2971 43.5941 28.5397C43.5941 28.661 43.4727 28.661 43.4727 28.7823C43.4727 28.9036 43.3514 29.0249 43.3514 29.0249C43.3514 29.1463 43.3515 29.1463 43.2302 29.2676C43.1088 29.5102 43.1088 29.7528 42.9875 29.9954C42.9875 30.1168 42.9875 30.1168 42.9875 30.2381C42.8662 30.602 42.7449 31.0873 42.7449 31.3299C42.7449 31.4512 42.7449 31.4512 42.7449 31.5725C42.7449 31.6938 42.7449 31.6938 42.7449 31.8151C42.7449 31.9364 42.7449 31.9364 42.7449 32.0578C42.7449 32.6643 42.7448 33.0283 42.8662 33.3922C43.7153 36.0611 47.7187 40.1857 47.9613 40.9136Z" fill="#B6C9C9"/>
<path d="M32.4337 7.30989C32.555 9.61484 33.2829 13.9821 35.2239 14.4674C37.1649 14.9526 38.742 12.5263 38.742 12.5263C38.742 12.5263 38.4993 13.9821 39.3485 14.346C40.1977 14.71 40.9256 13.3755 40.9256 13.3755C40.9256 13.3755 41.5321 16.5297 43.3518 17.1362C45.2928 17.6215 47.7191 14.346 47.7191 14.346C47.7191 14.346 50.0241 16.8936 50.8732 15.6805C50.8732 15.6805 51.6011 16.1657 52.4503 16.1657C52.8142 16.1657 53.2995 16.0444 53.6634 15.6805C54.8766 14.71 55.9684 11.1919 54.8766 11.5558C54.9979 8.64434 51.965 4.15576 50.388 7.06727C50.1453 5.00495 47.9617 2.94263 46.7486 4.39839C46.6273 2.57869 43.2305 -0.332817 40.8043 0.031122C39.2272 0.273748 36.1944 2.21475 34.2534 4.15576C33.1616 5.24757 32.3124 6.4607 32.4337 7.30989Z" fill="#EE7474"/>
<path opacity="0.5" d="M32.4336 7.3099C32.555 9.61484 33.2828 13.9821 35.2238 14.4674C37.1648 14.9526 38.7419 12.5264 38.7419 12.5264C38.7419 12.5264 38.4993 13.9821 39.3485 14.346C40.1977 14.71 40.9255 13.3755 40.9255 13.3755C40.9255 13.3755 41.5321 16.5297 43.3518 17.1362C45.2928 17.6215 47.719 14.346 47.719 14.346C47.719 14.346 50.024 16.8936 50.8732 15.6805C50.8732 15.6805 51.6011 16.1657 52.4503 16.1657L52.2076 15.8018C50.1453 14.8313 49.0535 11.9198 49.1748 11.5558C48.2043 13.4969 47.8404 12.0411 47.719 11.1919C46.142 14.8313 42.6239 14.346 42.1387 11.4345C41.1682 13.4969 38.1354 12.769 37.7714 10.7067C36.1944 12.0411 34.3747 9.49353 34.8599 6.82465C33.8894 7.91646 33.4041 6.09677 34.3746 4.15576C33.1615 5.24758 32.3123 6.46071 32.4336 7.3099Z" fill="#C15A45"/>
<path d="M54.1482 17.5002C54.1482 17.5002 52.2072 18.3494 50.6301 17.6215C50.7514 17.1362 50.9941 15.6805 50.9941 15.6805C50.9941 15.6805 53.4203 15.4378 53.7842 15.6805C54.1482 15.9231 54.1482 17.5002 54.1482 17.5002Z" fill="#B6C9C9"/>
<path opacity="0.5" d="M47.9613 40.9135C48.2039 41.5201 47.2334 44.189 46.1416 45.8873C46.7482 46.6152 47.5974 47.3431 48.5679 47.9497C51.6007 49.7693 56.5746 49.5267 56.5746 49.5267C56.5746 49.5267 54.8762 42.4906 55.3614 40.7922C55.7254 39.3364 58.8795 36.5462 59.486 33.9987C55.7253 33.9987 50.0236 34.2413 49.5384 33.9987C48.8105 33.6347 48.8105 32.0577 49.2958 31.9364C49.6597 31.9364 55.604 32.179 59.486 32.179C58.8795 29.2675 56.6959 22.9592 53.0565 17.5001C52.086 17.5001 50.6302 17.5001 50.2663 17.7427C50.145 17.8641 50.0237 17.9854 49.9024 17.9854C49.781 18.1067 49.781 18.1067 49.6597 18.228C49.4171 18.4706 49.2958 18.5919 49.0532 18.8346C48.9318 18.9559 48.9318 18.9559 48.8105 19.0772C48.4466 19.5624 48.0826 19.9264 47.7187 20.5329C47.7187 20.6543 47.5974 20.6543 47.5974 20.7756C47.5974 20.8969 47.4761 20.8969 47.4761 21.0182C47.3548 21.2608 47.1121 21.5034 46.9908 21.7461C46.7482 22.11 46.5056 22.5953 46.1416 23.0805C46.1416 23.2018 46.0203 23.2018 46.0203 23.3231C45.899 23.4445 45.7777 23.6871 45.7777 23.8084C45.6564 23.9297 45.6564 24.1723 45.5351 24.2936C45.4137 24.6576 45.1712 24.9002 45.0498 25.2641C44.8072 25.7494 44.5646 26.2346 44.3219 26.8412C44.3219 26.9625 44.2006 27.0838 44.2006 27.0838C44.2006 27.2052 44.0793 27.2052 44.0793 27.3265C44.0793 27.4478 43.958 27.5691 43.958 27.6904C43.958 27.8117 43.8367 27.8117 43.8367 27.933C43.7154 28.1757 43.7154 28.4183 43.5941 28.6609C43.5941 28.7822 43.4727 28.7822 43.4727 28.9035C43.4727 29.0248 43.3514 29.1462 43.3514 29.1462C43.3514 29.2675 43.3515 29.2675 43.2302 29.3888C43.1088 29.6314 43.1088 29.874 42.9875 30.1167C42.9875 30.238 42.9875 30.238 42.9875 30.3593C42.8662 30.7232 42.7449 31.2085 42.7449 31.4511C42.7449 31.5724 42.7449 31.5724 42.7449 31.6937C42.7449 31.815 42.7449 31.815 42.7449 31.9364C42.7449 32.0577 42.7449 32.0577 42.7449 32.179C42.7449 32.7855 42.7448 33.1495 42.8662 33.5134C43.7153 36.061 47.7187 40.1856 47.9613 40.9135Z" fill="#B6C9C9"/>
<path opacity="0.3" d="M45.6562 23.6871C48.5678 27.0838 58.8793 30.3593 59.8498 26.1133C58.1514 22.9592 56.0892 19.4411 54.1482 17.5001C54.1482 17.5001 53.6629 17.5001 53.0563 17.5001C52.0858 17.5001 50.6301 17.5001 50.2661 17.7427C48.6891 19.0772 46.9907 21.2608 45.6562 23.6871Z" fill="#B6C9C9"/>
<path opacity="0.5" d="M47.9613 40.9136C48.2039 41.5202 47.2334 44.189 46.1416 45.8874C46.7482 46.6153 47.5974 47.3432 48.5679 47.9497C50.0236 45.6448 51.8433 42.0054 50.7515 40.4283C48.9318 38.0021 44.3219 34.7266 44.3219 31.9364C44.3219 28.4184 47.3548 22.3527 49.0532 19.0773C48.9318 19.1986 48.9318 19.1986 48.8105 19.3199C48.4466 19.8051 48.0826 20.1691 47.7187 20.7757C47.7187 20.897 47.5974 20.897 47.5974 21.0183C47.5974 21.1396 47.4761 21.1396 47.4761 21.2609C47.3548 21.5035 47.1121 21.7462 46.9908 21.9888C46.7482 22.3527 46.5056 22.838 46.1416 23.3232C46.1416 23.4445 46.0203 23.4445 46.0203 23.5658C45.899 23.6872 45.7777 23.9298 45.7777 24.0511C45.6564 24.1724 45.6564 24.415 45.5351 24.5363C45.4137 24.9003 45.1712 25.1429 45.0498 25.5069C44.8072 25.9921 44.5646 26.4774 44.3219 27.0839C44.3219 27.2052 44.2006 27.3265 44.2006 27.3265C44.2006 27.4479 44.0793 27.4479 44.0793 27.5692C44.0793 27.6905 43.958 27.8118 43.958 27.9331C43.958 28.0544 43.8367 28.0544 43.8367 28.1757C43.7154 28.4184 43.7154 28.661 43.5941 28.9036C43.5941 29.0249 43.4727 29.0249 43.4727 29.1462C43.4727 29.2676 43.3514 29.3889 43.3514 29.3889C43.3514 29.5102 43.3515 29.5102 43.2302 29.6315C43.1088 29.8741 43.1088 30.1167 42.9875 30.3594C42.9875 30.4807 42.9875 30.4807 42.9875 30.602C42.8662 30.9659 42.7449 31.4512 42.7449 31.6938C42.7449 31.8151 42.7449 31.8151 42.7449 31.9364C42.7449 32.0578 42.7449 32.0578 42.7449 32.1791C42.7449 32.3004 42.7449 32.3004 42.7449 32.4217C42.7449 33.0283 42.7448 33.3922 42.8662 33.7561C43.7153 36.0611 47.7187 40.1857 47.9613 40.9136Z" fill="#B6C9C9"/>
<path d="M39.3484 60.9302C39.7123 63.3565 40.3189 65.4188 41.2894 65.2975C42.8664 65.0549 45.778 58.504 43.5943 47.5858L39.8336 57.2908C39.9549 57.1695 39.591 58.9892 39.3484 60.9302Z" fill="#404352"/>
<path d="M61.0632 46.3727L67.2502 60.6876L67.4929 56.6843C67.4929 56.6843 70.4044 49.8907 67.8568 45.7661C66.2797 43.2185 62.6404 46.13 62.6404 46.13L61.0632 46.3727Z" fill="#B6C9C9"/>
<path opacity="0.4" d="M61.0632 46.3726L67.2502 60.6875L67.4929 56.6842C66.5224 51.8317 62.6404 46.13 62.6404 46.13L61.0632 46.3726Z" fill="#B6C9C9"/>
<path d="M34.4957 67.9663L40.6826 58.5039L44.2007 53.1661L44.9286 52.0743L39.1056 52.8022C39.1056 52.8022 38.6203 53.5301 37.8924 54.6219C35.9514 57.2908 32.4333 62.3859 30.7349 64.6909C30.1284 65.4187 29.8858 65.904 29.7645 66.0253C29.5218 66.1466 34.4957 67.9663 34.4957 67.9663Z" fill="#666977"/>
<path opacity="0.4" d="M30.6135 64.5695L32.3119 65.0548C32.3119 65.0548 35.3448 59.3531 35.9513 59.2318C36.3153 59.1105 38.8628 58.7465 40.5612 58.5039L44.0792 53.1661C44.0792 53.1661 40.3186 54.0153 37.771 54.5006C35.9513 57.1695 32.3119 62.2646 30.6135 64.5695Z" fill="#666977"/>
<path d="M27.8235 66.268C28.1874 70.8779 33.1612 79.3698 33.1612 79.3698L34.4957 79.0059L35.7088 78.642C35.7088 78.642 36.4366 71.8484 35.5874 67.9664C34.3743 65.5402 32.676 64.0844 31.0989 63.4778C29.1579 62.9926 27.7022 63.8418 27.8235 66.268Z" fill="#B6C9C9"/>
<path d="M65.5515 77.6713C68.0991 79.9762 72.709 78.3992 72.709 78.3992L72.8303 76.4582L72.9517 74.3958C72.9517 74.3958 70.2827 71.4843 68.9483 70.7564C66.7646 69.6646 65.3089 70.9991 64.8237 72.8188C64.3384 74.5172 64.581 76.7008 65.5515 77.6713Z" fill="#B6C9C9"/>
<path opacity="0.3" d="M65.5515 77.6713C68.0991 79.9762 72.709 78.3991 72.709 78.3991L72.8303 76.4581C69.7975 78.3991 65.0663 75.4876 64.8237 72.9401C64.3384 74.5171 64.581 76.7008 65.5515 77.6713Z" fill="#B6C9C9"/>
<path d="M73.9226 74.3959C73.9226 74.2746 73.4373 73.668 72.8307 73.0615C72.1029 72.4549 71.4963 75.1238 71.4963 75.8517C71.4963 76.4582 72.5881 76.4582 72.5881 76.4582L73.68 76.2156L73.9226 74.3959Z" fill="#E4AC91"/>
<path d="M75.0142 73.304C72.9519 77.9139 74.2863 84.4648 74.2863 84.2222C74.2863 84.1009 72.9519 84.1008 72.9519 83.9795C72.9519 83.8582 72.4667 79.7336 72.7093 77.3073C73.0732 74.8811 74.0437 72.9401 74.0437 72.9401L75.0142 73.304Z" fill="#5C362A"/>
<path d="M1.12876 75.4893L0.92627 76.9309L97.6359 90.515L97.8384 89.0734L1.12876 75.4893Z" fill="#7D5B51"/>
<path d="M101.582 88.9535L98.3064 89.4387V89.924V90.6519L100.854 92.1076L110.074 91.865L101.582 88.9535Z" fill="#B6C9C9"/>
<path opacity="0.5" d="M98.3064 89.9241V90.6519L100.854 92.1077L110.074 91.8651L98.3064 89.9241Z" fill="#B6C9C9"/>
<path d="M98.4277 91.7438L96.9719 91.3798L97.4571 88.1044L99.2768 88.2257L98.4277 91.7438Z" fill="#B6C9C9"/>
<path d="M31.7053 143.423C31.7053 143.544 32.1906 143.666 32.6758 143.666C33.1611 143.666 33.6463 143.666 33.6463 143.666C33.6463 143.666 47.476 116.249 47.476 114.55C47.476 113.58 43.8366 107.514 42.9874 107.636C42.1382 107.757 37.771 110.668 36.9218 112.852C36.1939 114.914 31.8266 143.18 31.7053 143.423Z" fill="#B6C9C9"/>
<path d="M66.4009 142.938C66.4009 142.938 67.0074 142.21 67.3714 141.967C67.4927 141.846 68.2206 141.967 68.5845 141.967C68.8271 141.967 69.0698 142.088 69.0698 142.088C69.0698 142.088 73.5584 114.914 73.3157 114.065C73.0731 113.216 70.7681 108.121 68.9484 108.242C67.614 108.363 64.3386 114.065 64.2173 115.885C64.096 117.705 66.4009 142.938 66.4009 142.938Z" fill="#B6C9C9"/>
<path opacity="0.4" d="M68.585 142.088C68.8276 142.088 69.0702 142.21 69.0702 142.21C69.0702 142.21 73.5588 115.036 73.3162 114.186C73.0736 113.337 70.7686 108.242 68.9489 108.363C70.6473 121.587 68.8276 140.026 68.585 142.088Z" fill="#B6C9C9"/>
<path opacity="0.4" d="M31.7053 143.423C31.7053 143.544 32.1906 143.666 32.6758 143.666C33.525 140.148 38.7414 116.613 43.1087 107.636C42.2595 107.757 37.8922 110.669 37.043 112.852C36.1939 114.915 31.8266 143.18 31.7053 143.423Z" fill="#B6C9C9"/>
<path d="M34.6171 145H28.4302C28.4302 145 31.5843 142.452 32.6761 142.816C33.6466 143.059 34.6171 145 34.6171 145Z" fill="#B6C9C9"/>
<path d="M65.4307 145C65.4307 145 67.7356 143.18 68.5848 142.938C69.434 142.695 76.4701 145 76.4701 145H65.4307Z" fill="#B6C9C9"/>
<path d="M34.7379 58.14C34.6166 58.5039 44.5643 55.2285 45.6561 53.0449C46.6266 50.8612 46.5052 45.0382 46.5052 45.0382L45.0495 45.4022C45.0495 45.4022 40.4396 42.0054 38.4986 44.3103C36.6789 46.6153 36.6789 54.7432 36.6789 55.1072C36.5576 55.3498 34.8592 57.7761 34.7379 58.14Z" fill="#B6C9C9"/>
<path opacity="0.3" d="M34.7379 58.1399C34.6166 58.5038 44.5643 55.2284 45.6561 53.0447C46.6266 50.8611 46.5052 45.0381 46.5052 45.0381L45.0495 45.402C44.2003 53.7726 37.7707 54.9857 36.6789 55.1071C36.5576 55.3497 34.8592 57.7759 34.7379 58.1399Z" fill="#B6C9C9"/>
<path opacity="0.3" d="M31.0991 63.599C28.9155 65.1761 33.2827 75.9729 34.6171 79.0057L33.2827 79.3697C33.2827 79.3697 28.3089 70.8778 27.9449 66.2679C27.7023 63.8416 29.1581 62.9924 31.0991 63.599Z" fill="#B6C9C9"/>
<path d="M35.8301 78.7632C35.8301 78.7632 37.5285 79.4911 37.8924 79.6124C38.2564 79.7337 38.1351 80.8255 38.1351 80.8255L37.2859 80.7042C37.2859 80.7042 37.5285 82.8878 37.2859 83.2518C37.0432 83.6157 36.194 83.3731 36.194 83.3731C36.194 83.3731 35.8301 83.0091 35.7088 82.6452C35.5875 82.4026 33.0399 83.1304 32.7973 82.1599C32.5547 81.1894 33.1612 79.3697 33.1612 79.3697L35.8301 78.7632Z" fill="#F8C5A5"/>
<path d="M75.2568 74.3959C76.106 75.1238 74.7716 78.5206 74.2863 79.0058C73.8011 79.4911 72.1027 78.7632 71.9814 78.3993C71.8601 78.0353 72.4667 77.7927 72.4667 77.7927C72.4667 77.7927 71.9814 77.3075 71.9814 76.8222C71.9814 76.337 72.5879 76.2156 72.5879 76.2156C72.5879 76.2156 71.9814 75.973 71.9814 75.6091C71.9814 75.1238 72.5879 75.0025 72.5879 75.0025C72.5879 75.0025 71.9814 75.0025 72.1027 74.3959C72.3454 73.6681 74.8929 74.032 75.2568 74.3959Z" fill="#F8C5A5"/>
</svg>
