<svg width="1080" height="52" viewBox="0 0 1080 52" fill="none" xmlns="http://www.w3.org/2000/svg">
<path fill-rule="evenodd" clip-rule="evenodd" d="M674.334 35.8641V9.02045H1073.55L1079.93 17.2801H1079.33H743.227C739.444 17.2801 736.258 19.8611 734.665 24.2491L674.334 35.8641Z" fill="url(#paint0_linear_4_219)"/>
<path fill-rule="evenodd" clip-rule="evenodd" d="M539.137 9.02045V13.3154V51.9703L595.988 34.7904L598.399 28.3479C601.01 21.637 606.033 17.6104 611.657 17.6104H644.603C648.42 17.6104 651.634 20.2948 653.241 24.8582L674.334 36.9378V13.3154V9.02045H539.137Z" fill="url(#paint1_linear_4_219)"/>
<path opacity="0.5" fill-rule="evenodd" clip-rule="evenodd" d="M648.102 9.02045C657.244 10.1078 664.795 11.1951 666.783 11.7388C671.155 13.3698 672.744 16.9036 674.334 30.4954V9.02045H648.102Z" fill="url(#paint2_linear_4_219)"/>
<path fill-rule="evenodd" clip-rule="evenodd" d="M405.957 35.8641V9.02045H6.73719L0.365601 17.2801H0.962944H337.065C340.848 17.2801 344.034 19.8611 345.626 24.2491L405.957 35.8641Z" fill="url(#paint3_linear_4_219)"/>
<path fill-rule="evenodd" clip-rule="evenodd" d="M539.137 9.02045V13.3154V51.9703L483.134 34.7904L480.76 28.3479C478.187 21.637 473.24 17.6104 467.699 17.6104H435.245C431.485 17.6104 428.319 20.2948 426.736 24.8582L405.958 36.9378V13.3154V9.02045H539.137Z" fill="url(#paint4_linear_4_219)"/>
<path fill-rule="evenodd" clip-rule="evenodd" d="M12.387 0.967529H1065.89L1071.85 9.02063H6.41931L12.387 0.967529Z" fill="url(#paint5_linear_4_219)"/>
<path opacity="0.5" fill-rule="evenodd" clip-rule="evenodd" d="M379.725 9.02045C388.867 10.1078 396.419 11.1951 398.406 11.7388C402.778 13.3698 404.368 16.9036 405.958 30.4954V9.02045H379.725Z" fill="url(#paint6_linear_4_219)"/>
<defs>
<linearGradient id="paint0_linear_4_219" x1="674.25" y1="22.457" x2="1079.95" y2="22.457" gradientUnits="userSpaceOnUse">
<stop stop-color="#945200"/>
<stop offset="1" stop-color="#E39919"/>
</linearGradient>
<linearGradient id="paint1_linear_4_219" x1="539.137" y1="30.5493" x2="674.25" y2="30.5493" gradientUnits="userSpaceOnUse">
<stop stop-color="#945200"/>
<stop offset="0.7026" stop-color="#E39919"/>
<stop offset="1" stop-color="#EBAB21"/>
</linearGradient>
<linearGradient id="paint2_linear_4_219" x1="648.091" y1="19.8231" x2="674.251" y2="19.8231" gradientUnits="userSpaceOnUse">
<stop stop-color="#473626"/>
<stop offset="1" stop-color="#E8E7B3"/>
</linearGradient>
<linearGradient id="paint3_linear_4_219" x1="0.340712" y1="22.457" x2="406.043" y2="22.457" gradientUnits="userSpaceOnUse">
<stop stop-color="#945200"/>
<stop offset="0.7026" stop-color="#E39919"/>
<stop offset="1" stop-color="#EBAB21"/>
</linearGradient>
<linearGradient id="paint4_linear_4_219" x1="406.042" y1="30.5493" x2="539.137" y2="30.5493" gradientUnits="userSpaceOnUse">
<stop stop-color="#945200"/>
<stop offset="0.7026" stop-color="#E39919"/>
<stop offset="1" stop-color="#EBAB21"/>
</linearGradient>
<linearGradient id="paint5_linear_4_219" x1="539.137" y1="9.07002" x2="539.137" y2="1.06095" gradientUnits="userSpaceOnUse">
<stop stop-color="#FFD99E"/>
<stop offset="1" stop-color="#FFD147"/>
</linearGradient>
<linearGradient id="paint6_linear_4_219" x1="379.683" y1="19.8231" x2="405.844" y2="19.8231" gradientUnits="userSpaceOnUse">
<stop stop-color="#473626"/>
<stop offset="1" stop-color="#E8E7B3"/>
</linearGradient>
</defs>
</svg>
