<svg width="1080" height="61" viewBox="0 0 1080 61" fill="none" xmlns="http://www.w3.org/2000/svg">
<path fill-rule="evenodd" clip-rule="evenodd" d="M12.7149 60.0263H1067.58L1079.93 43.3073H745.302C741.319 43.3073 737.933 40.8803 735.941 36.296L734.547 33.3298L674.195 23.3523L653.281 33.3298L651.886 36.296C649.695 40.8803 646.509 43.3073 642.525 43.3073H631.172C623.404 43.3073 616.631 38.1837 612.449 29.2848L606.872 17.15L540.146 0.970276L473.62 17.4197L468.042 29.5545C463.86 38.4533 457.087 43.5769 449.319 43.5769H437.966C433.983 43.5769 430.596 41.15 428.605 36.5657L427.21 33.5994L406.296 23.6219L345.945 33.5994L344.55 36.5657C342.359 41.15 339.172 43.5769 335.189 43.5769H0.365662L12.7149 60.0263Z" fill="#CCCCCC"/>
<path fill-rule="evenodd" clip-rule="evenodd" d="M1073.87 51.9734H6.41931L12.5953 60.0265H1067.7L1073.87 51.9734Z" fill="url(#paint0_linear_4_218)"/>
<path fill-rule="evenodd" clip-rule="evenodd" d="M6.53505 51.9734H405.957V22.4454L345.656 32.8505L344.263 35.9439C342.074 40.7247 338.89 43.2556 334.909 43.2556H0.365601L6.53505 51.9734Z" fill="url(#paint1_linear_4_218)"/>
<path fill-rule="evenodd" clip-rule="evenodd" d="M405.958 23.4875V51.9732H539.137V0.970276L473.042 17.5191L467.501 29.7273C463.345 38.6799 456.617 43.8345 448.9 43.8345H437.62C433.662 43.8345 430.298 41.3928 428.319 36.7809L426.934 33.7966L405.958 23.4875Z" fill="url(#paint2_linear_4_218)"/>
<path fill-rule="evenodd" clip-rule="evenodd" d="M539.137 0.970276V51.9732H674.334V23.4875L653.241 33.5253L651.835 36.5096C649.625 41.1215 646.411 43.5632 642.393 43.5632H630.943C623.108 43.5632 616.278 38.4086 612.059 29.456L606.434 17.2478L539.137 0.970276Z" fill="url(#paint3_linear_4_218)"/>
<path fill-rule="evenodd" clip-rule="evenodd" d="M674.334 22.4454V51.9734H1073.76L1079.93 43.2556H745.382C741.402 43.2556 738.019 40.7247 736.029 35.9439L734.636 32.8505L674.334 22.4454Z" fill="url(#paint4_linear_4_218)"/>
<path fill-rule="evenodd" clip-rule="evenodd" d="M450.351 51.9732C463.23 50.0842 518.648 44.1474 525.478 41.4488C535.039 37.9407 535.429 22.0191 539.137 0.970276V51.7034H450.351V51.9732Z" fill="url(#paint5_linear_4_218)"/>
<path fill-rule="evenodd" clip-rule="evenodd" d="M357.529 51.9731C364.476 50.8774 394.923 47.8644 398.601 46.4948C403.914 44.5774 403.914 36.086 405.958 25.1294V51.9731H357.529Z" fill="url(#paint6_linear_4_218)"/>
<path fill-rule="evenodd" clip-rule="evenodd" d="M625.905 51.9731C632.853 50.8774 663.3 47.8644 666.978 46.4948C672.291 44.5774 672.291 36.086 674.334 25.1294V51.9731H625.905Z" fill="url(#paint7_linear_4_218)"/>
<defs>
<linearGradient id="paint0_linear_4_218" x1="540.146" y1="60.0915" x2="540.146" y2="52.0438" gradientUnits="userSpaceOnUse">
<stop stop-color="#6E4500"/>
<stop offset="1" stop-color="#CF9353"/>
</linearGradient>
<linearGradient id="paint1_linear_4_218" x1="0.340724" y1="37.2457" x2="405.844" y2="37.2457" gradientUnits="userSpaceOnUse">
<stop stop-color="#BA7621"/>
<stop offset="1" stop-color="#FFD24F"/>
</linearGradient>
<linearGradient id="paint2_linear_4_218" x1="406.042" y1="26.4788" x2="539.137" y2="26.4788" gradientUnits="userSpaceOnUse">
<stop stop-color="#BA7014"/>
<stop offset="0.7175" stop-color="#FFD24F"/>
<stop offset="1" stop-color="#FFE48A"/>
</linearGradient>
<linearGradient id="paint3_linear_4_218" x1="539.137" y1="26.4788" x2="674.25" y2="26.4788" gradientUnits="userSpaceOnUse">
<stop stop-color="#BA7014"/>
<stop offset="0.7175" stop-color="#FFD24F"/>
<stop offset="1" stop-color="#FFE48A"/>
</linearGradient>
<linearGradient id="paint4_linear_4_218" x1="674.25" y1="37.2457" x2="1079.75" y2="37.2457" gradientUnits="userSpaceOnUse">
<stop stop-color="#BA7014"/>
<stop offset="1" stop-color="#FFD24F"/>
</linearGradient>
<linearGradient id="paint5_linear_4_218" x1="450.414" y1="26.6137" x2="539.137" y2="26.6137" gradientUnits="userSpaceOnUse">
<stop stop-color="#473626"/>
<stop offset="1" stop-color="#E8E7B3"/>
</linearGradient>
<linearGradient id="paint6_linear_4_218" x1="357.61" y1="38.5899" x2="406.045" y2="38.5899" gradientUnits="userSpaceOnUse">
<stop stop-color="#473626"/>
<stop offset="1" stop-color="#E8E7B3"/>
</linearGradient>
<linearGradient id="paint7_linear_4_218" x1="625.814" y1="38.5899" x2="674.248" y2="38.5899" gradientUnits="userSpaceOnUse">
<stop stop-color="#473626"/>
<stop offset="1" stop-color="#E8E7B3"/>
</linearGradient>
</defs>
</svg>
