<?xml version="1.0" encoding="UTF-8"?>
<svg xmlns="http://www.w3.org/2000/svg" xmlns:xlink="http://www.w3.org/1999/xlink" viewBox="0 0 800 400">
	<defs>
		<radialGradient id="a" cx="591.77" cy="11345.84" r="198.95" fx="591.77" fy="11345.84"
						gradientTransform="matrix(1 0 0 .41 0 -4686.72)" gradientUnits="userSpaceOnUse">
			<stop offset="0" stop-color="#d4ead7"></stop>
			<stop offset="1" stop-color="#a4d1ef"></stop>
		</radialGradient>
		<radialGradient id="b" cx="497.48" cy="50.61" r="121.34" fx="497.48" fy="50.61" gradientUnits="userSpaceOnUse">
			<stop offset="0" stop-color="#93a2ff"></stop>
			<stop offset="1" stop-color="#7d8ed4"></stop>
		</radialGradient>
		<radialGradient xlink:href="#a" id="e" cx="360.74" cy="11379.06" r="72.39" fx="360.74"
						fy="11379.06"></radialGradient>
		<radialGradient xlink:href="#b" id="f" cx="360.67" cy="11391.55" r="64.47" fx="360.67" fy="11391.55"
						gradientTransform="matrix(1 0 0 .41 0 -4686.72)"></radialGradient>
		<radialGradient xlink:href="#a" id="g" cx="249.98" cy="11218.79" r="28.4" fx="249.98" fy="11218.79"
						gradientTransform="rotate(26.01 10233.02077603 2387.54259812) scale(1 .41)"></radialGradient>
		<linearGradient id="c" x1="316.39" x2="316.39" y1="25.53" y2="77.73" gradientUnits="userSpaceOnUse">
			<stop offset="0" stop-color="#93a2ff"></stop>
			<stop offset="1" stop-color="#7d8ed4"></stop>
		</linearGradient>
		<linearGradient xlink:href="#c" id="h" x1="258.22" x2="278.29" y1="-3.069" y2="-3.069"></linearGradient>
		<clipPath id="d">
			<path fill="none" d="M0 0h800v400H0z"></path>
		</clipPath>
	</defs>
	<g fill-rule="evenodd" clip-path="url(#d)">
		<path fill="url(#a)"
			  d="M329.43 59.25s6.8-19.31 17.36-25.91c14.67-9.17 30.57-2.21 30.57-2.21S398.5 2.03 431.83.02c15.85-.96 12.1 20.11 12.1 20.11l22.67-4.27s44.74-29.62 93.32-29.62c71.74 0 105.61 47.85 105.61 47.85l-90.34 11.48-3.91 5.42h-81.53l1.33-6.82-132.51 6.82s13.67 18.18 14.72 25.2l-2.99 2.19 12.31 5.23-9.95-.28-9.99.62s-.45-2.44 1.12-4.7l-31.66-10.2s-1.66-7.37.46-11.43l-3.15 1.61Z"></path>
		<path fill="url(#b)"
			  d="M486.37 24.53s-18.79-2-54.32 4.28l11.36-6.12s-32.66-.48-66.04 8.44l6.91.34s-31.47 7.6-54.84 27.78c0 0 7.78-4.36 15.57-6.17 0 0-12.96 6.17-13.06 14.9-.11 8.73 37.8 14.72 37.8 14.72s-4.58-.27-7.07 1.26c5.46.5 19.92 1.41 19.92 1.41l.02-1.75-15.56-3.34s6.1-.75 6.25-4.08c0 0-.67-3.51-20.8-9.18 0 0 43.4-12.77 93.02-16.02s60.43-2.47 60.43-2.47L489.78 51s57.86 1.83 81.53 0l-6.57-2.88L665.57 34.1S561.51 6.86 469.42 18.97l16.99 5.56Z"></path>
		<path fill="url(#c)"
			  d="M343.67 25.82s-38.34 8.14-45.42 23.86 25.39 28.05 25.39 28.05-37.16-10.23-34.37-30.05c2.8-19.82 35.21-23.32 54.4-21.86z"></path>
		<path fill="url(#e)"
			  d="M380.75 17.83s-30.79-8.16-44.8-7.17c-14.02.99-16.76 6.02-16.76 6.02s-33.15 5.75-29.3 35.75c0 0 10.71-14.96 26.25-20.9s27.53-5.71 27.53-5.71 1.47-5.67 0-7.75 37.08-.24 37.08-.24Z"></path>
		<path fill="url(#f)"
			  d="M289.89 52.43s13.3-20.6 53.78-26.61l-8.36-.23 45.45-7.76s-39.09-3.89-69.95 4.72c-27.16 7.58-20.92 29.88-20.92 29.88Z"></path>
		<path fill="url(#g)" d="M258.22 42.21s8.9-7.11 20.08-10.6c0 0-28.03-15-20.08 10.6Z"></path>
		<path fill="url(#h)" d="M258.22 42.21s.18-10.29 20.08-10.6l-20.08 10.6Z"></path>
		<path fill="#d16318"
			  d="M450.88 228.12c-.26-.4-.77-.68-1.24-.73-.06 1.32.48 2.89 2.11 2.64-.06-.72-.48-1.52-1.1-1.87l.24-.05Zm-10.42 33.39c-.02-.17-.22-.09-.17-.33.95.54-.61 1.43-1.17 1.58-.28-.42-.6-2.24-.09-2.61.66-.48 1.54.63 1.88 1.15l-.45.22Zm-13.23 2.4c-.61-.21-.86-.9-.43-1.38.26.33.34.75.27 1.17l.17.21Zm12.93-9.92c-.61-.21-.86-.9-.43-1.38.26.33.34.75.27 1.17l.17.21Zm-55.36-26.55c.17.01.14-.2.36-.1-.72.82-1.28-.89-1.31-1.46.47-.19 2.31-.15 2.57.43.34.74-.92 1.39-1.5 1.62l-.12-.49Zm38.24 5.15s.18.04.29-.38c-1.83-1.59-1.89 2.94-.29.38Z"></path>
		<path fill="#b74d00"
			  d="M425.21 230.88c-.12.18-.2.43-.27.63.15-.04.92-.2 1-.38.21-.45-.37-.61-.67-.39l-.06.14Zm2.18-2.03c-.1-.05-.13.08-.23-.03.62-.28.5.84.37 1.17-.32-.01-1.36-.51-1.36-.91 0-.51.89-.55 1.27-.54l-.06.31Zm4.48 15.21c-.58-.85 1.98-1.1 2.06.34.08 1.35-1.71.36-2.06-.26v-.08Zm-9.29-6.07c.15-.47.7-.9 1.18-.97-.33.34-.75.64-1.15.9l-.03.07Zm34.65 3.66c.15-.47.7-.9 1.18-.97-.33.34-.75.64-1.15.9l-.03.07Zm-36.86-5.25c.13-.08.39.28.54.59-.29-.11-.56-.26-.68-.48l.13-.11Zm-56-16.33c-.33.2-.63.52-.85.84.27.26.83.33 1.22.37.28-.66.8-1.35-.44-1.21h.08Z"></path>
		<path fill="#d16318" d="M424.28 228.59c.53-.37 1.23-.17 1.38.46-.42.02-.8-.16-1.1-.47h-.27Z"></path>
		<path fill="#b74d00" d="M430.94 218.81c.29-.28.23-.53-.22-.41.03.17.11.44.23.58v-.17Z"></path>
		<path fill="#d16318"
			  d="M427.64 217.06c.48.02 1-.23 1.32-.58-1.03-.82-2.63-1.3-3.38.16.62.37 1.51.5 2.16.2l-.1.22zm1.27 8.99c-.26.11-.85.02-.94-.53a2 2 0 0 1 1.15.36l-.21.17zm-38.31 33.26c.12-.11.26-.05.3-.27-.2.19-.22.44-.35.64 1.09.67 1.55-.86.25-.83l-.2.46zm.04-3.09c-.43.28-.04.64.63.58-.01-.42-.29-.63-.73-.72l.1.14zm23.77-5.07c-.09.33-.08.74-.09 1.08.21-.14 1.29-.77 1.32-1.08.09-.79-.87-.74-1.21-.25l-.02.24zm2.27-4.18c-.17-.03-.16.18-.36.07.8-.75 1.19 1.01 1.16 1.59-.49.14-2.31-.09-2.52-.69-.26-.78 1.06-1.29 1.65-1.46l.07.5zm-20.69 13.18c.2.51 1.01.34 1.37-.1-.34-.46-.85-.2-1.14.25l-.23-.15zm2.65-3.16c.1-.55.41-.67.87-.38-.06.56-.57.76-1.12.58-.08-.24.09-.23.14-.34l.11.13zm15.39 6.23c-.02-.79.61-1.71 1.29-2.06-.32.69-.82 1.35-1.28 1.94v.12zm-6.53 9.81c-.02-.79.61-1.71 1.29-2.06-.32.69-.82 1.35-1.28 1.94v.12zm-12.36 1.68c-.02-.79.61-1.71 1.29-2.06-.32.69-.82 1.35-1.28 1.94v.12zm14.74-12.77c.15-.19.73.24 1.12.61-.49-.02-.97-.11-1.26-.38l.15-.23zm7.91-5.55c.03-.33.12.27.11.37.38-.1.5.08.8.12-.43.73-1.29.16-1.05-.38l.13-.11zm-21.85-14.85s-.18.02-.15.46c2.24.92.86-3.38.15-.46z"></path>
		<path fill="#b74d00"
			  d="M394.42 243.85c.06-.21.05-.47.06-.68-.13.09-.81.48-.83.67-.05.49.54.46.76.16l.02-.15Zm-1.42 2.62c.11.02.1-.11.23-.04-.5.47-.74-.64-.72-1 .31-.09 1.45.06 1.58.43.17.49-.66.81-1.04.91l-.04-.31Zm14.33 15.2c.49.91-2.08.9-2.02-.55.06-1.35 1.74-.18 2.03.47v.08Zm-2.9 6.48c.49.91-2.08.9-2.02-.55.06-1.35 1.74-.18 2.03.47v.08Zm12.39-27.22c-2.12.36-.27-1.68-.12-.32l.12.32Zm-2.54.12c.13-.26-.42-.34-.44-.15-.04.42.29.46.58.25l-.14-.09Zm-1.49-1.92c-1.11.13-.41-.99.02-.23l-.02.23Zm-6.81-.92c-.13-.32-.63-.21-.86.07.21.29.53.13.71-.16l.14.09Zm-1.66 1.97c-.06.34-.26.42-.55.24.04-.35.36-.47.7-.36.05.15-.06.15-.09.21l-.07-.08Zm-9.66-3.9c.01.49-.38 1.07-.81 1.29.2-.43.51-.84.8-1.21v-.08Zm2.61.8c-.09.12-.46-.15-.7-.38.31.01.61.07.79.24l-.09.14Zm8.74 12.79s.11-.01.09-.29c-1.41-.58-.54 2.12-.09.29Zm5.62-4.71c-.35.09-.63-.14-.8-.47.42-.48.82.27 1.26.37-.01.14-.03.23-.11.35-.18.05-.2-.05-.28-.09l-.06-.16Zm9.11-4.29c.35-.17.68-.45.93-.75-.25-.28-.8-.41-1.17-.49-.34.63-.93 1.26.32 1.25h-.08Zm-1.03 4.88c-.49.19-.53-.43-.09-.63.17.09.11.17.12.33l-.03.3Z"></path>
		<path fill="#d16318"
			  d="M430.76 218.47c.15.08.2-.12.37.05-.99.45-.8-1.34-.59-1.87.51.02 2.16.82 2.17 1.46 0 .82-1.41.88-2.03.86l.09-.49Zm-35.53-10.12c-.25-.48-1.04-.23-1.35.24.39.42.87.11 1.11-.37l.24.12Zm-2.31 3.41c-.04.55-.34.71-.83.47 0-.56.49-.81 1.06-.69.11.23-.07.24-.1.35l-.12-.12Zm-11.62-3.49c.44-.18.82-.62.96-1.07-1.28-.32-2.93-.1-3.01 1.54.72.08 1.58-.17 2.05-.71v.24Zm15.88 18.59s.18-.04.1-.47c-2.33-.69-.51 3.45-.1.47Z"></path>
		<path fill="#b74d00"
			  d="M398.45 224.4c-.03.21 0 .47.01.68.12-.1.75-.56.76-.76 0-.5-.59-.4-.77-.08v.15Zm1.15-2.75c-.11 0-.09.12-.22.06.45-.52.81.56.82.92-.3.12-1.45.09-1.61-.27-.21-.47.58-.87.94-1.02l.08.31Zm29.1 2.5c2.12.33-.28 1.67.01.34v-.34Zm2.46.69c-.2.2.29.46.37.29.17-.38-.13-.52-.47-.42l.11.13Zm.8 2.3c1.09.23.08 1.07-.09.21l.09-.21Zm-32.97 4.82c-.06-.49.27-1.1.68-1.37-.16.45-.42.89-.68 1.29v.08Zm35.98-10.17c.36.03.55.33.61.7-.55.33-.69-.52-1.08-.75.06-.12.1-.21.22-.29.18 0 .17.11.24.18v.17Zm-10 1.17c-.39.05-.79.21-1.12.42.14.35.62.65.95.84.53-.49 1.29-.89.09-1.28l.07.03Zm2.53-4.3c.53-.03.37.58-.12.63-.13-.13-.05-.19-.01-.35l.13-.28Zm-39.3 54.01c-.58-.85 1.98-1.1 2.06.34.08 1.35-1.71.36-2.06-.26v-.08Z"></path>
		<path fill="#d16318"
			  d="M379.87 240.87c1.11.57-.2 1.54-.37.24l.37-.24Zm29.48-12.8c-.27-.69 1.03-1.07 1.1-.18.06.64-.89 1.04-1.35.67l.24-.49Zm-1.69-3.74c.17.01.14-.2.36-.1-.72.82-1.28-.89-1.31-1.46.47-.19 2.31-.15 2.57.43.34.74-.92 1.39-1.5 1.62l-.12-.49Zm7.3 58.86c.17.01.14-.2.36-.1-.72.82-1.28-.89-1.31-1.46.47-.19 2.31-.15 2.57.43.34.74-.92 1.39-1.5 1.62l-.12-.49Z"></path>
		<path fill="#b74d00"
			  d="M408.13 230.36c2.07-.58.44 1.64.15.31l-.15-.31Zm2.52-.38c-.1.27.45.3.45.11 0-.42-.33-.42-.6-.19l.15.08Zm1.68 1.75c1.09-.24.51.95 0 .23v-.23Zm.53-6.1c.34-.12.64.07.85.38-.37.52-.84-.19-1.29-.24 0-.14 0-.23.08-.36.17-.07.2.03.29.06l.08.15Z"></path>
	</g>
</svg>
