<svg width="543" height="340" viewBox="0 0 543 340" fill="none" xmlns="http://www.w3.org/2000/svg">
<path fill-rule="evenodd" clip-rule="evenodd" d="M6.2 22.1602H535.8L542 15.9602H374C372 15.9602 370.3 15.0602 369.3 13.3602L368.6 12.2602L338.3 8.56017L327.8 12.2602L327.1 13.3602C326 15.0602 324.4 15.9602 322.4 15.9602H316.7C312.8 15.9602 309.4 14.0602 307.3 10.7602L304.5 6.26016L271 0.260162L237.6 6.36016L234.8 10.8602C232.7 14.1602 229.3 16.0602 225.4 16.0602H219.7C217.7 16.0602 216 15.1602 215 13.4602L214.3 12.3602L203.8 8.66016L173.5 12.3602L172.8 13.4602C171.7 15.1602 170.1 16.0602 168.1 16.0602H0L6.2 22.1602Z" fill="#CCCCCC"/>
<path fill-rule="evenodd" clip-rule="evenodd" d="M538.9 19.0602H3.10001L6.2 22.1601H535.8L538.9 19.0602Z" fill="url(#paint0_linear_1_10)"/>
<path fill-rule="evenodd" clip-rule="evenodd" d="M3.1 19.0602H203.8V8.56015L173.5 12.2601L172.8 13.3601C171.7 15.0601 170.1 15.9601 168.1 15.9601H0L3.1 19.0602Z" fill="url(#paint1_linear_1_10)"/>
<path fill-rule="evenodd" clip-rule="evenodd" d="M203.7 8.56017V19.0602H271V0.260162L237.6 6.36016L234.8 10.8602C232.7 14.1602 229.3 16.0602 225.4 16.0602H219.7C217.7 16.0602 216 15.1602 215 13.4602L214.3 12.3602L203.7 8.56017Z" fill="url(#paint2_linear_1_10)"/>
<path fill-rule="evenodd" clip-rule="evenodd" d="M271 0.260162V19.0602H338.3V8.56017L327.8 12.2602L327.1 13.3602C326 15.0602 324.4 15.9602 322.4 15.9602H316.7C312.8 15.9602 309.4 14.0602 307.3 10.7602L304.5 6.26016L271 0.260162Z" fill="url(#paint3_linear_1_10)"/>
<path fill-rule="evenodd" clip-rule="evenodd" d="M338.3 8.56015V19.0602H539L542.1 15.9601H374C372 15.9601 370.3 15.0601 369.3 13.3601L368.6 12.2601L338.3 8.56015Z" fill="url(#paint4_linear_1_10)"/>
<path fill-rule="evenodd" clip-rule="evenodd" d="M225.5 19.0602C232.1 18.3602 260.5 16.1602 264 15.1602C268.9 13.8602 269.1 7.96016 271 0.160156V18.9602H225.5V19.0602Z" fill="url(#paint5_linear_1_10)"/>
<path fill-rule="evenodd" clip-rule="evenodd" d="M180 19.0602C183.4 18.6602 198.3 17.5602 200.1 17.0602C202.7 16.3602 202.7 13.2602 203.7 9.26016V19.0602H180Z" fill="url(#paint6_linear_1_10)"/>
<path fill-rule="evenodd" clip-rule="evenodd" d="M314.6 19.0602C318 18.6602 332.9 17.5602 334.7 17.0602C337.3 16.3602 337.3 13.2602 338.3 9.26016V19.0602H314.6Z" fill="url(#paint7_linear_1_10)"/>
<path fill-rule="evenodd" clip-rule="evenodd" d="M338.3 333.46V323.06H538.8L542 326.26H541.7H372.9C371 326.26 369.4 327.26 368.6 328.96L338.3 333.46Z" fill="url(#paint8_linear_1_10)"/>
<path fill-rule="evenodd" clip-rule="evenodd" d="M271 323.06V324.66V339.06L299.3 332.66L300.5 330.26C301.8 327.76 304.3 326.26 307.1 326.26H323.5C325.4 326.26 327 327.26 327.8 328.96L338.3 333.46V324.66V323.06H271Z" fill="url(#paint9_linear_1_10)"/>
<path opacity="0.5" fill-rule="evenodd" clip-rule="evenodd" d="M325.1 323.06C329.7 323.46 333.5 323.86 334.5 324.06C336.7 324.66 337.5 325.96 338.3 330.96V323.06H325.1Z" fill="url(#paint10_linear_1_10)"/>
<path fill-rule="evenodd" clip-rule="evenodd" d="M203.7 333.46V323.06H3.2L0 326.26H0.300003H169.1C171 326.26 172.6 327.26 173.4 328.96L203.7 333.46Z" fill="url(#paint11_linear_1_10)"/>
<path fill-rule="evenodd" clip-rule="evenodd" d="M271 323.06V324.66V339.06L242.7 332.66L241.5 330.26C240.2 327.76 237.7 326.26 234.9 326.26H218.5C216.6 326.26 215 327.26 214.2 328.96L203.7 333.46V324.66V323.06H271Z" fill="url(#paint12_linear_1_10)"/>
<path fill-rule="evenodd" clip-rule="evenodd" d="M6.20001 320.06H535.8L538.8 323.06H3.20001L6.20001 320.06Z" fill="url(#paint13_linear_1_10)"/>
<path opacity="0.5" fill-rule="evenodd" clip-rule="evenodd" d="M244.1 323.06C253.7 323.86 263.6 324.66 265.5 325.16C268.6 325.96 269.8 327.86 271 335.06V323.06H244.1Z" fill="url(#paint14_linear_1_10)"/>
<path opacity="0.5" fill-rule="evenodd" clip-rule="evenodd" d="M190.6 323.06C195.2 323.46 199 323.86 200 324.06C202.2 324.66 203 325.96 203.8 330.96V323.06H190.6Z" fill="url(#paint15_linear_1_10)"/>
<path fill-rule="evenodd" clip-rule="evenodd" d="M3.1 323.06V19.0602L0 15.9602V326.16L3.1 323.06Z" fill="url(#paint16_linear_1_10)"/>
<path fill-rule="evenodd" clip-rule="evenodd" d="M3.10001 19.0602V323.06L3.2 322.96L6.2 319.96V22.1601L3.10001 19.0602Z" fill="url(#paint17_linear_1_10)"/>
<path fill-rule="evenodd" clip-rule="evenodd" d="M535.8 22.1601V320.06L538.8 323.06L538.9 323.16V19.0602L535.8 22.1601Z" fill="url(#paint18_linear_1_10)"/>
<path fill-rule="evenodd" clip-rule="evenodd" d="M538.9 19.0602V323.16L542 326.26V15.9602L538.9 19.0602Z" fill="url(#paint19_linear_1_10)"/>
<defs>
<linearGradient id="paint0_linear_1_10" x1="271" y1="22.1851" x2="271" y2="19.0872" gradientUnits="userSpaceOnUse">
<stop stop-color="#6E4500"/>
<stop offset="1" stop-color="#CF9353"/>
</linearGradient>
<linearGradient id="paint1_linear_1_10" x1="-0.0125" y1="13.8231" x2="203.743" y2="13.8231" gradientUnits="userSpaceOnUse">
<stop stop-color="#BA7621"/>
<stop offset="1" stop-color="#FFD24F"/>
</linearGradient>
<linearGradient id="paint2_linear_1_10" x1="203.743" y1="9.66276" x2="271" y2="9.66276" gradientUnits="userSpaceOnUse">
<stop stop-color="#BA7014"/>
<stop offset="0.7175" stop-color="#FFD24F"/>
<stop offset="1" stop-color="#FFE48A"/>
</linearGradient>
<linearGradient id="paint3_linear_1_10" x1="271" y1="9.66276" x2="338.258" y2="9.66276" gradientUnits="userSpaceOnUse">
<stop stop-color="#BA7014"/>
<stop offset="0.7175" stop-color="#FFD24F"/>
<stop offset="1" stop-color="#FFE48A"/>
</linearGradient>
<linearGradient id="paint4_linear_1_10" x1="338.258" y1="13.8231" x2="542.013" y2="13.8231" gradientUnits="userSpaceOnUse">
<stop stop-color="#BA7014"/>
<stop offset="1" stop-color="#FFD24F"/>
</linearGradient>
<linearGradient id="paint5_linear_1_10" x1="225.532" y1="9.66276" x2="271" y2="9.66276" gradientUnits="userSpaceOnUse">
<stop stop-color="#473626"/>
<stop offset="1" stop-color="#E8E7B3"/>
</linearGradient>
<linearGradient id="paint6_linear_1_10" x1="180.04" y1="14.1743" x2="203.743" y2="14.1743" gradientUnits="userSpaceOnUse">
<stop stop-color="#473626"/>
<stop offset="1" stop-color="#E8E7B3"/>
</linearGradient>
<linearGradient id="paint7_linear_1_10" x1="314.555" y1="14.1743" x2="338.258" y2="14.1743" gradientUnits="userSpaceOnUse">
<stop stop-color="#473626"/>
<stop offset="1" stop-color="#E8E7B3"/>
</linearGradient>
<linearGradient id="paint8_linear_1_10" x1="338.258" y1="328.266" x2="542.013" y2="328.266" gradientUnits="userSpaceOnUse">
<stop stop-color="#945200"/>
<stop offset="1" stop-color="#E39919"/>
</linearGradient>
<linearGradient id="paint9_linear_1_10" x1="271" y1="331.08" x2="338.258" y2="331.08" gradientUnits="userSpaceOnUse">
<stop stop-color="#945200"/>
<stop offset="0.7026" stop-color="#E39919"/>
<stop offset="1" stop-color="#EBAB21"/>
</linearGradient>
<linearGradient id="paint10_linear_1_10" x1="325.094" y1="327.034" x2="338.258" y2="327.034" gradientUnits="userSpaceOnUse">
<stop stop-color="#473626"/>
<stop offset="1" stop-color="#E8E7B3"/>
</linearGradient>
<linearGradient id="paint11_linear_1_10" x1="-0.0125" y1="328.266" x2="203.743" y2="328.266" gradientUnits="userSpaceOnUse">
<stop stop-color="#945200"/>
<stop offset="0.7026" stop-color="#E39919"/>
<stop offset="1" stop-color="#EBAB21"/>
</linearGradient>
<linearGradient id="paint12_linear_1_10" x1="203.743" y1="331.08" x2="271" y2="331.08" gradientUnits="userSpaceOnUse">
<stop stop-color="#945200"/>
<stop offset="0.7026" stop-color="#E39919"/>
<stop offset="1" stop-color="#EBAB21"/>
</linearGradient>
<linearGradient id="paint13_linear_1_10" x1="271" y1="323.079" x2="271" y2="320.095" gradientUnits="userSpaceOnUse">
<stop stop-color="#FFD99E"/>
<stop offset="1" stop-color="#FFD147"/>
</linearGradient>
<linearGradient id="paint14_linear_1_10" x1="244.098" y1="329.076" x2="271" y2="329.076" gradientUnits="userSpaceOnUse">
<stop stop-color="#473626"/>
<stop offset="1" stop-color="#E8E7B3"/>
</linearGradient>
<linearGradient id="paint15_linear_1_10" x1="190.579" y1="327.034" x2="203.743" y2="327.034" gradientUnits="userSpaceOnUse">
<stop stop-color="#473626"/>
<stop offset="1" stop-color="#E8E7B3"/>
</linearGradient>
<linearGradient id="paint16_linear_1_10" x1="-0.0123" y1="171.083" x2="3.0856" y2="171.083" gradientUnits="userSpaceOnUse">
<stop stop-color="#F5AD24"/>
<stop offset="1" stop-color="#FFE56B"/>
</linearGradient>
<linearGradient id="paint17_linear_1_10" x1="3.08561" y1="171.083" x2="6.1839" y2="171.083" gradientUnits="userSpaceOnUse">
<stop stop-color="#AB671C"/>
<stop offset="1" stop-color="#784C00"/>
</linearGradient>
<linearGradient id="paint18_linear_1_10" x1="535.816" y1="171.14" x2="538.914" y2="171.14" gradientUnits="userSpaceOnUse">
<stop stop-color="#D18900"/>
<stop offset="1" stop-color="#F5B41E"/>
</linearGradient>
<linearGradient id="paint19_linear_1_10" x1="538.914" y1="171.139" x2="542.012" y2="171.139" gradientUnits="userSpaceOnUse">
<stop stop-color="#AB671C"/>
<stop offset="1" stop-color="#784C00"/>
</linearGradient>
</defs>
</svg>
