<svg xmlns="http://www.w3.org/2000/svg" xmlns:xlink="http://www.w3.org/1999/xlink" viewBox="0 0 804.58 612.04"><style>.F,.I,.J{mix-blend-mode:multiply}.A,.B,.C,.D,.E,.H,.K,.L,.M{mix-blend-mode:soft-light}.N,.O{mix-blend-mode:screen}.R{opacity:.5}.S{fill:#4563b6}.T{opacity:.4}.U{fill:#250cb0}.V{opacity:.8}.W{opacity:.3}.X{fill:#fff}.Y{opacity:.2}.Z{fill:#2a2206}.a{fill-rule:evenodd}.b{fill:#cc8b59}.c{opacity:.96}.d{fill:#9acc59}.e{fill:#d3b5c5}.f{fill:#e7ae86}.g{fill:#a5a895}</style><defs><radialGradient xlink:href="#Df" id="A" cx="150.96" cy="549.44" r="114.35" fx="150.96" fy="549.44"><stop offset="0" stop-color="#837779"/><stop offset="1" stop-color="#66aca7"/></radialGradient><radialGradient xlink:href="#A" id="B" cx="636.19" cy="553.12" r="124.34" fx="636.19" fy="553.12"/><radialGradient xlink:href="#A" id="C" cx="37.78" cy="583.57" r="25.56" fx="37.78" fy="583.57"/><radialGradient xlink:href="#A" id="D" cx="547.91" cy="521.65" r="54.05" fx="547.91" fy="521.65"/><radialGradient xlink:href="#A" id="E" cx="37.86" cy="603.35" r="26.19" fx="37.86" fy="603.35"/><radialGradient xlink:href="#A" id="F" cx="120.59" cy="559.08" r="16.67" fx="120.59" fy="559.08"/><radialGradient xlink:href="#A" id="G" cx="271.49" cy="532.32" r="131.56" fx="271.49" fy="532.32"/><radialGradient xlink:href="#A" id="H" cx="287.5" cy="529.9" r="79.82" fx="287.5" fy="529.9"/><radialGradient xlink:href="#A" id="I" cx="169.12" cy="582.32" r="45.46" fx="169.12" fy="582.32"/><radialGradient xlink:href="#A" id="J" cx="357.26" cy="529.2" r="15.29" fx="357.26" fy="529.2"/><radialGradient xlink:href="#A" id="K" cx="419.45" cy="525.97" r="20.42" fx="419.45" fy="525.97"/><radialGradient xlink:href="#A" id="L" cx="444.09" cy="561.32" r="100.73" fx="444.09" fy="561.32"/><radialGradient xlink:href="#A" id="M" cx="510.78" cy="572.06" r="23.71" fx="510.78" fy="572.06"/><radialGradient xlink:href="#A" id="N" cx="364.7" cy="580.13" r="43.08" fx="364.7" fy="580.13"/><radialGradient xlink:href="#A" id="O" cx="391.91" cy="563.73" r="16.3" fx="391.91" fy="563.73"/><radialGradient xlink:href="#A" id="P" cx="452.84" cy="572.17" r="27.13" fx="452.84" fy="572.17"/><radialGradient xlink:href="#A" id="Q" cx="219.26" cy="553.67" r="26.99" fx="219.26" fy="553.67"/><radialGradient xlink:href="#A" id="R" cx="276.47" cy="523.63" r="5.93" fx="276.47" fy="523.63"/><radialGradient xlink:href="#A" id="S" cx="423.48" cy="511.99" r="58.63" fx="423.48" fy="511.99"/><radialGradient xlink:href="#A" id="T" cx="146.17" cy="544.14" r="11.28" fx="146.17" fy="544.14"/><radialGradient xlink:href="#A" id="U" cx="412.01" cy="504.8" r="12.16" fx="412.01" fy="504.8"/><radialGradient xlink:href="#A" id="V" cx="421.68" cy="504.2" r="11.63" fx="421.68" fy="504.2"/><radialGradient xlink:href="#Df" id="W" cx="386.89" cy="546.23" r="15.89" fx="386.89" fy="546.23"><stop offset="0" stop-color="#837779"/><stop offset="1" stop-color="#a67556"/></radialGradient><radialGradient xlink:href="#W" id="X" cx="433.19" cy="532.41" r="25.2" fx="433.19" fy="532.41"/><radialGradient xlink:href="#A" id="Y" cx="365.75" cy="530.59" r="15.15" fx="365.75" fy="530.59"/><radialGradient xlink:href="#A" id="Z" cx="480.98" cy="589.99" r="19.51" fx="480.98" fy="589.99"/><radialGradient xlink:href="#A" id="a" cx="249.6" cy="578.03" r="21.87" fx="249.6" fy="578.03"/><radialGradient xlink:href="#A" id="b" cx="510.71" cy="548.33" r="24.17" fx="510.71" fy="548.33"/><radialGradient xlink:href="#A" id="c" cx="146.97" cy="588.16" r="21.89" fx="146.97" fy="588.16"/><radialGradient xlink:href="#Df" id="d" cx="403.48" cy="448.51" r="28.56" fx="403.48" fy="448.51"><stop offset="0" stop-color="#ae9593"/><stop offset="1" stop-color="#ac4b83"/></radialGradient><radialGradient xlink:href="#d" id="e" cx="419.39" cy="461.04" r="14.45" fx="419.39" fy="461.04"/><radialGradient xlink:href="#d" id="f" cx="402.74" cy="451.71" r="18.15" fx="402.74" fy="451.71"/><radialGradient xlink:href="#d" id="g" cx="396.63" cy="458.29" r="13.39" fx="396.63" fy="458.29"/><radialGradient xlink:href="#d" id="h" cx="389.52" cy="470.51" r="4.69" fx="389.52" fy="470.51"/><radialGradient xlink:href="#Df" id="i" cx="320.42" cy="-2085.95" r="12.61" fx="320.42" fy="-2085.95" gradientTransform="matrix(1 0 0 1.42 0 3260.16)"><stop offset="0" stop-color="#53a5e3"/><stop offset=".99" stop-color="#0a59d9"/></radialGradient><radialGradient xlink:href="#Df" id="j" cx="319.63" cy="311.68" r="6.74" fx="319.63" fy="311.68"><stop offset="0" stop-color="#224799"/><stop offset=".99" stop-color="#002a86"/></radialGradient><radialGradient xlink:href="#Df" id="k" cx="404.96" cy="-6287.29" r="7.08" fx="404.96" fy="-6287.29" gradientTransform="matrix(2.3 0 0 5.47 -613.7 34768.85)"><stop offset="0" stop-color="#abeeff"/><stop offset="1" stop-color="#6a90de"/></radialGradient><radialGradient xlink:href="#j" id="l" cx="391.62" cy="328.89" r="4.43" fx="391.62" fy="328.89" gradientTransform="matrix(1.45 0 0 1 -253.21 0)"/><radialGradient xlink:href="#Df" id="m" cx="317.81" cy="316.64" r="13.85" fx="317.81" fy="316.64"><stop offset="0" stop-color="#e4fbff"/><stop offset="1" stop-color="#91bbff"/></radialGradient><radialGradient xlink:href="#Df" id="n" cx="394.92" cy="327.45" r="9.75" fx="394.92" fy="327.45" gradientTransform="matrix(1.45 0 0 1 -253.21 0)"><stop offset="0" stop-color="#4166d4"/><stop offset=".99" stop-color="#0d0ad9"/></radialGradient><radialGradient xlink:href="#Df" id="o" cx="396.19" cy="328.56" r="2.18" fx="396.19" fy="328.56" gradientTransform="matrix(1.45 0 0 1 -253.21 0)"><stop offset="0" stop-color="#2644ba"/><stop offset=".99" stop-color="#0006b0"/></radialGradient><radialGradient xlink:href="#o" id="p" cx="389.78" cy="328.63" r="2.16" fx="389.78" fy="328.63"/><radialGradient xlink:href="#m" id="q" cx="320.78" cy="312.67" r="4.27" fx="320.78" fy="312.67"/><radialGradient xlink:href="#m" id="r" cx="324.58" cy="314.23" r="3.55" fx="324.58" fy="314.23"/><radialGradient xlink:href="#m" id="s" cx="310.25" cy="314.42" r="3.83" fx="310.25" fy="314.42"/><radialGradient xlink:href="#j" id="t" cx="499.7" cy="329.76" r="1.4" fx="499.7" fy="329.76" gradientTransform="scale(-1 1) rotate(-3.22 -2.89590774 14772.56695505)"/><radialGradient xlink:href="#Df" id="u" cx="319.39" cy="336.01" r="7.3" fx="319.39" fy="336.01"><stop offset="0" stop-color="#7bbcdd"/><stop offset="1" stop-color="#3e39c8"/></radialGradient><radialGradient xlink:href="#m" id="v" cx="393.89" cy="333.61" r="4.41" fx="393.89" fy="333.61" gradientTransform="matrix(1.45 0 0 1 -253.21 0)"/><radialGradient xlink:href="#m" id="w" cx="319.49" cy="336.64" r="4.16" fx="319.49" fy="336.64"/><radialGradient xlink:href="#m" id="x" cx="323.78" cy="338.29" r="3.98" fx="323.78" fy="338.29"/><radialGradient xlink:href="#m" id="y" cx="309.36" cy="337.83" r="3.73" fx="309.36" fy="337.83"/><radialGradient xlink:href="#Df" id="z" cx="310.86" cy="372.04" r="17.08" fx="310.86" fy="372.04"><stop offset="0" stop-color="#4578ab"/><stop offset=".99" stop-color="#1000a4"/></radialGradient><radialGradient xlink:href="#z" id="AA" cx="421.24" cy="373.04" fx="421.24" fy="373.04" gradientTransform="scale(-1 1) rotate(-1.69 14.26726324 25516.80549122)"/><radialGradient xlink:href="#z" id="AB" cx="315.11" cy="372.02" r="17.12" fx="315.11" fy="372.02"/><radialGradient xlink:href="#Df" id="AC" cx="392.31" cy="296.64" r="24.12" fx="392.31" fy="296.64"><stop offset="0" stop-color="#4188d4"/><stop offset=".99" stop-color="#0a45d9"/></radialGradient><radialGradient xlink:href="#j" id="AD" cx="392.31" cy="325.29" r="6.75" fx="392.31" fy="325.29"/><radialGradient xlink:href="#k" id="AE" cx="436.95" cy="-6284.77" r="7.1" fx="436.95" fy="-6284.77"/><radialGradient xlink:href="#m" id="AF" cx="390.6" cy="330.26" r="13.86" fx="390.6" fy="330.26"/><radialGradient xlink:href="#m" id="AG" cx="393.47" cy="326.28" r="4.27" fx="393.47" fy="326.28"/><radialGradient xlink:href="#m" id="AH" cx="397.3" cy="327.85" r="3.55" fx="397.3" fy="327.85"/><radialGradient xlink:href="#m" id="AI" cx="382.95" cy="328.03" r="3.84" fx="382.95" fy="328.03"/><radialGradient xlink:href="#j" id="AJ" cx="426.24" cy="339.3" r="1.4" fx="426.24" fy="339.3" gradientTransform="scale(-1 1) rotate(-3.22 -2.89590774 14772.56695505)"/><radialGradient xlink:href="#u" id="AK" cx="392.36" cy="349.68" r="7.32" fx="392.36" fy="349.68"/><radialGradient xlink:href="#m" id="AL" cx="444.2" cy="347.28" r="4.42" fx="444.2" fy="347.28" gradientTransform="matrix(1.45 0 0 1 -253.21 0)"/><radialGradient xlink:href="#m" id="AM" cx="392.48" cy="350.32" r="4.17" fx="392.48" fy="350.32"/><radialGradient xlink:href="#m" id="AN" cx="396.79" cy="351.97" r="3.98" fx="396.79" fy="351.97"/><radialGradient xlink:href="#m" id="AO" cx="382.34" cy="351.51" r="3.74" fx="382.34" fy="351.51"/><radialGradient xlink:href="#j" id="AP" cx="341.5" cy="282.37" r="23.11" fx="341.5" fy="282.37"/><radialGradient xlink:href="#n" id="AQ" cx="369.11" cy="261.22" r="53.96" fx="369.11" fy="261.22"/><radialGradient xlink:href="#j" id="AR" cx="354.56" cy="307.32" r="19.5" fx="354.56" fy="307.32"/><radialGradient xlink:href="#Df" id="AS" cx="363.3" cy="394.49" r="51.59" fx="363.3" fy="394.49"><stop offset="0" stop-color="#92e2ff"/><stop offset="1" stop-color="#5c8fff"/></radialGradient><radialGradient xlink:href="#n" id="AT" cx="372.64" cy="362.31" r="36.02" fx="372.64" fy="362.31"/><radialGradient xlink:href="#j" id="AU" cx="318.84" cy="365.35" r="16.85" fx="318.84" fy="365.35"/><radialGradient xlink:href="#u" id="AV" cx="358.77" cy="384.93" r="32.03" fx="358.77" fy="384.93" gradientTransform="matrix(.93 0 0 1 30.93 0)"/><radialGradient xlink:href="#m" id="AW" cx="364.31" cy="384.32" r="24.79" fx="364.31" fy="384.32" gradientTransform="matrix(.93 0 0 1 30.93 0)"/><radialGradient xlink:href="#Df" id="AX" cx="328.23" cy="453.19" r="56.67" fx="328.23" fy="453.19"><stop offset="0" stop-color="#4e71b7"/><stop offset="1" stop-color="#2f39a7"/></radialGradient><radialGradient xlink:href="#j" id="AY" cx="328.39" cy="453.63" r="50.27" fx="328.39" fy="453.63"/><radialGradient xlink:href="#m" id="AZ" cx="365.11" cy="403.58" r="66.87" fx="365.11" fy="403.58"/><radialGradient xlink:href="#u" id="Aa" cx="371.57" cy="453.76" r="59.1" fx="371.57" fy="453.76"/><radialGradient xlink:href="#Df" id="Ab" cx="362.3" cy="445.43" r="38.48" fx="362.3" fy="445.43"><stop offset="0" stop-color="#89e0ff"/><stop offset="1" stop-color="#5599eb"/></radialGradient><radialGradient xlink:href="#j" id="Ac" cx="358.58" cy="447.96" r="29.96" fx="358.58" fy="447.96"/><radialGradient xlink:href="#u" id="Ad" cx="379.22" cy="399.22" r="26.27" fx="379.22" fy="399.22"/><radialGradient xlink:href="#m" id="Ae" cx="379.74" cy="399.22" r="26.27" fx="379.74" fy="399.22"/><radialGradient xlink:href="#AX" id="Af" cx="379.62" cy="402.1" r="22.01" fx="379.62" fy="402.1"/><radialGradient xlink:href="#j" id="Ag" cx="378.64" cy="403.31" r="20.44" fx="378.64" fy="403.31"/><radialGradient xlink:href="#m" id="Ah" cx="380.5" cy="419.96" r="3.95" fx="380.5" fy="419.96" gradientTransform="rotate(.12 363.2981376 405.46495653)"/><radialGradient xlink:href="#u" id="Ai" cx="380.14" cy="420.11" r="4.6" fx="380.14" fy="420.11"/><radialGradient xlink:href="#Df" id="Aj" cx="378.45" cy="402.43" r="21.11" fx="378.45" fy="402.43"><stop offset="0" stop-color="#d6ffe8"/><stop offset="1" stop-color="#92bcff"/></radialGradient><radialGradient xlink:href="#u" id="Ak" cx="342.8" cy="399.33" r="26.24" fx="342.8" fy="399.33"/><radialGradient xlink:href="#m" id="Al" cx="343.31" cy="399.33" r="26.23" fx="343.31" fy="399.33"/><radialGradient xlink:href="#AX" id="Am" cx="343.19" cy="402.21" r="21.98" fx="343.19" fy="402.21"/><radialGradient xlink:href="#j" id="An" cx="342.2" cy="403.41" r="20.41" fx="342.2" fy="403.41"/><radialGradient xlink:href="#m" id="Ao" cx="344.07" cy="420.04" r="3.95" fx="344.07" fy="420.04"/><radialGradient xlink:href="#u" id="Ap" cx="343.7" cy="420.19" r="4.6" fx="343.7" fy="420.19"/><radialGradient xlink:href="#Aj" id="Aq" cx="342.12" cy="402.53" r="21.08" fx="342.12" fy="402.53"/><radialGradient xlink:href="#n" id="Ar" cx="325.11" cy="366.52" r=".06" fx="325.11" fy="366.52"/><radialGradient xlink:href="#m" id="As" cx="368.55" cy="441.9" r="56.77" fx="368.55" fy="441.9"/><radialGradient xlink:href="#u" id="At" cx="318.02" cy="443.15" r="41.51" fx="318.02" fy="443.15"/><radialGradient xlink:href="#i" id="Au" cx="334" cy="374.65" r="23.34" fx="334" fy="374.65"/><radialGradient xlink:href="#j" id="Av" cx="331.87" cy="385.38" r="6.81" fx="331.87" fy="385.38"/><radialGradient xlink:href="#Aj" id="Aw" cx="401.43" cy="-6276.58" r="4.33" fx="401.43" fy="-6276.58" gradientTransform="matrix(1.45 0 0 5.47 -253.21 34768.85)"/><radialGradient xlink:href="#u" id="Ax" cx="403.03" cy="407.81" r="7.45" fx="403.03" fy="407.81" gradientTransform="matrix(1.45 0 0 1 -253.21 0)"/><radialGradient xlink:href="#m" id="Ay" cx="402.05" cy="407.61" r="4.33" fx="402.05" fy="407.61" gradientTransform="matrix(1.45 0 0 1 -253.21 0)"/><radialGradient xlink:href="#j" id="Az" cx="400.05" cy="402.59" r="4.47" fx="400.05" fy="402.59" gradientTransform="matrix(1.45 0 0 1 -253.21 0)"/><radialGradient xlink:href="#m" id="BA" cx="330.06" cy="390.33" fx="330.06" fy="390.33"/><radialGradient xlink:href="#n" id="BB" cx="403.13" cy="401.23" r="9.59" fx="403.13" fy="401.23"/><radialGradient xlink:href="#o" id="BC" cx="404.68" cy="402.28" fx="404.68" fy="402.28"/><radialGradient xlink:href="#o" id="BD" cx="398.18" cy="402.31" r="2.17" fx="398.18" fy="402.31"/><radialGradient xlink:href="#m" id="BE" cx="333.04" cy="386.37" r="4.27" fx="333.04" fy="386.37"/><radialGradient xlink:href="#m" id="BF" cx="336.89" cy="387.94" r="3.55" fx="336.89" fy="387.94"/><radialGradient xlink:href="#m" id="BG" cx="322.39" cy="388.09" r="3.84" fx="322.39" fy="388.09"/><radialGradient xlink:href="#j" id="BH" cx="333.04" cy="395.51" r="1.5" fx="333.04" fy="395.51"/><radialGradient xlink:href="#j" id="BI" cx="483.4" cy="402.65" r="1.4" fx="483.4" fy="402.65" gradientTransform="scale(-1 1) rotate(-3.22 -2.89590774 14772.56695505)"/><radialGradient xlink:href="#n" id="BJ" cx="305.11" cy="378.11" r="19.04" fx="305.11" fy="378.11"/><radialGradient xlink:href="#j" id="BK" cx="305.11" cy="400.73" r="5.4" fx="305.11" fy="400.73"/><radialGradient xlink:href="#m" id="BL" cx="302.64" cy="414.46" r="47.39" fx="302.64" fy="414.46"/><radialGradient xlink:href="#m" id="BM" cx="306.03" cy="401.51" r="3.38" fx="306.03" fy="401.51"/><radialGradient xlink:href="#m" id="BN" cx="309.08" cy="402.76" r="2.81" fx="309.08" fy="402.76"/><radialGradient xlink:href="#m" id="BO" cx="297.57" cy="402.87" r="3.03" fx="297.57" fy="402.87"/><radialGradient xlink:href="#j" id="BP" cx="306" cy="408.74" r="1.18" fx="306" fy="408.74"/><radialGradient xlink:href="#j" id="BQ" cx="507.94" cy="416.74" r="1.11" fx="507.94" fy="416.74" gradientTransform="scale(-1 1) rotate(-3.22 -2.89590774 14772.56695505)"/><radialGradient xlink:href="#i" id="BR" cx="406.45" cy="378.36" r="23" fx="406.45" fy="378.36"/><radialGradient xlink:href="#j" id="BS" cx="403.26" cy="385.15" r="6.89" fx="403.26" fy="385.15"/><radialGradient xlink:href="#Aj" id="BT" cx="453.56" cy="-6276.59" r="4.35" fx="453.56" fy="-6276.59" gradientTransform="matrix(1.45 0 0 5.47 -253.21 34768.85)"/><radialGradient xlink:href="#u" id="BU" cx="453.2" cy="407.65" r="7.54" fx="453.2" fy="407.65" gradientTransform="matrix(1.45 0 0 1 -253.21 0)"/><radialGradient xlink:href="#m" id="BV" cx="452.19" cy="407.46" r="4.43" fx="452.19" fy="407.46" gradientTransform="matrix(1.45 0 0 1 -253.21 0)"/><radialGradient xlink:href="#j" id="BW" cx="449.97" cy="402.43" r="4.51" fx="449.97" fy="402.43" gradientTransform="matrix(1.45 0 0 1 -253.21 0)"/><radialGradient xlink:href="#m" id="BX" cx="402.35" cy="390.12" r="13.9" fx="402.35" fy="390.12"/><radialGradient xlink:href="#n" id="BY" cx="453.2" cy="401.05" r="9.63" fx="453.2" fy="401.05"/><radialGradient xlink:href="#o" id="BZ" cx="454.73" cy="402.12" r="2.17" fx="454.73" fy="402.12"/><radialGradient xlink:href="#o" id="Ba" cx="447.95" cy="402.12" r="2.17" fx="447.95" fy="402.12"/><radialGradient xlink:href="#m" id="Bb" cx="404.51" cy="386.15" r="4.25" fx="404.51" fy="386.15"/><radialGradient xlink:href="#m" id="Bc" cx="408.52" cy="387.74" r="3.54" fx="408.52" fy="387.74"/><radialGradient xlink:href="#m" id="Bd" cx="393.82" cy="387.86" r="3.87" fx="393.82" fy="387.86"/><radialGradient xlink:href="#j" id="Be" cx="405.09" cy="395.33" r="1.5" fx="405.09" fy="395.33"/><radialGradient xlink:href="#j" id="Bf" cx="411.56" cy="398.41" r="1.41" fx="411.56" fy="398.41" gradientTransform="scale(-1 1) rotate(-3.22 -2.89590774 14772.56695505)"/><radialGradient xlink:href="#m" id="Bg" cx="365.35" cy="436.05" r="24.49" fx="365.35" fy="436.05"/><radialGradient xlink:href="#m" id="Bh" cx="368.86" cy="433.64" r="52.05" fx="368.86" fy="433.64"/><radialGradient xlink:href="#u" id="Bi" cx="369.1" cy="438.39" r="46.25" fx="369.1" fy="438.39"/><radialGradient xlink:href="#Df" id="Bj" cx="367.16" cy="472.94" r="19.27" fx="367.16" fy="472.94"><stop offset="0" stop-color="#5240b5"/><stop offset=".99" stop-color="#2a0086"/></radialGradient><radialGradient xlink:href="#j" id="Bk" cx="348.82" cy="293.98" r="31.16" fx="348.82" fy="293.98"/><radialGradient xlink:href="#AS" id="Bl" cx="360.25" cy="340.78" r="31.27" fx="360.25" fy="340.78"/><radialGradient xlink:href="#i" id="Bm" cx="361.29" cy="-3515.05" r="19.17" fx="361.29" fy="-3515.05" gradientTransform="matrix(1 0 0 1.9 0 6978.51)"/><radialGradient xlink:href="#u" id="Bn" cx="360.71" cy="341.26" r="40.32" fx="360.71" fy="341.26"/><radialGradient xlink:href="#m" id="Bo" cx="361.5" cy="341.26" r="40.32" fx="361.5" fy="341.26"/><radialGradient xlink:href="#AX" id="Bp" cx="361.31" cy="345.67" r="33.76" fx="361.31" fy="345.67"/><radialGradient xlink:href="#j" id="Bq" cx="359.82" cy="347.53" r="31.35" fx="359.82" fy="347.53"/><radialGradient xlink:href="#m" id="Br" cx="362.66" cy="373.07" r="6.03" fx="362.66" fy="373.07"/><radialGradient xlink:href="#u" id="Bs" cx="362.09" cy="373.31" r="7.01" fx="362.09" fy="373.31"/><radialGradient xlink:href="#Aj" id="Bt" cx="359.61" cy="346.17" r="32.39" fx="359.61" fy="346.17"/><radialGradient xlink:href="#Df" id="Bu" cx="343.24" cy="-2848.59" r="16.1" fx="343.24" fy="-2848.59" gradientTransform="matrix(1 0 0 1.63 0 4884.41)"><stop offset="0" stop-color="#5379e3"/><stop offset=".99" stop-color="#3221f0"/></radialGradient><radialGradient xlink:href="#j" id="Bv" cx="341.68" cy="259.29" r="5.23" fx="341.68" fy="259.29"/><radialGradient xlink:href="#k" id="Bw" cx="415.09" cy="-6303.75" r="1.8" fx="415.09" fy="-6303.75"/><radialGradient xlink:href="#m" id="Bx" cx="340.3" cy="263.17" r="10.84" fx="340.3" fy="263.17"/><radialGradient xlink:href="#m" id="By" cx="342.57" cy="260.06" r="3.34" fx="342.57" fy="260.06"/><radialGradient xlink:href="#m" id="Bz" cx="345.52" cy="261.27" r="2.78" fx="345.52" fy="261.27"/><radialGradient xlink:href="#m" id="CA" cx="334.41" cy="261.45" r="3" fx="334.41" fy="261.45"/><radialGradient xlink:href="#j" id="CB" cx="368.66" cy="271.03" r="1.1" fx="368.66" fy="271.03" gradientTransform="rotate(.64 549.02351628 -2043.37568466)"/><radialGradient xlink:href="#u" id="CC" cx="341.56" cy="278.34" r="5.68" fx="341.56" fy="278.34"/><radialGradient xlink:href="#m" id="CD" cx="409.4" cy="276.46" r="3.43" fx="409.4" fy="276.46" gradientTransform="matrix(1.45 0 0 1 -253.21 0)"/><radialGradient xlink:href="#m" id="CE" cx="341.64" cy="278.83" r="3.25" fx="341.64" fy="278.83"/><radialGradient xlink:href="#m" id="CF" cx="344.97" cy="280.11" r="3.11" fx="344.97" fy="280.11"/><radialGradient xlink:href="#m" id="CG" cx="333.8" cy="279.78" r="2.92" fx="333.8" fy="279.78"/><radialGradient xlink:href="#m" id="CH" cx="379.43" cy="469.41" r="55.09" fx="379.43" fy="469.41"/><radialGradient xlink:href="#d" id="CI" cx="314.55" cy="460.67" r="25.48" fx="314.55" fy="460.67"/><radialGradient xlink:href="#d" id="CJ" cx="314.55" cy="471.11" r="23.01" fx="314.55" fy="471.11"/><radialGradient xlink:href="#A" id="CK" cx="696.63" cy="565.64" r="23.81" fx="696.63" fy="565.64"/><radialGradient xlink:href="#A" id="CL" cx="708.16" cy="557.92" r="6.33" fx="708.16" fy="557.92"/><radialGradient xlink:href="#A" id="CM" cx="694.44" cy="576.41" r="8.94" fx="694.44" fy="576.41"/><radialGradient xlink:href="#A" id="CN" cx="714.61" cy="565.64" r="15.91" fx="714.61" fy="565.64"/><radialGradient xlink:href="#A" id="CO" cx="738.77" cy="551.75" r="36.56" fx="738.77" fy="551.75"/><radialGradient xlink:href="#A" id="CP" cx="749.35" cy="563.25" r="22.42" fx="749.35" fy="563.25"/><radialGradient xlink:href="#A" id="CQ" cx="758.15" cy="563.67" r="22.65" fx="758.15" fy="563.67"/><radialGradient xlink:href="#A" id="CR" cx="753.49" cy="539.39" r="6.28" fx="753.49" fy="539.39"/><radialGradient xlink:href="#A" id="CS" cx="729.21" cy="564.04" r="21.03" fx="729.21" fy="564.04"/><radialGradient xlink:href="#A" id="CT" cx="746.29" cy="523.34" r="9.38" fx="746.29" fy="523.34"/><radialGradient xlink:href="#A" id="CU" cx="727.01" cy="545.75" r="11.94" fx="727.01" fy="545.75"/><radialGradient xlink:href="#A" id="CV" cx="250.71" cy="545.12" r="5.55" fx="250.71" fy="545.12"/><radialGradient xlink:href="#A" id="CW" cx="239.26" cy="548.67" r="6.59" fx="239.26" fy="548.67"/><radialGradient xlink:href="#A" id="CX" cx="239.26" cy="539.99" r="8.54" fx="239.26" fy="539.99"/><radialGradient xlink:href="#A" id="CY" cx="243.11" cy="536.1" r="2.11" fx="243.11" fy="536.1"/><radialGradient xlink:href="#A" id="CZ" cx="238.43" cy="543.31" r="3.63" fx="238.43" fy="543.31"/><linearGradient xlink:href="#Df" id="Ca" x1="401.86" x2="401.86" y1="534.52" y2="0"><stop offset="0" stop-color="#d6edff"/><stop offset=".12" stop-color="#cde8ff"/><stop offset=".31" stop-color="#b6daff"/><stop offset=".54" stop-color="#91c4ff"/><stop offset=".81" stop-color="#5da5ff"/><stop offset="1" stop-color="#368eff"/></linearGradient><linearGradient xlink:href="#Df" id="Cb" x1="1.86" x2="801.86" y1="408.35" y2="408.35"><stop offset="0" stop-color="#cfeaff"/><stop offset=".3" stop-color="#cdeeff"/><stop offset="1" stop-color="#ccf2ff"/></linearGradient><linearGradient xlink:href="#Cb" id="Cc" x2="672.99" y1="451.73" y2="451.73"/><linearGradient xlink:href="#Df" id="Cd" x1="401.86" x2="401.86" y1="587.58" y2="342.84"><stop offset="0" stop-color="#70a6a4"/><stop offset="1" stop-color="#9ae3be"/></linearGradient><linearGradient xlink:href="#Df" id="Ce" x1="1.86" x2="801.86" y1="438.68" y2="438.68"><stop offset="0" stop-color="#c9ded2"/><stop offset="1" stop-color="#91bcbf"/></linearGradient><linearGradient xlink:href="#Df" id="Cf" x1="38.459" x2="37.446" y1="534.728" y2="513.162"><stop offset="0" stop-color="#259067"/><stop offset=".14" stop-color="#389a64"/><stop offset=".53" stop-color="#6ab55c"/><stop offset=".83" stop-color="#89c557"/><stop offset="1" stop-color="#95cc56"/></linearGradient><linearGradient xlink:href="#Df" id="Cg" x1="38.459" x2="37.807" y1="534.728" y2="520.853"><stop offset="0" stop-color="#d19dae"/><stop offset="1" stop-color="#c0c4d9"/></linearGradient><linearGradient xlink:href="#Cg" id="Ch" x1="58.034" x2="57.338" y1="525.108" y2="515.122"/><linearGradient xlink:href="#Cf" id="Ci" x1="163.42" x2="161.166" y1="517.133" y2="495.651"/><linearGradient xlink:href="#Cg" id="Cj" x1="163.42" x2="161.969" y1="517.133" y2="503.309"/><linearGradient xlink:href="#Cg" id="Ck" x1="182.382" x2="181.112" y1="506.399" y2="496.47"/><linearGradient xlink:href="#Df" id="Cl" x1="20.76" x2="20.76" y1="522.59" y2="490.69" gradientTransform="scale(-1 1) rotate(-5.66 -323.04978294 7501.1881478)"><stop offset="0" stop-color="#479074"/><stop offset=".01" stop-color="#489174"/><stop offset=".47" stop-color="#7ab076"/><stop offset=".81" stop-color="#99c477"/><stop offset="1" stop-color="#a5cc78"/></linearGradient><linearGradient xlink:href="#Cg" id="Cm" x1="-66.5" x2="-66.5" y1="518.64" y2="518.09" gradientTransform="scale(-1 1) rotate(-5.66 -323.04978294 7501.1881478)"/><linearGradient xlink:href="#Cg" id="Cn" x1="15.19" x2="15.19" y1="522.59" y2="502.68" gradientTransform="scale(-1 1) rotate(-5.66 -323.04978294 7501.1881478)"/><linearGradient xlink:href="#Df" id="Co" x1="401.86" x2="401.86" y1="612.04" y2="486.84"><stop offset="0" stop-color="#25906d"/><stop offset="1" stop-color="#c3d667"/></linearGradient><linearGradient xlink:href="#Df" id="Cp" x1="326.76" x2="326.76" y1="597.67" y2="477.36"><stop offset="0" stop-color="#3d7542"/><stop offset="1" stop-color="#629f5e"/></linearGradient><linearGradient xlink:href="#Df" id="Cq" x1="351.98" x2="351.98" y1="481.26" y2="417"><stop offset="0" stop-color="#25616d"/><stop offset="1" stop-color="#4f7563"/></linearGradient><linearGradient xlink:href="#Cq" id="Cr" x1="426.57" x2="426.57" y1="474.94" y2="445.81"/><linearGradient xlink:href="#Df" id="Cs" x1="276.06" x2="276.06" y1="477.36" y2="431.9"><stop offset="0" stop-color="#a9cc68"/><stop offset="1" stop-color="#25906d"/></linearGradient><linearGradient xlink:href="#Cq" id="Ct" x1="267.19" x2="267.19" y1="472.96" y2="456.07"/><linearGradient xlink:href="#Cq" id="Cu" x1="280.62" x2="280.62" y1="456.07" y2="453.11"/><linearGradient xlink:href="#Df" id="Cv" x1="276.22" x2="276.22" y1="597.15" y2="477.36"><stop offset="0" stop-color="#25906d"/><stop offset="1" stop-color="#a9cc68"/></linearGradient><linearGradient xlink:href="#Df" id="Cw" x1="444.09" x2="444.09" y1="597.67" y2="527.96"><stop offset="0" stop-color="#25906d"/><stop offset="1" stop-color="#a9ab6b"/></linearGradient><linearGradient xlink:href="#Df" id="Cx" x1="378.89" x2="378.89" y1="597.67" y2="477.01"><stop offset="0" stop-color="#997b69"/><stop offset="1" stop-color="#945c35"/></linearGradient><linearGradient xlink:href="#Df" id="Cy" x1="248.48" x2="248.48" y1="596.53" y2="572.01"><stop offset="0" stop-color="#48a46d"/><stop offset="1" stop-color="#7cb14d"/></linearGradient><linearGradient xlink:href="#Df" id="Cz" x1="434.7" x2="434.7" y1="522.85" y2="477.13"><stop offset="0" stop-color="#77bb59"/><stop offset="1" stop-color="#a9cc68"/></linearGradient><linearGradient xlink:href="#Cq" id="DA" x1="301.13" x2="301.13" y1="443.99"/><linearGradient xlink:href="#Cv" id="DB" x1="353.63" x2="353.63" y1="477.24" y2="417"/><linearGradient xlink:href="#Df" id="DC" x1="405.01" x2="405.01" y1="537.62" y2="509.37"><stop offset="0" stop-color="#3ca96d"/><stop offset="1" stop-color="#a9cc68"/></linearGradient><linearGradient xlink:href="#DC" id="DD" x1="412.96" x2="554.66" y1="583.9" y2="583.9"/><linearGradient xlink:href="#Df" id="DE" x1="403.48" x2="403.48" y1="477.13" y2="419.9"><stop offset="0" stop-color="#525289"/><stop offset="1" stop-color="#9f7f9e"/></linearGradient><linearGradient xlink:href="#Df" id="DF" x1="430.88" x2="430.88" y1="477.36" y2="445.81"><stop offset="0" stop-color="#a9cc68"/><stop offset="1" stop-color="#77bb59"/></linearGradient><linearGradient xlink:href="#Cq" id="DG" x1="437.64" x2="437.64" y1="474.15" y2="466.61"/><linearGradient xlink:href="#Df" id="DH" x1="351.31" x2="351.31" y1="476.51" y2="436.56"><stop offset="0" stop-color="#cf568b"/><stop offset="1" stop-color="#fff"/></linearGradient><linearGradient xlink:href="#Df" id="DI" x1="353.4" x2="353.4" y1="476.51" y2="232.05"><stop offset="0" stop-color="#191e26"/><stop offset=".12" stop-color="#252c38"/><stop offset=".36" stop-color="#455169"/><stop offset=".71" stop-color="#778db6"/><stop offset="1" stop-color="#a7c5fe"/></linearGradient><linearGradient xlink:href="#DE" id="DJ" x1="316.54" x2="316.54" y1="477.36" y2="443.99"/><linearGradient xlink:href="#DE" id="DK" x1="696.63" x2="696.63" y1="586.49" y2="544.78"/><linearGradient xlink:href="#DE" id="DL" x1="738.77" x2="738.77" y1="593.92" y2="509.58"/><linearGradient xlink:href="#Df" id="DM" x1="525.61" x2="525.61" y1="515.46" y2="412.28"><stop offset="0" stop-color="#2e8655"/><stop offset=".1" stop-color="#46944e"/><stop offset=".26" stop-color="#65a745"/><stop offset=".42" stop-color="#7db63d"/><stop offset=".59" stop-color="#8fc138"/><stop offset=".78" stop-color="#99c735"/><stop offset="1" stop-color="#9dca35"/></linearGradient><linearGradient xlink:href="#Cg" id="DN" x1="476.29" x2="475.899" y1="457.985" y2="449.674"/><linearGradient xlink:href="#Cg" id="DO" x1="517.034" x2="515.014" y1="488.437" y2="445.434"/><linearGradient xlink:href="#Df" id="DP" x1="522.48" x2="522.48" y1="586.17" y2="484.28"><stop offset="0" stop-color="#814c63"/><stop offset=".65" stop-color="#7c4658"/><stop offset="1" stop-color="#7a4351"/></linearGradient><linearGradient xlink:href="#Cg" id="DQ" x1="531.495" x2="530.126" y1="430.164" y2="401.016"/><linearGradient xlink:href="#Cg" id="DR" x1="486.495" x2="486.208" y1="437.183" y2="431.07"/><linearGradient xlink:href="#Cg" id="DS" x1="555.859" x2="555.121" y1="407.085" y2="391.382"/><linearGradient xlink:href="#Cg" id="DT" x1="505.22" x2="504.402" y1="453.462" y2="436.072"/><linearGradient xlink:href="#Df" id="DU" x1="226.71" x2="257.46" y1="497.72" y2="444.47"><stop offset="0" stop-color="#2e8655"/><stop offset=".21" stop-color="#559e3d"/><stop offset=".43" stop-color="#75b12b"/><stop offset=".63" stop-color="#8cbe1d"/><stop offset=".83" stop-color="#9ac715"/><stop offset="1" stop-color="#9fca13"/></linearGradient><linearGradient xlink:href="#Cg" id="DV" x1="274.2" x2="274.2" y1="479.62" y2="474.88"/><linearGradient xlink:href="#Cg" id="DW" x1="251.85" x2="251.85" y1="498.02" y2="473.52"/><linearGradient xlink:href="#DP" id="DX" x1="247.42" x2="247.42" y1="538.26" y2="480.28"/><linearGradient xlink:href="#Cg" id="DY" x1="242.07" x2="242.07" y1="465.28" y2="448.67"/><linearGradient xlink:href="#Cg" id="DZ" x1="267.84" x2="267.84" y1="468.06" y2="464.58"/><linearGradient xlink:href="#Cg" id="Da" x1="213.538" x2="224.716" y1="463.683" y2="463.158"/><linearGradient xlink:href="#Cg" id="Db" x1="227.6" x2="227.6" y1="452.81" y2="443.86"/><linearGradient xlink:href="#Cg" id="Dc" x1="257.63" x2="257.63" y1="477.82" y2="467.91"/><linearGradient xlink:href="#Df" id="Dd" x1="239.26" x2="239.26" y1="548.25" y2="531.72"><stop offset="0" stop-color="#2e2e4d"/><stop offset="1" stop-color="#4e4382"/></linearGradient><linearGradient xlink:href="#DE" id="De" x1="245.37" x2="245.37" y1="548.25" y2="531.72"/><linearGradient id="Df" gradientUnits="userSpaceOnUse"/></defs><path fill="url(#Ca)" d="M1.86 0h800v534.52h-800z"/><path fill="url(#Cb)" d="M1.86 375.36s191.86 2.66 322.33-1.5l-88.4 6.69-104.26 4.78 132 1.38 298.22 8.36 74.44-.96-102.97-4.71-73.53-2.57 254.49-5.14-53.16 3.5-42.83 3.49 183.67-5.28v59.42l-385.67-1.1-219.76-7.34 128.43-6.71h-89.08L7.52 436.5l84.69-7.15H1.86v-54.02Z" style="mix-blend-mode:lighten"/><path fill="url(#Cc)" d="m1.86 450.66 671.13-7.82-360.57 11.41-310.56 6.37v-9.96z" style="mix-blend-mode:lighten"/><path fill="url(#Cd)" d="m1.86 463.85 9 2.76 22.5 37.59h4l10 8.32 12.5-1.21 93.92-66.37 5.08 1.5 34.47-25.68 24.63-8.72 6.62 2.4 27.46 10.42 48.25 21.58 11.67 1.95 140.48 9.9 31.37 13.58 7.1-1.49 34.27-15.7 58.67-102.01 10.35-9.83 65.62 102.97 13.17 21.68 8.34-2.26 18.69-23.52 22.4-15.35 5.29 3.01 74.15-54.01v212.22h-800V463.85z"/><path fill="url(#Ce)" d="m1.86 463.85 3.25 42.19 4.58 4 7.17 4.66.75-22.32.25 14.66 2.67 15.81 11.71-14.31 1.12-4.34 1 4.34 5.75 13.25 3.5 2.12 3.75-11.39 12.5-1.21-5.25 2.23-2.25 10.37h2.75l51.45-14.54 49.47-59.5v-4.27l2.83.84-2.33 7.26-31.66 43.38 67.53-75.63 25.56-9.41-5.52 18.46 3.65 1.4-5.06 13.64 5.5 14.33 10.16 2.17 2.84-14.17 4.97 13.17 5.36.55-9.73-35.3.73-3.79 4.92 10.54 8.25 14.83 28.33 4.01-10.5-15.32-14.67-8.69 4.85.5 10.32 7.73 10 7.89h13.5l-7.68-7.44 22.11 9.89 127.28 10.1L445.88 468l37.93 13.26 7.1-1.72-38.47-21.25 31.37 13.58-.65 2.28 9.08 4.89 14.87 3.49-16.2-12.15 28 12.15 6.28-1.27 12.01-47.48-7.67 51.3 4 12 6.85 2.14v-70.96l43.47-75.59 10.35-9.83-5.67 10.62-22 80.94 4.33 29.45 10.96 12.91 20.71-15.72 9.56-16.1 19.12-12.23 7.09-20.67 16.97 26.64-1.94 1.58-36.58 6.18 15.11-.84 17.14.84-24.14 2.88-8.11 31.94 29.11 17.96 27.13-31.73 8.34-2.26 18.69-23.52-10.49 19.88 17.68-8.48 22.27-16.59-7.06-10.16 5.29 3.01 8.53 8.44-2.07 8.63 58.77-8.73 8.92-37.69v46.97L761.36 470l-19.41 19.36 59.91-17.23v62.39h-800v-70.67z" class="R" style="mix-blend-mode:multiply"/><path fill="#dbd1ff" d="m590.15 361.52 1.34 77.24 6.33-35.76v-13.31l2-9.96 3.17-2.1 5.83 15.87 11.44 19.02-2.63 23.62-12.41 11.06-12.98-3.31 12.98 5.41 3.43-3.23 11.64-7.31v-21.61l1.93-1.67-25.73-53.96 17.72 23.39-1.89 4.4 15.32 32.05-3.32-19.93 1.82-2.15-30.32-48.38-5.67 10.62zm-52.95 72.26-3.13 20.9 6.31 9.17-7.16-3.47 7.16 12.84v-44.96l-3.18 5.52z" class="A"/><path d="m801.86 375.36-59 42.98 22.33-9.14-1.66-4.16 6-5.17 21-9.8-15.34 18.67-2.83 5.7 19.5-5.05 5.67-6.39v-6.83l1.16-.43-3.78 33.63 6.95-29.35v-24.66z" class="X" style="mix-blend-mode:soft-light"/><path fill="#dbd1ff" d="m217.96 412.04-5.52 18.46 3.65 1.4-5.06 13.64 5.5 14.33 10.16 2.17 2.84-14.17-4.95-33.43-6.62-2.4zm12.9 10.46 13.17 25.37-3.92-14.72 2.79-1.25 26.2 15.22-6.74-11.02-15.17-8.23 4.85.5 12.36 9.34h16.22l-2.44-1.16-26.14-11.69-21.18-2.36zm-20.7 29.21 4.59 25.53-2.31-2.3-9.58 29.86-24.75 18.05 16-18.05-16 5.86 32.05-58.95zm-56.38-6.77-7.61 8.63-11.56 18.3 9.58-10.52-9.58 13.59 21.42-25.07v-4.27l-2.25-.66zM10.86 466.61l22.5 37.59-16.33-22.61-2.5-6.65h-2.17l11 19.93 2.5 18.33-8.31-18.98-.69 20.48-11.75-8.66-3.25-42.19 9 2.76zm416.71-10.07 20.43 12.2 35.81 12.52 7.1-1.72-27.8-15.36 8.75 6.94-19.42-10.56 4.98.48-4.98-2.75-24.87-1.75z" class="A"/><g class="a"><path fill="url(#Cf)" d="M76.36 527.77s-7.59 3.43-18.96 4.71-55.28 3.96-55.28 3.96-2.51-5.07-2.07-6.62c.43-1.54 6.09-5.47 8.89-5.38s4 4.1 4 4.1l-1.05.98 3.15.07s-.03-.03-.07-.09c-.3-.4-1.5-2.03-2.24-3.55 0-.02-.02-.03-.02-.05s-.01-.03-.02-.05c-.34-.73-.58-1.42-.55-1.94.08-1.78 5.61-4.91 9.03-4.23s7.5 4.64 8.02 6.74c.11.42.15.86.17 1.28.03 1.28-.26 2.43-.39 2.91 0 .03-.02.06-.03.09 0 .02-.01.05-.02.07 0 .02-.01.05-.02.07l2.96-.06h.17s-.57-.91-.72-2.14c-.06-.38-.06-.79-.01-1.21.24-1.79 4.65-3.21 7.12-3.19 2.45.03 4.38 4.93 4.32 5.61s-1.53 1.68-1.53 1.68l2.74.72s-.28-3.3.64-5.12c0 0 0-.02.01-.03.93-1.81 13.18-13.66 21.37-15.27 0 0 3.08.28 4.42 4.54.29.94.43 1.94.47 2.94.12 3.33-.89 6.56-1 6.95v.03l-.02.01s2.45-2.27 4.11-1.97c.79.15 1.38.94 1.78 1.73a9.36 9.36 0 0 1 .66 1.72z"/><path fill="url(#Cg)" d="M76.36 527.77s-7.59 3.43-18.96 4.71-55.28 3.96-55.28 3.96-2.51-5.07-2.07-6.62c0 0 .18 3.08 1.58 3.87 0 0 8-2.83 11.31-5.15l-1.05.98 3.15.07s-.03-.03-.07-.09c-.32-.38-1.54-1.92-2.24-3.55 0-.02-.02-.03-.02-.05 0-.01-.01-.03-.02-.05.15.1 5.26 3.17 10.86 3.33 5.35.14 5.76-1.3 5.8-1.47.03.14.22 1.17-.39 2.89 0 .03-.02.06-.03.09 0 .02-.01.05-.02.07 0 .02-.01.05-.02.07l2.96-.06s-.55-.94-.56-2.15c.08.06 1.56 1.07 5.6 1.45 4.17.39 5.83-.23 5.83-.23-.06.68-1.53 1.68-1.53 1.68l2.74.72s-.28-3.3.64-5.12c.25.73.71 1.49 1.53 1.72 1.77.51 15.81.2 20.21-3.32 3.01-2.4 4.11-4.88 4.52-6.22.12 3.33-.89 6.56-1 6.95v.03l-.02.01-1.34 1.93s4.54-.43 7.24-2.17a9.36 9.36 0 0 1 .66 1.72z" class="W" style="mix-blend-mode:multiply"/><path fill="url(#Ch)" d="M48.07 525.61s5.17.61 12.26-2.25c7.09-2.87 6.96-8.92 6.96-8.92s-.4 4.05-4.37 6.62-14.1 2.64-14.1 2.64l-.76 1.92z" class="W" style="mix-blend-mode:multiply"/><path fill="url(#Ci)" d="M200.84 507.98s-7.38 3.86-18.65 5.79c-11.28 1.94-54.97 7.13-54.97 7.13s-2.8-4.92-2.45-6.49c.34-1.56 5.77-5.81 8.57-5.88s4.23 3.86 4.23 3.86l-.99 1.04 3.15-.11s-.03-.03-.08-.09c-.32-.38-1.61-1.94-2.44-3.41 0-.02-.02-.03-.02-.04 0-.02-.02-.03-.02-.05-.38-.71-.66-1.38-.66-1.9-.02-1.78 5.32-5.23 8.77-4.74s7.75 4.2 8.39 6.26c.13.42.2.85.24 1.27.11 1.27-.12 2.44-.23 2.93 0 .03-.01.06-.02.09 0 .02 0 .05-.02.08 0 .02 0 .05-.02.07l2.95-.23h.17s-.62-.89-.85-2.1c-.08-.38-.11-.78-.08-1.21.13-1.8 4.46-3.48 6.92-3.59 2.45-.12 4.66 4.67 4.64 5.35s-1.43 1.77-1.43 1.77l2.78.56s-.47-3.28.34-5.15c0 0 0-.02.01-.03.83-1.86 12.37-14.4 20.45-16.48 0 0 3.09.11 4.67 4.28.35.92.54 1.92.63 2.91.31 3.31-.51 6.6-.6 7v.03l-.02.01s2.32-2.41 3.99-2.2c.8.1 1.44.86 1.88 1.62.49.84.75 1.68.75 1.68z"/><path fill="url(#Cj)" d="M200.84 507.98s-7.38 3.86-18.65 5.79c-11.28 1.94-54.97 7.13-54.97 7.13s-2.8-4.92-2.45-6.49c0 0 .36 3.07 1.8 3.77 0 0 7.82-3.29 11-5.79l-.99 1.04 3.15-.11s-.03-.03-.08-.09c-.34-.36-1.65-1.83-2.44-3.41 0-.02-.02-.03-.02-.04s-.02-.03-.02-.04c.16.09 5.44 2.86 11.03 2.7 5.35-.16 5.68-1.63 5.7-1.8.04.14.28 1.16-.23 2.91 0 .03-.01.06-.02.09 0 .02 0 .05-.02.08 0 .02 0 .05-.02.07l2.95-.23s-.6-.91-.68-2.11c.09.06 1.62.97 5.67 1.12 4.18.15 5.81-.57 5.81-.57-.02.68-1.43 1.77-1.43 1.77l2.78.56s-.47-3.28.34-5.15c.29.72.79 1.45 1.63 1.63 1.79.4 15.8-.71 19.99-4.48 2.87-2.57 3.83-5.11 4.16-6.47.31 3.31-.51 6.6-.6 7v.03l-.02.01-1.23 2s4.51-.69 7.1-2.58c.49.84.75 1.68.75 1.68z" class="W" style="mix-blend-mode:multiply"/><path fill="url(#Ck)" d="M172.47 507.46s5.2.32 12.11-2.96c6.91-3.27 6.44-9.31 6.44-9.31s-.16 4.07-3.98 6.86-13.93 3.44-13.93 3.44l-.64 1.96Z" class="W" style="mix-blend-mode:multiply"/><path fill="url(#Cl)" d="m535.66 508.74 14.86 1.4 252.17 25.8 1.36-13.68v-.1l.53-5.35s-15.86 1.42-18.69 4c-2.84 2.57-3.14 5.59-3.14 5.59l3.85 1.53-5.19.44s.11-.53.08-1.23c-.04-.56-.15-1.21-.48-1.8-.75-1.34-12.42-4.16-17.05-3.47-4.32.64-7.12 4.85-7.48 5.41-.01.02-.01.03-.01.04-.02.02-.02.03-.02.03s-5.66-3.1-8.7-3.14c0 0-1.84.33-3.55 1.87-.22.19-.43.4-.64.63l-6.06.99s-3.59-.3-5.13-3.61c0 0 1.97-.44 3.55-2.23a7.33 7.33 0 0 0 1.39-2.36c1.37-3.79-.31-7.27-2.05-7.69s-3.95.87-3.95.87.04-.37.11-.87l.29-1.87s.01-.02.01-.03c.02-.11.04-.21.06-.3.26-1.17-10.9-16.62-20.89-14.31-4.29.99-3.99 9.58-3.2 15.67.42 3.27.98 5.82 1.03 6.08l-.04-.04c-.23-.3-1.28-1.52-3.45-1.96-2.49-.5-10.49.99-11.74 2.64-.21.28-.41.59-.58.92-.9 1.58-1.41 3.46-1.41 3.46l-4.78-.47s-3.56-4.62-7.55-8.16c-2.03-1.8-4.18-3.32-6.03-3.78-5.45-1.37-15.51-2.5-17.67-1.06-.86.57-1.38 1.88-1.69 3.25-.47 2.06-.45 4.28-.45 4.28s-1.67-2.33-2.64-2.8-6.5-.64-8.06.22c-.8.44-1.34 1.22-1.68 1.89-.33.65-.47 1.2-.47 1.2l-11.22.34s1.88-3.57 2.67-6.53c.22-.83.35-1.61.33-2.25-.07-2.93-6.93-8.05-10.86-8.18-3.8-.14-6.58 6.39-6.75 6.8.03-.09.18-.51.4-1.14 0-.02.01-.04.03-.06.01-.03.03-.08.05-.15.73-2.14 2.1-6.25 2.07-7.9-.02-2.29-3.5-8.23-6.94-9.32-3.44-1.1-12.63 3.19-15.25 6.61-.7.92-1.24 2.5-1.65 4.33 0 0-.07.32-.18.92a5.15 5.15 0 0 1-.09.49 14.21 14.21 0 0 0-.14.95c-.02.12-.03.24-.06.36v.02l-.15 1.06c-.09.65-.17 1.38-.25 2.18a34.02 34.02 0 0 0-.1 1.13c-.02.2-.03.4-.05.61 0 .2-.03.41-.04.62-.04.49-.06 1-.09 1.52 0 .19-.02.38-.03.57a7.7 7.7 0 0 1-.02.48v.1c-.02.41-.02.64-.02.64s-.11-.25-.29-.6c-.4-.8-1.18-2.17-1.94-2.41-1.11-.36-8.77-2.56-13.33-.06-1.12.61-1.67 1.39-1.94 1.99-.25.56-.26.97-.26.97l-2.38-.37s-.76-1.86-1.7-3.91c-.95-2.07-2.1-4.34-2.87-5.05-1.52-1.42-14.12.66-17.07 2.47-.86.52-1.51 1.16-2.02 1.8-1.24 1.56-1.56 3.14-1.56 3.14s-2.16-.96-5.52-1.57c-3.37-.61-5.67 1.55-5.67 1.55z"/><path fill="url(#Cm)" d="M756.48 527.31s.06.06.1.09l-.09-.13-.31-.46s-.01.23.29.5Z" class="W" style="mix-blend-mode:multiply"/><path fill="url(#Cn)" d="m546.85 508.76 3.67 1.38 252.17 25.8 1.36-13.68c-.06.62-.56 4-4.25 5.19-4.06 1.32-17.03-1.06-17.03-1.06s-.55.36-1.26.73c-.4.22-.86.45-1.29.61-1.19.45-11.77 1.51-18 1.01-3.62-.28-5.07-.88-5.62-1.32l1.14 1.7s-7.99-.66-11.08-1.54c-1.4-.4-2.1-.99-2.45-1.51-.22.19-.43.4-.64.63l-6.06.99s-3.59-.3-5.13-3.61c0 0 1.97-.44 3.55-2.23-.26-.02-4.65-.37-6.15-3.23-1.55-2.95 1.27-5.79 1.27-5.79l.39-1.03.29-1.87c-.3.76-1.94 2.7-10.76 3.11-6.09.28-10.51-.93-13.26-2.08.42 3.27.98 5.82 1.03 6.08v.02s1.85 1.67 4.12 7.63c0 0-14.65-1.94-19.94-6.1-.9 1.58-1.41 3.46-1.41 3.46l-4.78-.47s-3.56-4.62-7.55-8.16c-.56 1.25-2.61 3.87-10.15 3.22-7.62-.66-13.14-3.55-15.24-4.82-.47 2.06-.45 4.28-.45 4.28l2.3 2.91s-8.46.16-14.42-3.6h-.25c-.33.65-.47 1.19-.47 1.19l-11.22.34s1.88-3.57 2.67-6.53c-4.89.45-13.28.84-19.85-.82l2.97-3.95s.01-.04.03-.06c.01-.03.03-.08.05-.15.43-1.06 2.47-6.27 2.07-7.9 0 0-4.12 5.8-12.29 6.14-8.15.34-11.55-4.52-11.55-4.52s-.07.32-.18.92a5.15 5.15 0 0 1-.09.49 14.21 14.21 0 0 0-.14.95c-.02.12-.03.24-.06.36v.02l-.15 1.06c-.09.65-.17 1.38-.25 2.18a34.02 34.02 0 0 0-.1 1.13c-.02.2-.03.4-.05.61 0 .2-.03.41-.04.62-.04.49-.06 1-.09 1.52 0 .19-.02.38-.03.57 0 .16-.01.32-.02.48v.1s-.11 0-.32.04c-1.94.21-12.27 1.26-15.23.39-.88-.26-1.51-.56-1.97-.87-.25.56-.26.97-.26.97l-2.38-.37s-.76-1.86-1.7-3.91c0 0-2.1 1.95-10.67 1.86-8.55-.08-11.28-2.64-11.28-2.64-1.24 1.56-1.56 3.14-1.56 3.14z" class="W" style="mix-blend-mode:multiply"/></g><path fill="url(#Co)" d="m231.67 486.84-66.81 28.85-141.33 19.55-21.67-.72v77.52h800v-77.52l-220.04-21.78-149.84-24.95-200.31-.95z"/><path fill="url(#A)" d="m231.67 486.84-46.19 39v13.29l46.19 39.08 68.39 9.95-35.81 23.88H1.86l72-17.37 15.5-12.35-87.5 5.26v-8.01l40.54 4.33 74.83-38.66-10.67.1 9.13-2.71 37.51-25.32 11.66-1.62 66.81-28.85z" opacity=".71" style="mix-blend-mode:multiply"/><path fill="url(#B)" d="m577.32 511.99-86.41-11.96 8.4 4.77 57.11 26.55 63.87 14.88-78.28-13.61-11.71.25 65.56 36.26 164.5 16.63 31-8.9-154.32-26.7 125.32 18.42 39.5-7.26v50.72H565.19L470.52 494.2l106.8 17.79z" class="R" style="mix-blend-mode:multiply"/><path fill="url(#C)" d="m42.4 583.9 31.31-.64-71.85 4.32v-8.01l40.54 4.33z" class="R" style="mix-blend-mode:multiply"/><path fill="url(#D)" d="m530.3 532.87-5.38 5.7-14.14-8.67-35.25-32.82 15.38 2.95 65.51 31.32 63.87 14.88-78.28-13.61-11.71.25z" class="R" style="mix-blend-mode:multiply"/><path fill="url(#E)" d="m73.86 594.67-36.08 17.37H1.86l72-17.37z" class="R" style="mix-blend-mode:multiply"/><path d="m490.91 500.03 65.51 31.32 65.44 14.88 86.64 14.35-146.75-30.68-11.39-6.41 45.5 4.47 46.91 4.36-26.02-16.63-34.93-2.95-90.91-12.71zm39.39 32.84 65.56 36.26 143.49 14.51-50.04-13.26-58.8-6.65-8.36-3.71 75.1 9.11 39.88-.55-153.19-18.42-13.08-6.81 63.96 8.99 7.25-1.31-100.06-18.41-11.71.25zm169.72 19.29 65.34 7.08 36.5 2.08v-13.71L649 534.52l8.12 3.36 58.24 12.66-15.34 1.62z" class="B b"/><path fill="url(#F)" d="m117.23 545.24 1.02 32.79 16.36-12.24v-25.66l-18.92 2.5-9.13 2.71 10.67-.1z" class="R" style="mix-blend-mode:multiply"/><path d="m23.53 535.24-21.67 8.11 104.7-17h9.05l-95.25 16.28-2.75 2.61 45.5-1.1-2 1.1 7.5 4.2h40.5l8.12-4.2-10.67.1 9.13-2.71 37.51-25.32-129.67 17.93z" class="B b"/><path fill="url(#Cp)" d="m242.9 477.36-57.42 48.48v13.3l-31.46-8.88-8.43 9.69h-4.49l-44 55.7 459.32 2.02-19.23-45.33-21.73-24.38-9.77-5.11-27.14-23.19-26.11-22.3H242.9z"/><path fill="url(#Cq)" d="m283.57 477.36-8.95-9.87 8.95-11.42h-2.65l28.29-24.17-9.15-14.9 81.3 19.16 27.95 7.93 20.04 37.17-61.84-1.08-83.94-2.82z"/><path fill="url(#Cr)" d="m414.76 445.81 4.58 19.42 9.23 9.71 9.81-.79-4.49-7.54-3.01-5.26-16.12-15.54z"/><path fill="url(#Cs)" d="m283.57 477.36-8.95-9.87 8.95-11.42h-2.65l28.29-24.17-26.25 19.64-40.06 25.82h40.67z"/><path fill="url(#Ct)" d="M274.62 467.49 262.77 470l-11.96 2.96 19.83-6.35 12.93-10.54-8.95 11.42z"/><path fill="url(#Cu)" d="M280.92 456.07h-4.08l1.32-1.44 6.23-1.52-3.47 2.96z"/><path fill="#d3ffae" d="m283.57 456.07-12.93 10.54-18.6 5.68 22.47-14.9 2.33-1.32h6.73z" style="mix-blend-mode:soft-light"/><path fill="url(#Cv)" d="m242.9 477.36-57.42 48.48v13.3l10.51 12.74-10.51-12.74-2.47 11.02 8.08 15.96-16.06-1.02-12.78-6.07-9.05-3.93 7.2 12.38-39.61 12.21 2.5-9.92-16.73 27.38 92.74-1.05 75.32-41.61 77.3-4.33 93.96-28.68-45.24-7.16-10.68-1.58-31.66-4.95h-37.99l37.99-8.56 56.27-7.39 17.41-4.05-75.12-4.13-63.08-2.07 6.56-4.23H242.9z"/><path fill="url(#Cw)" d="m381.36 597.67-75.01-31.88 75.01 27.43 10.82-2.89 29.65-4.33-50.98-27.94 42.11 15.08 34.87 3.72h78.06l14.49-17.02-3.19-7.5-21.73-24.38 66.36 69.71H381.36z"/><path fill="url(#Cx)" d="m351.43 477.13 16.08 3.05 31.78 3.48 32.69 4.13-17.41 4.05-56.27 7.39-37.99 8.56h37.99l73.68 11.37 13.9 2.32-93.96 28.68-77.3 4.33 23.04 42.04 83.7 1.14-75.01-31.88 4.59-3.21 59.91-4.52 112.31-38.59-29.41-3.61-76.08-7.82-25.2-3.24h-11.2l57.14-7.98 28.16-4.59 17.83-6.63-47.77-4.73-34.03-3.86-11.17.12z"/><path fill="url(#Cy)" d="m242.9 572.01-17.03 11.88 3.24 2.23 7.7 1.2-1.69 2.47 26.24 3.02 36.3 3.72-98.36-.43 43.6-24.09z"/><path fill="url(#Cz)" d="m452.44 477.36-88.73-.23 19.91 2.26 60.78 6.21 28.47 15.14-3.24 5.95h-15.88l-29.31-14.12 37.17 21.32-5.79 2.29 27.34 3.29 22.53 3.38-53.25-45.49z"/><path fill="url(#G)" d="m400.61 514.41-42.32-6.62h-37.98l37.98-8.57 56.28-7.39 17.41-4.05-43.48 4.32-94.73-10.52 6.56-4.23h-16.77l-63.52 24.29 21.5-20.38 33.07-13.77-22.57 4.8-9.13 5.06-57.42 48.48v13.3L198.62 552l23.66 24.47-9.72 5.84-24.35 1.95-27.81-16.78-7.2-12.39.83-24.84-8.44 9.69-7.26 18.06-13.59 10.55 16.37-28.61-44.01 55.7h10.38l-.92 1.5 92.73-1.05 75.32-41.61 77.3-4.33 41.1-12.54 52.86-16.13-45.26-7.07Zm-134.97 8.44-49.99 12.39-25.62-5.34 32.2-26.4 56.74-2.37-13.33 21.71Zm117.6-6.74-19.11-6.73 36.21 5.85 5.46.88 32.57 5.52-38.85-3.89-16.28-1.63Z" class="R" style="mix-blend-mode:multiply"/><path fill="url(#H)" d="m388.5 492.11-59.51-6.61-1.53 6.86-2.56-4.57-4.61-3.25-26.52-2.94-28.13 41.26-75.61 18.75-4.55-15.75v13.3l36.79 37.34 9.39 1.74 42.94-23.73 22.22-1.24 3.23-7.6 20.25-37.86 37.98-8.57 31.22-4.1-1.01-3.02Zm-112.44 45.51-27.58 14.72-42.02-7.1 22.1-10.55 14.34-4.79 50.87-7.06-17.72 14.77Zm8.34-16.71h-14.12l4.34-4.6 8.96-5 13.26 1.08-12.44 8.52Zm77.31-26.88-37.2 7.11 13.65-13.35 36.18 3.86-12.63 2.38Z" class="R" style="mix-blend-mode:multiply"/><path fill="url(#I)" d="m212.56 582.31-24.35 1.96-27.81-16.79-39.61 12.21-14.23 17.46 92.74-1.05 32.37-17.89-19.11 4.1z" class="R" style="mix-blend-mode:multiply"/><path fill="url(#J)" d="m361.19 508.24-9.27 41.92 3.19-.97 7.5-40.73-1.42-.22z" class="Y" style="mix-blend-mode:multiply"/><path fill="url(#K)" d="m445.88 521.48-52.86 16.14 6.51-19.89 38.84 3.89-32.56-5.52-5.46-.88.26-.81.03-.08 45.24 7.15z" class="Y" style="mix-blend-mode:multiply"/><path d="m421.83 543.35 34.06-13.45 8.39-.7-9.87 8.41-10.01 5.74h-22.57zm44.48-15.39h-5.82l4.94-1.99 9.12-1.01-5 2.1-2.64.9h-.6z" class="C d"/><path fill="url(#L)" d="m310.94 562.58 32.61 16.8 63.25 2.93 3.54-2.61-39.49-21.64 10.03-3.45 1.22 5.54 29.99 10.23 12.35-10.55-2.61-16.49-5.64-.87 39.71-12.58-32.71 12.91 21.22.54 7.76 24.13 8.33 4.53 30.42 4.85h-43.08l-18.47-1.97-9.91 3.33s11.2 9.48 12.53 9.21 31.97-7.61 31.97-7.61l78.06 4.46-16.13-7.41-46.33-4.85-15.28-42.81-6.86-.89 3.07-.35h5.81l9.67 29.25 7.19 7.71 3.54.2-12.15-40.15 12.15 34.88 25.37 9.13 42.59 5.19-25.24-31.53 52.4 55.04H381.36l-75.01-31.88 4.59-3.2z" class="R" style="mix-blend-mode:multiply"/><path fill="url(#M)" d="m479.55 572.01 3.61-7.1 3.54.21-1.46-4.83 1.46-.45 25.37 9.13 13.76 1.68 11.18 1.36 5 12.26-16.12-7.41-46.34-4.85z" class="R" style="mix-blend-mode:multiply"/><path fill="url(#N)" d="m381.36 597.67-75.01-31.88 4.59-3.21 32.61 16.81 63.26 2.93 5.08 6.52 11.15 8.83h-41.68z" class="R" style="mix-blend-mode:multiply"/><path fill="url(#O)" d="m381.72 554.33.38 5.83 29.99 10.23.87 2.75-42.11-15.08 10.87-3.73z" class="R" style="mix-blend-mode:multiply"/><path fill="url(#P)" d="m452.16 567.48-11.07 5.66h-10.21l-16.12.19 33.07 3.53h43.08l-30.42-4.85-8.33-4.53z" class="R" style="mix-blend-mode:multiply"/><path fill="url(#Q)" d="m248.48 552.34-5.58 19.67-11.23 6.2-9.39-1.74-32.14-32.61-.11-2.27 50.29-12.47 1.56.78-13.32 4.8-22.1 10.54 42.02 7.1z" class="R" style="mix-blend-mode:multiply"/><path fill="url(#R)" d="m270.27 520.91-1.73 5.44 15.77-2.19.09-3.25h-14.13z" class="R" style="mix-blend-mode:multiply"/><path fill="url(#S)" d="m367.51 501.14 6.83 4.56 81.48 10.48 5.79-2.29-7.86-7.2 9.65 4.62 21.7 6.96 16.04.69 4.55 3.89-22.53-3.38-128.54-14.39-13.35-.28 26.24-3.66z" class="R" style="mix-blend-mode:multiply"/><path fill="#d6dbe4" d="m274.61 554.49 22.22 6.83 9.52 4.47 4.59-3.21 59.91-4.52 112.31-38.59-37.28 2.01-93.96 28.68-77.31 4.33z" class="D R"/><path fill="#d6a7c2" d="m285.75 574.8 43.33.65 5.91 2.51-44.02 6.38-5.22-9.54zm8.02 14.65 56.38-5.05 2.58 1.1-58.24 5.25-.72-1.3z" class="E R"/><path fill="#d6dbe4" d="m386.39 511.99 6.63-2.62 51.38 5.76-12.42 4.03-45.59-7.17zm-43.04-4.2 6.14-2.99h-8.22l31.41-4.39-14.39-1.19-37.97 8.57h23.03z" class="D R"/><path fill="#edeff3" d="m379.86 496.39 14.12 1.05 32.59-5.21-11.18-.58-35.53 4.74zm52.12-8.6 12.42-2.19-32.65-3.22-15.12.99 35.35 4.42z" class="R" style="mix-blend-mode:soft-light"/><path d="m515.46 527.96-4.68 1.94-19.87-6.27-7.75-4.16 22.53 3.38 9.77 5.11z" class="C d"/><path fill="#d6a7c2" d="m327.82 571.28 47.93-10.54 5.45 2.99-31.3 5.98 2.02.81 33.44-4.51 1.86.86-52.23 7.93-7.17-3.52zm21.81 8.29 41.51-10.39 1.88 1.03-40.29 9.6-3.1-.24zm-195.85-41.96 15.34-3.09 16.36 4.61-31.7 3.5v-5.02zm-.46 13.62 31.38-8.6-.33 1.48-31.17 10.99.12-3.87z" class="E R"/><path fill="url(#T)" d="m153.2 555.1-14.88 2.92 7.27-18.07 8.43-9.69-.82 24.84z" class="R" style="mix-blend-mode:multiply"/><path fill="url(#U)" d="m396.63 497.44 27.81 14.7 2.94.38-29.99-15.44-.76.36z" class="Y" style="mix-blend-mode:multiply"/><path fill="url(#V)" d="m408.14 495.17 24.55 18.04 2.53.32-24.87-18.66-2.21.3z" class="Y" style="mix-blend-mode:multiply"/><path fill="url(#W)" d="m364.46 546.33 36.79 1.28 8.06-2.76h-39.98l-4.87 1.48z" class="Y" style="mix-blend-mode:multiply"/><path fill="url(#X)" d="M423.04 540.13h-24.63v-2.51l47.47-12.94h22.1l-44.94 15.45z" class="Y" style="mix-blend-mode:multiply"/><path fill="url(#DA)" d="m300.06 417-7.01 26.99 16.16-12.09-9.15-14.9z"/><path fill="url(#DB)" d="m300.06 417 12.36 17.22 28.85 22.83-30.84-22.26 6.21 18.32 35.34 24.13 23.01-.26 32.2.15-12.84-37.6-12.99-3.37-81.3-19.16z"/><path fill="url(#DC)" d="m364.14 509.37 19.11 6.73-18.55-4.11 11.7 15.97 16.62 9.66 52.86-16.14-81.74-12.11z"/><path fill="url(#Y)" d="m364.7 511.99-9.59 37.2 9.35-2.86 11.94-18.37-11.7-15.97z" class="R" style="mix-blend-mode:multiply"/><path fill="url(#DD)" d="m412.96 573.14 6.49 5.08h-2.49l15.28 12.53 28.25-8.43 94.17 12.35-12.65-10.4-16.12-7.41h-80.01l-32.92-3.72z"/><path fill="url(#Z)" d="m460.49 582.32-6.01 15.35h51.21l1.79-9.19-46.99-6.16z" class="R" style="mix-blend-mode:multiply"/><path d="m274.61 559.84 9.79 17.02 13.26 19.67-14.11-.32-12.6-26.02 3.66-10.35z" class="C d"/><path fill="url(#a)" d="m270.95 570.19-46.37 26.02 50.03-36.37-3.66 10.35z" class="R" style="mix-blend-mode:multiply"/><path fill="url(#b)" d="m540.38 559.84-23.78-25.55-2.97-1.89-22.54-1.06-10.04.97 7.98 19.95 13.79 10.31 20.39 2.73-2.41-5.47-.27-9.68-5.95-3.93-8.18-5.25-12.39-.86 9.09 3.22h3.51l8.86 4.22 2.75 2.64 1.72 7.3-.81 5.78-4.71.05-11.15-1.67-13.79-10.14-3.39-14.28 6.58-3.87 20.28.25c.15 0 3.45 2.13 3.45 2.13l12.37 13.59 5.88 4.32 5.74 6.17z" class="R" style="mix-blend-mode:multiply"/><path fill="url(#c)" d="m117.23 596.53 11.09-12.13 15.68-4.83 27.85 4.7 4.87 4.22-10.72 6.1h-23.01l-7.41-3.21 2.74-4.26 4.36-3.65 10.52.8 8.54 2.54-1.31 1.68-3.86-1.88-11.76-1.69-2.16.14-3.52 2.36-1.42 3.31 6.83 3.05 20.89-.27 2.77-1.29 6.08-4.17-.88-1.37-9.05-2.91-20.08-3.51-14.8 4.66-4.26 4.8-2.1 7.03-5.88-.22z" class="R" style="mix-blend-mode:multiply"/><g class="b"><path d="m296.83 553.25 15.59-30.26-7.7 21.86 5.71 1.38 5.74-2.91 1.79 5.87 17.03-16.44 22.27-10.24-5.83 17.62 2.2 4.01 11.07-32.15-9.59 37.2-3.19.97-55.09 3.09z" class="B"/><path d="m242.9 572.01 5.58-19.67 5.91-3.15v13.63h1.96l2.02-.24 2.44-16.82 1.71-.91-1.71 14.99h1.71l3.83-1.41 8.26-5.18 12.89-25.17 2.08-1.73-10.61 21.26v6.72l-4.36.16-31.71 17.52z" class="R" style="mix-blend-mode:soft-light"/><path d="m278.97 554.33 14.8-31.48h-2.33l5.39-10.46-3.78-.76 9.17-29.1 1.7.19-7.09 23.31 2.1 1.76 4.99 7.71-2.55 17.12h3.35l13.75-48.29 1.82.2-9.92 31.58.06 3.05 3.27-.97 6.62-10.4-23.49 45.46-17.86 1.08zm-78.13.38 5.62-9.47 1.51.26-3.57 10.42v.95l8.85-10.48 3.73.63-4.17 9.85 1.09 1.15-.48 9.46 4.46 4.53 16.62-22.03 1.28.21-15.12 24.61-19.82-20.09z" class="V" style="mix-blend-mode:soft-light"/><path d="m362.6 477.01-52.17-42.22 47.87 35.03 12.55.4-63.49-43.04-5.11-7.13 57.72 40.33 10.88.66-15.74-23.23-21.08-12.8 36.82 9.39 18.66 23.19 7.41 18.56-34.32.86z" class="B"/></g><path fill="url(#DE)" d="m431.98 477.13-7.82-17.89-3.16-.76-1.69.76-6.22-18.38h-1.06l-6.05-20.52-2.23-.44-1.45 10.91v12.03l-.57 1.15-1.95-17.45-5.22-2.62-1.88 11.24-1.31.74.93 28.97-.97.81-5.2-23.13-4.82-1.93-3.22-1.09-3.1 37.45 56.99.15z"/><path fill="url(#d)" d="m428.43 476.76-5.83-.76-1.6-17.52-1.69.76-3 5.63h-1.7l-3.52-19.93 2-4.08h-1.06l-5.22 6.21-1.06-.08-2.27-20.63.27-6.46-1.45 10.91v12.03l-.57 1.15v25.32l-2.44 2.98-4.94-32.76.73-13.74-.52-1.87-1.88 11.24 1.86 10.44.91 17.13-2.43 2.14-1.65-28.97.93 28.97-.97.81-1.37 4.04-3.94 2.15-6.44-31.83-1.49-.51-3.1 37.45 38.34.1 18.65.05-3.55-.37z" class="R" style="mix-blend-mode:multiply"/><path fill="url(#e)" d="m411.09 444.94-4.28 2.13v9.19l1.37.97 2.91 19.85h4.2l16.69.05-9.38-1.13-1.6-17.52-1.69.76-3 5.63h-1.7l-3.52-19.93z" class="R" style="mix-blend-mode:multiply"/><path fill="url(#f)" d="m403.48 426.36 2.27 20.63 1.06.08v9.19l-3.8 7.27-1.22 13.52h-3.11l.61-4.76 2.44-2.98v-25.32l.57-1.15v-12.03l1.18-4.45z" class="R" style="mix-blend-mode:multiply"/><path fill="url(#g)" d="m394.35 439.53-.37 2.94.56 3.13.91 17.13 1.47 13.42 1.76.9.61-4.76-4.94-32.76z" class="R" style="mix-blend-mode:multiply"/><path fill="url(#h)" d="m393.02 464.87-1.21 1.74 1.21 9.54-7-.37v-3.91l3.94-2.15 1.37-4.04.97-.81h.72z" class="R" style="mix-blend-mode:multiply"/><g class="e"><path d="m426.62 464.87-5.13-1.02.18 1.97 5.71.79-.76-1.74zm2.47 5.64-7.26-3.02.05.58 7.47 3.05-.26-.61z" class="Y" style="mix-blend-mode:multiply"/><path d="m414.76 445.81-1.8 9.72.9 5.03 2.33-10.54-1.43-4.21zm-7.13-19.85-3.59 5.43 1.26 11.45 5.05-7.68-2.72-9.2zm-12.55 18.41 5.96-6.56.69 6.18-4.44 15.06-2.21-14.68z" class="F R"/></g><path fill="url(#DF)" d="m414.76 445.81 37.68 31.55-43.13-.08 18.07-.66 2.71-3.81 2.83-4.35-2.04-1.85v-5.26l-16.12-15.54z"/><path fill="url(#DG)" d="m432.92 468.46 11.48 5.69-10.51-6.66-3.01-.88 2.04 1.85z"/><path d="m464.28 576.86 43.2 11.62 14.79 1.94-50.02-13.56h-7.97zm18.88 0 71.5 17.81-10.83-8.91-50.55-8.9h-10.12z" class="B b"/><g class="a"><path fill="url(#i)" d="m327.76 313.08-3.81-3.7c-2.51-9.24-4.71-19.54-6.28-32.49-2.24 12.76-4 24.51-7.09 32.48l-2.74 4.27s8.4-5.22 19.92-.57Z"/><path fill="url(#j)" d="M307.85 313.65s9.24-5.62 19.92-.57c0 0-9.37 4.3-19.92.57Z"/><path fill="url(#k)" d="m322.8 337.61-.93 104.13h-16.16l4.49-104.15c6.57-1.76 12.6.01 12.6.01z"/><path fill="url(#l)" d="m322.86 328.58-3-.22-1.1 1.34.64 1.04-.46-3.49-3.89.02-.54 2.75.06-.81.4-.81-2.97.46-.53 3.48 11.04.72.35-4.48z"/><path fill="url(#m)" d="m310.37 334.09.85-19.5s6.35-3.02 11.72-.48l-.44 18.95-12.14 1.03Z"/><path fill="url(#n)" d="m308.45 334.69.63-5.23s1.15-1.61 2.7-2.17l-.08 4.74 2.05-.46.22-5.02s2.37-1.16 5.56-.06l-.11 5.17 2.32.3.48-4.72s1.5.51 2.32 2.02l-.03 5.35s-5.04-3.37-16.05.09Z"/><path fill="url(#o)" d="m322.22 327.23-.94.4-.37 4.22.83.11.48-4.73z"/><path fill="url(#p)" d="m311.78 327.29.89.54-.18 4.02-.79.18.08-4.74z"/><g class="S"><path d="m311.23 314.59-1.93-1.17s9.83-4.27 16.21-.1l-2.56.79s-4.91-2.26-11.72.48Z"/><path d="m309.3 313.41 1.76 5.08.22-4.08-1.98-1zm9.12-1.93-.22 6.5 2.28-6.4-2.06-.1z"/></g><path fill="url(#q)" d="M318.2 317.98h1.29l3.07-5.99s-.87-.28-2.08-.4l-2.28 6.4Z"/><path d="m325.51 313.31-2.65 4.65.09-3.86 2.56-.79z" class="S"/><path fill="url(#r)" d="m322.86 317.96-.02.77 2.94-4.92-.27-.5-2.65 4.65z"/><path fill="url(#s)" d="m309.3 313.41-.22.64 1.94 5.34.04-.9-1.76-5.08z"/><path d="M312.7 326.02s-.01-4.18-.56-4.55c-.54-.37-.88 5.06-.88 5.06l1.44-.51Z" class="S"/><path fill="url(#t)" d="M311.98 326.28s-.24-3.14.49-3.85c0 0 .25 1.77.23 3.59l-.72.26Z"/><path d="m307.85 313.65 2.74-4.27s6.3-3.69 13.36 0l3.81 3.7s-10.32-5.34-19.92.57Z" class="H X"/><path fill="url(#u)" d="m308.43 337 1.69 2.24s6.35-2.6 12.67-.43l1.69-1.58s-5.11-4.03-16.06-.23Z"/><path fill="url(#v)" d="M308.43 337s9.23-3.54 16.06.23l.02-2.63s-6.52-3.93-16.05.09l-.02 2.31Z"/><path d="m308.43 337 1.53 5.69.16-3.45-1.69-2.24zm8.95-1.48-.04 5.93 1.37-5.88-1.33-.05zm7.11 1.71-1.73 6.23.03-4.65 1.7-1.58z" class="S"/><path fill="url(#w)" d="m318.71 335.57 2.28.35-1.76 5.98-1.89-.45 1.37-5.88z"/><path fill="url(#x)" d="m322.76 343.46.01-1.58 1.72-4.65-1.73 6.23z"/><path fill="url(#y)" d="m309.96 342.69-1.53-5.69.45-.16 1.13 4.65-.05 1.2z"/><path d="m308.43 337 1.54 5.69-.02 2.8s7.68-3.86 12.81-.99v-1.03l1.73-6.23s-5-3.81-16.06-.23Z" class="I T U"/><path d="M321.76 396.17s.88-47.91-.71-49.37-2.26 49.27-2.26 49.27l2.96.1z" class="S"/><path fill="#44419f" d="m322.55 364-14.1 13.93-2.74 63.81h16.16l.68-77.74z" class="J V"/><path d="m309.08 314.05 1.94 5.34-.05 1.05s7.5-2.78 11.87-1.71l2.94-4.92 1.98-.73s-9.01-5.31-19.92.57l1.24.4Z" class="I T U"/><path d="M308.72 396.16s.98-47.88 2.62-49.3.34 49.29.34 49.29h-2.97zm4.43-.01s1.5-49.85 3.37-50.69c1.86-.84.85 50.68.85 50.68h-4.21z" class="S"/><path fill="url(#z)" d="M309.54 396.16s.56-43.76 2.21-48.24c0 0 1 16.2-.07 48.23h-2.15Z"/><path fill="url(#AA)" d="M320.94 396.14s1.14-43.77-.34-48.3c0 0-1.63 16.17-1.81 48.22l2.15.07Z"/><path fill="url(#AB)" d="M313.15 396.15s1.69-48.21 3.23-48.25c1.21-.03.46 48.24.46 48.24h-3.69Z"/><path fill="url(#AC)" d="m400.46 326.7-3.87-3.71c-2.63-9.26-4.96-19.6-6.69-32.58-2.09 12.8-3.71 24.57-6.71 32.57l-2.69 4.28s8.36-5.23 19.96-.56Z"/><path fill="url(#AD)" d="M380.5 327.26s9.19-5.63 19.96-.56c0 0-9.34 4.31-19.96.56Z"/><path fill="url(#AE)" d="m395.78 351.29.33 104.43h-16.2l3.24-104.45c6.56-1.76 12.63.02 12.63.02z"/><path fill="url(#AF)" d="m383.29 347.76.62-19.56s6.33-3.03 11.74-.48l-.3 19.97-12.07.06Z"/><g class="S"><path d="m383.91 328.2-1.95-1.18s9.8-4.28 16.25-.09l-2.56.8s-4.95-2.26-11.74.48Z"/><path d="m381.95 327.02 1.83 5.09.17-4.09-2-1zm9.12-1.93-.14 6.52 2.21-6.41-2.07-.11z"/></g><path fill="url(#AG)" d="M390.93 331.61h1.3l3-6.01s-.87-.28-2.09-.41l-2.21 6.41Z"/><path d="m398.2 326.93-2.59 4.65.04-3.86 2.55-.79z" class="S"/><path fill="url(#AH)" d="m395.61 331.58-.01.78 2.88-4.93-.28-.5-2.59 4.65z"/><path fill="url(#AI)" d="m381.95 327.02-.2.64 2 5.36.03-.91-1.83-5.09z"/><path d="M385.52 339.67s-.06-4.19-.61-4.56-.82 5.08-.82 5.08l1.43-.51z" class="S"/><path fill="url(#AJ)" d="M384.8 339.92s-.27-3.15.45-3.86c0 0 .27 1.77.27 3.6l-.72.26Z"/><path d="m380.5 327.26 2.69-4.28s6.27-3.69 13.4.01l3.87 3.71s-10.41-5.36-19.96.56Z" class="H X"/><path fill="url(#AK)" d="m381.37 350.67 1.72 2.24s6.33-2.61 12.7-.42l1.68-1.58s-5.17-4.05-16.1-.24Z"/><path fill="url(#AL)" d="M381.37 350.67s9.21-3.55 16.1.24l-.02-2.64s-6.58-3.95-16.09.08v2.32Z"/><path d="m381.37 350.67 1.61 5.71.11-3.46-1.72-2.25zm8.95-1.47.03 5.95 1.31-5.91-1.34-.04zm7.15 1.72-1.65 6.24-.03-4.66 1.68-1.58z" class="S"/><path fill="url(#AM)" d="m391.66 349.24 2.28.36-1.68 5.99-1.91-.44 1.31-5.91z"/><path fill="url(#AN)" d="m395.82 357.16-.01-1.59 1.66-4.65-1.65 6.24z"/><path fill="url(#AO)" d="m382.98 356.38-1.61-5.71.45-.16 1.19 4.67-.03 1.2z"/><path d="m381.37 350.67 1.61 5.7v2.81s7.66-3.86 12.84-.99v-1.03l1.65-6.25s-5.06-3.83-16.1-.24Zm.38-23.01 2.01 5.35-.03 1.05s7.48-2.78 11.88-1.71l2.88-4.93 1.98-.73s-9.1-5.33-19.96.56l1.25.41Z" class="I T U"/><path fill="url(#AP)" d="m330.84 312.01-3.07.02 8.05-9.62s12.53-22.52 19.42-49.68l-5.86 45.76-5.28 3.87-13.25 9.66Z"/><path fill="url(#AQ)" d="M355.24 252.72s8.82 25.8 17.27 44.36l8.85 6.97-38.6-3.28 2.93-3.27s4.45-17.09 9.55-44.78Z"/><path fill="url(#AR)" d="m381.36 304.05-15.15 9.82-38.44-1.85 14.98-11.25 38.61 3.28z"/><path d="m335.14 315.34-4.3-3.33 13.25-9.67 32.63 1.74-4.13 4.1-27.29-.55-10.16 7.71z" class="S"/><path fill="#817fff" d="m345.52 306.43 27.07 1.75 1.98 52.12-31.69-1.99 2.64-51.88z"/><path d="m332.43 359.18 2.71-43.84 10.38-8.91-1.73 51.8-11.36.95z" class="S"/><path fill="url(#AS)" d="m330.1 457.44 2.23-75.74 52.71-.19 1.19 76.76-56.13-.83z"/><path d="m330.1 457.44-15.71.01 3.01-75.69 14.93-.06-2.23 75.74z" class="S"/><path fill="url(#AT)" d="M380.13 360.65c1.89 9.32 2.64 13.66 7.01 20.86l5.79 2.31-64 .23 3.39-3.26 5.61-22.78 42.19 2.65Z"/><path fill="url(#AU)" d="m311.47 384.1 4.75-3.73c4.35-6.8 5.82-10.41 8.2-19.47l13.52-2.9c-1.16 9.29-3.04 16.11-5.61 22.78l-3.39 3.26-17.48.06Z"/><path fill="url(#AV)" d="m390.27 383.82.01 3.03-5.08 3.5-51.61.17-16.56-.71-2.55-3.94-.34-1.78 16.33-.06 59.8-.21z"/><path fill="url(#AW)" d="m390.28 386.85-58.95-.05-.86-2.77 59.8-.21.01 3.03z"/><path fill="url(#AX)" d="m328.9 457.35-10.33.07-3.05.02c1.93-34.36 8.35-59.52 8.35-59.52.58 1.99 1.1 4.19 1.56 6.52 4.07 20.75 3.46 52.9 3.46 52.9Z"/><path fill="url(#AY)" d="m328.9 457.35-10.33.07c1.34-23.91 4.86-43.35 6.86-52.97 4.07 20.75 3.46 52.9 3.46 52.9Z"/><path d="M345.12 457.63s3.63-45.07 10.94-62.07l4.7-2.8s-7.77 22.65-14.65 64.88h-.99Z" class="S"/><path fill="url(#AZ)" d="M360.76 392.76s11.43 21.82 13.17 65.31l-27.82-.44s4.15-47.81 14.65-64.88Z"/><path fill="url(#Aa)" d="M372.87 458.07s-1.23-40.63-11.72-60.25c0 0-10.13 25.4-13.19 59.81l24.91.44Z"/><path fill="url(#Ab)" d="M371.35 457.9s-.69-43.13-11.32-57.06c0 0-9.43 24.6-12.08 56.79l23.4.27Z"/><path fill="url(#Ac)" d="m365.29 457.91-17.34-.27c1.13-10.88 2.65-20.09 4.08-27.31 2.28-11.51 4.36-17.93 4.36-17.93.94 1.39 1.8 3.25 2.56 5.42 4.85 13.74 6.33 40.09 6.33 40.09Z"/><path fill="#44419f" d="M345.32 380.55 337.94 358l8.72.55-1.34 22z" class="J V"/><path fill="url(#Ad)" d="M381.85 419.83h.47s.63-13.57-3.84-24.86l-.66.57s-4.64 8.51-5.33 25.16l9.36-.86Z"/><path fill="url(#Ae)" d="M382.39 419.82h.47s.19-13.52-4.39-24.86c0 0-4.76 9.08-5.45 25.72l9.36-.86Z"/><path fill="url(#Af)" d="m382.39 420.06-1.44-.04-7.3-.18c.59-11.46 2.77-17.38 3.99-19.85.5-1.02.84-1.45.84-1.45 3.86 8.72 3.91 21.53 3.91 21.53Z"/><path fill="url(#Ag)" d="m380.95 420.03-7.3-.18c.59-11.46 2.77-17.38 3.99-19.85 3.16 8.32 3.31 19.3 3.31 20.03Z"/></g><path fill="url(#Ah)" d="M373.65 419.83h10.03v.84h-10.03z" transform="rotate(359.88 367.223 406.23)"/><g class="a"><path fill="url(#Ai)" d="m383.69 420.66-1.3.79-9.9-.09v-.67l1.16-.85v.85l10.04-.03z"/><path fill="url(#Aj)" d="M376.57 402.59s1.42 3.18.84 17.25h.17s.33-13.74 1.75-17.25l-1.13-3.61s-1.05 1.82-1.63 3.62Z"/><path fill="url(#Ak)" d="M345.42 419.9h.47s.71-13.56-3.7-24.83l-.66.57s-4.69 8.5-5.48 25.12l9.36-.86Z"/><path fill="url(#Al)" d="M345.96 419.9h.47s.27-13.5-4.24-24.83c0 0-4.81 9.07-5.6 25.69l9.36-.86Z"/><path fill="url(#Am)" d="m345.96 420.14-1.44-.04-7.3-.18c.66-11.45 2.87-17.35 4.11-19.82.51-1.02.85-1.45.85-1.45 3.81 8.7 3.78 21.5 3.78 21.5Z"/><path fill="url(#An)" d="m344.52 420.11-7.3-.18c.66-11.45 2.87-17.35 4.11-19.82 3.11 8.31 3.19 19.27 3.19 20.01Z"/><path fill="url(#Ao)" d="M337.22 419.92v.84l10.03-.02v-.84l-10.03.02z"/><path fill="url(#Ap)" d="m347.25 420.74-1.3.79-9.9-.09v-.68l1.17-.84v.84l10.03-.02z"/><path fill="url(#Aq)" d="M340.24 402.69s1.4 3.17.74 17.22h.17s.41-13.72 1.85-17.23l-1.11-3.6s-1.06 1.82-1.65 3.61Z"/><path d="m390.28 386.85-5.08 3.5.01 2.33-53.5 4.84-15.14 5.37.46-13.08-2.55-3.94-.34-1.78 16.33-.06.86 2.77 58.95.05z" class="I T U"/><path fill="url(#Ar)" d="M325.14 366.51s-.06.03-.09.05.06-.04.09-.05Z"/><path fill="url(#As)" d="m302.53 437.03 97.48-1.98.25 41.16-99.97.2 2.24-39.38z"/><path fill="url(#At)" d="m326.26 436.55-1.12 39.67-24.85.19 2.24-39.38 23.73-.48z"/><path fill="url(#Au)" d="m340.11 386.8-3.87-3.71c-2.56-9.25-4.81-19.57-6.43-32.52-2.24 12.76-3.99 24.51-7.1 32.48l-2.76 4.27s8.5-5.2 20.16-.51Z"/><path fill="url(#Av)" d="M319.94 387.32s9.34-5.6 20.16-.51c0 0-9.48 4.28-20.16.51Z"/><path fill="url(#Aw)" d="m331.64 412.92-.07 2.43-1.41 60.92-7.79-.04 1.99-57.22.29-6.08s.02 0 .06-.03c4.19-1.74 6.82-.06 6.93 0Z"/><path fill="url(#Ax)" d="m336.11 407.95-.39 3.29c-3.96.5-4.08 1.68-4.08 1.68-3.62-1.14-6.48-.18-6.93 0l-.06.03c-1.07-1.62-4.05-2.26-4.05-2.26l.02-2.31 1.3-.41.32-.09.31-.09h.02l.44-.12c7.93-2.02 12.66.09 13.07.29.02 0 .03.01.03.01z"/><path fill="url(#Ay)" d="M320.59 410.68s6.95-2.44 15.13.56l.39-3.29s-6.46-2.69-15.5.41l-.02 2.32Z"/><path fill="url(#Az)" d="m335.17 402.29-3.03-.22-1.11 1.33.65 1.04-.47-3.48-3.94.01-.54 2.74.06-.81.4-.81-3 .45-.54 3.49 11.19.74.33-4.48z"/><path fill="url(#BA)" d="m322.55 407.77.82-19.51s6.43-3.01 11.87-.45l-.4 18.96-12.29 1Z"/><path fill="url(#BB)" d="m320.6 408.36.63-5.23s1.16-1.61 2.73-2.16l-.07 4.74 2.07-.46.21-5.02s2.83-1.02 6.06.09l-.53 5.04 2.35.31.48-4.72s1.38.42 1.79 1.94l-.21 5.07s-6.95-2.27-15.5.41Z"/><path fill="url(#BC)" d="m334.53 400.95-.95.39-.37 4.22.84.11.48-4.72z"/><path fill="url(#BD)" d="m323.96 400.98.9.54-.18 4.02-.79.18.07-4.74z"/><path d="M335.71 411.24c-3.96.5-4.08 1.68-4.08 1.68l-.07 2.43c-3.29.8-6.08 2.77-7.21 3.67l.29-6.08c-1.07-1.62-4.05-2.26-4.05-2.26 6.48-1.61 11.77-.48 13.99.18.01 0 .03 0 .04.01.04.01.08.02.11.04.48.14.8.26.92.31.01 0 .03.01.04.02h.02Z" class="I T U"/><g class="S"><path d="m323.37 388.26-1.96-1.18s9.94-4.25 16.41-.06l-2.59.79s-4.98-2.27-11.87.45Z"/><path d="m321.41 387.08 1.8 5.08.21-4.08-2.01-1zm9.23-1.9-.21 6.5 2.3-6.39-2.09-.11z"/></g><path fill="url(#BE)" d="M330.43 391.68h1.31l3.09-5.98s-.88-.28-2.1-.41l-2.3 6.39Z"/><path d="m337.83 387.03-2.67 4.64.08-3.86 2.59-.78z" class="S"/><path fill="url(#BF)" d="m335.16 391.67-.02.77 2.96-4.91-.27-.5-2.67 4.64z"/><path fill="url(#BG)" d="m321.41 387.08-.21.64 1.97 5.35.04-.91-1.8-5.08z"/><path d="M332.59 397.26s.27-4.46.88-4.81c.61-.36.64 5.45.64 5.45l-1.52-.64Z" class="S"/><path fill="url(#BH)" d="M333.35 397.58s.45-3.33-.29-4.14c0 0-.38 1.87-.47 3.81l.76.32Z"/><path d="M324.89 399.71s-.02-4.18-.57-4.55-.88 5.06-.88 5.06l1.45-.51z" class="S"/><path fill="url(#BI)" d="M324.16 399.96s-.25-3.14.49-3.85c0 0 .26 1.77.24 3.6l-.73.25Z"/><path d="m321.2 387.72 1.97 5.34-.04 1.05s7.59-2.76 12.01-1.68l2.96-4.92 2.01-.72s-9.14-5.34-20.16.51l1.25.41Z" class="I T U"/><path d="m319.94 387.32 2.76-4.27s6.37-3.67 13.53.04l3.87 3.71s-10.46-5.37-20.16.51Z" class="H X"/><path fill="url(#BJ)" d="m311.64 401.86-3.06-2.94c-2.18-7.33-3.45-15.5-4.99-25.72-1.54 10.02-3.46 17.69-5.75 25.68l-2.21 3.37s6.76-4.11 16-.4Z"/><path fill="url(#BK)" d="M295.64 402.26s7.43-4.42 16-.4c0 0-7.54 3.38-16 .4Z"/><path fill="url(#BL)" d="m295.19 476.51 3.16-73.51s5.11-2.37 9.42-.35l-1.52 73.73-11.06.13Z"/><g class="S"><path d="m298.36 403-1.55-.93s7.9-3.35 13.02-.04l-2.06.62s-3.94-1.8-9.42.35Z"/><path d="m296.81 402.07 1.41 4.02.18-3.23-1.59-.79zm7.33-1.5-.19 5.14 1.84-5.05-1.66-.09z"/></g><path fill="url(#BM)" d="M303.95 405.71h1.04l2.47-4.73s-.69-.22-1.67-.33l-1.84 5.05Z"/><path d="m309.83 402.03-2.13 3.67.08-3.04 2.05-.63z" class="S"/><path fill="url(#BN)" d="m307.7 405.7-.02.62 2.37-3.89-.22-.4-2.13 3.67z"/><path fill="url(#BO)" d="m296.81 402.07-.17.51 1.54 4.23.04-.72-1.41-4.02z"/><path d="M305.64 410.13s.23-3.52.72-3.81c.48-.28.49 4.31.49 4.31l-1.2-.51Z" class="S"/><path fill="url(#BP)" d="M306.24 410.38s.37-2.64-.22-3.27c0 0-.31 1.48-.38 3.02l.6.25Z"/><path d="M299.52 412.06s0-3.31-.44-3.6c-.43-.29-.72 4-.72 4l1.15-.4Z" class="S"/><path fill="url(#BQ)" d="M298.95 412.26s-.18-2.49.4-3.04c0 0 .2 1.4.18 2.84l-.58.2Z"/><path d="m296.64 402.58 1.55 4.23-.04.83s6.03-2.18 9.54-1.32l2.37-3.89 1.59-.57s-7.23-4.23-16 .4l.99.32Z" class="I T U"/><path d="m295.64 402.26 2.21-3.37s5.07-2.9 10.74.04l3.06 2.94s-8.28-4.25-16 .4Z" class="H X"/><path d="m310.05 402.43 1.59-.57-3.06-2.94c-2.1-7.36-3.59-15.58-4.99-25.72-1.9 10.03-3.41 18.78-5.75 25.68l-2.21 3.37c.3.11.61.2.91.3l.08.03 1.55 4.23-.04.83s.02 0 .06-.02l-3.01 68.9 11.06-.13 1.43-70.07 2.36-3.88zm-14.26-.26.56-.28a14.55 14.55 0 0 0-.61.31c.02 0 .03-.02.05-.03z" class="I T U"/><path fill="url(#BR)" d="m411.61 386.6-4.19-3.73c-3.52-9.14-6.42-19.94-8.55-32.63-1.15 12.25-2.47 23.36-5.14 32.56l-2.57 4.27s8.31-5.2 20.45-.47Z"/><path fill="url(#BS)" d="M391.16 387.07s9.14-5.6 20.45-.47c0 0-9.35 4.27-20.45.47Z"/><path fill="url(#BT)" d="m404.72 412.79.08 2.44 2.63 61.11-9.52-.09-.41-57.38-.06-6.1s.02 0 .06-.02c4.26-1.73 7.1-.04 7.21.03Z"/><path fill="url(#BU)" d="m409.03 407.82-.18 3.3c-4.08.48-4.12 1.67-4.12 1.67-3.84-1.15-6.76-.2-7.21-.03-.04.02-.06.02-.06.02-1.21-1.63-4.34-2.28-4.34-2.28l-.11-2.32 1.32-.41.32-.09.32-.09h.02l.45-.11c8.08-2 13.12.14 13.56.33.02 0 .03.01.03.01z"/><path fill="url(#BV)" d="M393.1 410.5s7.07-2.42 15.75.62l.18-3.3s-6.87-2.72-16.04.36l.11 2.32Z"/><path fill="url(#BW)" d="m407.67 402.14-3.15-.24-1.05 1.34.74 1.04-.72-3.5h-4.05l-.39 2.76.01-.82.36-.81-3.06.44-.35 3.5 11.62.78.04-4.49z"/><path fill="url(#BX)" d="m394.97 407.59-.27-19.56s6.34-3 12.04-.42l.89 19.03-12.66.96Z"/><path fill="url(#BY)" d="m392.99 408.18.36-5.24s1.11-1.61 2.69-2.16l.2 4.75 2.12-.45-.09-5.03s2.85-1.01 6.24.11l-.22 5.05 2.45.32.17-4.74s1.45.42 1.98 1.95l.13 5.08s-7.35-2.3-16.04.36Z"/><path fill="url(#BZ)" d="m406.91 400.78-.95.4-.1 4.23.88.11.17-4.74z"/><path fill="url(#Ba)" d="m396.04 400.78.95.55.06 4.03-.81.17-.2-4.75z"/><path d="M408.85 411.12c-4.08.48-4.12 1.67-4.12 1.67l.08 2.44c-3.38.79-6.17 2.76-7.3 3.65l-.06-6.1c-1.21-1.63-4.34-2.28-4.34-2.28 6.63-1.6 12.19-.44 14.54.24.01 0 .03 0 .04.01.04.01.08.02.12.04.51.15.85.27.97.32.01 0 .03.01.04.02h.02Z" class="I T U"/><g class="S"><path d="m394.7 388.03-2.06-1.19s9.82-4.24 16.67-.02l-2.58.78s-5.21-2.29-12.04.42Z"/><path d="m392.64 386.84 2.12 5.1-.02-4.09-2.1-1.01zm9.25-1.89.21 6.52 1.92-6.41-2.13-.12z"/></g><path fill="url(#Bb)" d="M402.1 391.48h1.34l2.75-5.99s-.91-.28-2.16-.42l-1.92 6.41Z"/><path d="m409.31 386.82-2.39 4.65-.18-3.86 2.57-.79z" class="S"/><path fill="url(#Bc)" d="m406.92 391.47.03.78 2.68-4.92-.32-.51-2.39 4.65z"/><path fill="url(#Bd)" d="m392.64 386.84-.18.64 2.31 5.37-.01-.91-2.12-5.1z"/><path d="M404.67 397.08s-.02-4.47.58-4.83 1.02 5.48 1.02 5.48l-1.6-.65z" class="S"/><path fill="url(#Be)" d="M405.47 397.4s.24-3.34-.58-4.15c0 0-.26 1.87-.22 3.83l.8.32Z"/><path d="M396.91 399.51s-.27-4.2-.86-4.57c-.58-.37-.61 5.07-.61 5.07l1.46-.51Z" class="S"/><path fill="url(#Bf)" d="M396.18 399.76s-.44-3.15.28-3.86c0 0 .37 1.77.45 3.61l-.73.25Z"/><path d="m392.46 387.48 2.31 5.36.02 1.06s7.58-2.75 12.17-1.65l2.67-4.93 1.99-.72s-9.62-5.38-20.45.47l1.3.41Z" class="I T U"/><path d="m391.16 387.07 2.57-4.27s6.22-3.67 13.69.07l4.19 3.73s-10.96-5.41-20.45.47Z" class="H X"/><path fill="url(#Bg)" d="m399.25 433.44.62 3.08-2.21 2.29-66.82.09.03-5.7 68.38.24z"/><g class="U"><path d="m399.87 436.52-69.02.6-.01 1.78 66.82-.09 2.21-2.29z" class="I T"/><path d="m399.87 436.52-2.2 4.21-66.92.98.1-4.59 69.02-.6z" class="I T"/></g><path fill="url(#DH)" d="m397.91 476.26-.15-25.54-4.79-.02-.24 15.91-1.16 3.15.62-14.05-10.49-3.5-1.78 4.23.03 9.51 1.81 2.49v1.65l-1.8 1.16-5.14 1.66-.59-9.42-15.55-8.81-7.55 2.72-3.19 6.1 2.33 7.26-2.35 3.31.01-7.94-5.96-2.62-3.9 3.45-3.27 4.63.06 2.48-2.98-.16.85-11.41-1.99-11.74-.69 15.38-3.98 3.31-2.1.33-1.21-6.26.7-26.89-2.55-.07-2.54 19.93-4.04 9.32-4.19 5.13-1.22-1.65-.76-8.43-1.56 1.65-2.34 5.95-3.92 3.14-4.85-1.98-.3 6.89 112.24-.16-.41-13.56-2.42 5.14-4.3.83-2.39 7.5z" class="Y" style="mix-blend-mode:multiply"/><path d="m366.4 425.18-2.82 1.56s-3.1 3.57-4.2 6.56h.89s-3.64 20.28-3.92 43.01l.89-.04s3.68-42.48 9.16-51.1Z" class="S"/><path fill="url(#Bh)" d="M374.25 476.04s.6-35.79-7.85-50.86c0 0-8.23 16.13-9.16 51.1l17.01-.24Z"/><path fill="url(#Bi)" d="M358.99 476.21s1.03-31.99 7.36-45.34c0 0 7.38 16.87 7.44 45.41l-14.8-.07Z"/><path fill="url(#Bj)" d="M365.39 433.15s6.88 15.11 6.93 42.86l-13.33.2s1.03-28.96 6.4-43.06Z"/><path d="m381.36 304.05-8.85-6.96-26.83.41-2.93 3.27 38.61 3.28z" class="H X"/><path fill="url(#Bk)" d="m357.44 300.98.02-23c-5.55 20.2-9.92 38.57-15.27 51.74l-4.15 4.4 4.62.69 5.08-5.83 23.61 1.65-2.34 3.58 7.79-3.87-12.77-4.16-6.58-25.19Z"/><path fill="url(#Bl)" d="m345.32 380.55 25.23-.09L369 334.2l-20.77-1.51-2.91 47.86z"/><g class="S"><path d="m345.32 380.55-2.44-22.24 1.63-21.19 3.72-4.43-2.91 47.86z"/><path d="m344.51 337.12-1.86-2.31 5.08-5.83 23.6 1.65-2.33 3.57-20.77-1.51-3.72 4.43z"/></g><path fill="url(#Bm)" d="m376.78 330.34-6.49-4.56c-5.41-14.68-9.52-29.52-12.85-47.79-3.07 18.32-6.09 35.17-8.78 46.77l-1.63 2.98 29.75 2.6Z"/><path fill="url(#Bn)" d="M364.71 372.86h.72s1.01-20.83-5.74-38.14l-1 .87s-7.1 13.08-8.24 38.62l14.26-1.35Z"/><path fill="url(#Bo)" d="M365.53 372.85h.72s.35-20.75-6.57-38.14c0 0-7.28 13.95-8.42 39.48l14.26-1.35Z"/><path fill="url(#Bp)" d="m365.53 373.22-2.19-.05-11.12-.26c.96-17.59 4.31-26.67 6.18-30.47.77-1.56 1.29-2.24 1.29-2.24 5.84 13.36 5.85 33.02 5.85 33.02Z"/><path fill="url(#Bq)" d="m363.34 373.17-11.12-.26c.96-17.59 4.31-26.67 6.18-30.47 4.78 12.76 4.94 29.6 4.95 30.73Z"/><path fill="url(#Br)" d="M352.22 372.91v1.29l15.29-.06v-1.29l-15.29.06z"/><path fill="url(#Bs)" d="m367.51 374.14-1.98 1.22-15.09-.12v-1.03l1.78-1.3v1.29l15.29-.06z"/><path fill="url(#Bt)" d="M356.75 346.43s2.14 4.87 1.19 26.46h.27s.57-21.08 2.74-26.48l-1.7-5.53s-1.61 2.8-2.5 5.55Z"/><path d="m348.67 324.75 21.63 1.02 6.48 4.57-29.75-2.61 1.64-2.98z" class="H X"/><path d="M371.33 330.63 369 334.2v.89l-21.19 4.47-3.72 2.95.42-5.39-1.86-2.31 5.08-5.83 23.6 1.65z" class="I T U"/><path fill="url(#Bu)" d="m347.98 260.37-2.97-2.89c-1.97-7.23-3.71-15.29-4.96-25.43-1.7 10-3.03 19.19-5.4 25.44l-2.11 3.35s6.5-4.1 15.44-.48Z"/><path fill="url(#Bv)" d="M332.54 260.85s7.15-4.42 15.44-.48c0 0-7.26 3.39-15.44.48Z"/><path fill="url(#Bw)" d="m344.2 279.58-.05 9.15-6.67 13.58-4.02 3.23.99-25.95c5.08-1.39 9.76-.01 9.76-.01z"/><path fill="url(#Bx)" d="m334.56 276.85.6-15.27s4.92-2.38 9.09-.39l-.36 15.6-9.33.07Z"/><g class="S"><path d="m335.17 261.57-1.5-.92s7.61-3.36 12.57-.11l-1.98.63s-3.82-1.76-9.09.39Z"/><path d="m333.66 260.66 1.39 3.97.15-3.2-1.54-.77zm7.07-1.53-.15 5.09 1.75-5.01-1.6-.08z"/></g><path fill="url(#By)" d="M340.58 264.22h1l2.36-4.7s-.67-.22-1.61-.31l-1.75 5.01Z"/><path d="m346.24 260.55-2.04 3.64.05-3.01 1.99-.63z" class="S"/><path fill="url(#Bz)" d="m344.2 264.19-.02.61 2.27-3.86-.21-.39-2.04 3.64z"/><path fill="url(#CA)" d="m333.66 260.66-.16.5 1.52 4.18.03-.71-1.39-3.97z"/><path d="M342.49 270.11s.22-3.27.66-3.52c.44-.26.43 4 .43 4l-1.09-.48Z" class="S"/><path fill="url(#CB)" d="M343.03 270.35s.34-2.44-.19-3.03c0 0-.28 1.37-.35 2.79l.54.24Z"/><path d="m332.54 260.85 2.11-3.35s4.88-2.9 10.36-.02l2.97 2.89s-8.02-4.17-15.44.48Z" class="H X"/><path fill="url(#CC)" d="m333.06 279.13 1.32 1.75s4.91-2.05 9.82-.36l1.31-1.24s-3.97-3.15-12.44-.15Z"/><path fill="url(#CD)" d="M333.06 279.13s7.14-2.79 12.44.15v-2.06s-5.06-3.07-12.43.1v1.81Z"/><path d="m333.06 279.13 1.21 4.45.11-2.7-1.32-1.75zm6.94-1.17-.02 4.64 1.05-4.61-1.03-.03zm5.51 1.32-1.32 4.88.01-3.64 1.31-1.24z" class="S"/><path fill="url(#CE)" d="m341.03 277.99 1.76.27-1.34 4.68-1.47-.34 1.05-4.61z"/><path fill="url(#CF)" d="M344.19 284.16v-1.24l1.32-3.64-1.32 4.88z"/><path fill="url(#CG)" d="m334.27 283.58-1.21-4.45.36-.13.88 3.64-.03.94z"/><path d="m333.06 279.13 1.21 4.45v2.19s5.92-3.03 9.91-.8v-.81l1.32-4.88s-3.88-2.98-12.44-.15Zm.44-17.97 1.52 4.17-.03.82s5.81-2.19 9.2-1.36l2.26-3.86 1.54-.57s-7-4.14-15.44.48l.96.31Z" class="I T U"/><path fill="url(#DI)" d="m409.63 387.33.05-.02 1.93-.7-4.19-3.73c-3.52-9.14-6.42-19.94-8.55-32.63-.79 8.46-1.67 16.38-3.02 23.5l-.05-15.55h.02v-1.03l1.65-6.25-.02-2.64s-.75-.45-2.1-.89l.22-15.03h.02l2.88-4.93h.01c1.25-.4 1.96-.73 1.96-.73l-3.87-3.71c-2.63-9.26-4.96-19.6-6.69-32.58-2.09 12.8-3.71 24.57-6.71 32.57l-2.69 4.28c.38.13.76.26 1.14.37l.11.03 2 5.35-.46 14.62c-.63.21-1.27.44-1.93.72v2.32s.58-.22 1.56-.5l-1.09.34-.45.15 1.61 5.7-.47 14.83c-.86-2.97-1.5-6.22-2.38-10.55l-10.27-.65 4.71.3-1.08-28.33 3.29-1.63-3.45-2.42-.69-18.22 8.71-5.64-8.85-6.97c-8.45-18.56-17.27-44.36-17.27-44.36-3.1 12.2-7.33 23.45-11.05 32.16v-.72l1.32-4.88v-2.06s-.57-.34-1.61-.68l.27-11.74h.01l2.26-3.86c.97-.32 1.53-.57 1.53-.57l-2.97-2.89c-1.97-7.23-3.71-15.29-4.96-25.43-1.7 10-3.03 19.19-5.4 25.44l-2.11 3.35.88.29.08.03 1.52 4.17-.45 11.42a21.24 21.24 0 0 0-1.49.56v1.81s.5-.2 1.33-.43c-.32.09-.65.2-.98.31s-.35.11-.35.11l1.2 4.43-.8 21.65-5.7 6.81 3.3.16 4.07 3.16-2.71 43.84-1.35.29c-.46-2.83-.88-5.79-1.27-8.9l-1.65 9.53-3.74.8c-.67 2.57-1.28 4.69-1.89 6.58l.21-22.99h.02v-1.03l1.73-6.23.02-2.63s-.46-.27-1.3-.6c.87.32 1.3.6 1.3.6l.03-5.35c-.54-1.01-1.39-1.56-1.89-1.82l.2-8.69 2.94-4.92h.01c1.25-.4 1.97-.73 1.97-.73l-3.81-3.7c-2.51-9.24-4.71-19.54-6.28-32.49-2.24 12.76-4 24.51-7.09 32.48l-2.74 4.27 1.13.37.11.03 1.94 5.33-.37 8.52c-.94.68-1.56 1.55-1.56 1.55l-.63 5.23-.02 2.31s.58-.22 1.55-.5l-1.09.34-.46.15 1.53 5.68-2.28 52.85a143.08 143.08 0 0 1-1.48-6.57c-.93-4.73-1.72-9.91-2.6-15.76l-2.96 15.17c-.86 3.59-1.79 7.02-2.79 10.51l-2.21 3.37c.3.11.61.2.91.3l.09.03 1.55 4.23-.04.83h.01l-2.67 61.99-.29 6.89 112.23-.17-.41-13.55-.16.33-2.06-47.89-.08-2.44s.04-1.19 4.12-1.67l.18-3.3-.13-5.08c-.34-.98-1.06-1.5-1.53-1.76l-.41-8.73 2.67-4.93zm-113.6 14.72.06-.03-.35.18c.02 0 .03-.02.05-.03.06-.03.13-.07.22-.12h.01zm46.85-43.75h-.05.05zm37.81-31.15c.15-.08.38-.21.7-.36a16.82 16.82 0 0 0-.76.4l.06-.03zm-48-66.39c.11-.06.29-.16.54-.28-.28.14-.48.25-.59.31.02 0 .03-.02.05-.03zm-24.65 52.78c.15-.08.38-.21.7-.36l-.76.39c.02-.01.04-.02.06-.04zm89.57 119.89h-1.56l-.07-21.86c.57.32 1.11.72 1.47 1.21l.06 6.1.1 14.55z" style="mix-blend-mode:screen"/><path fill="url(#CH)" d="m406.04 468 4.93 1.6 3.68 3.62h3.23l6.48 3.29H282.73l5.4-4.25 8.36-1.38.33 3.51 11 1.88 8.97.05 5.04-4.06 5.96-.57 2.21 1.35 3.72 2.16 24.95-.36 4.05.22 19.83-.13 14.42-.81 9.07-6.12z"/><g class="U"><path d="m410.97 469.6-2.87 2.53-10.28 2.53 16.83-1.44-3.68-3.62zm6.91 3.62-20.77 3.05-6.38-1.53-16.97.25-8.46 1.39 59.06.13-6.48-3.29zm-96.05-.96-1.6 2.61h8.97l8.83 1.59-21.24-.14 5.04-4.06zm-33.7 0 6 2.61 8.36 1.64h-19.76l5.4-4.25z" class="I T"/></g></g><path fill="url(#DJ)" d="m282.61 477.36 18.66-25.49 2.49 1.8v5.66l1.77-4.2 4.42-11.14 1.9 3 1.78 22.94 2.05-3.32 12.21.81 22.59 9.71-67.87.23z"/><path fill="url(#CI)" d="m328.82 472.29-13.14-5.69-2.05 3.32-4.52 4.22-3.72.09-1.63-9.37 5.71-18.43 1.37-1.03-.9-1.42-6.18 15.34-10.91 14.03 3.27-12.8 5.13-8.68-18.66 25.48 63.88-.22-17.67-4.84Zm-13.01-3.18 12.66 3.94 9.99 3.46-20.64-1.57-3.27-4.91 1.26-.91Zm-3.72 7.64-.63-.98.45-.84 4.63.42 7.01 1.15-11.47.24Z" class="R" style="mix-blend-mode:multiply"/><path fill="#c095ac" d="m315.68 466.61 13.14 5.68 17.67 4.84h3.99l-22.59-9.71-12.21-.81z" style="mix-blend-mode:soft-light"/><path fill="url(#CJ)" d="m328.82 472.29-.35.76 9.99 3.46-20.64-1.57-1.28.42 7.02 1.15-11.48.25-.62-.98-2.35-1.63-8.12 1.7 4.41-1.61-1.63-9.37-7.88 7-3.03 1.49-10.25 4 63.88-.23-17.67-4.84z" class="W" style="mix-blend-mode:multiply"/><path d="m317.72 467.49-.72 2 1.65.51.92-1.71-1.85-.8zm2.33 2.95 1.88-1.13 2.45 1.07-2.12.74-2.21-.68z" class="W e" style="mix-blend-mode:multiply"/><path fill="#c39ab0" d="m296.45 468.74 9.29-10.25 3.74-12.05-.77.63-4.94 12.26-7.32 9.41zm-.32-8.18-5.65 6.05 10.79-14.73-5.14 8.68z" class="W" style="mix-blend-mode:multiply"/><path fill="#b888a2" d="m305.4 474.24-4.41 1.61-.73 1.51h-7.44l12.58-3.12z" class="R" style="mix-blend-mode:multiply"/><path d="m312.42 454.25-7.6 7.22-1.05 3.4.62 3.59 8.36-9.22-.33-4.99zm-5.93 1.82 5.47-7.68-.11-1.4-4.35 5.84-1.01 3.24z" class="F R e"/><path fill="url(#DK)" d="m723.06 586.49-1.34-36.36-4.04-5.35-19.55 6.43-27.35 24.04-.58 11.24h52.86z"/><path fill="url(#CK)" d="m717.68 544.78-5.98 18.47-4.26 5.58-10.48 3.42 5.11-5.92-13.17 8.21-18.12.71-.58 11.24h52.86v-35.21l-5.38-6.5z" class="V" style="mix-blend-mode:multiply"/><path fill="url(#CL)" d="m703.09 565.29 8.61-10.31 1.53-4.44-10.14 14.75z" class="V" style="mix-blend-mode:multiply"/><path fill="url(#CM)" d="m686.81 586.49 2.09-11.95 13.17-8.21-5.11 5.92 1.69 14.24h-11.84z" class="V" style="mix-blend-mode:multiply"/><path fill="url(#CN)" d="m707.44 568.83-1.27 17.66h16.89v-35.21l-5.38-6.5-5.98 18.47-4.26 5.58z" class="V" style="mix-blend-mode:multiply"/><path d="m698.13 551.21 13.66 1.44-.72 1.03-14.44.27-2.19.95 15.17.91-.38.56-17.39.36 6.29-5.52zm-13.73 12.07 21.77-2.46-1.05 1.53-22.14 2.17 1.42-1.24z" class="K R f"/><path d="m676.18 570.5 20.45-.58-7.73 4.62-18.12.71 5.4-4.75z" class="L g"/><path fill="url(#DL)" d="m710.71 586.59-1.85-11.7 20.75-52.42 4.9-3.85 15.35-9.04 10.21 23.83 8.62 53.75-21.08 6.76-36.9-7.33z"/><path fill="url(#CO)" d="m755.47 555.09-10.19 5.64-1.33-5.27 10.56-16.87 5.56-5.17-10.22-23.83 3.32 11.97-1.66 13.07-9.4 21.93-2.3 1.26 2.3-13.28.61-6.98-15.82 38.13-10.35 10.95-4.09-9.06 7.45-30.63-11.06 27.93 1.85 11.7 36.9 7.33 21.08-6.75-8.62-53.75-4.6 21.67Zm-15.76 20.61-7.66 1.6v-2.91l9.83-15.98-2.17 17.29Z" class="V" style="mix-blend-mode:multiply"/><path fill="url(#CP)" d="m760.07 533.41-8.55 1.22-4.6 10.74-4.8 11.19-3.5 35.57 4.81.96-1.01-31.85 1.54-5.79 10.56-16.87 5.55-5.17z" class="R" style="mix-blend-mode:multiply"/><path fill="url(#CQ)" d="m760.07 533.41-2.13 10.23-10.33 50.28 21.08-6.76-8.62-53.75z" class="R" style="mix-blend-mode:multiply"/><path fill="url(#CR)" d="m754.52 538.58-7.6 6.79 4.6-10.74 8.55-1.22-5.55 5.17z" class="R" style="mix-blend-mode:multiply"/><path fill="url(#CS)" d="m739.81 557.82-9.06 17.87-.23 14.83-14.84-2.94 11.23-11.89 15.82-38.13-.61 6.98-2.31 13.28z" class="R" style="mix-blend-mode:multiply"/><path fill="url(#CT)" d="m742.73 536.11 1.53-12.4 5.6-13.14-7.13 25.54z" class="V" style="mix-blend-mode:multiply"/><g class="f"><path d="m744.26 523.71-14.65-1.24 4.9-3.85 15.35-9.04 3.32 11.98h-3.57l.25-10.99-5.6 13.14z" class="K R"/><path d="m745.29 529.52 6.23 5.11.3-2.36-6.1-3.87-.43 1.12zm-2.65 36.7 8.52 10.4.28-1.34-8.8-10.17v1.11zm-.18-4.03 9.79 9.23.23-1.2-10.06-8.98.04.95z" class="M W"/><path d="m753.18 521.56 2.72 2.11-6.04-14.09 3.32 11.98z" class="K R"/><path d="m748.78 547.75 7.12 4.36 1.73-7.97-4.14-3.92-4.71 7.53z" class="M W"/></g><path d="m726.98 529.12 14.41 11.66 1.34-3.22-15.13-10.02-.62 1.58zm17.45.9 6.21 6.65-1.03 2.41-5.6-7.56.42-1.5z" class="L g"/><path fill="url(#CU)" d="m722.91 539.39 6.79-8.08 1.56 1.27 4.51 8.69v4.89l-5.43 10.79-9.12 3.25-2.97-.57 2.77-12.45 5.99-7.14h2l3.04 2.2-1.3 8.23-2.36.93h-3.48l.24-.46 1.83.14 2.77-2 1.34-3.71.31-2.85-2.69-2.07-1.7.33-5.02 5.89-1.42 5.44-.73 5.97 1.46 1.04 6.87-1.73 1.92-.92 5.07-11.1-.07-3.65-5.34-6.22-1.81-.4-4.37 5.12-1.77 1.98 1.11-2.81z" class="R" style="mix-blend-mode:multiply"/><g class="a"><path fill="url(#CV)" d="m253.8 538.26-.8 11.67-4.52 2.41-.86-14.43 6.18.35z" class="R" style="mix-blend-mode:multiply"/><path fill="url(#CW)" d="M248.08 545.63h-17.63l.55 3.55 13.8 2.54 3.28-6.09z" class="R" style="mix-blend-mode:multiply"/><path fill="url(#DM)" d="M510.85 510.76s-7.84 4.98-16.59 2.75c0 0-4.29-3.03-6.67-9.27 0 0-12.03-.12-17.26-4.58 0 0-4.83-5.47-1.81-16.54h4.42s-3.62-11.63-2.41-27.03c0 0 7.84-3.33 12.67-3.54 4.83-.2 7.64 4.15 7.64 4.15l-1.66 2.92 7.09-2.53s-11.47-6.05-12.07-9.16 1.81-14.28 6.84-18.5 24.96-3.42 29.77 0c0 0 9.9-10.66 18.02-13.68s35.34-4.83 40.84-2.21c5.49 2.61.59 32.38-4.4 39.42 0 0 4.95.3 6.82 1.66s2.36 17.25 0 32.23-6.82 14.25-6.82 14.25-12.12 14.36-19.76 14.36-18.8-5.84-18.8-5.84-2.57 5.53-6.75 5.78-18.52-2.29-19.11-4.64z"/><path fill="url(#DN)" d="M472.94 483.12s-.98-3.14-1.75-8.32c3.17 3.75 8.47 8.27 8.47 8.27l-6.72.05Z" class="c" style="mix-blend-mode:multiply"/><path fill="url(#DO)" d="m551.87 490.33 9.99-.51s-5.45 9.76-6.27 14.4c-.81 4.64 1.5 11.07 1.5 11.07-.54.11-1.05.17-1.56.17-7.65 0-18.81-5.83-18.81-5.83s-2.57 5.54-6.74 5.78c-4.18.26-18.52-2.29-19.12-4.64 0 0-7.84 4.99-16.58 2.76 0 0-4.29-3.04-6.68-9.28 0 0-12.02-.11-17.26-4.58 0 0-3.75-4.24-2.59-12.82-.13 2.32.25 5.59 2.27 9.36 0 0 5.11 1.74 8.71 1.4 3.6-.36 15.97-2.93 17.62-4.84 1.65-1.9 2-6.42 2-6.42s6.23.28 12.81-.38c3.29-.34 12.79-12.92 14.45-13.56-1.76 2.88-4.5 10.68-4.5 10.68s2.78 11.39 3.71 13.47c.93 2.1 5.22 5.1 12.3 6.15s14.74-1.27 14.74-1.27 2.44-5.93 0-11.09z" class="c" style="mix-blend-mode:multiply"/><path fill="url(#DP)" d="M513.25 584.88s5.42-14.1 5.16-19.45l-.88-26.74 2.93-25.02s-3.94-7.68-4.7-13.17-2.51-15.63-2.51-15.63l.75-.6s1.57 13.51 2.2 16.23 4.48 9.03 5.37 9.47 5.19-3.22 6.46-4.23c1.26-1.01 1.06-5.52 1.06-5.52l.93.6s-.35 3.02-1.56 4.92c-.99 1.55-5.8 5.3-5.8 5.3s.75 2.27.88 3.03c0 0 5.21-1.59 6.54-3.58s2.68-8.79 2.68-8.79l.95.28s-2.35 5.62-3.3 9.13l-.57 1.23s-3.65.9-6.25 3.6l-2.26 22.75c-.26 3.88 5.18 26.74 5.68 29.01s1.27 17.48 1.27 17.48l-2.4.2s-.25-2.4-.76-2.59-3.35 2.8-3.35 2.8l-10.49.56s1.69-.63 1.98-1.29z"/><path fill="url(#DQ)" d="M484.21 447.93s9.53 1.63 15.26.86 17.49-6.81 19.2-9.6c1.7-2.79.91-10.45.91-10.45l1.25.69s.76 6.05 0 10.38c0 0 28.49 6.5 41.03 6.97 12.54.46 17.69-5.25 17.69-5.25s-2.3 8.48-4.26 11.43c0 0-15.65 2.8-17.94 4.97 0 0-14.81-5.88-23.18-6.66-8.37-.77-37.88 5.83-37.88 5.83s-10.14-5.84-12.07-9.16z" class="R" style="mix-blend-mode:multiply"/><path fill="url(#DR)" d="m490.85 456.7-8.53 6.12 6.87-3.2 1.66-2.92z" class="R" style="mix-blend-mode:multiply"/><g class="Z"><path d="M521.11 483.07s2.31-7.04 4.5-10.29 15.78-4.01 20.21-2.39 6.05 19.94 6.05 19.94 1.62 5.82 0 11.09c0 0-18.11 4.02-27.05-4.88l-3.71-13.47z" class="N R"/><path d="M582.09 454.62s-7.23 4.64-11.41 16.43l-6.84 20.13s5.67 8.61 12.87 9.42c0 0 10.53-12.22 5.38-45.99zm-61.27-25.19v10.38s28.33 7.78 41.96 6.99c13.63-.8 16.76-5.28 16.76-5.28s5.41-20.97.13-27.98c0 0-24.69-3.43-40.84 2.21 0 0-9.36 3.91-18.02 13.68z" class="O" opacity=".76"/></g><path fill="url(#DS)" d="M551.4 420.29s-8.79 6.51-8.79 12.28c0 4.52 23.04 4.14 29.35 1.36 0 0-13.01.73-22.58-.98-4.99-.89-4.83-1.8-4.83-1.8s.57-4.69 6.84-10.86Z" class="R" style="mix-blend-mode:multiply"/><path fill="url(#DT)" d="M496.24 463.87s-7.77 5.53-8.53 9.71c0 0 8.72 4.93 18.19 4.4s15.05-10.45 15.2-12.53-10.25-2.9-10.25-2.9 9.73.67 11.63 2.48c0 0-4.7 13.82-16.45 14.83s-19.45-5.38-19.45-5.38.44-5.3 9.66-10.61z" class="R" style="mix-blend-mode:multiply"/><path d="M487.72 473.58s11.04 6.47 21.4 3.84c10.37-2.63 11.96-11.5 11.7-12.59s-9.73-3.23-18.83-2.28c-9.09.94-13.99 9.52-14.27 11.03z" class="N R Z"/><path fill="#b56d48" d="M520.25 515.46s1.57 1.81 1.66 3.52l-2.18 21.32c0 .67 3.47 13.17 3.47 13.17l-3.47-6.44s3.69 12.03 4.83 19.89-11.32 17.97-11.32 17.97 4.99-13.37 5.17-18.89-1.11-19.52-.89-27.3 2.72-23.24 2.72-23.24z"/><path fill="url(#DU)" d="M254.04 495.35s4.46 2.84 9.44 1.57c0 0 2.44-1.73 3.79-5.27 0 0 6.85-.07 9.82-2.61 0 0 2.75-3.12 1.03-9.41h-2.52s2.06-6.62 1.37-15.39c0 0-4.46-1.9-7.21-2.01s-4.35 2.36-4.35 2.36l.94 1.66-4.03-1.44s6.53-3.44 6.87-5.22c.34-1.77-1.03-8.13-3.89-10.53s-14.2-1.95-16.94 0c0 0-5.63-6.07-10.25-7.78-4.62-1.72-20.11-2.75-23.24-1.26s-.34 18.43 2.5 22.43c0 0-2.82.17-3.88.94s-1.34 9.82 0 18.34c1.34 8.53 3.88 8.11 3.88 8.11s6.9 8.17 11.25 8.17 10.7-3.32 10.7-3.32 1.47 3.15 3.84 3.29 10.54-1.31 10.88-2.64z"/><path fill="url(#DV)" d="M275.61 479.62s.56-1.79 1-4.74c-1.81 2.13-4.82 4.71-4.82 4.71l3.82.03Z" class="c" style="mix-blend-mode:multiply"/><path fill="url(#DW)" d="m230.69 483.72-5.68-.29s3.1 5.55 3.57 8.2c.46 2.64-.85 6.3-.85 6.3.31.06.6.1.89.1 4.35 0 10.71-3.32 10.71-3.32s1.46 3.15 3.84 3.29c2.38.15 10.54-1.3 10.88-2.64 0 0 4.46 2.84 9.44 1.57 0 0 2.44-1.73 3.8-5.28 0 0 6.84-.06 9.82-2.61 0 0 2.13-2.41 1.47-7.3.08 1.32-.14 3.18-1.29 5.33 0 0-2.91.99-4.96.8-2.05-.2-9.09-1.67-10.03-2.75s-1.14-3.65-1.14-3.65-3.54.16-7.29-.22c-1.87-.19-7.28-7.35-8.22-7.72 1 1.64 2.56 6.08 2.56 6.08s-1.58 6.48-2.11 7.66c-.53 1.19-2.97 2.9-7 3.5s-8.39-.73-8.39-.73-1.39-3.38 0-6.31z" class="c" style="mix-blend-mode:multiply"/><path fill="url(#DX)" d="M252.67 537.53s-3.08-8.02-2.94-11.07c.08-1.65.65-13.97.5-15.22L248.56 497s2.24-4.37 2.68-7.5c.43-3.13 1.43-8.89 1.43-8.89l-.43-.34s-.89 7.69-1.25 9.24-2.55 5.14-3.06 5.39-2.96-1.83-3.68-2.41-.6-3.14-.6-3.14l-.53.34s.2 1.72.89 2.8c.57.88 3.3 3.02 3.3 3.02s-.43 1.29-.5 1.73c0 0-2.97-.91-3.72-2.04s-1.52-5-1.52-5l-.54.16s1.34 3.2 1.88 5.2l.32.7s2.08.51 3.56 2.05l1.28 12.95c.14 2.2-2.95 15.22-3.23 16.51s-.72 9.95-.72 9.95l1.37.12s.14-1.37.43-1.47c.29-.11 1.91 1.6 1.91 1.6l5.97.32s-.96-.36-1.13-.73z"/><path fill="url(#DY)" d="M269.2 459.59s-5.42.93-8.68.49-9.96-3.88-10.92-5.46-.52-5.95-.52-5.95l-.71.39s-.43 3.44 0 5.91c0 0-16.22 3.7-23.35 3.96-7.14.26-10.06-2.99-10.06-2.99s1.31 4.83 2.43 6.51c0 0 8.91 1.59 10.21 2.83 0 0 8.43-3.35 13.19-3.79s21.56 3.32 21.56 3.32 5.77-3.33 6.87-5.22z" class="R" style="mix-blend-mode:multiply"/><path fill="url(#DZ)" d="m265.42 464.58 4.85 3.48-3.91-1.82-.94-1.66z" class="R" style="mix-blend-mode:multiply"/><path d="M248.2 479.59s-1.31-4-2.56-5.85-8.98-2.28-11.5-1.36-3.44 11.35-3.44 11.35-.92 3.31 0 6.31c0 0 10.3 2.29 15.39-2.78l2.11-7.66z" class="N R Z"/><path fill="url(#Da)" d="M213.49 463.4s4.12 2.64 6.5 9.35l3.89 11.46s-3.23 4.9-7.33 5.36c0 0-5.99-6.96-3.06-26.17z" class="R" style="mix-blend-mode:multiply"/><path d="M248.36 449.06v5.91s-16.13 4.43-23.88 3.98-9.54-3-9.54-3-3.08-11.94-.08-15.93c0 0 14.05-1.95 23.24 1.26 0 0 5.33 2.23 10.25 7.78z" class="O Z" opacity=".76"/><path fill="url(#Db)" d="M230.96 443.86s5 3.7 5 6.99c0 2.57-13.11 2.35-16.7.77 0 0 7.4.41 12.85-.56 2.84-.51 2.75-1.02 2.75-1.02s-.32-2.67-3.89-6.18Z" class="R" style="mix-blend-mode:multiply"/><path fill="url(#Dc)" d="M262.35 468.66s4.42 3.15 4.85 5.53c0 0-4.96 2.81-10.35 2.51s-8.57-5.95-8.65-7.13c-.08-1.19 5.83-1.65 5.83-1.65s-5.54.38-6.62 1.41c0 0 2.68 7.86 9.36 8.44 6.69.58 11.07-3.06 11.07-3.06s-.25-3.02-5.5-6.04z" class="R" style="mix-blend-mode:multiply"/><path d="M267.2 474.19s-6.28 3.68-12.18 2.19-6.81-6.55-6.66-7.17 5.54-1.84 10.72-1.3 7.96 5.42 8.12 6.28z" class="N R Z"/><path fill="#b56d48" d="M248.69 498.02s-.89 1.03-.95 2l1.24 12.13c0 .38-1.98 7.49-1.98 7.49l1.98-3.66s-2.1 6.85-2.75 11.32 6.44 10.22 6.44 10.22-2.84-7.61-2.94-10.75.63-11.11.51-15.53c-.13-4.43-1.55-13.22-1.55-13.22z"/></g><path fill="#e0ce55" d="M108.61 497.08s-2.26 9.62 8.62 11.16c0 0-5.62-4.37-8.62-11.16Z"/><path fill="#c9c674" d="M476.83 413.3s-2.26 9.62 8.62 11.16c0 0-5.62-4.37-8.62-11.16Zm-419.37 6.61s9.07 3.92 12.51-6.52c0 0-5.29 4.76-12.51 6.52Z"/><path fill="#e0ce55" d="M156.03 489.28s15.3-4.22 20.69-13.48c0 0-1.77 14.97-20.69 13.48Zm403.18-12.59s15.3-4.22 20.69-13.48c0 0-1.77 14.97-20.69 13.48Zm5.98 85.59s-.94-5.8 8.74-5.27c0 0-8.16 2.26-8.74 5.27Zm18.75-43.12s8.92-1.97 10.17-10.92c0 0-8.34 10.05-10.17 10.92Zm-266.26 7.21s6.49-1.43 7.4-7.94c0 0-6.07 7.3-7.4 7.94Zm-161.65-29.29s-2 4.54 2.67 5.58c0 0-2.33-2.37-2.67-5.58Zm83.95 38.7s-2 4.54 2.67 5.58c0 0-2.33-2.37-2.67-5.58ZM85.86 572.06s9 1.7 16-8.32c0 0-13.33 8.34-16 8.32Z"/><path fill="url(#Dd)" d="m248.08 545.63-.45-12.13-1.35-1.78-6.52 2.14-9.12 8.02-.19 3.75 12.2 2.62 5.43-2.62z"/><path fill="url(#CX)" d="m246.28 531.72-1.99 6.16-1.42 1.86-3.5 1.14 1.71-1.97-4.4 2.74-6.04.23-.19 3.75 12.2 2.62 5.43-2.62-.45-12.13-1.35-1.78z" class="V" style="mix-blend-mode:multiply"/><path fill="url(#CY)" d="m241.42 538.56 2.87-3.44.51-1.48-3.38 4.92z" class="V" style="mix-blend-mode:multiply"/><path fill="url(#CZ)" d="m235.79 546.78.89-5.13 4.4-2.74-1.71 1.97.81 6.84-4.39-.94z" class="V" style="mix-blend-mode:multiply"/><path fill="url(#De)" d="m242.87 539.74-.22 8.51 5.43-2.62-.45-12.13-1.35-1.78-1.99 6.16-1.42 1.86z"/><path d="m239.76 533.86 4.56.48-.24.35-4.82.09-.73.31 5.06.31-.13.19-5.79.12 2.09-1.85zm-4.58 4.03 7.26-.82-.35.51-7.38.72.47-.41z" class="K R f"/><path d="m232.44 540.3 6.82-.2-2.58 1.55-6.04.23 1.8-1.58z" class="L g"/></svg>