<svg xmlns="http://www.w3.org/2000/svg" xmlns:xlink="http://www.w3.org/1999/xlink" viewBox="0 0 1000 489.77"><style>.F,.G,.I{mix-blend-mode:multiply}.C{mix-blend-mode:soft-light}.K{opacity:.7}.L{opacity:.76}.M{fill-rule:evenodd}.N{fill:#91006f}.O{fill:#3a3371}.P{fill:#79190d}</style><defs><linearGradient xlink:href="#Ai" id="A" x1="497.75" x2="501.74" y1="-.48" y2="340.14"><stop offset="0" stop-color="#4862b1"/><stop offset=".33" stop-color="#73acd3"/><stop offset=".6" stop-color="#94e4ed"/><stop offset=".73" stop-color="#a1faf8"/><stop offset=".79" stop-color="#aeeeee"/><stop offset=".89" stop-color="#d1ced4"/><stop offset="1" stop-color="#ffa6b3"/></linearGradient><linearGradient xlink:href="#Ai" id="B" x1="321.112" x2="322.799" y1="266.887" y2="71.008"><stop offset="0" stop-color="#353683"/><stop offset=".65" stop-color="#6d3cd7"/><stop offset="1" stop-color="#883fff"/></linearGradient><linearGradient xlink:href="#B" id="C" x1="1058.051" x2="559.892" y1="97.669" y2="160.56"/><linearGradient xlink:href="#Ai" id="D" x1="489.86" x2="489.86" y1="146.92" y2="283.14"><stop offset="0" stop-color="#e7eae1"/><stop offset=".45" stop-color="#e5e8e1"/><stop offset=".6" stop-color="#dee3e2"/><stop offset=".72" stop-color="#d2d9e4"/><stop offset=".81" stop-color="#c1cbe7"/><stop offset=".89" stop-color="#abbaeb"/><stop offset=".96" stop-color="#91a4f0"/><stop offset="1" stop-color="#7b93f5"/></linearGradient><linearGradient xlink:href="#Ai" id="E" x1="700.15" x2="694.92" y1="61.63" y2="322.2"><stop offset="0" stop-color="#1919a2"/><stop offset="1" stop-color="#fff"/></linearGradient><linearGradient xlink:href="#E" id="F" x1="812.16" x2="811.21" y1="190.02" y2="191.31"/><linearGradient xlink:href="#E" id="G" x1="717.09" x2="657.19" y1="102.36" y2="253.86"/><linearGradient xlink:href="#E" id="H" x1="733.28" x2="683.9" y1="141.88" y2="266.75"/><linearGradient xlink:href="#E" id="I" x1="811.37" x2="811.36" y1="191.55" y2="190.72"/><linearGradient xlink:href="#E" id="J" x1="890.36" x2="829.93" y1="-79.41" y2="431.92"/><linearGradient xlink:href="#E" id="K" x1="267.15" x2="289.93" y1="55.87" y2="401.93"/><linearGradient xlink:href="#E" id="L" x1="384.84" x2="507.09" y1="-34.15" y2="419.59"/><linearGradient xlink:href="#E" id="M" x1="593.21" x2="592.05" y1="39.58" y2="424.93"/><linearGradient xlink:href="#E" id="N" x1="679.27" x2="686.84" y1="56.41" y2="299.85"/><linearGradient xlink:href="#E" id="O" x1="785.93" x2="821.69" y1="351.05" y2="211.54"/><linearGradient xlink:href="#E" id="P" x1="601.78" x2="601.85" y1="286.48" y2="284.31"/><linearGradient xlink:href="#E" id="Q" x1="514.34" x2="608.53" y1="281.35" y2="165.99"/><linearGradient xlink:href="#E" id="R" x1="591.74" x2="769.25" y1="340.06" y2="167.59"/><linearGradient xlink:href="#E" id="S" x1="442.58" x2="511.33" y1="181" y2="114.21"/><linearGradient xlink:href="#E" id="T" x1="399.06" x2="446.38" y1="353.93" y2="190.28"/><linearGradient xlink:href="#E" id="U" x1="421.2" x2="391.7" y1="-36.71" y2="217.4"/><linearGradient xlink:href="#E" id="V" x1="531.34" x2="525.46" y1="159.34" y2="246.05"/><linearGradient xlink:href="#E" id="W" x1="121.11" x2="295.72" y1="685.4" y2="81.54"/><linearGradient xlink:href="#E" id="X" x1="847.58" x2="417.27" y1="264.46" y2="273.25"/><linearGradient xlink:href="#E" id="Y" x1="276.06" x2="399.29" y1="274.73" y2="186.17"/><linearGradient xlink:href="#E" id="Z" x1="672.83" x2="801.85" y1="289.98" y2="197.26"/><linearGradient xlink:href="#E" id="a" x1="689.48" x2="702.26" y1="238.01" y2="182.03"/><linearGradient xlink:href="#E" id="b" x1="720.79" x2="734.04" y1="246.45" y2="188.46"/><linearGradient xlink:href="#E" id="c" x1="319.99" x2="490.36" y1="226.16" y2="214.85"/><linearGradient xlink:href="#E" id="d" x1="717.44" x2="1035.96" y1="223.35" y2="202.2"/><linearGradient xlink:href="#E" id="e" x1="760.66" x2="953.75" y1="175.49" y2="162.66"/><linearGradient xlink:href="#E" id="f" x1="878.81" x2="836.69" y1="28.87" y2="281.59"/><linearGradient xlink:href="#E" id="g" x1="51.21" x2="103.2" y1="160.47" y2="353.43"/><linearGradient xlink:href="#E" id="h" x1="281.31" x2="163.08" y1="43.08" y2="259.68"/><linearGradient xlink:href="#E" id="i" x1="316.76" x2="195.47" y1="54.21" y2="276.41"/><linearGradient xlink:href="#E" id="j" x1="800.7" x2="847.45" y1="402.36" y2="178.8"/><linearGradient xlink:href="#E" id="k" x1="884.82" x2="932.46" y1="420.83" y2="192.98"/><linearGradient xlink:href="#E" id="l" x1="837.22" x2="884.12" y1="409.38" y2="185.12"/><linearGradient xlink:href="#E" id="m" x1="851.2" x2="833.47" y1="62.89" y2="169.27"/><linearGradient xlink:href="#E" id="n" x1="962.11" x2="1012.03" y1="351.17" y2="168.14"/><linearGradient xlink:href="#E" id="o" x1="801.22" x2="865.5" y1="449.38" y2="179.54"/><linearGradient xlink:href="#E" id="p" x1="433.96" x2="675.55" y1="432.62" y2="178.53"/><linearGradient xlink:href="#E" id="q" x1="38.36" x2="180.49" y1="373.59" y2="170.98"/><linearGradient xlink:href="#E" id="r" x1="181.69" x2="236.69" y1="435.23" y2="206.7"/><linearGradient xlink:href="#E" id="s" x1="322.91" x2="400.94" y1="426.63" y2="176.55"/><linearGradient xlink:href="#Ai" id="t" x1="491.44" x2="487.93" y1="292.97" y2="186.85"><stop offset="0" stop-color="#9fc0fc"/><stop offset=".11" stop-color="#90adee"/><stop offset=".53" stop-color="#5d6fc0"/><stop offset=".74" stop-color="#2f3a81"/><stop offset=".91" stop-color="#0d1351"/><stop offset="1" stop-color="#00043f"/></linearGradient><linearGradient xlink:href="#Ai" id="u" x1="390.53" x2="390.53" y1="229.7" y2="229.57"><stop offset="0" stop-color="#794993"/><stop offset="1" stop-color="#dbb719"/></linearGradient><linearGradient xlink:href="#u" id="v" x1="501.7" x2="508.92" y1="326.46" y2="214.5"/><linearGradient xlink:href="#u" id="w" x1="777.67" x2="800.41" y1="304.26" y2="233.55"/><linearGradient xlink:href="#u" id="x" x1="733.35" x2="755.26" y1="289.11" y2="220.98"/><linearGradient xlink:href="#u" id="y" x1="733.19" x2="753.75" y1="285.06" y2="221.11"/><linearGradient xlink:href="#u" id="z" x1="485.45" x2="534.96" y1="335.17" y2="197.16"/><linearGradient xlink:href="#u" id="AA" x1="411.52" x2="463.55" y1="313.42" y2="168.39"/><linearGradient xlink:href="#u" id="AB" x1="476.6" x2="527.36" y1="333.79" y2="192.28"/><linearGradient xlink:href="#u" id="AC" x1="212.92" x2="221.5" y1="280.84" y2="239.96"/><linearGradient xlink:href="#u" id="AD" x1="376.96" x2="383.97" y1="224.07" y2="202.32"/><linearGradient xlink:href="#u" id="AE" x1="394.47" x2="401.34" y1="228.76" y2="207.4"/><linearGradient xlink:href="#u" id="AF" x1="196.07" x2="196.49" y1="249.34" y2="242.79"/><linearGradient xlink:href="#u" id="AG" x1="-2670.52" x2="-2669.74" y1="-6801.67" y2="-6813.87" gradientTransform="matrix(-.40996484 .09126243 -.21729151 -.97610676 -2495.05 -6157.79)"/><linearGradient xlink:href="#u" id="AH" x1="896.39" x2="922.95" y1="310.74" y2="228.14"/><linearGradient xlink:href="#u" id="AI" x1="865.35" x2="906.27" y1="330.26" y2="203.01"/><linearGradient xlink:href="#Ai" id="AJ" x1="481.83" x2="481.83" y1="504.9" y2="321.16"><stop offset="0" stop-color="#c9bdf2"/><stop offset=".08" stop-color="#c9bef2"/><stop offset=".99" stop-color="#cfcffc"/></linearGradient><linearGradient xlink:href="#Ai" id="AK" x1="596.36" x2="611.35" y1="362.55" y2="478.67"><stop offset="0" stop-color="#897ccf"/><stop offset="1" stop-color="#6b345d"/></linearGradient><linearGradient xlink:href="#Ai" id="AL" x1="533.21" x2="532.32" y1="434.3" y2="493.76"><stop offset="0" stop-color="#e17521"/><stop offset="1" stop-color="#c42b1b"/></linearGradient><linearGradient xlink:href="#AL" id="AM" x1="527.67" x2="526.79" y1="434.22" y2="493.69"/><linearGradient xlink:href="#AL" id="AN" x1="545.93" x2="545.05" y1="434.42" y2="493.98"/><linearGradient xlink:href="#Ai" id="AO" x1="575.04" x2="584.27" y1="477.25" y2="512.4"><stop offset="0" stop-color="#952f0b"/><stop offset="1" stop-color="#79190d"/></linearGradient><linearGradient xlink:href="#AO" id="AP" x1="569.21" x2="578.34" y1="478.7" y2="513.49"/><linearGradient xlink:href="#AO" id="AQ" x1="573.43" x2="582.48" y1="477.61" y2="512.09"/><linearGradient xlink:href="#AO" id="AR" x1="597.69" x2="606.92" y1="471.41" y2="506.56"/><linearGradient xlink:href="#AO" id="AS" x1="593.99" x2="603.12" y1="472.42" y2="507.2"/><linearGradient xlink:href="#AO" id="AT" x1="596.7" x2="605.75" y1="471.78" y2="506.27"/><linearGradient xlink:href="#AO" id="AU" x1="605.65" x2="614.7" y1="469.51" y2="503.99"/><linearGradient xlink:href="#AO" id="AV" x1="595.95" x2="605.01" y1="472.19" y2="506.68"/><linearGradient xlink:href="#AO" id="AW" x1="589.07" x2="598.12" y1="473.68" y2="508.16"/><linearGradient xlink:href="#AO" id="AX" x1="592.63" x2="601.85" y1="473.24" y2="508.39"/><linearGradient xlink:href="#AO" id="AY" x1="684" x2="683.43" y1="452.86" y2="458.15"/><linearGradient xlink:href="#AO" id="AZ" x1="709.47" x2="708.9" y1="455.87" y2="461.05"/><linearGradient xlink:href="#AO" id="Aa" x1="658.31" x2="657.74" y1="450.32" y2="455.6"/><linearGradient xlink:href="#AO" id="Ab" x1="643.19" x2="642.63" y1="449.15" y2="454.34"/><linearGradient xlink:href="#AO" id="Ac" x1="655.44" x2="654.87" y1="450.15" y2="455.4"/><linearGradient id="Ai" gradientUnits="userSpaceOnUse"/><path id="Ae" d="M812.5 191c-.67 0-1.43.07-2.27.2l.93-.49 1.34.29Z"/><path id="Af" d="M588.61 463.43c2.75.38 5.36-.39 2.72-.88-2.65-.49-5.56.49-2.72.88Z"/><path id="Ag" d="M703.93 477.48c-6.2.67 5.47 4.07 7.35 3.21 1.89-.87-2.15-3.77-7.35-3.21Z"/><path id="Ah" d="M647.61 472.79c-6.92 4.34 10.27 5.17 11.79 2.57 1.51-2.6-5.98-6.22-11.79-2.57Z"/><clipPath id="Ad"><path fill="none" d="M0 0h1000v489.77H0z"/></clipPath></defs><g clip-path="url(#Ad)"><path fill="url(#A)" d="M0 0h1000v383.88H0z"/><g class="M" opacity=".6"><path fill="url(#B)" d="M67.82 145.46s159.05-13.27 210.12-22.67c1.6-.3-38.5 6.18-37.36 3.32s-52.79 6.15-52.56 6.02c5.37-3.17 66.39-12.74 84.13-17.43 92.93-24.57 305.03-52.76 305.03-52.76l-100.75 9.75s51.31-4.19 5.73 2.51c-15.83 2.33-34.22-7.04-41.96-5.83-7.75 1.21-6.68 11.13-10.58 13.88-3.89 2.74-97.36 17.23-97.55 18.15-.18.92-1.4 2.81-6.9 3.21-5.51.4-24.32-5.42-33.26-3.87s-5.67 15.79-35.48 16.91c-3.12-6.34-15.71 3.19-16.13 4.54-.42 1.34-25.02-5.62-25.02-5.62s-36.39-37.95-59.05-4.45c-21.77 32.19-88.41 34.36-88.41 34.36z" opacity=".4" style="mix-blend-mode:multiply"/><path fill="url(#C)" d="M-156.87 178.93c-48.45-30.19-51.56 56.57 118.62 67.39 319.42 20.3 1151.72 12.31 1099.12-145.07-1.01-3.03-670.08 90.46-667.36 85.14s-115.04 18.85-114.46 18.54c13.71-7.27 149.89-34.76 195.65-48.79C714.46 82.64 962.43 42.76 962.43 42.76l56.6-.13s-165.29 16.53-200.8 26.66c-24.18 6.9-35.74-35.53-67.83-26.97-37.14 9.9-68.53 53.32-80.4 56.14-5.31 1.26-10.7-16.7-30.48-11.05-10.96 3.13-23.5 21.98-33.4 28.01s-19.37 1.49-21.16 2.57c-4.87 2.92-4.19 8.93-18.49 11.46s-5.73-4.13-28.86 1.54-26.15 21.82-103.65 33.74c-8.67-9.87-40.62 10.77-41.59 13.23-.98 2.46-30.12-4.64-30.12-4.64S249.57 94.5 193.76 159.97c-5.73 6.72-70.89 34.55-77.5 38.13-64.4 10.39-162.07 1.34-273.13-19.17z" opacity=".4" style="mix-blend-mode:multiply"/></g><path fill="url(#D)" d="m1028.85 243.72-1.3 20.29-.42 18.26-66.89.05h-.58l-7.48.02h-.85c-.12 0-.25 0-.36.02h-3.93l-.72.02h-5.77c-.13.02-.25.02-.39.02h-4.94l-.58.02h-5.38c-.2.02-.41.02-.62.02h-4.42c-.26.02-.53.02-.8.02h-3.71l-2.28.02h-4.88l-2.68.02h-3.31l-1 .02h-4.99l-.94.02h-3.79l-5.27.02h-1.07l-1.83.02h-5.06l-1.72.02h-4.35l-2.3.02h-3.59l-1.24.02h-4.56c-.12 0-.23.02-.36.02h-5.21l-1.62.02h-4.79l-1.18.02h-5.82l-.98.02h-3.68l-1.45.02h-5.84l-2.02.02h-4.67l-3.55.02h-3.11l-1.05.02h-6.37l-.8.01h-1.78l-1.78.01-2.19.02-12.75.03-19.37.05h-.02l-6.93.02-4.67.02-4.7.02-5.91.01h-5.95l-3.59.02h-3.62l-2.41.01-2.43.01-7.28.02h-3.67l-11.07.03h-4.95l-4.97.02-4.98.02-48.97.11h-.05l-16.3.04h-.42l-19.12.04h-2.18l-4.86.01-8.1.02h-.12l-14.13.03h-5.34l-3.71.02h-.01l-10.92.02-23.55.02-5.67.02-20.05.11-32.48.34h-.21l-119.39 1.6-58.29.72-31.85.22h-2.31l-69.66-.15h-3.62c-.44 0-.9-.02-1.35-.02h-3.54l-1.28-.02h-1.72c-.71 0-1.43 0-2.15-.02h-4.36l-3.09-.02h-.34l-11.09-.09h-1.9c-.57 0-1.14-.02-1.7-.02-.61 0-1.21 0-1.81-.02h-2.04l-.96-.02h-1.03c-.32 0-.65 0-.96-.02h-1.29l-2.85-.02-.92-.02h-1.2l-.89-.02h-.89l-.84-.02h-.87l-1.38-.02h-.85l-1.82-.05c-1.47-.02-53.08 7.01-87.34 11.59l-1.26.17-28.66 3.72h-.22l-1.96-.04h-.19l-3.3-.07h-.15c-.2-.02-.39-.02-.58-.02h-.14c-.18 0-.37-.02-.55-.02h-.12c-.19 0-.37 0-.55-.02h-.11c-.28 0-.56 0-.84-.02h-.1c-.17 0-.33 0-.49-.02h-.38c-.26-.02-.5-.02-.74-.02-.11-.02-.22-.02-.33-.02a8.61 8.61 0 0 1-.91-.05c-.79-.02-1.46-.07-2.01-.09-.21-.02-.4-.02-.57-.05-.1 0-.19-.02-.28-.02-.07 0-.14-.02-.21-.02h-.11c-.07-.02-.14-.02-.19-.02-.02-.02-.06-.02-.09-.02-.04 0-.09-.02-.14-.02s-.08-.02-.11-.02c-.04 0-.07-.02-.09-.02s-.05-.02-.06-.02c-.05-.02-.05-.05 0-.06 0 0 0-.02.02-.02.1-.05.19-.09.26-.16.17-.11.26-.26.3-.47.02-.09.03-.15.03-.25 0-.06-.01-.13-.01-.2l-.03-.18c-.14-.64-.59-1.48-1.3-2.47a25.24 25.24 0 0 0-1.12-1.44l-.47-.58c-2.09-2.42-5.16-5.47-8.81-8.83a12.94 12.94 0 0 1-.67-.62l-2.97-2.67-1.27-1.13c-.03-.02-.07-.07-.11-.11l-.92-.8-3.78-3.27-1.22-1.04-1.39-1.18c-.43-.38-.87-.74-1.31-1.11l-.8-.67-1.51-1.27-2.75-2.29a29.65 29.65 0 0 0-.93-.78c-.17-.13-.34-.27-.49-.4l-1.42-1.18-2.13-1.73c-.47-.38-.94-.78-1.41-1.13a32.92 32.92 0 0 0-1.39-1.13l-1.38-1.11c-.46-.36-.91-.74-1.35-1.09-.45-.38-.9-.73-1.33-1.07l-.67-.53-1.3-1.05c-.25-.2-.49-.38-.73-.6-.39-.29-.78-.6-1.17-.91l-2.44-1.94a25.15 25.15 0 0 1-.93-.73l-1.32-1.03c-.36-.29-.72-.58-1.08-.84l-.51-.4-1.96-1.54c-.26-.2-.5-.38-.74-.58l-2.49-1.93-.35-.27c-.22-.18-.43-.34-.62-.49-.1-.07-.19-.15-.29-.22-.18-.13-.36-.27-.52-.4l-.49-.38 1.67.02 230.71-54.66 12.91 12.54 81.49-35.77 32.33.34 124.22-54.15 29.68-27.95 20.74-9.1 69 89.75.5.65h.01l4.48-1.33 4.16-.64 2.31-.37 2.85-.46 22.57 8.09 28.42 10.21h.01l.05-.04 13.18-10.12v-.02l20.53 7.41 1.22-.46 48.03-18.13 48.49 16.66 4.16 1.43 128.26-52.44 95.58 68.97-2.46 18.24 52.89 28.5z"/><path fill="url(#E)" d="m774.49 282.99-6.95.02-4.67.01-4.7.01-5.92.02h-2.97l-2.99.01-3.58.01h-.02l-3.59.01h-4.84l-7.29.02-3.67.01-11.07.03-4.95.01-4.97.01-4.99.02-6.4-12.31-6.31-11.66-5.3-9.36c-8.73-15.07-17.28-27.98-25.91-38.45-9.91-12.02-19.93-20.81-30.47-25.92-1.33-.65-2.67-1.24-4.02-1.76l.05-.04 13.18-10.12c-5.25 4.72 5.28 16.3 26.58 32.67 7.58 5.82 16.51 12.25 26.59 19.19l4.91 3.36c.05.03.1.17.16.4.01.03.02.06.02.1a14.86 14.86 0 0 1 .22 1.28c.56 3.86 1.21 12.58 1.21 12.58 22.8 15.46 81.23 39.27 82.61 39.83.02 0 .02.01.02.01z" class="K" style="mix-blend-mode:multiply"/><use xlink:href="#Ae" fill="url(#F)" class="K" style="mix-blend-mode:multiply"/><path fill="url(#G)" d="M685.33 225.44c-.49 4.61-1.93 14.04-6.01 24.44-8.73-15.06-17.28-27.98-25.91-38.45 2.59-1.66 4.36-3.78 5.34-5.18 7.57 5.82 16.51 12.25 26.59 19.19Z" class="K" style="mix-blend-mode:multiply"/><path fill="url(#H)" d="m690.93 270.91-6.31-11.67a120.09 120.09 0 0 0 5.62-30.44c.57.39-.19.28.39.67.19 13 1.34 27.98.3 41.44z" class="K" style="mix-blend-mode:multiply"/><use xlink:href="#Ae" fill="url(#I)" class="K" style="mix-blend-mode:multiply"/><g class="M"><path fill="url(#J)" d="m956.9 246.57-22.31 34.46-.9 1.4-13.68 21.14-.64-.92-13.81-20.12-.13-.19-11.25-16.39-63.58-36.15-8.72-4.96-17.11-9.73-4.77-2.71-4.77-2.71-1.29-.74-3.69-9.69-12.69-6.69-20.03-10.56-2.94-1.56 128.26-52.44-8.35 9.69-3.08 19.95 8.55 10.79.75.96 31.29 39.55-1.23 5.13 36.9 27.93 9.22 4.56z" class="K" style="mix-blend-mode:multiply"/><path fill="url(#K)" d="m363.24 288.37-58.86.47-.91-2.48-.32-.85-3.19-8.6-9.11-24.55-.98-.4-47.61-19.37-11.67-4.74-4.92-6.27-6.51-3.77-3.04-1.76-9.75-5.65-10.22-5.92 81.49-35.77 7.44 11.16 9.52 14.26 15.37 18.24 12.3 1.14 14.78 27 24.37 44.52.33.61 1.49 2.73z" class="K" style="mix-blend-mode:multiply"/><path fill="url(#L)" d="m597.27 283.46-61-52.28.11-.06 23.25-11.91h-11.68l-27.06-80.94-36.9-9.69-2.46-9.69-3.07-4.56 6.15-36.48-20.74 9.1-29.68 27.95-124.22 54.15 3.37 1.59h.01l1.3.62c16.98 8.03 74.19 35.43 71.57 38.83-3.07 3.99-3.07 8.55-3.07 8.55l26.44 38.19 104.23 26.87.28.07 12.78 3.29 73.95-.59-3.57-3.02zm-98.51-67.1 9.84 3.99-48.58-1.71-38.13-7.41 13.53-1.14 63.34 6.27z" class="K" style="mix-blend-mode:multiply"/><path fill="url(#M)" d="m631.68 283.5-18.54 1.26-.67-1.35-22.55-45.28-2.61-5.24-31.85-51.26-.74-1.19-1.11-12.85.5.65h.01l4.48-1.33 4.16-.64 2.31-.37-1.13 16.26.3.55 16.23 29.75 10.52 19.29.57.7 15.42 18.69 14.9 19.53 9.7 12.71.09.13z" class="K" style="mix-blend-mode:multiply"/><path fill="url(#N)" d="m714.61 228.33-60.7-47.82-.79-.63 48.82-17.51-17.46 12.95 3.69 5.7 2.46 15.39 23.98 31.92z" class="K" style="mix-blend-mode:multiply"/></g><path fill="url(#O)" d="m905.36 282.53-111.33.68-.18-.28-4.83-7.86-73.79-45.6 11.68 4.56 9.84-7.41 78.71 34.2 78.72 5.13 11.05 16.39.13.19z" class="K" style="mix-blend-mode:multiply"/><path fill="url(#P)" d="m606.38 284.76-5.53 1.71-3.51-3.02 8.1-.02.95 1.33z" class="K" style="mix-blend-mode:multiply"/><path fill="url(#Q)" d="m591.8 232.86-1.88 5.27-2.6-5.24-31.86-51.26 8.49.53 27.63 50.29.22.41z" class="K M" style="mix-blend-mode:multiply"/><path fill="url(#R)" d="m793.94 208.95-37.67-4.57-34.78-4.23-16.57-2.01-2.6-.31-11.69-1.42-2.46-15.39 7.68 1.37 4.94.89 8.22 1.47 41.34 7.38 39.9 7.13 3.69 9.69z" class="K" style="mix-blend-mode:multiply"/><path fill="url(#S)" d="m481.54 118.89 38.75 8.55 1.23 1.14H484l-2.46-9.69z" class="K" style="mix-blend-mode:multiply"/><g class="M"><path fill="url(#T)" d="m386.23 210.09 100.85 19.38 1.84 3.99-105.77-14.82 3.08-8.55z" class="K" style="mix-blend-mode:multiply"/><path fill="url(#U)" d="m434.19 114.9 17.22 18.24-.61 7.41 29.51 55.29-13.53-19.95-86.09 14.25 3.08-5.7 71.95-9.12-12.3-27.93-22.76 4.56-106.38 19.38-3.08-2.28 122.99-54.15z" class="K" style="mix-blend-mode:multiply"/><path fill="url(#V)" d="m547.96 219.21-53.5 6.84 42.43 5.13 22.75-11.97h-11.68z" class="K" style="mix-blend-mode:multiply"/><path fill="url(#W)" d="m309.97 212.37-19.06 39.9-1.04-.31-47.61-19.37 57.87-29.91-9.63-14.22-18.66 7.95 16.78-11-3.3-3.93-34.38 21.77-23.99 13.68-7.79.88-12.79-7.41 38.42-13.42 4.92 3.99 35.37-21.1.24-.14 24.65 32.64z" class="K" style="mix-blend-mode:multiply"/><path fill="url(#X)" d="m600.84 286.47-73.95.6-12.78-3.3h-.01l-.28-.07-104.23-26.87 146.36 7.41-6.15-7.41-47.96-2.28 61.39.72 33.98 28.19 3.63 3.01z" class="K" style="mix-blend-mode:multiply"/><path fill="url(#Y)" d="m386.23 210.09-57.2 5.7 54.12 2.85 3.08-8.55z" class="K" style="mix-blend-mode:multiply"/><path fill="url(#Z)" d="m736.75 226.62 59.03 6.27-71.94-10.83 12.91 4.56z" class="K" style="mix-blend-mode:multiply"/><path fill="url(#a)" d="m704.92 198.14-2.6-.31-6.47-15.44 4.94.89 4.13 14.86z" class="K" style="mix-blend-mode:multiply"/><path fill="url(#b)" d="m756.27 204.38-34.78-4.23-12.48-15.4 41.34 7.38 5.92 12.25z" class="K" style="mix-blend-mode:multiply"/><path fill="url(#c)" d="m422.76 211.51 2.21 5.99 34.84 7.2.21-6.06-37.26-7.13z" class="K" style="mix-blend-mode:multiply"/><path fill="url(#d)" d="m978.43 196.98-2.46 18.24-65.19-1.14 1.23-5.13 66.42-11.97z" class="K" style="mix-blend-mode:multiply"/><path fill="url(#e)" d="m919.39 167.34-41.83-2.01 3.14 4.07 38.69-2.06z" class="K" style="mix-blend-mode:multiply"/><path fill="url(#f)" d="m934.15 268.23-1.87 14.19-.07.5s-8.22 13.04-12.84 19.73l-13.81-20.12-.13-.19-11.25-16.39-63.58-36.16-8.71-4.96-17.11-9.72-4.77-2.71-4.77-2.71-1.29-.74-3.69-9.69-12.69-6.69L757.54 182l19.8-1.56 30.13 15.96 3.69 1.14-.61 11.4 1.46 1.09 34.21 25.7 4.29 1.2 22.15 6.21 23.98 10.26 2.46 3.42 35.05 11.4Z" class="K" style="mix-blend-mode:multiply"/><path fill="url(#g)" d="m181.62 286.35.1.05L54.3 297.75l-28.66 3.72h-.22l-1.96-.04h-.19l-3.3-.07c-8.09.96-13.18 1.73-13.78 2.2-1.92 1.48.48-2.42 3.23-6.52a25.24 25.24 0 0 0-1.12-1.44l-.47-.58c-2.09-2.42-5.16-5.47-8.81-8.83a12.94 12.94 0 0 1-.67-.62l-2.97-2.67-1.27-1.13c-.03-.02-.07-.07-.11-.11l-.92-.8-3.78-3.27-1.22-1.04-1.39-1.18c-.43-.38-.87-.74-1.31-1.11l-.8-.67-1.51-1.27-2.75-2.29a29.65 29.65 0 0 0-.93-.78c-.17-.13-.34-.27-.49-.4l-1.42-1.18-2.13-1.73c-.47-.38-.94-.78-1.41-1.13a32.92 32.92 0 0 0-1.39-1.13l-1.38-1.11c-.46-.36-.91-.74-1.35-1.09-.45-.38-.9-.73-1.33-1.07l-.67-.53-1.3-1.05c-.25-.2-.49-.38-.73-.6a46.39 46.39 0 0 1-1.17-.91l-2.44-1.94a25.15 25.15 0 0 1-.93-.73l-1.32-1.03c-.36-.29-.72-.58-1.08-.84l-.51-.4-1.96-1.54c-.26-.2-.5-.38-.74-.58l-2.49-1.93-.35-.27c-.22-.18-.43-.34-.62-.49-.1-.07-.19-.15-.29-.22-.18-.13-.36-.27-.52-.4l-.49-.38 1.67.02 230.71-54.66-60.21 22.15 6.15 7.41-13.54 8.89-1.22.8 21.52 31.35 45.68 23.82z" class="K" style="mix-blend-mode:multiply"/><path fill="url(#h)" d="m225.67 221.58-88.5 9.03 3.07-1.14 76.31-13.5 9.12 5.61z" class="K" style="mix-blend-mode:multiply"/><path fill="url(#i)" d="M230.59 227.85 163 236.88l9.22 3.42-41.2 5.7 158.85 5.96-59.28-24.11z" class="K" style="mix-blend-mode:multiply"/><path fill="url(#j)" d="m877.57 187.29-66.41 10.26-.62 11.4 67.03-19.38v-2.28z" class="K" style="mix-blend-mode:multiply"/><path fill="url(#k)" d="m896.64 253.41 46.73-1.71-44.27 5.13-2.46-3.42z" class="K" style="mix-blend-mode:multiply"/><path fill="url(#l)" d="m845.6 236.88 95.39 1.21-2.51-2.33-109.49-15.41-1.84-1.71 66.41 6.84-1.84-1.14-80.73-14.48 34.61 27.02z" class="K" style="mix-blend-mode:multiply"/><path fill="url(#m)" d="m874.5 137.7-76.26 26.79 1.85 2.28 71.33-9.12 3.08-19.95z" class="K" style="mix-blend-mode:multiply"/><path fill="url(#n)" d="m1028.85 243.72-1.72 38.55-92.49.16 22.26-35.86 71.95-2.85z" class="K" style="mix-blend-mode:multiply"/><path fill="url(#o)" d="m956.9 246.57-12.91 35.34-9.35.52h-.95l-1.41-.01-26.85-.08h-.2l-1.45-.01-89.24.52-2.18.01-1.79.01-3.96.02 8.85-22.07 78.72 5.13-63.58-36.15-8.72-4.96-17.11-9.73-4.77-2.71-4.77-2.71-1.29-.74-3.69-9.69-12.69-6.69-20.03-10.56 19.81-1.56 31.03 16.51 2.79.59-.62 11.4 1.46 1.09 34.21 25.7 4.61 1.21 21.4 5.61 24.42 10.85 2.46 3.42 24.91-4.42 32.89-5.84z" class="K" style="mix-blend-mode:multiply"/><path fill="url(#p)" d="m696.78 282.48-48.42.86h-.05l-16.1.28-.2-.24-10.12-12.71-30.09-37.81-.22-.41-11.1-19.99-16.31-29.38.08-.37 3.68-17.27 51.05 18.26 5.23 1.88-1.28-.06-55.91-2.79 17.84 25.08 54.11 8.55-50.42-1.71 68.26 10.26 39.97 57.57z" class="K" style="mix-blend-mode:multiply"/><path fill="url(#q)" d="m182.25 286.36-.53.05L54.3 297.76l-34.33 3.61c-8.09.96-13.18 1.73-13.78 2.2-1.92 1.48.48-2.42 3.23-6.52 2.55-3.79 5.38-7.73 5.38-7.73l121.15-26.79-21.52-31.35-67.64 15.96 82.4-25.65-15.11 9.78.46.51 22.68 31.15 45.05 23.43z" class="K" style="mix-blend-mode:multiply"/><path fill="url(#r)" d="M303.47 286.36H182.25l-45.04-23.43 152.66-10.97 9.89 25.02 3.37 8.53.34.85z" class="K" style="mix-blend-mode:multiply"/><path fill="url(#s)" d="m539.54 283.56-25.43.21h-.01l-32.75.27h-.21l-119.72.99-58.27.48h-.02l-103.03.85-5.43.04.5-.04 104.28-9.26.31-.12.2-.07 47.54-17.28-9.43-14.84-39.17 18.88 37.76-23.25.39.09 72.54 16.32 129.95 26.73z" class="K" style="mix-blend-mode:multiply"/><path fill="url(#t)" d="m1028.85 243.72-1.72 38.54-92.49.16h-.95L920 303.57l-.63-.92-13.81-20.12h-.2l-111.33.68-.18-.29-19.37.05h-.02l.02.01-6.95.02-4.67.01-4.7.02-5.91.01h-2.97l-2.99.01-3.58.01h-.02l-3.59.01h-2.42l-2.43.01-7.28.02h-3.67l-11.07.03-4.95.01-4.97.01-4.98.02-48.97.11h-.05l-16.1.28-.2-.24h-.42l.09.13-18.54 1.26-.67-1.35h-2.18l-4.86.01.95 1.33-5.53 1.71-73.95.59-12.78-3.29-32.75.27h-.21l-119.39 1.6 1.49 2.73-58.86.47-.92-2.47-31.85.22h-2.31l-69.66-.15h-3.62c-.44 0-.9-.02-1.35-.02h-3.54l-1.28-.02h-1.72c-.71 0-1.43 0-2.15-.02h-3.73s-.18.02-.53.05L54.32 297.72l-28.66 3.72h-.22l-1.96-.04h-.19l-3.3-.07c-8.09.96-13.18 1.73-13.78 2.2-1.92 1.48.48-2.42 3.23-6.52a25.24 25.24 0 0 0-1.12-1.44l-.47-.58c-2.09-2.42-5.16-5.47-8.81-8.83a12.94 12.94 0 0 1-.67-.62l-2.97-2.67-1.27-1.13c-.03-.02-.07-.07-.11-.11l-.92-.8-3.78-3.27-1.22-1.04-1.39-1.18c-.43-.38-.87-.74-1.31-1.11l-.8-.67-1.51-1.27-2.75-2.29a29.65 29.65 0 0 0-.93-.78c-.17-.13-.34-.27-.49-.4l-1.42-1.18-2.13-1.73c-.47-.38-.94-.78-1.41-1.13a32.92 32.92 0 0 0-1.39-1.13l-1.38-1.11c-.46-.36-.91-.74-1.35-1.09-.45-.38-.9-.73-1.33-1.07l-.67-.53-1.3-1.05c-.25-.2-.49-.38-.73-.6a46.39 46.39 0 0 1-1.17-.91l-2.44-1.94a25.15 25.15 0 0 1-.93-.73l-1.32-1.03c-.36-.29-.72-.58-1.08-.84l-.51-.4-1.96-1.54c-.26-.2-.5-.38-.74-.58l-2.49-1.93-.35-.27c-.22-.18-.43-.34-.62-.49-.1-.07-.19-.15-.29-.22-.18-.13-.36-.27-.52-.4l-.49-.38 1.67.02 230.81-54.64 12.81 12.52 81.49-35.77 32.33.34 124.21-54.19 29.7-27.91 20.74-9.1 69 89.75.5.65h.01l4.48-1.33 4.16-.64 2.31-.37 2.85-.46 51.05 18.26 13.18-10.12v-.02l20.53 7.41 1.22-.46-.79-.63 48.83-17.51L750.48 179l4.16 1.43 128.93-51.87 94.91 68.39-2.46 18.24 52.89 28.5z" style="mix-blend-mode:screen"/><path fill="url(#u)" d="M390.63 229.72c-.13-.07-.2-.11-.21-.14 0-.07.07-.02.21.14Z" class="L" style="mix-blend-mode:multiply"/><path fill="url(#v)" d="m967.43 247.04 25.14-3.32-31.98-3.42 44.89-.57-74.79-11.46 24.97 16.59-59.82 22.7-13.66-7.86-97.03-10.92-9.66 11.46-39.8-17.57 34.86 21.39-56.05-8.29-24.51 15.31-62.69 4.32-14.4-23.56 61.74 1-63.95-7.41-7.99-5.13 19.2 30.36-15.27-.48-11.32-16.77 6.15 11.97-12.3 1.14-15.99-9.69-21.52-9.12 28.13 22.04-17.06-.38-67.03-15.39-25.83-2.85 34.44 9.69-14.48 1.07-99.18-32.17c1.96 2.22 17.38 25.18 17.38 25.18l32.03 8.44 39.43 15.2-124.11-5.11-5.08-7.85-56.29 1.5 53.11-8.99 32.99-.13-35.81-4.23-11.54 3.09 10.91-5.13 60.42 5.13L339.89 245l-36.66 15.24 33.84-19.75-34.46 9.49-20.29-1.71-34.44-17.1 40.59-19.38-5.42.31-38.94 19.21-3.61-1.29 22.75-11.97-32.65 9.78 27.95 11.63 31.34 12.48-109.04 2.59 47.25 2.97-94.52 2.91-60.41.7 53.24 2.04-80.2 7.66-64.16 1.79 83.23 3.32-50.75 14.76-25.13-.35 10.06 11.52 1028.2-18.24 1.05-38.32-61.23 1.75zM99.88 284.1l43.47-8.93-88.81 14.55 53-15.83 43.01-3.57 45.8 4.34-96.48 9.45z" class="L" style="mix-blend-mode:multiply"/><path fill="url(#w)" d="m770.18 241.03 66.19 10.67-78.1-17.1 11.91 6.43z" class="L" style="mix-blend-mode:multiply"/><path fill="url(#x)" d="m718.3 220.92 15.99 5.7 54.12 6.27-70.11-11.97z" class="L" style="mix-blend-mode:multiply"/><path fill="url(#y)" d="m758.23 234.76-22.59 6.64 25-5.67-2.41-.97z" class="L" style="mix-blend-mode:multiply"/><path fill="url(#z)" d="m494.46 226.05 42.43 5.13 19.68-10.26-62.11 5.13z" class="L" style="mix-blend-mode:multiply"/><path fill="url(#AA)" d="m387.29 219.39 117.01 15.78 1.84 1.14-120.11-14.01-7.22-4.36 8.48 1.45z" class="L" style="mix-blend-mode:multiply"/><path fill="url(#AB)" d="m468.01 234.6 6.15 2.28 77.49 10.83-8.61-7.98-75.03-5.13z" class="L" style="mix-blend-mode:multiply"/><path fill="url(#AC)" d="m212.9 214.44 29.43-7.2-14.36 9.14-9.84.78-5.23-2.72z" class="L" style="mix-blend-mode:multiply"/><path fill="url(#AD)" d="m352.95 164.38 92.31-18.13-19.68-1.71-72.63 19.84z" class="L" style="mix-blend-mode:multiply"/><path fill="url(#AE)" d="m386.23 161.64 51.04-6.27 10.1 1.83-61.14 4.44z" class="L" style="mix-blend-mode:multiply"/><path fill="url(#AF)" d="M159.31 247.04c1.23-.47 95.78 3.78 95.78 3.78l-76.71-6.54h53.5l-59.04-1.71 8.61 1.14-44.28 2.28 22.14 1.04Z" class="L" style="mix-blend-mode:multiply"/><path fill="url(#AG)" d="M107.87 235.26c-.41.58-67.23 13.57-67.23 13.57l32.75-1.31-21.94 5.36L76 248.63l-3.76-.25 44.91-14.32-9.29 1.2Z" class="L" style="mix-blend-mode:multiply"/><path fill="url(#AH)" d="m896.64 253.41 43.32-4.04-48.24 1.76 4.92 2.28z" class="L" style="mix-blend-mode:multiply"/><path fill="url(#AI)" d="m851.75 237.45 19.12 4.94 67.58-4.37-.61-.57h-86.09z" class="L" style="mix-blend-mode:multiply"/><g fill="#70632f"><path d="m419.86 254.57 1.48-16.24.04 13.6 1.54-12.62-.12 12.34 2.06-20.11 1.13 6.84.87-3.08.73 11.95.22-10.75 1.01 15.05c0-.83 1.67-17.23 1.67-17.23l2.47 17.3.57-3.26 1.13 6s.95-6.15.98-5.58 2.45 5.75 2.45 5.75l1.32-4.42.77 4.34 1.36-23.02 1.52 14.04.42-6.66 2.41 9.77.49-8.03c.03.91 3.41 9.27 3.41 9.27l-.87-5.63c.14.91 3.28 7.62 3.28 7.62l-.62-3.65c.22 1.31 5.05 11.65 5.05 11.65l-2.52-20.51s7.94 21.61 7.95 20.36c0-1.23-.43-6.72-.43-6.72l4.86 9.29.35-2.2 6.89 12.06-.93-24 6.3 27.96-59.21-21.51zm72.9 2.71 1.28-22.84.72 19.05 1.54-17.77.43 17.29 1.91-28.3 1.91 9.52 1.06-4.37 1.6 16.7-.22-15.07 2.15 21.02c-.04-1.16 1.51-24.23 1.51-24.23l4.29 24.09.65-4.59 1.87 8.34s1.03-8.67 1.1-7.87 3.71 7.92 3.71 7.92l1.63-6.26 1.29 6.03.78-32.34 2.82 19.57.26-9.35 3.84 13.55.29-11.27c.09 1.27 5.22 12.79 5.22 12.79l-1.49-7.83c.24 1.26 4.96 10.48 4.96 10.48l-1.04-5.08c.37 1.82 7.64 16.03 7.64 16.03l-4.53-28.58s12.18 29.81 12.12 28.06c-.06-1.73-.93-9.38-.93-9.38l7.26 12.74.38-3.1 9.05 17.56-2.63-14.02 11.53 18.2-83.99-26.67z"/><path d="m416.74 277.21-.23-17.36 2.79 14.55.7-6.64 2.79 10.47.7-4.34 1.16 7.15 3.02-26.29 2.79 19.91v-6.89l4.18 17.87-24.88-8.68 6.97.26zm61.84-3.31-.23-17.36 2.79 14.55.7-6.64 2.79 10.47.7-4.34 1.16 7.15 3.02-26.29 2.79 19.91v-6.89l4.18 17.87-24.87-8.68 6.97.26zm294.44 1.14 2.68-25.6 2.85 25.31 3.1-11.38 2.59 12.23 4.92-17.06 3.63 19.33 2.07-4.26 1.16 3.61 33.54 2.08-100.57.53 44.03-4.79z"/><path d="m415.52 272.28.25-15.63 5.7 14.5.26-7.4 8.29 13.84 33.29 1.99-102.34-.44 38.75-3.16 14.24.76-1.55-12.99 3.11 8.53z"/></g></g><path fill="#e3dcfd" d="M-7.62 303.17h1033.18v185.8l-1054.47-7.09 21.29-178.71z"/><path fill="url(#AJ)" d="m1015.38 321.16-4.42 183.74-1056.99-14.78-5.69-150.86 556.23 18.04 406.94-28.78h.03l95.43-6.75 8.47-.6Z"/><g fill="#ffff81"><path d="M1029.58 321.81 554.76 453.68l119.99 11.29 364.3-134.89-9.47-8.27zm-118.1 6.7 95.43-6.75c-102.57 12.65-274.92 41.29-560.17 104.31-135.49 29.93-97.92-11.6-97.92-11.6s347.64-63.03 562.63-85.95h.03Zm103.91 43-195.52 99.73 163.88 52.36 31.64-152.09zM-50.36 450.9l532.48 12.39 182.41 36.77-736.11-7.25 21.22-41.91z" class="C" opacity=".55"/><path d="M-75.36 423.11c2.84-.06 474.19 8.79 474.19 8.79l-56.89-15.46-449.93-17.43 32.64 24.1Zm-10.42-34.48 430.66 17.11 14.07-7.24-444.73-26.99v17.12zm14.2-28.52 459.21 25.17 33.77-11.2-471.76-18.8-21.22 4.83zm10.41-16.95 523.68 22.8 42-8.66-556.23-18.04-9.45 3.9z" class="C" opacity=".55"/></g><path d="m971.22 503.51.31.05-20.04 4.84-20.69 4.99-3.06.74-29.59-4.6-9.87-1.53-10.88-1.69-2.54-.39-73.13-11.37-26.51-4.13-30.96-4.81-2.9-.45-402.2-66.47-.75-7.62c4.78 6.14 108.46 15.6 231.71 33.76l3.79.55 1.39.21c13.66 2.01 50.45 4.32 50.45 4.32l2.08 10.34 1.14-9.35 85.37 15.1 27.01 3.74 3.2.42 13.59 1.72 39.86 4.66 6.63 17.6 18.37 1.95-2.16-17.1 54 5.39 4.39.42 9.03.87 14.45 1.38 73.14 7.8c13.69 2-6.32 8.41-4.65 8.66z" class="O"/><path fill="#5d4c90" d="M530.1 347.6v2.07s-207.85 49.45-238.3 69.01c-.88-.33-1.7-.65-2.47-.97-5.98-2.44-8.66-4.4-7.39-5.77 2.55-2.77 8.91-5.56 17.89-8.45.73-.23.89-3.79 1.65-4.03 14.69-4.55 33.9-8.72 56.34-14.18 71.95-17.51 168.67-34.05 172.28-37.69Z"/><path fill="#897ccf" d="M574.47 342.77c0 .5-17.64 4.85-22.9 6.53l-14.24-2.38-29.27-1.62-2.04-.12C398.4 339.07-31.9 326.33-31.9 326.33l-18.46-1.62 624.83 18.05z"/><path fill="#d2581f" d="M927.73 514.13 818.87 559.2 345.92 433.94c-24.45-5.98-43.34-11.21-54.13-15.26 30.45-19.56 238.3-69.01 238.3-69.01v-2.07c.1-.11.13-.2.08-.28-.33-.52-8.3-1.2-22.13-2.01l29.27 1.62 14.24 2.38c-6.13 1.95-15.36 4.59-26.6 7.68h-.02c-.03 0-.08.02-.16.05l-13.96 3.8-.11.03c-67.72 18.25-180.7 46.74-173.01 48.95l2.13 12.92 587.91 91.4z"/><path d="m741.36 469.74 3.2.42-.3 15.44-2.9-.45v-15.41zm16.79 2.15 37.97 4.4 5.6 18.26-.18 1.07-26.33-5.2-14.91-2.94-2.16-15.59zm121.09 12.92-1.85 21.49-2.54-.39v-21.52l4.39.42z" class="F N" opacity=".22"/><path d="m902.73 487.05-4.58 22.48h-9.87v-23.85l14.45 1.38z" class="O"/><path fill="#4e4499" d="m891.74 481.29-3.46 23.61v-23.61h3.46z"/><path fill="url(#AK)" d="M927.73 514.13 818.87 559.2 345.92 433.94c-24.45-5.98-43.34-11.21-54.13-15.26 30.45-19.56 238.3-69.01 238.3-69.01v-2.07l-24.08-2.41 2.04.12 29.27 1.62 14.24 2.38-40.75 11.53-.11.03-173.01 48.95 1.46 8.88 588.57 95.44z"/><g class="N"><path d="M856.54 548.39 530.1 466.63l-16.12-4.03h-3l-10.91-2.15-46.35-14.85 56.58 12.49 118.07 34.11 86.44 8.56 21.84 5.54 173.34 36.78-53.45 5.31z" class="G" opacity=".26"/><path d="M378.19 442.17h27.67l7.16 1.64 32.6 1.79h6.94l7.55-4.31 12.11-1.04 472.81 76.66-133.19 44.45-433.65-119.19z" class="G" opacity=".26"/></g><path fill="#5d4c90" d="m291.79 418.68 46.63 13.43 5.19-.64 113.56 27.5v5.33l3.33-4.88 138.05 33.64 104.23 16.82v12.39l-97.47-13.28-293.41-82.18-20.11-8.13z"/><g class="P"><path d="M497.79 464.39c1.55.3 3.08.15 1.59-.18-1.49-.34-3.2-.13-1.59.18Zm-9.54-1.92c-3.57-.09 2.95 1.87 4.06 1.65 1.12-.23-1.07-1.57-4.06-1.65Z"/><path d="M493.68 464.4c-4.14 1.28 5.65 2.56 6.62 1.65.98-.91-3.15-2.72-6.62-1.65Z"/></g><path fill="url(#AL)" d="M532.18 469.85c.99.19 1.97.1 1.01-.12-.95-.22-2.04-.08-1.01.12Z"/><path fill="url(#AM)" d="M526.1 468.62c-2.28-.06 1.88 1.19 2.59 1.05s-.68-1-2.59-1.05Z"/><path d="M529.56 469.86c-2.64.82 3.6 1.63 4.23 1.05.62-.58-2.01-1.74-4.23-1.05Z" class="P"/><path fill="url(#AN)" d="M544.27 474.05c-1.53.47 2.09.95 2.45.61s-1.17-1.01-2.45-.61z"/><path d="M516.97 468.96c-4.82 1.49 6.57 2.98 7.71 1.92s-3.67-3.17-7.71-1.92z" class="P"/><path d="m823.01 496.1-3.14-24.86 68.41 10.05v26.7l-65.27-11.89z" class="O"/><g class="N"><path d="m820.85 479 2.16 17.1-18.37-1.95-6.63-17.6 151.52-71.45-129.66 66.14.98 7.76z" class="I" opacity=".2"/><path d="m948.1 517.41-42.41 22.82c-39.52-15.84-136.41-38.22-237.03-59.15l-35.55 9.7 24.87-11.22-22.35 3.25-14.83 2.36-24.92 1.77h-17.35l53.95-9.44 5.8-2.61-13.69 1.33-6.71-5.14-3.41-1.07-243.59-46.18 577.22 93.58z" opacity=".43" style="mix-blend-mode:multiply"/></g><path d="m664.53 469.74-13.86 2.15-22.3-3.18.88-19.3 22.03 4.05 11.58-.37 1.67 16.65z" class="O"/><path d="m650.67 471.89.61-18.43h5.27l.63 14.17.53-14.17 5.15-.37-3.09 17.39-9.1 1.41z" class="F N" opacity=".22"/><path fill="#49003a" d="M675.21 478.04c6.45.97 23.81.92 23.81.92l-4.52-1.48-9.84.84-9.45-.28Zm-27.85-1.74c4.2 1.62 13.65.97 13.87.48.23-.49-5.2-.92-5.2-.92l-8.68.44Z" opacity=".39" style="mix-blend-mode:multiply"/><path fill="url(#AO)" d="M574.11 475.97c1.13.16 2.21-.16 1.12-.36s-2.29.2-1.12.36z"/><path fill="url(#AP)" d="M567.15 474.92c-2.56.28 2.25 1.68 3.03 1.32s-.89-1.55-3.03-1.32z"/><path fill="url(#AQ)" d="M571.18 476.41c-2.85 1.79 4.23 2.13 4.86 1.06.62-1.07-2.46-2.56-4.86-1.06Z"/><path fill="url(#AR)" d="M599.08 478.17c.72.1 1.41-.1.71-.23s-1.46.13-.71.23Z"/><path fill="url(#AS)" d="M594.64 477.5c-1.63.18 1.44 1.07 1.93.84.5-.23-.57-.99-1.93-.84Z"/><path fill="url(#AT)" d="M597.21 478.45c-1.82 1.14 2.7 1.36 3.1.68s-1.57-1.63-3.1-.68z"/><path fill="url(#AU)" d="M608.05 481.36c-1.06.66 1.57.79 1.8.39s-.91-.95-1.8-.39Z"/><path fill="url(#AV)" d="M592.87 463.29c-1.11.69 1.64.83 1.88.41s-.96-.99-1.88-.41Z"/><path fill="url(#AW)" d="M588.16 478.81c-3.32 2.08 4.93 2.48 5.66 1.23s-2.87-2.98-5.66-1.23z"/><use xlink:href="#Af" fill="url(#AX)"/><path fill="url(#AY)" d="M694.93 477.91c-19.23 1.89-27.13-1.42-27.13-1.42s11.59-2.48 12.29-.6c2.96 7.88 4.24-4.37 9.08-4.18s5.75 6.2 5.75 6.2z"/><use xlink:href="#Ag" fill="url(#AZ)"/><path fill="url(#Aa)" d="M654.72 471.72c2.75.38 5.36-.39 2.72-.88-2.65-.49-5.56.49-2.72.88Z"/><path fill="url(#Ab)" d="M637.83 469.18c-6.2.67 5.47 4.07 7.35 3.21 1.89-.87-2.15-3.77-7.35-3.21Z"/><use xlink:href="#Ah" fill="url(#Ac)"/><path d="M621.43 488.52c-6.92 4.34 10.27 5.17 11.79 2.57 1.51-2.6-5.98-6.22-11.79-2.57Z" class="P"/><path fill="#5a00a5" d="m888.28 480.32 62.1-35.81-32.75 25.74-25.89 16.56-3.46 18.09v-24.58z" opacity=".2" style="mix-blend-mode:multiply"/><g class="N"><path d="m-58.78 442.06 170.68 8.84v3.77l2.21-6.3 234.71 11.82-402.42-9.29-5.18-8.84z" class="I" opacity=".2"/><path d="m308.32 419.44 48.16 12.58 8.42 1.99h10.09l35.55 9.24-38.7-7.47-37.44-11.85-26.08-4.49z" class="G" opacity=".26"/></g><g class="M"><path fill="#6b6d25" d="m19.4 271.04-.7-33.05 3.98 27.52.86-26.12 2.79 24.9.81-43.87 4.92 15.44 1.84-7.4 4.18 25.13-1.23-22.81 5.05 30.41c-.11-1.54 2.32-36.69 2.32-36.69l8.22 34.86 1.28-6.41 3.08 10.59s2.23-11.85 2.31-10.77 6.09 9.48 6.09 9.48l3.39-8.68 1.67 7.58 5.27-48.49 2.58 30.23 1.86-14.09 4.77 18.91 2.52-16.42c-.08 1.91 6.72 17.05 6.72 17.05l-.96-10.61c.16 1.76 6.25 13.25 6.25 13.25l-.61-6.59c.22 2.39 8.69 18.62 8.69 18.62l-.04-37.74s11.55 37.22 11.97 35.16c.42-2.07 1.38-11.45 1.38-11.45l7.18 13.8 1.59-3.74 7.21 17.19 1.11-14.65 9.52 16.66-127.9-7.23zm934.9-9.14-17.82-41.48 4.22 29.36-6.58-27.96 4.11 26.78-9.84-44.46.22 14.26-2.46-7.09s-.58 19.24-.85 17.39c-.26-1.83-5.76-21.26-5.76-21.26l1.13 36.98-2.05-7.47-.09 12.88-4.01-23.99c.12 1.17-2.07 22.98-2.07 22.98l-5.15-25.85.35 17.94-8.76-45.43 1.62 30.73-2.88-15.2-1.37 20.97-5.13-31.61c.21 1.87-1.81 32.69-1.81 32.69s-2.2-16.26-2.19-14.3c0 1.99-1.78 17.81-1.78 17.81s-1.6-14.07-1.63-11.27c-.02 2.86-4.41 27.99-4.41 27.99l-1.61-46.5s-8.78 46.84-9.18 43.87c-.4-2.93-1.23-20.83-1.23-20.83l-6.92 25.11-2.08-17.1-7.74 40.3-.03-24.02-12.29 29.74 116.05-21.97z"/><path fill="#7d8030" d="m788.05 264.56.39-29.76-4.7 24.94-1.18-11.38-4.7 17.94-1.18-7.44-1.96 12.25-5.1-45.07-4.7 34.13v-11.82l-7.06 30.64 75.49-4.56-45.3-9.89zm-612.43 3.6 2.63-22.61 1.11 19.52 2.01-8.48 1.8 14.21 1.62-5.49.28 9.54 8.3-33.52.21 26.49 1.16-8.96 2.33 24.15-47.73-5.13 26.27-9.73z"/><path fill="#6b6d25" d="m201.63 282.75 3.02-25.61.78 22.03 2.16-9.62 1.57 16.02 1.72-6.24.12 10.78 8.89-38.05-.24 29.92 1.32-10.15 1.93 27.23-30.15-18.2 8.87 1.89z"/></g><path fill="#ede8fd" d="M1024 244.99c12.94-2.34-7.28 59.42-7.28 59.42l-281.25.29-4.37.25-8.81.51-3.89.23-21.69 1.25-40.76 2.37h-.01l-53.6 3.11h-.01l-59.97 3.47-21.76 1.26-12.96.75-19.46 1.13-21.94 1.27-1.98.12-2.07.12h-.27l-5.7.35-10.81.63-148.99-5.49h-.02l-83.15-3.07-222.17-8.18s-10.8-46.33-1.07-44.91c227 33.2 737 38.92 1034-14.88Z"/><path fill="#8e62bf" d="m282.48 316.02-79.36-3.06-145.96-33.52h47.52l177.8 36.58zm183.04 3.01-22.83 1.38-54.91-.83-174.79-40.14h60.12l192.41 39.59zm108.95-6.62-57.23 3.48-158.69-36.45h36.83l179.09 32.97zm127.08-7.72-4.17.25-8.41.51-3.72.24-20.69 1.25-38.91 2.36h-.01l-167.45-29.86h79.45L664.56 299l8.91 1.36 17.85 2.76 5.3.81 4.93.76zm179.04-.63-99.8.38-10.52-3.92-2.21-.39-41.96-7.49-7.27-1.3-9.02-1.61-17.46-3.11-25.85-4.61-.36-.06-.09-.02-14-2.49h61.46l167.08 24.62zm210.41.19-99.81.38-99.04-11.99-7.27-1.3-9.02-1.61-17.46-3.11-25.85-4.61-.36-.06-.09-.02-13.99-2.49h61.45L1091 304.25z" opacity=".1" style="mix-blend-mode:multiply"/><path fill="#522f5f" d="M0 0h1000v457.92H0z" opacity=".25" style="mix-blend-mode:color"/></g></svg>