<?xml version="1.0" encoding="UTF-8"?> <svg xmlns="http://www.w3.org/2000/svg" viewBox="0 0 128 40"><path d="M124 40H4a4.012 4.012 0 0 1-4-4V4a4.012 4.012 0 0 1 4-4h120a4.012 4.012 0 0 1 4 4v32a4.012 4.012 0 0 1-4 4Z" data-name="Path 9"></path><path fill="#fff" d="m18.2 29.3-9-1.3v-7.6h9v8.9Zm0-9.6h-9v-7.2l9-1.3v8.5ZM30.5 31l-11.6-1.7v-8.9h11.6V31Zm0-11.3H18.9v-8.5l11.6-1.7ZM46 15.2a5.925 5.925 0 0 1-2.3.4 3.857 3.857 0 0 1-2.8-1 3.956 3.956 0 0 1-1-2.8 3.753 3.753 0 0 1 4-3.9 6.77 6.77 0 0 1 1.9.3l-.2.8a3.506 3.506 0 0 0-1.6-.3 2.784 2.784 0 0 0-3 3 2.709 2.709 0 0 0 2.9 3 3.475 3.475 0 0 0 1.3-.2v-2.2h-1.5v-.8h2.4v3.7Zm2-2.2a1.757 1.757 0 0 0 1.8 1.9 3.061 3.061 0 0 0 1.5-.3l.2.7a3.615 3.615 0 0 1-1.8.3 2.494 2.494 0 0 1-2.6-2.7c0-1.6.9-2.9 2.5-2.9a2.263 2.263 0 0 1 2.2 2.5v.5H48Zm2.9-.7c0-.6-.3-1.6-1.3-1.6s-1.4.9-1.5 1.6Zm3.3-3.7v1.5h1.4v.7h-1.4v2.9c0 .7.2 1 .7 1a1.083 1.083 0 0 0 .6-.1v.7a2.22 2.22 0 0 1-.9.1 1.053 1.053 0 0 1-1-.4 1.955 1.955 0 0 1-.4-1.4v-2.9h-.8V10h.8V8.7l1-.1Zm5.9 0a.576.576 0 0 1-.6.6.6.6 0 1 1 .6-.6ZM59 15.5v-5.4h1v5.4h-1Zm3.7-6.9v1.5h1.4v.7h-1.4v2.9c0 .7.2 1 .7 1a1.083 1.083 0 0 0 .6-.1v.7a2.22 2.22 0 0 1-.9.1 1.053 1.053 0 0 1-1-.4 1.955 1.955 0 0 1-.4-1.4v-2.9h-.8V10h.8V8.7l1-.1Zm9.6 4.2a2.677 2.677 0 0 1-2.7 2.9 2.634 2.634 0 0 1-2.6-2.8 2.665 2.665 0 0 1 2.6-2.9 2.549 2.549 0 0 1 2.7 2.8Zm-4.2 0c0 1.2.7 2.1 1.6 2.1s1.6-.9 1.6-2.1c0-.9-.5-2.1-1.6-2.1s-1.6 1.1-1.6 2.1Zm5.4-1.2v-1.5h.9l.1.9a2.06 2.06 0 0 1 1.8-1c.7 0 1.9.4 1.9 2.3v3.2h-1v-3.1c0-.9-.3-1.6-1.2-1.6a1.521 1.521 0 0 0-1.3 1 4.331 4.331 0 0 0-.1.5v3.2h-1v-3.9Zm-31 20.1-2.7-10.9h1.5l1.3 5.5.8 3.8c.2-1.1.5-2.4.9-3.8l1.4-5.5h1.5l1.3 5.5.8 3.7a34.185 34.185 0 0 1 .9-3.8l1.4-5.5H53l-3.1 10.9h-1.5L47 25.9l-.7-3.6-.8 3.6-1.5 5.7h-1.5Zm13-10.1a.839.839 0 0 1-.9.9.9.9 0 0 1 0-1.8q.9.15.9.9Zm-1.6 10.1v-7.8h1.4v7.8Zm3.2-5.7-.1-2.1h1.3l.1 1.3a3.013 3.013 0 0 1 2.6-1.5c1.1 0 2.7.6 2.7 3.3v4.7h-1.4v-4.5c0-1.3-.5-2.3-1.8-2.3a2.039 2.039 0 0 0-1.9 1.5 1.483 1.483 0 0 0-.1.7v4.7h-1.4V26Zm15.5-5.8v9.5a12.122 12.122 0 0 0 .1 2h-1.3l-.1-1.4a2.76 2.76 0 0 1-2.6 1.5c-1.9 0-3.3-1.6-3.3-4 0-2.6 1.6-4.2 3.5-4.2a2.5 2.5 0 0 1 2.3 1.2v-4.7h1.4ZM71.2 27a1.268 1.268 0 0 0-.1-.6 2.043 2.043 0 0 0-2-1.6c-1.5 0-2.3 1.3-2.3 3 0 1.6.8 2.9 2.3 2.9a2.2 2.2 0 0 0 2.1-1.7c0-.2.1-.4.1-.6V27Zm10.3.7a3.859 3.859 0 0 1-3.9 4.2 3.711 3.711 0 0 1-3.7-4 3.866 3.866 0 0 1 3.9-4.2c2.2 0 3.7 1.6 3.7 4Zm-6.1.1c0 1.7 1 3 2.4 3 1.3 0 2.4-1.3 2.4-3 0-1.3-.7-3-2.3-3-1.8-.1-2.5 1.5-2.5 3Zm7.9-4 1 4 .6 2.5.7-2.5 1.3-4h1.2l1.2 3.9c.3.9.5 1.8.7 2.6a12.883 12.883 0 0 1 .6-2.5l1.1-3.9h1.4l-2.5 7.8h-1.3L88.1 28a19.738 19.738 0 0 1-.7-2.6l-.7 2.6-1.3 3.7h-1.2l-2.3-7.8h1.4Zm10.9 6.4a3.568 3.568 0 0 0 1.9.6c1 0 1.5-.5 1.5-1.2s-.4-1.1-1.4-1.4c-1.4-.5-2.1-1.3-2.1-2.2 0-1.3 1-2.3 2.7-2.3a3.312 3.312 0 0 1 1.9.5l-.4 1a3.017 3.017 0 0 0-1.6-.5 1.168 1.168 0 0 0-1.3 1.1c0 .6.5.9 1.5 1.3 1.3.5 2 1.2 2 2.4 0 1.4-1.1 2.3-2.9 2.3a4.767 4.767 0 0 1-2.2-.5l.4-1.1Zm11.3-7.7-1.8 1-.3-1.1 2.3-1.2h1.2v10.5h-1.4v-9.2Zm11.2 3.8c0 3.6-1.3 5.5-3.6 5.5-2 0-3.4-1.9-3.5-5.4 0-3.5 1.5-5.5 3.6-5.5 2.3.1 3.5 2.1 3.5 5.4Zm-5.7.2c0 2.7.8 4.3 2.1 4.3 1.4 0 2.1-1.7 2.1-4.4 0-2.6-.7-4.3-2.1-4.3-1.2 0-2.1 1.5-2.1 4.4Z" data-name="Path 10"></path></svg> 