<?xml version="1.0" encoding="UTF-8"?> <svg xmlns="http://www.w3.org/2000/svg" xmlns:xlink="http://www.w3.org/1999/xlink" viewBox="0 0 384.9 81.9"><defs><path id="a" d="M2.4 0h382.4v82.2H2.4z"></path></defs><clipPath id="b"><use xlink:href="#a"></use></clipPath><g clip-path="url(#b)"><path fill="#4c2870" d="M143.8 22.8h-3.4v10.7h-6.8V5.2H144c6.2 0 11.1 2.2 11.1 8.7s-5.4 8.9-11.3 8.9m-.4-12.1h-3v6.7h2.9c2.6 0 4.9-.8 4.9-3.4s-2.4-3.3-4.8-3.3m39.5 23.5c-7.4 0-12.1-4.6-12.1-11.4V5.2h6.8v17.1c0 3 1.5 5.8 5.3 5.8s5.3-2.8 5.3-5.8V5.2h6.8v17.6c.1 6.8-4.7 11.4-12.1 11.4m44.9-.7-6.1-11.2h-2.3v11.2h-6.7V5.2h10.8c5.4 0 10.8 2.1 10.8 8.6.1 3.6-2.4 6.8-5.9 7.6l7.4 12.1h-8zm-4.9-22.8h-3.6v6.6h3.2c2.2 0 5-.6 5-3.4 0-2.7-2.5-3.2-4.6-3.2m38.5 12.1H258v10.7h-6.8V5.2h10.4c6.2 0 11.1 2.2 11.1 8.7s-5.4 8.9-11.3 8.9m-.4-12.1h-3v6.7h2.9c2.6 0 4.9-.8 4.9-3.4s-2.4-3.3-4.8-3.3m27.8 22.8V5.2h6.8v22.3h11v6zm33 0V5.2h19V11h-12.4v5.3h11.8v5.5h-11.8v5.8h13.1v5.9zM145.6 59v22.5h-6.8V59h-8v-5.8h22.8V59zm38.3 22.5-6.1-11.2h-2.3v11.2h-6.7V53.2h10.8c5.4 0 10.8 2.1 10.8 8.6 0 3.8-2.2 6.5-5.9 7.6l7.4 12.1h-8zm-4.8-22.8h-3.6v6.6h3.2c2.2 0 5-.6 5-3.4 0-2.7-2.5-3.2-4.6-3.2m47.4 22.8-2.2-5.6h-11l-2.1 5.6h-7.4l11.9-28.3h6.6l11.8 28.3h-7.6zm-7.6-20.8-3.6 9.7h7.1l-3.5-9.7zM259 81.5h-10.6V53.2h10.2c8 0 16.2 3.4 16.2 14.1.1 9.9-8 14.2-15.8 14.2m-.5-22.5h-3.4v16.6h3.2c4.9 0 9.4-2 9.4-8.3s-4.5-8.3-9.2-8.3m32.9-5.8h6.9v28.3h-6.9zm42.7 28.3L322.7 63h-.1l.2 18.5h-6.7V53.2h7.8l11.4 18.4h.1l-.2-18.4h6.7v28.3zm39.8.7c-9 0-15.5-6-15.5-14.9 0-9.1 6.7-14.9 15.4-14.9 4.4 0 8.6 1.5 10.9 3.8l-4.3 4.9c-1.6-1.7-4-2.7-6.4-2.6-4.8 0-8.3 3.8-8.3 8.8s3.1 8.9 8.6 8.9c1.5 0 2.9-.2 4.3-.8v-5.2h-5.4v-5.5h11.7v15c-3.4 1.7-7.2 2.6-11 2.5"></path></g><defs><path id="c" d="m18 0 56.6 81.9v-1.4c0-13.9 6.4-26.9 16.8-36.2 5.9-5.2 9-12.9 8.4-20.8C98.9 10.5 87 0 74.1 0H18z"></path></defs><clipPath id="d"><use xlink:href="#c"></use></clipPath><g clip-path="url(#d)"><linearGradient id="e" x1="86.546" x2="49.876" y1="10.669" y2="51.338" gradientUnits="userSpaceOnUse"><stop offset="0" stop-color="#7f408e"></stop><stop offset="1" stop-color="#4c2870"></stop></linearGradient><path fill="url(#e)" d="M-22.7 45.2 55-41l86.2 77.7-77.7 86.2z"></path></g><defs><path id="f" d="m2.4 0 72.2 81.9L29.6 0z"></path></defs><clipPath id="g"><use xlink:href="#f"></use></clipPath><g clip-path="url(#g)"><linearGradient id="h" x1="73.586" x2=".918" y1="80.499" y2="-1.493" gradientUnits="userSpaceOnUse"><stop offset="0" stop-color="#4c2870"></stop><stop offset=".51" stop-color="#009430"></stop><stop offset="1" stop-color="#ffed00"></stop></linearGradient><path fill="url(#h)" d="m-38.2 36 81-71.8 72.4 81.6-81 71.9z"></path></g></svg> 