<svg xmlns="http://www.w3.org/2000/svg" xmlns:xlink="http://www.w3.org/1999/xlink" viewBox="0 0 193.58 133.64">
  <style>
    .B,.E,.G,.H,.L,.N,.S,.T{mix-blend-mode:multiply}.K,.O{mix-blend-mode:overlay}.A,.C,.I,.J,.P,.R{mix-blend-mode:soft-light}.U{opacity:.3}.V{fill:#fffea9}.W{opacity:.36}.X{opacity:.5}.Y{fill:#cf567e}.Z{fill:#b50064}.a{fill:#ffec97}.b{fill:#ffb965}.c{fill:#ffb13e}.d{opacity:.8}.e{fill:#ffd97f}.f{fill:#bce200}.g{fill:#61b600}.h{fill:#ffdac7}.i{fill:#c8f57a}
  </style>
  <defs>
    <linearGradient xlink:href="#AI" id="A" x1="85.045" x2="157.835" y1="22.921" y2="53.624">
      <stop offset="0" stop-color="#d55639"/>
      <stop offset=".09" stop-color="#d05139"/>
      <stop offset=".2" stop-color="#c3443a"/>
      <stop offset=".31" stop-color="#ae2e3b"/>
      <stop offset=".38" stop-color="#9d1c3d"/>
      <stop offset=".44" stop-color="#b9372c"/>
      <stop offset=".51" stop-color="#d34e1d"/>
      <stop offset=".59" stop-color="#e66112"/>
      <stop offset=".68" stop-color="#f46e0a"/>
      <stop offset=".79" stop-color="#fc7505"/>
      <stop offset=".99" stop-color="#ff7804"/>
    </linearGradient>
    <linearGradient xlink:href="#AI" id="B" x1="90.645" x2="163.463" y1="9.774" y2="40.488">
      <stop offset="0" stop-color="#ff861d"/>
      <stop offset=".54" stop-color="#ff861d"/>
      <stop offset=".55" stop-color="#ff9020"/>
      <stop offset=".6" stop-color="#ffae29"/>
      <stop offset=".65" stop-color="#ffc832"/>
      <stop offset=".7" stop-color="#ffdb38"/>
      <stop offset=".77" stop-color="#ffe93c"/>
      <stop offset=".85" stop-color="#fff13f"/>
      <stop offset=".99" stop-color="#fff440"/>
    </linearGradient>
    <linearGradient xlink:href="#AI" id="C" x1="105.376" x2="150.146" y1="15.814" y2="34.698">
      <stop offset="0" stop-color="#d55639"/>
      <stop offset=".06" stop-color="#d25139"/>
      <stop offset=".13" stop-color="#cc443b"/>
      <stop offset=".16" stop-color="#c83c3d"/>
      <stop offset=".43" stop-color="#ce4138"/>
      <stop offset=".79" stop-color="#df4f2c"/>
      <stop offset=".99" stop-color="#ed5a24"/>
    </linearGradient>
    <linearGradient xlink:href="#AI" id="D" x1="105.303" x2="149.179" y1="17.248" y2="35.755">
      <stop offset="0" stop-color="#ff861d"/>
      <stop offset=".47" stop-color="#ff8218"/>
      <stop offset=".99" stop-color="#ff780b"/>
    </linearGradient>
    <linearGradient xlink:href="#AI" id="E" x1="122.857" x2="124.537" y1="37.967" y2="33.987">
      <stop offset="0" stop-color="#ff7920"/>
      <stop offset=".19" stop-color="#ea602a"/>
      <stop offset=".45" stop-color="#d34336"/>
      <stop offset=".67" stop-color="#c5323e"/>
      <stop offset=".84" stop-color="#c02c41"/>
    </linearGradient>
    <linearGradient xlink:href="#AI" id="F" x1="116.214" x2="129.96" y1="33.82" y2="39.848">
      <stop offset="0" stop-color="#ffa31d"/>
      <stop offset=".29" stop-color="#ffa71d"/>
      <stop offset=".6" stop-color="#ffb41e"/>
      <stop offset=".93" stop-color="#ffca1f"/>
      <stop offset=".99" stop-color="#ffd020"/>
    </linearGradient>
    <linearGradient xlink:href="#AI" id="G" x1="65.76" x2="92" y1="116.69" y2="54.04" gradientTransform="rotate(-28.33 -33.35309186 29.8710187) scale(.81 1)">
      <stop offset="0" stop-color="#8dff00"/>
      <stop offset=".47" stop-color="#007e00"/>
      <stop offset="1" stop-color="#00313b"/>
    </linearGradient>
    <linearGradient xlink:href="#AI" id="H" x1="75.956" x2="104.887" y1="29.455" y2="24.515">
      <stop offset="0"/>
      <stop offset=".21" stop-color="#2d2d00"/>
      <stop offset=".59" stop-color="#797800"/>
      <stop offset=".87" stop-color="#a8a700"/>
      <stop offset="1" stop-color="#bbba00"/>
    </linearGradient>
    <linearGradient xlink:href="#AI" id="I" x1="150.145" x2="188.18" y1="84.09" y2="126.451">
      <stop offset="0" stop-color="#d55639"/>
      <stop offset=".04" stop-color="#d05139"/>
      <stop offset=".09" stop-color="#c3443a"/>
      <stop offset=".13" stop-color="#ae2e3b"/>
      <stop offset=".16" stop-color="#9d1c3d"/>
      <stop offset=".61" stop-color="#d34050"/>
      <stop offset=".99" stop-color="#ff5e60"/>
    </linearGradient>
    <linearGradient xlink:href="#AI" id="J" x1="155.111" x2="199.291" y1="84.067" y2="112.362">
      <stop offset="0" stop-color="#ffe0a9"/>
      <stop offset=".16" stop-color="#ffdfa4"/>
      <stop offset=".33" stop-color="#ffdf97"/>
      <stop offset=".51" stop-color="#ffde80"/>
      <stop offset=".7" stop-color="#ffdd61"/>
      <stop offset=".89" stop-color="#ffdb3a"/>
      <stop offset=".99" stop-color="#ffdb20"/>
    </linearGradient>
    <linearGradient xlink:href="#C" id="K" x1="166.068" x2="189.291" y1="86.916" y2="112.78"/>
    <linearGradient xlink:href="#J" id="L" x1="165.475" x2="188.277" y1="87.677" y2="113.072"/>
    <linearGradient xlink:href="#AI" id="M" x1="118.94" x2="138.23" y1="83.08" y2="83.08">
      <stop offset="0" stop-color="#4a2986"/>
      <stop offset="1" stop-color="#83006b"/>
    </linearGradient>
    <linearGradient xlink:href="#AI" id="N" x1="290.12" x2="268.88" y1="14.83" y2="-37" gradientTransform="rotate(25.82 -2.45594253 -222.46780238) scale(.94 .89)">
      <stop offset="0" stop-color="#6dff00"/>
      <stop offset=".44" stop-color="#388a1f"/>
      <stop offset="1" stop-color="#004d00"/>
    </linearGradient>
    <linearGradient xlink:href="#AI" id="O" x1="137.85" x2="170.33" y1="90.25" y2="90.25">
      <stop offset="0"/>
      <stop offset=".29" stop-color="#2b4306"/>
      <stop offset=".63" stop-color="#5d8f0d"/>
      <stop offset=".88" stop-color="#7cbe11"/>
      <stop offset="1" stop-color="#88d113"/>
    </linearGradient>
    <linearGradient xlink:href="#AI" id="P" x1="126.473" x2="130.313" y1="87.013" y2="83.159">
      <stop offset="0" stop-color="#87c500"/>
      <stop offset=".38" stop-color="#308d00"/>
      <stop offset="1" stop-color="#00571b"/>
    </linearGradient>
    <linearGradient xlink:href="#AI" id="Q" x1="106.978" x2="165.952" y1="113.516" y2="121.259">
      <stop offset="0" stop-color="#d55639"/>
      <stop offset=".04" stop-color="#d05139"/>
      <stop offset=".09" stop-color="#c3443a"/>
      <stop offset=".13" stop-color="#ae2e3b"/>
      <stop offset=".16" stop-color="#9d1c3d"/>
      <stop offset=".61" stop-color="#d34f1d"/>
      <stop offset=".99" stop-color="#ff7804"/>
    </linearGradient>
    <linearGradient xlink:href="#AI" id="R" x1="136.912" x2="139.043" y1="114.057" y2="97.827">
      <stop offset="0" stop-color="#ba241d"/>
      <stop offset=".18" stop-color="#bc281d"/>
      <stop offset=".38" stop-color="#c5351d"/>
      <stop offset=".59" stop-color="#d44c1e"/>
      <stop offset=".8" stop-color="#e86a1f"/>
      <stop offset=".99" stop-color="#ff8e20"/>
    </linearGradient>
    <linearGradient xlink:href="#C" id="S" x1="120.081" x2="156.32" y1="103.668" y2="108.426"/>
    <linearGradient xlink:href="#D" id="T" x1="120.209" x2="155.764" y1="104.613" y2="109.281"/>
    <linearGradient xlink:href="#A" id="U" x1="58.633" x2="128.253" y1="77.984" y2="72.981"/>
    <linearGradient xlink:href="#AI" id="V" x1="57.672" x2="127.201" y1="59.455" y2="59.452">
      <stop offset="0" stop-color="#ff861d"/>
      <stop offset=".31" stop-color="#ff8a1d"/>
      <stop offset=".65" stop-color="#ff971e"/>
      <stop offset=".99" stop-color="#ffad20"/>
    </linearGradient>
    <linearGradient xlink:href="#C" id="W" x1="70.849" x2="113.619" y1="61.035" y2="57.962"/>
    <linearGradient xlink:href="#D" id="X" x1="71.343" x2="113.295" y1="62.193" y2="59.178"/>
    <linearGradient xlink:href="#AI" id="Y" x1="12.96" x2="75.3" y1="98.48" y2="98.48">
      <stop offset="0" stop-color="#c42500"/>
      <stop offset=".06" stop-color="#c12001"/>
      <stop offset=".12" stop-color="#b81304"/>
      <stop offset=".16" stop-color="#b00607"/>
      <stop offset=".37" stop-color="#b50c06"/>
      <stop offset=".66" stop-color="#c31d03"/>
      <stop offset=".99" stop-color="#db3a00"/>
      <stop offset=".99" stop-color="#dc3b00"/>
    </linearGradient>
    <linearGradient xlink:href="#AI" id="Z" x1="44.05" x2="44.05" y1="99.06" y2="70.45">
      <stop offset="0" stop-color="#eb5a00"/>
      <stop offset=".99" stop-color="#ee5e00"/>
    </linearGradient>
    <linearGradient xlink:href="#Y" id="a" x1="24.78" x2="63.12" y1="85.06" y2="85.06"/>
    <linearGradient xlink:href="#Z" id="b" x1="25.42" x2="62.93" y1="86.68" y2="86.68"/>
    <linearGradient xlink:href="#C" id="c" x1="44.503" x2="101.364" y1="82.265" y2="117.741"/>
    <linearGradient xlink:href="#AI" id="d" x1="75.41" x2="84.953" y1="96.091" y2="80.794">
      <stop offset="0" stop-color="#ff861d"/>
      <stop offset=".73" stop-color="#ff8a1e"/>
      <stop offset=".99" stop-color="#ff8e20"/>
    </linearGradient>
    <linearGradient xlink:href="#C" id="e" x1="63.141" x2="98.104" y1="77.934" y2="99.748"/>
    <linearGradient xlink:href="#D" id="f" x1="63.022" x2="97.323" y1="79.05" y2="100.451"/>
    <linearGradient xlink:href="#AI" id="g" x1="2.987" x2="54.105" y1="123.39" y2="101.29">
      <stop offset="0" stop-color="#d55639"/>
      <stop offset=".17" stop-color="#d25139"/>
      <stop offset=".37" stop-color="#cc443b"/>
      <stop offset=".45" stop-color="#c83c3d"/>
      <stop offset=".47" stop-color="#d04634"/>
      <stop offset=".51" stop-color="#e15c22"/>
      <stop offset=".57" stop-color="#ee6d14"/>
      <stop offset=".64" stop-color="#f8790b"/>
      <stop offset=".73" stop-color="#fd8005"/>
      <stop offset=".99" stop-color="#ff8204"/>
    </linearGradient>
    <linearGradient xlink:href="#d" id="h" x1="27.586" x2="21.408" y1="110.108" y2="95.816"/>
    <linearGradient xlink:href="#C" id="i" x1="8.23" x2="39.539" y1="109.989" y2="96.453"/>
    <linearGradient xlink:href="#D" id="j" x1="9.042" x2="39.727" y1="110.608" y2="97.342"/>
    <linearGradient xlink:href="#AI" id="k" x1="58.718" x2="124.054" y1="95.335" y2="100.236">
      <stop offset="0" stop-color="#ff9000"/>
      <stop offset=".02" stop-color="#fb8b04"/>
      <stop offset=".05" stop-color="#f27e0f"/>
      <stop offset=".08" stop-color="#e36823"/>
      <stop offset=".1" stop-color="#d24f3a"/>
      <stop offset=".28" stop-color="#ce483b"/>
      <stop offset=".45" stop-color="#c83c3d"/>
      <stop offset=".47" stop-color="#d04634"/>
      <stop offset=".51" stop-color="#e15c22"/>
      <stop offset=".57" stop-color="#ee6d14"/>
      <stop offset=".64" stop-color="#f8790b"/>
      <stop offset=".73" stop-color="#fd8005"/>
      <stop offset=".99" stop-color="#ff8204"/>
    </linearGradient>
    <linearGradient xlink:href="#AI" id="l" x1="59.673" x2="124.989" y1="83.001" y2="87.901">
      <stop offset="0" stop-color="#ffbb1d"/>
      <stop offset=".15" stop-color="#ffb11d"/>
      <stop offset=".41" stop-color="#ff961d"/>
      <stop offset=".54" stop-color="#ff861d"/>
      <stop offset=".55" stop-color="#ff9020"/>
      <stop offset=".6" stop-color="#ffae29"/>
      <stop offset=".65" stop-color="#ffc832"/>
      <stop offset=".7" stop-color="#ffdb38"/>
      <stop offset=".77" stop-color="#ffe93c"/>
      <stop offset=".85" stop-color="#fff13f"/>
      <stop offset=".99" stop-color="#fff440"/>
    </linearGradient>
    <linearGradient xlink:href="#C" id="m" x1="72.347" x2="112.454" y1="84.093" y2="87.101"/>
    <linearGradient xlink:href="#AI" id="n" x1="72.676" x2="112.016" y1="85.18" y2="88.131">
      <stop offset="0" stop-color="#ff9d1d"/>
      <stop offset=".47" stop-color="#ff9d18"/>
      <stop offset=".99" stop-color="#ff9f0b"/>
      <stop offset=".99" stop-color="#ffa00b"/>
    </linearGradient>
    <linearGradient xlink:href="#E" id="o" x1="94.139" x2="94.42" y1="97.179" y2="93.43"/>
    <linearGradient xlink:href="#F" id="p" x1="90.624" x2="97.514" y1="96.585" y2="97.102"/>
    <linearGradient xlink:href="#AI" id="q" x1="120.35" x2="137.06" y1="99.27" y2="99.27">
      <stop offset="0" stop-color="#83006b"/>
      <stop offset="1" stop-color="#ff294e"/>
    </linearGradient>
    <linearGradient xlink:href="#q" id="r" x1="20.66" x2="43.63" y1="109.87" y2="109.87"/>
    <linearGradient xlink:href="#k" id="s" x1="59.272" x2="121.587" y1="156.658" y2="161.332"/>
    <linearGradient xlink:href="#AI" id="t" x1="69.2" x2="131.78" y1="102.74" y2="102.74">
      <stop offset="0" stop-color="#ffbb1d"/>
      <stop offset=".09" stop-color="#ffb326"/>
      <stop offset=".22" stop-color="#ffa43b"/>
      <stop offset=".25" stop-color="#ffaf40"/>
      <stop offset=".35" stop-color="#ffc84e"/>
      <stop offset=".45" stop-color="#ffdb58"/>
      <stop offset=".57" stop-color="#ffe960"/>
      <stop offset=".72" stop-color="#fff164"/>
      <stop offset=".99" stop-color="#fff466"/>
    </linearGradient>
    <linearGradient xlink:href="#C" id="u" x1="32.256" x2="67.637" y1="136.265" y2="151.189"/>
    <linearGradient xlink:href="#AI" id="v" x1="81.68" x2="119.29" y1="104.68" y2="104.68">
      <stop offset="0" stop-color="#ffa11d"/>
      <stop offset=".3" stop-color="#ff9c1b"/>
      <stop offset=".63" stop-color="#ff8f15"/>
      <stop offset=".98" stop-color="#ff790b"/>
      <stop offset=".99" stop-color="#ff780b"/>
    </linearGradient>
    <linearGradient xlink:href="#q" id="w" x1="71.77" x2="83.69" y1="113.39" y2="113.39"/>
    <linearGradient xlink:href="#q" id="x" x1="57.53" x2="87.59" y1="65.27" y2="65.27"/>
    <linearGradient xlink:href="#AI" id="y" x1="17.527" x2="79.028" y1="84.656" y2="43.81">
      <stop offset="0" stop-color="#f17439"/>
      <stop offset=".04" stop-color="#ed6f39"/>
      <stop offset=".09" stop-color="#e3623a"/>
      <stop offset=".14" stop-color="#d34c3b"/>
      <stop offset=".16" stop-color="#c83c3d"/>
      <stop offset=".18" stop-color="#ca413a"/>
      <stop offset=".32" stop-color="#db6727"/>
      <stop offset=".44" stop-color="#e88319"/>
      <stop offset=".55" stop-color="#f09410"/>
      <stop offset=".63" stop-color="#f39a0e"/>
      <stop offset=".65" stop-color="#f4a20b"/>
      <stop offset=".71" stop-color="#f9b706"/>
      <stop offset=".78" stop-color="#fcc502"/>
      <stop offset=".87" stop-color="#fece00"/>
      <stop offset=".99" stop-color="#ffd100"/>
    </linearGradient>
    <linearGradient xlink:href="#AI" id="z" x1="9.628" x2="71.288" y1="73.071" y2="32.12">
      <stop offset="0" stop-color="#ff8e20"/>
      <stop offset=".12" stop-color="#fb8320"/>
      <stop offset=".43" stop-color="#f46d21"/>
      <stop offset=".73" stop-color="#f06021"/>
      <stop offset="1" stop-color="#ef5c22"/>
    </linearGradient>
    <linearGradient xlink:href="#C" id="AA" x1="20.823" x2="58.634" y1="66.356" y2="41.245"/>
    <linearGradient xlink:href="#AI" id="AB" x1="22.432" x2="59.41" y1="67.568" y2="43.01">
      <stop offset="0" stop-color="#ff6b20"/>
      <stop offset=".5" stop-color="#f36021"/>
      <stop offset="1" stop-color="#ef5c22"/>
    </linearGradient>
    <linearGradient xlink:href="#G" id="AC" x1="-19.72" x2=".98" y1="133.61" y2="84.21" gradientTransform="rotate(-54.91 24.09754218 49.6361344) scale(.81 1)"/>
    <linearGradient xlink:href="#H" id="AD" x1="50.458" x2="71.186" y1="108.294" y2="93.084"/>
    <linearGradient id="AI" gradientUnits="userSpaceOnUse"/>
    <radialGradient xlink:href="#AI" id="AE" cx="44.89" cy="93.38" r="28.53" fx="44.89" fy="93.38" gradientTransform="translate(91.13)">
      <stop offset="0" stop-color="#56ff00"/>
      <stop offset=".23" stop-color="#3fbd00"/>
      <stop offset=".61" stop-color="#1d5800"/>
      <stop offset=".88" stop-color="#081800"/>
      <stop offset="1"/>
    </radialGradient>
    <radialGradient xlink:href="#AE" id="AF" cx="-13.93" cy="50.04" r="33.38" fx="-13.93" fy="50.04"/>
    <radialGradient xlink:href="#AI" id="AG" cx="-8.73" cy="72.37" r="53.82" fx="-8.73" fy="72.37" gradientTransform="translate(91.13)">
      <stop offset="0" stop-color="red"/>
      <stop offset=".18" stop-color="#d70000"/>
      <stop offset=".57" stop-color="#730000"/>
      <stop offset="1"/>
    </radialGradient>
    <path id="AH" d="M137.85 97.11c10.08 2.45 21.96.93 32.18 1.31 1.86.07-5.45-12.03-5.45-12.03s-17.86-5.41-19.25-4.3c-1.38 1.11-7.48 15.01-7.48 15.01Z"/>
  </defs>
  <path fill="url(#A)" d="M93.17 3.66c-.45 2.55-5.41 19.29-4.26 25.59 2.07 11.42 15.4 23.65 25.63 28.58 9.77 4.71 22.05 9.74 32.73 6.81 2.74-.75 12.55-15.74 12.55-15.74-21.46-16.46-43.14-31.83-66.65-45.24Z"/>
  <path fill="url(#B)" d="M159.97 48.65c-3.76 5.27-27.44-7.21-36.33-12.64-10.23-6.24-33.44-23.9-30.63-31.81 2.95-8.29 31.8 5.22 39.82 10.59 8.87 5.94 30.96 28.52 27.15 33.86Z"/>
  <path fill="url(#C)" d="M148.04 39.69c-.19.36-.48.63-.85.81-2.97 1.42-11.97-2.06-21.84-8.49-10.09-6.58-17.81-14.14-18.48-18.45-.09-.55-.05-1.05.11-1.5 1.43-4.01 12.41-1.27 24.01 6.93 11.31 8 18.73 17.49 17.06 20.7Z"/>
  <path fill="url(#D)" d="M147.18 40.49c-.76 1.31-11.97-2.06-21.84-8.49-10.09-6.58-19.28-16.51-18.48-18.45.71-1.73 12.82.64 23.09 7.79 10.04 6.99 18.08 17.7 17.23 19.16Z"/>
  <path d="M123.63 36.01c-2.73-2.24 9.6 1.37 13.76 3.18 4.14 1.8 8.21 2.82 10.76 1.06 2.58-1.77-3.87-8.75-10.03-16.12-.58-.7-1.13-1.64-1.7-2.46 8.77 2.02 17.3 11.59 21.08 19.42 9.24 19.11-32.11-3.63-33.87-5.08ZM93.34 5.45c-.53 1 6.68 9.67 8.43 10.56 1.74.88 2.01-4.58 6.33-5.9 4.34-1.33 16.53 4.46 16.53 4.46.26-.37-25.79-19.56-31.29-9.12Z" class="A U V"/>
  <path d="M95.93 41.28c-1.91-5.28 2.03-16.22 2.79-16.99s12.07 9.8 18.33 13.85c6.17 3.99-.74 20.65-.74 20.65s-17.4-9.26-20.39-17.51z" class="B W Y"/>
  <path d="M135.41 64.83c-.36-.52 7.27-12.54 8.56-12.72 1.3-.18 10.13.3 12.31-.84 2.2-1.14-6.04 9.61-8.79 12.54-2.7 2.89-12.09 1.01-12.09 1.01ZM95.5 39.41c.03 1.82-6.53-7.93-6.37-13.5.16-5.69 3.14-14.67 3.14-14.67s5.03 9.69 5.35 11.57c.32 1.86-2.2 11.95-2.12 16.59Z" class="C U b"/>
  <path d="M101.26 18.88s18.86 14.69 28.97 20.57c10.22 5.94 20.29 9.88 20.29 9.88-18.76-5.58-49.26-30.45-49.26-30.45Zm13.01-8.28s5.6.61 16.07 7.03c10.27 6.3 15.73 15.82 15.73 15.82s-5.6-7.72-15.09-14.46c-9.69-6.89-16.71-8.38-16.71-8.38Z" class="c"/>
  <path d="M108.27 16.86c-1.45-3.68 9.19-2.33 22.16 6.75 12.6 8.82 15.68 15.43 13.98 17.16 0 0 3.45-.08 3.62-1.37.84-6.08-10.3-15.47-17.79-20.61-15.93-10.91-21.4-9.27-22.83-6.8-1.41 2.45.85 4.87.85 4.87Z" class="E U Z"/>
  <g class="V">
    <path d="M121.37 29.28c-8.28-6.71 2.35-8.75 12-2.2 9.45 6.41 10.62 13.19 10.1 13.55s-15.49-5.99-22.1-11.35z" class="A U"/>
    <path d="M142.27 46.36c-2.55-1.45-2.18-4.93 3.94-.85 6.05 4.03.62 3.44-3.94.85ZM109.12 9.9c-3.34-.18-1.23-4.54 5.62-.57 6.76 3.91-.53.85-5.62.57Z"/>
  </g>
  <path fill="url(#E)" d="M115.8 30.88s.63-.96 7.56 3.07c6.83 3.98 8.21 7.16 8.21 7.16s-6.54-1.44-10.24-4.56c-3.74-3.16-5.53-5.67-5.53-5.67Z"/>
  <path fill="url(#F)" d="M116.9 32.24s3.19 2.91 6.32 4.99c3.1 2.06 6.42 3.36 6.42 3.36s-3.96-.27-7.15-2.29c-3.21-2.03-5.59-6.06-5.59-6.06Z"/>
  <path d="M117.82 31.19c-2.24-.76 3.13 4.36 6.66 6.51 3.5 2.13 5.23 2.39 5.48 2.17s-5.64-6.47-12.14-8.68z" class="E U Z"/>
  <path fill="url(#G)" d="M93.38 63.85C87 68.21 59.67 62.22 52.1 51.58c-2.61-3.68 1.27-25.13 1.27-25.13C60.57 16.31 69.67 4.68 81.18.23c2.91-1.12 20.79 2.06 21.76 5.08 5.33 16.61-.91 52.62-9.56 58.54Z"/>
  <path d="M90.77 58.36C84.2 63.8 57.12 57.2 54.01 47 49.44 32.01 80.51 1.73 93.28 3.3c14.33 1.76 4.79 49.02-2.51 55.06Z" class="G e" opacity=".81"/>
  <path fill="#dbb18c" d="M53.26 27.15c-.44.61-.25 7.21.47 8.41s16.98-4.89 20.2-7.02c3.25-2.15 13.39-22.29 13.39-22.29S80.33.53 79.5 1.07C69.3 7.71 60.39 17.21 53.25 27.14z" class="H"/>
  <path d="M52.1 51.58c10.72 1.09 24.59.8 33.38-1.49 1.07-.28-10.98-22.1-10.98-22.1s-18.75 8.79-20.68 9.19c-1.93.39-1.72 14.4-1.72 14.4Z" class="I X a"/>
  <path fill="url(#H)" d="M86.31 48.95c7.38-12.3 10.88-27.6 15.66-41.01.93-2.61-14.65-1.68-14.65-1.68S75.48 26.95 75.96 29.47c.48 2.49 10.35 19.48 10.35 19.48Z" class="X" style="mix-blend-mode:screen"/>
  <g class="a">
    <path d="M69.48 30.52s-3.16 1.62 3.7-3.85c3.38-2.69 5.15-3.32 5.15-3.32l-2.99 5.14c-.37.28-5.85 2.03-5.85 2.03z" class="J"/>
    <path d="m93.13 63.34-7.44-15.55c-.58-1.01-9.87-17.24-9.73-18.33s1.24-3.99 1.24-3.99-1.12 1.26.63 6.3c1.71 4.94 9.19 15.91 9.53 16.53.35.62 5.77 15.03 5.77 15.03z" class="K X"/>
    <path d="M72.34 5.88s-.28 1.09 2.31-.59c2.75-1.78 2.89-3.21 2.89-3.21s-2.68 1.32-5.2 3.8Z" class="J"/>
  </g>
  <path d="M86.46 51.18c-9.78-.69-19.95.53-29.65 1.81 0 0 4.98 4.62 15.15 8.52 9.96 3.82 21.42 2.34 21.42 2.34l-6.92-12.67z" class="L f"/>
  <path d="M85.52 47.42c-.64-.88 1.65-3.35 2.04-2.86.39.48.81 4.41.36 5.92-.36 1.22-2.4-3.06-2.4-3.06Z" class="a"/>
  <path d="M54.66 26.88c-1.28 1.81-.07 6.15.34 6.68.42.53 17.81-9.92 21.42-11.99 3.63-2.09 8.33-13.16 8.77-14.62.23-.75-3.62-2.62-9.82.7C67.6 11.81 59.8 19.6 54.66 26.88Z" class="N U g"/>
  <path d="M53.51 51.88s6.36 1.91 12.36 2.05c7.61.18 19.6-3.84 19.6-3.84-10.66.48-21.3 1.53-31.97 1.79Z" class="O U a"/>
  <path d="M88.53 45.3s6.69-5.43 9.39-14.46c2.8-9.38 3.38-20.97 3.38-20.97L88.53 45.3z" class="P h" opacity=".9"/>
  <path fill="url(#I)" d="M162.14 73.69c-1.26 1.17-11.11 8.41-12.68 12.68-3.15 8.54 1.81 20.73 7.19 28.37 7.81 11.1 18.57 14.1 21 14.2s14.79-6.35 14.79-6.35c-10.67-15.98-20.6-32.32-30.29-48.91z"/>
  <path fill="url(#J)" d="M192.62 122.49c-3.44 2.15-16.86-9.96-21.43-17.6-4.35-7.28-14.08-27.99-9.38-31 4.69-3 18.86 15.9 23.33 22.69 4.68 7.11 10.54 23.98 7.47 25.9Z"/>
  <path fill="url(#K)" d="M187.19 114.58c-.26.15-.56.22-.9.22-2.65-.01-7.87-4.5-12.44-11.58-4.74-7.33-7.22-14.95-6.11-17.61.14-.34.35-.6.62-.77 2.43-1.54 8.81 4.81 14.06 13.28 5.03 8.14 7.1 15.14 4.78 16.46Z"/>
  <path fill="url(#L)" d="M186.29 114.8c-1.15.68-7.87-4.5-12.44-11.58-4.74-7.33-7.14-16.96-6.11-17.61 1.08-.68 8.46 5.9 13.13 13.39 4.5 7.22 6.47 15.17 5.42 15.8Z"/>
  <path d="M171.19 104.89c-1.05-2.1 6.27 4.06 8.58 6.36 2.29 2.28 4.84 3.97 7.3 3.68 2.47-.29 1.18-5.37-1.46-11.69-2.73-6.54 8.95 5.85 7.9 14.49-1.46 11.98-20.53-9.27-22.32-12.84Zm-9.62-30.14c-.63.18.91 8.63 1.77 9.93.86 1.29 3.05-1.6 6.48-.39 3.42 1.21 9.73 9.18 9.73 9.18.28-.17-11.22-20.62-17.98-18.72Z" class="A U V"/>
  <path d="M149.7 96.99c.69-4.11 7.64-8.86 8.45-8.96.82-.1 4.7 10.95 7.63 15.69 2.86 4.63-8.23 12.26-8.23 12.26s-8.93-12.55-7.85-18.99Z" class="B W Y"/>
  <path d="M169.01 125.88c-.07-.43 9.81-5.55 10.81-5.3.99.24 7.18 2.73 9.18 2.58s-7.86 4.23-10.91 5.34c-3.02 1.1-9.08-2.62-9.08-2.62zm-18.88-30.24c-.68 1.14-1.5-7.91.78-11.18 2.32-3.33 7.77-7 7.77-7s-.23 7.97-.72 9.2-6.09 6.09-7.83 8.98z" class="C U b"/>
  <path d="M161.93 86.08s7.29 16.06 12.67 23.05c5.2 6.75 10.93 11.54 10.93 11.54-11.58-7.83-19.03-21.87-23.6-34.59Zm11.92 1.14s3.52 2.81 8.58 9.96c4.9 6.91 5.54 13.44 5.54 13.44s-1.35-5.65-5.57-12.5c-4.36-7.09-8.55-10.9-8.55-10.9Z" class="c"/>
  <path d="M167.49 88.06c.35-2.66 7.01 2.86 12.91 12.34 5.64 9.06 5.63 13.31 3.81 13.8 0 0 1.78.96 3.08.23 1.31-.73 1.69-5.72-5.32-16.67-7.41-11.56-11.41-13.46-13.28-12.75-1.86.71-1.19 3.05-1.19 3.05Z" class="E U Z"/>
  <g class="V">
    <path d="M172.05 100.25c-3.38-6.88 4.7-3.79 9.19 3.02 4.35 6.59 2.85 10.53 2.35 10.58s-8.87-8.15-11.54-13.6z" class="A U"/>
    <path d="M180.68 116.77c-1.31-1.56.18-3.39 3.13.6 2.88 3.91-.8 2.17-3.13-.6ZM170.6 84.64c-2.21-1.58.77-2.89 4.04 2.12 3.2 4.89-.69.26-4.04-2.12Z"/>
  </g>
  <path fill="url(#M)" d="M119.85 82.52c-.65-3.32-3.3-16.6 5.24-17.94 20.15-3.16 12.42 30.32 7.43 35.98-5.39 6.1-11.51-12.18-12.67-18.04Z" class="d" style="mix-blend-mode:multiply"/>
  <path fill="url(#N)" d="M131.89 108.21c-7.88-4.28-18.52-30.49-13.86-43.51 1.4-3.91 19-5.72 19-5.72 10.42 5.22 21.26 11.91 28.48 20.92 1.86 2.32 7.62 17.23 6.41 18.63-7.54 8.65-33.25 13.36-40.03 9.68Z"/>
  <path d="M134.07 104.07c-7.71-4.01-18.37-31.87-11.6-38.77 8.79-8.95 42.61 15.4 46.36 25.29 4.19 11.08-28.42 16.77-34.75 13.48Z" class="G e" opacity=".81"/>
  <path fill="#ffffc2" d="M136.49 59.03c-.61-.31-5.25 1.59-5.78 2.68s11.36 15.79 14.27 18.25c2.88 2.44 19.61 6.43 19.61 6.43s.4-7.17-.25-7.78c-8.16-7.69-17.84-14.52-27.85-19.58z" opacity=".88"/>
  <path d="M118.02 64.7c4.27 11.27 11.59 24.02 18.64 32.05.77.88 8.93-16.39 8.93-16.39s-14.81-16.18-16.01-18.11c-1.21-1.95-11.55 2.45-11.55 2.45Z" class="I X a"/>
  <use xlink:href="#AH" fill="#ffff32" class="U"/>
  <use xlink:href="#AH" fill="url(#O)" style="mix-blend-mode:screen"/>
  <path d="M141.59 76.28s-2.59-2.6 4.24 2.5l5.66 4-5.83-1.53c-.35-.27-4.07-4.98-4.07-4.98z" class="i"/>
  <path d="m132.09 107.82 6.19-11.62c.36-.83 6.28-13.94 7.05-14.1s3.13.08 3.13.08-1.33-.71-3.73 2.26c-2.36 2.92-5.69 12.89-5.91 13.39s-6.72 9.99-6.72 9.99z" class="K X a"/>
  <path d="M158.53 73.16s-.79-.03 1.31 2c2.19 2.11 3.1 1.93 3.1 1.93s-1.88-2.13-4.41-3.93Z" class="i"/>
  <path d="M136.47 97.96c-5.14-9.54-11.21-18.66-17-27.82 0 0-.86 6.74 2.09 17.98 2.81 10.69 10.33 20.09 10.33 20.09l4.58-10.25z" class="L f"/>
  <path d="M138.43 95.93c.24-.84 3.01.39 2.89.88-.11.49-2.42 2.09-3.63 2.19-.98.08.74-3.06.74-3.06Z" class="i"/>
  <path d="M137.29 60.45c-1.85-.89-4.38 1.49-4.56 2.08-.19.58 14.87 15.15 17.83 17.96 2.92 2.77 11.66 4.23 12.71 4.28.53.03.01-3.43-4.56-8.45-4.51-4.95-14.92-12.72-21.41-15.86Z" class="N U g"/>
  <path d="M118.54 66.3s1.93 7.3 5.1 13.36c3.91 7.49 13.03 17.09 13.03 17.09-6.34-9.93-12.78-19.93-18.13-30.44Z" class="O U a"/>
  <path d="M141.35 97.88s6.74 1.97 13.58 1.55l13.72-1.04s-15.1-2.06-27.3-.5z" class="P h" opacity=".9"/>
  <path fill="url(#P)" d="M125.25 83.11c.54-.75 3.33-2.47 4.95.07 1.6 2.52 1.7 3.36 1.38 3.81-.32.44-2.51 2.65-4.55.58-2.06-2.09-2.18-3.9-1.77-4.47Z"/>
  <path fill="#75ff00" d="M125.09 84.28s1.04 1.58 2.83 2.93c1.77 1.34 3.13.32 3.13.32s-1.53 1.67-3.17 1.12-2.63-2.95-2.79-4.37z"/>
  <path fill="#db8e8c" d="M127.66 81.86c-1.91 1.25-.91 5.42 1.59 5.61s2.47-1.74 1.22-3.5c-1.26-1.78-2.81-2.11-2.81-2.11z" style="mix-blend-mode:multiply"/>
  <path fill="#ffff2d" d="M127.05 88.19c.04-.23 2.21.47 2.21.47s-2.32.25-2.21-.47Z"/>
  <path fill="url(#AE)" d="M165.69 97.88c-2.46 14.49-19.26 22.18-32.33 22.38-14.69.22-27.21-12.08-27.44-26.45-.27-16.75 17.45-28.76 32.95-27.19 14.6 1.49 29.45 15.78 26.83 31.26Z" style="mix-blend-mode:screen"/>
  <path fill="url(#AF)" d="M110.58 52.17c-.47 16.52-15.73 30.59-31.9 31.19-15.83.59-32.23-11.58-34.52-27.06-2.68-18.11 12.96-37.22 31.39-39.41 19.32-2.3 35.55 17.19 35.04 35.28Z" style="mix-blend-mode:screen"/>
  <path fill="url(#Q)" d="M108.68 100.48c0 1.67-1.35 12.72.15 16.83 1.47 4.02 10.91 10.93 23.79 12.8 13.9 2.02 25.09-2.58 27.22-4.01 2.15-1.44 7.28-13.86 7.28-13.86-19.39-4.33-38.86-8.45-58.45-11.77Z"/>
  <path fill="url(#R)" d="M167.2 112.04c-.91 3.42-21.11 3.61-30.75 1.89-9.63-1.71-27.98-8.21-27.82-13.09.16-4.94 24.13-4.37 31.64-2.79 9.22 1.94 27.71 11.1 26.94 13.99Z"/>
  <path fill="url(#S)" d="M156.13 109.71c-.09.29-.27.54-.54.77-2.1 1.77-9.74 2.06-18.44.47-8.74-1.6-15.73-4.66-16.84-7.2-.14-.32-.19-.65-.13-.96.52-2.82 9.23-3.64 19.31-1.58 10.01 2.05 17.4 5.94 16.63 8.5Z"/>
  <path fill="url(#T)" d="M155.6 110.47c-.32 1.19-9.74 2.06-18.44.47-8.74-1.6-17.05-5.99-16.84-7.2.23-1.3 9.83-2.56 18.75-.77 8.87 1.78 16.81 6.45 16.52 7.5Z"/>
  <path d="M136.45 113.93c-2.35-.77 7.69-1.6 11.24-1.57s6.93-.46 8.64-2.32c1.74-1.89-3.48-4.82-10.51-7.52-7.11-2.72 12.26-1.98 18.05 5.31 7.24 9.12-23.05 7.53-27.42 6.1zm-27.41-12.38c-.2.81 6.33 4.67 7.77 4.84 1.44.18.9-3.28 3.97-5.08 3.1-1.82 10.44-1.01 13.19-1.22 2.76-.21-22.57-7.92-24.93 1.46z" class="A U V"/>
  <path d="M115.81 123.58c-2.18-2.97-.65-10.7-.18-11.34s10.61 3.59 16.03 4.66c5.4 1.06 2.5 13.41 2.5 13.41s-14.92-2.04-18.35-6.73z" class="B W Y"/>
  <path d="M150.31 129.43c-.38-.24 3.72-10.06 4.72-10.54 1-.47 8.15-2.67 9.7-4.05 1.56-1.39-3.14 8-4.85 10.67-1.68 2.63-9.57 3.92-9.57 3.92Zm-35.08-6.96c.27 1.15-6.05-3.77-6.66-7.32-.62-3.61.44-9.79.44-9.79s5.09 5.06 5.59 6.17c.49 1.11-.05 8 .63 10.93Z" class="C U b"/>
  <path d="M116.82 108.31s16.14 5.06 25.3 6.13c9.13 1.06 17.66.81 17.66.81-14.91 1.5-28.93-2.28-42.96-6.94Zm8.69-8.13s4.34-.91 13.28.34c8.91 1.24 14.73 5.72 14.73 5.72s-5.64-3.3-14.03-5.04c-8.44-1.75-13.99-1.02-13.99-1.02Z" class="c"/>
  <path d="M121.86 105.5c-1.62-1.97 6.66-3.5 17.94-1.21 11.19 2.27 14.71 5.56 13.66 7.15 0 0 2.19-.5 2.62-1.92.44-1.43-3.5-5.68-17.18-8.24-13.8-2.58-17.64-.5-18.38 1.37-.73 1.85 1.33 2.85 1.33 2.85Z" class="E U Z"/>
  <g class="V">
    <path d="M133.68 110.22c-7.34-2.18.5-6.07 8.93-4.51 8.39 1.55 10.44 5.52 10.08 5.91-.35.38-13.08.37-19.02-1.4Z" class="A U"/>
    <path d="M152.71 115.65c-2.26-.23-2.54-2.56 2.98-1.65 5.51.91 1.08 2.06-2.98 1.65Zm-31.18-14.7c-2.55.65-1.55-2.51 4.17-1.68 5.71.82-.27.68-4.17 1.68Z"/>
  </g>
  <path fill="url(#U)" d="M57.63 64.2c.6 1.88 3 15.46 6.13 19.07 6.38 7.37 21.32 9.12 30.69 7.84 10.2-1.39 22.33-4.25 29.48-12.17 1.97-2.18 3.26-20.61 3.26-20.61-23.55-.01-46.34 2-69.56 5.85Z"/>
  <path fill="url(#V)" d="M127.19 58.05c-.07 6.48-24.18 10.89-34.26 11.94-8.82.92-34.24.52-35.23-5.34-1.16-6.94 24.41-14.96 33.68-15.91 9.92-1.02 35.89 2.32 35.81 9.31Z"/>
  <path fill="url(#W)" d="M113.63 58.2c0 .41-.1.8-.33 1.18-1.74 3-10.31 5.67-20.66 6.64-10.31.97-19.09-.06-21.22-2.63-.27-.33-.44-.69-.49-1.08-.45-3.53 8.81-8.11 20.76-9.32 12.01-1.21 21.85 1.56 21.93 5.21Z"/>
  <path fill="url(#X)" d="M113.3 59.39c.04 1.73-10.31 5.67-20.66 6.64-10.31.97-21.01-1.06-21.22-2.63-.23-1.7 9.87-6.97 20.45-8.02 10.62-1.06 21.39 2.34 21.43 4.01Z"/>
  <path d="M92.93 69.99c-2.84-.13 8.06-4.54 12.08-5.63 4.04-1.09 7.7-2.76 8.97-5.78 1.28-3.06-9.47-3.7-14.7-6.26-3.98-1.94 18.86-1.41 22.51.94 16.48 10.63-26.15 16.84-28.85 16.72zM58.4 65.28c-.03.89 8.51 2.89 10.14 2.56s-.19-4.16 2.51-7.48c2.74-3.37 14.08-6.63 14.08-6.63-.04-.49-26.43 2.32-26.73 11.55z" class="A U V"/>
  <path d="M73.55 88.26c-3.43-2.79-6.11-15.08-5.82-16.01s14.18-.81 20.65-1.27c6.48-.46 7.86 19.96 7.86 19.96s-17.28 1.73-22.69-2.68z" class="B W Y"/>
  <path d="M114.2 85.62c-.52-.22.59-14.05 1.56-14.95s8.37-5.8 9.64-8.1c1.28-2.33-.65 11.63-1.64 15.59-.97 3.89-9.56 7.46-9.56 7.46zm-41.67 1.53c.7 1.26-7.9-2.4-9.81-6.24C60.77 77 59.73 69.6 59.73 69.6s7.31 3.9 8.24 5.02c.93 1.11 2.78 9.31 4.56 12.52z" class="C U b"/>
  <path d="M69.24 70.06s20.37.07 30.24-1.28c10.64-1.46 20.37-4.28 20.37-4.28-16.07 6.31-50.61 5.57-50.61 5.57Zm6.58-12.91s4.45-2.91 14.84-4.75c10.46-1.85 18.71 2.07 18.71 2.07S101.76 52.01 91.7 53c-10.02.99-15.87 4.15-15.87 4.15Z" class="c"/>
  <path d="M73.73 64.89c-2.48-1.73 6.05-6.91 19.43-8.13 13.44-1.22 18.66 2.14 18.06 4.57 0 0 2.31-1.34 2.28-3.36-.03-2.03-6.09-6.63-22.44-4.65-16.23 1.96-19.68 6.22-19.81 8.71-.13 2.46 2.48 2.86 2.48 2.86Z" class="E U Z"/>
  <g class="V">
    <path d="M88.49 66.32c-8.93-.15-1.65-7.77 8.34-8.78 10.04-1.01 13.84 3.64 13.58 4.25s-14.65 4.64-21.92 4.52z" class="A U"/>
    <path d="M111.92 67.08c-2.66.37-3.83-2.61 2.79-3.05 6.65-.44 2 2.39-2.79 3.05Zm-40.19-7.44c-2.55 1.77-2.6-2.36 3.96-3.65 6.59-1.29-.05.93-3.96 3.65Z"/>
  </g>
  <path fill="url(#Y)" d="M12.96 89.89c.62 1.55 3.44 12.81 6.45 15.9 6.28 6.45 19.04 8.01 28.34 7.58 9.51-.44 20.21-3.97 25.88-10.73 1.64-1.95 1.66-19.14 1.66-19.14-20.99.96-41.6 3.05-62.34 6.38Z"/>
  <path fill="url(#Z)" d="M75.26 82.8c.38 9.97-19.57 15.69-29.48 16.15-9.47.45-30.9-.17-32.82-9.06-1.88-8.73 19.38-17.92 28.9-19.12 10.52-1.33 32.98 1.26 33.39 12.03Z"/>
  <path fill="url(#a)" d="M63.1 83.51c.05.56-.01 1.11-.17 1.63-1.27 4.16-8.66 7.76-17.86 8.63-9.2.86-17.32-1.08-19.62-4.5-.29-.43-.49-.9-.59-1.41-.88-4.53 7.03-9.92 17.82-11.38s20 2 20.43 7.03z"/>
  <path fill="url(#b)" d="M62.93 85.15c.23 2.82-8.66 7.76-17.86 8.63-9.2.86-19.15-2-19.62-4.5-.48-2.51 8.15-8.39 17.67-9.6 9.53-1.21 19.58 2.59 19.82 5.48Z"/>
  <path fill="#eeec5d" d="M45.78 98.96c-2.51-.29 6.73-5.66 10.22-7.06 3.51-1.41 6.62-3.7 7.45-7.86.85-4.24-5.75-7.2-13.96-8.4-8.29-1.22 8.93-8.65 20.47.74 16 13.02-19.81 23.1-24.18 22.6zM13.7 90.73c.16 1.22 8.24 4.26 9.69 3.96s-.73-5.24 1.3-9.32c2.07-4.16 12.07-8.04 12.07-8.04-.11-1.05-24.38 3.03-23.05 13.4z" class="R U"/>
  <path fill="#ba1c50" d="M28.59 110.28c-3.27-2.49-4.71-10.52-4.49-11.28.22-.77 11.75.65 17.53.31 5.77-.34 7.74 13.96 7.74 13.96s-15.62.94-20.77-2.99Z" class="W" style="mix-blend-mode:multiply"/>
  <path fill="#ee8f1e" d="M65.28 108.79c-.48-.2-.3-12.78.51-13.61.82-.84 7.16-5.51 8.15-7.69 1.01-2.2.13 10.76-.52 14.43-.64 3.6-8.14 6.87-8.14 6.87Zm-37.68.51c.7 1.1-7.33-2.26-9.25-5.51-1.96-3.31-3.25-9.44-3.25-9.44s6.82 3.3 7.73 4.25c.9.94 2.98 7.91 4.77 10.7Z" class="U" style="mix-blend-mode:soft-light"/>
  <path fill="#ee8e00" d="M24.32 97.54s17.82 1.8 27.2.1c9.42-1.71 17.76-5.6 17.76-5.6-13.23 8.87-30.01 7.45-44.96 5.5Zm4.34-16.05s3.72-3.49 12.99-5.81c9.32-2.33 17.23 2.78 17.23 2.78s-7.17-3.16-16.21-1.97c-9.05 1.19-14.01 5-14.01 5Z"/>
  <path fill="#9b0057" d="M27.75 91.31c-2.5-2.37 4.65-8.41 16.7-9.77 12.04-1.36 17.1 2.97 16.8 6.28 0 0 1.93-1.86 1.71-4.63-.23-2.8-6.19-8.68-20.84-6.29-14.62 2.39-17.24 7.44-17.02 10.61.21 3.12 2.65 3.8 2.65 3.8Z" class="U" style="mix-blend-mode:multiply"/>
  <g fill="#eeec5d">
    <path d="M41.35 93.97c-8.11-.61-2.43-10.12 6.52-11.33 8.97-1.21 12.88 4.99 12.7 5.82-.17.83-12.65 6-19.23 5.51Z" class="R U"/>
    <path d="M62.46 95.61c-2.34.48-3.69-3.49 2.19-4.14 5.89-.65 2.02 3.28-2.19 4.14Z"/>
  </g>
  <path fill="#ee8f5d" d="M25.22 84.49c-2.1 2.13-2.71-3.11 3.16-4.51 5.88-1.4.08 1.23-3.16 4.51Z"/>
  <path fill="url(#c)" d="M51.4 71.22c-.46 1.84-5.26 13.86-4.43 18.43 1.73 9.56 12.97 18.38 21.57 23.48 8.41 4.99 19.38 8.81 28.23 7.03 2.32-.47 11.04-12.75 11.04-12.75-18.38-12.85-36.89-25.14-56.4-36.2Z"/>
  <path fill="url(#d)" d="M107.93 107.21c-2.69 4.59-24.15-6.22-31.08-10.24-7.91-4.59-27.91-20.24-25.61-25.36 2.41-5.38 26.94 4.53 33.88 9.32 8.03 5.55 25.65 21.44 22.81 26.28Z"/>
  <path fill="url(#e)" d="M97.79 100.26c-.17.29-.42.5-.75.65-2.58 1.14-10.29-1.69-18.64-6.94-8.58-5.39-15.03-11.47-15.5-14.7-.06-.41-.02-.79.13-1.11 1.32-2.9 10.63-.45 20.45 5.97 9.53 6.23 15.8 13.58 14.32 16.14Z"/>
  <path fill="url(#f)" d="M97.04 100.91c-.67 1.09-10.29-1.69-18.64-6.94-8.58-5.39-16.12-13.44-15.5-14.7.6-1.23 10.95 1.01 19.65 6.65 8.47 5.49 15.17 13.88 14.5 14.99Z"/>
  <path d="M76.85 96.97c-2.27-1.8 8.24 1.38 11.79 2.86 3.53 1.47 7.01 2.3 9.24.88 2.24-1.42-2.09-6.82-8.37-12.59-6.46-5.93 12.55 2.27 16.4 13.06 4.92 13.79-25.39-1.3-29.07-4.21ZM51.49 72.53c-.47.62 5.48 7.51 6.96 8.27 1.47.75 1.84-3.26 5.58-4.04 3.75-.79 14.07 3.9 14.07 3.9.2-.31-21.65-14.7-26.61-8.13Z" class="A U V"/>
  <path d="M52.73 99.13c-1.52-4.09 2.2-11.88 2.88-12.39.68-.52 10.18 8.11 15.52 11.53 5.24 3.36-1.07 15.72-1.07 15.72s-14.95-8.47-17.33-14.86Z" class="B W Y"/>
  <path d="M86.51 119.89c-.31-.43 6.47-9.67 7.59-9.79s8.72.28 10.62-.67c1.91-.96-5.35 7.79-7.76 10.08-2.38 2.27-10.45.38-10.45.38zm-34.1-22.18c-.02 1.35-5.45-6.41-5.15-10.49.31-4.16 3.14-10.51 3.14-10.51s4.07 7.46 4.29 8.87c.22 1.4-2.23 8.68-2.29 12.13z" class="C U b"/>
  <path d="M57.95 82.91s16.04 12.08 24.53 16.95c8.61 4.94 17.31 8.07 17.31 8.07-15.86-4.27-41.84-25.02-41.84-25.02Zm11.36-5.53s4.75.66 13.63 5.7c8.67 4.91 13.24 12.27 13.24 12.27s-4.72-5.98-12.72-11.23c-8.2-5.39-14.16-6.74-14.16-6.74Z" class="c"/>
  <path d="M64.03 81.8c-1.16-2.81 7.9-1.33 18.89 5.87 10.63 6.95 13.22 12.11 11.73 13.47 0 0 2.31.31 3.14-1.1.84-1.42-1.89-7.84-14.95-16.06-13.59-8.56-18.15-7.6-19.43-5.83-1.27 1.76.62 3.67.62 3.67Z" class="E U Z"/>
  <g class="V">
    <path d="M75.03 91.74c-7.01-5.44 2.17-6.55 10.36-1.37 7.99 5.06 8.92 10.36 8.46 10.65-.46.28-13.23-4.94-18.82-9.28Z" class="A U"/>
    <path d="M92.72 105.53c-2.18-1.18-1.81-3.9 3.41-.64 5.14 3.21.48 2.74-3.41.64Z"/>
  </g>
  <path fill="#ffc243" d="M64.92 76.66c-2.87-.28-.96-3.41 4.83-.21 5.7 3.15-.48.64-4.83.21Z"/>
  <path fill="url(#g)" d="M0 116.43c1.06.94 7.29 8.14 11 10.05 3.66 1.89 14.99 2.22 25.72-3.04 12.02-5.89 17.18-16.16 17.69-18.64.52-2.51-5.67-15.83-5.67-15.83L0 116.43z"/>
  <path fill="url(#h)" d="M48.63 88.76c1.87 3.21-12.34 16.45-20.76 21.06-8.11 4.45-26.09 9.27-27.67 6.84-1.7-2.61 11.7-15.3 19-19.49 8.73-5 27.63-11.49 29.42-8.42Z"/>
  <path fill="url(#i)" d="M38.75 94.61c.16.26.23.57.21.91-.15 2.67-5.41 7.77-12.71 11.87-7.17 4.03-14 5.86-16.44 4.93-.31-.12-.55-.29-.72-.5-1.52-1.96 3.7-7.26 11.85-12.18 8.32-5.02 16.4-7.38 17.82-5.02Z"/>
  <path fill="url(#j)" d="M38.95 95.52c.63 1.07-5.41 7.77-12.71 11.87-7.17 4.03-15.78 5.86-16.44 4.93-.61-.87 4.85-6.99 12.09-11.3 7.37-4.39 16.45-6.53 17.07-5.5Z"/>
  <path d="M27.87 109.83c-2.28.87 4.3-5.67 6.84-7.85 2.57-2.21 4.64-4.75 4.43-7.25-.21-2.53-6.15-1.08-12.99 1.74-6.76 2.79 6.65-9.68 16.66-8.54 13.37 1.53-10.67 20.28-14.95 21.91ZM.92 116.86c.39.56 7.21-.46 8.29-1.09 1.08-.64-1.55-2.42-.72-5.14.85-2.77 6.26-6.51 7.94-8.3 1.7-1.8-19.9 8.11-15.51 14.53Z" class="A U V"/>
  <path d="M20.01 127.29c-3.53-.96-7.63-6.67-7.73-7.31s9.75-3.16 14.31-5.42c4.61-2.28 11.41 8.22 11.41 8.22s-12.37 6.04-17.99 4.51z" class="B W Y"/>
  <path d="M49.62 113.17c-.48.03-4.95-10.03-4.57-11.02.38-1 3.99-7.35 4.03-9.48.04-2.15 4.08 8.42 4.89 11.64.8 3.17-4.35 8.87-4.35 8.87Zm-30.76 13.65c.97.64-6.71.37-9.45-1.58-2.78-1.97-6.06-6.16-6.06-6.16s6.7.52 7.77.97c1.07.44 5.29 5.14 7.74 6.77Z" class="C U b"/>
  <path d="M10.48 116.93s14.55-5.41 21.79-10.09c7.39-4.78 13.45-10.54 13.45-10.54-8.87 10.36-22.39 16.95-35.24 20.63Zm.39-9.6s2.29-2.96 9.09-7.69c6.95-4.83 14.29-5.74 14.29-5.74s-6.36 1.55-13.33 5.74c-6.85 4.11-10.05 7.7-10.05 7.7Z" class="c"/>
  <path d="M12 112.55c-2.4-.33 2.12-5.74 11.32-11.14 9.41-5.52 14.38-5.62 14.84-3.79 0 0 1.19-1.8.41-3.12s-6.75-1.48-17.99 5.54c-10.92 6.82-12.12 10-11.37 11.5.74 1.49 2.79 1 2.79 1Z" class="E U Z"/>
  <path d="M23.3 108.94c-6.56 2.77-3.9-4.15 2.96-8.34 6.98-4.27 11.44-2.85 11.48-2.35s-9.03 8.41-14.44 10.69z" class="A U V"/>
  <path fill="#ffc260" d="M40.83 101.18c-1.83 1.26-3.79-.23.91-3.14 4.76-2.94 2.4.85-.91 3.14Zm-32.08 8.83c-1.25 1.77-2.66-.57 1.63-3.32 4.35-2.78.29.58-1.63 3.32Z"/>
  <g fill="#cd72a4">
    <path d="M23.33 105.45c.95.75 3.47.45 5.65-1.35 2.63-2.16 6.24-4.79 4.96-5.29l-.67-.3c-1.09-.46-2.46-.78-6.18 1.88 0 0-4.47 3.11-4.13 4.51.05.22.19.41.37.55z" class="S U"/>
    <path d="m23.33 105.45.22.03s-.57-.5.35-1.77c.92-1.28 2.5-2.82 5.08-4.12s4.29-1.09 4.29-1.09c-1.09-.48-2.46-.78-6.18 1.88 0 0-4.47 3.11-4.13 4.51a.94.94 0 0 0 .37.55z" class="T X"/>
  </g>
  <path fill="url(#k)" d="M59.57 83.94c.32 1.54.8 14.45 3.27 17.18 5.68 6.31 18.48 8.08 28.27 8.78 9.66.69 21.49.3 28.9-4.29 1.95-1.21 4.87-16.31 4.87-16.31-21.76-2.94-43.36-4.8-65.3-5.37Z"/>
  <path fill="url(#l)" d="M124.89 89.14c-.6 5.87-24.75 6.4-32.96 5.79-8.45-.63-32.33-4.56-32.35-10.59-.02-6.06 24.83-9.17 33.4-8.35 9.61.92 32.54 7.06 31.91 13.14Z"/>
  <path fill="url(#m)" d="M112.42 87.57c-.04.35-.19.68-.43.99-1.94 2.38-10.17 3.57-19.86 2.84-9.73-.73-17.81-3.12-19.49-5.77-.21-.34-.33-.69-.32-1.05.01-3.22 9.19-5.65 20.46-4.79 11.22.86 19.99 4.61 19.65 7.78Z"/>
  <path fill="url(#n)" d="M111.99 88.56c-.16 1.46-10.17 3.57-19.86 2.84-9.73-.73-19.5-4.34-19.49-5.77.02-1.48 10.05-4.48 20.02-3.72 9.93.75 19.49 5.23 19.33 6.65Z"/>
  <path d="M91.93 94.94c-2.7-.58 8-2.79 11.84-3.18 3.85-.38 7.42-1.35 8.92-3.81 1.52-2.49-4.71-5.42-12.84-7.57-8.21-2.17 10.5-4.22 20.61 3.97 13.89 11.24-26.29 11.07-28.53 10.59Zm-31.77-9.9c-.16.76 7.65 4.08 9.23 4.06 1.57-.02.33-3.75 3.27-6.25 2.97-2.53 13.94-3.49 13.94-3.49.04-.43-24.78-2.15-26.43 5.68Z" class="A U V"/>
  <path d="M71.62 104.82c-2.92-2.65-2.76-10.12-2.37-10.78s12.72.36 18.82.93c6.08.57 4.75 15.03 4.75 15.03s-16.58-1.01-21.2-5.19z" class="B W Y"/>
  <path d="M110.21 108.24c-.46-.23 1.96-10.58 2.94-11.13.99-.56 8.28-3.31 9.67-4.88 1.4-1.57-1.7 8.62-3 11.49-1.28 2.83-9.61 4.52-9.61 4.52Zm-39.43-4.43c.51 1.08-7.23-2.98-8.56-6.23-1.35-3.3-1.38-9.17-1.38-9.17s6.41 4.09 7.16 5.08c.74.99 1.48 7.58 2.78 10.32Z" class="C U b"/>
  <path d="M69.77 91.21s19 3.31 28.38 3.64c9.9.35 19.28-.99 19.28-.99-15.76 3.64-47.66-2.65-47.66-2.65Zm7.75-10.39s4.49-1.78 14.37-1.72c9.87.06 17.04 4.64 17.04 4.64s-6.75-3.21-16.15-3.95c-9.44-.74-15.26 1.03-15.26 1.03Z" class="c"/>
  <path d="M74.62 87.35c-2.11-1.96 6.47-5.06 19.07-4.02 12.54 1.03 16.99 4.61 16.16 6.64 0 0 2.28-.86 2.48-2.62.2-1.77-4.89-6.5-20.18-7.39-15.36-.89-19.07 2.22-19.5 4.41-.42 2.17 1.98 2.97 1.98 2.97Z" class="E U Z"/>
  <g class="V">
    <path d="M88.23 91.02c-8.32-1.53-.63-7.08 8.77-6.43 9.37.64 12.36 5.19 12.05 5.69s-14.08 1.99-20.82.75z" class="A U"/>
    <path d="M109.84 95.09c-2.49-.03-3.24-2.78 2.92-2.3 6.15.48 1.57 2.36-2.92 2.3ZM73.39 82.33c-2.6 1.14-2.15-2.55 4.15-2.56 6.29-.01-.16.82-4.15 2.56Z"/>
    <path d="M104.64 109.33c-1.35-1.53 2.02-11.85 3.11-12.79 1.1-.94 10.24-1.48 10.49-1.31s-3.34 11.59-4.62 12.53c-1.27.93-8.98 1.58-8.98 1.58z" class="X" style="mix-blend-mode:soft-light"/>
  </g>
  <path fill="url(#o)" d="M90.04 94.83s.16-1.15 3.81-1.37c3.65-.21 4.7 1.91 4.7 1.91s-3.2 2.46-5.29 1.63c-2.1-.84-3.22-2.17-3.22-2.17Z"/>
  <path fill="url(#p)" d="M90.71 95.47s1.81.94 3.5 1.1 3.38-.56 3.38-.56-1.86 2.04-3.58 1.95-3.31-2.49-3.31-2.49z"/>
  <path d="M90.99 94.02c-1.11.53 1.98 2.29 3.86 2.28s2.72-.79 2.8-1.15c.09-.36-3.42-2.69-6.66-1.13Z" class="E U Z"/>
  <g fill="#cd72a4">
    <path d="M74.59 100.85c.18 2.87 2.36 5.52 5.34 4.83 3.58-.83 8.17-1.14 7.61-3.85l-.26-1.51c-.45-2.41-1.2-4.97-5.99-4.7 0 0-5.78.15-6.58 3.6a5.99 5.99 0 0 0-.13 1.63z" class="S U"/>
    <path d="m74.59 100.85.14.36s-.07-1.81 1.6-3.18c1.68-1.37 4.05-2.35 6.97-1.41 2.89.93 3.98 3.71 3.98 3.71-.44-2.43-1.2-4.97-5.99-4.7 0 0-5.78.15-6.58 3.6a5.59 5.59 0 0 0-.13 1.63z" class="T X"/>
  </g>
  <path fill="url(#q)" d="M131.1 110.09s3.73-5.56 5.68-9.3c1.99-3.82-7.12-4.31-8.35-5.59-2.5-2.62-3.54-6.75-3.54-6.75s.76 2.66-3.47 3.29c-4.22.63 5.27 4.36 7.76 8.27 2.45 3.84 1.91 10.08 1.91 10.08Z" class="d" style="mix-blend-mode:multiply"/>
  <path fill="url(#r)" d="M29.12 122.31c-12.51-5.44-8.65-16.65-4.2-21.18 4.55-4.63 18.71-5.32 18.71-5.32l-3.52 28.1s-8-.3-11-1.61z" class="d" style="mix-blend-mode:multiply"/>
  <path fill="url(#s)" d="M69.21 103.74c.39 1.77 1.51 14.26 4.06 17.88 5.15 7.3 17.85 9.93 26.97 9.93 9.67 0 20.51-2.92 27.12-9.04 1.9-1.76 4.34-17.76 4.34-17.76a904.35 904.35 0 0 0-62.49-1z"/>
  <path fill="url(#t)" d="M131.76 104.08c-.65 9.8-22.16 13.02-31.39 12.99-9.22-.03-30.55-3.28-31.16-13.33-.6-9.82 21.42-15.64 31.42-15.31 10.51.36 31.78 5.69 31.13 15.65Z"/>
  <path fill="url(#u)" d="M119.69 103.6c-.03.54-.17 1.05-.41 1.54-1.85 3.85-9.65 6.73-18.87 6.69s-16.97-2.99-18.75-6.89a4.36 4.36 0 0 1-.38-1.56c-.2-4.88 8.43-9.18 19.29-9.11 10.85.07 19.4 4.47 19.11 9.32z"/>
  <path fill="url(#v)" d="M119.29 105.14c-.16 2.73-9.65 6.73-18.87 6.69s-18.64-4.17-18.75-6.89c-.11-2.76 9.3-7.48 18.88-7.42 9.57.06 18.89 4.91 18.74 7.62z"/>
  <path d="M100.37 117.07c-2.38-.5 7.47-5.01 11.11-6.06 3.66-1.06 7.06-2.99 8.48-6.88 1.44-3.96-4.62-7.47-12.53-9.76-7.99-2.31 10.07-6.89 20.03 3.18 13.78 13.92-23.3 20.32-27.09 19.52Zm-30.55-12.31c.02 1.4 7.54 5.72 9.02 5.6 1.48-.13.05-5.63 2.67-9.6 2.67-4.05 13.12-6.49 13.12-6.49.06-1.14-24.98-.83-24.8 10.49Z" class="A U V"/>
  <path d="M81.71 127.16c-2.88-2.84-3.12-11.41-2.79-12.19s11.54 1.92 17.3 2.1c5.75.18 5.63 14.46 5.63 14.46s-15.6.12-20.14-4.36z" class="B W Y"/>
  <path d="M118.24 127.93c-.45-.21 1.52-12.23 2.44-12.97.93-.74 7.84-4.67 9.13-6.62 1.3-1.97-1.39 10.06-2.55 13.47-1.14 3.35-9.02 6.12-9.02 6.12Zm-37.37-1.87c.54 1.2-6.94-3.01-8.37-6.68-1.46-3.74-1.83-10.51-1.83-10.51s6.28 4.42 7.04 5.53c.75 1.1 1.79 8.62 3.16 11.66Z" class="C U b"/>
  <path d="M79.35 113.46s17.38 3.69 26.89 2.78c9.56-.92 18.33-4 18.33-4-14.25 7.39-30.32 4.93-45.22 1.23Zm6.66-16.15s4.2-3.01 13.69-3.98c9.54-.98 16.57 4.97 16.57 4.97s-6.59-3.92-15.68-4.02c-9.1-.1-14.57 3.03-14.57 3.03Z" class="c"/>
  <path d="M83.66 107.38c-2.12-2.78 5.86-7.99 17.94-7.82s16.42 4.82 15.66 7.98c0 0 2.17-1.6 2.35-4.27.18-2.7-4.82-8.97-19.62-8.66-14.77.32-18.13 5.09-18.39 8.44-.25 3.3 2.06 4.33 2.06 4.33z" class="E U Z"/>
  <g class="V">
    <path d="M96.72 111.66c-7.93-1.44-.91-10.45 8.1-10.58 9.02-.12 11.97 6.23 11.68 7.01s-13.35 4.73-19.78 3.56z" class="A U"/>
    <path d="M117.33 115.12c-2.37.29-3.14-3.65 2.76-3.79s1.52 3.28-2.76 3.79zM82.17 99.91c-2.4 1.91-2.22-3.69 3.8-4.22 6.03-.53-.1 1.28-3.8 4.22z"/>
  </g>
  <path fill="url(#w)" d="M73.2 98.87s6.94 13.2 6.71 14.92c-.22 1.7 3.96 13.49 3.77 14.07-.19.57-8.99-2.94-10.58-6.54-1.61-3.67-1.31-8.02-1.31-8.02l1.4-14.42z" class="d" style="mix-blend-mode:multiply"/>
  <path fill="url(#x)" d="M57.53 77.61s8.9-1.01 17.2-1.46 12.86-1.04 12.86-1.04-11.24-3.6-12.82-4.35c-1.59-.76.02-13.11-.97-14.88-1-1.78-1.99-2.96-1.99-2.96-2.91 9.18-7.44 17.8-14.28 24.68z" class="d" style="mix-blend-mode:multiply"/>
  <path fill="url(#y)" d="M14.66 80.3c1.5 1.05 10.86 10.24 15.38 11.53 9.47 2.72 22.32-4.37 29.67-11.01 8.9-8.04 16.84-20.02 18.02-31.66.37-3.66-10.12-22.57-10.12-22.57L14.66 80.31z"/>
  <path fill="url(#z)" d="M67.14 25.85c7.54 10.43-9.22 32.66-17.9 41.1-7.31 7.11-27.31 20.08-34.58 13.35-7.96-7.37 7.8-30.59 14.14-37.91 6.69-7.72 29.91-28.2 38.34-16.53Z"/>
  <path fill="url(#AA)" d="M55.97 37.2c.38.54.66 1.16.83 1.84 1.32 5.39-3.36 15.21-11.32 23.11-7.73 7.67-16.13 11.27-20.24 9.56-.52-.21-.98-.53-1.37-.93-3.51-3.68.36-14.01 9.07-23.74 9.02-10.07 19.57-14.69 23.03-9.85Z"/>
  <path fill="url(#AB)" d="M56.79 39.04c2.08 2.79-3.36 15.21-11.32 23.11-7.73 7.67-18.35 11.53-20.24 9.56-2.02-2.1 2.24-13.52 10.01-22 8-8.74 19.7-13.16 21.55-10.67Z"/>
  <path d="M49.24 66.95c-2.21 1.43 2.76-10.98 5.15-15.19 2.43-4.29 3.96-9.29 2.22-14.32-1.78-5.14-11.6 1.62-18 3.28C32.9 42.2 52.18 23.89 58.1 23.77c24.92-.49-5.31 40.89-8.85 43.18Z" class="B W Y"/>
  <path d="M15.82 80.63c.94 1.05 9.81-1.11 10.89-2.34 1.09-1.24-3.83-4.57-4.5-9.73-.68-5.3 5.91-16.14 5.91-16.14-.66-.67-20.12 19.49-12.31 28.21Z" class="A U V"/>
  <path d="M40.75 90.65c-4.35-.48-10.51-7.69-10.79-8.6s10.78-7.22 15.74-11.7c5.05-4.56 15.42 9.19 15.42 9.19S47.69 91.41 40.75 90.65z" class="B W Y"/>
  <path d="M73.36 62.68c-.58.15-8.03-13.78-7.76-15.35.27-1.58 3.52-12 3.15-15.22-.37-3.27 6.72 11.76 8.33 16.41 1.57 4.56-3.72 14.17-3.72 14.17ZM39.29 90.27c1.28.69-7.73 2.28-11.4.19-3.72-2.12-8.62-7.28-8.62-7.28s7.97-1.06 9.34-.71c1.36.36 7.43 6.05 10.68 7.79Z" class="C U b"/>
  <path d="M29.27 80.48s17.81-11.57 24.44-19.22c7.79-8.98 13.33-20.23 13.33-20.23-6.35 17.76-37.77 39.44-37.77 39.44ZM23.4 62.2s1.27-5.78 8.14-15.11c7.11-9.67 17.42-11.46 17.42-11.46s-8.46 3.02-16.02 11.41C25.6 55.19 23.4 62.2 23.4 62.2Z" class="c"/>
  <path d="M28.51 72.11c-3.62-.59-.84-11.11 9.06-21.65 10.29-10.95 17.54-10.94 19.27-7.23 0 0 .69-3.58-1.2-6.25-1.92-2.71-10.88-3.22-22.95 10.88-11.48 13.43-10.93 19.57-8.82 22.42 2.07 2.8 4.64 1.83 4.64 1.83Z" class="E U Z"/>
  <path d="M42.23 65.11c-7.58 5.27-8.22-8.09-.89-16.27 7.56-8.43 14.91-5.39 15.25-4.38s-8.07 16.27-14.36 20.65z" class="B W Y"/>
  <path d="M61.8 50.12c-1.91 2.4-5.58-.69-.45-6.23 5.24-5.65 3.92 1.85.45 6.23Z" class="V"/>
  <path fill="#ffbb3d" d="M22.16 67.37c-.58 3.4-4.24-.95.09-6.36 4.42-5.52.81 1.07-.09 6.36Z"/>
  <path fill="url(#AC)" d="M77.61 125.14c-3.68 6.62-27.27 11.45-37.95 6.39-3.39-1.6-8.29-17.13-8.29-17.13 2.2-9.5 5.49-20.36 12.1-27.63 1.9-2.09 16.82-9.19 18.77-7.69 11.3 8.7 19.57 38.5 15.37 46.06Z"/>
  <path d="M73.32 122.25c-3.51 7.61-27.73 11.58-33.84 5.58-8.29-8.13 4.36-40.31 14.5-44.98 12.46-5.74 22.79 31.93 19.34 39.4Z" class="G e" opacity=".81"/>
  <path fill="#dbb18c" d="M31.55 114.9c-.11.54 2.45 4.78 3.47 5.35s11.65-9.17 13.39-11.88c1.76-2.75 2.09-20.63 2.09-20.63s-7.56-.37-8 .35c-4.9 7.99-8.99 17.33-10.95 26.81z" class="H"/>
  <path d="M39.67 131.54c9.21-2.79 19.93-7.71 26.15-12.99.76-.64-17.17-10.77-17.17-10.77s-11.58 12.65-12.97 13.52c-1.38.86 3.98 10.25 3.98 10.25Z" class="I X a"/>
  <path fill="url(#AD)" d="M66.05 117.37c.89-11.85-1.99-24.33-3.53-35.98-.3-2.28-12.03 6.35-12.03 6.35s-1.46 18.93-.13 20.43c1.32 1.49 15.69 9.21 15.69 9.21Z" class="X" style="mix-blend-mode:screen"/>
  <g class="a">
    <path d="M45.63 111.43s-1.86 2.33 1.48-4.01c1.66-3.15 2.81-4.33 2.81-4.33l-.43 4.68c-.19.34-3.86 3.66-3.86 3.66z" class="J"/>
    <path d="m77.21 124.87-12.11-8.06c-.86-.47-14.45-7.86-14.74-8.65s-.52-3.19-.52-3.19-.4 1.29 2.88 3.99c3.23 2.66 13.42 7.21 13.94 7.51s10.56 8.4 10.56 8.4z" class="K X"/>
    <path d="M38.73 94.27s.19.82 1.58-1.36c1.48-2.32 1.05-3.3 1.05-3.3s-1.58 2.03-2.63 4.66Z" class="J"/>
  </g>
  <path d="M67.03 118.91c-.77-.19-23.08 12.17-23.08 12.17s5.79 1.76 15.35.88c9.59-.89 18.31-6.82 18.31-6.82l-10.58-6.23z" class="L f"/>
  <path d="M64.82 116.63c-.85-.35.03-3.07.53-2.9s2.36 2.78 2.58 4.06c.18 1.03-3.11-1.16-3.11-1.16z" class="a"/>
  <path d="M32.57 114.27c-.34 1.59 2.2 4.03 2.73 4.25s10.41-12.95 12.46-15.82c2.08-2.91 1.56-12.34 1.35-13.5-.11-.59-3.57.02-7.37 4.89-3.59 4.61-7.94 14.45-9.18 20.17z" class="N U g"/>
  <path d="M40.91 131.33s5.82-.61 10.64-2.58c6.21-2.53 14.27-10.21 14.27-10.21-8.08 4.61-16.25 9.36-24.92 12.78Z" class="O U a"/>
  <path d="M66.43 113.83s3.28-6.86 1.89-14.53c-1.44-7.96-5.55-16.24-5.55-16.24 1.41 10.23 2.73 20.48 3.67 30.77Z" class="P h" opacity=".9"/>
  <path fill="#fff" d="M119.81 112.42c-2.58-.29.06-5.04 1.46-9.06 1.43-4.1 7.47-2.37 9.77-1.34 2.28 1.02.39 11.72-11.23 10.4Zm52.89-8.88c-.99-.95 1.49 4.81 5.15 9.51 3.58 4.58 8.29 7.45 11.04 7.89 2.74.44-1.17-5.17-2-5.32-1.71-.3-11.22-9.24-14.19-12.08Zm-34.47-59.86c-4.74-2.62 4.06-1.44 8.34-2.72 4.32-1.29.62-7.49.36-8.01-.27-.53 13.99 8.06 13.03 14.06-.94 5.84-12.25 1.91-21.72-3.33ZM73.67 61.49c-1.93-1.86-3.87-20.32-3.22-24.34.66-4.08 7.1 6.57 7.29 12 .19 5.31-4.07 12.34-4.07 12.34Z"/>
  <path fill="url(#AG)" d="M137.13 80.22c-2.65 26.13-27.66 44.57-52.96 44.71-24.29.14-50.99-16.27-55.93-41.23-5.95-30.07 23.38-61.25 52.1-63.74 31.56-2.73 59.89 29.71 56.79 60.26Z" class="X" style="mix-blend-mode:screen"/>
</svg>
