<svg xmlns="http://www.w3.org/2000/svg" viewBox="0 0 405.26 579.37"><style>.I{fill:#70928e}.J{fill:#dbeeed}.K{fill:#1a1a1a}.L{fill:#c0d7d4}.M{fill:#a33534}.N{fill:#e8936b}</style><g fill="#766780"><ellipse cx="379.72" cy="576.18" rx="15.24" ry="1.41"/><ellipse cx="246.29" cy="569.64" rx="94.89" ry="4.22"/></g><path d="M175.44 325.14c2.19 17.81 18.64 100.33 18.78 101.26.13.93 19.28 114.91 19.28 114.91s21.96 22.42 21.03 16.85-3.11-34.12-2.15-51.24c.95-17.12 2.49-39.47 1.16-56.63-1.34-17.17-5.14-23.67-4.56-31.58.57-7.9 10.11-70.94 11.01-94.88 1.58-41.92-24.02-99.52-24.02-99.52l-40.52 100.83Z" class="I"/><path d="M212.92 423.82c9.11 3.64 14.73.26 18.17 2.07s3.17 9.6 1.42 9.85c-1.74.25-18.51-.5-20.42-2.26s.83-9.66.83-9.66z" class="K"/><path d="M206.93 530.62c-10.35-57.51-19.1-100.5-16.82-116.35s20.48-14.91 24.98-6.66 9.55 134.69 10.16 138.93-18.32-15.92-18.32-15.92Z" class="J"/><path d="M199.88 537.06c-1.63-9.24 5.45-10.38 14.22-7.36 8.78 3.02 21.12 20.66 20.42 28.45s-34.65-21.1-34.65-21.1Z" class="K"/><path d="M202.12 535.08c-9.74 9.05-29.45 20.39-32.28 23.6s-3.96 16.05-3.78 16.8c.19.76 17.75 2.45 25.68 1.51s42.67-9.63 43.8-10.95-3.02-16.24-4.15-17.56-20.83-21.23-29.26-13.4z" class="J"/><path d="m208.2 533.34-2.27 2.65c-.93.86-23.64 20.33-25.62 21.74-1.98 1.42-2.32 3.71-2.77 5.24-.3 1.03-2.68 8.57-3.65 13.73 5.76.51 13.35.82 17.84.29 7.93-.94 42.67-9.63 43.8-10.95s.16-16.26-.98-17.58c-.91-1.06-16.95-14.06-26.36-15.12z" class="L"/><path d="M174.62 576.92s-.09 0-.14-.01a.73.73 0 0 1-.59-.86c2.77-14.86 3.92-16.67 5.88-18.8.9-.98 4.7-4.11 9.51-8.07 7.14-5.88 16.93-13.94 18.56-16.22.24-.33.7-.41 1.03-.17s.41.7.17 1.03c-1.75 2.44-11.22 10.24-18.82 16.51l-9.36 7.93c-1.77 1.93-2.82 3.61-5.51 18.08a.74.74 0 0 1-.73.6zm62.91-241.6c3 16.33 20.75 77.75 22.75 81.69 1.99 3.94 52.3 124.45 53.05 124.45s7.7-.75 6.57-5.82-1.69-25.9-2.44-47.86-.53-45.42-7.87-65.88c-7.33-20.46-9.4-19.15-9.59-26.09-.19-6.95-4.4-78.78-7.36-80.84s-55.1 20.36-55.1 20.36z" class="I"/><path d="M290.42 411.47c8.82-.28 10.67-6.1 14.91-5.72s4.99 12.74 3.4 13.79-13.71 5.55-16.85 2.36-1.45-10.42-1.45-10.42z" class="K"/><path d="M.02 169.27c70.97-61.72 152.09-58.18 190.03-37.76 5.11 2.75 12.93 116.83-58.46 188.64 0 0-58.09-30.49-95.85-79.74C-2.02 191.17.02 169.27.02 169.27Z" class="L"/><g class="I"><path d="M127.55 293.9c-18.41-11.56-51.66-34.95-75.48-66.01-19.2-25.05-26.71-41.59-29.64-50.42 43.02-33.46 84.97-38.69 106.96-38.69 15.72 0 30.81 2.57 42.79 7.17.81 10.82.77 32.71-4.53 58.93-5.06 25.08-16.1 59.54-40.11 89.02Z"/><path d="M176.63 94.71c-9.95 5.16-10.14 24.05-9.95 35.25s4.96 64.89 4.96 64.89l28.08-5.63-23.09-94.51Z"/></g><path d="m140.96 205.93 42.94-15.72c3.42-.79 9.8 30.36 9.43 31.87-.38 1.5-47.86 5.26-47.86 5.26s4.69-3.57 3.75-11.07c-.94-7.51-8.26-10.32-8.26-10.32z" class="J"/><path d="M141.85 206.34c-8.7 1.91-11.89.65-20.66-1.85-8.76-2.5-15.27-3.13-18.4 0s-.5 6.13 1.25 6.13 10.61 1.38 11.19 2.13c.57.75-11.22 1.63-13.9 4.88-2.67 3.25-1.92 6.94-.8 8.79 1.13 1.85-.5 4.88.88 7.56s.75 4.05 2.75 6.68 4.5 5.01 7.01 5.51c2.5.5 9.83-4.03 12.63-5.19 7.53-3.13 20.41-13.02 23.41-14.55s9.51-1.28 7.88-7.72-10.82-12.88-13.25-12.35z" class="N"/><path d="M96.66 202.37c12.94 17.97 21.91 52.92 21.91 52.92s12.12-3 12.12-3.75-17.77-51.06-20.02-53.81-15.18 3.02-14.02 4.64Z" class="M"/><path d="M112.94 246.47c2.95-.72 11.55-3.65 10.87-6.32-.67-2.67-1.92-4.04-1.92-4.04s.98-.71 1.96-2.53-.52-3.69-1.17-4.11-1.77-1.01-1.77-1.01 2.03-.14 1.67-2.45c-.36-2.32-3.22-5.01-3.22-5.01s1.54-1.13 1.85-2.75c.31-1.63-2.37-3.69-4.51-3.67s-9.18-.99-12.69 1.31-.07 18.44 1.75 22.63c1.81 4.19 4.02 8.73 7.2 7.95z" class="N"/><g fill="#d05c48"><path d="M104.67 224.5c-.36 0-.68-.27-.73-.63-.06-.4.22-.77.63-.83l.91-.13c13.58-1.91 15.07-2.21 14.98-5.13-.01-.41-.18-.75-.52-1.05-1.61-1.45-6.2-1.48-7.83-1.37-.4.02-.76-.28-.78-.68-.03-.41.28-.76.68-.78.66-.05 6.55-.39 8.91 1.74.64.58.98 1.28 1.01 2.1.14 4.33-2.36 4.68-16.24 6.63l-.91.13h-.1Z"/><path d="M107.8 232.75c-.33 0-.63-.23-.71-.56-.1-.39.15-.79.54-.89 11.76-2.85 13.62-3.57 14.24-5.51.49-1.54-1.78-3.75-2.61-4.4-.32-.25-.37-.71-.12-1.03s.71-.38 1.03-.13c.41.32 3.98 3.22 3.11 6-.88 2.79-3.31 3.6-15.29 6.5-.06.01-.12.02-.17.02z"/><path d="M112.94 240.39c-.29 0-.56-.17-.68-.46-.15-.38.02-.8.4-.96 11.04-4.56 10.9-6.27 10.81-7.52-.06-.8-1.96-1.95-3.23-2.48a.75.75 0 0 1-.4-.96c.16-.37.58-.56.96-.4.66.27 3.98 1.75 4.13 3.72.18 2.36-.55 4.38-11.71 9-.09.04-.19.06-.28.06z"/><path d="M123.69 241.39c-.05 0-.11 0-.17-.02-.4-.09-.64-.49-.55-.88.61-2.66-2.02-4.15-2.14-4.21-.35-.2-.48-.64-.29-1s.64-.49.99-.29c1.29.7 3.56 2.83 2.86 5.83-.08.34-.38.57-.72.57Z"/></g><path d="M171.43 194.49c-.46 0-.87-.33-.94-.8-6.09-37.94-5.56-76.62-5.56-77.01 0-.53.45-.97.97-.94.53 0 .95.44.94.97 0 .38-.53 38.91 5.53 76.67.08.52-.27 1.01-.79 1.09-.05 0-.1.01-.15.01zm70.27 118.65c-.06-1.02-1.98-1.92-2.06-2.96l-53.2-7.24-2.03 30.03c30.63 1.13 51.65 30.81 52.16 26.72v-.06l5.13-46.49z" class="K"/><path fill="#83a5a0" d="M202.36 253.74c-3.16 44.48-2.25 75.55-2 77.05s37.54 4.22 38.04 2.61-.29-81.44-2.02-83.32-34.02 3.66-34.02 3.66z"/><path d="M297.32 353.17c-1.05-13.79-2.28-27.2-3.44-33.87-17.28 5.27-55 18.18-55 18.18l.33 5.57 3.06 12.16c32.21-11.97 49.18-5.77 55.04-2.05z" class="K"/><path d="m219.3 252.29 22.02 100.86c.5 2.5 67.6-22.27 68.09-23.28.49-1-30.05-94.45-32.8-95.9s-57.31 18.32-57.31 18.32zm-12.01-3.25c-3.5 27.28-10.26 100.36-11.26 103.11s-23.42-6.01-24.6-6.26 5.83-95.1 7.08-95.6 28.78-1.25 28.78-1.25z" class="M"/><path d="M224.81 246.2c6.26 20.61 8.7 37.31 8.7 37.31s2.82-.47 3.82-.45.17 21.04 1.33 21.79c1.17.75 1.95-1.5 3.69 0 1.73 1.5 1.23 17.27 1.48 19.02s3 0 4.25 0 3.5 21.52 3.75 23.28c.25 1.75 56.81-19.82 57.56-20.92s-28.28-87.47-29.78-90.59c-1.5-3.11-54.81 10.56-54.81 10.56zm-45.18-9.86c-4.69 11.07-7.36 21.2-7.06 22.71.3 1.5 1.24.94 1.62 1.88s-4.13 18.58-4.13 19.9 2.51 1.69 2.51 1.69-5.5 18.77-5.42 19.71c.09.94 2.9 2.06 2.9 2.06l-4.19 32.1c-.12 1.31 23.34 10.65 24.65 10.86s11.26-96.02 12.39-98.21-23.28-12.7-23.28-12.7z" class="J"/><path d="M175.44 243.88c13.83 9.51 36.37 27.41 37.61 28.03 1.24.63 69.98-26.71 69.98-26.71l-3.13-8.85-101.9 2.4-2.56 5.13zm138.4-153.33c4.32 10.33-14.98 79.98-21.72 85.26-6.75 5.28-23.42-18.62-20.09-25.13s10.46-46.8 18.1-50.18c7.63-3.38 23.71-9.95 23.71-9.95z" class="K"/><path d="M294.63 97.16c14.02 11.48 33.54 53.52 37.79 59.28s10.51 15.02 10.51 15.02-10.51 24.28-12.51 25.03-13.26-12.02-21.77-23.16l-10.51-13.48s-10.76 20.62-12.76 22.37-9.51-11.69-13.01-29.62 22.27-55.43 22.27-55.43z" class="I"/><path d="M264.76 71.5h-55.35v23.51l28.22 18.21 27.13-17.12V71.5z" class="K"/><g class="L"><path d="M283.98 129.96c-8.82 32.42 6.38 44.8 9.76 45.37l3.38.56-20.08 38.48c-.94 3 12.33 23.71 12.33 25.4s-68.07 25.47-70.33 25.09c-2.25-.38-41.97-26.72-41.97-26.72l11.83-26.43s.11-11.61-2.52-34.88c-2.63-23.28-3-53.31-2.63-54.25.38-.94 21.96 2.92 21.96 2.92l24.91-22.62h17.14l36.23 27.09zM204.95 22.67c12.78-13.75 12.9-14.23 13.38-14.95s33.4-.72 34.72 0 14.83 13.5 15.31 15.55-.24 21.58 0 23.15-29.78 14.11-30.75 14.23-31.35-14.71-32.07-15.07-1.36-22.1-.6-22.91z"/><path d="M205.37 45h-1.08a1.03 1.03 0 0 0-1.02 1.19l4.7 28.15c.54 1.02 27.97 16.22 29.42 16.22s28.76-17.91 29.21-18c.4-.08 3.22-21.15 3.91-26.39.08-.62-.4-1.17-1.02-1.17h-64.12z"/></g><path d="M204.29 45a1.03 1.03 0 0 0-1.02 1.19l4.7 28.15c.51.97 25.11 14.63 28.96 16.08l.7-29.77L206.33 45h-2.04z" class="J"/><g class="I"><path d="M237.62 61.18h-.01c-1.72-.06-27.76-13.37-32.96-16.04a.53.53 0 0 1-.23-.71.52.52 0 0 1 .71-.23c12.29 6.3 31.1 15.74 32.52 15.92 1.45-.14 19.12-9.59 30.63-15.91.26-.14.58-.05.72.21s.05.58-.21.72c-4.89 2.68-29.33 16.04-31.18 16.04zm-27.18-35.93c-.17 0-.35-.09-.45-.24a.52.52 0 0 1 .16-.73c12.26-7.91 43.63-6.78 52.61.02a.54.54 0 0 1 .1.75c-.18.23-.51.28-.74.1-8.76-6.64-39.4-7.71-51.39.02a.52.52 0 0 1-.29.09zm26.45 47.45-32.52-16.64a.53.53 0 0 1 .49-.94l32.04 16.4 32.07-16.12c.26-.13.58-.03.71.24.13.26.03.58-.24.71l-32.55 16.37z"/><path d="M236.89 82.67 206.27 67a.53.53 0 0 1 .49-.94l30.14 15.43 30.54-15.35c.26-.13.58-.03.71.24.13.26.03.58-.24.71l-31.02 15.6z"/></g><path d="M237.63 40.27 232.2 7.18c.12-2.12 5-7.18 5.61-7.18s5.49 5.79 5.61 7.17c.12 1.39-5.79 33.1-5.79 33.1z" class="J"/><path d="M235.49 49.62v1.77c0 .66-.6 1.15-1.25 1.02l-19.07-3.83c-.49-.1-.84-.53-.84-1.02v-4.13c0-.71.69-1.21 1.37-.99l19.07 6.19c.43.14.72.54.72.99Zm3.16 0v1.77c0 .66.6 1.15 1.25 1.02l19.07-3.83c.49-.1.84-.53.84-1.02v-4.13c0-.71-.69-1.21-1.37-.99l-19.07 6.19c-.43.14-.72.54-.72.99Z" class="K"/><path d="M237.63 60.43c-.2 0-.35-.16-.35-.35v-19.8l5.79-33.16c.03-.19.22-.32.41-.29.19.03.32.22.29.41l-5.79 33.1v19.74c0 .2-.15.35-.35.35Z" class="I"/><path d="M271.61 76.97c-1.35 2.82-32.95 19.33-32.95 19.33l9.68 46.93s11.71-9.01 20.21-10.7c8.51-1.69 12.45-1.5 12.45-1.5s5.26-16.89 16.89-27.78c11.64-10.89 15.95-12.7 15.95-12.7s-14.83-2.5-25.34-2.5-17.98.38-17.98.38l1.09-11.45Z" class="J"/><path d="M249.23 106.42c-.15 0-.3-.06-.4-.18-.19-.22-.17-.56.06-.75.08-.07 8.45-7.27 21.3-17.48.23-.18.56-.14.75.09.18.23.14.56-.09.75-12.83 10.2-21.19 17.38-21.27 17.46-.1.09-.22.13-.35.13Z" class="I"/><path d="M204.61 78.66c5.8 6.57 28.89 17.46 28.89 17.46l-16.89 47.11s-14.08-9.76-23.09-14.08-15.02-4.5-15.02-4.5.28-22.39-12.58-41.67c-1.5-2.25 33.6 3.38 33.79 3.57s4.9-7.88 4.9-7.88z" class="J"/><path d="M217.55 103.41c-.13 0-.26-.05-.36-.14l-17.83-16.33c-.22-.2-.23-.53-.03-.75s.53-.23.75-.03l17.83 16.33c.22.2.23.53.03.75-.1.12-.25.17-.39.17zm-34 22.62c-.28 0-.51-.21-.53-.5-.91-13.5 0-22.62 0-22.71a.52.52 0 0 1 .58-.47.53.53 0 0 1 .47.58c0 .09-.9 9.13 0 22.54.02.29-.2.55-.49.57h-.04zm64.47 18.32-6.2-30.06c-.06-.29.13-.57.41-.63.29-.06.57.13.63.41l5.79 28.09c2.16-2.03 9.15-7.9 19.78-10.16a.53.53 0 0 1 .22 1.04c-12.54 2.66-19.86 10.46-19.93 10.54l-.7.76zm-31.16-.25-.58-.44c-.12-.1-12.59-9.56-21.35-13.2a.53.53 0 0 1-.29-.69.53.53 0 0 1 .69-.29c7.79 3.24 18.42 10.99 21 12.9l9.27-25.86a.53.53 0 0 1 .68-.32c.28.1.42.4.32.68l-9.76 27.22z" class="I"/><path d="M299.37 162.32a.95.95 0 0 1-.8-.43l-14.51-22.72a.96.96 0 0 1 .31-1.32c.45-.28 1.04-.14 1.31.31.06.1 6.1 9.9 14.48 22.67a.95.95 0 0 1-.27 1.32.91.91 0 0 1-.52.16z" class="K"/><path d="M220.44 224.29c-17.16 0-34.14-12.02-34.31-12.14a.53.53 0 1 1 .62-.86c.17.12 16.88 11.95 33.7 11.95 11.02 0 45.1-7.41 51.96-9.37.28-.08.58.08.66.37.08.28-.08.58-.36.66-6.37 1.82-40.64 9.41-52.25 9.41zm0-8.26a.53.53 0 0 1-.52-.54c0-.52.98-52.72 11.1-94.34.07-.28.36-.46.64-.39.29.07.46.36.39.64-10.1 41.5-11.07 93.59-11.07 94.11 0 .29-.24.52-.53.52z" class="I"/><path d="M387.81 265.43c0-5.55-3.62-10.04-8.09-10.04s-8.09 4.5-8.09 10.04c0 .32.01.64.04.95s2.15 46.91 2.61 49.16c.45 2.25 10.88 1.97 10.88 0s2.65-48.21 2.65-49.16c0-.02-.02-.04-.04-.07.02-.29.04-.59.04-.89Zm-26.39 62.68v-10.98h-3.43v10.98c-1.24.63-2.1 1.9-2.1 3.39 0 2.11 1.71 3.81 3.81 3.81s3.81-1.71 3.81-3.81c0-1.49-.86-2.76-2.1-3.39Zm40.08 0v-10.98h-3.43v10.98c-1.24.63-2.1 1.9-2.1 3.39 0 2.11 1.71 3.81 3.81 3.81s3.81-1.71 3.81-3.81c0-1.49-.86-2.76-2.1-3.39Z" class="M"/><path d="m372.72 316.11-5.88 220.91 12.88 39.16 12.89-39.16-5.88-220.91h-14.01z" class="J"/><path d="M386.73 316.11h-7.01v260.07l12.89-39.16-5.88-220.91z" class="L"/><path d="M401.95 319.3h-44.46a2.17 2.17 0 1 1 0-4.34h44.46a2.17 2.17 0 1 1 0 4.34z" class="M"/><path d="M370.84 240.15c1.75 5.76-2.5 12.26-3.75 19.27s-1.25 16.86 0 20.01c1.25 3.14 6.01 3.14 6.26 1.96.25-1.19.25-13.45 1.38-14.95s10.89 4.51 11.01 7.26c.13 2.75-.19 17.75.59 19.89s3.29 3.37 5.41 0c2.13-3.37 5.88-1.12 8.01-4s2.5-4.25 4.13-7.63 1.63-5.01 1-9.76c-.63-4.76-4.63-17.52-9.13-23.15s-19.9-12.75-21.27-12.7-3.63 3.81-3.63 3.81Z" class="N"/><path d="M212.33 264.27a.53.53 0 0 1-.53-.51c-.79-18.46 5.17-38.82 5.23-39.03.08-.28.38-.44.66-.36s.44.38.36.66c-.06.2-5.97 20.4-5.19 38.68.01.29-.21.54-.51.55h-.02z" class="I"/><path d="M341.18 159.85c-11.2 21.4-13.26 28.62-10.76 36.63s38.54 43.8 39.79 44.8 23.28 7.76 25.53 7.76-53.33-91.54-54.56-89.19z" class="J"/><path fill="#d05c48" d="M392.46 293.44h-.03c-.41-.01-.72-.36-.71-.76l.6-19.29c0-.41.37-.72.75-.72a.73.73 0 0 1 .72.75c0 .08-.19 8.58-.6 19.31-.02.4-.34.71-.73.71zm5.38-1.18h-.12c-.4-.06-.67-.44-.61-.84 1.2-7.47 1.49-16.99 1.49-17.08a.73.73 0 0 1 .73-.71h.02c.41.01.73.35.71.76 0 .1-.3 9.71-1.51 17.27a.74.74 0 0 1-.73.62z"/><path d="M233.5 284.04c-.22 0-.43-.14-.5-.36-.1-.28.05-.58.33-.67 10.93-3.76 54.74-21.46 55.18-21.64a.53.53 0 0 1 .69.29.53.53 0 0 1-.29.69l-55.23 21.66c-.06.02-.12.03-.17.03zm6.55 21.18c-.19 0-.38-.11-.47-.29a.53.53 0 0 1 .23-.71c12.17-6.17 55.53-21.06 55.97-21.21.28-.09.58.05.67.33.1.28-.05.58-.33.67-.44.15-43.73 15.02-55.84 21.15-.08.04-.16.06-.24.06zm7.37 19.29c-.19 0-.38-.11-.47-.29a.53.53 0 0 1 .23-.71c21.36-10.89 54.68-20.96 55.02-21.06.28-.09.58.08.66.36s-.07.58-.36.66c-.33.1-33.57 10.15-54.84 20.99-.08.04-.16.06-.24.06zm-47.99-47.94a.45.45 0 0 1-.27-.08c-.16-.09-15.79-9.46-25.99-15.79-.25-.15-.33-.48-.17-.73.15-.25.48-.33.73-.17l25.97 15.79c.25.15.33.48.18.73a.53.53 0 0 1-.46.26zm-2.25 19.51c-.08 0-.17-.02-.24-.06l-25.62-13.3c-.26-.14-.36-.46-.23-.72.14-.26.46-.36.72-.23l25.62 13.3c.26.14.36.46.23.72-.09.18-.28.29-.47.29zM194.76 317c-.08 0-.15-.02-.23-.05-9.3-4.37-24.99-11.82-25.54-12.64a.54.54 0 0 1 .14-.74c.23-.15.53-.11.7.1.97.82 15.54 7.8 25.15 12.32.27.12.38.44.25.71-.09.19-.28.31-.48.31z" class="I"/><path d="m258.14 416.07 37.67 117.25s19.4-1.87 20.52-2.69c1.13-.82-14.55-98.15-18.06-114.57-5.77-26.98-46.88-21.25-40.12 0zm16.89 151.24c-.54 2.18 8.97 9.87 12.24 11.33 3.26 1.46 31-2.22 33.18-5.07 2.18-2.86 13.13-12.12 12.85-15.51-.27-3.4-12.45-23.78-13.4-24.6s-23.39 1.5-24.07 2.04-20.26 29.64-20.8 31.82z" class="J"/><path d="M320.44 573.56c2.18-2.86 13.13-12.11 12.85-15.51-.27-3.4-12.45-23.78-13.4-24.6-.52-.44-7.34.03-13.6.65-3.93 6.27-11.73 20.33-12.24 21.17-.61 1.02-1.84 3.26-6.8 23.36l1.71.29c6.94.43 29.51-2.8 31.46-5.36z" class="L"/><path d="M287.27 579.37c-.06 0-.12 0-.18-.02-.39-.1-.63-.49-.53-.88 1.21-4.81 5.27-20.72 6.87-23.54l12.24-21.18c.2-.35.65-.46 1-.26s.47.65.26 1l-12.23 21.17c-1.2 2.11-4.26 13.36-6.73 23.18-.08.33-.38.55-.71.55z" class="I"/><path d="M293.12 539.3c3.75-4.06 22.88-6.16 36.95 11.33 0 0-4.69-12.18-10.81-18.4s-24.43-2.88-26.14 1.87 0 5.2 0 5.2z" class="K"/></svg>