<?xml version="1.0" encoding="UTF-8"?> <svg xmlns="http://www.w3.org/2000/svg" width="220" height="120" viewBox="0 0 220 120" fill="none"><mask id="mask0_3_20292" style="mask-type:luminance" maskUnits="userSpaceOnUse" x="0" y="66" width="220" height="54"><path d="M0 66.5503H220V119.971H0V66.5503Z" fill="white"></path></mask><g mask="url(#mask0_3_20292)"><g opacity="0.449997"><mask id="mask1_3_20292" style="mask-type:luminance" maskUnits="userSpaceOnUse" x="0" y="66" width="221" height="54"><path d="M220.004 93.2605C220.004 108.012 170.754 119.971 110.002 119.971C49.2494 119.971 0 108.012 0 93.2605C0 78.5084 49.2494 66.5503 110.002 66.5503C170.754 66.5503 220.004 78.5084 220.004 93.2605Z" fill="white"></path></mask><g mask="url(#mask1_3_20292)"><mask id="mask2_3_20292" style="mask-type:luminance" maskUnits="userSpaceOnUse" x="-29957" y="-28923" width="58186" height="58185"><path d="M-29956.1 -28922.5H28228.6V29261H-29956.1V-28922.5Z" fill="url(#paint0_radial_3_20292)"></path></mask><g mask="url(#mask2_3_20292)"><path d="M220.004 93.2605C220.004 108.012 170.754 119.971 110.002 119.971C49.2494 119.971 0 108.012 0 93.2605C0 78.5084 49.2494 66.5503 110.002 66.5503C170.754 66.5503 220.004 78.5084 220.004 93.2605Z" fill="url(#paint1_radial_3_20292)"></path></g></g></g></g><path fill-rule="evenodd" clip-rule="evenodd" d="M142.359 15.1714C160.267 33.0797 160.267 62.1151 142.359 80.0235C138.27 84.1128 133.6 87.2654 128.616 89.4868C127.472 89.3563 126.479 89.3279 126.281 89.4255C126.013 89.5569 125.402 90.2254 124.822 90.9783C108.781 96.4713 90.3028 92.8206 77.5046 80.0235C65.2692 67.7883 61.3956 50.3595 65.8792 34.8332C67.0156 33.5361 68.0934 31.0005 67.5084 30.1588C69.7466 24.7076 73.0778 19.599 77.5046 15.1714C81.1864 11.4905 85.3389 8.56691 89.7665 6.39973C92.5766 6.2266 94.7189 5.46396 95.4736 4.07185C111.413 -1.20982 129.676 2.48886 142.359 15.1714Z" fill="#3B3D3F"></path><path d="M95.4753 4.06673C94.7233 5.46062 92.5827 6.22414 89.7745 6.39904C79.7481 11.314 71.7789 19.7795 67.5075 30.1572C68.0943 30.9998 67.0129 33.5416 65.8747 34.8378C64.7019 38.8881 64.0732 43.1692 64.0732 47.5977H67.4977C67.4977 24.1626 86.4966 5.16409 109.931 5.16409V1.73974C104.88 1.73974 100.019 2.55743 95.4753 4.06673Z" fill="url(#paint2_radial_3_20292)"></path><path d="M109.932 5.16409C133.367 5.16409 152.365 24.1626 152.365 47.5977H155.79C155.79 22.2707 135.258 1.73974 109.932 1.73974V5.16409Z" fill="url(#paint3_radial_3_20292)"></path><path d="M64.0732 47.5981C64.0732 72.9241 84.6046 93.4551 109.931 93.4551V90.0299C86.4966 90.0299 67.4977 71.0331 67.4977 47.5981H64.0732Z" fill="url(#paint4_radial_3_20292)"></path><path d="M152.365 47.5981C152.365 71.0331 133.367 90.0299 109.932 90.0299V93.4551C115.143 93.4551 120.151 92.5841 124.82 90.9825C125.4 90.2278 126.012 89.5566 126.281 89.4252C126.479 89.3276 127.473 89.3569 128.616 89.4865C144.629 82.3333 155.79 66.2699 155.79 47.5981H152.365Z" fill="url(#paint5_radial_3_20292)"></path><path d="M79.9267 17.5929C63.3552 34.1641 63.3552 61.0306 79.9267 77.6018C96.4983 94.1731 123.365 94.1731 139.937 77.6018C156.508 61.0306 156.508 34.1641 139.937 17.5929C131.651 9.30772 120.791 5.16513 109.932 5.16513C99.072 5.16513 88.2121 9.30772 79.9267 17.5929Z" fill="url(#paint6_linear_3_20292)"></path><path fill-rule="evenodd" clip-rule="evenodd" d="M138.487 19.0425C154.258 34.8129 154.258 60.3822 138.487 76.1526C122.716 91.9231 97.1466 91.9231 81.3759 76.1526C65.6052 60.3822 65.6052 34.8129 81.3759 19.0425C97.1466 3.27203 122.716 3.27203 138.487 19.0425Z" fill="#303030"></path><path d="M69.4971 47.5973C69.4971 69.9137 87.5886 88.0049 109.906 88.0049C132.223 88.0049 150.315 69.9137 150.315 47.5973C150.315 25.2801 132.223 7.18888 109.906 7.18888C87.5886 7.18888 69.4971 25.2801 69.4971 47.5973Z" fill="url(#paint7_radial_3_20292)"></path><mask id="mask3_3_20292" style="mask-type:luminance" maskUnits="userSpaceOnUse" x="69" y="12" width="21" height="71"><path d="M69.5908 12.5958H89.7005V82.0674H69.5908V12.5958Z" fill="white"></path></mask><g mask="url(#mask3_3_20292)"><g opacity="0.5"><path d="M75.2762 26.7625C76.2102 29.1952 77.0208 31.31 76.4428 33.7497C76.2732 34.4662 76.0353 35.1436 75.7512 35.7668C75.1608 37.0604 74.3662 38.1267 73.5494 38.8343C72.6935 39.5747 71.7985 39.9325 71.0572 39.7709C70.9622 39.7496 70.8707 39.7212 70.7828 39.6848C70.631 39.62 70.4765 39.5383 70.3203 39.4389C70.37 39.1983 70.4215 38.9586 70.4748 38.7198C71.2383 39.1699 72.0889 39.1379 73.1844 38.2536C73.948 37.6375 74.6947 36.7035 75.2522 35.5644C75.5239 35.0104 75.7503 34.4085 75.9119 33.7737C76.449 31.6598 75.6819 29.766 74.787 27.5944C74.9468 27.3148 75.1102 27.0378 75.2762 26.7625ZM73.8139 65.7895C74.2037 64.8174 74.5899 63.8434 74.9992 62.8801C78.6908 54.1839 85.8087 41.9506 86.1585 33.2978C86.368 28.1236 85.394 22.0189 84.6776 16.0305C84.8915 15.8601 85.1055 15.6905 85.323 15.5236C85.972 21.567 86.8918 27.6956 86.6637 33.3182C86.4657 38.2217 84.959 43.1056 82.9995 47.4968C81.9705 49.8025 80.7933 52.0336 79.7651 54.3401C78.3446 57.5265 77.0217 60.7573 75.658 63.9695C75.2354 64.963 74.8376 65.9671 74.4345 66.9694C74.2214 66.5797 74.0146 66.1864 73.8139 65.7895ZM71.3502 59.7292C72.0347 59.232 72.6819 57.9562 73.4481 56.1877C74.0803 54.729 74.6991 53.2028 75.3819 51.8258C76.9782 48.6075 79.7722 45.6989 81.4955 42.4246C84.3384 37.0222 84.5169 32.4082 83.7533 25.4095C83.479 22.8898 82.9498 20.4119 82.4668 17.9322C82.7412 17.6792 83.0182 17.4297 83.2987 17.1838C83.7524 19.9281 84.2478 22.6714 84.4813 25.4415C85.038 32.0735 85.1082 36.9121 82.0726 42.6795C81.357 44.0396 80.5367 45.3136 79.7172 46.5877C78.4032 48.6279 77.2898 50.5394 76.2022 52.7314C75.0258 55.1028 74.0341 57.887 72.863 60.1021C72.5488 60.6961 72.2291 61.1107 71.9086 61.377C71.7106 60.8337 71.5242 60.2841 71.3502 59.7292ZM69.626 50.8386C70.2111 51.0996 70.869 51.0206 71.3999 50.5234C72.1759 49.7963 73.8326 47.7267 75.0418 46.0354C78.167 41.6691 80.5269 40.5647 81.5142 32.8441C81.8604 30.1363 80.5677 25.8223 79.6763 21.2429C79.6515 21.1169 79.6275 20.9908 79.6027 20.8647C79.806 20.6348 80.0111 20.4084 80.2197 20.1829C80.2632 20.4652 80.3076 20.7484 80.3529 21.0307C80.9744 24.9079 82.157 28.7335 81.9767 32.7101C81.6722 39.4522 79.006 41.8351 75.6003 46.5948C74.3049 48.4041 72.5692 50.8297 71.7053 51.6394C71.4878 51.8436 71.2294 52.0016 70.956 52.1055C70.6798 52.2111 70.3886 52.2617 70.1072 52.2493C69.9891 52.2449 69.8728 52.228 69.7574 52.1996C69.7059 51.7486 69.6624 51.2949 69.626 50.8386ZM69.7245 43.285C69.9358 43.3968 70.1445 43.4661 70.3513 43.4963C71.0643 43.6001 71.7799 43.4705 72.5923 42.7691C76.9995 38.9604 80.1877 35.0007 78.5887 28.7042C78.1191 26.8549 77.6583 25.2648 77.2303 23.8185C77.3697 23.6276 77.51 23.4385 77.653 23.2503C78.1208 24.7916 78.6749 26.4962 79.3132 28.5133C81.4236 35.1756 77.9433 39.6218 73.0104 43.8851C72.0098 44.749 71.0758 45.1955 70.1205 45.0553C69.9438 45.0295 69.7654 44.9683 69.5869 44.8768C69.6224 44.3432 69.6686 43.8123 69.7245 43.285ZM71.2134 35.9116C71.4132 35.9702 71.6201 36.0039 71.8305 35.9986C72.0684 35.9924 72.3188 35.9409 72.5434 35.845C72.7592 35.7535 72.9545 35.6221 73.1001 35.4508C73.3105 35.204 73.4801 34.9243 73.6151 34.6278C73.7624 34.3046 73.8663 33.9619 73.9347 33.6228C74.0243 33.1788 74.0821 32.7207 74.0963 32.2591C74.1105 31.8311 74.0865 31.4005 74.0181 30.9779C73.9444 30.5243 73.8388 30.0723 73.7021 29.6311C73.4872 30.0626 73.2794 30.4985 73.0806 30.9389C73.362 31.8808 73.4117 32.7536 73.2049 33.787C73.101 34.3019 72.8986 34.8258 72.5514 35.2359C72.3738 35.4446 72.0462 35.5529 71.7728 35.56C71.6289 35.5635 71.4833 35.5369 71.3413 35.4925C71.2978 35.6319 71.2552 35.7722 71.2134 35.9116ZM76.3762 70.1558C77.4585 65.4601 79.0309 60.9784 80.3733 56.3289C82.046 50.5402 85.0584 45.0686 86.677 39.7248C87.3979 37.3427 87.5284 34.5807 87.6776 32.0993C88.1295 24.5794 87.3757 19.5694 86.7285 14.4928C86.9886 14.3108 87.2505 14.1306 87.5142 13.9548C87.7601 15.8387 87.9954 17.7236 88.1011 19.6093C88.3337 23.7741 88.4402 27.9513 88.2218 32.1232C88.0895 34.6509 87.8321 37.4058 87.0969 39.8304C86.5385 41.6753 85.6373 43.3915 84.9617 45.1947C83.5527 48.9573 82.2182 52.6879 81.1031 56.5473C79.8663 60.8301 78.5683 64.6425 77.5109 69.0922C77.3493 69.7723 77.2019 70.455 77.0608 71.1387C76.8281 70.8146 76.6 70.487 76.3762 70.1558ZM78.6429 73.1993C79.4526 68.1165 80.6876 64.013 82.0247 58.1258C82.6932 55.1827 83.3378 52.3434 84.4059 49.1943C85.2822 46.609 86.5225 44.0813 87.3544 41.5865C90.3242 32.6843 89.3884 28.8463 88.7758 21.4844C88.5592 18.8804 88.2556 16.2338 88.0283 13.6165C88.2414 13.4798 88.4553 13.3448 88.6711 13.2117C88.8451 15.9701 89.0955 18.7473 89.3192 21.4427C89.4612 23.1447 89.6006 24.7232 89.6992 26.2414V33.383C89.4692 35.979 88.9285 38.7002 87.8729 41.8813C87.4219 43.2432 86.9211 44.5705 86.4204 45.8969C84.8125 50.1567 83.5678 53.7924 82.5583 58.2368C81.7317 61.8733 80.2792 67.4702 79.7944 70.7826C79.6213 71.9679 79.4837 73.0528 79.3709 74.064C79.1241 73.7791 78.8817 73.4905 78.6429 73.1993ZM89.6992 15.8352C89.6166 14.7885 89.5323 13.7497 89.4541 12.7402C89.5358 12.6914 89.6166 12.6435 89.6992 12.5955V15.8352ZM81.9998 76.8216C82.0052 70.3911 83.0874 64.3681 83.9469 58.0113C84.1813 56.2738 84.4165 54.5355 84.8507 52.8317C85.2928 51.0978 85.9054 49.4189 86.5189 47.7401C87.5666 44.8706 88.6586 41.8698 89.313 38.8893C89.4914 38.0787 89.6104 37.317 89.6992 36.5668V40.4856C88.5281 44.7285 86.305 48.7264 85.2573 52.8362C83.9078 58.1276 82.8664 71.5453 82.9036 77.6588C82.5982 77.3845 82.2973 77.1048 81.9998 76.8216ZM84.1644 78.7455C84.1795 77.9953 84.1866 77.2433 84.1866 76.4887C84.1866 73.3103 84.4636 68.6616 84.8036 65.4903C85.0762 62.9485 85.4242 60.4129 85.8291 57.8879C86.4017 54.3055 87.0152 50.9913 88.086 47.5172C88.5894 45.8836 89.202 44.1319 89.6992 42.4175V44.4462C89.289 45.5338 88.8708 46.6152 88.5477 47.6646C87.8773 49.8389 87.3624 52.4704 86.8812 55.3114C85.6897 62.3439 85.0815 70.6601 85.0815 76.4887C85.0815 77.4795 85.0673 78.4668 85.0433 79.4523C84.7477 79.2205 84.4538 78.9853 84.1644 78.7455ZM85.8761 80.087C85.885 78.6363 85.9001 77.1847 85.9498 75.7332C86.0102 73.9575 86.0937 72.1898 86.202 70.4328C86.3121 68.6545 86.4452 66.8895 86.6051 65.1405C86.7169 63.9082 86.8634 62.6617 87.033 61.4063C87.5843 57.3286 88.2706 52.8832 89.2322 48.9404C89.3876 48.3047 89.5438 47.7312 89.6992 47.1985V50.028C88.9809 52.6266 88.4624 55.0655 88.0194 58.3496C87.2496 64.0538 87.1822 69.6587 86.9744 75.75C86.9167 77.4396 86.9069 79.1291 86.8972 80.8186C86.5527 80.5807 86.2126 80.3365 85.8761 80.087ZM87.8578 81.4641C87.8978 81.164 87.9439 80.8674 87.9999 80.5727C88.5379 77.721 88.5104 75.5236 88.2822 72.7776C87.8747 67.8732 88.8957 64.9044 89.6992 61.2012V64.8848C89.2934 67.5083 89.1239 69.8451 89.2153 72.7634C89.3005 75.4863 89.1647 77.903 88.933 80.6144C88.8913 81.0938 88.8504 81.5768 88.8105 82.0669C88.4899 81.8707 88.1721 81.67 87.8578 81.4641Z" fill="#AAA39D"></path></g></g><mask id="mask4_3_20292" style="mask-type:luminance" maskUnits="userSpaceOnUse" x="109" y="7" width="22" height="82"><path d="M109.907 7.18813H130.115V88.0044H109.907V7.18813Z" fill="white"></path></mask><g mask="url(#mask4_3_20292)"><g opacity="0.5"><path d="M109.905 49.8421C109.969 49.9505 110.031 50.0614 110.093 50.1742C110.792 51.4518 111.383 53.0046 111.682 54.5103C111.935 55.7817 112.009 57.1285 111.963 58.5126C111.918 59.8861 111.752 61.296 111.524 62.7067C111.22 64.5747 110.806 66.4374 110.413 68.2112L110.393 68.3009C110.219 69.0857 110.056 69.8475 109.905 70.5773V67.3847C110.378 65.5788 110.845 63.7694 111.154 61.9947C111.377 60.7127 111.539 59.4315 111.583 58.1868C111.628 56.9536 111.557 55.7568 111.317 54.6329C111.069 53.4751 110.489 52.2082 109.905 51.1535V49.8421ZM130.113 35.4567C129.384 27.4805 129.488 19.8754 129.82 12.4275C129.917 12.4825 130.015 12.5384 130.113 12.5944V35.4567ZM128.684 11.8069C128.213 20.0681 128.015 28.4917 129.145 38.0057C129.585 41.7177 129.972 45.4554 130.113 49.1576V56.0152C129.947 62.1509 129.443 68.514 128.95 74.5325C128.702 77.5556 128.457 80.5484 128.284 83.5928C127.889 83.7943 127.493 83.9897 127.091 84.1779C127.231 81.0181 127.546 77.7926 127.958 74.4668C128.857 67.2009 129.622 59.3197 129.622 52.0218C129.622 44.4468 128.284 36.9696 127.78 29.4355C127.382 23.4667 127.535 17.4472 127.854 11.3825C128.133 11.521 128.41 11.6622 128.684 11.8069ZM126.274 10.6403C126.353 12.2188 126.457 13.8258 126.516 15.6946C126.604 18.5197 126.545 21.3234 126.503 24.1512C126.419 29.9513 126.729 34.7127 127.318 40.4676C127.708 44.2808 128.097 48.1464 128.134 51.9916C128.189 57.9853 127.479 64.4513 126.954 70.4219C126.536 75.1753 126.126 79.8373 125.863 84.731C125.533 84.873 125.199 85.0115 124.865 85.1456C125.598 73.9954 127.569 61.8802 127.477 51.9969C127.44 48.1819 127.166 44.3359 126.779 40.552C126.186 34.7625 125.546 30.0259 125.632 24.1911C125.673 21.3687 125.669 18.5721 125.644 15.7506C125.627 13.7832 125.588 12.051 125.571 10.3366C125.807 10.4361 126.041 10.5373 126.274 10.6403ZM123.308 9.46389C123.313 9.67874 123.319 9.89449 123.327 10.1129C123.564 16.3942 124.911 23.2926 125.086 29.6113C125.158 32.1416 125.29 34.6719 125.538 37.2022C125.712 38.9778 125.879 40.496 126.034 41.897C126.496 46.0893 126.845 49.25 126.745 53.3491C126.64 57.671 126.195 61.9565 125.751 66.2287C125.092 72.5855 124.387 79.024 124.107 85.4377C123.813 85.5487 123.517 85.6561 123.218 85.76C123.548 79.1306 124.453 72.376 125.212 66.1444C125.729 61.9015 126.219 57.6452 126.324 53.3562C126.519 45.3755 124.457 38.7514 124.358 29.6575C124.318 25.8975 123.565 21.1352 123.398 17.8964C123.335 16.6801 123.197 15.4656 123.06 14.2519C122.858 12.4656 122.743 10.8107 122.693 9.25259C122.899 9.32096 123.104 9.39198 123.308 9.46389ZM119.944 8.44467C120.347 13.8125 121.753 18.7568 122.543 25.1393C123.518 33.0188 124.584 41.6324 125.088 49.028C125.416 53.8223 124.963 58.9388 124.485 63.7064C124.287 65.6854 124.062 67.6812 123.839 69.6619C123.236 75.0173 122.646 80.2652 122.512 85.9988C122.241 86.0876 121.968 86.1737 121.695 86.2572C121.817 80.3789 122.419 75.0297 123.033 69.5696C123.74 63.2945 124.959 55.1567 124.544 49.0839C124.041 41.7115 122.546 33.1084 121.573 25.2405C120.922 19.9828 119.85 14.0912 119.469 8.32659C119.628 8.36477 119.786 8.40383 119.944 8.44467ZM116.8 7.77348C116.654 13.5213 117.092 18.3537 118.902 24.8002C119.675 27.5542 120.227 29.819 120.622 32.6974C121.638 40.1231 123.465 45.664 123.646 53.6607C123.76 58.7683 123.004 64.4682 122.449 69.5811C121.854 75.0537 121.262 80.5014 121.108 86.4312C120.83 86.5111 120.551 86.5883 120.271 86.6629C120.416 80.5999 121.017 75.059 121.622 69.4906C122.173 64.422 123.215 58.739 123.101 53.6793C122.999 49.1328 122.074 44.8011 121.141 40.4365C120.592 37.8743 120.073 35.4239 119.715 32.8083C119.326 29.9673 118.783 27.7406 118.019 25.0221C116.176 18.4576 115.938 13.5426 116.197 7.67493C116.399 7.706 116.6 7.73975 116.8 7.77348ZM118.249 87.1414C118.316 84.4806 118.458 81.8349 118.585 79.1626C119.049 69.3965 122.314 60.9994 120.795 50.6341C120.141 46.179 118.983 42.8186 117.624 37.9338C115.969 31.9836 114.403 25.9659 113.015 19.895C112.122 15.9859 111.526 10.6358 110.165 7.1884C110.474 7.19018 110.782 7.1964 111.09 7.20528C112.255 10.8125 112.834 15.6787 113.685 19.3978C115.124 25.7004 116.752 31.9481 118.47 38.1246C119.892 43.2376 120.845 46.8404 121.294 50.5284C121.743 54.2209 121.682 57.9702 121.075 63.3602C120.482 68.6179 119.593 73.8267 119.339 79.1439C119.216 81.7417 119.166 84.3412 119.148 86.9426C118.849 87.0118 118.55 87.0784 118.249 87.1414ZM116.212 87.5152C116.186 80.1143 117.284 72.9567 118.064 65.7298C118.495 61.7319 119.39 56.9527 118.863 53.0321C118.078 47.1955 114.459 38.0066 112.64 31.8717C112.207 30.4139 111.343 27.2674 110.296 24.7256C110.162 24.3998 110.031 24.1006 109.905 23.8245V21.2968C111.376 24.153 112.752 28.9605 113.383 31.0886C114.175 33.7619 115.01 36.4032 115.833 39.0569C117.141 43.2723 119.021 48.4891 119.344 52.9664C119.636 57.0042 118.982 61.7736 118.543 65.8301C117.772 72.9842 117.006 80.0708 117.084 87.3687C116.795 87.4202 116.505 87.469 116.212 87.5152ZM113.244 87.8686C113.073 80.0459 114.139 74.1774 114.869 68.5371C116.518 55.8163 116.68 51.6258 112.236 38.8828C111.53 36.8586 110.65 35.1859 109.905 34.0957V32.0928C109.927 32.1185 109.948 32.1443 109.968 32.17C110.876 33.3339 111.855 35.6263 112.758 38.2054C114.06 41.929 115.213 46.2758 115.747 48.6462C116.824 53.4245 116.631 55.6592 116.24 60.504C116.015 63.298 115.67 65.9553 115.319 68.664C114.595 74.252 113.842 80.0664 114.056 87.794C113.786 87.8215 113.516 87.8464 113.244 87.8686ZM109.905 83.4623C110.268 78.6201 111.484 74.5485 112.473 68.9721C113.102 65.4164 113.755 62.0595 113.741 58.4505C113.723 53.7486 112.696 49.1346 110.491 44.96C110.291 44.5818 110.096 44.2506 109.905 43.9648V41.6724C111.123 43.2882 112.233 46.1799 112.785 47.9751C115.399 56.4777 114.843 60.6656 112.999 69.1461C111.503 76.0285 110.297 82.554 110.77 87.9955C110.482 88.0008 110.195 88.0044 109.905 88.0044V83.4623ZM109.905 58.6307C109.956 58.0927 109.971 57.6124 109.957 57.1312C109.948 56.864 109.931 56.5985 109.905 56.3357V58.6307Z" fill="#AAA39D"></path></g></g><mask id="mask5_3_20292" style="mask-type:luminance" maskUnits="userSpaceOnUse" x="89" y="7" width="21" height="82"><path d="M89.7002 7.18862H109.907V88.0059H89.7002V7.18862Z" fill="white"></path></mask><g mask="url(#mask5_3_20292)"><g opacity="0.5"><path d="M104.56 11.6534C104.832 10.8073 105.169 10.2649 105.488 10.0048C105.66 9.86447 105.833 9.79789 105.996 9.80322C106.179 9.80854 106.342 9.89821 106.473 10.0687C106.63 10.2729 106.736 10.596 106.763 11.0249C106.791 11.4785 106.971 12.8076 107.273 14.68C107.522 16.224 107.849 18.123 108.239 20.1881C108.606 22.1324 109.121 23.8619 109.603 25.4804C109.706 25.8258 109.807 26.1658 109.906 26.5023V29.1889C109.676 28.3117 109.39 27.4168 109.091 26.4819C108.603 24.9575 108.082 23.3266 107.708 21.4781C107.314 19.5338 106.985 17.7608 106.738 16.3278C106.57 15.3592 106.03 10.9796 105.065 13.6164C104.776 14.4101 104.484 15.8493 104.089 17.7022C103.396 20.9578 102.299 24.3271 101.733 27.5819C101.509 28.8639 101.348 30.1459 101.303 31.3898C101.259 32.623 101.33 33.8198 101.57 34.9437C101.854 36.2755 102.578 37.751 103.243 38.883C104.478 40.9845 105.635 42.2594 107.515 40.3053C108.277 39.5107 109.024 38.3059 109.581 36.8375C109.699 36.5303 109.807 36.2124 109.906 35.8839V37.5717C109.337 39.0268 108.617 40.229 107.879 41.0529C107.024 42.009 106.128 42.4698 105.386 42.2612C105.291 42.2346 105.2 42.1973 105.112 42.1493C104.341 41.7312 103.506 40.7048 102.793 39.4024C102.093 38.1248 101.504 36.572 101.205 35.0663C100.952 33.7949 100.876 32.4481 100.923 31.0639C100.969 29.6905 101.134 28.2806 101.363 26.8699C101.665 25.0019 102.08 23.1392 102.474 21.3645L102.494 21.2757C102.914 19.3837 103.263 17.6276 103.56 16.1272C103.96 14.1172 104.268 12.5644 104.56 11.6534ZM89.6982 74.1705C89.7391 74.5549 89.7826 74.9393 89.8261 75.3238C90.1439 78.1284 90.2452 80.6081 90.2221 82.8969C90.0472 82.7984 89.8723 82.6989 89.6982 82.5986V74.1705ZM89.6982 13.8863C89.7435 13.4326 89.787 12.9772 89.8296 12.5208C90.1129 12.3584 90.3996 12.1986 90.6873 12.0432C90.4476 14.72 90.1519 17.3506 89.8527 20.007C89.8039 20.4447 89.7515 20.8921 89.6982 21.3458V13.8863ZM93.0507 84.3343C93.1093 77.6366 91.2875 72.0646 90.3437 64.4373C90.1306 62.7158 89.9131 60.9597 89.6982 59.1885V52.5706C90.2443 56.5152 90.84 60.5122 91.3132 64.3369C92.0892 70.6059 93.4645 77.7768 93.5532 84.5607C93.3854 84.4861 93.2176 84.4107 93.0507 84.3343ZM95.9265 85.5222C96.3562 77.9917 96.1697 72.5609 93.9839 64.7764C93.2114 62.0224 92.6592 59.7575 92.265 56.8792C91.5228 51.4573 90.3481 47.0404 89.6982 41.938V26.7891C89.9255 24.479 90.1999 22.183 90.4378 19.9954C90.7352 17.2556 91.0327 14.522 91.2742 11.7316C91.5627 11.5806 91.853 11.4342 92.146 11.2903C91.8965 14.2672 91.5805 17.173 91.2644 20.086C90.713 25.1546 89.6707 30.8376 89.7853 35.8973C89.8874 40.4438 90.8125 44.7755 91.7456 49.1401C92.2943 51.7023 92.8128 54.1527 93.1715 56.7682C93.5604 59.6093 94.1037 61.8359 94.8673 64.5545C97.094 72.4881 96.9785 78.0112 96.4725 85.7193C96.2896 85.6554 96.1076 85.5897 95.9265 85.5222ZM94.3061 10.3102L94.3017 10.414C93.8365 20.1801 90.5719 28.5772 92.0919 38.9425C92.7453 43.3976 93.9039 46.758 95.2623 51.6428C96.9173 57.593 98.4834 63.6098 99.8702 69.6817C100.769 73.6112 101.366 78.9985 102.742 82.4432C104.042 85.698 105.24 84.0981 106.335 81.2038C107.46 78.2305 108.326 75.1018 109.328 72.0557C109.513 71.4972 109.706 70.9273 109.906 70.3466V73.7097C108.892 76.8118 108.005 79.9866 106.861 83.0097C106.493 83.9836 106.091 84.7791 105.665 85.3145C104.187 87.1736 102.963 85.4157 102.227 83.5743C100.763 79.9103 100.151 74.3294 99.2017 70.1788C97.7625 63.8771 96.1342 57.6285 94.4162 51.452C92.9948 46.339 92.0413 42.7362 91.5929 39.0482C91.1436 35.3557 91.204 31.6064 91.8113 26.2164C92.3964 21.028 93.27 15.8866 93.5364 10.6422C93.7912 10.5286 94.0487 10.4176 94.3061 10.3102ZM96.3704 9.51201C95.993 14.3205 95.3387 19.0686 94.8229 23.8468C94.3905 27.8447 93.4964 32.6239 94.0238 36.5445C94.8087 42.381 98.4275 51.57 100.247 57.7049C100.678 59.1627 101.544 62.3092 102.591 64.851C104.917 70.502 106.043 68.5896 107.777 63.4269C108.41 61.5456 109.028 59.5782 109.712 57.8034C109.774 57.6401 109.839 57.4776 109.906 57.316V60.6871C108.988 63.3115 108.15 66.1383 107.192 68.4733C106.264 70.7382 105.29 70.9788 104.38 70.2543C102.449 68.7175 100.334 61.2864 99.5036 58.488C98.7116 55.8156 97.8762 53.1734 97.0531 50.5197C95.7453 46.3043 93.8658 41.0875 93.5417 36.6102C93.2505 32.5724 93.9048 27.803 94.3425 23.7465C94.8451 19.0916 95.3449 14.4652 95.6104 9.7899C95.8625 9.6949 96.1156 9.60257 96.3704 9.51201ZM99.4867 8.54517C99.1777 13.1894 98.5189 17.1677 98.0164 21.0395C96.3686 33.7603 96.207 37.9508 100.651 50.6937C101.476 53.0625 102.541 54.9509 103.349 55.9861C104.037 56.8677 105.003 57.0017 105.729 56.1246C106.506 55.187 108.162 52.5182 109.372 50.3386C109.552 50.0137 109.73 49.7029 109.906 49.4029V51.103C108.613 53.4309 106.894 56.5259 106.035 57.5637C105.818 57.8256 105.559 58.0298 105.285 58.1639C105.01 58.2997 104.718 58.3654 104.436 58.3503C104.167 58.3353 103.898 58.2367 103.646 58.0796C103.38 57.9126 103.13 57.6783 102.918 57.4057C102.011 56.2427 101.031 53.9512 100.129 51.3712C98.8261 47.6467 97.6728 43.3008 97.1392 40.9303C96.0623 36.1521 96.2558 33.9174 96.6465 29.0726C96.872 26.2786 97.2165 23.6213 97.5672 20.9126C98.0573 17.1331 98.5598 13.2506 98.7675 8.74404C99.0064 8.67568 99.2461 8.60909 99.4867 8.54517ZM109.906 13.9467C109.551 11.863 109.303 9.71265 109.203 7.19479C109.437 7.19123 109.671 7.18946 109.906 7.18946V13.9467ZM102.818 7.80827C102.333 11.9429 101.285 15.6895 100.414 20.6045C99.7832 24.1602 99.1307 27.5171 99.1449 31.1261C99.1635 35.828 100.191 40.442 102.395 44.6166C103.216 46.1712 103.956 46.9285 104.681 47.0643C105.394 47.1975 106.109 47.0315 106.921 46.1259C108.008 44.9158 109.02 43.6933 109.906 42.4166V44.4701C109.117 45.5213 108.253 46.5476 107.34 47.5659C106.34 48.6793 105.405 49.2546 104.45 49.0744C102.729 48.7503 100.871 44.1061 100.101 41.6015C97.4873 33.0988 98.0422 28.911 99.8871 20.4305C100.835 16.0668 101.668 11.8479 102.029 7.95654C102.291 7.90504 102.554 7.85533 102.818 7.80827ZM104.624 28.4094C105.711 26.8503 106.611 28.1936 107.144 29.9036C107.648 31.5167 107.796 32.8671 107.534 34.546C107.431 35.2101 107.229 35.8857 106.881 36.414C106.704 36.683 106.375 36.8233 106.103 36.8321C105.761 36.8437 105.41 36.6368 105.126 36.4166C104.118 35.6345 103.725 34.3391 103.684 32.9231C103.644 31.5851 103.9 29.4454 104.624 28.4094ZM103.193 29.457C103.091 29.9737 103.023 30.4966 102.974 31.0142C102.931 31.4839 102.916 31.9642 102.93 32.4454C102.944 32.9222 102.987 33.3954 103.059 33.8553C103.109 34.1669 103.199 34.4661 103.312 34.7502C103.422 35.0236 103.557 35.2847 103.7 35.5324C103.852 35.7952 104.023 36.05 104.213 36.2799C104.387 36.4912 104.576 36.6821 104.781 36.8401C104.977 36.992 105.194 37.1331 105.422 37.2352C105.659 37.3418 105.908 37.4057 106.16 37.3968C106.398 37.3897 106.649 37.3231 106.874 37.1997C107.088 37.0816 107.284 36.912 107.43 36.691C107.64 36.374 107.809 36.0127 107.944 35.6309C108.092 35.2128 108.196 34.7724 108.265 34.3356C108.354 33.762 108.411 33.1716 108.425 32.5768C108.44 32.0246 108.417 31.4697 108.347 30.9246C108.263 30.2543 108.137 29.5875 107.969 28.9394C107.805 28.309 107.602 27.6973 107.358 27.1193C107.232 26.8201 107.051 26.5405 106.834 26.3141C106.626 26.0948 106.383 25.9243 106.125 25.8347C105.908 25.7583 105.679 25.7725 105.457 25.8435C105.214 25.9217 104.98 26.0699 104.787 26.2395C104.537 26.4597 104.302 26.7225 104.099 27.0164C103.904 27.2987 103.737 27.6112 103.612 27.945C103.431 28.4271 103.296 28.9358 103.193 29.457ZM109.658 88.0046C109.743 87.5109 109.826 87.0129 109.906 86.5095V88.0063C109.823 88.0063 109.74 88.0055 109.658 88.0046Z" fill="#AAA39D"></path></g></g><mask id="mask6_3_20292" style="mask-type:luminance" maskUnits="userSpaceOnUse" x="130" y="13" width="21" height="70"><path d="M130.115 13.1785H150.314V82.1753H130.115V13.1785Z" fill="white"></path></mask><g mask="url(#mask6_3_20292)"><g opacity="0.5"><path d="M144.533 26.7582C143.471 27.0876 142.524 27.0671 141.86 26.6472C141.759 26.5833 141.665 26.5105 141.58 26.4297C140.823 25.7194 140.196 24.409 139.801 22.8881C139.56 21.9559 139.404 20.9394 139.358 19.9317C139.588 20.1767 139.815 20.4236 140.039 20.6739C140.159 21.3398 140.323 21.995 140.497 22.5827C141.142 24.7694 141.93 26.3285 144.032 25.9476C144.202 26.2157 144.368 26.4865 144.533 26.7582ZM130.113 63.6304C132.36 61.3212 134.373 58.7749 136.514 56.3582C140.291 52.0922 145.286 47.1852 149.945 42.1033C150.002 42.5242 150.052 42.9468 150.096 43.3711C148.627 44.8822 147.141 46.3729 145.714 47.9292C142.697 51.2213 139.773 54.6057 136.81 57.9519C134.571 60.4813 132.465 63.1448 130.113 65.5597V63.6304ZM131.489 13.431C131.081 14.4929 130.757 15.5529 130.572 16.597C129.54 22.4229 130.681 32.5717 130.749 39.1016C130.766 40.6526 130.722 43.9749 131.091 46.8017C131.909 53.0831 133.854 51.7416 137.587 47.5857C138.947 46.071 140.321 44.4694 141.705 43.0755C143.817 40.9492 146.465 39.1922 148.995 37.3189C149.079 37.6394 149.159 37.9608 149.236 38.2839L148.987 38.4855C146.586 40.4271 144.472 42.2942 142.269 44.5129C139.885 46.9136 137.538 49.8922 135.226 52.1038C133.394 53.8581 132.184 53.6859 131.369 52.6294C130.76 51.8401 130.367 50.3521 130.113 48.6253V16.0093C130.374 15.0762 130.706 14.1289 131.085 13.178C131.22 13.2615 131.355 13.3458 131.489 13.431ZM134.733 15.7136C133.313 20.2753 133.041 24.9044 133.554 32.656C133.723 35.2289 134.331 37.4458 134.924 38.7536C135.429 39.8669 136.506 40.3898 137.64 39.8598C138.854 39.2943 141.666 37.4573 143.797 35.8974C145.233 34.8463 146.513 34.0446 147.701 33.2721C147.807 33.5518 147.91 33.8315 148.01 34.1138C146.83 34.9466 145.566 35.8096 144.204 36.8066C141.924 38.4748 138.867 40.7112 137.517 41.3425C137.177 41.5005 136.808 41.5866 136.446 41.6008C136.081 41.6159 135.721 41.5582 135.399 41.4277C135.091 41.3034 134.811 41.101 134.572 40.8488C134.318 40.5825 134.107 40.2593 133.951 39.9157C133.284 38.4464 132.911 35.8832 132.722 33.0813C132.449 29.0354 132.559 24.464 132.728 22.011C132.93 19.0936 133.349 17.191 134.084 15.2173C134.301 15.3807 134.518 15.5458 134.733 15.7136ZM137.237 17.8347C136.711 21.014 136.799 24.3113 137.603 27.6416C138.038 29.4438 138.645 30.4613 139.442 30.8875C140.225 31.3056 141.111 31.4415 142.355 30.9212C143.599 30.4018 144.796 29.8585 145.927 29.2672C146.134 29.6738 146.335 30.084 146.529 30.4986C145.218 31.1991 143.82 31.8401 142.361 32.45C140.83 33.0901 139.553 33.2491 138.504 32.688C136.614 31.6767 136.003 26.5362 135.944 23.8585C135.884 21.2039 136.017 19.0084 136.357 17.0489C136.654 17.3064 136.947 17.5683 137.237 17.8347ZM130.113 73.8297C131.241 72.1455 132.273 70.4223 133.329 68.5587C136.951 62.162 141.393 56.5846 145.566 50.5972C147.001 48.5401 148.583 46.5806 150.21 44.6736C150.236 45.034 150.257 45.3963 150.273 45.7603C148.923 47.5279 147.603 49.3214 146.32 51.1618C143.045 55.8602 139.901 59.9637 136.762 64.94C134.496 68.5339 132.564 72.324 130.113 75.8842V73.8297ZM130.825 82.1753C131.496 80.7299 132.106 79.3129 132.744 77.8329C137.137 67.6452 141.083 62.5757 146.711 53.4586C147.891 51.548 149.047 49.6756 150.313 47.781C150.312 48.2711 150.3 48.7585 150.281 49.2441C149.272 50.6922 148.282 52.1952 147.283 53.812C144.763 57.8942 140.673 64.1027 138.687 67.931C136.511 72.1269 135.13 75.3275 133.86 78.2751C133.464 79.1931 133.079 80.0862 132.684 80.9776C132.076 81.3931 131.457 81.7926 130.825 82.1753ZM138.757 75.8886C141.518 68.1921 145.311 61.3922 148.992 54.1076C149.351 53.3974 149.711 52.6871 150.079 51.9822C150.03 52.4341 149.973 52.8842 149.91 53.3317C146.848 59.2357 143.175 67.5661 140.804 73.6397C140.149 74.4148 139.468 75.165 138.757 75.8886ZM144.737 68.0962C145.442 66.4546 146.145 64.8849 146.776 63.5505C147.214 62.6236 147.661 61.7012 148.114 60.7814C147.229 63.3463 146.094 65.7949 144.737 68.0962Z" fill="#AAA39D"></path></g></g><mask id="mask7_3_20292" style="mask-type:luminance" maskUnits="userSpaceOnUse" x="131" y="48" width="15" height="16"><path d="M131.828 48.3774H145.306V63.7173H131.828V48.3774Z" fill="white"></path></mask><g mask="url(#mask7_3_20292)"><g opacity="0.649994"><path fill-rule="evenodd" clip-rule="evenodd" d="M131.828 63.7173C134.977 61.2385 140.783 54.0746 145.304 48.3774C142.431 51.5283 139.639 54.7574 136.81 57.9526C135.127 59.8526 133.52 61.828 131.828 63.7173Z" fill="url(#paint8_radial_3_20292)"></path></g></g><path d="M109.367 7.19155C109.59 34.0838 109.591 61.0203 109.367 88.0022C109.545 88.004 109.725 88.0049 109.906 88.0049C110.085 88.0049 110.265 88.004 110.445 88.0022C110.131 61.11 110.129 34.1734 110.445 7.19155C110.265 7.18977 110.085 7.18888 109.906 7.18888C109.725 7.18888 109.545 7.18977 109.367 7.19155ZM129.57 82.9061C129.934 82.7028 130.293 82.495 130.649 82.282C130.579 73.0504 130.531 64.6382 130.516 55.4066C131.253 55.1128 132.107 54.3235 132.218 53.7411C132.327 53.1631 131.735 51.7959 130.516 49.6695C130.504 36.8671 130.549 25.7133 130.649 12.9118C130.293 12.6987 129.934 12.4901 129.57 12.2886C129.843 35.736 129.838 59.2775 129.57 82.9061ZM89.1611 12.9118C89.6335 34.2151 89.6335 59.9674 89.1611 82.282C89.5172 82.495 89.8768 82.7028 90.2399 82.9061C90.0721 63.4477 90.0446 43.8498 90.1538 24.3434C90.1627 23.0579 92.02 22.9504 90.1777 20.4867C90.1964 17.7513 90.2169 15.0186 90.2399 12.2886C89.8768 12.4901 89.5172 12.6978 89.1611 12.9118Z" fill="url(#paint9_linear_3_20292)"></path><mask id="mask8_3_20292" style="mask-type:luminance" maskUnits="userSpaceOnUse" x="69" y="20" width="13" height="31"><path d="M69.502 20.8663H81.5677V50.9849H69.502V20.8663Z" fill="white"></path></mask><g mask="url(#mask8_3_20292)"><g opacity="0.300003"><path fill-rule="evenodd" clip-rule="evenodd" d="M75.0417 46.036C78.1669 41.6688 80.526 40.5643 81.5133 32.8447C81.8595 30.1368 80.5677 25.8229 79.6754 21.2435C79.6514 21.1174 79.6265 20.9922 79.6026 20.8662C78.9234 21.6359 78.2726 22.4323 77.6529 23.2518C78.1208 24.793 78.6748 26.4968 79.3132 28.5139C81.4236 35.1752 77.9424 39.6224 73.0095 43.8857C72.0098 44.7495 71.0749 45.1952 70.1205 45.0558C69.9438 45.0301 69.7662 44.9688 69.5878 44.8783C69.5283 45.7767 69.498 46.6832 69.498 47.5968C69.498 48.6888 69.5416 49.7702 69.6259 50.8391C70.2101 51.0993 70.8689 51.0211 71.3989 50.524C72.1758 49.7968 73.8316 47.7273 75.0417 46.036Z" fill="url(#paint10_radial_3_20292)"></path></g></g><mask id="mask9_3_20292" style="mask-type:luminance" maskUnits="userSpaceOnUse" x="71" y="16" width="16" height="50"><path d="M71.9082 16.0321H86.1848V65.7876H71.9082V16.0321Z" fill="white"></path></mask><g mask="url(#mask9_3_20292)"><g opacity="0.300003"><path fill-rule="evenodd" clip-rule="evenodd" d="M82.0732 42.6802C81.3576 44.0403 80.5372 45.3144 79.7168 46.5875C78.4037 48.6286 77.2894 50.5401 76.2027 52.7312C75.0254 55.1035 74.0346 57.8877 72.8636 60.1029C72.5493 60.6968 72.2297 61.1105 71.9092 61.3778C72.4588 62.8915 73.0962 64.3644 73.8154 65.7876C74.2051 64.8163 74.5913 63.8433 74.9997 62.8809C78.6914 54.1846 85.8092 41.9513 86.159 33.2985C86.3685 28.1243 85.3946 22.0196 84.6781 16.0321C84.2093 16.4068 83.7494 16.7912 83.2993 17.1863C83.753 19.9297 84.2483 22.6722 84.4809 25.4413C85.0385 32.0733 85.1078 36.9129 82.0732 42.6802Z" fill="url(#paint11_radial_3_20292)"></path></g></g><mask id="mask10_3_20292" style="mask-type:luminance" maskUnits="userSpaceOnUse" x="99" y="7" width="11" height="41"><path d="M99.1475 7.19639H109.535V47.105H99.1475V7.19639Z" fill="white"></path></mask><g mask="url(#mask10_3_20292)"><g opacity="0.300003"><path fill-rule="evenodd" clip-rule="evenodd" d="M99.1456 31.1249C99.1642 35.8277 100.191 40.4408 102.396 44.6162C103.216 46.1699 103.957 46.9281 104.682 47.064C105.395 47.1972 106.11 47.0311 106.922 46.1255C107.859 45.0824 108.74 44.0294 109.533 42.9409C109.533 41.4467 109.524 39.9525 109.524 38.4592C109.031 39.5184 108.46 40.4026 107.877 41.0525C107.022 42.0078 106.127 42.4695 105.385 42.2608C105.29 42.2342 105.199 42.1969 105.111 42.149C104.34 41.7308 103.505 40.7045 102.792 39.4021C102.092 38.1245 101.503 36.5717 101.204 35.0659C100.951 33.7946 100.875 32.4477 100.922 31.0627C100.967 29.6901 101.133 28.2794 101.362 26.8695C101.664 25.0015 102.079 23.1389 102.473 21.3641L102.493 21.2745C102.913 19.3834 103.262 17.6273 103.559 16.1268C103.959 14.1168 104.267 12.5631 104.559 11.6531C104.83 10.807 105.168 10.2637 105.487 10.0044C105.659 9.86414 105.832 9.79755 105.995 9.80199C106.178 9.8082 106.341 9.89788 106.472 10.0683C106.629 10.2725 106.735 10.5957 106.762 11.0245C106.79 11.4782 106.97 12.8073 107.272 14.6797C107.521 16.2236 107.848 18.1218 108.238 20.1878C108.574 21.9696 109.035 23.5721 109.481 25.0743C109.458 20.059 109.427 15.0446 109.388 10.0328C109.304 9.13257 109.242 8.19326 109.203 7.19623C107.028 7.23352 104.895 7.44215 102.817 7.80971C102.332 11.9434 101.284 15.6891 100.413 20.6041C99.7822 24.1599 99.1304 27.5168 99.1438 31.1249" fill="url(#paint12_radial_3_20292)"></path></g></g><mask id="mask11_3_20292" style="mask-type:luminance" maskUnits="userSpaceOnUse" x="93" y="8" width="17" height="61"><path d="M93.8643 8.74484H109.535V68.2886H93.8643V8.74484Z" fill="white"></path></mask><g mask="url(#mask11_3_20292)"><g opacity="0.300003"><path fill-rule="evenodd" clip-rule="evenodd" d="M102.919 57.4056C102.011 56.2425 101.031 53.9501 100.129 51.371C98.8264 47.6466 97.6731 43.2998 97.1395 40.9302C96.0626 36.1519 96.2561 33.9164 96.6467 29.0724C96.8722 26.2776 97.2167 23.6212 97.5674 20.9115C98.0566 17.1338 98.5601 13.2514 98.7678 8.74478C97.9581 8.9765 97.1582 9.23309 96.3707 9.51275C95.9934 14.3212 95.339 19.0693 94.8231 23.8467C94.3908 27.8446 93.4967 32.6237 94.0241 36.5435C94.8089 42.3809 98.4278 51.5699 100.247 57.7048C100.678 59.1617 101.544 62.3081 102.591 64.8509C104.917 70.5019 106.044 68.5895 107.778 63.4268C108.351 61.7204 108.914 59.9439 109.523 58.3032C109.532 56.1262 109.532 53.9501 109.533 51.7741C108.3 53.9919 106.813 56.6225 106.035 57.5636C105.818 57.8255 105.56 58.0297 105.285 58.1638C105.01 58.2996 104.718 58.3644 104.437 58.3493C104.167 58.3351 103.899 58.2366 103.647 58.0794C103.38 57.9125 103.131 57.6781 102.919 57.4056Z" fill="url(#paint13_radial_3_20292)"></path></g></g><mask id="mask12_3_20292" style="mask-type:luminance" maskUnits="userSpaceOnUse" x="90" y="10" width="20" height="79"><path d="M90.0996 10.6439H109.455V88.0005H90.0996V10.6439Z" fill="white"></path></mask><g mask="url(#mask12_3_20292)"><g opacity="0.300003"><path fill-rule="evenodd" clip-rule="evenodd" d="M102.226 83.5742C100.763 79.9101 100.15 74.3293 99.2014 70.1778C97.7622 63.876 96.1339 57.6284 94.4159 51.4518C92.9945 46.3388 92.0409 42.736 91.5925 39.048C91.1433 35.3556 91.2037 31.6063 91.811 26.2163C92.3961 21.0278 93.2697 15.8874 93.5361 10.6439C93.0682 10.8516 92.6038 11.0674 92.1457 11.292C91.8962 14.268 91.5801 17.1729 91.264 20.085C90.9435 23.0317 90.457 26.1861 90.1285 29.305C90.1126 32.8972 90.1009 36.4929 90.0947 40.0894C90.4632 43.1445 91.1024 46.1346 91.7452 49.1399C92.2939 51.7022 92.8125 54.1526 93.1712 56.7681C93.56 59.6091 94.1033 61.8358 94.8669 64.5543C97.0936 72.487 96.9783 78.0102 96.4722 85.7174C100.515 87.1415 104.851 87.9414 109.366 88C109.402 83.7029 109.432 79.4059 109.456 75.1106C108.62 77.7607 107.833 80.4402 106.861 83.0095C106.492 83.9835 106.091 84.779 105.666 85.3143C104.187 87.1734 102.962 85.4147 102.226 83.5742Z" fill="url(#paint14_radial_3_20292)"></path></g></g><mask id="mask13_3_20292" style="mask-type:luminance" maskUnits="userSpaceOnUse" x="110" y="24" width="10" height="64"><path d="M110.245 24.7262H119.026V87.7939H110.245V24.7262Z" fill="white"></path></mask><g mask="url(#mask13_3_20292)"><g opacity="0.300003"><path fill-rule="evenodd" clip-rule="evenodd" d="M116.24 60.5044C116.015 63.2984 115.67 65.9556 115.319 68.6644C114.595 74.2524 113.842 80.0667 114.056 87.7935C114.781 87.7198 115.5 87.6265 116.212 87.5147C116.186 80.1147 117.284 72.9561 118.064 65.7301C118.496 61.7323 119.39 56.9531 118.863 53.0333C118.078 47.1959 114.458 38.0069 112.64 31.8721C112.208 30.4143 111.342 27.2678 110.295 24.726C110.267 27.3166 110.253 29.9339 110.241 32.5512C111.07 33.7942 111.945 35.8833 112.758 38.2058C114.061 41.9302 115.213 46.2761 115.748 48.6466C116.825 53.4249 116.63 55.6595 116.24 60.5044Z" fill="url(#paint15_radial_3_20292)"></path></g></g><mask id="mask14_3_20292" style="mask-type:luminance" maskUnits="userSpaceOnUse" x="116" y="7" width="9" height="80"><path d="M116.771 7.77599H124.628V86.4307H116.771V7.77599Z" fill="white"></path></mask><g mask="url(#mask14_3_20292)"><g opacity="0.300003"><path fill-rule="evenodd" clip-rule="evenodd" d="M120.622 32.6973C121.638 40.1231 123.466 45.664 123.646 53.6607C123.76 58.7683 123.005 64.4682 122.449 69.5811C121.854 75.0537 121.262 80.5005 121.108 86.4312C121.305 86.3743 121.5 86.3166 121.695 86.2571C121.817 80.3789 122.419 75.0297 123.033 69.5696C123.74 63.2944 124.959 55.1566 124.544 49.0839C124.042 41.7114 122.547 33.1093 121.574 25.2405C120.923 19.9837 119.851 14.093 119.469 8.32924C118.59 8.11527 117.701 7.9315 116.801 7.77612C116.654 13.523 117.093 18.3545 118.902 24.8001C119.675 27.5542 120.228 29.819 120.622 32.6973Z" fill="url(#paint16_radial_3_20292)"></path></g></g><mask id="mask15_3_20292" style="mask-type:luminance" maskUnits="userSpaceOnUse" x="133" y="15" width="15" height="26"><path d="M133.312 15.7144H147.703V40.0684H133.312V15.7144Z" fill="white"></path></mask><g mask="url(#mask15_3_20292)"><g opacity="0.300003"><path fill-rule="evenodd" clip-rule="evenodd" d="M133.553 32.656C133.723 35.2298 134.331 37.4467 134.924 38.7536C135.429 39.8669 136.506 40.3899 137.641 39.8607C138.854 39.2943 141.666 37.4574 143.797 35.8984C145.233 34.8472 146.514 34.0446 147.701 33.2731C147.344 32.3311 146.952 31.406 146.528 30.4995C145.217 31.2 143.82 31.841 142.361 32.4501C140.83 33.0911 139.553 33.2491 138.504 32.688C136.614 31.6768 136.003 26.5363 135.944 23.8586C135.884 21.2058 136.017 19.0102 136.357 17.0499C135.827 16.5908 135.285 16.146 134.732 15.7146C133.313 20.2762 133.041 24.9044 133.553 32.656Z" fill="url(#paint17_radial_3_20292)"></path></g></g><mask id="mask16_3_20292" style="mask-type:luminance" maskUnits="userSpaceOnUse" x="130" y="38" width="20" height="26"><path d="M130.515 38.285H149.941V63.1841H130.515V38.285Z" fill="white"></path></mask><g mask="url(#mask16_3_20292)"><g opacity="0.300003"><path fill-rule="evenodd" clip-rule="evenodd" d="M142.269 44.5131C139.884 46.9147 137.538 49.8925 135.227 52.1049C133.394 53.8593 132.183 53.6861 131.368 52.6296C131.017 52.1751 130.739 51.4888 130.517 50.6578C130.517 54.8332 130.528 59.0086 130.543 63.1841C132.619 60.9956 134.511 58.6207 136.514 56.3585C140.29 52.0934 145.285 47.1873 149.943 42.1054C149.768 40.8118 149.531 39.5369 149.235 38.285L148.987 38.4857C146.586 40.4282 144.472 42.2953 142.269 44.5131Z" fill="url(#paint18_radial_3_20292)"></path></g></g><mask id="mask17_3_20292" style="mask-type:luminance" maskUnits="userSpaceOnUse" x="132" y="49" width="19" height="32"><path d="M132.681 49.2457H150.278V80.9771H132.681V49.2457Z" fill="white"></path></mask><g mask="url(#mask17_3_20292)"><g opacity="0.300003"><path fill-rule="evenodd" clip-rule="evenodd" d="M147.283 53.8119C144.763 57.8941 140.673 64.1035 138.687 67.9318C136.511 72.1277 135.131 75.3283 133.86 78.275C133.464 79.193 133.08 80.0862 132.684 80.9775C134.873 79.4807 136.908 77.7734 138.758 75.8868C141.518 68.1911 145.311 61.3921 148.992 54.1084C149.351 53.3982 149.71 52.6888 150.078 51.9839C150.176 51.0792 150.243 50.1665 150.281 49.2458C149.272 50.693 148.281 52.196 147.283 53.8119Z" fill="url(#paint19_radial_3_20292)"></path></g></g><mask id="mask18_3_20292" style="mask-type:luminance" maskUnits="userSpaceOnUse" x="69" y="7" width="82" height="54"><path d="M69.5195 7.18884H150.34V60.769H69.5195V7.18884Z" fill="white"></path></mask><g mask="url(#mask18_3_20292)"><path fill-rule="evenodd" clip-rule="evenodd" d="M109.932 9.2912C131.976 9.2912 149.847 27.1613 149.847 49.2051C149.847 53.227 149.252 57.1094 148.145 60.769C149.569 56.6407 150.342 52.2095 150.342 47.5973C150.342 25.2809 132.249 7.18884 109.932 7.18884C87.6149 7.18884 69.5225 25.2809 69.5225 47.5973C69.5225 52.2095 70.2958 56.6407 71.7181 60.769C70.6119 57.1094 70.017 53.227 70.017 49.2051C70.017 27.1613 87.8875 9.2912 109.932 9.2912Z" fill="url(#paint20_radial_3_20292)"></path></g><path d="M139.937 17.5928L146.163 11.3656L137.996 11.3239L139.937 17.5928Z" fill="url(#paint21_radial_3_20292)"></path><path d="M139.938 17.5929L146.207 19.5337L146.164 11.3657L139.938 17.5929Z" fill="url(#paint22_radial_3_20292)"></path><path d="M139.938 77.6019L146.164 83.8291L146.207 75.6611L139.938 77.6019Z" fill="url(#paint23_radial_3_20292)"></path><path d="M137.996 83.8706L146.163 83.8289L139.937 77.6017L137.996 83.8706Z" fill="url(#paint24_radial_3_20292)"></path><path d="M73.6992 83.8289L81.8664 83.8706L79.9266 77.6017L73.6992 83.8289Z" fill="url(#paint25_radial_3_20292)"></path><path d="M73.6998 83.8291L79.9272 77.6019L73.6572 75.6611L73.6998 83.8291Z" fill="url(#paint26_radial_3_20292)"></path><path d="M73.6572 19.5337L79.9272 17.5929L73.6998 11.3657L73.6572 19.5337Z" fill="url(#paint27_radial_3_20292)"></path><path d="M73.6992 11.3656L79.9266 17.5928L81.8664 11.3239L73.6992 11.3656Z" fill="url(#paint28_radial_3_20292)"></path><mask id="mask19_3_20292" style="mask-type:luminance" maskUnits="userSpaceOnUse" x="70" y="9" width="80" height="77"><path d="M70.6475 9.51164H149.159V85.6826H70.6475V9.51164Z" fill="white"></path></mask><g mask="url(#mask19_3_20292)"><g opacity="0.75"><mask id="mask20_3_20292" style="mask-type:luminance" maskUnits="userSpaceOnUse" x="70" y="9" width="39" height="77"><path d="M70.6475 9.51164H108.017V85.6826H70.6475V9.51164Z" fill="white"></path></mask><g mask="url(#mask20_3_20292)"><g opacity="0.5"><path fill-rule="evenodd" clip-rule="evenodd" d="M87.3826 20.1834C87.1482 16.1971 83.1432 19.8123 81.4092 21.6865C72.8913 30.8951 69.7438 40.7348 70.8723 53.23C71.547 60.7073 75.6693 68.1641 80.4024 73.9004C81.2458 74.9232 86.8748 80.6443 87.3826 76.317C88.0716 70.4334 87.7955 59.9429 87.7715 49.4231C87.7457 38.9032 87.8115 27.4814 87.3826 20.1834ZM108.021 12.0554C108.029 9.58903 105.373 9.42035 103.591 9.53843C100.334 9.75417 97.4961 10.7432 94.5307 12.0892C91.5662 13.4342 90.9463 15.8509 90.8727 18.968C90.4314 37.5289 90.2441 58.0962 91.1746 76.5843C91.243 77.9462 91.9888 81.0491 93.1208 81.8864C95.9432 83.9736 100.318 85.2974 103.792 85.6445C108.162 86.0813 107.758 82.6854 107.752 79.4031C107.733 68.6196 107.676 57.8387 107.719 47.0543C107.765 35.3866 107.988 23.7241 108.021 12.0554Z" fill="url(#paint29_radial_3_20292)"></path></g></g><mask id="mask21_3_20292" style="mask-type:luminance" maskUnits="userSpaceOnUse" x="110" y="9" width="40" height="77"><path d="M110.476 9.51164H149.159V85.6826H110.476V9.51164Z" fill="white"></path></mask><g mask="url(#mask21_3_20292)"><g opacity="0.5"><path fill-rule="evenodd" clip-rule="evenodd" d="M110.475 12.0554C110.466 9.58903 113.122 9.42035 114.904 9.53843C118.162 9.75417 120.999 10.7432 123.964 12.0892C126.928 13.4342 127.62 15.85 127.622 18.968C127.638 37.5289 127.869 58.0962 127.321 76.5843C127.28 77.9471 126.506 81.0491 125.374 81.8864C122.552 83.9736 118.178 85.2974 114.702 85.6445C110.333 86.0813 110.737 82.6854 110.743 79.4031C110.762 68.6196 110.819 57.8387 110.776 47.0543C110.73 35.3866 110.507 23.7241 110.475 12.0554ZM131.585 21.4593C131.995 17.3504 136.038 18.8268 137.859 20.765C146.807 30.2851 150.113 40.4587 148.928 53.3783C148.219 61.1086 143.889 68.8185 138.917 74.75C138.031 75.8065 132.118 81.7221 131.585 77.2475C130.86 71.165 131.15 60.3184 131.176 49.4426C131.203 38.5659 130.966 27.6598 131.585 21.4593Z" fill="url(#paint30_radial_3_20292)"></path></g></g></g></g><mask id="mask22_3_20292" style="mask-type:luminance" maskUnits="userSpaceOnUse" x="88" y="15" width="2" height="65"><path d="M88.1377 15.2072H89.0789V79.9873H88.1377V15.2072Z" fill="white"></path></mask><g mask="url(#mask22_3_20292)"><g opacity="0.399994"><path fill-rule="evenodd" clip-rule="evenodd" d="M88.6052 79.9873C88.3087 70.8622 88.1348 59.6801 88.1348 47.5968C88.1348 35.5144 88.3087 24.3323 88.6052 15.2072C88.9027 24.3323 89.0776 35.5144 89.0776 47.5968C89.0776 59.6801 88.9027 70.8622 88.6052 79.9873Z" fill="url(#paint31_radial_3_20292)"></path></g></g><mask id="mask23_3_20292" style="mask-type:luminance" maskUnits="userSpaceOnUse" x="108" y="8" width="2" height="79"><path d="M108.149 8.88298H109.099V86.311H108.149V8.88298Z" fill="white"></path></mask><g mask="url(#mask23_3_20292)"><g opacity="0.399994"><path fill-rule="evenodd" clip-rule="evenodd" d="M108.626 86.311C108.328 75.4041 108.153 62.0388 108.153 47.5966C108.153 33.1552 108.328 19.789 108.626 8.88298C108.922 19.789 109.097 33.1552 109.097 47.5966C109.097 62.0388 108.922 75.4041 108.626 86.311Z" fill="url(#paint32_radial_3_20292)"></path></g></g><mask id="mask24_3_20292" style="mask-type:luminance" maskUnits="userSpaceOnUse" x="128" y="15" width="2" height="65"><path d="M128.393 15.2072H129.334V79.9873H128.393V15.2072Z" fill="white"></path></mask><g mask="url(#mask24_3_20292)"><g opacity="0.399994"><path fill-rule="evenodd" clip-rule="evenodd" d="M128.864 79.9873C128.566 70.8622 128.392 59.6801 128.392 47.5968C128.392 35.5144 128.566 24.3323 128.864 15.2072C129.16 24.3323 129.335 35.5144 129.335 47.5968C129.335 59.6801 129.16 70.8622 128.864 79.9873Z" fill="url(#paint33_radial_3_20292)"></path></g></g><path d="M105.312 1.97125L109.932 16.3638V0.970672L105.312 1.97125Z" fill="url(#paint34_radial_3_20292)"></path><path d="M109.932 16.3638L114.552 1.97125L109.932 0.970672V16.3638Z" fill="url(#paint35_radial_3_20292)"></path><path d="M105.312 1.9714L109.932 3.16553L114.552 1.9714L109.932 0.970825L105.312 1.9714Z" fill="url(#paint36_radial_3_20292)"></path><path d="M141.165 47.5977H156.558L155.559 42.9774L141.165 47.5977Z" fill="url(#paint37_radial_3_20292)"></path><path d="M141.165 47.5979L155.559 52.2173L156.558 47.5979H141.165Z" fill="url(#paint38_radial_3_20292)"></path><path d="M154.363 47.5979L155.558 52.2173L156.558 47.5979L155.558 42.9777L154.363 47.5979Z" fill="url(#paint39_radial_3_20292)"></path><path d="M109.932 94.2236L114.552 93.2231L109.932 78.8305V94.2236Z" fill="url(#paint40_radial_3_20292)"></path><path d="M105.312 93.2231L109.932 94.2236V78.8305L105.312 93.2231Z" fill="url(#paint41_radial_3_20292)"></path><path d="M105.312 93.2231L109.932 94.2236L114.552 93.2231L109.932 92.0289L105.312 93.2231Z" fill="url(#paint42_radial_3_20292)"></path><path d="M63.3047 47.5979L64.3052 52.2173L78.6981 47.5979H63.3047Z" fill="url(#paint43_radial_3_20292)"></path><path d="M63.3047 47.5977H78.6981L64.3052 42.9774L63.3047 47.5977Z" fill="url(#paint44_radial_3_20292)"></path><path d="M63.3047 47.5979L64.3052 52.2173L65.4985 47.5979L64.3052 42.9777L63.3047 47.5979Z" fill="url(#paint45_radial_3_20292)"></path><path d="M89.7754 6.3993C92.4327 7.3546 95.7959 7.37768 95.4745 4.07143C94.7198 5.46265 92.581 6.2244 89.7754 6.3993Z" fill="url(#paint46_radial_3_20292)"></path><path d="M65.8799 34.8331C66.591 35.0462 67.8793 33.9489 67.9396 33.5999C68.1465 32.3934 68.0862 30.6755 67.5082 30.1578C68.0941 30.9995 67.0163 33.5351 65.8799 34.8331Z" fill="url(#paint47_radial_3_20292)"></path><path d="M69.8013 67.4518C70.009 67.965 71.1295 68.3343 72.8199 68.1879C72.8448 67.1775 72.771 66.43 72.6148 65.9496C72.4266 65.369 71.9134 64.7129 70.8755 64.2131C69.9007 65.2971 69.5926 66.9325 69.8013 67.4518Z" fill="url(#paint48_radial_3_20292)"></path><path d="M67.4614 58.049C67.3397 58.5196 67.5528 59.0869 67.8804 59.4465C68.2568 59.8611 68.7763 60.1692 69.3942 60.1763C69.6179 59.6596 69.8745 58.6998 69.8026 58.4672C69.5717 57.7205 68.8472 56.5451 68.3438 56.0683C67.954 56.7377 67.5333 57.7694 67.4614 58.049Z" fill="url(#paint49_radial_3_20292)"></path><path d="M148.544 62.2539C148.376 63.1852 148.385 64.461 148.543 65.2236C149.119 64.9271 150.144 64.0872 150.797 63.3636C151.205 62.9108 151.626 62.3604 151.758 61.7647C151.831 61.4353 151.476 59.855 150.704 59.3835C149.869 60.0547 148.738 61.1734 148.544 62.2539Z" fill="url(#paint50_radial_3_20292)"></path><path d="M125.907 88.2498C125.629 88.3209 125.085 89.2762 124.82 90.979C125.403 90.2252 126.013 89.5567 126.282 89.4253C126.48 89.3277 127.473 89.3569 128.616 89.4857C127.387 88.6671 126.441 88.2383 126.014 88.2383C125.974 88.2383 125.938 88.2418 125.907 88.2498Z" fill="url(#paint51_radial_3_20292)"></path><g filter="url(#filter0_d_3_20292)"><path d="M109.127 74.9707C123.91 74.9707 135.894 62.8824 135.894 47.9707C135.894 33.059 123.91 20.9707 109.127 20.9707C94.3436 20.9707 82.3594 33.059 82.3594 47.9707C82.3594 62.8824 94.3436 74.9707 109.127 74.9707Z" fill="url(#paint52_radial_3_20292)"></path><path d="M124.394 28.7704C113.885 20.1704 98.4195 21.9704 89.8936 32.5704C81.5659 43.1704 83.1521 58.5704 93.6609 67.1704C104.17 75.7704 119.635 73.9704 127.963 63.3704C136.489 52.7704 134.903 37.1704 124.394 28.7704ZM126.575 62.1704C118.842 71.9704 104.566 73.5704 94.8505 65.7704C85.1349 57.9704 83.5487 43.5704 91.2815 33.7704C99.2126 23.9704 113.489 22.3704 123.204 30.1704C132.92 38.1704 134.506 52.3704 126.575 62.1704Z" fill="white"></path><path d="M107.938 32.77C107.938 33.57 108.532 33.97 109.127 34.17V31.77C107.938 31.57 107.343 31.17 107.343 30.17C107.343 29.17 108.136 28.37 109.127 28.37V27.77H109.524V28.37C110.515 28.57 110.912 29.17 111.11 29.97H110.317C110.119 29.37 109.92 29.17 109.326 28.97V30.97L109.92 31.17C110.317 31.37 111.308 31.77 111.308 32.77C111.308 33.77 110.515 34.57 109.524 34.57V35.17H109.127V34.77C107.938 34.57 107.343 33.97 107.145 32.77H107.938ZM109.127 29.17C108.532 29.17 108.136 29.57 108.136 30.17C108.136 30.77 108.532 30.97 109.127 31.17V29.17ZM109.524 34.17C110.119 34.17 110.515 33.77 110.515 33.17C110.515 32.57 110.119 32.37 109.524 32.17V34.17Z" fill="white"></path><path d="M95.4453 59.1707H95.8419C95.6436 58.7707 95.4453 58.3707 95.4453 57.7707C95.4453 56.7707 96.4367 55.9707 97.4281 55.9707C98.6178 55.9707 99.4109 56.7707 99.4109 58.1707H98.6178C98.6178 57.1707 98.2212 56.5707 97.4281 56.5707C96.8333 56.5707 96.2384 56.9707 96.2384 57.7707C96.2384 58.3707 96.4367 58.5707 96.635 59.1707H98.0229V59.5707H96.8333C96.8333 59.7707 97.0315 59.9707 97.0315 60.1707C97.0315 60.9707 96.635 61.3707 96.0401 61.7707C96.2384 61.5707 96.635 61.5707 96.8333 61.5707C97.2298 61.5707 97.4281 61.5707 97.6264 61.7707C97.8246 61.7707 98.0229 61.9707 98.4195 61.9707C98.6178 61.9707 99.0143 61.7707 99.2126 61.5707L99.6091 62.1707C99.2126 62.3707 98.816 62.5707 98.4195 62.5707C98.2212 62.5707 97.8246 62.5707 97.6264 62.3707C97.4281 62.3707 97.0315 62.1707 96.8333 62.1707C96.4367 62.1707 96.2384 62.3707 96.0401 62.3707L95.4453 61.9707C95.8419 61.5707 96.4367 61.1707 96.4367 60.3707C96.4367 60.1707 96.2384 59.7707 96.2384 59.5707H95.4453V59.1707Z" fill="white"></path><path d="M122.61 56.972C122.214 56.572 121.817 56.372 121.42 56.372C121.024 56.372 120.627 56.572 120.429 56.972C120.231 57.172 120.033 57.572 120.033 58.172H122.412L122.214 58.772H120.033V58.972V59.172H122.214L122.015 59.772H120.231C120.429 60.972 121.024 61.572 121.817 61.572C122.015 61.572 122.412 61.572 122.61 61.372C122.808 61.372 123.007 61.172 123.205 60.972V61.772C122.412 61.972 121.817 61.972 121.42 61.972C120.033 61.972 119.239 61.172 119.041 59.572H118.446L118.645 58.972H119.041V58.772C119.041 58.572 119.041 58.572 119.041 58.572H118.446L118.645 57.972H119.041C119.239 57.372 119.438 56.772 119.834 56.372C120.231 55.972 120.826 55.772 121.42 55.772C122.015 55.772 122.412 55.972 123.007 56.372L122.61 56.972Z" fill="white"></path><path d="M93.8597 44.5712H92.67V43.9712H93.8597V43.5712L93.6614 43.3712H92.67V42.7712H93.4631L92.0752 39.9712H93.0666L94.4545 42.9712L95.8425 39.9712H96.6356L95.0494 42.9712H95.8425V43.5712H94.8511L94.6528 43.7712V44.1712H95.8425V44.7712H94.8511V46.1712H93.8597V44.5712Z" fill="white"></path><path d="M124.593 41.9709H123.998C123.601 41.9709 123.601 42.1709 123.403 42.3709L123.205 43.5709H123.998L123.799 44.1709H123.006L122.61 46.7709C122.411 48.3709 122.015 48.7709 121.024 48.7709H120.429L120.627 48.1709C121.42 48.1709 121.618 48.1709 121.817 47.3709L122.411 44.1709H121.618L121.817 43.5709H122.61L122.808 42.3709C123.006 41.7709 123.403 41.1709 124.196 41.1709H124.791L124.593 41.9709Z" fill="white"></path><path d="M109.126 36.771C104.566 36.771 100.997 40.571 100.997 44.971C100.997 47.771 104.566 51.771 104.566 53.571C104.566 54.571 104.566 54.371 104.566 55.171C104.566 56.171 105.359 56.771 106.152 56.771C106.549 56.771 111.506 56.771 112.101 56.771C113.092 56.771 113.687 55.971 113.687 55.171C113.687 54.171 113.687 54.571 113.687 53.571C113.687 51.771 117.256 47.971 117.256 44.971C117.256 40.571 113.687 36.771 109.126 36.771ZM109.126 63.371C109.721 63.371 110.514 63.171 110.911 62.571C109.721 62.571 108.532 62.571 107.342 62.571C107.739 63.171 108.333 63.371 109.126 63.371ZM112.101 57.771C111.506 57.771 106.747 57.771 106.152 57.771C105.557 57.771 105.161 58.171 105.161 58.771C105.161 59.371 105.557 59.771 106.152 59.771C106.747 59.771 111.506 59.771 112.101 59.771C112.695 59.771 113.092 59.371 113.092 58.771C113.092 58.171 112.497 57.771 112.101 57.771ZM112.101 60.171C111.506 60.171 106.747 60.171 106.152 60.171C105.557 60.171 105.161 60.571 105.161 61.171C105.161 61.771 105.557 62.171 106.152 62.171C106.747 62.171 111.506 62.171 112.101 62.171C112.695 62.171 113.092 61.771 113.092 61.171C113.092 60.571 112.497 60.171 112.101 60.171Z" fill="white"></path></g><defs><filter id="filter0_d_3_20292" x="81.3594" y="20.9707" width="55.5352" height="59" filterUnits="userSpaceOnUse" color-interpolation-filters="sRGB"><feFlood flood-opacity="0" result="BackgroundImageFix"></feFlood><feColorMatrix in="SourceAlpha" type="matrix" values="0 0 0 0 0 0 0 0 0 0 0 0 0 0 0 0 0 0 127 0" result="hardAlpha"></feColorMatrix><feOffset dy="4"></feOffset><feGaussianBlur stdDeviation="0.5"></feGaussianBlur><feComposite in2="hardAlpha" operator="out"></feComposite><feColorMatrix type="matrix" values="0 0 0 0 0 0 0 0 0 0 0 0 0 0 0 0 0 0 0.5 0"></feColorMatrix><feBlend mode="normal" in2="BackgroundImageFix" result="effect1_dropShadow_3_20292"></feBlend><feBlend mode="normal" in="SourceGraphic" in2="effect1_dropShadow_3_20292" result="shape"></feBlend></filter><radialGradient id="paint0_radial_3_20292" cx="0" cy="0" r="1" gradientUnits="userSpaceOnUse" gradientTransform="translate(110.005 93.2581) scale(110.016 26.7071)"><stop stop-color="white"></stop><stop offset="0.0619141" stop-color="white"></stop><stop offset="0.621141" stop-color="white" stop-opacity="0"></stop><stop offset="1" stop-color="white" stop-opacity="0"></stop></radialGradient><radialGradient id="paint1_radial_3_20292" cx="0" cy="0" r="1" gradientUnits="userSpaceOnUse" gradientTransform="translate(110.002 93.2604) scale(110.016 26.7071)"><stop></stop><stop offset="0.0619141"></stop><stop offset="0.621141"></stop><stop offset="1"></stop></radialGradient><radialGradient id="paint2_radial_3_20292" cx="0" cy="0" r="1" gradientUnits="userSpaceOnUse" gradientTransform="translate(91.6304 4.27007) scale(56.1237 56.1226)"><stop stop-color="#8A98A8"></stop><stop offset="1" stop-color="#525B6B"></stop></radialGradient><radialGradient id="paint3_radial_3_20292" cx="0" cy="0" r="1" gradientUnits="userSpaceOnUse" gradientTransform="translate(119.319 5.98417) scale(55.1976 55.1966)"><stop stop-color="#8A98A8"></stop><stop offset="1" stop-color="#525B6B"></stop></radialGradient><radialGradient id="paint4_radial_3_20292" cx="0" cy="0" r="1" gradientUnits="userSpaceOnUse" gradientTransform="translate(93.3446 58.1844) scale(38.6374 38.6366)"><stop stop-color="#6A7685"></stop><stop offset="1" stop-color="#2E333D"></stop></radialGradient><radialGradient id="paint5_radial_3_20292" cx="0" cy="0" r="1" gradientUnits="userSpaceOnUse" gradientTransform="translate(125.319 58.5272) scale(37.0177 37.017)"><stop stop-color="#657385"></stop><stop offset="1" stop-color="#2B313D"></stop></radialGradient><linearGradient id="paint6_linear_3_20292" x1="109.932" y1="90.0302" x2="109.932" y2="5.16446" gradientUnits="userSpaceOnUse"><stop stop-color="#5D728C"></stop><stop offset="1" stop-color="#333945"></stop></linearGradient><radialGradient id="paint7_radial_3_20292" cx="0" cy="0" r="1" gradientUnits="userSpaceOnUse" gradientTransform="translate(110.678 7.22874) scale(81.3514 81.3499)"><stop stop-color="#63534B"></stop><stop offset="1" stop-color="#2B1F21"></stop></radialGradient><radialGradient id="paint8_radial_3_20292" cx="0" cy="0" r="1" gradientUnits="userSpaceOnUse" gradientTransform="translate(140.194 67.4465) scale(29.0334 29.0327)"><stop stop-color="#87827D"></stop><stop offset="1.1e-07" stop-color="#87827D"></stop><stop offset="1" stop-color="white"></stop></radialGradient><linearGradient id="paint9_linear_3_20292" x1="110.696" y1="88.0053" x2="110.696" y2="7.1884" gradientUnits="userSpaceOnUse"><stop stop-color="#211217"></stop><stop offset="1" stop-color="#352C26"></stop></linearGradient><radialGradient id="paint10_radial_3_20292" cx="0" cy="0" r="1" gradientUnits="userSpaceOnUse" gradientTransform="translate(82.9053 56.8384) scale(72.9731 72.9713)"><stop stop-color="#AAA39D"></stop><stop offset="1.1e-07" stop-color="#AAA39D"></stop><stop offset="1" stop-color="white"></stop></radialGradient><radialGradient id="paint11_radial_3_20292" cx="0" cy="0" r="1" gradientUnits="userSpaceOnUse" gradientTransform="translate(105.618 77.4212) scale(86.0964 86.0951)"><stop stop-color="#AAA39D"></stop><stop offset="1.1e-07" stop-color="#AAA39D"></stop><stop offset="1" stop-color="white"></stop></radialGradient><radialGradient id="paint12_radial_3_20292" cx="0" cy="0" r="1" gradientUnits="userSpaceOnUse" gradientTransform="translate(107.425 56.1195) scale(80.3634 80.3617)"><stop stop-color="#AAA39D"></stop><stop offset="1.1e-07" stop-color="#AAA39D"></stop><stop offset="1" stop-color="white"></stop></radialGradient><radialGradient id="paint13_radial_3_20292" cx="0" cy="0" r="1" gradientUnits="userSpaceOnUse" gradientTransform="translate(121.582 94.3979) scale(102.284 102.282)"><stop stop-color="#AAA39D"></stop><stop offset="1.1e-07" stop-color="#AAA39D"></stop><stop offset="1" stop-color="white"></stop></radialGradient><radialGradient id="paint14_radial_3_20292" cx="0" cy="0" r="1" gradientUnits="userSpaceOnUse" gradientTransform="translate(146.401 93.2041) scale(147.488 147.485)"><stop stop-color="#AAA39D"></stop><stop offset="1.1e-07" stop-color="#AAA39D"></stop><stop offset="1" stop-color="white"></stop></radialGradient><radialGradient id="paint15_radial_3_20292" cx="0" cy="0" r="1" gradientUnits="userSpaceOnUse" gradientTransform="translate(144.717 113.83) scale(123.77 123.767)"><stop stop-color="#AAA39D"></stop><stop offset="1.1e-07" stop-color="#AAA39D"></stop><stop offset="1" stop-color="white"></stop></radialGradient><radialGradient id="paint16_radial_3_20292" cx="0" cy="0" r="1" gradientUnits="userSpaceOnUse" gradientTransform="translate(142.128 29.9622) scale(93.7496 93.7486)"><stop stop-color="#AAA39D"></stop><stop offset="1.1e-07" stop-color="#AAA39D"></stop><stop offset="1" stop-color="white"></stop></radialGradient><radialGradient id="paint17_radial_3_20292" cx="0" cy="0" r="1" gradientUnits="userSpaceOnUse" gradientTransform="translate(168.791 50.5181) scale(61.7742 61.7728)"><stop stop-color="#AAA39D"></stop><stop offset="1.1e-07" stop-color="#AAA39D"></stop><stop offset="1" stop-color="white"></stop></radialGradient><radialGradient id="paint18_radial_3_20292" cx="0" cy="0" r="1" gradientUnits="userSpaceOnUse" gradientTransform="translate(162.514 79.0181) scale(75.5769 75.5755)"><stop stop-color="#AAA39D"></stop><stop offset="1.1e-07" stop-color="#AAA39D"></stop><stop offset="1" stop-color="white"></stop></radialGradient><radialGradient id="paint19_radial_3_20292" cx="0" cy="0" r="1" gradientUnits="userSpaceOnUse" gradientTransform="translate(177.994 106.594) scale(103.667 103.665)"><stop stop-color="#AAA39D"></stop><stop offset="1.1e-07" stop-color="#AAA39D"></stop><stop offset="1" stop-color="white"></stop></radialGradient><radialGradient id="paint20_radial_3_20292" cx="0" cy="0" r="1" gradientUnits="userSpaceOnUse" gradientTransform="translate(109.932 47.3497) scale(40.2432 40.2424)"><stop stop-color="white"></stop><stop offset="0.921483" stop-color="white"></stop><stop offset="1" stop-color="#A780BF"></stop></radialGradient><radialGradient id="paint21_radial_3_20292" cx="0" cy="0" r="1" gradientUnits="userSpaceOnUse" gradientTransform="translate(140.623 17.3721) scale(31.2256 31.2251)"><stop stop-color="#95A6BD"></stop><stop offset="1" stop-color="#596780"></stop></radialGradient><radialGradient id="paint22_radial_3_20292" cx="0" cy="0" r="1" gradientUnits="userSpaceOnUse" gradientTransform="translate(135.015 8.25) scale(22.209 22.2084)"><stop stop-color="#657385"></stop><stop offset="1" stop-color="#2B313D"></stop></radialGradient><radialGradient id="paint23_radial_3_20292" cx="0" cy="0" r="1" gradientUnits="userSpaceOnUse" gradientTransform="translate(136.387 94.7867) scale(21.5945 21.594)"><stop stop-color="#92A9BA"></stop><stop offset="1" stop-color="#566A7D"></stop></radialGradient><radialGradient id="paint24_radial_3_20292" cx="0" cy="0" r="1" gradientUnits="userSpaceOnUse" gradientTransform="translate(140.28 63.1232) scale(24.076 24.0756)"><stop stop-color="#6A7685"></stop><stop offset="1" stop-color="#2E333D"></stop></radialGradient><radialGradient id="paint25_radial_3_20292" cx="0" cy="0" r="1" gradientUnits="userSpaceOnUse" gradientTransform="translate(68.2693 59.7806) scale(28.1828 28.1823)"><stop stop-color="#6A7685"></stop><stop offset="1" stop-color="#2E333D"></stop></radialGradient><radialGradient id="paint26_radial_3_20292" cx="0" cy="0" r="1" gradientUnits="userSpaceOnUse" gradientTransform="translate(82.7063 97.615) scale(24.0764 24.0759)"><stop stop-color="#92A9BA"></stop><stop offset="1" stop-color="#566A7D"></stop></radialGradient><radialGradient id="paint27_radial_3_20292" cx="0" cy="0" r="1" gradientUnits="userSpaceOnUse" gradientTransform="translate(84.0778 9.79274) scale(20.7179 20.7174)"><stop stop-color="#657385"></stop><stop offset="1" stop-color="#2B313D"></stop></radialGradient><radialGradient id="paint28_radial_3_20292" cx="0" cy="0" r="1" gradientUnits="userSpaceOnUse" gradientTransform="translate(80.0114 17.2864) scale(23.0131 23.0126)"><stop stop-color="#95A6BD"></stop><stop offset="1" stop-color="#596780"></stop></radialGradient><radialGradient id="paint29_radial_3_20292" cx="0" cy="0" r="1" gradientUnits="userSpaceOnUse" gradientTransform="translate(83.624 8.68606) scale(73.8621 73.8606)"><stop stop-color="#4A321A"></stop><stop offset="1" stop-color="#12060F"></stop></radialGradient><radialGradient id="paint30_radial_3_20292" cx="0" cy="0" r="1" gradientUnits="userSpaceOnUse" gradientTransform="translate(97.6882 5.83017) scale(90.9152 90.9136)"><stop stop-color="#4A321A"></stop><stop offset="1" stop-color="#12060F"></stop></radialGradient><radialGradient id="paint31_radial_3_20292" cx="0" cy="0" r="1" gradientUnits="userSpaceOnUse" gradientTransform="translate(53.8938 27.5416) scale(81.8455 81.8524)"><stop stop-color="#947052"></stop><stop offset="1.1e-07" stop-color="#947052"></stop><stop offset="1"></stop></radialGradient><radialGradient id="paint32_radial_3_20292" cx="0" cy="0" r="1" gradientUnits="userSpaceOnUse" gradientTransform="translate(82.3975 8.25725) scale(108.338 108.337)"><stop stop-color="#947052"></stop><stop offset="1.1e-07" stop-color="#947052"></stop><stop offset="1"></stop></radialGradient><radialGradient id="paint33_radial_3_20292" cx="0" cy="0" r="1" gradientUnits="userSpaceOnUse" gradientTransform="translate(96.8069 17.0853) scale(106.484 106.483)"><stop stop-color="#947052"></stop><stop offset="1.1e-07" stop-color="#947052"></stop><stop offset="1"></stop></radialGradient><radialGradient id="paint34_radial_3_20292" cx="0" cy="0" r="1" gradientUnits="userSpaceOnUse" gradientTransform="translate(110.193 3.01059) scale(19.1879 19.1876)"><stop stop-color="#7F8EA1"></stop><stop offset="1" stop-color="#2B313D"></stop></radialGradient><radialGradient id="paint35_radial_3_20292" cx="0" cy="0" r="1" gradientUnits="userSpaceOnUse" gradientTransform="translate(101.786 -2.21757) scale(24.0795 24.0792)"><stop stop-color="#657385"></stop><stop offset="1" stop-color="#2B313D"></stop></radialGradient><radialGradient id="paint36_radial_3_20292" cx="0" cy="0" r="1" gradientUnits="userSpaceOnUse" gradientTransform="translate(110.189 4.89639) scale(6.27327 6.27317)"><stop stop-color="#AEBFD4"></stop><stop offset="1" stop-color="#626C80"></stop></radialGradient><radialGradient id="paint37_radial_3_20292" cx="0" cy="0" r="1" gradientUnits="userSpaceOnUse" gradientTransform="translate(155.162 48.2439) scale(31.8528 31.8523)"><stop stop-color="#94A6C5"></stop><stop offset="1" stop-color="#586888"></stop></radialGradient><radialGradient id="paint38_radial_3_20292" cx="0" cy="0" r="1" gradientUnits="userSpaceOnUse" gradientTransform="translate(151.048 24.0668) scale(36.0261 36.0256)"><stop stop-color="#667185"></stop><stop offset="1" stop-color="#292F3D"></stop></radialGradient><radialGradient id="paint39_radial_3_20292" cx="0" cy="0" r="1" gradientUnits="userSpaceOnUse" gradientTransform="translate(147.233 33.97) scale(20.125 20.1252)"><stop stop-color="#798FA8"></stop><stop offset="1" stop-color="#3A4557"></stop></radialGradient><radialGradient id="paint40_radial_3_20292" cx="0" cy="0" r="1" gradientUnits="userSpaceOnUse" gradientTransform="translate(108.299 97.8403) scale(22.8293 22.829)"><stop stop-color="#4F5F73"></stop><stop offset="1" stop-color="#18202B"></stop></radialGradient><radialGradient id="paint41_radial_3_20292" cx="0" cy="0" r="1" gradientUnits="userSpaceOnUse" gradientTransform="translate(111.222 92.6979) scale(22.159 22.1586)"><stop stop-color="#6A7B8F"></stop><stop offset="1" stop-color="#131D2B"></stop></radialGradient><radialGradient id="paint42_radial_3_20292" cx="0" cy="0" r="1" gradientUnits="userSpaceOnUse" gradientTransform="translate(109.589 75.2984) scale(20.1679 20.1676)"><stop stop-color="#5A6C82"></stop><stop offset="1" stop-color="#2A3140"></stop></radialGradient><radialGradient id="paint43_radial_3_20292" cx="0" cy="0" r="1" gradientUnits="userSpaceOnUse" gradientTransform="translate(64.5731 29.7233) scale(24.9418 24.9413)"><stop stop-color="#667185"></stop><stop offset="1" stop-color="#292F3D"></stop></radialGradient><radialGradient id="paint44_radial_3_20292" cx="0" cy="0" r="1" gradientUnits="userSpaceOnUse" gradientTransform="translate(66.373 48.2439) scale(29.7066 29.7059)"><stop stop-color="#94A6C5"></stop><stop offset="1" stop-color="#586888"></stop></radialGradient><radialGradient id="paint45_radial_3_20292" cx="0" cy="0" r="1" gradientUnits="userSpaceOnUse" gradientTransform="translate(67.4872 34.5698) scale(18.0846 18.0846)"><stop stop-color="#798FA8"></stop><stop offset="1" stop-color="#3A4557"></stop></radialGradient><radialGradient id="paint46_radial_3_20292" cx="0" cy="0" r="1" gradientUnits="userSpaceOnUse" gradientTransform="translate(90.4929 7.05687) scale(9.3924 9.39211)"><stop stop-color="#B7C9DE"></stop><stop offset="1" stop-color="#808A9E"></stop></radialGradient><radialGradient id="paint47_radial_3_20292" cx="0" cy="0" r="1" gradientUnits="userSpaceOnUse" gradientTransform="translate(66.4497 35.2518) scale(7.21578)"><stop stop-color="#99A8BA"></stop><stop offset="1" stop-color="#525B6B"></stop></radialGradient><radialGradient id="paint48_radial_3_20292" cx="0" cy="0" r="1" gradientUnits="userSpaceOnUse" gradientTransform="translate(72.7819 68.0593) scale(4.15531 4.15521)"><stop stop-color="#657385"></stop><stop offset="1" stop-color="#2B313D"></stop></radialGradient><radialGradient id="paint49_radial_3_20292" cx="0" cy="0" r="1" gradientUnits="userSpaceOnUse" gradientTransform="translate(70.9777 60.7794) scale(5.32229 5.32224)"><stop stop-color="#657385"></stop><stop offset="1" stop-color="#2B313D"></stop></radialGradient><radialGradient id="paint50_radial_3_20292" cx="0" cy="0" r="1" gradientUnits="userSpaceOnUse" gradientTransform="translate(144.866 67.36) scale(10.3102 10.3101)"><stop stop-color="#657385"></stop><stop offset="1" stop-color="#2B313D"></stop></radialGradient><radialGradient id="paint51_radial_3_20292" cx="0" cy="0" r="1" gradientUnits="userSpaceOnUse" gradientTransform="translate(125.347 102.979) scale(14.8446 14.8443)"><stop stop-color="#657385"></stop><stop offset="1" stop-color="#282D38"></stop></radialGradient><radialGradient id="paint52_radial_3_20292" cx="0" cy="0" r="1" gradientUnits="userSpaceOnUse" gradientTransform="translate(109.029 47.9291) scale(26.7677 27.0003)"><stop stop-color="#BBD765"></stop><stop offset="0.9839" stop-color="#7AB34D"></stop></radialGradient></defs></svg> 