<svg xmlns="http://www.w3.org/2000/svg" xmlns:xlink="http://www.w3.org/1999/xlink" viewBox="0 0 191.68 130.2"><style>.E,.J,.K{mix-blend-mode:overlay}.L{opacity:.18}.M{fill:#2b0004}.N{fill:#fff}.O{opacity:.09}.P{fill:#f4bf1a}.Q{opacity:.66}.R{opacity:.54}.S{fill:#e37800}.T{opacity:.1}.U{opacity:.11}.V{fill:#2d1400}</style><defs><linearGradient id="A" x1="182.42" x2="188.62" y1="11.32" y2="-.08" gradientUnits="userSpaceOnUse"><stop offset=".05" stop-color="#ab5400"/><stop offset="1" stop-color="#f28900"/></linearGradient><linearGradient xlink:href="#A" id="B" x1="184.74" x2="187.81" y1="12.15" y2="7.88"/><linearGradient xlink:href="#A" id="C" x1="185" x2="188.32" y1="14.69" y2="9.7"/><linearGradient xlink:href="#A" id="D" x1="1.68" x2="7.88"/><linearGradient xlink:href="#A" id="E" x1="4" x2="7.07" y1="12.15" y2="7.88"/><linearGradient xlink:href="#A" id="F" x1="4.25" x2="7.58" y1="14.69" y2="9.7"/><linearGradient xlink:href="#A" id="G" y1="118.89" y2="130.28"/><linearGradient xlink:href="#A" id="H" x1="184.74" x2="187.81" y1="118.06" y2="122.33"/><linearGradient xlink:href="#A" id="I" x1="185" x2="188.32" y1="115.52" y2="120.5"/><linearGradient xlink:href="#A" id="J" x1="1.68" x2="7.88" y1="118.89" y2="130.28"/><linearGradient xlink:href="#A" id="K" x1="4" x2="7.07" y1="118.06" y2="122.33"/><linearGradient xlink:href="#A" id="L" x1="4.25" x2="7.58" y1="115.52" y2="120.5"/><linearGradient id="M" x1=".75" x2="187.28" y1="65.12" y2="65.12" gradientUnits="userSpaceOnUse"><stop offset="0" stop-color="#d17724"/><stop offset=".03" stop-color="#d57e2a"/><stop offset=".15" stop-color="#e29641"/><stop offset=".28" stop-color="#eca852"/><stop offset=".42" stop-color="#f2b25b"/><stop offset=".59" stop-color="#f4b65f"/><stop offset=".73" stop-color="#ecab55"/><stop offset=".96" stop-color="#d7903c"/><stop offset="1" stop-color="#d48b38"/></linearGradient><linearGradient xlink:href="#M" id="N" x1="11.43" x2="0" y1="64.92" y2="64.92"/><linearGradient xlink:href="#M" id="O" x1="191.68" x2="180.25" y1="64.92" y2="64.92"/><path id="P" d="M184.05 10.87a2.4 2.4 0 0 0-2 2.37c0 .4.1.78.28 1.12.08-.27.12-.59.08-.94-.19-1.54 1.26-2.35 1.65-2.54z"/><path id="Q" d="M186.67 9.12s-.36.08-.03.35.71.38.88.23c.17-.14-.44-.63-.85-.58zm.97.63s-.15.05-.07.19.2.04.19-.03c0-.07-.01-.15-.12-.16zm-.32-5.23c0 .21-.05.38-.12.38s-.12-.17-.12-.38.05-.38.12-.38.12.17.12.38z"/><path id="R" d="M187.67 10.98s-1.02-.19-1.16.21c-.15.39 1.12.93 2.03.75.91-.19.12-.83-.87-.95Z"/><path id="S" d="M184.05 119.33a2.39 2.39 0 0 1-2-2.37c0-.4.1-.78.28-1.12.08.27.12.59.08.94-.19 1.54 1.26 2.35 1.65 2.54z"/><path id="T" d="M186.67 121.08s-.36-.08-.03-.34c.33-.27.71-.38.88-.24s-.44.63-.85.58zm.97-.63s-.15-.05-.07-.19.2-.04.19.03c0 .07-.01.15-.12.16zm-.32 5.23c0-.21-.05-.38-.12-.38s-.12.17-.12.38.05.38.12.38.12-.17.12-.38z"/><path id="U" d="M187.67 119.22s-1.02.19-1.16-.21c-.15-.4 1.12-.93 2.03-.75.91.19.12.83-.87.95Z"/></defs><path fill="url(#A)" d="M187.4.8c-.39-.78-1.07-.83-1.43-.79-.37-.04-1.05 0-1.43.79-.55 1.11-.17 4.46-.09 5.39.09.92.76 2.14.59 3.28-.09.64.44.54.93.33.49.21 1.02.3.93-.33-.17-1.14.51-2.36.59-3.28s.46-4.28-.09-5.39z"/><g class="M"><path d="M185.49 1.48c.05-.92.31-1.32.57-1.48h-.09c-.37-.04-1.05 0-1.43.79-.55 1.11-.17 4.46-.09 5.39.09.92.76 2.14.59 3.28-.09.64.44.54.93.33.04.02.08.03.12.05l.17-.13s.28-1.32-.17-3.01-.69-3.29-.59-5.23z" class="U"/><path d="m184.39 5.68.05.5c.09.92.76 2.14.59 3.28-.09.64.44.54.93.33.49.21 1.02.3.93-.33-.15-1.01.37-2.09.54-2.96-.23.23-.51.41-.87.51-1.26.35-1.89-.65-2.17-1.34z" class="O"/><path d="M184.41 2.42s.04-1.11.52-.8-.1 2.6.38 4.43c.48 1.84.45 2.08.55 3.05s-.38.87-.49.14-.59-1.87-.83-3.19-.14-3.64-.14-3.64z" class="L"/></g><path fill="url(#B)" d="M188.04 10.45c0 .83-.69 1.5-1.55 1.5h-1.06c-.85 0-1.55-.67-1.55-1.5s.69-1.5 1.55-1.5h1.06c.86 0 1.55.67 1.55 1.5Z"/><g class="M"><path d="M185.5 11.95h.99c.86 0 1.55-.67 1.55-1.5 0-.12-.01-.23-.04-.33-.08.22-.29.46-.85.47-.91.02-1.68-.09-1.65-.78.03-.69.34-.83.34-.83v-.02h-.42c-.85 0-1.55.67-1.55 1.5 0 .41.17.77.44 1.05.28.18.66.33 1.18.46Z" class="O"/><path d="M184.2 10.95s-.11-.88.5-1.3.16.46.42 1.07c.27.61-.55.45-.93.23z" class="L"/></g><path d="M185.3 8.95c-.79.06-1.42.71-1.42 1.5 0 .35.12.67.33.93 0-.06-.02-.12-.03-.18-.37-1.54.88-2.14 1.12-2.24Z" class="S"/><path d="M188.04 10.39c-.18.33-.88.4-2.91.32-.66-.03-1.04-.09-1.24-.17.05.79.72 1.41 1.54 1.41h1.06c.86 0 1.55-.67 1.55-1.5v-.06Z" class="L M"/><path fill="url(#C)" d="M189.88 13.24a2.4 2.4 0 0 1-2.4 2.4h-3.02c-1.33 0-2.4-1.07-2.4-2.4s1.07-2.4 2.4-2.4h3.02c1.33 0 2.4 1.07 2.4 2.4z"/><g class="M"><path d="M189.88 13.24c0-.64-.26-1.23-.67-1.66.11.3.14.59-.01.75-.34.33-2.25-.04-3.39-.07-1.01-.03-.33-1.17-.17-1.42h-1.18c-1.33 0-2.4 1.07-2.4 2.4s1.07 2.4 2.4 2.4h3.02c1.33 0 2.4-1.07 2.4-2.4Z" class="O"/><path d="M182.53 13.08s.12-.91.89-1.12.87.52 1.3.73c.44.21-1.95.4-2.2.4z" class="L"/><path d="M188.87 12.53c-.08-.02-.21-.04-.38-.06-.38 0-.86-.05-1.34-.1-1.43-.06-3.28-.06-3.91.13-.52.15-.85.06-1.05-.06-.09.25-.14.52-.14.8 0 .35.08.68.21.98.51.32 1.37.62 2.84.87 1.84.32 3.02.29 3.8.08.59-.44.98-1.14.98-1.93 0-.3-.06-.59-.16-.86-.1.2-.37.28-.84.15Z" class="L"/></g><use xlink:href="#P" class="S"/><path d="M186.74.37s-.76-.04-.45 1.28c.31 1.31.42 1.87.48 3.64.07 1.77.62.83.62-.69s.11-3.98-.66-4.23Z" class="E P Q"/><path d="M186.8.55c-.16-.12-.73-.24-.38.69.34.93.45 1.87.62 2.42s.28-.42.28-1.18-.1-1.63-.52-1.94z" class="N R"/><path d="M186.76 9.09s-.75-.14-.61.46 1.26.99 1.54.6c.36-.52-.6-1.05-.93-1.05z" class="E P Q"/><use xlink:href="#Q" class="N R"/><use xlink:href="#R" class="E P Q"/><path d="M187.64 11.02s-.35.1 0 .35c.35.24.73.33.89.18s-.48-.6-.88-.52zm1.01.57s-.15.06-.06.19.2.03.19-.04-.02-.14-.13-.15z" class="N R"/><path fill="url(#D)" d="M6.66.8C6.27.02 5.59-.03 5.22 0c-.37-.04-1.05 0-1.43.79-.55 1.11-.17 4.46-.08 5.39.08.92.76 2.14.59 3.28-.09.64.44.54.93.33.49.21 1.02.3.93-.33-.17-1.14.51-2.36.59-3.28S7.22 1.9 6.67.79z"/><g class="M"><path d="M4.75 1.48C4.8.56 5.06.16 5.32 0h-.1c-.37-.04-1.05 0-1.43.79-.55 1.11-.17 4.46-.08 5.39.08.92.76 2.14.59 3.28-.09.64.44.54.93.33.04.02.08.03.13.05l.16-.13s.28-1.32-.17-3.01C4.9 5 4.66 3.41 4.76 1.47z" class="U"/><path d="m3.65 5.68.05.5c.08.92.76 2.14.59 3.28-.09.64.44.54.93.33.49.21 1.02.3.93-.33-.15-1.01.36-2.09.54-2.96a1.99 1.99 0 0 1-.87.51c-1.26.35-1.89-.65-2.17-1.34z" class="O"/><path d="M3.67 2.42s.04-1.11.52-.8c.49.31-.1 2.6.38 4.43.48 1.84.45 2.08.55 3.05s-.38.87-.49.14c-.1-.73-.59-1.87-.83-3.19s-.14-3.64-.14-3.64z" class="L"/></g><path fill="url(#E)" d="M7.3 10.45c0 .83-.69 1.5-1.55 1.5H4.69c-.86 0-1.55-.67-1.55-1.5s.69-1.5 1.55-1.5h1.06c.86 0 1.55.67 1.55 1.5Z"/><g class="M"><path d="M4.76 11.95h.99c.86 0 1.55-.67 1.55-1.5 0-.12-.02-.23-.04-.33-.07.22-.29.46-.85.47-.91.02-1.68-.09-1.65-.78s.35-.83.35-.83v-.02h-.42c-.86 0-1.55.67-1.55 1.5a1.5 1.5 0 0 0 .44 1.05c.28.18.66.33 1.18.46z" class="O"/><path d="M3.46 10.95s-.11-.88.5-1.3.16.46.42 1.07c.27.61-.55.45-.92.23z" class="L"/></g><path d="M4.56 8.95c-.8.06-1.42.71-1.42 1.5 0 .35.13.67.33.93 0-.06-.02-.12-.03-.18-.37-1.54.88-2.14 1.12-2.24Z" class="S"/><path d="M7.3 10.39c-.18.33-.88.4-2.91.32-.66-.03-1.04-.09-1.24-.17.05.79.72 1.41 1.55 1.41h1.06c.86 0 1.55-.67 1.55-1.5v-.06Z" class="L M"/><path fill="url(#F)" d="M9.13 13.24a2.4 2.4 0 0 1-2.4 2.4H3.71c-1.33 0-2.4-1.07-2.4-2.4s1.07-2.4 2.4-2.4h3.02c1.33 0 2.4 1.07 2.4 2.4z"/><g class="M"><path d="M9.13 13.24c0-.64-.25-1.23-.67-1.66.11.3.14.59-.01.75-.34.33-2.25-.04-3.39-.07-1.01-.03-.33-1.17-.17-1.42H3.71c-1.33 0-2.4 1.07-2.4 2.4s1.07 2.4 2.4 2.4h3.02c1.33 0 2.4-1.07 2.4-2.4Z" class="O"/><path d="M1.79 13.08s.12-.91.89-1.12.87.52 1.31.73c.43.21-1.95.4-2.2.4z" class="L"/><path d="M8.13 12.53c-.08-.02-.21-.04-.38-.06-.38 0-.86-.05-1.34-.1-1.43-.06-3.28-.06-3.91.13-.52.15-.85.06-1.05-.06-.09.25-.14.52-.14.8 0 .35.07.68.21.98.51.32 1.37.62 2.84.87 1.84.32 3.02.29 3.8.08.59-.44.98-1.14.98-1.93 0-.3-.06-.59-.16-.86-.1.2-.37.28-.84.15Z" class="L"/></g><use xlink:href="#P" x="-180.74" class="S"/><path d="M5.99.37s-.76-.04-.45 1.28c.31 1.31.42 1.87.49 3.64s.62.83.62-.69.1-3.98-.66-4.23Z" class="E P Q"/><path d="M6.06.55c-.16-.12-.73-.24-.38.69s.45 1.87.62 2.42.28-.42.28-1.18S6.48.85 6.06.54z" class="N R"/><path d="M6.02 9.09s-.75-.14-.61.46 1.27.99 1.54.6c.36-.52-.6-1.05-.93-1.05z" class="E P Q"/><use xlink:href="#Q" x="-180.74" class="N R"/><use xlink:href="#R" x="-180.74" class="E P Q"/><path d="M6.89 11.02s-.35.1 0 .35c.35.24.73.33.89.18s-.48-.6-.89-.52zm1.02.57s-.15.06-.06.19.2.03.19-.04-.02-.14-.13-.15z" class="N R"/><path fill="url(#G)" d="M187.4 129.4c-.39.78-1.07.83-1.43.79-.37.04-1.05 0-1.43-.79-.55-1.11-.17-4.47-.09-5.39.09-.92.76-2.14.59-3.29-.09-.63.44-.54.93-.33.49-.21 1.02-.3.93.33-.17 1.14.51 2.36.59 3.29.08.92.46 4.28-.09 5.39Z"/><g class="M"><path d="M185.49 128.72c.05.92.31 1.32.57 1.48h-.09c-.37.04-1.05 0-1.43-.79-.55-1.11-.17-4.47-.09-5.39.09-.92.76-2.14.59-3.29-.09-.63.44-.54.93-.33a.61.61 0 0 1 .12-.05l.17.13s.28 1.31-.17 3.01-.69 3.29-.59 5.23z" class="U"/><path d="m184.39 124.52.05-.5c.09-.92.76-2.14.59-3.29-.09-.63.44-.54.93-.33.49-.21 1.02-.3.93.33-.15 1.02.37 2.09.54 2.96-.23-.23-.51-.41-.87-.51-1.26-.35-1.89.65-2.17 1.34z" class="O"/><path d="M184.41 127.78s.04 1.11.52.8-.1-2.6.38-4.43c.48-1.84.45-2.08.55-3.05s-.38-.87-.49-.14-.59 1.87-.83 3.19-.14 3.64-.14 3.64z" class="L"/></g><path fill="url(#H)" d="M188.04 119.75c0-.83-.69-1.5-1.55-1.5h-1.06c-.85 0-1.55.67-1.55 1.5s.69 1.5 1.55 1.5h1.06c.86 0 1.55-.67 1.55-1.5Z"/><g class="M"><path d="M185.5 118.25h.99c.86 0 1.55.67 1.55 1.5 0 .12-.01.23-.04.34-.08-.22-.29-.46-.85-.47-.91-.02-1.68.09-1.65.79.03.69.34.83.34.83v.02h-.42c-.85 0-1.55-.67-1.55-1.5 0-.41.17-.77.44-1.04.28-.18.66-.33 1.18-.46Z" class="O"/><path d="M184.2 119.25s-.11.88.5 1.3.16-.46.42-1.07c.27-.61-.55-.45-.93-.23z" class="L"/></g><path d="M185.3 121.25c-.79-.06-1.42-.71-1.42-1.5 0-.35.12-.67.33-.93 0 .06-.02.12-.03.18-.37 1.54.88 2.14 1.12 2.24Z" class="S"/><path d="M188.04 119.81c-.18-.34-.88-.4-2.91-.32-.66.03-1.04.09-1.24.17.05-.79.72-1.41 1.54-1.41h1.06c.86 0 1.55.67 1.55 1.5v.06Z" class="L M"/><path fill="url(#I)" d="M189.88 116.96a2.4 2.4 0 0 0-2.4-2.4h-3.02a2.4 2.4 0 0 0-2.4 2.4c0 1.33 1.07 2.4 2.4 2.4h3.02a2.4 2.4 0 0 0 2.4-2.4z"/><g class="M"><path d="M189.88 116.96c0 .65-.26 1.23-.67 1.66.11-.3.14-.59-.01-.75-.34-.33-2.25.03-3.39.07-1.01.03-.33 1.17-.17 1.42h-1.18a2.4 2.4 0 1 1 0-4.8h3.02a2.4 2.4 0 0 1 2.4 2.4z" class="O"/><path d="M182.53 117.12s.12.91.89 1.12.87-.52 1.3-.73c.44-.21-1.95-.39-2.2-.39z" class="L"/><path d="M188.87 117.67c-.08.02-.21.04-.38.06-.38 0-.86.05-1.34.1-1.43.06-3.28.06-3.91-.13-.52-.15-.85-.06-1.05.06-.09-.25-.14-.52-.14-.8 0-.35.08-.68.21-.98.51-.33 1.37-.62 2.84-.87 1.84-.32 3.02-.29 3.8-.08.59.44.98 1.14.98 1.93 0 .3-.06.59-.16.86-.1-.2-.37-.28-.84-.15Z" class="L"/></g><use xlink:href="#S" class="S"/><path d="M186.74 129.83s-.76.03-.45-1.28c.31-1.32.42-1.87.48-3.64.07-1.77.62-.83.62.69s.11 3.98-.66 4.23Z" class="E P Q"/><path d="M186.8 129.65c-.16.12-.73.24-.38-.69.34-.94.45-1.87.62-2.43.17-.55.28.42.28 1.18s-.1 1.63-.52 1.94Z" class="N R"/><path d="M186.76 121.11s-.75.14-.61-.46 1.26-.99 1.54-.6c.36.52-.6 1.05-.93 1.05z" class="E P Q"/><use xlink:href="#T" class="N R"/><use xlink:href="#U" class="E P Q"/><path d="M187.64 119.18s-.35-.1 0-.35.73-.33.89-.18-.48.6-.88.52zm1.01-.57s-.15-.06-.06-.19.2-.03.19.04-.02.15-.13.15z" class="N R"/><path fill="url(#J)" d="M6.66 129.4c-.39.78-1.07.83-1.44.79-.37.04-1.05 0-1.43-.79-.55-1.11-.17-4.47-.08-5.39.08-.92.76-2.14.59-3.29-.09-.63.44-.54.93-.33.49-.21 1.02-.3.93.33-.17 1.14.51 2.36.59 3.29.08.92.47 4.28-.08 5.39Z"/><g class="M"><path d="M4.75 128.72c.05.92.31 1.32.57 1.48h-.1c-.37.04-1.05 0-1.43-.79-.55-1.11-.17-4.47-.08-5.39.08-.92.76-2.14.59-3.29-.09-.63.44-.54.93-.33.04-.02.08-.04.13-.05l.16.13s.28 1.31-.17 3.01-.69 3.29-.59 5.23z" class="U"/><path d="m3.65 124.52.05-.5c.08-.92.76-2.14.59-3.29-.09-.63.44-.54.93-.33.49-.21 1.02-.3.93.33-.15 1.02.36 2.09.54 2.96a1.99 1.99 0 0 0-.87-.51c-1.26-.35-1.89.65-2.17 1.34z" class="O"/><path d="M3.67 127.78s.04 1.11.52.8c.49-.31-.1-2.6.38-4.43.48-1.84.45-2.08.55-3.05s-.38-.87-.49-.14c-.1.73-.59 1.87-.83 3.19s-.14 3.64-.14 3.64z" class="L"/></g><path fill="url(#K)" d="M7.3 119.75c0-.83-.69-1.5-1.55-1.5H4.69c-.86 0-1.55.67-1.55 1.5s.69 1.5 1.55 1.5h1.06c.86 0 1.55-.67 1.55-1.5Z"/><g class="M"><path d="M4.76 118.25h.99c.86 0 1.55.67 1.55 1.5 0 .12-.02.23-.04.34-.07-.22-.29-.46-.85-.47-.91-.02-1.68.09-1.65.79.03.69.35.83.35.83v.02h-.42c-.86 0-1.55-.67-1.55-1.5 0-.41.17-.77.44-1.04.28-.18.66-.33 1.18-.46Z" class="O"/><path d="M3.46 119.25s-.11.88.5 1.3.16-.46.42-1.07c.27-.61-.55-.45-.92-.23z" class="L"/></g><path d="M4.56 121.25c-.8-.06-1.42-.71-1.42-1.5 0-.35.13-.67.33-.93 0 .06-.02.12-.03.18-.37 1.54.88 2.14 1.12 2.24Z" class="S"/><path d="M7.3 119.81c-.18-.34-.88-.4-2.91-.32-.66.03-1.04.09-1.24.17.05-.79.72-1.41 1.55-1.41h1.06c.86 0 1.55.67 1.55 1.5v.06Z" class="L M"/><path fill="url(#L)" d="M9.13 116.96a2.4 2.4 0 0 0-2.4-2.4H3.71a2.4 2.4 0 0 0-2.4 2.4c0 1.33 1.07 2.4 2.4 2.4h3.02a2.4 2.4 0 0 0 2.4-2.4z"/><g class="M"><path d="M9.13 116.96a2.35 2.35 0 0 1-.67 1.66c.11-.3.14-.59-.01-.75-.34-.33-2.25.03-3.39.07-1.01.03-.33 1.17-.17 1.42H3.71a2.4 2.4 0 1 1 0-4.8h3.02a2.4 2.4 0 0 1 2.4 2.4z" class="O"/><path d="M1.79 117.12s.12.91.89 1.12.87-.52 1.31-.73c.43-.21-1.95-.39-2.2-.39z" class="L"/><path d="M8.13 117.67c-.08.02-.21.04-.38.06-.38 0-.86.05-1.34.1-1.43.06-3.28.06-3.91-.13-.52-.15-.85-.06-1.05.06-.09-.25-.14-.52-.14-.8 0-.35.07-.68.21-.98.51-.33 1.37-.62 2.84-.87 1.84-.32 3.02-.29 3.8-.08.59.44.98 1.14.98 1.93 0 .3-.06.59-.16.86-.1-.2-.37-.28-.84-.15Z" class="L"/></g><use xlink:href="#S" x="-180.74" class="S"/><path d="M5.99 129.83s-.76.03-.45-1.28c.31-1.32.42-1.87.49-3.64s.62-.83.62.69.1 3.98-.66 4.23Z" class="E P Q"/><path d="M6.06 129.65c-.16.12-.73.24-.38-.69.35-.94.45-1.87.62-2.43.17-.55.28.42.28 1.18s-.1 1.63-.52 1.94Z" class="N R"/><path d="M6.02 121.11s-.75.14-.61-.46 1.27-.99 1.54-.6c.36.52-.6 1.05-.93 1.05z" class="E P Q"/><use xlink:href="#T" x="-180.74" class="N R"/><use xlink:href="#U" x="-180.74" class="E P Q"/><path d="M6.89 119.18s-.35-.1 0-.35.73-.33.89-.18-.48.6-.89.52zm1.02-.57s-.15-.06-.06-.19.2-.03.19.04-.02.15-.13.15z" class="N R"/><path fill="url(#M)" d="M10.29 15.42s11.71 1.28 19.66.64c0 0 1.99 4.9 3.75 5.97l2.43-5.12 2.21-1.07s17.01 1.49 41.09 2.35c24.08.85 70.91.43 71.57.21.66-.21.66.21 2.21.64s2.65 3.84 2.65 3.84l.88-3.84 6.85-.43c.89 0 1.1 2.35 1.1 2.35s2.65-1.49 3.31-2.98c0 0 9.06.21 12.59-.85 3.53-1.07.44 96.2.44 96.2s-41.31-1.92-57.87-.85c0 0-1.77-2.35-2.21-4.27 0 0-.88 2.99-1.77 4.05 0 0-13.47-.21-23.86 0-10.38.21-20.32 1.07-20.32 1.07l-1.33-1.49h-1.99l-1.33-2.35-3.98 4.05s-7.29-.43-20.99 0l-37.33 1.28 2.24-99.4z"/><g class="V"><path d="M180.6 17.12c-3.54 1.07-12.59.85-12.59.85-.19.43-.55.85-.95 1.25 3.91 5.39 8.62 16.57 9.15 39.34.66 28.22-3.22 44.97-8.51 54.22l13.34.53s3.09-97.26-.44-96.2z" opacity=".08"/><path d="M180.6 17.12c-1.11.33-2.75.54-4.49.67.53 1.83 1.07 4.37 1.34 7.66.62 7.76.31 64.45 0 75.49a75.33 75.33 0 0 1-1.32 12.17l4.92.21s3.09-97.26-.44-96.2z" opacity=".14"/><path d="M18.8 33.63c1.87-8.41 6.43-13.55 11.54-16.68-.24-.54-.38-.89-.38-.89-7.95.64-19.66-.64-19.66-.64l-2.21 99.4 22.19-.78C14.61 97.41 14.22 54.21 18.8 33.64z" opacity=".08"/><path d="M13.78 27.25c0-6.22 1.36-9.55 2.71-11.31-3.59-.24-6.19-.52-6.19-.52l-2.21 99.4 10.69-.38c-.08-.05-.16-.1-.24-.14-5.81-3.32-4.76-74.79-4.76-87.04z" opacity=".14"/><path d="M181.05 113.16c-2.3-1.04-4.78-1.85-6.81-2.19-6.08-1.02-2.11-1.02-4.76-1.79-2.64-.77-2.11-.51-2.91-1.53-.79-1.02-2.65.26-4.76.77l-1.85.51c-1.85.51-1.06-1.02-2.64-1.79s-1.85.25-3.44 1.27c-1.58 1.02 0 0-2.38-.51s-1.85 1.53-4.23 1.02-1.59.51-2.65.51-1.85-1.79-3.17-3.06c-1.32-1.28-2.64 3.32-5.02 3.83s-3.96.26-5.29 0c-1.32-.26-2.38.26-4.49.26s-3.17-1.53-4.5-3.58c-1.32-2.04-1.85-4.08-2.91-2.3l-2.12 3.32c-.53.77-1.85.51-3.17-.26-1.32-.76-2.38.26-2.38.26s-1.06 2.04-3.7 2.04 0 0-1.85-.77-3.17.51-4.76.77 0 0-1.59-1.02c-1.58-1.02-.53-1.28-1.85-1.79s-2.64 3.32-3.44 3.32-3.7-.51-5.29-.77-1.85.77-2.91 1.79-2.38-.77-4.23-1.02c-1.85-.26-4.76.51-4.76.51l-1.32-.26s-.26-1.02-.79-1.79-1.85-.51-2.91-1.02-.26-1.79-.53-3.83c-.26-2.04-1.58 1.02-3.44 2.55-1.85 1.53-1.06 2.3-1.32 4.34s-2.64-.26-4.23-.26-2.38 1.28-3.17 1.28-2.11 0-3.44-.25c-1.32-.26.53-1.79.27-2.55-.27-.77-2.11 0-3.17 0s-1.06 1.02-2.12 2.04-3.17.76-4.49.51c-1.32-.26-.53-1.53-1.85-2.3s-2.38.26-4.49-.51 0 0-1.85-.51-1.85.77-.79 1.79-2.91 1.53-3.7 2.04-3.17 0-4.76 0 0 0-.79-.76c-.79-.77-.27-1.79-1.06-2.04s-2.38 1.79-2.38 1.79l-2.12 1.02s-2.91.77-4.49 0c-1.59-.76-1.85-.26-5.02 0s-4.76-4.34-4.76-4.34l-.25-.04-.15 6.95 37.33-1.28c13.7-.43 20.99 0 20.99 0l3.98-4.05 1.33 2.35h1.99l1.33 1.49s9.94-.85 20.32-1.07c10.38-.21 23.86 0 23.86 0 .88-1.07 1.77-4.05 1.77-4.05.44 1.92 2.21 4.27 2.21 4.27 16.57-1.07 57.87.85 57.87.85v-.16z" class="T"/></g><path fill="#a86c27" d="m181.04 113.38-28.94-.52-7.23-.1-7.23-.08c-4.82-.03-9.64-.1-14.45.12H123l-.1-.13a16.63 16.63 0 0 1-.68-1.03 22.65 22.65 0 0 1-.61-1.07c-.38-.73-.72-1.48-.9-2.3h.5c-.23.73-.48 1.43-.76 2.12a15.66 15.66 0 0 1-.47 1.03c-.18.34-.36.67-.62.98l-.07.08h-.1l-5.53-.09h-5.52c-3.69 0-7.37.06-11.05.16s-7.35.29-11.02.52l-11 .82-.29.03-.2-.22-1.33-1.49.45.2h-1.99l-.36.01-.18-.31-1.34-2.34.99.12-3.95 4.08-.2.21h-.31c-4.81-.2-9.68-.2-14.53-.15l-7.28.14-7.29.17-7.29.17-7.29.14-14.59.22v-.12l14.56-.81 7.29-.36 7.29-.32 7.29-.31 7.3-.21c2.44-.05 4.87-.06 7.31-.04s4.87.06 7.33.2l-.51.2 4-4.03.59-.6.4.72 1.31 2.35-.53-.3h1.99l.28.01.18.2 1.32 1.5-.49-.19c3.68-.28 7.37-.47 11.05-.63a314.34 314.34 0 0 1 11.06-.22l11.06.04 11.06.1-.17.08c.21-.27.39-.59.55-.91a12.54 12.54 0 0 0 .43-1c.26-.68.5-1.38.7-2.08l.26-.92.24.93c.19.74.53 1.46.92 2.14a21.02 21.02 0 0 0 .62 1.01 16.94 16.94 0 0 0 .69.97l-.3-.13c2.41-.19 4.83-.3 7.25-.38l7.25-.14 7.24.04 7.24.16 7.24.24 7.23.33 14.45.87v.12z"/><path d="M181.79 22.81c-.27-3.72-.65-5.84-1.19-5.68-3.54 1.07-12.59.85-12.59.85-.66 1.49-3.31 2.98-3.31 2.98s-.22-2.35-1.1-2.35-6.85.43-6.85.43l-.88 3.84s-1.1-3.41-2.65-3.84-1.55-.85-2.21-.64-47.49.64-71.57-.21-41.09-2.35-41.09-2.35l-2.21 1.07-2.43 5.12c-1.77-1.07-3.75-5.97-3.75-5.97-7.95.64-19.66-.64-19.66-.64l-.03 1.48c.51.28 1.28.41 2.46.15 3.44-.76 6.08-.76 7.14-.25s1.59 2.3 3.97 2.3 3.17-1.28 5.02.51 1.85 1.02 2.91 2.81l1.85 3.06s.79-4.85 1.85-5.62 1.32-.77 3.7-1.28 1.85-1.53 3.96-.76a9.05 9.05 0 0 1 3.44 2.3s1.06 3.06 3.44 1.53 2.91-3.06 4.49-2.3c1.58.77 2.64 1.79 3.7 1.79h5.02s1.59-1.79 2.38-.77 3.97-.51 6.61-.76c2.64-.26 4.76 1.02 6.34 1.02s5.29-.26 6.08-.26c.43 0 4.23 3.32 5.02 2.04 1.25-2.01 5.73-1.38 7.93-1.02 2.25.36 3.49-1.03 4.11-.28 1.71 2.07 1.97-.99 4.62-.99 5.02 0 5.02-.25 7.14.76 2.12 1.02 2.38 1.28 5.02.51 2.64-.76 3.7-2.04 4.49-1.28s3.97 1.79 5.02 1.28c1.06-.51 6.34-1.02 9.78-.26 1.39.31-.19 2.47.79 2.81 1.47.5 5.24-.98 5.55-2.04.53-1.79 2.91-2.55 5.29-1.28 2.38 1.28 8.72 4.59 9.25 2.3.53-2.3 1.06-2.04 1.85-1.79.79.26 1.85.77 3.7 1.28s3.17-1.02 3.96-.77c.79.26 1.06-2.3 3.17-.77s3.17-.25 2.11 1.53c-1.06 1.79-.53 2.3.53 2.3s2.64-1.02 3.7-.77c.71.17 2.87.11 4.12-1.12z" class="T V"/><path fill="#ffbf74" d="m10.3 15.37 4.91.34 4.91.2 4.91.05 4.89-.23.24-.02.1.23.74 1.59.82 1.55c.29.51.6 1 .94 1.46s.73.91 1.15 1.17l-.55.16 2.41-5.13.06-.13.13-.06 2.2-1.08.1-.05h.12l29.91 2.12 14.98.6c5 .13 10 .15 15 .16l30-.09 15-.13 3.75-.04 3.73-.08h.1s.09-.02.02 0l.06-.02.09-.02c.05-.01.11-.02.17-.03a1.35 1.35 0 0 1 .4.03c.13.03.22.07.31.11.32.15.54.27.82.38a4.93 4.93 0 0 0 .41.14l.21.06c.08.02.2.07.29.11.37.17.64.42.87.67.46.51.78 1.06 1.06 1.63s.51 1.14.72 1.74l-.83.03.91-3.83.07-.28.29-.02 4.84-.29 1.21-.06.61-.02h.25c.03 0 .1 0 .14.02a1.05 1.05 0 0 1 .42.22c.2.19.31.4.4.6a3.52 3.52 0 0 1 .2.6c.1.4.17.79.21 1.2l-.46-.23c.32-.18.63-.38.94-.58a9.76 9.76 0 0 0 .89-.66 7.11 7.11 0 0 0 .81-.74c.24-.26.46-.55.6-.85l.07-.15h.17c1.05.04 2.11.05 3.15.05l3.16-.04c1.05-.03 2.1-.08 3.15-.18 1.04-.1 2.09-.21 3.11-.49l.03.09c-1.01.31-2.06.48-3.11.61s-2.1.21-3.16.28a95.65 95.65 0 0 1-6.34.17l.24-.15c-.17.38-.4.7-.66.99s-.54.56-.84.81-.6.49-.92.71c-.31.22-.63.43-.97.64l-.4.24-.05-.47c-.05-.36-.12-.74-.22-1.1-.1-.34-.25-.72-.44-.88-.11-.08-.06-.06-.32-.06l-.6.03-1.21.08-4.83.36.36-.3-.85 3.85-.33 1.47-.5-1.44c-.19-.54-.42-1.09-.69-1.61s-.57-1.02-.95-1.42c-.19-.2-.39-.36-.59-.45a1.31 1.31 0 0 0-.15-.05l-.24-.07a8.68 8.68 0 0 1-.47-.16c-.31-.11-.64-.27-.88-.39-.13-.05-.15-.05-.2-.05h-.08l-.06.02c-.14.04-.16.03-.21.04h-.13c-1.28.07-2.51.09-3.77.12l-3.75.07-15.01.09c-10 0-20.01-.05-30.01-.29l-15-.39-7.5-.27-7.5-.29-14.99-.65c-5-.25-9.99-.58-14.97-1.01l.23-.04-2.22 1.06.19-.19-2.45 5.11-.19.39-.36-.23c-.6-.38-.98-.88-1.35-1.38a15.81 15.81 0 0 1-.97-1.54c-.59-1.05-1.09-2.13-1.54-3.24l.34.21c-1.65.11-3.3.14-4.95.13s-3.29-.07-4.93-.16-3.28-.22-4.92-.36c-1.63-.14-3.27-.31-4.9-.52v-.09z"/><path fill="url(#N)" d="M0 115.36c0 1.07 2.56 1.95 5.71 1.95s5.72-.87 5.72-1.95V14.47c0-1.07-2.56-1.94-5.72-1.94S0 13.4 0 14.47v100.89Z"/><path d="M2.8 12.8c-.2 1.69-.45 4.72-.29 8.51.25 5.91.25 40.69-.25 51.4-.49 10.71.86 32.76.49 37.68l-.47 6.52c.95.24 2.14.39 3.42.39s2.47-.14 3.42-.39l-.09-79.48c0-10.65-.37-19.09-.74-22.78l-.22-1.96c-.72-.11-1.52-.17-2.36-.17-1.06 0-2.06.1-2.91.27z" class="J N T"/><path fill="url(#O)" d="M180.25 115.36c0 1.07 2.56 1.95 5.72 1.95s5.71-.87 5.71-1.95V14.47c0-1.07-2.56-1.94-5.71-1.94s-5.72.87-5.72 1.94v100.89Z"/><g class="N"><path d="M183.26 12.76c-.37 1.33-.71 3.48-.63 6.81.17 6.79.33 9.94 0 13.91s-.33 41.86-.33 51.14.83 20.04.17 27.32l-.41 4.84c1.02.33 2.4.53 3.92.53 1.23 0 2.36-.13 3.29-.36-.01-1.98.32-6.63.32-17.59l-.17-74.32-.36-12.2c-.89-.2-1.95-.31-3.09-.31-.98 0-1.91.08-2.71.23z" class="J T"/><path d="M188.28 48.89c.3-7 .15-16.54.45-21.45.28-4.64.28-11.4.04-14.65-.83-.16-1.78-.25-2.8-.25a16.28 16.28 0 0 0-2.04.13c-.02.75-.02 1.75.04 3 .15 3.28-.45 9.39 0 19.07s0 12.52 1.19 17.73 2.83 3.43 3.13-3.58z" class="K" opacity=".15"/></g><path d="M185.97 12.53c-3.16 0-5.72.87-5.72 1.94v.51c.2-.22.44-.32.72-.21 1.33.5 1.99-1.49 2.82-1.16s.5.5 1.49.33c.99-.16 1.82-.5 2.49-.33.66.17.62.8 1.63.9 1.02.09 1.18 1.75 2.17 3.41l.11.16v-3.6c0-1.07-2.56-1.94-5.71-1.94z" class="T V"/><g class="N"><path d="M3.99 20.33c-.25 11.82.25 17.24.12 22.04-.12 4.8 2.95 9.73 3.33 1.35.37-8.37.12-21.55-.12-24.75-.13-1.67-.19-4.27-.22-6.38-.44-.04-.9-.06-1.38-.06-.36 0-.7.01-1.04.04-.31.98-.59 3.18-.68 7.76zm1.58 53.6s-.88.53-.88 4.59-.35 14.32-.35 20.15.19 16.61.89 16.17 2.82.97 2.64-8.39c-.18-9.37.53-37.99-2.3-32.52z" class="K" opacity=".15"/><path d="M172.79 56.53c-2.53-14.8-3.91-29.16-12.18-29.16-1.44 0-2.76.07-3.98.19-.91-1.65-4.01-3.76-8.03-2.33 0 0-5.67 1.76-2.6 3.75-.75-.01-1.46-.09-2.18-.29-4.14-1.1-22.3-3.53-37.24-3.53l-40.46.44c-14.02.44-27.59-1.54-36.32 1.55 0 0-7.59 4.42-7.82 19.22-.18 11.47-.35 28.91 3.74 40.81-1.62.85-4.12 3.06-2.1 8.13 2.84 7.13 8.08 12.59 14.85 9.65a16.94 16.94 0 0 0 3.38-1.94c7.59 2.53 15.48 2.08 18.75.8 5.06-1.99 9.66-5.75 14.02-2.21 4.37 3.54 8.28 4.42 24.83 3.76s18.16-6.63 22.07-5.3 2.53 4.2 19.77 3.98 24.6-1.99 28.05-7.95c3.45-5.97 5.98-24.74 3.45-39.54z" class="L" style="mix-blend-mode:overlay"/><path d="M163.77 44.73c-.43-9.44-9.78-13.43-28.03-13.43-17.25 0-36.62 1.12-49.52 1.42-1.14-2.04-6.51-4.4-16.75-4.15 0 0-12.89-.19-11.95 3.63l-10.86-.49s-14.12-1.89-17.82 9.86c-3.69 11.75-1.52 36.51.44 43.64 1.95 7.13 7.82 13.22 17.38 13.64s14.56-1.47 26.73 0 27.16 3.15 38.89.84 25.64 2.73 38.02.63c12.39-2.1 17.38-8.39 17.6-16.36s-3.7-29.79-4.13-39.23zm4.62 9.34s-1.46-.47-1.22 4.46c.24 4.92 1.7 14.3 3.64 10.79 1.94-3.52.73-15.71-2.43-15.24z" class="U" style="mix-blend-mode:overlay"/></g><path d="M5.71 12.53c-3.16 0-5.71.87-5.71 1.94v2.04c.43-.34.77-.71.77-1.03 0-.86.25-.99 1.23-.99s.99-.25 1.73-.49c.74-.25 1.97-1.23 2.59-.49s0 1.23 1.11 1.73c1.11.49.86-.74 1.97-.25s1.97 1.85 1.97 1.85.02.03.06.06v-2.43c0-1.07-2.56-1.94-5.72-1.94zm4.43 103.49c-1.11.49-1.36.62-2.71.49-1.36-.12-1.97-.62-3.07-1.39-1.1-.78-2.11.28-2.85.28-.36 0-.96-.56-1.51-1.18v1.14c0 1.07 2.56 1.95 5.71 1.95 2.44 0 4.53-.52 5.34-1.26-.22-.06-.31-.3-.92-.03zm181.54-.66v-1.56c-.44.51-.94 1.16-1.44 1.59-1.61 1.38-2.75.69-3.67.23s-2.98.23-4.25.22c-.69 0-1.49-1.25-2.07-2.38v1.89c0 1.07 2.56 1.95 5.72 1.95s5.71-.87 5.71-1.95z" class="T V"/><path d="M186.65 80.21s-1.04-.74-1.19 2.98-1.19 12.37-.89 17.13c.3 4.77 2.09 14.15 3.13 11.03 1.04-3.13.9-14.75.6-18.62-.3-3.88-.15-13.11-1.64-12.52z" class="K N" opacity=".15"/><path d="M42.52 19.47s-3.31.34-2.61.84c.7.51-.52 1.35 1.57 1.35s3.13 1.18 2.96 0-.87-2.35-1.92-2.19zm-22.11.33s-1.22-1.18-2.44-.34-1.22.33-1.57 1.51-1.92.84-.35 1.18 1.05-.84 2.44-.34c1.39.51 2.44.67 2.44.67s1.22-2.35-.52-2.69zm3.83 1.51s-1.57.17-1.22.84-.7.17.35.67l1.05.51s.52-.84 1.39-.84.17-1.51-1.57-1.18zm109.86.84c-.55-.04-3.83.5-3.31.84s-.35 1.01 1.05 1.51c1.39.5 2.79.17 3.31.17s1.04-2.35-1.05-2.52zM76.47 104.7s-2.61 0-1.57 1.01.7 2.02 2.26 2.02 2.61.5 2.79-.51c.17-1.01-1.04-1.01-3.48-2.52zm-51.71.17c-.51-.09-2.61-.84-3.31.67s-.35 1.34-1.39 1.85c-1.05.5-.87.84 0 1.18s1.39 0 2.61 0 1.74-1.51 2.26-1.68 3.66-1.34-.17-2.02zm149.22-78.18c-.52-.07-3.83.34-2.79 1.18s2.26.84 1.91 1.51-1.04 1.68-.17 2.19c.87.5 1.91 1.85 1.91 1.85s.35-.17.52-2.35c.17-2.19 2.61-3.87-1.39-4.37zm-47.2 80.2s-3.23 1.34-1.15 2.01 2.31-.22 3.92.22c1.62.45 2.54.22 3.23-.44.69-.67 0-2.45-1.61-2.45s-2.31.44-2.31.44-.23-1.78-2.08.22z" class="T V"/></svg>