<svg xmlns="http://www.w3.org/2000/svg" xmlns:xlink="http://www.w3.org/1999/xlink" viewBox="0 0 381.38 36.92"><defs><linearGradient xlink:href="#a" id="g" x1="3.75" x2="0" y1="16.39" y2="16.39"><stop offset="0" stop-color="#f5ad24"/><stop offset="1" stop-color="#ffe56b"/></linearGradient><linearGradient xlink:href="#a" id="h" x1="5.34" x2="5.34" y1="22.61" y2="18.46"><stop offset="0" stop-color="#cf9353"/><stop offset="1" stop-color="#6e4500"/></linearGradient><linearGradient xlink:href="#a" id="i" x1="190.69" x2="190.69" y1="22.61" y2="18.46"><stop offset="0" stop-color="#d18900"/><stop offset="1" stop-color="#f5b41e"/></linearGradient><linearGradient xlink:href="#a" id="j" x1="190.69" x2="190.69" y1="18.46" y2="14.31"><stop offset="0" stop-color="#ab671c"/><stop offset="1" stop-color="#784c00"/></linearGradient><linearGradient xlink:href="#a" id="e" x1="376.03" x2="376.03" y1="22.61" y2="18.46"><stop offset="0" stop-color="#ffbe45"/><stop offset="1" stop-color="#fff0ab"/></linearGradient><linearGradient xlink:href="#a" id="c" x1="379.5" x2="379.5" y1="18.46" y2="14.31"><stop offset="0" stop-color="#6e4500"/><stop offset="1" stop-color="#cf9353"/></linearGradient><linearGradient xlink:href="#a" id="k" x1="181.46" x2="181.46" y1="36.92" y2="18.46"><stop offset="0" stop-color="#fff18f"/><stop offset="1" stop-color="#fffae3"/></linearGradient><linearGradient xlink:href="#a" id="d" x1="183.18" x2="183.18" y1="33.47" y2="18.46"><stop offset="0" stop-color="#ab5f0b"/><stop offset="1" stop-color="#753c00"/></linearGradient><linearGradient xlink:href="#a" id="b" x1="181.46" x2="181.46" y1="18.46" y2="0"><stop offset="0" stop-color="#eda85f"/><stop offset="1" stop-color="#a36700"/></linearGradient><linearGradient xlink:href="#a" id="l" x1="183.18" x2="183.18" y1="18.46" y2="3.45"><stop offset="0" stop-color="#a15900"/><stop offset="1" stop-color="#e39644"/></linearGradient><linearGradient xlink:href="#b" id="m" x1="199.92" x2="199.92" y1="36.92" y2="18.46"/><linearGradient xlink:href="#c" id="n" x1="198.19" x2="198.19" y1="33.47" y2="18.46"/><linearGradient xlink:href="#d" id="o" x1="199.92" x2="199.92" y1="18.46" y2="0"/><linearGradient xlink:href="#e" id="p" x1="198.19" x2="198.19" y1="18.46" y2="3.45"/><linearGradient xlink:href="#a" id="q" x1="198.13" x2="183.24" y1="18.46" y2="18.46"><stop offset="0" stop-color="#f72f2f"/><stop offset="1" stop-color="#ff8a8a"/></linearGradient><linearGradient xlink:href="#a" id="r" x1="186.96" x2="184.91" y1="22.18" y2="24.24"><stop offset="0" stop-color="#ff8c8c"/><stop offset="1" stop-color="#ff5252"/></linearGradient><linearGradient xlink:href="#a" id="f" x1="184.91" x2="184.91" y1="18.46" y2="6.9"><stop offset="0" stop-color="#ff5e5e"/><stop offset="1" stop-color="#b80000"/></linearGradient><linearGradient xlink:href="#f" id="s" x1="196.45" x2="196.45" y1="30.02" y2="18.46"/><linearGradient xlink:href="#a" id="t" x1="196.45" x2="194.39" y1="12.68" y2="14.74"><stop offset="0" stop-color="#f66"/><stop offset="1" stop-color="#de0000"/></linearGradient><linearGradient id="a" gradientUnits="userSpaceOnUse"/></defs><path fill="url(#g)" d="M3.75 18.46 0 14.31"/><g fill-rule="evenodd"><path fill="url(#h)" d="m6.94 22.61-3.19-4.15"/><path fill="url(#i)" d="M6.94 22.61h367.5l3.19-4.15H3.75l3.19 4.15z"/><path fill="url(#j)" d="M3.75 18.46h373.88l3.75-4.15H0l3.75 4.15z"/><path fill="url(#e)" d="m377.63 18.46-3.19 4.15"/><path fill="url(#c)" d="m381.38 14.31-3.75 4.15"/><path fill="#999" d="M172.23 18.46 190.69 0l18.46 18.46-18.46 18.46-18.46-18.46Zm6.9 0 11.56 11.56 11.56-11.56L190.69 6.9l-11.56 11.56Z"/><path fill="url(#k)" d="m190.69 33.47-15.01-15.01h-3.45l18.46 18.46v-3.45z"/><path fill="url(#d)" d="m175.68 18.46 15.01 15.01v-3.45l-11.56-11.56h-3.45z"/><path fill="url(#b)" d="m190.69 3.45-15.01 15.01h-3.45L190.69 0v3.45z"/><path fill="url(#l)" d="m175.68 18.46 15.01-15.01V6.9l-11.56 11.56h-3.45z"/><path fill="url(#m)" d="m190.69 33.47 15.01-15.01h3.45l-18.46 18.46v-3.45z"/><path fill="url(#n)" d="m205.7 18.46-15.01 15.01v-3.45l11.56-11.56h3.45z"/><path fill="url(#o)" d="m190.69 3.45 15.01 15.01h3.45L190.69 0v3.45z"/><path fill="url(#p)" d="M205.7 18.46 190.69 3.45V6.9l11.56 11.56h3.45z"/><path fill="#909" d="m190.69 30.02-11.56-11.56L190.69 6.9l11.56 11.56-11.56 11.56z"/><path fill="url(#q)" d="m190.69 25.91-7.45-7.45 7.45-7.45 7.45 7.45-7.45 7.45z"/><path fill="url(#r)" d="m190.69 25.91-7.45-7.45h-4.11l11.56 11.56v-4.11z"/><path fill="url(#f)" d="m190.69 11.01-7.45 7.45h-4.11L190.69 6.9v4.11z"/><path fill="url(#s)" d="m190.67 25.91 7.45-7.45h4.11l-11.56 11.56v-4.11z"/><path fill="url(#t)" d="m190.67 11.01 7.45 7.45h4.11L190.67 6.9v4.11z"/></g></svg>