<svg width="1158" height="735" viewBox="0 0 1158 735" fill="none" xmlns="http://www.w3.org/2000/svg">
<path fill-rule="evenodd" clip-rule="evenodd" d="M13.3018 48.5612H1144.7L1157.94 35.0743H799.041C794.768 35.0743 791.137 33.1165 789 29.4185L787.505 27.0256L722.774 18.977L700.343 27.0256L698.848 29.4185C696.498 33.1165 693.08 35.0743 688.807 35.0743H676.63C668.298 35.0743 661.035 30.9412 656.548 23.7627L650.567 13.9737L579 0.921875L507.647 14.1913L501.665 23.9802C497.179 31.1587 489.915 35.2918 481.584 35.2918H469.407C465.134 35.2918 461.502 33.334 459.366 29.636L457.871 27.2432L435.439 19.1945L370.709 27.2432L369.213 29.636C366.863 33.334 363.445 35.2918 359.172 35.2918H0.0566406L13.3018 48.5612Z" fill="#CCCCCC"/>
<path fill-rule="evenodd" clip-rule="evenodd" d="M1151.45 42.0645H6.5498L13.1739 48.5607H1144.83L1151.45 42.0645Z" fill="url(#paint0_linear_675_199043)"/>
<path fill-rule="evenodd" clip-rule="evenodd" d="M6.67371 42.0658H435.076V18.2461L370.399 26.6397L368.905 29.1351C366.557 32.9916 363.142 35.0333 358.873 35.0333H0.0566406L6.67371 42.0658Z" fill="url(#paint1_linear_675_199043)"/>
<path fill-rule="evenodd" clip-rule="evenodd" d="M435.076 19.0861V42.0649H577.918V0.921875L507.028 14.2715L501.085 24.1196C496.628 31.3415 489.411 35.4996 481.134 35.4996H469.036C464.791 35.4996 461.183 33.5299 459.06 29.8096L457.574 27.4023L435.076 19.0861Z" fill="url(#paint2_linear_675_199043)"/>
<path fill-rule="evenodd" clip-rule="evenodd" d="M577.918 0.921875V42.0649H722.924V19.0861L700.301 27.1834L698.793 29.5907C696.422 33.3111 692.975 35.2807 688.666 35.2807H676.384C667.981 35.2807 660.656 31.1226 656.131 23.9007L650.098 14.0526L577.918 0.921875Z" fill="url(#paint3_linear_675_199043)"/>
<path fill-rule="evenodd" clip-rule="evenodd" d="M722.924 18.2461V42.0658H1151.33L1157.94 35.0333H799.127C794.858 35.0333 791.229 32.9916 789.095 29.1351L787.6 26.6397L722.924 18.2461Z" fill="url(#paint4_linear_675_199043)"/>
<path fill-rule="evenodd" clip-rule="evenodd" d="M482.689 42.0649C496.503 40.5411 555.942 35.752 563.267 33.5751C573.522 30.7452 573.941 17.9016 577.918 0.921875V41.8473H482.689V42.0649Z" fill="url(#paint5_linear_675_199043)"/>
<path fill-rule="evenodd" clip-rule="evenodd" d="M383.133 42.0644C390.584 41.1806 423.24 38.75 427.185 37.6452C432.884 36.0984 432.884 29.2486 435.075 20.4102V42.0644H383.133Z" fill="url(#paint6_linear_675_199043)"/>
<path fill-rule="evenodd" clip-rule="evenodd" d="M670.981 42.0644C678.433 41.1806 711.089 38.75 715.034 37.6452C720.732 36.0984 720.732 29.2486 722.924 20.4102V42.0644H670.981Z" fill="url(#paint7_linear_675_199043)"/>
<path fill-rule="evenodd" clip-rule="evenodd" d="M722.924 722.008V700.354H1151.11L1157.94 707.016H1157.3H796.815C792.758 707.016 789.341 709.098 787.632 712.638L722.924 722.008Z" fill="url(#paint8_linear_675_199043)"/>
<path fill-rule="evenodd" clip-rule="evenodd" d="M577.918 700.354V703.818V735L638.894 721.142L641.479 715.945C644.28 710.531 649.667 707.283 655.7 707.283H691.036C695.13 707.283 698.577 709.448 700.301 713.13L722.924 722.874V703.818V700.354H577.918Z" fill="url(#paint9_linear_675_199043)"/>
<path opacity="0.5" fill-rule="evenodd" clip-rule="evenodd" d="M694.789 700.354C704.594 701.231 712.694 702.108 714.825 702.546C719.514 703.862 721.219 706.713 722.925 717.677V700.354H694.789Z" fill="url(#paint10_linear_675_199043)"/>
<path fill-rule="evenodd" clip-rule="evenodd" d="M435.076 722.008V700.354H6.89051L0.0566406 707.016H0.697323H361.184C365.242 707.016 368.659 709.098 370.367 712.638L435.076 722.008Z" fill="url(#paint11_linear_675_199043)"/>
<path fill-rule="evenodd" clip-rule="evenodd" d="M577.918 700.354V703.818V735L517.852 721.142L515.305 715.945C512.546 710.531 507.24 707.283 501.297 707.283H466.489C462.456 707.283 459.06 709.448 457.362 713.13L435.076 722.874V703.818V700.354H577.918Z" fill="url(#paint12_linear_675_199043)"/>
<path fill-rule="evenodd" clip-rule="evenodd" d="M12.9505 693.857H1142.89L1149.29 700.354H6.5498L12.9505 693.857Z" fill="url(#paint13_linear_675_199043)"/>
<path opacity="0.5" fill-rule="evenodd" clip-rule="evenodd" d="M521.646 700.354C541.728 702.086 562.438 703.818 566.412 704.901C572.897 706.633 575.407 710.748 577.918 726.339V700.354H521.646Z" fill="url(#paint14_linear_675_199043)"/>
<path opacity="0.5" fill-rule="evenodd" clip-rule="evenodd" d="M406.94 700.354C416.745 701.231 424.845 702.108 426.976 702.546C431.666 703.862 433.371 706.713 435.076 717.677V700.354H406.94Z" fill="url(#paint15_linear_675_199043)"/>
<path fill-rule="evenodd" clip-rule="evenodd" d="M6.54946 700.142V42.2769L0.0566406 35.5684V706.85L6.54946 700.142Z" fill="url(#paint16_linear_675_199043)"/>
<path fill-rule="evenodd" clip-rule="evenodd" d="M6.5498 42.0645V700.354L6.75925 700.137L13.0426 693.641V48.7773L6.5498 42.0645Z" fill="url(#paint17_linear_675_199043)"/>
<path fill-rule="evenodd" clip-rule="evenodd" d="M1144.96 48.7751V693.643L1151.24 700.137L1151.45 700.354V42.0645L1144.96 48.7751Z" fill="url(#paint18_linear_675_199043)"/>
<path fill-rule="evenodd" clip-rule="evenodd" d="M1151.45 42.2747V700.144L1157.94 706.85V35.5684L1151.45 42.2747Z" fill="url(#paint19_linear_675_199043)"/>
<defs>
<linearGradient id="paint0_linear_675_199043" x1="579" y1="48.6131" x2="579" y2="42.1212" gradientUnits="userSpaceOnUse">
<stop stop-color="#6E4500"/>
<stop offset="1" stop-color="#CF9353"/>
</linearGradient>
<linearGradient id="paint1_linear_675_199043" x1="0.0299589" y1="30.1852" x2="434.954" y2="30.1852" gradientUnits="userSpaceOnUse">
<stop stop-color="#BA7621"/>
<stop offset="1" stop-color="#FFD24F"/>
</linearGradient>
<linearGradient id="paint2_linear_675_199043" x1="435.167" y1="21.4991" x2="577.918" y2="21.4991" gradientUnits="userSpaceOnUse">
<stop stop-color="#BA7014"/>
<stop offset="0.7175" stop-color="#FFD24F"/>
<stop offset="1" stop-color="#FFE48A"/>
</linearGradient>
<linearGradient id="paint3_linear_675_199043" x1="577.918" y1="21.4991" x2="722.834" y2="21.4991" gradientUnits="userSpaceOnUse">
<stop stop-color="#BA7014"/>
<stop offset="0.7175" stop-color="#FFD24F"/>
<stop offset="1" stop-color="#FFE48A"/>
</linearGradient>
<linearGradient id="paint4_linear_675_199043" x1="722.834" y1="30.1852" x2="1157.76" y2="30.1852" gradientUnits="userSpaceOnUse">
<stop stop-color="#BA7014"/>
<stop offset="1" stop-color="#FFD24F"/>
</linearGradient>
<linearGradient id="paint5_linear_675_199043" x1="482.757" y1="21.6079" x2="577.918" y2="21.6079" gradientUnits="userSpaceOnUse">
<stop stop-color="#473626"/>
<stop offset="1" stop-color="#E8E7B3"/>
</linearGradient>
<linearGradient id="paint6_linear_675_199043" x1="383.22" y1="31.2684" x2="435.169" y2="31.2684" gradientUnits="userSpaceOnUse">
<stop stop-color="#473626"/>
<stop offset="1" stop-color="#E8E7B3"/>
</linearGradient>
<linearGradient id="paint7_linear_675_199043" x1="670.883" y1="31.2684" x2="722.832" y2="31.2684" gradientUnits="userSpaceOnUse">
<stop stop-color="#473626"/>
<stop offset="1" stop-color="#E8E7B3"/>
</linearGradient>
<linearGradient id="paint8_linear_675_199043" x1="722.834" y1="711.193" x2="1157.97" y2="711.193" gradientUnits="userSpaceOnUse">
<stop stop-color="#945200"/>
<stop offset="1" stop-color="#E39919"/>
</linearGradient>
<linearGradient id="paint9_linear_675_199043" x1="577.918" y1="717.72" x2="722.834" y2="717.72" gradientUnits="userSpaceOnUse">
<stop stop-color="#945200"/>
<stop offset="0.7026" stop-color="#E39919"/>
<stop offset="1" stop-color="#EBAB21"/>
</linearGradient>
<linearGradient id="paint10_linear_675_199043" x1="694.777" y1="709.068" x2="722.835" y2="709.068" gradientUnits="userSpaceOnUse">
<stop stop-color="#473626"/>
<stop offset="1" stop-color="#E8E7B3"/>
</linearGradient>
<linearGradient id="paint11_linear_675_199043" x1="0.0299458" y1="711.193" x2="435.167" y2="711.193" gradientUnits="userSpaceOnUse">
<stop stop-color="#945200"/>
<stop offset="0.7026" stop-color="#E39919"/>
<stop offset="1" stop-color="#EBAB21"/>
</linearGradient>
<linearGradient id="paint12_linear_675_199043" x1="435.167" y1="717.72" x2="577.918" y2="717.72" gradientUnits="userSpaceOnUse">
<stop stop-color="#945200"/>
<stop offset="0.7026" stop-color="#E39919"/>
<stop offset="1" stop-color="#EBAB21"/>
</linearGradient>
<linearGradient id="paint13_linear_675_199043" x1="577.919" y1="700.394" x2="577.919" y2="693.933" gradientUnits="userSpaceOnUse">
<stop stop-color="#FFDA9E"/>
<stop offset="1" stop-color="#FFD147"/>
</linearGradient>
<linearGradient id="paint14_linear_675_199043" x1="521.643" y1="713.38" x2="577.918" y2="713.38" gradientUnits="userSpaceOnUse">
<stop stop-color="#473626"/>
<stop offset="1" stop-color="#E8E7B3"/>
</linearGradient>
<linearGradient id="paint15_linear_675_199043" x1="406.895" y1="709.068" x2="434.954" y2="709.068" gradientUnits="userSpaceOnUse">
<stop stop-color="#473626"/>
<stop offset="1" stop-color="#E8E7B3"/>
</linearGradient>
<linearGradient id="paint16_linear_675_199043" x1="0.0308788" y1="371.258" x2="6.5193" y2="371.258" gradientUnits="userSpaceOnUse">
<stop stop-color="#F5AD24"/>
<stop offset="1" stop-color="#FFE56B"/>
</linearGradient>
<linearGradient id="paint17_linear_675_199043" x1="6.51964" y1="371.258" x2="13.0089" y2="371.258" gradientUnits="userSpaceOnUse">
<stop stop-color="#AB671C"/>
<stop offset="1" stop-color="#784C00"/>
</linearGradient>
<linearGradient id="paint18_linear_675_199043" x1="1144.99" y1="371.273" x2="1151.48" y2="371.273" gradientUnits="userSpaceOnUse">
<stop stop-color="#D18900"/>
<stop offset="1" stop-color="#F5B41E"/>
</linearGradient>
<linearGradient id="paint19_linear_675_199043" x1="1151.48" y1="371.273" x2="1157.97" y2="371.273" gradientUnits="userSpaceOnUse">
<stop stop-color="#AB671C"/>
<stop offset="1" stop-color="#784C00"/>
</linearGradient>
</defs>
</svg>
