<svg xmlns="http://www.w3.org/2000/svg" viewBox="0 0 67.27 90.55">
  <g fill="#c0d7d4">
    <path d="M1.7 22.67C14.47 8.92 14.6 8.44 15.08 7.72s33.4-.72 34.72 0 14.83 13.5 15.31 15.55-.24 21.58 0 23.15-29.78 14.11-30.75 14.23S3.02 45.94 2.3 45.58s-1.36-22.1-.6-22.91z"/>
    <path d="M2.11 45H1.03a1.03 1.03 0 0 0-1.02 1.19l4.7 28.15c.54 1.02 27.97 16.22 29.42 16.22s28.76-17.91 29.21-18c.4-.08 3.22-21.15 3.91-26.39.08-.62-.4-1.17-1.02-1.17H2.11z"/>
  </g>
  <path fill="#dbeeed" d="M1.03 45a1.03 1.03 0 0 0-1.02 1.19l4.7 28.15c.51.97 25.11 14.63 28.96 16.08l.7-29.77L3.08 45H1.03z"/>
  <g fill="#70928e">
    <path d="M34.37 61.18h-.01C32.64 61.12 6.6 47.81 1.4 45.14a.53.53 0 0 1-.23-.71.52.52 0 0 1 .71-.23c12.29 6.3 31.1 15.74 32.52 15.92 1.45-.14 19.12-9.59 30.63-15.91.26-.14.58-.05.72.21s.05.58-.21.72c-4.89 2.68-29.33 16.04-31.18 16.04zM7.18 25.25c-.17 0-.35-.09-.45-.24a.52.52 0 0 1 .16-.73c12.26-7.91 43.63-6.78 52.61.02a.54.54 0 0 1 .1.75c-.18.23-.51.28-.74.1-8.76-6.64-39.4-7.71-51.39.02a.52.52 0 0 1-.29.09zM33.63 72.7 1.11 56.06a.53.53 0 1 1 .49-.94l32.04 16.4L65.71 55.4c.26-.13.58-.03.71.24.13.26.03.58-.24.71L33.63 72.72z"/>
    <path d="M33.63 82.67 3.01 67a.53.53 0 0 1 .49-.94l30.14 15.43 30.54-15.35c.26-.13.58-.03.71.24.13.26.03.58-.24.71l-31.02 15.6z"/>
  </g>
  <path fill="#dbeeed" d="M34.37 40.27 28.94 7.18c.12-2.12 5-7.18 5.61-7.18s5.49 5.79 5.61 7.17c.12 1.39-5.79 33.1-5.79 33.1z"/>
  <path fill="#1a1a1a" d="M32.23 49.62v1.77c0 .66-.6 1.15-1.25 1.02l-19.07-3.83c-.49-.1-.84-.53-.84-1.02v-4.13c0-.71.69-1.21 1.37-.99l19.07 6.19c.43.14.72.54.72.99Zm3.17 0v1.77c0 .66.6 1.15 1.25 1.02l19.07-3.83c.49-.1.84-.53.84-1.02v-4.13c0-.71-.69-1.21-1.37-.99l-19.07 6.19c-.43.14-.72.54-.72.99Z"/>
  <path fill="#70928e" d="M34.37 60.43c-.2 0-.35-.16-.35-.35v-19.8l5.79-33.16c.03-.19.22-.32.41-.29.19.03.32.22.29.41l-5.79 33.1v19.74c0 .2-.15.35-.35.35Z"/>
</svg>
