<svg xmlns="http://www.w3.org/2000/svg" xmlns:xlink="http://www.w3.org/1999/xlink" viewBox="0 0 188.71 15.59">
  <style>
    .A,.F{mix-blend-mode:overlay}.H{fill:#f4bf1a}.I{opacity:.75}.J{fill:#2b0004}.K{fill:#fff}.L{opacity:.18}.M{opacity:.54}.N{opacity:.15}
  </style>
  <defs>
    <linearGradient id="A" x1="7.72" x2="7.72" y1="12.51" y2="3.21" gradientUnits="userSpaceOnUse">
      <stop offset=".05" stop-color="#ab5400"/>
      <stop offset="1" stop-color="#f28900"/>
    </linearGradient>
    <linearGradient xlink:href="#A" id="B" x1="2.74" x2=".46" y1="12.44" y2="4.84"/>
    <linearGradient xlink:href="#A" id="C" x1="14.43" x2="14.43" y1="12.65" y2="3.07"/>
    <linearGradient xlink:href="#A" id="D" x1="180.99" x2="180.99"/>
    <linearGradient xlink:href="#A" id="E" x1="185.97" x2="188.25" y1="12.44" y2="4.84"/>
    <linearGradient xlink:href="#A" id="F" x1="174.28" x2="174.28" y1="12.65" y2="3.07"/>
    <linearGradient id="G" x1="94.23" x2="94.23" y1="15.59" y2="-2.07" gradientUnits="userSpaceOnUse">
      <stop offset="0" stop-color="#d17724"/>
      <stop offset=".04" stop-color="#d57e2a"/>
      <stop offset=".18" stop-color="#e29641"/>
      <stop offset=".33" stop-color="#eca852"/>
      <stop offset=".49" stop-color="#f2b25b"/>
      <stop offset=".69" stop-color="#f4b65f"/>
      <stop offset=".79" stop-color="#ecab55"/>
      <stop offset=".97" stop-color="#d7903c"/>
      <stop offset="1" stop-color="#d48b38"/>
    </linearGradient>
  </defs>
  <path fill="url(#A)" d="M13.01 7.7s.47-1.95-1.42-1.71-4.02-1.6-4.08-1.95-.53-.83-.53-.83c-3.66.06-4.61 4.43-4.61 4.43v.44s.95 4.37 4.61 4.43c0 0 .47-.47.53-.83.06-.35 2.19-2.19 4.08-1.95s1.42-1.71 1.42-1.71V7.7z"/>
  <path d="m6.89 12.51-.17-.58c-2.95-.26-4.34-3.85-4.34-3.85s.93 4.29 4.51 4.43z" class="A H I"/>
  <path fill="url(#B)" d="M2.63 7.75c0 .75-.17 1.47-1.04 1.47S.01 8.61.01 7.86.72 6.5 1.59 6.5s1.04.49 1.04 1.24Z"/>
  <path d="M11.6 5.99c-1.89.24-4.02-1.6-4.08-1.95-.05-.28-.34-.62-.47-.76-.04.08-.01-.1-.08.03-.65 1.37-1.18 7.67-.06 9.2h.07s.47-.47.53-.83c.06-.35 2.19-2.19 4.08-1.95s1.42-1.71 1.42-1.71V7.7s.47-1.95-1.42-1.71z" class="J" opacity=".2"/>
  <path d="M7.32 3.8s.25 1.15 1.97 1.84 2.32.54 2.32.54l-.03.76-4.88-.71s.29-2.41.62-2.44zm-.35-.5c.06-.13.04.05.08-.03l-.06-.06C4.1 3.26 2.9 5.99 2.52 7.14c.07.12.18.19.35.2.97.07 2.79.38 3.42.2.09-1.83.37-3.58.68-4.23z" class="A H I"/>
  <path d="m6.59 8.18 5.56-.15C13.7 7.89 14.02 8 14.02 8l-1.95 1.47s-.6-.17-2.07.23-2.53 1.7-2.64 1.98c-.12.29-.29.49-.29.49s-.84-2.2-.47-3.99z" class="J L"/>
  <path fill="url(#C)" d="M17.54 7.86c0 2.64-1.39 4.79-3.1 4.79s-3.1-2.14-3.1-4.79 1.39-4.79 3.1-4.79 3.1 2.14 3.1 4.79Z"/>
  <path d="M14.09 7.06c-.12 1.16-.26 2.04-1.32 2.3-.67.17-1.13-.27-1.38-.62.27 2.22 1.53 3.89 3.05 3.89.93 0 1.76-.63 2.32-1.62-.28-1.6-2.55-5.1-2.67-3.96Z" class="J" opacity=".19"/>
  <path d="M14.68 12.28c-.72.1-2.05-.49-2.8-1.7.56 1.25 1.49 2.06 2.55 2.06.08 0 .15 0 .22-.02.24-.22.29-.38.03-.35zM6.82 3.35s-2.7.14-3.97 3.56c0 0 1.21-1.55 3.59-1.87l.37-1.7zm6.47.29s-1.38 1.07-1.53 2.77c-.15 1.71 1.45 1.67 1.57.14.11-1.53.56-2.61.63-2.87.08-.26-.04-.56-.67-.04z" class="A H I"/>
  <path d="M13.47 3.76s-.89.45-1.19 1.46.52.9.82.26c.3-.63 1.04-1.87.37-1.72zm-7.01-.23s-1.68.22-2.95 2.2c0 0 1.01-1.04 3.06-1.57l.12-.66-.23.03z" class="K M"/>
  <path d="M1.77 6.63S.61 6.47.19 7.4c-.31.69 1.32.18 1.83.07s.62-.73-.26-.84z" class="A H I"/>
  <path d="M2.23 8.46C1.86 8.69.72 8.4.32 8.17c-.08-.05-.14-.06-.19-.04.11.57.71 1 1.43 1 .63 0 .86-.4.93-.89-.07.08-.16.16-.26.23Z" class="J L"/>
  <path d="M1.36 6.66s-.66.05-.95.45c-.3.4.64-.04 1.14-.14.49-.1.56-.4-.19-.31Z" class="K M"/>
  <path fill="url(#D)" d="M175.7 7.7s-.47-1.95 1.42-1.71 4.02-1.6 4.08-1.95.53-.83.53-.83c3.66.06 4.61 4.43 4.61 4.43v.44s-.94 4.37-4.61 4.43c0 0-.47-.47-.53-.83-.06-.35-2.19-2.19-4.08-1.95s-1.42-1.71-1.42-1.71V7.7z"/>
  <path d="m181.82 12.51.17-.58c2.95-.26 4.34-3.85 4.34-3.85s-.93 4.29-4.51 4.43z" class="A H I"/>
  <path fill="url(#E)" d="M186.08 7.75c0 .75.17 1.47 1.04 1.47s1.58-.61 1.58-1.36-.71-1.36-1.58-1.36-1.04.49-1.04 1.24Z"/>
  <path d="M177.12 5.99c1.89.24 4.02-1.6 4.08-1.95.05-.28.34-.62.47-.76.04.08.01-.1.08.03.65 1.37 1.18 7.67.05 9.2h-.07s-.47-.47-.53-.83c-.06-.35-2.19-2.19-4.08-1.95s-1.42-1.71-1.42-1.71V7.7s-.47-1.95 1.42-1.71z" class="J" opacity=".2"/>
  <path d="M181.39 3.8s-.25 1.15-1.97 1.84-2.32.54-2.32.54l.03.76 4.88-.71s-.29-2.41-.62-2.44zm.35-.5c-.06-.13-.04.05-.08-.03l.06-.06c2.89.05 4.09 2.78 4.47 3.93-.07.12-.18.19-.35.2-.97.07-2.79.38-3.42.2-.09-1.83-.37-3.58-.68-4.23z" class="A H I"/>
  <path d="M182.12 8.18s-4 0-5.56-.15c-1.55-.14-1.87-.03-1.87-.03l1.96 1.47s.6-.17 2.07.23 2.53 1.7 2.65 1.98a1.72 1.72 0 0 0 .29.49s.84-2.2.47-3.99z" class="J L"/>
  <path fill="url(#F)" d="M171.18 7.86c0 2.64 1.39 4.79 3.1 4.79s3.1-2.14 3.1-4.79-1.39-4.79-3.1-4.79-3.1 2.14-3.1 4.79Z"/>
  <path d="M174.63 7.06c.12 1.16.27 2.04 1.32 2.3.67.17 1.13-.27 1.38-.62-.27 2.22-1.53 3.89-3.05 3.89-.93 0-1.76-.63-2.33-1.62.28-1.6 2.55-5.1 2.67-3.96Z" class="J" opacity=".19"/>
  <path d="M174.03 12.28c.72.1 2.05-.49 2.8-1.7-.56 1.25-1.49 2.06-2.55 2.06-.08 0-.15 0-.22-.02-.24-.22-.28-.38-.03-.35zm7.86-8.93s2.7.14 3.97 3.56c0 0-1.21-1.55-3.59-1.87l-.37-1.7zm-6.46.29s1.38 1.07 1.53 2.77c.15 1.71-1.45 1.67-1.57.14-.11-1.53-.56-2.61-.63-2.87s.04-.56.67-.04z" class="A H I"/>
  <path d="M175.24 3.76s.9.45 1.19 1.46c.3 1.01-.52.9-.82.26-.3-.63-1.04-1.87-.37-1.72Zm7.01-.23s1.68.22 2.95 2.2c0 0-1.01-1.04-3.06-1.57l-.12-.66.23.03Z" class="K M"/>
  <path d="M186.94 6.63s1.16-.16 1.58.77c.31.69-1.32.18-1.83.07s-.62-.73.26-.84z" class="A H I"/>
  <path d="M186.48 8.46c.37.23 1.51-.06 1.91-.29.08-.05.14-.06.19-.04-.11.57-.71 1-1.43 1-.63 0-.86-.4-.93-.89.07.08.16.16.26.23Z" class="J L"/>
  <path d="M187.35 6.66s.66.05.95.45c.3.4-.64-.04-1.14-.14s-.56-.4.18-.31z" class="K M"/>
  <path fill="url(#G)" d="M171.53.18c-2.85-.44-13.29 0-26.24.44-6.14.21-34.18.07-40.94.13-6.76-.06-54.8.08-60.94-.13C30.46.18 20.02-.26 17.17.18c0 0-3.43.97-3.43 6.68s1.78 8.47 4.42 8.69c1.87.15 15.26-.3 28.88-.46h94.63l28.88.46c2.63-.22 4.17-3.08 4.17-8.78S171.54.18 171.54.18z"/>
  <path d="m174.69 7.98.03-1.21c0-2.55-.63-4.13-1.34-5.11a6.54 6.54 0 0 0-1.14-.12c-5.49-.11-15.49-.22-26.26.55s-78.9-.66-89.56-.22-15.38.22-25.16-.11l-15.58-.61c-.92.91-1.93 2.61-1.93 5.71v.17c.76.14 1.76.22 3.45.22l30.66.44 95.71.33c13.08.44 24.5.11 28.96.06.9-.01 1.61-.05 2.17-.1z" class="F K N"/>
  <g fill="#2d1400">
    <path d="M138.88 13.74c24.14.44 31.34.89 33.44 1.14 1-.76 1.72-2.17 2.09-4.24-1.04.59-2.76.92-6.15.92-6.88 0-19.31-.17-38.62 0l-111.88.34c-1.81 0-2.94-.45-3.65-1.05.37 1.73 1.01 2.97 1.85 3.74l4.83-.17c7.22-.17 81.49-1.34 118.1-.67z" opacity=".12"/>
    <path d="M13.74 6.86c0 3.92.84 6.45 2.22 7.72-.69-.6.31-2.65-.7-3.64-1.01-.98-.71-3.79-.71-5.32s1.53-1.53 1.15-3.06c-.22-.86.85-1.79 1.82-2.43-.12.01-.24.03-.35.05 0 0-3.43.97-3.43 6.68zm2.88 8.21-.66-.49c.21.19.43.36.66.49z" class="N"/>
    <path d="M174.72 6.77c0-5.71-3.18-6.59-3.18-6.59-.57-.09-1.45-.14-2.59-.17 1.44.54 3.03 1.19 3.29 1.52.51.64-.64 1.6.13 2.94.76 1.34 1.72 1.34.96 3.06s-2.67 2.87-2.67 2.87 2.1-.19 2.29 1.15c.12.82-.27 2.3-.59 3.31 1.52-1.18 2.37-3.85 2.37-8.09Z" opacity=".1"/>
  </g>
  <g class="K">
    <path d="M21.27 2.1s-5.21-.21-5.21 1.67 2.92 2.5 6.68 2.29c3.75-.21 8.34.42 15.64.83 7.3.42 13.35 0 19.61 0s6.26-3.34-3.55-3.54c-9.8-.21-13.77-.83-19.4-.83S21.27 2.1 21.27 2.1Z" class="F N"/>
    <path d="M27.63 2.61s-4.75-.55-7.31.55 7.49 1.46 18.27 1.28 8.59-1.64-10.96-1.83z"/>
    <path d="M162.37 2.24c-.55.02-15.9 0-23.94.18s-11.88 1.83-7.49 2.56 11.33.91 23.94 1.28 14.98.91 15.72-.73c.73-1.64 0-3.66-8.22-3.29z" class="F N"/>
    <path d="M165.3 3.34s-6.21 0-14.25-.18-21.93.55-15.53.91 17.73.73 22.84.73 9.87-1.46 6.94-1.46Z"/>
  </g>
</svg>
