<?xml version="1.0" encoding="UTF-8"?>
<svg xmlns="http://www.w3.org/2000/svg" xmlns:xlink="http://www.w3.org/1999/xlink" viewBox="0 0 800 400">
	<defs>
		<radialGradient id="a" cx="504.86" cy="123.18" r="31.01" fx="504.86" fy="123.18"
						gradientTransform="matrix(-1 0 0 1 1035.32 0)" gradientUnits="userSpaceOnUse">
			<stop offset="0" stop-color="#814300"></stop>
			<stop offset=".03" stop-color="#894b00"></stop>
			<stop offset=".17" stop-color="#ad7202"></stop>
			<stop offset=".32" stop-color="#ca9203"></stop>
			<stop offset=".47" stop-color="#e1aa04"></stop>
			<stop offset=".63" stop-color="#f2bc05"></stop>
			<stop offset=".8" stop-color="#fbc605"></stop>
			<stop offset="1" stop-color="#ffca06"></stop>
		</radialGradient>
		<radialGradient id="e" cx="465.24" cy="90.9" r="37.09" fx="465.24" fy="90.9"
						gradientTransform="scale(-1 1) rotate(-9.33 -52.64854267 6434.74089767)"
						gradientUnits="userSpaceOnUse">
			<stop offset=".54" stop-color="#ffca06"></stop>
			<stop offset=".61" stop-color="#fbc705"></stop>
			<stop offset=".67" stop-color="#f1bf05"></stop>
			<stop offset=".73" stop-color="#dfb105"></stop>
			<stop offset=".78" stop-color="#c79d04"></stop>
			<stop offset=".83" stop-color="#a78403"></stop>
			<stop offset=".88" stop-color="#806503"></stop>
			<stop offset=".93" stop-color="#514001"></stop>
			<stop offset=".98" stop-color="#1d1700"></stop>
			<stop offset="1"></stop>
		</radialGradient>
		<radialGradient xlink:href="#a" id="f" cx="534.09" cy="140.75" r="12.89" fx="534.09"
						fy="140.75"></radialGradient>
		<radialGradient xlink:href="#a" id="g" cx="455.4" cy="122.23" r="9.83" fx="455.4" fy="122.23"></radialGradient>
		<linearGradient id="c" x1="405.49" x2="405.49" y1="437.67" y2="0" gradientUnits="userSpaceOnUse">
			<stop offset="0" stop-color="#cfe0ff"></stop>
			<stop offset=".2" stop-color="#cadcff"></stop>
			<stop offset=".42" stop-color="#bdd2ff"></stop>
			<stop offset=".63" stop-color="#a8c2ff"></stop>
			<stop offset=".86" stop-color="#8babff"></stop>
			<stop offset="1" stop-color="#749aff"></stop>
		</linearGradient>
		<linearGradient id="d" x1="169.4" x2="969.4" y1="233.38" y2="233.38" gradientUnits="userSpaceOnUse">
			<stop offset="0" stop-color="#aee9ff"></stop>
			<stop offset=".18" stop-color="#bfe6ed"></stop>
			<stop offset=".45" stop-color="#d3e4d9"></stop>
			<stop offset=".72" stop-color="#dfe2cd"></stop>
			<stop offset="1" stop-color="#e3e2ca"></stop>
		</linearGradient>
		<clipPath id="b">
			<path fill="none" d="M0 0h800v400H0z"></path>
		</clipPath>
	</defs>
	<g clip-path="url(#b)">
		<path fill="url(#c)" fill-rule="evenodd" d="M805.51 406.89-.68 437.67V0h812.35l-6.16 406.89z"></path>
		<path fill="url(#d)"
			  d="M169.4 200.39s191.86 2.66 322.33-1.5l-88.4 6.69-104.26 4.78 132 1.38 298.22 8.36 74.44-.96-102.97-4.71-73.53-2.57 254.49-5.14-53.16 3.5-42.83 3.49 183.67-5.28v59.42l-385.67-1.1-219.76-7.34 128.43-6.71h-89.08l-228.26 8.83 84.69-7.15h-90.36v-54.02Z"
			  style="mix-blend-mode:overlay"></path>
		<circle cx="530.46" cy="123.18" r="31.01" fill="url(#a)" opacity=".5" style="mix-blend-mode:screen"></circle>
		<circle cx="570.09" cy="90.9" r="37.09" fill="url(#e)" opacity=".3" style="mix-blend-mode:screen"
				transform="rotate(350.67 569.868 90.913)"></circle>
		<g fill-rule="evenodd">
			<path fill="url(#f)" d="M488.35 140.75a12.89 12.89 0 0 0 25.78 0 12.89 12.89 0 0 0-25.78 0z" opacity=".3"
				  style="mix-blend-mode:screen"></path>
			<path fill="url(#g)" d="M570.09 122.23a9.83 9.83 0 1 0 19.66 0 9.83 9.83 0 1 0-19.66 0z" opacity=".3"
				  style="mix-blend-mode:screen"></path>
		</g>
	</g>
</svg>
