<svg xmlns="http://www.w3.org/2000/svg" xmlns:xlink="http://www.w3.org/1999/xlink" viewBox="0 0 28.59 105.77">
  <defs>
    <linearGradient xlink:href="#a" id="m" x1="11.19" x2="13.96" y1="93.97" y2="93.97">
      <stop offset="0" stop-color="#8a705d"/>
      <stop offset="1"/>
    </linearGradient>
    <linearGradient xlink:href="#a" id="n" x1="15.66" x2="7.29" y1="81.1" y2="72.73">
      <stop offset="0"/>
      <stop offset="1" stop-color="#8a705d"/>
    </linearGradient>
    <linearGradient xlink:href="#a" id="o" x1="9.81" x2="18.7" y1="64.93" y2="64.93">
      <stop offset="0" stop-color="#a48a7b"/>
      <stop offset=".18" stop-color="#a99082"/>
      <stop offset=".47" stop-color="#b7a497"/>
      <stop offset=".81" stop-color="#cec3ba"/>
      <stop offset="1" stop-color="#ded8d1"/>
    </linearGradient>
    <linearGradient xlink:href="#a" id="c" x1="8.4" x2="20.19" y1="62.25" y2="62.25">
      <stop offset="0" stop-color="#4a4a54"/>
      <stop offset=".29" stop-color="#6c6f7d"/>
      <stop offset=".5" stop-color="#5d5f6b"/>
      <stop offset=".79" stop-color="#4f4f5a"/>
      <stop offset="1" stop-color="#4a4a54"/>
    </linearGradient>
    <linearGradient xlink:href="#a" id="d" x1="15.04" x2="22.06" y1="62.12" y2="62.12">
      <stop offset="0" stop-color="#fff"/>
      <stop offset=".15" stop-color="#fafafb"/>
      <stop offset=".31" stop-color="#edeeef"/>
      <stop offset=".47" stop-color="#d8dadb"/>
      <stop offset=".64" stop-color="#babec0"/>
      <stop offset=".81" stop-color="#93999c"/>
      <stop offset=".99" stop-color="#656e71"/>
      <stop offset="1" stop-color="#616a6e"/>
    </linearGradient>
    <linearGradient xlink:href="#a" id="b" x1="8.4" x2="20.19" y1="60.94" y2="60.94">
      <stop offset="0" stop-color="#616a6e"/>
      <stop offset=".18" stop-color="#687074"/>
      <stop offset=".46" stop-color="#7d8386"/>
      <stop offset=".8" stop-color="#a0a2a3"/>
      <stop offset="1" stop-color="#b8b8b8"/>
    </linearGradient>
    <linearGradient xlink:href="#b" id="v" x1=".96" x2="27.67" y1="51.33" y2="51.33"/>
    <linearGradient xlink:href="#c" id="w" x1="0" x2="28.59" y1="49.17" y2="49.17"/>
    <linearGradient xlink:href="#d" id="y" x1="23.69" x2="28.59" y1="48.66" y2="48.66"/>
    <linearGradient xlink:href="#a" id="B" x1="0" x2="28.59" y1="45.77" y2="45.77">
      <stop offset="0" stop-color="#b86930"/>
      <stop offset="1" stop-color="#4f463b"/>
    </linearGradient>
    <linearGradient xlink:href="#a" id="e" x1="11.38" x2="17.82" y1="98.16" y2="98.16">
      <stop offset="0" stop-color="#331316"/>
      <stop offset=".03" stop-color="#411a17"/>
      <stop offset=".08" stop-color="#572519"/>
      <stop offset=".13" stop-color="#642b1a"/>
      <stop offset=".18" stop-color="#692e1b"/>
      <stop offset=".37" stop-color="#632b1b"/>
      <stop offset=".61" stop-color="#54251e"/>
      <stop offset=".82" stop-color="#401d22"/>
    </linearGradient>
    <linearGradient xlink:href="#e" id="F" x1="11.27" x2="17.87" y1="95.08" y2="95.08"/>
    <linearGradient xlink:href="#e" id="H" x1="11.07" x2="17.92" y1="91.36" y2="91.36"/>
    <linearGradient xlink:href="#e" id="J" x1="10.5" x2="17.88" y1="88.01" y2="88.01"/>
    <linearGradient xlink:href="#a" id="f" x1="11.52" x2="17.88" y1="88.01" y2="88.01">
      <stop offset="0" stop-color="#ded8d1"/>
      <stop offset=".19" stop-color="#c9c2bb"/>
      <stop offset=".53" stop-color="#a79f99"/>
      <stop offset=".81" stop-color="#938a84"/>
      <stop offset="1" stop-color="#8c837d"/>
    </linearGradient>
    <linearGradient xlink:href="#f" id="K" x1="11.4" x2="17.92" y1="91.36" y2="91.36"/>
    <linearGradient xlink:href="#f" id="L" x1="11.55" x2="17.87" y1="95.08" y2="95.08"/>
    <linearGradient xlink:href="#a" id="g" x1="10.5" x2="15.1" y1="88.62" y2="88.62">
      <stop offset="0" stop-color="#4a2c18"/>
      <stop offset="1"/>
    </linearGradient>
    <linearGradient xlink:href="#g" id="M" x1="11.07" x2="14.66" y1="92.73" y2="92.73"/>
    <linearGradient xlink:href="#g" id="N" x1="11.27" x2="15.84" y1="96.02" y2="96.02"/>
    <linearGradient xlink:href="#g" id="O" x1="11.38" x2="16.72" y1="98.98" y2="98.98"/>
    <linearGradient xlink:href="#a" id="h" x1="11.18" x2="15.65" y1="91.01" y2="91.01">
      <stop offset="0" stop-color="#42362e"/>
      <stop offset="1"/>
    </linearGradient>
    <linearGradient xlink:href="#h" id="P" x1="11.41" x2="15.88" y1="94.67" y2="94.67"/>
    <linearGradient xlink:href="#h" id="Q" x1="10.63" x2="15.93" y1="87.1" y2="87.1"/>
    <linearGradient xlink:href="#f" id="R" x1="16.18" x2="17.82" y1="97.65" y2="97.65"/>
    <linearGradient xlink:href="#h" id="S" x1="11.51" x2="15.99" y1="97.97" y2="97.97"/>
    <linearGradient xlink:href="#a" id="W" x1="15.2" x2="15.2" y1="48.98" y2="0">
      <stop offset="0" stop-color="#fb0"/>
      <stop offset=".53" stop-color="#ff5319"/>
      <stop offset="1" stop-color="#ff4000"/>
    </linearGradient>
    <linearGradient xlink:href="#a" id="X" x1="15.24" x2="15.24" y1="46.33" y2="-1.33">
      <stop offset="0"/>
      <stop offset="1" stop-color="#ffd11f"/>
    </linearGradient>
    <linearGradient id="a" gradientUnits="userSpaceOnUse"/>
    <radialGradient xlink:href="#a" id="k" cx="-10.37" cy="86.03" r="32.78" fx="-10.37" fy="86.03">
      <stop offset="0" stop-color="#c27d48"/>
      <stop offset="1" stop-color="#663812"/>
    </radialGradient>
    <radialGradient xlink:href="#a" id="l" cx="-31.14" cy="82.38" r="52.51" fx="-31.14" fy="82.38">
      <stop offset=".66" stop-color="#fff"/>
      <stop offset=".67" stop-color="#f2f2f1"/>
      <stop offset=".69" stop-color="#d7d7d7"/>
      <stop offset=".72" stop-color="#c1c1c1"/>
      <stop offset=".75" stop-color="#b1b1b0"/>
      <stop offset=".79" stop-color="#a5a5a4"/>
      <stop offset=".85" stop-color="#9e9e9d"/>
      <stop offset="1" stop-color="#9d9d9c"/>
    </radialGradient>
    <radialGradient xlink:href="#a" id="p" cx="8.9" cy="65.83" r="10.19" fx="8.9" fy="65.83">
      <stop offset="0" stop-color="#876f60"/>
      <stop offset="1"/>
    </radialGradient>
    <radialGradient xlink:href="#a" id="r" cx="10.82" cy="46.62" r="22.16" fx="10.82" fy="46.62">
      <stop offset="0" stop-color="#4f5354"/>
      <stop offset=".61" stop-color="#4a4a54"/>
      <stop offset=".84" stop-color="#444351"/>
      <stop offset="1" stop-color="#3d3c4f"/>
    </radialGradient>
    <radialGradient xlink:href="#a" id="i" cx="10.1" cy="45.04" r="15.9" fx="10.1" fy="45.04">
      <stop offset="0" stop-color="#87786f"/>
      <stop offset="1"/>
    </radialGradient>
    <radialGradient xlink:href="#i" id="s" cx="7.47" cy="46.2" r="14.05" fx="7.47" fy="46.2"/>
    <radialGradient xlink:href="#a" id="t" cx="15.72" cy="49.78" r="15.21" fx="15.72" fy="49.78">
      <stop offset="0"/>
      <stop offset=".24" stop-color="#010101"/>
      <stop offset=".32" stop-color="#080706"/>
      <stop offset=".38" stop-color="#14110f"/>
      <stop offset=".43" stop-color="#251f1c"/>
      <stop offset=".47" stop-color="#3b322d"/>
      <stop offset=".51" stop-color="#564a42"/>
      <stop offset=".55" stop-color="#77655b"/>
      <stop offset=".58" stop-color="#9c8678"/>
      <stop offset=".61" stop-color="#c7aa99"/>
      <stop offset=".63" stop-color="#f5d2bc"/>
      <stop offset=".64" stop-color="#ffdac4"/>
      <stop offset=".64" stop-color="#f5d2bc"/>
      <stop offset=".65" stop-color="#c7aa99"/>
      <stop offset=".67" stop-color="#9c8678"/>
      <stop offset=".69" stop-color="#77655b"/>
      <stop offset=".71" stop-color="#564a42"/>
      <stop offset=".73" stop-color="#3b322d"/>
      <stop offset=".75" stop-color="#251f1c"/>
      <stop offset=".78" stop-color="#14110f"/>
      <stop offset=".82" stop-color="#080706"/>
      <stop offset=".86" stop-color="#010101"/>
      <stop offset="1"/>
    </radialGradient>
    <radialGradient xlink:href="#a" id="u" cx="9.9" cy="41.86" r="22.16" fx="9.9" fy="41.86">
      <stop offset=".64" stop-color="#fff"/>
      <stop offset=".69" stop-color="#fafafb"/>
      <stop offset=".75" stop-color="#edeeef"/>
      <stop offset=".81" stop-color="#d8dadb"/>
      <stop offset=".87" stop-color="#babec0"/>
      <stop offset=".93" stop-color="#93999c"/>
      <stop offset=".99" stop-color="#656e71"/>
      <stop offset="1" stop-color="#616a6e"/>
    </radialGradient>
    <radialGradient xlink:href="#a" id="x" cx="11.61" cy="41.36" r="15.11" fx="11.61" fy="41.36">
      <stop offset="0" stop-color="#e66719"/>
      <stop offset="1"/>
    </radialGradient>
    <radialGradient xlink:href="#a" id="z" cx="8.19" cy="48.47" r="17.25" fx="8.19" fy="48.47">
      <stop offset="0" stop-color="#b07b13"/>
      <stop offset="1"/>
    </radialGradient>
    <radialGradient xlink:href="#a" id="A" cx="-.82" cy="80.04" r="28.62" fx="-.82" fy="80.04">
      <stop offset="0" stop-color="#8a705d"/>
      <stop offset="1"/>
    </radialGradient>
    <radialGradient xlink:href="#a" id="C" cx="14.53" cy="54.1" r="15.41" fx="14.53" fy="54.1">
      <stop offset="0" stop-color="#ffce1f"/>
      <stop offset=".39" stop-color="#fa0"/>
      <stop offset=".49" stop-color="#fca200"/>
      <stop offset=".66" stop-color="#f68e00"/>
      <stop offset=".85" stop-color="#ec6d00"/>
      <stop offset="1" stop-color="#e34f00"/>
    </radialGradient>
    <radialGradient xlink:href="#a" id="T" cx="12.51" cy="94.68" r="8.02" fx="12.51" fy="94.68">
      <stop offset=".71" stop-color="#fff"/>
      <stop offset=".71" stop-color="#fdfcfc"/>
      <stop offset=".75" stop-color="#ebe6e1"/>
      <stop offset=".8" stop-color="#ddd4cc"/>
      <stop offset=".85" stop-color="#d3c8bd"/>
      <stop offset=".91" stop-color="#cdc1b4"/>
      <stop offset="1" stop-color="#ccbfb2"/>
    </radialGradient>
    <radialGradient xlink:href="#a" id="j" cx="11.7" cy="91.62" r="8.17" fx="11.7" fy="91.62">
      <stop offset=".64" stop-color="#fff"/>
      <stop offset=".64" stop-color="#fdfcfc"/>
      <stop offset=".69" stop-color="#ebe6e1"/>
      <stop offset=".75" stop-color="#ddd4cc"/>
      <stop offset=".81" stop-color="#d3c8bd"/>
      <stop offset=".89" stop-color="#cdc1b4"/>
      <stop offset="1" stop-color="#ccbfb2"/>
    </radialGradient>
    <radialGradient xlink:href="#j" id="U" cx="11.93" cy="88.35" r="8.09" fx="11.93" fy="88.35"/>
    <radialGradient xlink:href="#j" id="V" cx="12.94" cy="85.5" r="5.98" fx="12.94" fy="85.5"/>
    <path id="q" d="M14.3 49.71h13.37c0 6.39-5.18 11.57-13.37 11.57S.92 56.1.92 49.71h13.37Z"/>
    <path id="D" d="M17.54 95.19c.51.17.17 1.05.14 1.25-.13.87-.18 2.38-.09 2.66.03.11-.06.22-.12.31-.68 1.12-3.4 1.97-4.93 1.66-.46-.09-1.18-.48-1.17-1.03 0-.44.13-.57.11-1.91 0-.15-.03-.29-.05-.44 0-.09.04-.18.13-.2.12.26.4.51.75.62 1.17.36 3.71-.59 4.58-1.44.45-.44.63-.93.64-1.48Z"/>
    <path id="E" d="m11.51 96.4.06 1.09c.12.26.4.51.75.62 1.17.36 3.71-.59 4.58-1.44.45-.44.63-.93.64-1.48l.11-1.57c.03-.23.07-.63.16-.95.11-.4.08-.7-.15-.71-.9 1.71-3.22 2.91-5.13 2.96-.42.01-.77-.09-1.03-.4-.22.06-.28.36-.2.68.16.62.18.56.2 1.19z"/>
    <path id="G" d="M11.39 93.87c0 .3.03.53.12.65.26.31.61.41 1.03.4 1.91-.06 4.23-1.25 5.13-2.96l.23-3.39c.05-.6.05-.74-.14-.79-1.38 2.22-4.78 3.92-6.48 3.63-.27.17-.2.55-.09.91a4.31 4.31 0 0 1 .22 1.55z"/>
    <path id="I" d="M11.61 90.39c1.31.12 2.45.08 3.71-.26.97-.63 1.86-1.44 2.42-2.34l.07-1.04c.02-.3.09-.73.06-.98-.02-.12-.06-.2-.17-.2-.58.55-1.4.92-2.28 1.15-1.78.47-4.6.63-4.79.08-.3.24.02.96.13 1.42.08.34.13.67.13 1.02.01.94-.07 1.09.73 1.16z"/>
  </defs>
  <g fill-rule="evenodd">
    <path fill="url(#k)" d="M9.81 63.63h8.88c.07 2.31-.13 4.63-.36 6.94-1.34 13.16-.41 12.17-.61 19.49-.14 5.1-.41 11.64-1.1 15.52-1.97.82-5.5-1.29-5.38-3.35.81-5.94-.01-12.59-1.03-17.63-.53-2.64-.66-2.83-.51-5.54.25-4.47.45-10.04.1-15.45Z"/>
    <path fill="url(#l)" d="M15.2 80.9c-.78 4.32-.74 3.78.14 7.77.97 4.41 1.72 10.34-.17 13.25-1.07 1.65-2.63 1.57-3.72-1.75-.05.7-.12 1.39-.22 2.07-.12 2.06 3.41 4.18 5.38 3.35.69-3.88.96-10.43 1.1-15.52.2-7.32-.73-6.34.61-19.49.24-2.31.43-4.63.36-6.94H9.8c.13 1.92.18 3.87.19 5.78.55-2.78 2.02-3.75 3.38-3.39 2.87.75 3.04 5.44 2.79 8.62-.17 2.11-.58 4.16-.96 6.26Z" opacity=".6" style="mix-blend-mode:multiply"/>
    <path fill="url(#m)" d="M11.19 88.79c.01 1.3.35 2.56.49 3.85.26 2.42.26 3.71.2 5.2-.08 1.81-.13 2.57.07 2.66.33.14 1.07-1.46 1.41-2.89.57-2.33.69-5.2.55-7.17-.06-.82-.15-1.7-.47-2.39-.64-1.36-2.25-.15-2.24.74Z" opacity=".25" style="mix-blend-mode:screen"/>
    <path fill="#312c06" d="M17.54 95.19c-.76 3.51-1.79 5.68-3.49 7.98.69-.68 1.4-1.61 2.04-2.7.9-1.54 1.36-3.13 1.45-5.03l.01-.26zm-6.24 7.61c1.75-1.7 2.63-3.92 3.27-6.39 1.07-4.14 1.72-8.77 3.14-10.68l-.06-1.47c-2.27 4.55-1.93 7.09-3.46 12.1-.65 2.13-1.65 4.21-2.9 5.47-.02.14-.04.28-.05.41-.01.19 0 .37.05.56zm2.45-16.39 2.99-6.02c.63-1.31.97-2.59 1.08-4.11l.29-3.41c-1.45 7.31-3 8.76-5.23 14.2-.44 1.08-.75 2-.96 2.82a13.59 13.59 0 0 0-.42 4.36c.02.3.03.59.04.89.1-3.08.46-5.06 2.21-8.73zm-2.81 2.34c.71-8 3.07-9.57 5.03-17.52-2.31 6.61-4.57 9.08-5.17 14.55a8.44 8.44 0 0 0 .05 2.3l.1.67zm-.99-6.03c.28-4.58 2.81-8.07 4.33-11.84 1.21-3 1.37-4.4 1.63-7.25h-.88c-.44 3.31-.68 4.88-2.09 8.29-1.42 3.42-2.41 5.82-2.95 7.79-.29 1.03-.33 2.01-.13 3.07.02.13.05.26.08.4 0-.16 0-.32.01-.47z" opacity=".15" style="mix-blend-mode:multiply"/>
    <path fill="url(#n)" d="m10.37 71.79-.29 4.88-.21 4.66c.63 5.83 3.23 3.35 3.71.26.38-2.44.34-5.4-.04-7.88-.85-5.58-3.09-6.55-3.16-1.92z" opacity=".35" style="mix-blend-mode:screen"/>
    <path fill="url(#o)" d="M18.69 63.64H9.81l.04.65c2.27 1.8 6.39 2.55 8.84 1.36v-2z" style="mix-blend-mode:multiply"/>
    <path fill="url(#c)" d="M20.19 59.66c-.39.59-.41 3.3-.43 3.64-.03.43-.66.82-1.65 1.09-.98.28-2.33.44-3.81.44s-2.83-.17-3.82-.44c-.99-.28-1.62-.66-1.64-1.09-.02-.34-.04-3.05-.43-3.64h11.78Z"/>
    <path fill="url(#d)" d="M18.5 59.66c-.33.87-.35 3.62-.37 3.99-.02.35-.35.67-.9.94l.87-.2c.99-.28 1.62-.66 1.65-1.09.02-.34.04-3.05.43-3.64h-1.69z" style="mix-blend-mode:multiply"/>
    <path fill="url(#p)" d="M17.91 60.16c-.29.48-.31 2.7-.32 2.98-.02.35-.5.66-1.24.87s-1.75.32-2.87.3c-1.12-.03-2.13-.19-2.87-.43-.75-.25-1.22-.57-1.24-.93-.02-.28-.03-2.51-.32-3l4.43.11 4.43.11z" opacity=".35" style="mix-blend-mode:screen"/>
    <path fill="url(#b)" d="M14.29 59.66H8.4c1.76 2.73 8.83 3.56 11.5 1.15.06-.51.15-.95.28-1.15h-5.89Z" style="mix-blend-mode:multiply"/>
    <use xlink:href="#q" fill="url(#r)"/>
    <path fill="url(#i)" d="M11.32 49.71h9.83c0 5.05-4.4 9.15-9.83 9.15s-9.83-4.1-9.83-9.15h9.83Z" opacity=".65" style="mix-blend-mode:screen"/>
    <path fill="url(#s)" d="M9.48 49.71h7.53c0 3.87-3.37 7.01-7.53 7.01s-7.53-3.14-7.53-7.01h7.53Z" opacity=".65" style="mix-blend-mode:screen"/>
    <path fill="url(#t)" d="M23.49 49.71c-.07 4.92-3.47 9.11-8.24 10.76 6.34-.47 11.34-5.18 11.22-10.76H23.5Z" opacity=".1" style="mix-blend-mode:screen"/>
    <use xlink:href="#q" fill="url(#u)" style="mix-blend-mode:multiply"/>
    <path fill="url(#v)" d="M14.3 52.89c7.22.28 13.08-.77 13.33-2.29v-.1c.02-.26.03-.52.03-.79H.96c.46 1.5 6.26 2.91 13.34 3.18Z" style="mix-blend-mode:multiply"/>
    <path fill="url(#w)" d="m28.59 45.84-.16 2.69c-.07 1.11-1.7 2.11-4.27 2.83-2.55.71-6.03 1.15-9.86 1.15s-7.33-.44-9.88-1.15C1.86 50.64.23 49.65.17 48.53l-.16-2.69H28.6z"/>
    <path fill="url(#x)" d="m26.49 46.28-.11 2.03c-.05 1.01-1.53 1.92-3.86 2.56-2.32.64-5.5 1.02-8.99.99-3.5-.02-6.68-.45-9.01-1.11C2.18 50.08.7 49.16.64 48.14L.52 46.1l12.99.09 12.98.09z" style="mix-blend-mode:screen"/>
    <path fill="url(#y)" d="m27.32 45.84-.08 1.54-.08 1.52c-.05.99-1.36 1.89-3.46 2.58 1.41-.36 2.58-.8 3.4-1.3s1.3-1.06 1.34-1.65l.16-2.69h-1.27z" style="mix-blend-mode:multiply"/>
    <path fill="url(#z)" d="M14.16 41.8c3.95 0 7.52.49 10.07 1.27 2.54.78 4.07 1.83 4 2.99-.07 1.15-1.69 2.18-4.25 2.92-2.53.73-6 1.19-9.82 1.19-.7 0-1.38-.01-2.05-.04-.11 0-.28 0-.38.05-.19.08-.85 1.11-1.22 1.41.07-.29.21-.73.38-1.1.04-.1.09-.21.04-.3-.06-.09-.2-.14-.31-.15-.69-.05-1.37-.12-2.02-.2-.62-.08-.71.37-1.05.34-.19-.02 0-.48-.57-.58-.96-.17-1.85-.37-2.65-.6-.81-.24-1.53-.5-2.13-.79-.28-.13-.55.44-.76.66.06-.2.15-.44.26-.67.03-.06.06-.11.04-.17-.02-.05-.09-.11-.14-.14-.93-.55-1.47-1.16-1.51-1.82-.07-1.16 1.45-2.22 3.99-3 2.56-.78 6.12-1.26 10.07-1.26Z" style="mix-blend-mode:screen"/>
    <path fill="url(#A)" d="M11.53 80.84c.16-3.24-.96-8.93-1.57-13.6.1 4.21-.07 8.36-.26 11.84-.15 2.7-.02 2.9.51 5.54.89 4.4 1.62 10.03 1.26 15.34.89-2.75 1.23-7.33.95-9.58-.23-1.86-.89-3.29-1.37-5.11-.25-.96.4-2.77.48-4.42Z" opacity=".5" style="mix-blend-mode:screen"/>
    <path fill="url(#B)" d="M14.3 41.62c4.02 0 7.64.48 10.23 1.25 2.58.77 4.14 1.82 4.07 2.97-.07 1.14-1.73 2.16-4.32 2.89-2.58.73-6.1 1.18-9.98 1.18-3.89 0-7.41-.45-9.99-1.18C1.71 48 .07 46.98 0 45.84c-.07-1.15 1.48-2.2 4.05-2.97 2.6-.77 6.22-1.25 10.24-1.25Z"/>
    <path fill="url(#C)" d="M14.3 42.08c3.69 0 7.01.42 9.4 1.09 2.37.66 3.81 1.58 3.75 2.58-.06.99-1.57 1.88-3.95 2.52-2.37.64-5.62 1.03-9.2 1.03-3.59 0-6.83-.39-9.21-1.03-2.39-.64-3.9-1.53-3.95-2.52-.06-1 1.38-1.91 3.75-2.58 2.39-.67 5.72-1.08 9.41-1.08Z"/>
    <use xlink:href="#D" fill="url(#e)"/>
    <use xlink:href="#E" fill="url(#F)"/>
    <use xlink:href="#G" fill="url(#H)"/>
    <use xlink:href="#I" fill="url(#J)"/>
    <path fill="url(#f)" d="M17.25 86.93c-.03.47-.25 1.21-.43 1.43-.39.49-1.29 1.42-1.87 1.64-1.02.39-2.32.38-3.43.39h.09c1.31.12 2.45.08 3.71-.26.97-.63 1.86-1.44 2.42-2.34l.07-1.04c.02-.3.09-.73.06-.98-.02-.12-.06-.2-.17-.2-.48.45-1.12.79-1.83 1.02.85-.17 1.44-.6 1.38.35z" opacity=".2" style="mix-blend-mode:multiply"/>
    <path fill="url(#K)" d="M17.13 91.01c-.13.67-.35 1.34-.7 1.85-.87 1.26-2.75 1.96-4.26 1.76-.37-.05-.61-.19-.76-.47a.91.91 0 0 0 .1.38c.26.31.61.41 1.03.4 1.91-.06 4.23-1.25 5.13-2.96l.23-3.39c.05-.6.05-.74-.14-.79-.35.56-.82 1.08-1.36 1.55.82-.41 1.06-.05.74 1.68z" opacity=".2" style="mix-blend-mode:multiply"/>
    <path fill="url(#L)" d="M16.01 93.74c.35-.12 1.13-.62 1.2-.51.04.07-.01.26.01.57.04.43.15.38.06 1-.1.7-.38 1.43-.88 1.88-.6.54-1.66 1.08-2.67 1.3-.88.19-1.9.13-2.19-.76a2.33 2.33 0 0 0 .02.29c.12.26.4.51.75.62 1.17.36 3.71-.59 4.58-1.44.45-.44.63-.93.64-1.48l.11-1.57c.03-.23.07-.63.16-.95.11-.4.08-.7-.15-.71-.36.69-.95 1.29-1.65 1.77z" opacity=".2" style="mix-blend-mode:multiply"/>
    <path fill="url(#g)" d="M11.61 90.39c.72.07 1.38.08 2.04.03-.56 0-1.38-.07-1.54-.64-.05-.19.08-.63.08-.91 0-.34-.41-.83.23-1.15.99-.49 1.78-.45 2.68-.93-1.78.41-4.3.52-4.48 0-.3.24.02.96.13 1.42.08.34.13.67.13 1.02.01.94-.07 1.09.73 1.16Z" opacity=".5" style="mix-blend-mode:screen"/>
    <path fill="url(#M)" d="M14.66 90.53c-1.25.68-2.54 1.04-3.4.89-.27.17-.2.55-.09.91.19.68.22.85.22 1.55 0 .3.03.53.12.65.26.31.61.41 1.03.4.27 0 .54-.04.82-.09-.67-.09-.8-.63-.53-1.03.31-.45.05-.78-.11-1.15-.47-1.09 1.02-1.42 1.94-2.12Z" opacity=".5" style="mix-blend-mode:screen"/>
    <path fill="url(#N)" d="M13.36 94.84a5.87 5.87 0 0 1-.82.09c-.42.01-.77-.09-1.03-.4-.22.06-.28.36-.2.68.16.62.18.56.2 1.19l.06 1.09c.12.26.4.51.75.62.53.16 1.35.06 2.17-.19-.5.09-1.47.25-1.73-.2-.2-.33.17-.67.13-1.08-.03-.33-.41-.79.22-1.26.66-.48 1.67-.63 2.73-1.55a6.92 6.92 0 0 1-2.49.99z" opacity=".5" style="mix-blend-mode:screen"/>
    <path fill="url(#O)" d="M14.49 97.92c-.82.25-1.64.36-2.17.19-.36-.11-.64-.36-.75-.62-.09.03-.14.11-.13.2.02.15.05.29.05.44.02 1.34-.1 1.47-.11 1.91 0 .55.7.94 1.17 1.03.33.07.71.08 1.11.05-.57 0-.95-.16-.73-.9.04-.13.06-.32 0-.68-.08-.53.11-.55.57-.71 1.78-.63 2.25-.68 3.22-1.99-.51.41-1.37.83-2.23 1.09Z" opacity=".5" style="mix-blend-mode:screen"/>
    <path fill="url(#h)" d="M11.26 91.49c-.31.47.34.5.68.46 1.44-.19 2.74-.87 3.71-1.88-.8.59-3.67 1.93-4.39 1.43Z" style="mix-blend-mode:screen"/>
    <path fill="url(#P)" d="M11.49 94.73c-.31.41.34.56.68.57 1.44.05 2.73-.55 3.71-1.27-1.71.94-3.94 1.36-4.39.7Z" style="mix-blend-mode:screen"/>
    <path fill="url(#Q)" d="M10.63 86.92c.94.74 4.19.04 5.3-.23-.94.49-4.88 1.44-5.3.23Z" style="mix-blend-mode:screen"/>
    <path fill="url(#R)" d="M16.18 97.2c.5-.17.74-.41 1.06-.64.29-.2.33.02.29.27-.05.31-.15.6-.21.9-.13.65.04.6.1 1.16.06.52-.3.9-.67 1.22.32-.21.58-.45.73-.7.06-.09.16-.21.12-.31-.09-.28-.04-1.79.09-2.66.03-.2.37-1.08-.14-1.25 0 .55-.19 1.04-.64 1.48-.18.18-.43.36-.73.53Z" opacity=".2" style="mix-blend-mode:multiply"/>
    <path fill="url(#S)" d="M11.59 97.69c-.31.38.38.71.72.76 1.44.22 2.68-.32 3.68-1.03-1.49.81-3.56 1.22-4.4.26Z" style="mix-blend-mode:screen"/>
    <use xlink:href="#D" fill="url(#T)" opacity=".7" style="mix-blend-mode:multiply"/>
    <use xlink:href="#E" fill="url(#j)" opacity=".7" style="mix-blend-mode:multiply"/>
    <use xlink:href="#G" fill="url(#U)" opacity=".7" style="mix-blend-mode:multiply"/>
    <use xlink:href="#I" fill="url(#V)" opacity=".7" style="mix-blend-mode:multiply"/>
    <path fill="url(#W)" d="M5.62 28.3c-.77-1.05-2-3.18.46-6.49.17 4.07 5.28 4.58 5.47-.23.05-1.14-.24-2.6-1.11-4.44-2.12-4.51.65-5.94 4.14-9.77 1.83-2.01 2.06-5.7.51-7.37 3.98 1.52 5.19 5 5.09 7.99-.06 1.71-.62 3.68-1.5 5.95-.61 1.58-.61 2.52-.43 3.25.93 3.74 6.21 5.45 2.35 10.57-.76 1.01-1.47 1.82-2.02 2.58-1.26 1.77-.81 3.78.52 4.66 2.36 1.55 5.27-1.13 4.25-4.54 4.55 5.15 4.43 12.79-.18 16.85-3.47 3.05-5.3.79-7.9.8-2.8 0-5.28 2.08-8.18-.22-3.33-2.64-3.94-6.44-2.99-10.04 1.24-4.73 3.89-6.33 1.53-9.56Z"/>
    <path fill="url(#X)" d="M5.88 42.69c.2 1.08.78 2.06 1.91 2.86 1.45 1.03 3.38 1.07 4.73-.14.62-.56.89-.96 2.99-.55 1.49.29 2.26 2.12 4.73 1.16 4.39-1.71 5.14-6.2 3.9-9.2-1.06 2.66-3.27 3.46-5.54 2.36-2.79-1.35-4.47-5.3-2.69-8.4 3.49-6.1 4.17-4.17 0-11.64-2.25-4.03-2.06-5.16-.75-8.17-2.85 1.54-3.55 3.53-3.24 6.33.13 1.13.93 2.79 1.55 4.54.7 1.97.73 4.48-.53 5.87-1.83 2.03-5.27 1.48-6.04-1.69-1.28 2.91 3.01 4.92 2.24 6.97-1.1 2.91-3.86 6.44-3.26 9.69Z" style="mix-blend-mode:screen"/>
    <path fill="#fd5f04" d="M1.99 18.6c.34-1.68 1.81-3.4 3.23-4.47-.46 3.22 1.73 3.24.61 5.94-.94-1.42-3.57.22-2.21 2.8-.43.05-2.16-1.67-1.63-4.27Z"/>
  </g>
</svg>
