<svg width="64" height="232" viewBox="0 0 64 232" fill="none" xmlns="http://www.w3.org/2000/svg">
<path fill-rule="evenodd" clip-rule="evenodd" d="M22.3752 139.125H41.8439C42.0627 144.156 41.6251 149.188 40.9689 154.219C38.1251 183.094 40.0939 180.906 39.6564 196.875C39.4377 208.031 38.7814 222.25 37.2502 230.781C32.8752 232.531 25.2189 227.938 25.4377 223.344C27.1877 210.438 25.4377 195.781 23.2502 184.844C22.1564 179.156 21.7189 178.719 22.1564 172.813C22.8127 163.188 23.2502 151.156 22.3752 139.125Z" fill="url(#paint0_radial_544_65887)"/>
<path opacity="0.6" fill-rule="evenodd" clip-rule="evenodd" d="M34.1875 176.969C32.4375 186.375 32.6562 185.282 34.4062 194.032C36.5937 203.657 38.125 216.563 33.9688 222.907C31.5625 226.407 28.2813 226.407 25.875 218.969C25.6563 220.5 25.6563 222.032 25.4375 223.563C25.2188 228.157 32.875 232.75 37.25 231C38.7813 222.469 39.4375 208.25 39.6563 197.094C40.0938 181.125 38.125 183.313 40.9687 154.438C41.4062 149.407 41.8438 144.375 41.8438 139.344H22.375C22.5937 143.5 22.8125 147.875 22.8125 152.032C24.125 145.907 27.1875 143.938 30.25 144.594C36.5938 146.344 36.8125 156.407 36.375 163.407C35.9375 168 35.0625 172.375 34.1875 176.969Z" fill="url(#paint1_radial_544_65887)"/>
<path opacity="0.25" fill-rule="evenodd" clip-rule="evenodd" d="M25.4375 194.25C25.4375 197.094 26.0937 199.938 26.5312 202.781C27.1875 208.031 27.1875 210.875 26.9687 214.156C26.75 218.094 26.75 219.844 27.1875 220.063C27.8438 220.281 29.5937 216.781 30.25 213.719C31.5625 208.688 31.7813 202.344 31.5625 197.969C31.3438 196.219 31.3438 194.25 30.4688 192.719C28.9375 189.656 25.4375 192.281 25.4375 194.25Z" fill="url(#paint2_linear_544_65887)"/>
<path opacity="0.15" fill-rule="evenodd" clip-rule="evenodd" d="M39.4372 208.25C37.6872 215.907 35.4997 220.719 31.781 225.75C33.3122 224.219 34.8435 222.25 36.156 219.844C38.1247 216.563 39.2185 213.063 39.2185 208.907C39.4372 208.688 39.4372 208.469 39.4372 208.25ZM25.656 224.875C29.3747 221.157 31.3435 216.344 32.8747 210.875C35.281 201.907 36.5935 191.625 39.656 187.469C39.656 186.375 39.656 185.282 39.4372 184.188C34.406 194.25 35.281 199.719 31.781 210.657C30.4685 215.25 28.0622 219.844 25.4372 222.688C25.4372 222.907 25.4372 223.344 25.2185 223.563C25.656 224 25.656 224.438 25.656 224.875ZM31.1247 189C33.3122 184.625 35.4997 180.25 37.6872 175.875C38.9997 173.032 39.8747 170.188 40.0935 166.907C40.3122 164.719 40.531 162.313 40.7497 159.469C37.6872 175.438 34.1872 178.719 29.3747 190.532C28.4997 192.938 27.8435 194.907 27.1872 196.657C26.3122 199.938 26.0935 202.782 26.3122 206.282C26.3122 206.938 26.3122 207.594 26.3122 208.25C26.531 201.469 27.1872 197.094 31.1247 189ZM24.9997 194.25C26.531 176.75 31.781 173.25 35.9372 155.969C30.906 170.407 25.8747 175.875 24.5622 187.907C24.3435 189.657 24.3435 191.188 24.5622 192.938C24.781 193.157 24.781 193.594 24.9997 194.25ZM22.8122 180.907C23.4685 170.844 28.9372 163.188 32.2185 155.094C34.8435 148.532 35.281 145.469 35.7185 139.344H33.7497C32.8747 146.563 32.2185 150.063 29.156 157.5C26.0935 164.938 23.906 170.188 22.5935 174.563C22.156 176.75 22.156 178.719 22.8122 180.907C22.5935 181.344 22.8122 181.563 22.8122 182C22.5935 181.563 22.8122 181.344 22.8122 180.907Z" fill="#312C06"/>
<path opacity="0.35" fill-rule="evenodd" clip-rule="evenodd" d="M23.6875 157.063C23.6875 159.032 23.25 163.407 23.0313 167.782C22.8125 171.938 22.375 176.094 22.5938 178.063C23.9063 190.75 29.5938 185.5 30.6875 178.719C31.5625 173.469 31.3438 166.907 30.6875 161.438C28.7188 148.969 23.9063 147 23.6875 157.063Z" fill="url(#paint3_linear_544_65887)"/>
<path fill-rule="evenodd" clip-rule="evenodd" d="M45.125 130.594C44.25 131.907 44.25 137.813 44.25 138.469C44.25 139.344 42.7187 140.219 40.5312 140.875C38.3437 141.532 35.5 141.75 32.2187 141.75C28.9375 141.75 26.0937 141.313 23.9062 140.875C21.7187 140.219 20.4062 139.344 20.4062 138.469C20.4062 137.813 20.4062 131.688 19.5312 130.594C23.6875 130.594 28.0625 130.594 32.4375 130.594C36.5937 130.594 40.9687 130.594 45.125 130.594Z" fill="url(#paint4_linear_544_65887)"/>
<path fill-rule="evenodd" clip-rule="evenodd" d="M32.2187 108.719H61.5312C61.5312 122.719 50.1562 134.094 32.2187 134.094C14.2812 134.094 2.90625 122.719 2.90625 108.719H32.2187Z" fill="url(#paint5_radial_544_65887)"/>
<path opacity="0.1" fill-rule="evenodd" clip-rule="evenodd" d="M52.3438 108.719C52.125 119.438 44.6875 128.625 34.4062 132.344C48.1875 131.25 59.125 120.969 58.9063 108.719H52.3438Z" fill="url(#paint6_radial_544_65887)"/>
<path fill-rule="evenodd" clip-rule="evenodd" d="M63.5 100.406C63.2812 102.375 63.2812 104.344 63.0625 106.313C62.8438 108.719 59.3437 110.906 53.6562 112.438C48.1875 113.969 40.5313 115.063 32 115.063C23.6875 115.063 16.0312 114.188 10.3437 112.657C4.65625 111.125 1.15628 108.938 0.937527 106.531C0.718777 104.563 0.71875 102.594 0.5 100.625C10.5625 100.625 21.2813 100.625 31.7812 100.625C42.7187 100.407 53.4375 100.406 63.5 100.406Z" fill="url(#paint7_linear_544_65887)"/>
<path fill-rule="evenodd" clip-rule="evenodd" d="M58.9062 101.282C58.9062 102.813 58.6875 104.344 58.6875 105.657C58.4687 107.844 55.4062 109.813 50.1562 111.344C45.125 112.657 38.125 113.532 30.4687 113.532C22.8125 113.532 15.8125 112.657 10.7812 111.125C5.75 109.594 2.46873 107.625 2.24998 105.438C2.24998 103.907 2.03125 102.375 2.03125 101.063C11.2187 101.063 20.8437 101.282 30.4687 101.282C40.0937 101.063 49.7187 101.282 58.9062 101.282Z" fill="url(#paint8_radial_544_65887)"/>
<path fill-rule="evenodd" clip-rule="evenodd" d="M31.9999 91.4376C40.7499 91.4376 48.4062 92.5314 54.0937 94.2814C59.5624 96.0314 63.0624 98.2189 62.8437 100.844C62.6249 103.25 59.1249 105.656 53.6562 107.188C48.1874 108.719 40.5312 109.813 32.2187 109.813C30.6874 109.813 29.1562 109.813 27.6249 109.813C27.4062 109.813 26.9687 109.813 26.7499 109.813C26.3124 110.031 24.9999 112.219 24.1249 112.875C24.3437 112.219 24.5625 111.344 25 110.469C25 110.25 25.2187 110.031 25 109.813C24.7812 109.594 24.5624 109.594 24.3437 109.594C22.8124 109.375 21.2812 109.375 19.9687 109.156C18.6562 108.938 18.4374 110.031 17.7812 109.813C17.3437 109.813 17.7812 108.719 16.4687 108.5C14.2812 108.063 12.3125 107.625 10.7812 107.188C9.0312 106.75 7.49994 106.094 6.18744 105.438C5.53119 105.219 4.87494 106.313 4.43744 106.969C4.65619 106.531 4.87494 106.094 5.09369 105.438C5.09369 105.219 5.31244 105.219 5.09369 105C5.09369 104.781 4.87493 104.781 4.87493 104.781C2.90618 103.688 1.59368 102.156 1.59368 100.844C1.37493 98.2189 4.87493 96.0314 10.3437 94.2814C15.5937 92.5314 23.2499 91.4376 31.9999 91.4376Z" fill="url(#paint9_radial_544_65887)"/>
<g opacity="0.5">
<path fill-rule="evenodd" clip-rule="evenodd" d="M26.3127 176.969C26.7502 169.969 24.1252 157.5 22.8127 147.219C23.0314 156.406 22.5939 165.594 22.1564 173.031C21.7189 178.938 22.1564 179.375 23.2502 185.063C25.2189 194.688 26.7502 206.938 26.0939 218.531C28.0627 212.406 28.7189 202.563 28.0627 197.531C27.6252 193.375 26.0939 190.313 25.0002 186.375C24.5627 184.406 26.0939 180.469 26.3127 176.969Z" fill="url(#paint10_radial_544_65887)"/>
</g>
<path fill-rule="evenodd" clip-rule="evenodd" d="M32.2186 91.0002C40.9686 91.0002 48.8437 92.094 54.5312 93.844C60.2187 95.594 63.4999 97.7815 63.4999 100.406C63.2811 102.813 59.7811 105.219 54.0936 106.75C48.4061 108.281 40.7499 109.375 32.2186 109.375C23.6874 109.375 16.0311 108.5 10.3436 106.75C4.65615 105.219 1.15617 102.813 0.937424 100.406C0.718675 97.7815 4.21865 95.594 9.90615 93.844C15.5937 92.094 23.4686 91.0002 32.2186 91.0002Z" fill="url(#paint11_linear_544_65887)"/>
<path fill-rule="evenodd" clip-rule="evenodd" d="M32.2188 92.094C40.3125 92.094 47.5313 92.969 52.7813 94.5002C58.0313 96.0315 61.0938 98.0002 61.0938 100.188C60.8751 102.375 57.5938 104.344 52.3438 105.656C47.0938 106.969 40.0938 107.844 32.2188 107.844C24.3438 107.844 17.3438 106.969 12.0938 105.656C6.8438 104.344 3.56255 102.375 3.3438 100.188C3.12505 98.0002 6.4063 96.0315 11.6563 94.5002C16.9063 92.969 24.125 92.094 32.2188 92.094Z" fill="url(#paint12_radial_544_65887)"/>
<path fill-rule="evenodd" clip-rule="evenodd" d="M39.4375 208.25C40.5312 208.688 39.875 210.438 39.6563 211.094C39.4375 213.063 39.2187 216.344 39.4375 217C39.4375 217.219 39.2188 217.438 39.2188 217.657C37.6875 220.063 31.7812 222.032 28.5 221.375C27.4062 221.157 25.875 220.282 25.875 219.188C25.875 218.313 26.0938 217.875 26.0938 215.032C26.0938 214.813 26.0937 214.375 25.875 214.157C25.875 213.938 25.875 213.719 26.0938 213.719C26.3125 214.375 26.9687 214.813 27.8437 215.032C30.4687 215.907 35.9375 213.719 37.9062 211.969C39 210.438 39.4375 209.563 39.4375 208.25Z" fill="url(#paint13_linear_544_65887)"/>
<path fill-rule="evenodd" clip-rule="evenodd" d="M26.0936 210.875C26.0936 211.75 26.0936 212.844 26.3124 213.281C26.5311 213.937 27.1874 214.375 28.0624 214.594C30.6874 215.469 36.1561 213.281 38.1249 211.531C39.2186 210.656 39.4374 209.562 39.4374 208.25C39.6561 206.719 39.6561 205.844 39.6561 204.75C39.6561 204.312 39.8749 203.437 40.0936 202.781C40.3124 201.906 40.3124 201.25 39.8749 201.25C37.9061 204.969 32.8749 207.594 28.7186 207.812C27.8436 207.812 26.9686 207.594 26.5311 206.937C26.0936 207.156 25.8749 207.812 26.0936 208.469C26.0936 209.562 26.0936 209.562 26.0936 210.875Z" fill="url(#paint14_linear_544_65887)"/>
<path fill-rule="evenodd" clip-rule="evenodd" d="M25.875 205.406C25.875 206.062 25.875 206.5 26.0938 206.938C26.75 207.594 27.4063 207.813 28.2813 207.813C32.4375 207.594 37.4687 204.969 39.4375 201.25C39.6562 198.625 39.6562 196.438 39.875 193.813C40.0937 192.5 39.875 192.281 39.6563 192.062C36.5938 196.875 29.1563 200.594 25.4375 199.937C24.7813 200.375 25 201.031 25.2187 201.906C25.875 203.437 25.875 203.875 25.875 205.406Z" fill="url(#paint15_linear_544_65887)"/>
<path fill-rule="evenodd" clip-rule="evenodd" d="M26.3125 197.75C29.1562 197.969 31.7812 197.969 34.4062 197.094C36.5937 195.781 38.5625 194.031 39.6562 192.063C39.6562 191.188 39.875 190.531 39.875 189.875C39.875 189.219 40.0937 188.344 40.0937 187.688C40.0937 187.469 39.875 187.25 39.6562 187.25C38.3437 188.344 36.5937 189.219 34.625 189.875C30.6875 190.969 24.5625 191.188 24.125 190.094C23.4687 190.531 24.125 192.281 24.3437 193.156C24.5625 193.813 24.5625 194.688 24.5625 195.344C24.7812 197.313 24.5625 197.531 26.3125 197.75Z" fill="url(#paint16_linear_544_65887)"/>
<path opacity="0.2" fill-rule="evenodd" clip-rule="evenodd" d="M38.7812 190.094C38.7812 191.187 38.125 192.719 37.9063 193.156C37.0313 194.25 35.0625 196.219 33.75 196.656C31.5625 197.531 28.7187 197.531 26.3125 197.531H26.5313C29.375 197.75 32 197.75 34.625 196.875C36.8125 195.562 38.7812 193.812 39.875 191.844C39.875 190.969 40.0938 190.312 40.0938 189.656C40.0938 189 40.3125 188.125 40.3125 187.469C40.3125 187.25 40.0937 187.031 39.875 187.031C38.7812 188.125 37.4688 188.781 35.9375 189.219C37.4688 189 38.7812 188.125 38.7812 190.094Z" fill="url(#paint17_linear_544_65887)"/>
<path opacity="0.2" fill-rule="evenodd" clip-rule="evenodd" d="M38.3438 199.063C38.125 200.594 37.4688 201.907 36.8125 203C34.8438 205.844 30.9063 207.375 27.4063 206.938C26.5313 206.938 26.0937 206.5 25.6562 205.844C25.6562 206.282 25.6563 206.5 25.875 206.719C26.5313 207.375 27.1875 207.594 28.0625 207.594C32.2188 207.375 37.25 204.75 39.2188 201.032C39.4375 198.407 39.4375 196.219 39.6563 193.594C39.875 192.282 39.6563 192.063 39.4375 191.844C38.7813 193.157 37.6875 194.25 36.375 195.125C38.5625 194.469 39.2188 195.344 38.3438 199.063Z" fill="url(#paint18_linear_544_65887)"/>
<path opacity="0.2" fill-rule="evenodd" clip-rule="evenodd" d="M35.9375 205.188C36.5937 204.969 38.3437 203.875 38.5625 204.094C38.5625 204.313 38.5625 204.75 38.5625 205.406C38.5625 206.281 39 206.281 38.7812 207.594C38.5625 209.125 37.9062 210.656 36.8125 211.75C35.5 212.844 33.0937 214.156 30.9062 214.594C28.9375 215.031 26.75 214.813 26.0938 212.844C26.0938 213.063 26.0938 213.281 26.0938 213.5C26.3125 214.156 26.9687 214.594 27.8437 214.813C30.4687 215.688 35.9375 213.5 37.9062 211.75C39 210.875 39.2187 209.781 39.2187 208.469C39.4375 206.938 39.4375 206.063 39.4375 204.969C39.4375 204.531 39.6562 203.656 39.875 203C40.0937 202.125 40.0937 201.469 39.6562 201.469C38.7812 202.781 37.4687 204.094 35.9375 205.188Z" fill="url(#paint19_linear_544_65887)"/>
<path opacity="0.5" fill-rule="evenodd" clip-rule="evenodd" d="M26.3125 197.75C27.8437 197.969 29.375 197.969 30.6875 197.75C29.375 197.75 27.625 197.531 27.4062 196.438C27.1875 196 27.625 195.125 27.625 194.469C27.625 193.813 26.75 192.719 28.0625 192.063C30.25 190.969 32 190.969 33.9687 190.094C30.0312 190.969 24.5625 191.188 24.125 190.094C23.4687 190.531 24.125 192.281 24.3437 193.156C24.5625 193.813 24.5625 194.688 24.5625 195.344C24.7812 197.313 24.5625 197.531 26.3125 197.75Z" fill="url(#paint20_linear_544_65887)"/>
<path opacity="0.5" fill-rule="evenodd" clip-rule="evenodd" d="M33.0938 197.969C30.4688 199.5 27.625 200.156 25.6562 199.937C25 200.375 25.2188 201.031 25.4375 201.906C25.875 203.437 25.875 203.875 25.875 205.187C25.875 205.844 25.875 206.281 26.0938 206.719C26.75 207.375 27.4063 207.594 28.2813 207.594C28.9375 207.594 29.375 207.594 30.0312 207.375C28.5 207.156 28.2812 206.062 28.9375 205.187C29.5937 204.094 28.9375 203.437 28.7188 202.562C27.8438 200.375 31.125 199.5 33.0938 197.969Z" fill="url(#paint21_linear_544_65887)"/>
<path opacity="0.5" fill-rule="evenodd" clip-rule="evenodd" d="M30.2499 207.594C29.5936 207.813 28.9374 207.813 28.4999 207.813C27.6249 207.813 26.7499 207.594 26.3124 206.938C25.8749 207.157 25.6561 207.813 25.8749 208.469C26.3124 209.781 26.3124 209.782 26.3124 211.094C26.3124 211.969 26.3124 213.063 26.5311 213.5C26.7499 214.157 27.4061 214.594 28.2811 214.813C29.3749 215.25 31.3436 215.032 33.0936 214.375C31.9999 214.594 29.8124 215.031 29.3749 213.938C28.9374 213.281 29.8124 212.406 29.5936 211.531C29.5936 210.875 28.7186 209.781 30.0311 208.688C31.5624 207.594 33.7499 207.375 35.9374 205.406C33.9686 206.281 31.9999 207.156 30.2499 207.594Z" fill="url(#paint22_linear_544_65887)"/>
<path opacity="0.5" fill-rule="evenodd" clip-rule="evenodd" d="M32.6563 214.157C30.9063 214.594 29.1562 215.032 27.8437 214.594C26.9687 214.375 26.5313 213.719 26.0938 213.282C25.875 213.282 25.875 213.5 25.875 213.719C25.875 213.938 25.875 214.375 26.0938 214.594C26.0938 217.438 25.875 217.875 25.875 218.75C25.875 219.844 27.4062 220.719 28.5 220.938C29.1562 221.157 30.0313 221.157 30.9063 220.938C29.5938 220.938 28.7188 220.5 29.375 218.969C29.375 218.75 29.5938 218.313 29.375 217.438C29.1563 216.344 29.5937 216.125 30.6875 215.907C34.625 214.594 35.7187 214.375 37.6875 211.532C36.375 212.844 34.625 213.719 32.6563 214.157Z" fill="url(#paint23_linear_544_65887)"/>
<path fill-rule="evenodd" clip-rule="evenodd" d="M25.6564 200.156C25.0001 201.25 26.3126 201.25 27.1876 201.25C30.2501 200.813 33.0939 199.281 35.2814 197.094C33.5314 198.406 27.1876 201.25 25.6564 200.156Z" fill="url(#paint24_linear_544_65887)"/>
<path fill-rule="evenodd" clip-rule="evenodd" d="M26.0939 207.156C25.4376 208.031 26.7501 208.469 27.6251 208.469C30.6876 208.469 33.5314 207.156 35.7189 205.625C32.0001 207.812 27.1876 208.687 26.0939 207.156Z" fill="url(#paint25_linear_544_65887)"/>
<path fill-rule="evenodd" clip-rule="evenodd" d="M24.3438 190.094C26.3125 191.625 33.5313 190.094 35.9375 189.657C33.75 190.75 25.2187 192.719 24.3438 190.094Z" fill="url(#paint26_linear_544_65887)"/>
<path opacity="0.2" fill-rule="evenodd" clip-rule="evenodd" d="M36.375 212.625C37.4687 212.188 37.9062 211.75 38.7812 211.313C39.4375 210.875 39.4375 211.313 39.4375 211.969C39.4375 212.625 39 213.282 39 213.938C38.7812 215.469 39 215.25 39.2188 216.563C39.4375 217.657 38.5625 218.532 37.6875 219.188C38.3437 218.75 39 218.313 39.2188 217.657C39.4375 217.438 39.6562 217.219 39.4375 217C39.2187 216.344 39.4375 213.063 39.6562 211.094C39.6562 210.657 40.5312 208.688 39.4375 208.25C39.4375 209.563 39 210.438 38.125 211.532C37.4688 211.969 37.0312 212.188 36.375 212.625Z" fill="url(#paint27_linear_544_65887)"/>
<path fill-rule="evenodd" clip-rule="evenodd" d="M26.3124 213.719C25.6562 214.594 27.1874 215.25 27.8437 215.469C30.9062 215.906 33.7499 214.812 35.9374 213.281C32.6562 215.031 28.0624 215.906 26.3124 213.719Z" fill="url(#paint28_linear_544_65887)"/>
<path opacity="0.7" fill-rule="evenodd" clip-rule="evenodd" d="M39.4375 208.25C40.5312 208.688 39.875 210.438 39.6563 211.094C39.4375 213.063 39.2187 216.344 39.4375 217C39.4375 217.219 39.2188 217.438 39.2188 217.657C37.6875 220.063 31.7812 222.032 28.5 221.375C27.4062 221.157 25.875 220.282 25.875 219.188C25.875 218.313 26.0938 217.875 26.0938 215.032C26.0938 214.813 26.0937 214.375 25.875 214.157C25.875 213.938 25.875 213.719 26.0938 213.719C26.3125 214.375 26.9687 214.813 27.8437 215.032C30.4687 215.907 35.9375 213.719 37.9062 211.969C39 210.438 39.4375 209.563 39.4375 208.25Z" fill="url(#paint29_radial_544_65887)"/>
<path opacity="0.7" fill-rule="evenodd" clip-rule="evenodd" d="M26.0936 210.875C26.0936 211.75 26.0936 212.844 26.3124 213.281C26.5311 213.937 27.1874 214.375 28.0624 214.594C30.6874 215.469 36.1561 213.281 38.1249 211.531C39.2186 210.656 39.4374 209.562 39.4374 208.25C39.6561 206.719 39.6561 205.844 39.6561 204.75C39.6561 204.312 39.8749 203.437 40.0936 202.781C40.3124 201.906 40.3124 201.25 39.8749 201.25C37.9061 204.969 32.8749 207.594 28.7186 207.812C27.8436 207.812 26.9686 207.594 26.5311 206.937C26.0936 207.156 25.8749 207.812 26.0936 208.469C26.0936 209.562 26.0936 209.562 26.0936 210.875Z" fill="url(#paint30_radial_544_65887)"/>
<path opacity="0.7" fill-rule="evenodd" clip-rule="evenodd" d="M25.875 205.406C25.875 206.062 25.875 206.5 26.0938 206.938C26.75 207.594 27.4063 207.813 28.2813 207.813C32.4375 207.594 37.4687 204.969 39.4375 201.25C39.6562 198.625 39.6562 196.438 39.875 193.813C40.0937 192.5 39.875 192.281 39.6563 192.062C36.5938 196.875 29.1563 200.594 25.4375 199.937C24.7813 200.375 25 201.031 25.2187 201.906C25.875 203.437 25.875 203.875 25.875 205.406Z" fill="url(#paint31_radial_544_65887)"/>
<path opacity="0.7" fill-rule="evenodd" clip-rule="evenodd" d="M26.3125 197.75C29.1562 197.969 31.7812 197.969 34.4062 197.094C36.5937 195.781 38.5625 194.031 39.6562 192.063C39.6562 191.188 39.875 190.531 39.875 189.875C39.875 189.219 40.0937 188.344 40.0937 187.688C40.0937 187.469 39.875 187.25 39.6562 187.25C38.3437 188.344 36.5937 189.219 34.625 189.875C30.6875 190.969 24.5625 191.188 24.125 190.094C23.4687 190.531 24.125 192.281 24.3437 193.156C24.5625 193.813 24.5625 194.688 24.5625 195.344C24.7812 197.313 24.5625 197.531 26.3125 197.75Z" fill="url(#paint32_radial_544_65887)"/>
<path fill-rule="evenodd" clip-rule="evenodd" d="M13.1872 61.9062C11.4372 59.7187 8.81222 54.9062 14.281 47.6875C14.7185 56.6562 25.8747 57.75 26.3122 47.25C26.3122 44.8437 25.8747 41.5625 23.906 37.625C19.3122 27.7812 25.2185 24.7187 32.8747 16.1875C36.8122 11.8125 37.4685 3.71875 33.9685 0C42.7185 3.28125 45.3435 10.9375 45.1247 17.5C44.906 21.2187 43.8122 25.5937 41.8435 30.625C40.531 34.125 40.531 36.0937 40.9685 37.625C42.9372 45.7187 54.531 49.4375 46.2185 60.8125C44.4685 63 42.9372 64.75 41.8435 66.5C38.9997 70.4375 40.0935 74.8125 42.9372 76.7812C48.1872 80.2812 54.531 74.375 52.3435 66.9375C62.406 78.3125 61.9684 94.9375 51.906 103.906C44.2497 110.687 40.3122 105.656 34.6247 105.656C28.4997 105.656 23.031 110.25 16.6872 105.219C9.46848 99.5312 8.15598 91.2187 10.1247 83.3437C12.7497 72.4062 18.4372 68.9062 13.1872 61.9062Z" fill="url(#paint33_linear_544_65887)"/>
<path fill-rule="evenodd" clip-rule="evenodd" d="M13.8436 93.4065C14.2811 95.8127 15.5936 98.0002 17.9998 99.7502C21.2811 101.938 25.4373 102.156 28.2811 99.5315C29.5936 98.219 30.2498 97.344 34.8436 98.219C38.1248 98.8752 39.8748 102.813 45.1248 100.844C54.7498 97.1252 56.2811 87.2815 53.6561 80.719C51.2498 86.6252 46.4373 88.3752 41.6248 85.969C35.4998 82.9065 31.7811 74.3752 35.7186 67.594C43.3748 54.2502 44.9061 58.4065 35.7186 42.219C30.6873 33.469 31.1248 30.844 33.9686 24.2815C27.8436 27.5627 26.0936 31.9377 26.9686 38.0627C27.1873 40.469 28.9373 44.1877 30.2498 47.9065C31.7811 52.2815 31.7811 57.7502 29.1561 60.8127C25.2186 65.1877 17.5623 64.094 16.0311 57.094C13.1873 63.4377 22.5936 67.8127 20.8436 72.4065C18.6561 78.5315 12.5311 86.1877 13.8436 93.4065Z" fill="url(#paint34_linear_544_65887)"/>
<path fill-rule="evenodd" clip-rule="evenodd" d="M5.31234 40.6877C5.96859 36.969 9.24983 33.2502 12.3123 30.844C11.2186 37.844 16.0311 37.844 13.6248 43.7502C11.6561 40.6877 5.74982 44.1877 8.81232 49.8752C7.93732 50.094 4.21859 46.3752 5.31234 40.6877Z" fill="#FD5F04"/>
<defs>
<radialGradient id="paint0_radial_544_65887" cx="0" cy="0" r="1" gradientUnits="userSpaceOnUse" gradientTransform="translate(-21.704 188.23) scale(71.7082 71.7082)">
<stop stop-color="#C27D48"/>
<stop offset="1" stop-color="#663812"/>
</radialGradient>
<radialGradient id="paint1_radial_544_65887" cx="0" cy="0" r="1" gradientUnits="userSpaceOnUse" gradientTransform="translate(-67.143 180.231) scale(114.855 114.855)">
<stop offset="0.658" stop-color="white"/>
<stop offset="0.6676" stop-color="#F2F2F2"/>
<stop offset="0.6914" stop-color="#D8D8D7"/>
<stop offset="0.7188" stop-color="#C2C2C1"/>
<stop offset="0.7508" stop-color="#B1B1B0"/>
<stop offset="0.7904" stop-color="#A6A6A5"/>
<stop offset="0.8459" stop-color="#9F9F9E"/>
<stop offset="1" stop-color="#9D9D9C"/>
</radialGradient>
<linearGradient id="paint2_linear_544_65887" x1="25.4633" y1="205.599" x2="31.5087" y2="205.599" gradientUnits="userSpaceOnUse">
<stop stop-color="#8A705D"/>
<stop offset="1"/>
</linearGradient>
<linearGradient id="paint3_linear_544_65887" x1="35.2305" y1="177.435" x2="16.9249" y2="159.13" gradientUnits="userSpaceOnUse">
<stop/>
<stop offset="1" stop-color="#8A705D"/>
</linearGradient>
<linearGradient id="paint4_linear_544_65887" x1="19.3657" y1="136.197" x2="45.144" y2="136.197" gradientUnits="userSpaceOnUse">
<stop stop-color="#4A4A54"/>
<stop offset="0.29" stop-color="#6C6F7D"/>
<stop offset="0.5045" stop-color="#5D5F6B"/>
<stop offset="0.7893" stop-color="#4F505A"/>
<stop offset="1" stop-color="#4A4A54"/>
</linearGradient>
<radialGradient id="paint5_radial_544_65887" cx="0" cy="0" r="1" gradientUnits="userSpaceOnUse" gradientTransform="translate(24.6461 102.003) scale(48.4684 48.4684)">
<stop stop-color="#4F5354"/>
<stop offset="0.6134" stop-color="#4A4A54"/>
<stop offset="0.8412" stop-color="#444452"/>
<stop offset="1" stop-color="#3D3C4F"/>
</radialGradient>
<radialGradient id="paint6_radial_544_65887" cx="0" cy="0" r="1" gradientUnits="userSpaceOnUse" gradientTransform="translate(35.379 108.93) scale(33.268 33.2679)">
<stop/>
<stop offset="0.2369" stop-color="#020201"/>
<stop offset="0.3222" stop-color="#090707"/>
<stop offset="0.3831" stop-color="#141210"/>
<stop offset="0.4323" stop-color="#25201D"/>
<stop offset="0.4744" stop-color="#3B332E"/>
<stop offset="0.5117" stop-color="#574A43"/>
<stop offset="0.5455" stop-color="#77665C"/>
<stop offset="0.5765" stop-color="#9D8679"/>
<stop offset="0.6054" stop-color="#C8AB9A"/>
<stop offset="0.631" stop-color="#F6D2BD"/>
<stop offset="0.6357" stop-color="#FFDAC4"/>
<stop offset="0.6384" stop-color="#F6D2BD"/>
<stop offset="0.6531" stop-color="#C8AB9A"/>
<stop offset="0.6696" stop-color="#9D8679"/>
<stop offset="0.6874" stop-color="#77665C"/>
<stop offset="0.7067" stop-color="#574A43"/>
<stop offset="0.7281" stop-color="#3B332E"/>
<stop offset="0.7523" stop-color="#25201D"/>
<stop offset="0.7805" stop-color="#141210"/>
<stop offset="0.8153" stop-color="#090707"/>
<stop offset="0.8642" stop-color="#020201"/>
<stop offset="1"/>
</radialGradient>
<linearGradient id="paint7_linear_544_65887" x1="0.986062" y1="107.597" x2="63.5234" y2="107.597" gradientUnits="userSpaceOnUse">
<stop stop-color="#4A4A54"/>
<stop offset="0.29" stop-color="#6C6F7D"/>
<stop offset="0.5045" stop-color="#5D5F6B"/>
<stop offset="0.7893" stop-color="#4F505A"/>
<stop offset="1" stop-color="#4A4A54"/>
</linearGradient>
<radialGradient id="paint8_radial_544_65887" cx="0" cy="0" r="1" gradientUnits="userSpaceOnUse" gradientTransform="translate(26.3779 90.5084) scale(33.0455 33.0454)">
<stop stop-color="#E66719"/>
<stop offset="1"/>
</radialGradient>
<radialGradient id="paint9_radial_544_65887" cx="0" cy="0" r="1" gradientUnits="userSpaceOnUse" gradientTransform="translate(18.8885 106.049) scale(37.7328 37.7328)">
<stop stop-color="#B07B13"/>
<stop offset="1"/>
</radialGradient>
<radialGradient id="paint10_radial_544_65887" cx="0" cy="0" r="1" gradientUnits="userSpaceOnUse" gradientTransform="translate(-0.804211 175.127) scale(62.6001 62.6001)">
<stop stop-color="#8A705D"/>
<stop offset="1"/>
</radialGradient>
<linearGradient id="paint11_linear_544_65887" x1="0.980956" y1="100.141" x2="63.5281" y2="100.141" gradientUnits="userSpaceOnUse">
<stop stop-color="#B86930"/>
<stop offset="1" stop-color="#4F463B"/>
</linearGradient>
<radialGradient id="paint12_radial_544_65887" cx="0" cy="0" r="1" gradientUnits="userSpaceOnUse" gradientTransform="translate(32.7735 118.381) scale(33.717 33.717)">
<stop stop-color="#FFCE1F"/>
<stop offset="0.3866" stop-color="#FFAA00"/>
<stop offset="0.4949" stop-color="#FDA300"/>
<stop offset="0.656" stop-color="#F78F00"/>
<stop offset="0.849" stop-color="#EC6E00"/>
<stop offset="1" stop-color="#E34F00"/>
</radialGradient>
<linearGradient id="paint13_linear_544_65887" x1="25.8647" y1="214.764" x2="39.9551" y2="214.764" gradientUnits="userSpaceOnUse">
<stop stop-color="#331316"/>
<stop offset="0.0278532" stop-color="#411A17"/>
<stop offset="0.0823801" stop-color="#572519"/>
<stop offset="0.1347" stop-color="#642C1B"/>
<stop offset="0.1822" stop-color="#692E1B"/>
<stop offset="0.3714" stop-color="#642C1C"/>
<stop offset="0.6052" stop-color="#55261E"/>
<stop offset="0.8216" stop-color="#401D22"/>
</linearGradient>
<linearGradient id="paint14_linear_544_65887" x1="25.6349" y1="208.011" x2="40.0728" y2="208.011" gradientUnits="userSpaceOnUse">
<stop stop-color="#331316"/>
<stop offset="0.0278532" stop-color="#411A17"/>
<stop offset="0.0823801" stop-color="#572519"/>
<stop offset="0.1347" stop-color="#642C1B"/>
<stop offset="0.1822" stop-color="#692E1B"/>
<stop offset="0.3714" stop-color="#642C1C"/>
<stop offset="0.6052" stop-color="#55261E"/>
<stop offset="0.8216" stop-color="#401D22"/>
</linearGradient>
<linearGradient id="paint15_linear_544_65887" x1="25.2076" y1="199.875" x2="40.1727" y2="199.875" gradientUnits="userSpaceOnUse">
<stop stop-color="#331316"/>
<stop offset="0.0278532" stop-color="#411A17"/>
<stop offset="0.0823801" stop-color="#572519"/>
<stop offset="0.1347" stop-color="#642C1B"/>
<stop offset="0.1822" stop-color="#692E1B"/>
<stop offset="0.3714" stop-color="#642C1C"/>
<stop offset="0.6052" stop-color="#55261E"/>
<stop offset="0.8216" stop-color="#401D22"/>
</linearGradient>
<linearGradient id="paint16_linear_544_65887" x1="23.9474" y1="192.549" x2="40.094" y2="192.549" gradientUnits="userSpaceOnUse">
<stop stop-color="#331316"/>
<stop offset="0.0278532" stop-color="#411A17"/>
<stop offset="0.0823801" stop-color="#572519"/>
<stop offset="0.1347" stop-color="#642C1B"/>
<stop offset="0.1822" stop-color="#692E1B"/>
<stop offset="0.3714" stop-color="#642C1C"/>
<stop offset="0.6052" stop-color="#55261E"/>
<stop offset="0.8216" stop-color="#401D22"/>
</linearGradient>
<linearGradient id="paint17_linear_544_65887" x1="26.1854" y1="192.549" x2="40.094" y2="192.549" gradientUnits="userSpaceOnUse">
<stop stop-color="#DED8D1"/>
<stop offset="0.1866" stop-color="#C9C2BC"/>
<stop offset="0.5307" stop-color="#A8A09A"/>
<stop offset="0.8142" stop-color="#938B85"/>
<stop offset="1" stop-color="#8C837D"/>
</linearGradient>
<linearGradient id="paint18_linear_544_65887" x1="25.9194" y1="199.875" x2="40.1727" y2="199.875" gradientUnits="userSpaceOnUse">
<stop stop-color="#DED8D1"/>
<stop offset="0.1866" stop-color="#C9C2BC"/>
<stop offset="0.5307" stop-color="#A8A09A"/>
<stop offset="0.8142" stop-color="#938B85"/>
<stop offset="1" stop-color="#8C837D"/>
</linearGradient>
<linearGradient id="paint19_linear_544_65887" x1="26.2403" y1="208.011" x2="40.0729" y2="208.011" gradientUnits="userSpaceOnUse">
<stop stop-color="#DED8D1"/>
<stop offset="0.1866" stop-color="#C9C2BC"/>
<stop offset="0.5307" stop-color="#A8A09A"/>
<stop offset="0.8142" stop-color="#938B85"/>
<stop offset="1" stop-color="#8C837D"/>
</linearGradient>
<linearGradient id="paint20_linear_544_65887" x1="23.9474" y1="193.893" x2="34.0219" y2="193.893" gradientUnits="userSpaceOnUse">
<stop stop-color="#4A2C18"/>
<stop offset="1"/>
</linearGradient>
<linearGradient id="paint21_linear_544_65887" x1="25.2076" y1="202.872" x2="33.0518" y2="202.872" gradientUnits="userSpaceOnUse">
<stop stop-color="#4A2C18"/>
<stop offset="1"/>
</linearGradient>
<linearGradient id="paint22_linear_544_65887" x1="25.6349" y1="210.068" x2="35.6377" y2="210.068" gradientUnits="userSpaceOnUse">
<stop stop-color="#4A2C18"/>
<stop offset="1"/>
</linearGradient>
<linearGradient id="paint23_linear_544_65887" x1="25.8647" y1="216.558" x2="37.5556" y2="216.558" gradientUnits="userSpaceOnUse">
<stop stop-color="#4A2C18"/>
<stop offset="1"/>
</linearGradient>
<linearGradient id="paint24_linear_544_65887" x1="25.4271" y1="199.118" x2="35.2127" y2="199.118" gradientUnits="userSpaceOnUse">
<stop stop-color="#42362E"/>
<stop offset="1"/>
</linearGradient>
<linearGradient id="paint25_linear_544_65887" x1="25.9329" y1="207.114" x2="35.7182" y2="207.114" gradientUnits="userSpaceOnUse">
<stop stop-color="#42362E"/>
<stop offset="1"/>
</linearGradient>
<linearGradient id="paint26_linear_544_65887" x1="24.2366" y1="190.567" x2="35.8288" y2="190.567" gradientUnits="userSpaceOnUse">
<stop stop-color="#42362E"/>
<stop offset="1"/>
</linearGradient>
<linearGradient id="paint27_linear_544_65887" x1="36.3643" y1="213.645" x2="39.9551" y2="213.645" gradientUnits="userSpaceOnUse">
<stop stop-color="#DED8D1"/>
<stop offset="0.1866" stop-color="#C9C2BC"/>
<stop offset="0.5307" stop-color="#A8A09A"/>
<stop offset="0.8142" stop-color="#938B85"/>
<stop offset="1" stop-color="#8C837D"/>
</linearGradient>
<linearGradient id="paint28_linear_544_65887" x1="26.16" y1="214.34" x2="35.96" y2="214.34" gradientUnits="userSpaceOnUse">
<stop stop-color="#42362E"/>
<stop offset="1"/>
</linearGradient>
<radialGradient id="paint29_radial_544_65887" cx="0" cy="0" r="1" gradientUnits="userSpaceOnUse" gradientTransform="translate(28.3484 207.136) scale(17.5411 17.5411)">
<stop offset="0.7063" stop-color="white"/>
<stop offset="0.7097" stop-color="#FDFDFD"/>
<stop offset="0.7519" stop-color="#EBE6E1"/>
<stop offset="0.7975" stop-color="#DED5CC"/>
<stop offset="0.8485" stop-color="#D4C9BD"/>
<stop offset="0.9086" stop-color="#CEC1B5"/>
<stop offset="1" stop-color="#CCBFB2"/>
</radialGradient>
<radialGradient id="paint30_radial_544_65887" cx="0" cy="0" r="1" gradientUnits="userSpaceOnUse" gradientTransform="translate(26.5725 200.458) scale(17.8629 17.8629)">
<stop offset="0.6357" stop-color="white"/>
<stop offset="0.6398" stop-color="#FDFDFD"/>
<stop offset="0.6922" stop-color="#EBE6E1"/>
<stop offset="0.7488" stop-color="#DED5CC"/>
<stop offset="0.8121" stop-color="#D4C9BD"/>
<stop offset="0.8866" stop-color="#CEC1B5"/>
<stop offset="1" stop-color="#CCBFB2"/>
</radialGradient>
<radialGradient id="paint31_radial_544_65887" cx="0" cy="0" r="1" gradientUnits="userSpaceOnUse" gradientTransform="translate(27.0818 193.294) scale(17.6934 17.6934)">
<stop offset="0.6357" stop-color="white"/>
<stop offset="0.6398" stop-color="#FDFDFD"/>
<stop offset="0.6922" stop-color="#EBE6E1"/>
<stop offset="0.7488" stop-color="#DED5CC"/>
<stop offset="0.8121" stop-color="#D4C9BD"/>
<stop offset="0.8866" stop-color="#CEC1B5"/>
<stop offset="1" stop-color="#CCBFB2"/>
</radialGradient>
<radialGradient id="paint32_radial_544_65887" cx="0" cy="0" r="1" gradientUnits="userSpaceOnUse" gradientTransform="translate(29.2914 187.053) scale(13.092 13.092)">
<stop offset="0.6357" stop-color="white"/>
<stop offset="0.6398" stop-color="#FDFDFD"/>
<stop offset="0.6922" stop-color="#EBE6E1"/>
<stop offset="0.7488" stop-color="#DED5CC"/>
<stop offset="0.8121" stop-color="#D4C9BD"/>
<stop offset="0.8866" stop-color="#CEC1B5"/>
<stop offset="1" stop-color="#CCBFB2"/>
</radialGradient>
<linearGradient id="paint33_linear_544_65887" x1="34.2281" y1="107.181" x2="34.2281" y2="0.0295323" gradientUnits="userSpaceOnUse">
<stop offset="1.2e-07" stop-color="#FFBB00"/>
<stop offset="0.5316" stop-color="#FF5319"/>
<stop offset="1" stop-color="#FF4000"/>
</linearGradient>
<linearGradient id="paint34_linear_544_65887" x1="34.0175" y1="101.164" x2="34.0175" y2="24.3027" gradientUnits="userSpaceOnUse">
<stop offset="1.2e-07" stop-color="#FFBB00"/>
<stop offset="0.5316" stop-color="#FF5319"/>
<stop offset="1" stop-color="#FF4000"/>
</linearGradient>
</defs>
</svg>
