<?xml version="1.0" encoding="UTF-8"?> <svg xmlns="http://www.w3.org/2000/svg" viewBox="0 0 87.82 103.59"><style>.G{mix-blend-mode:screen}.E{mix-blend-mode:multiply}</style><path fill="#666977" d="m52.17 98.09.17 3.26s-3 1.93-2.91 1.63c.08-.31.31-3.12.31-3.12l2.44-1.77Z"></path><path fill="#e4ac91" d="M64.2 46.93c-1.26-.18-2.38-1.78-2.38-1.78l.77-1.76 1.18-.33 2.4 1.25c.13.04.35.53.35.53l-2.32 2.08z"></path><path fill="#6d808c" d="m65.976 43.057 1.241.842-5.535 8.16-1.241-.842z"></path><path fill="#c2d6d7" d="m86.36 17.83 1.46-5.58-4.72 3.37-17.47 27.3 1.84 1.25 18.89-26.34z"></path><path fill="#b6c9c9" d="m86.84 13.7-2.92 2.91-17.55 26.73.48.33L85.17 17.5l1.67-3.8z" style="mix-blend-mode:screen"></path><path fill="#6d808c" d="m71.35 45.54-1.45-.72-3.09-1.54-2.89-2.51-.97-.84-.68.91c.05.08.11.15.18.21l.21.14 7.29 4.94.27.18c.18.08.38.1.57.06l.58-.84Z"></path><path fill="#8095a5" d="M65.97 42.32c-.36.52-.24 1.23.28 1.6.52.36 1.23.24 1.6-.28.36-.52.24-1.23-.28-1.6-.52-.36-1.23-.24-1.6.28Z"></path><path fill="#6d808c" d="m63.84 40.88.06-.11a.95.95 0 0 0-.32-1.21.94.94 0 0 0-1.31.26c-.21.31-.21.71-.02 1.01a.91.91 0 0 0 .18.21.7.7 0 0 0 .1.08l.11.06c.42.21.94.08 1.2-.32zm7.52 5.1c.29-.43.18-1.02-.25-1.31-.39-.26-.91-.19-1.22.14-.03.03-.06.07-.09.11a.93.93 0 0 0 .13 1.2c.04.04.08.08.13.11a.64.64 0 0 0 .14.08.93.93 0 0 0 .57.06.94.94 0 0 0 .6-.4z"></path><g fill="#f8c5a5"><path d="M66.48 43.84s1.75 1.55 1.43 1.9-.84-.02-.84-.02.21 1.03-.03 1.2-.79-.1-.79-.1-.05.67-.26.84c-.2.17-.78-.27-.78-.27s.07.41-.22.66-1.62-1.31-1.33-1.6c.3-.29.98.14.98.14s-.64-.98-.22-1.26.88.3.88.3-.31-.59 0-.86c.32-.27.61.03.61.03s-.33-1.16.56-.94z"></path><path d="M63.76 43.06c.97-.2 2.77.44 2.77.44l.44 2.81s-1.64-.05-1.21-1.73c-.54-.21-2.22.11-2-1.52Z"></path></g><path fill="#666977" d="m46.4 7.77.78 2.99-9.54-1.44 1.22-1 7.54-.55zM1.66 101.35l2.41.81L6.23 99l-2.65.02 14.41-17.51 4.33-10.59 3.99-9.77 5.88 1.36a102.1 102.1 0 0 0 5.64 9.42c1.23 2.35 2.39 4.86 3.13 7.14-.44 8.28 8.77 20.77 8.77 20.77l.89-1.22-4.66-21.72c-.24-.94-1.36-4.05-2.35-6.75l-1.64-4.39-21.38-10.88-1.02-.52s-.1.55-.3 1.49c-.51 2.53-1.66 7.93-3.15 13.25-.9 3.19-1.91 6.36-2.99 8.88C8.36 79.61 2.48 99.02 2.48 99.02l-.81 2.31z"></path><g fill="#393d4b"><path d="M16.11 69.11a64.26 64.26 0 0 0 6.22 1.81l3.99-9.77 5.88 1.36a102.1 102.1 0 0 0 5.64 9.42c2.01-.33 3.96-.9 5.76-1.77l-1.64-4.39-21.38-10.88-1.32.97c-.51 2.53-1.66 7.93-3.15 13.25z" opacity=".3" style="mix-blend-mode:multiply"></path><path d="M40.08 64.69c-6.43 3.39-19.19-1.63-19.19-1.63l3.88-11.68 11.43.68 3.88 12.63Z"></path></g><g fill="#b6c9c9"><path d="m25.57 54.67.64-1.39-1.47 14.29c1.57.41 3.32.77 5.24 1.05l.35.05c2.11.29 3.91.36 5.44.29-.03-4.82-.47-14.87-.47-14.87l4.13 14.39c2.92-.7 3.97-1.9 3.97-1.9l-5.77-13.99-17.19-3.12-5.99 13.71s1.96 1.48 5.86 2.98l5.26-11.5z"></path><path d="M24.74 67.57c1.57.41 3.32.77 5.24 1.05l.35.05 1.87-16.48-6.1-1.08-.53 3.56.64-1.39-1.47 14.29z" opacity=".3" style="mix-blend-mode:multiply"></path></g><g fill="#666977"><path d="m40.3 18.08.22 3 2.11 1.22s.22 3.22-3.55 3.11-7.66-3.55-7.66-5.33c.22-.33 1.78-.22 1.78-.22l2-3.44 5.1 1.66zm3.11 16.2c1 3.66 6.43 12.87 7.21 13.2.08.03.17.06.26.08.82.15 2.07-.3 2.07-.3l.78-3.99-2.59-7.33-1.96-5.54-1.52-3.79-.7-1.76-3.33-.56s-.52 2.71-.6 5.61c-.04 1.53.04 3.11.38 4.37z"></path><path d="M43.41 34.28c1 3.66 6.43 12.87 7.21 13.2.08.03.17.06.26.08l-.15-2.19s-6.55-10.98-3.77-13.09c.79-.6 2.88 2.2 4.18 3.66l-1.96-5.54-1.52-3.79-4.03-2.31-.6 5.61c-.04 1.53.04 3.11.38 4.37Z" opacity=".3" style="mix-blend-mode:multiply"></path></g><g fill="#b6c9c9"><path d="M28.54 8.32c.33 1.11 4.33 4.33 3.99 5.77-.33 1.44-2.22 2.55-2.22 2.55l1.55.63c2.16.81 6.2 2.11 9.66 2.04a17.89 17.89 0 0 0 2.18-1.74c.82-.76 1.15-1.26 1.15-1.26l-1.48-1.37-6.29-5.84 9.1-2.88-.79-.73C40.9 1.48 36.66 0 35.09 0c-.68 0-2.05.87-3.38 2.12a15.85 15.85 0 0 0-1.06 1.1c-1.45 1.65-2.55 3.62-2.11 5.11z"></path><path d="m36.89 11.19 6.82 6.37c.82-.76 1.15-1.26 1.15-1.26l-1.48-1.37-6.48-3.74Z" class="E" opacity=".5"></path><path d="M19.55 49.37s5.66 3.1 13.35 3.08c1.51 0 3.1-.13 4.74-.42 4.06-5.07 5.91-11.23 6.69-16.7.43-3 .54-5.78.51-8.07-.05-3.6-.43-5.96-.43-5.96l-2.05-.46-.95-.21s-.43 1.66-1.7 2.34c-.38.21-.84.32-1.38.28-.25-.02-.52-.08-.81-.17-2.9-.97-4.66-3.91-4.76-4.09l-5.88.33-3.11 12.78-4.21 17.28Z"></path><path d="M19.55 49.37s5.66 3.1 13.35 3.08c1.51 0 3.1-.13 4.74-.42 4.06-5.07 5.91-11.23 6.69-16.7-4.96 7.74-17.18-.69-20.57-3.25l-4.21 17.28Z" opacity=".4" style="mix-blend-mode:multiply"></path><path d="M42.36 20.85c.29 2.86 1.53 5.1 2.48 6.42-.05-3.6-.43-5.96-.43-5.96l-2.05-.46ZM19.55 49.37s5.66 3.1 13.35 3.08c2.24-2.59 6.19-17.59 5.44-29.2-.25-.02-.52-.08-.81-.17-2.9-.97-4.66-3.91-4.76-4.09l-5.88.33-7.32 30.06Z" class="E" opacity=".5"></path></g><path fill="#666977" d="M27.1 25.74c-.33.22-3.11 6.77-3.11 6.77l-6.77-3.44 3.22-5.21 6.66 1.89Z"></path><path fill="#c1d6d7" d="M6.13 63.9s17.86-1.44 32.73-18.53c-2.44-5.45-6.49-9.62-10.9-12.66-5.63-3.88-11.84-5.92-15.95-6.42C3.14 40.6 6.13 63.9 6.13 63.9Z"></path><path fill="#b6c9c9" d="M8.83 60.41c5.2-1.16 16.42-4.78 26.44-15.52-4.92-8.99-15.03-13.88-21.7-15.29C8.2 39.83 8.42 54.16 8.82 60.41Z"></path><path fill="#fff" d="m15.04 39.92 4.24 4.15 2.7-5.27 2.64 1.76-4.15 4.24 5.27 2.7-1.76 2.64-4.23-4.15-2.7 5.27-2.65-1.76 4.16-4.24-5.28-2.7 1.76-2.64z" opacity=".7"></path><g fill="#b6c9c9"><path d="M49.26 101.24s1.75-2.14 2.33-2.34c.04-.02.08-.02.12-.02.54-.04 1.05.84 1.05.84 0-.31-4.24-23.01-5.91-23.93a2.13 2.13 0 0 0-1.56-.19c-1.24.3-2.37 1.57-2.43 3.14-.08 2.24 6.41 18.02 6.49 18.63s-.08 3.87-.08 3.87zm-.33 2.35 6.09-.09c1.02-.06 1.76-.16 1.81-.31 0 0-3.66-3.16-4.91-3.05-.14.01-.29.05-.44.12-1.16.51-2.47 2.42-2.47 2.42l-.08.92zm-46.85-3.16s2.66-1.83 3-1.32a.64.64 0 0 1 .1.22c.21.57.15 1.52.15 1.52S19.06 83.78 19.06 81.6c0-.35-.52-1.5-1.26-2.45-.78-.99-1.79-1.74-2.73-1.12-1.83 1.22-12.98 22.4-12.98 22.4zm4.49 3.16H0s1.66-3.17 3.83-2.86c2.16.31 2.75 2.86 2.75 2.86zM50.3 46.4c-.01.96.46 1.71 1.37 1.61 2.25-.25 11.15-1.66 11.15-1.66s-.31-.55-.45-1.23c-.13-.66-.1-1.44.53-1.97 0 0-5.41-1.04-9.24-.41-2.28.37-3.35 2.26-3.37 3.67z"></path><path d="M50.3 46.4c-.01.96.46 1.71 1.37 1.61 2.25-.25 11.15-1.66 11.15-1.66s-.31-.55-.45-1.23c-3.69 1.4-9.89 1.36-12.07 1.29Z" class="E" opacity=".5"></path><path d="M19.2 20.82s.2 3.09 2.39 5.39c2.99 1.2 9.57.4 9.57.4s1.95-7.51-2.39-9.47c-4.19-1.9-9.57 3.69-9.57 3.69Z"></path><path d="M19.2 20.82s.2 3.09 2.39 5.39c0 0 1.5-8.08 7.18-9.07-4.19-1.9-9.57 3.69-9.57 3.69Z" class="E" opacity=".5"></path><path d="M43.18 20.53c-.22 5.66 7.55 12.09 7.55 12.09s.48-1.9.73-4.19c.29-2.76.24-6.08-1.39-7.35-.84-.65-1.75-.98-2.62-1.12-2.25-.36-4.26.57-4.26.57Z"></path></g><path fill="#79833c" d="m6.13 63.9 2.68-3.79 17.46-24.93 1.69-2.47c-5.63-3.88-11.84-5.92-15.95-6.42C3.14 40.6 6.13 63.9 6.13 63.9z" opacity=".2" style="mix-blend-mode:multiply"></path><path fill="#c1d6d7" d="m36.89 11.19 8.18 6.34 4.1-6.66-10.32-1.44 8.99-1.22-1.33-2.67-9.2 3.13a1.45 1.45 0 0 0-.42 2.52z"></path><g fill="#b6c9c9"><path d="m48.93 103.59 6.09-.09c-1.28-1.75-3.13-2.98-3.54-3.25-1.16.51-2.47 2.42-2.47 2.42l-.08.92zm.33-2.35s1.75-2.14 2.33-2.34c.04-.02.08-.02.12-.02-.88-2.42-5.83-16.3-6.43-23.28-1.24.3-2.37 1.57-2.43 3.14-.08 2.24 6.41 18.02 6.49 18.63s-.08 3.87-.08 3.87zm-47.18-.81s2.66-1.83 3-1.32a.64.64 0 0 1 .1.22c1.65-2.03 9.11-11.46 12.61-20.18-.78-.99-1.79-1.74-2.73-1.12-1.83 1.22-12.98 22.4-12.98 22.4z" class="E" opacity=".5"></path><path d="M51.46 28.43c.29-2.76.24-6.08-1.39-7.35-.84-.65-1.75-.98-2.62-1.12-.46 2.66 2.4 6.53 4.01 8.47Z" class="G" opacity=".4"></path><path d="M28.54 8.32c.33 1.11 4.33 4.33 3.99 5.77-.33 1.44-2.22 2.55-2.22 2.55l1.55.63c1.74-.57 4.56-1.77 4.33-3.62-.29-2.35-9.27-4.57-5.55-10.43-1.45 1.65-2.55 3.62-2.11 5.1z" class="E" opacity=".5"></path><path d="M31.71 2.12c4.33 2.47 11.03 3.18 13.68 3.36C40.9 1.48 36.66 0 35.09 0c-.68 0-2.05.87-3.38 2.12Z" class="G" opacity=".4"></path></g></svg> 