<?xml version="1.0" encoding="UTF-8"?> <svg xmlns="http://www.w3.org/2000/svg" viewBox="0 0 105.07 124.94"><style>.G,.K{mix-blend-mode:screen}.C,.D,.E,.F,.M{mix-blend-mode:multiply}.O{fill:#b6c9c9}.P{opacity:.5}.Q{opacity:.4}.R{fill:#454a63}.S{fill:#e4ac91}.T{fill:#f8c5a5}</style><g class="R"><path d="m67.04 122.07 1.1 1.58-2.53 1.27v-1.63l1.43-1.22zm-27.89.02-.92 1.57 2.07 1.28.02-1.63-1.17-1.22zm1.25-19.89 4 .66 1.04-2.64 1.6-4.07 5.97-8.78.08-.12 1.87-2.75 1.36 2.89.09.19c1.86 3.96 4.85 10.4 4.91 11.01.08.76.49 2.93.61 3.53l.03.16 5.1-2.8-.31-1.62-2.21-11.64-.68-3.57-.95-4.94-.29-1.52a8.93 8.93 0 0 0-.11-.55l-11.23-.41-1.26-.05-3.71-.14v.03c0 .02-.01.04-.02.07-.04.14-.11.41-.21.79l-.2.73-.36 1.31-1.75 6.42-2.82 10.35c-.26.93-.4 2.13-.48 3.3-.15 2.14-.07 4.16-.07 4.16z"></path><path d="m40.83 97.89-.37.16c.08-1.16.22-2.36.48-3.3l2.82-10.35 1.75-6.42c.7-.91.71-1.58.56-2.04-.24-.73-.88-.95.21-.79l1.4.22c1.24.2 1.93.06 2.33-.19 1.01-.62.09-1.9 1.26.05a14.87 14.87 0 0 0 .37.6l1.9 2.86-.27 5.67s1.72-1.78-.18 2.88l-.08.12-5.97 8.78-1.6 4.07-.79.47.49-2.06s2.9-9.68 2.33-10.6c-.56-.92-6.64 9.85-6.64 9.85zM61.89 76.4l1.97 6.24.68 3.57 2.21 11.64-.13.03c-.07-.23-3.81-9.28-4.59-9.22s1.2 12.72 1.2 12.72l-1.3.74c-.12-.6-.53-2.77-.61-3.53-.06-.61-3.05-7.05-4.91-11.01-.03-.06-.06-.13-.09-.19l.06-10.64 5.51-.34z" class="Q" style="mix-blend-mode:multiply"></path></g><g class="O"><path d="M65.42 118.95v5.39l1.93-1.99.08-.08 1.73-21.92c0-.29-2-2.66-2.91-2.95-.91-.3-5 4.8-5 4.8s4.09 14.76 4.19 16.75zm-26.75 3.66.55.48 1.18 1.04s.63-4.91 1.36-8.45 4.82-14.45 4.82-14.45c-.27-1.81-2.82-4.26-3.91-4.48-.15-.03-.32 0-.51.06-1.24.44-3.22 2.61-3.22 2.61l-.27 23.2z"></path><path d="M39.21 123.09c0-3.04.14-20.36 3.46-26.35l-.51.06c-1.24.44-3.22 2.61-3.22 2.61l-.27 23.2.55.48zm28.13-.74.08-.08 1.73-21.92c0-.29-2-2.66-2.91-2.95 1.35 6.58 1.17 21.33 1.11 24.94z" opacity=".6" style="mix-blend-mode:screen"></path><path d="M62.96 84.93c.04.06.22.65.46 1.49l2.08 7.56 3.18-.67-.35-.82-.12-.28-2.75-6.47-.42-.98-2.09.17z"></path></g><g class="C P"><path d="m63.57 85.2 2.31 7.76 2.46-.47-.12-.28-2.11.41-2.24-7.49-.3.07z" class="O"></path></g><path d="m39.4 91.13 3.27 1.43 3-7.56.74-1.99-1.73-.08-1.01 1.58-3.63 5.65-.16.25-.47.73z" class="O"></path><g class="C P"><path d="m39.86 90.4 2.45 1.07 3.45-8.17-.3-.11-3.33 7.89-2.11-.93-.16.25z" class="O"></path></g><g class="O"><path d="m65.05 84.77-2.09.17c.04.06.22.65.46 1.49l2.05-.68-.42-.98zm-21.39-.27 2.01.49.74-1.99-1.73-.08-1.01 1.58z" class="D P"></path><path d="m60.32 74.96.38 1.71 2.08 9.27 1.76-.48 2.24-.61-.27-1.01-.08-.28-2.21-8.31-.44-1.63-1.17.45-1.1.43-.3.11-.89.35z"></path></g><g class="C P"><path d="M61.19 74.54a.24.24 0 0 0 .02.08l1.92 9.77.03.15 3.35-.69-.08-.28-3.02.63-1.9-9.69v-.03l-.31.07z" class="O"></path></g><path d="M41.85 82.58c-.04.12.89.47 1.91.81l2.45.78 2.98-8.23.57-1.58-3.46-1.56-.63-.28-.66 1.73-2.81 7.4-.1.28-.25.65z" class="O"></path><g class="C P"><path d="m42.1 81.93 3.75 1.28 3.39-9.02-.3-.1-3.29 8.74-3.46-1.18-.1.28z" class="O"></path></g><path d="m47.4 93.57 12.92.84-.83-6.32-.21-1.5-.15-.9-9.19-.17-.14.45-.48 1.52-1.93 6.08z" class="O"></path><g class="C P"><path d="m59.19 93.31-.59-7.27-.32.03.57 6.92-9.23-.86 1.28-6.27-.31-.05-1.34 6.58 9.94.92z" class="O"></path></g><g class="O"><path d="m49.33 87.49 10.16.6-.21-1.5-9.47-.61-.48 1.52z" class="D P"></path><path d="M58.59 74.79c.18.34 1.73 12.49 1.73 12.49l-12.1-.84 3.46-11.48 6.91-.17Z"></path></g><g class="C P"><path d="m59.45 86.75-.95-11.1-.31.02.92 10.75-9.38-.94 2.71-9.96-.3-.07-2.81 10.29 10.12 1.01z" class="O"></path></g><g class="O"><path d="m45.01 74.26.86.35 3.32 1.33 1.96.75c2.3.87 4.38 1.57 4.94 1.52.45-.04 1.58-.42 2.91-.91l1.7-.65 2.21-.88 1.31-.54-.44-1.64-1.16.45-.11-.62-16.2-.67v.03l-.63-.28-.66 1.73z" class="D P"></path><path d="M71.71 63.55s1.23-1.21 1.72-1.16.42 3.75.42 3.75l-2.14-2.59zm2.9 4.42s1.23-1.21 1.72-1.16.42 3.75.42 3.75l-2.14-2.59zm-40.09-9.08s-1.48-.94-1.95-.79c-.47.14.47 3.74.47 3.74l1.48-2.95zm-1.8 4.89s-1.48-.94-1.95-.79c-.47.14.47 3.74.47 3.74l1.48-2.95zm19.61-47.75 3.27.17-.52-1.9-.6.02-.76.01-.91.01-.48 1.69z"></path></g><path fill="#fdb655" d="m52.81 14.34 2.27-.04c2.96-2.23 3.4-4.38 2.59-5.12-.32-.29-.82-.37-1.45-.15 2.32-1.57 2.95-5.23-.09-7.57C54.24 0 52.83-.2 51.86.14c-1.22.43-1.73 1.73-1.63 2.44-.92-.52-.92 1.93-.48 2.9-2.31-1.01-1.49.8-1.18 1.41-3.06.56 1.66 5.6 2.4 6.2-1.92-.12 1.83 1.25 1.83 1.25Z"></path><path d="m53.69 15.84.83.04-.05-1.57h-.75l-.04 1.53z" class="O P" style="mix-blend-mode:screen"></path><path fill="#fdb655" d="m52.81 14.34 2.27-.04c2.96-2.23 3.4-4.38 2.59-5.12.45.84-1.91 2.38-2.22 2.38 1.93 2.06-2.1 1.29-2.54-1.29.18 1.05-2.85.41-2.5-1.25-.92.56-1.23-.85-1.01-2.06s1.36.08 1.36.08-.75-2.58-.62-3.43 1.36.12 1.36.12-.68-2.62.37-3.58c-1.22.43-1.73 1.73-1.63 2.44-.92-.52-.92 1.93-.48 2.9-2.31-1.01-1.49.8-1.18 1.41-3.06.56 1.66 5.6 2.4 6.2-1.92-.12 1.83 1.25 1.83 1.25z" class="P" style="mix-blend-mode:multiply"></path><g class="R"><path d="m63.65 49.68 2.71 13.17.26 1.29 3.52-1.15-.19-12.64-.04-3.02-.01-.46-.83.37-5.42 2.44z"></path><path d="m63.65 49.68 2.71 13.17 1.09-.04s-1.86-8.58-1.86-10c0-1.04 2.83-2 4.37-2.45l-.04-3.02-.84-.09-5.42 2.43Z" class="E P"></path></g><path d="M70.93 44.41s1.51-3.41 1.3-3.93-3.65.43-3.65.43l-1.15-1.68s0-2.88-.62-3.26-2.24 2.59-2.24 2.59l6.35 5.85zm-32.84-4.3s-.9-3.59-.6-4.08 3.52.96 3.52.96l1.42-1.49s.5-2.84 1.18-3.13 1.76 2.89 1.76 2.89l-7.29 4.84z" class="O"></path><g class="R"><path d="m35.46 59.17 4.76.94v-.01l3.98-13.73-5.39-1.95-.43 1.92-2.92 12.83z"></path><path d="m39.05 58.02 1.17 2.09 3.98-13.74-5.39-1.94-.44 1.92 2.92 2.38c.15.36-2.25 9.29-2.25 9.29z" class="E P"></path></g><g class="O"><path d="M44.15 72.66s6.43 3.44 11.83 4.49c1.97-.38 8.82-2.96 8.82-2.96l-2.18-3.44v-.26c.23-2.08 1.69-15.84 1.65-23.39 0-.35 0-.69-.02-1.01l-.41-4.59s-8.04-1.15-13.93-2.43a58.39 58.39 0 0 1-2.99-.72c.03.55 0 1.11-.05 1.66-.39 3.92-2.54 7.85-2.54 8.18 0 .19.41 5.66.83 11.09v.07l.8 10.5a.71.71 0 0 0 .01.15v.19l-1.87 2.49z"></path><path d="M44.36 48.18c0 .28.88 11.84 1.36 18.09v.01c.72-5.96-.64-16.65-.16-17.39.75-1.14 1.54-4.75 1.93-6.51 1.89 3.54 4.62 5.49 7.36 6.1.57.13 1.14.13 1.7.03 1.75-.31 3.35-1.63 4.6-3.23.17 1.69.59 5.61.93 6.53.43 1.19 1.36.99 1.36.99l-.79 17.67c.23-2.08 1.69-15.84 1.65-23.39l-1.71-4.06a15.76 15.76 0 0 0 .69-1.55c-5.88-3.31-6.46-5.04-4.98-9.41 0 0-7.93-4.14-8.09 1.43s-2.45 4.21-4.57 3.91a15.73 15.73 0 0 0 1.16 3.47c0 .04-.01.09-.02.13l-.16.8-.09.4c-.03.11-.05.22-.08.33 0 .02 0 .03-.01.05-.03.09-.05.18-.07.27 0 .04-.02.08-.03.11l-.06.2-.09.31c-.04.14-.09.27-.13.41-.15.48-.32.94-.48 1.37-.07.17-.13.33-.19.49-.33.83-.64 1.51-.82 1.93-.03.08-.06.15-.09.2-.02.06-.04.11-.06.15 0 .03-.02.06-.02.08v.04z" class="D P"></path><path d="m55.99 77.16-.4-3.88.97-24.76.03-4.41-6.64-5.05a58.39 58.39 0 0 1-2.99-.72 12.34 12.34 0 0 1-.17 2.56c0 .04-.01.09-.02.13a10.29 10.29 0 0 1-.16.8l-.09.4-.08.33c0 .02 0 .03-.01.05l-.07.27c0 .04-.02.08-.03.11l-.06.2-.09.31-.13.41-.48 1.37-.19.49-.82 1.93c-.03.08-.06.14-.09.2-.02.06-.04.11-.06.15 0 .03-.02.06-.02.08v.04c0 .28.88 11.84 1.36 18.09l.3 3.91-1.87 2.49s6.43 3.44 11.83 4.49z" class="F Q"></path><path d="M45.71 36.22c1.14 5.57 5.47 10.24 9.23 11.07s7.19-3.61 8.42-7c-1.43-.81-2.55-1.52-3.4-2.2-2.64-2.11-2.69-3.91-1.58-7.21 0 0-.17-.09-.47-.23-1.27-.58-4.82-2.02-6.59-.73-.6.44-1 1.19-1.03 2.39-.13 4.39-1.58 4.48-3.23 4.17-.44-.08-.9-.19-1.34-.26z"></path><path d="M47.05 36.48c2.88 2.08 8.58 3.21 12.9 1.61-1.55-1.24-2.21-2.37-2.26-3.76-.04-.98.22-2.09.68-3.45 0 0-.17-.09-.46-.22l-6.59-.73c-.42.31-.74.77-.91 1.43-.07.28-.11.6-.13.96-.03.91-.11 1.63-.24 2.21-.5 2.2-1.68 2.2-2.99 1.96z" class="D P"></path></g><path d="M50.32 33.94c.93.61 2.69 1.19 3.4 1.26.75.07 2.14-.38 3.39-1.43-.03-.87.2-1.85.61-3.06l-.41-.2-6.67.62a4.18 4.18 0 0 0-.11.85c-.03.81-.1 1.45-.21 1.96z" class="R" opacity=".3"></path><g class="O"><path d="M63.15 51.91s5.13-1.43 7.85-3.68c.42-.35.79-.72 1.07-1.11-.75-6.77-5.96-10.23-8.15-9.16-.22.1-.41.26-.57.46-2.93 3.88-.21 13.48-.21 13.48Z"></path><path d="M71 48.24c.42-.35.79-.72 1.07-1.11-.75-6.77-5.96-10.23-8.15-9.16-.25 3.59 2.56 10.05 7.08 10.27Z" class="G Q"></path><path d="M36.49 42.63c.21.42.51.84.86 1.25 2.3 2.62 7.11 4.79 7.11 4.79l.78-1.82c1.14-2.87 2.96-8.45 1.36-11.52-.11-.22-.27-.4-.48-.54-.51-.36-1.29-.45-2.18-.26-2.53.52-6.04 3.24-7.46 8.1z"></path><path d="M45.25 46.84c1.14-2.87 2.96-8.45 1.36-11.52-.11-.22-.27-.4-.48-.54-.51-.36-1.29-.45-2.18-.26-4.1 4.6-4.32 11.14 1.3 12.31Z" class="G Q"></path><path d="m29.83 70.47 1.88 1.44s10.01-11.26 9.37-13.46c-.07-.23-.18-.45-.33-.66-.83-1.12-2.78-1.8-4.32-1.65-.79.08-1.47.38-1.83.94-1.17 1.87-4.77 13.38-4.77 13.38Z"></path><path d="m29.83 70.47 1.88 1.44s10.01-11.26 9.37-13.46c-.07-.23-.18-.45-.33-.66-2.83 5.56-7.6 11.7-8.88 12.03-1.16.3 3.06-10.07 4.56-13.68-.79.08-1.47.38-1.83.94-1.17 1.87-4.77 13.38-4.77 13.38Z" class="F Q"></path></g><path d="M29.74 74.02c1.23-.29 2.06-2.65 2.06-2.65l-1.41-1.09-.66.17-2.24 1.4c-.12.05-.29.52-.29.52l2.54 1.66z" class="S"></path><g fill="#6d808c"><path d="m25.54 70.41-.77 1.22 8.69 4.69.77-1.22-8.69-4.69z"></path><path d="m23.92 64.53 3.05 3.27-1.02 3.26-.89-.17.89-2.91-2.33-3.1.3-.35zm-5.43 8.78 4.6.75 2.53-2.47-.62-.61-2.26 2.19-4.09-.27-.16.41z"></path></g><path fill="#c2d6d7" d="M5.79 58.49 0 57.46l3.75 4.23 20.91 10.28 1.15-1.81L5.79 58.49z"></path><path d="m1.54 58.3 3.17 2.56 20.33 10.39.3-.47L5.53 59.63 1.54 58.3z" class="K O"></path><g fill="#8095a5"><path d="M24.45 72.41c.78.43 1.79.2 2.26-.51.47-.72.22-1.65-.56-2.08s-1.79-.2-2.26.51c-.47.72-.22 1.65.56 2.08z"></path><path d="M24.71 72.02c.54.3 1.25.14 1.58-.36s.15-1.15-.39-1.46c-.54-.3-1.25-.14-1.58.36s-.15 1.15.39 1.46z" class="M Q"></path></g><path d="M27.7 74.13s.13.6.35.74.74-.33.74-.33-.03.38.29.58c.15.09.45-.18.72-.52.33-.42.59-.95.41-1.08-.33-.23-.95.23-.95.23s.52-.96.06-1.17c-.45-.21-.84.37-.84.37s.24-.58-.1-.79-.6.09-.6.09.19-1.1-.66-.8c0 0-.42.43-.77.89-.33.42-.59.86-.42 1 .36.29.83-.11.83-.11s-.09.96.17 1.09.77-.18.77-.18z" class="T"></path><path d="M27.7 74.13s.13.6.35.74.74-.33.74-.33-.03.38.29.58c.15.09.45-.18.72-.52-.29-.04-.61.05-.71-.4-.27.14-1.16.17-1.08-.58-.68.12-.81-.88-.81-.88s-.75.04-.85-.4c-.33.42-.59.86-.42 1 .36.29.83-.11.83-.11s-.09.96.17 1.09.77-.18.77-.18z" class="S"></path><path d="M29.72 70.45c-.98-.08-2.69.69-2.69.69l-.11 2.19s1.61.21.99-1.28c.51-.25 2.22-.13 1.81-1.6Z" class="T"></path><g class="O"><path d="m79 73.93-1.49 1.78s-12.42-9-12.31-11.27c.01-.24.07-.48.17-.71.55-1.26 2.3-2.31 3.83-2.47.79-.08 1.53.07 2.01.56 1.58 1.59 7.8 12.12 7.8 12.12Z"></path><path d="m79 73.93-1.49 1.78s-12.42-9-12.31-11.27c.01-.24.07-.48.17-.71 4.07 4.87 10.16 9.91 11.5 9.97 1.21.06-5.35-9.22-7.67-12.45.79-.08 1.53.07 2.01.56 1.58 1.59 7.8 12.12 7.8 12.12Z" class="F Q"></path></g><path d="M79.92 77.37c-1.27-.04-2.63-2.18-2.63-2.18l1.12-1.35.69.03 2.51.92c.13.03.4.45.4.45l-2.09 2.12z" class="S"></path><g fill="#6d808c"><path d="m83.18 73.01 1.03 1.03-7.38 6.31-1.04-1.03 7.39-6.31z"></path><path d="m83.37 66.95-2.2 3.8 1.76 2.97.83-.34-1.56-2.66 1.55-3.5-.38-.27zm7.37 7.49-4.32 1.65-3.04-1.91.45-.72 2.73 1.68 3.92-1.07.26.37z"></path></g><path fill="#c2d6d7" d="m99.66 57.43 5.41-2.15-2.67 4.87-18 14.21-1.55-1.54 16.81-15.39z"></path><path d="m103.76 56.4-2.49 3.13-17.41 14.2-.41-.4 16.73-14.83 3.58-2.1z" class="K O"></path><g fill="#8095a5"><path d="M84.71 74.74c-.66.58-1.7.56-2.33-.05s-.6-1.57.06-2.15 1.7-.56 2.33.05.6 1.57-.05 2.15z"></path><path d="M84.36 74.41c-.46.4-1.19.39-1.63-.04a1 1 0 0 1 .04-1.5c.46-.4 1.19-.39 1.63.04a1 1 0 0 1-.04 1.5z" class="M Q"></path></g><path d="M81.94 77.07s.01.62-.17.79c-.18.18-.8-.18-.8-.18s.11.36-.15.62c-.12.12-.48-.09-.83-.37-.42-.34-.8-.81-.65-.97.26-.29.98.04.98.04s-.73-.83-.34-1.13.9.19.9.19-.37-.51-.08-.79.61-.03.61-.03-.44-1.03.46-.92a12.22 12.22 0 0 0 .96.72c.42.35.78.72.64.89-.28.35-.84.05-.84.05s.32.92.09 1.1-.8-.02-.8-.02z" class="T"></path><path d="M81.94 77.07s.01.62-.17.79c-.18.18-.8-.18-.8-.18s.11.36-.15.62c-.12.12-.48-.09-.83-.37.27-.1.61-.08.6-.53.29.08 1.17-.07.91-.78.69-.02.59-1.02.59-1.02s.74-.11.74-.56c.42.35.78.72.64.89-.28.35-.84.05-.84.05s.32.92.09 1.1-.8-.02-.8-.02z" class="S"></path><path d="M79.1 73.88c.94-.28 2.79.14 2.79.14l.62 2.11s-1.52.52-1.26-1.05c-.56-.14-2.2.31-2.14-1.21Z" class="T"></path><path d="M44.15 72.66s6.43 3.44 11.83 4.49c1.97-.38 8.82-2.96 8.82-2.96l-2.18-3.44s-5.22 2.7-7.04 2.53-9.57-3.1-9.57-3.1l-1.87 2.49z" class="O" opacity=".3" style="mix-blend-mode:screen"></path><path fill="#593d43" d="M57.74 33.36s-2.2 1.75-3.84 1.75-3.57-1.21-3.57-1.21l-2.27-10.87 2.22-1.84 4.39-.07 3.29-.27 1.26.4.11 5.45-1.59 6.66Z"></path><g class="O"><path d="M46.41 31.88c.06.26.66.77 1.53 1.34.75.49 1.69 1.04 2.66 1.51l.24-2.34.62-6.14-2.53-.67v-.74h3.76l.63 7.35h1.39l.63-7.35h3.76v.74l-2.53.67.22 2.21.44 4.3.2 1.97 1.75-.95c1.33-.79 2.36-1.56 2.44-1.91.07-.27 0-1.52-.12-3.11l-1.11-8.65c-.05-.16-.13-.34-.23-.53-.88-1.65-3.55-4-5.88-4.24-.06 0-.13-.01-.19-.01h-.18a3.88 3.88 0 0 0-.75.11c-2.38.56-4.93 3.02-5.5 4.54-.02.04-.03.09-.05.13-.35 1.12-.87 5.64-1.12 8.76l-.12 3.01z"></path><path d="m57.24 32.76.2 1.97 1.75-.95c1.33-.79 2.36-1.56 2.44-1.91.07-.27 0-1.52-.12-3.11-.83 1.99-2.4 3.35-4.27 4zm-10.83-.88c.06.26.66.77 1.53 1.34.75.49 1.69 1.04 2.66 1.51l.24-2.34c-1.58-.7-3.09-1.86-4.32-3.52l-.12 3.01z" opacity=".3" style="mix-blend-mode:multiply"></path><path d="M47.68 19.98c4.77 6.28 9.08 4.64 12.49-.4-.88-1.65-3.55-4-5.88-4.24-.06 0-.13-.01-.19-.01h-.18c-.25.01-.5.05-.75.11-2.38.56-4.93 3.02-5.5 4.54Z" class="G Q"></path><path d="M53.55 76.79v.13c.07.07 0-.13 0-.13Zm-6.78 22.65-.1.06c-.08.15.1-.06.1-.06Zm21.37 23.48-2.54 2h9.17s-1.76-.9-3.38-.95c-1.63-.05-3.25-1.05-3.25-1.05Zm-29.91.01 2.07 2.02-7.54-.04s1.45-.89 2.79-.93c1.34-.05 2.68-1.04 2.68-1.04Z"></path></g></svg> 