<?xml version="1.0" encoding="UTF-8"?> <svg xmlns="http://www.w3.org/2000/svg" viewBox="0 0 506.24 161.68"><path fill="#f7971e" d="M58.97 44.58v108.03l-12.14-24.12V44.58H0L8.17 60.8h34.58v68.71l16.22 32.17h.02l16.21-32.17V60.8h34.6l8.17-16.22h-59Zm6.11-7.95h12.21V24.42H65.08V0H52.87v24.42H40.73v12.21ZM83.3 93.25h10.28l8.17-16.23H83.3v16.23Z" data-name="Path 1"></path><path fill="#fff" d="M180 50.48h-11.97v20.93h-7.14V50.48h-11.97v-5.86h31.09v5.86Zm36.96-5.85v26.81h-7.14V60.98h-16.81v10.46h-7.14V44.65l7.14-.02v10.48h16.81V44.64l7.14-.02Zm15.16 5.85v4.62h20.22v5.86h-20.22v4.62h23.95v5.84h-31.09V44.63h31.09v5.85h-23.95Zm58.8 0v4.62h20.21v5.86h-20.21v10.46h-7.14V44.63h31.09v5.85h-23.95Zm60.79-5.86v16c0 7.46-2.79 10.79-10.39 10.79h-9.91c-7.32 0-10.79-2.36-10.79-9.82V44.62h7.81v17.39c0 2.64 1.75 3.57 4.57 3.57h6.73c3.46 0 4.18-1.11 4.18-3.61V44.61h7.8Zm19.31.01 12.23 20.57V44.63h7.23v26.79h-11.74l-12.12-20.57v20.57h-7.23V44.63h11.63Zm27.43 0h20.43c7.46 0 10.79 2.79 10.79 10.39v5.61c0 7.32-2.36 10.79-9.82 10.79h-21.39V44.63Zm7.14 20.95h13.14c2.64 0 3.57-1.75 3.57-4.57v-6.35c0-3.47-1.11-4.18-3.61-4.18h-13.1v15.1Zm38.57-15.1v4.62h20.22v5.86h-20.22v4.62h23.95v5.84h-31.09V44.63h31.09v5.85h-23.95Zm30.86-5.85h20.43c7.46 0 10.79 2.79 10.79 10.39v5.61c0 7.32-2.36 10.79-9.82 10.79h-21.39V44.63Zm7.14 20.95h13.14c2.64 0 3.57-1.75 3.57-4.57v-6.35c0-3.47-1.11-4.18-3.61-4.18h-13.1v15.1ZM201.03 94.91h-20.45v35.74h-12.2V94.91h-20.45v-10h53.09v10Zm53.14 24.42 6.7 11.35h-13.84l-5.81-9.97h-21.24v9.96h-12.2V84.93h37.48c9.12 0 13.67 2.72 15.1 10a50.736 50.736 0 0 1 .51 7.57 60.4 60.4 0 0 1-.42 7.53c-.73 4.72-2.54 7.72-6.29 9.3Zm-34.19-9.23h24.19a4.135 4.135 0 0 0 4.14-4.14v-6.89a4.135 4.135 0 0 0-4.14-4.14h-24.19v15.17Zm102.25 20.82h-12.44l-3.21-10.61h-24.61l-3.21 10.61h-12.44l13.91-45.74h28.09Zm-32.65-35.76-4.34 14.53h18.08l-4.34-14.53Zm39.27-10.23h34.88c12.75 0 18.42 4.76 18.42 17.75v9.58c0 12.5-4.03 18.42-16.77 18.42h-36.53V84.94Zm12.2 35.77h22.44c4.51 0 6.1-2.99 6.1-7.81v-10.84c0-5.92-1.89-7.14-6.16-7.14h-22.38v25.78Zm62.59-25.79v7.88h34.52v10h-34.52v7.9h40.89v9.97h-53.09V84.92h53.09v9.99Zm95.87 24.42 6.7 11.35h-13.85l-5.8-9.97h-21.25v9.96h-12.2V84.93h37.48c9.12 0 13.67 2.72 15.1 10a50.74 50.74 0 0 1 .51 7.57 60.4 60.4 0 0 1-.42 7.53c-.73 4.72-2.54 7.72-6.29 9.3Zm-34.19-9.23h24.19a4.136 4.136 0 0 0 4.14-4.14v-6.89a4.142 4.142 0 0 0-4.14-4.14h-24.19v15.17Z" data-name="Path 2"></path></svg> 