<?xml version="1.0" encoding="UTF-8"?> <svg xmlns="http://www.w3.org/2000/svg" xmlns:xlink="http://www.w3.org/1999/xlink" viewBox="0 0 800 400"><style>.B,.F{mix-blend-mode:soft-light}.V{opacity:.5}.W{opacity:.2}.X{opacity:.3}.Y{opacity:.76}.Z{fill:#ff862f}.a{fill:#ff8b4a}.b{fill:#ef3c16}.c{fill:#811807}.d{fill:#8d5709}.e{fill:#b97c09}.f{fill-rule:evenodd}.g{fill:#d87528}.h{fill:#ff8e16}.i{fill:#bc833f}</style><defs><linearGradient xlink:href="#Bg" id="A" x1="389.92" x2="389.92" y1="340.62" y2="224.57"><stop offset="0" stop-color="#c5b8cf"></stop><stop offset="1" stop-color="#ff888e"></stop></linearGradient><linearGradient xlink:href="#Bg" id="B" x1="388.98" x2="388.98" y1="340.39" y2="261.72"><stop offset="0" stop-color="#974577"></stop><stop offset="1" stop-color="#c77cbd"></stop></linearGradient><linearGradient xlink:href="#B" id="C" x1="404.98" x2="404.98" y1="324.98" y2="282.05"></linearGradient><linearGradient xlink:href="#B" id="D" x1="366.64" x2="366.64" y1="338.86" y2="224.57"></linearGradient><linearGradient xlink:href="#Bg" id="E" x1="446.03" x2="446.03" y1="348.5" y2="220.56"><stop offset="0" stop-color="#ec9098"></stop><stop offset="1" stop-color="#ff883c"></stop></linearGradient><linearGradient xlink:href="#B" id="F" x1="441.11" x2="441.11" y1="347.42" y2="238.12"></linearGradient><linearGradient xlink:href="#Bg" id="G" x1="539.32" x2="539.32" y1="368.75" y2="129.25"><stop offset="0" stop-color="#ec5917"></stop><stop offset="1" stop-color="#ff883c"></stop></linearGradient><linearGradient xlink:href="#Bg" id="H" x1="571.57" x2="571.57" y1="365.78" y2="129.25"><stop offset="0" stop-color="#c77cbd"></stop><stop offset="1" stop-color="#974577"></stop></linearGradient><linearGradient xlink:href="#H" id="I" x1="487.34" x2="487.34" y1="359.25" y2="178.43"></linearGradient><linearGradient xlink:href="#H" id="J" x1="518.67" x2="518.67" y1="278.25" y2="233.38"></linearGradient><linearGradient xlink:href="#H" id="K" x1="531.56" x2="553.14" y1="243.12" y2="243.12"></linearGradient><linearGradient xlink:href="#H" id="L" x1="572.5" x2="590.52" y1="205.98" y2="205.98"></linearGradient><linearGradient xlink:href="#H" id="M" x1="512.94" x2="523.52" y1="202.99" y2="202.99"></linearGradient><linearGradient xlink:href="#H" id="N" x1="484.57" x2="546" y1="313" y2="313"></linearGradient><linearGradient xlink:href="#H" id="O" x1="546" x2="559.7" y1="302.33" y2="302.33"></linearGradient><linearGradient xlink:href="#H" id="P" x1="497.35" x2="521.5" y1="317.76" y2="317.76"></linearGradient><linearGradient xlink:href="#H" id="Q" x1="543.75" x2="575.16" y1="193.08" y2="193.08"></linearGradient><linearGradient xlink:href="#E" id="R" x1="332.32" x2="332.32" y1="347.25" y2="152.25"></linearGradient><linearGradient xlink:href="#B" id="S" x1="330.08" x2="330.08" y1="347.25" y2="152.25"></linearGradient><linearGradient xlink:href="#B" id="T" x1="342.28" x2="342.28" y1="274.31" y2="178.43"></linearGradient><linearGradient xlink:href="#B" id="U" x1="309.76" x2="309.76" y1="202.97" y2="152.25"></linearGradient><linearGradient xlink:href="#B" id="V" x1="330.11" x2="330.11" y1="288.01" y2="242.67"></linearGradient><linearGradient xlink:href="#B" id="W" x1="337.55" x2="337.55" y1="313" y2="301.75"></linearGradient><linearGradient xlink:href="#Bg" id="X" x1="690.25" x2="690.25" y1="400" y2="0"><stop offset="0" stop-color="#3c000e"></stop><stop offset="1" stop-color="#4a000c"></stop></linearGradient><linearGradient xlink:href="#Bg" id="Y" x1="616.98" x2="616.98" y1="400" y2="82.33"><stop offset="0" stop-color="#ff883c"></stop><stop offset="1" stop-color="#ec5917"></stop></linearGradient><linearGradient xlink:href="#Bg" id="Z" x1="649.34" x2="649.34" y1="367.75" y2="20.33"><stop offset="0" stop-color="#9d2721"></stop><stop offset="1" stop-color="#bd4725"></stop></linearGradient><linearGradient xlink:href="#H" id="a" x1="658.14" x2="658.14" y1="390.45" y2="137"></linearGradient><linearGradient xlink:href="#H" id="b" x1="723.93" x2="723.93" y1="394.44" y2="127"></linearGradient><linearGradient xlink:href="#H" id="c" x1="728.77" x2="728.77" y1="161" y2="10.33"></linearGradient><linearGradient xlink:href="#H" id="d" x1="782.9" x2="782.9" y1="396.82" y2="0"></linearGradient><linearGradient xlink:href="#H" id="e" x1="661.19" x2="661.19" y1="297.54" y2="20.33"></linearGradient><linearGradient xlink:href="#H" id="f" x1="667.87" x2="667.87" y1="158.94" y2="82.62"></linearGradient><linearGradient xlink:href="#H" id="g" x1="636.91" x2="636.91" y1="196.28" y2="82.33"></linearGradient><linearGradient xlink:href="#H" id="h" x1="596.8" x2="596.8" y1="353.75" y2="222.1"></linearGradient><linearGradient xlink:href="#H" id="i" x1="676.1" x2="676.1" y1="394.44" y2="169.67"></linearGradient><linearGradient xlink:href="#H" id="j" x1="637.74" x2="637.74" y1="367.75" y2="184"></linearGradient><linearGradient xlink:href="#H" id="k" x1="658.41" x2="658.41" y1="154.33" y2="115.69"></linearGradient><linearGradient xlink:href="#H" id="l" x1="744.22" x2="800" y1="259.69" y2="259.69"></linearGradient><linearGradient xlink:href="#H" id="m" x1="738.21" x2="779.53" y1="297.38" y2="297.38"></linearGradient><linearGradient xlink:href="#H" id="n" x1="741.84" x2="772.61" y1="45.13" y2="45.13"></linearGradient><linearGradient xlink:href="#H" id="o" x1="743.67" x2="782.61" y1="92.71" y2="92.71"></linearGradient><linearGradient xlink:href="#H" id="p" x1="776.8" x2="800" y1="310" y2="310"></linearGradient><linearGradient xlink:href="#H" id="q" x1="765.81" x2="790.64" y1="69.65" y2="69.65"></linearGradient><linearGradient xlink:href="#H" id="r" x1="720.63" x2="743.01" y1="48.15" y2="48.15"></linearGradient><linearGradient xlink:href="#Bg" id="s" x1="166.1" x2="166.1" y1="400" y2="0"><stop offset="0" stop-color="#7f0c00"></stop><stop offset="1" stop-color="#db4e32"></stop></linearGradient><linearGradient xlink:href="#H" id="t" x1="84.28" x2="84.28" y1="384" y2="-.1"></linearGradient><linearGradient xlink:href="#H" id="u" x1="22.56" x2="22.56" y1="384" y2="82.33"></linearGradient><linearGradient xlink:href="#H" id="v" x1="51.52" x2="51.52" y1="145.29" y2="-.07"></linearGradient><linearGradient xlink:href="#H" id="w" x1="138.82" x2="138.82" y1="376.14" y2="-.1"></linearGradient><linearGradient xlink:href="#H" id="x" x1="97.51" x2="97.51" y1="381.72" y2="161"></linearGradient><linearGradient xlink:href="#H" id="y" x1="202.31" x2="202.31" y1="372.44" y2="14.67"></linearGradient><linearGradient xlink:href="#H" id="z" x1="206.83" x2="206.83" y1="248.08" y2="42.5"></linearGradient><linearGradient xlink:href="#H" id="AA" x1="256.35" x2="256.35" y1="326.68" y2="127"></linearGradient><linearGradient xlink:href="#H" id="AB" x1="99.99" x2="99.99" y1="378.32" y2="290.16"></linearGradient><linearGradient xlink:href="#H" id="AC" x1="225.44" x2="252.13" y1="340.39" y2="340.39"></linearGradient><linearGradient xlink:href="#H" id="AD" x1="170.35" x2="195.7" y1="322.07" y2="322.07"></linearGradient><linearGradient xlink:href="#Bg" id="AE" x1="125.69" x2="125.69" y1="43.67" y2="25"><stop offset="0" stop-color="#9c1610"></stop><stop offset="1" stop-color="#b84232"></stop></linearGradient><linearGradient xlink:href="#AE" id="AF" x1="132.07" x2="132.07" y1="72.61" y2="47.61"></linearGradient><linearGradient xlink:href="#H" id="AG" x1="143.5" x2="143.5" y1="189" y2="57"></linearGradient><linearGradient xlink:href="#Bg" id="AH" x1="56.83" x2="56.83" y1="157.71" y2="138.01"><stop offset="0" stop-color="#b84232"></stop><stop offset="1" stop-color="#9c1610"></stop></linearGradient><linearGradient xlink:href="#H" id="AI" x1="105.49" x2="105.49" y1="249.33" y2="245.77"></linearGradient><linearGradient xlink:href="#H" id="AJ" x1="205.32" x2="205.32" y1="335.07" y2="314.9"></linearGradient><linearGradient xlink:href="#H" id="AK" x1="210.23" x2="210.23" y1="356.62" y2="347.25"></linearGradient><linearGradient xlink:href="#H" id="AL" x1="154.99" x2="154.99" y1="268" y2="197.33"></linearGradient><linearGradient xlink:href="#B" id="AM" x1="168.55" x2="168.55" y1="246.17" y2="222.1"></linearGradient><linearGradient xlink:href="#H" id="AN" x1="117.77" x2="117.77" y1="157.47" y2="57"></linearGradient><linearGradient xlink:href="#H" id="AO" x1="199.25" x2="199.25" y1="277.52" y2="228.67"></linearGradient><linearGradient xlink:href="#H" id="AP" x1="64.7" x2="64.7" y1="38.88" y2="3.73"></linearGradient><linearGradient xlink:href="#H" id="AQ" x1="55.75" x2="55.75" y1="107.24" y2="0"></linearGradient><linearGradient xlink:href="#H" id="AR" x1="89.83" x2="89.83" y1="36" y2="-.1"></linearGradient><linearGradient xlink:href="#H" id="AS" x1="22.56" x2="22.56" y1="384" y2="175.67"></linearGradient><linearGradient xlink:href="#H" id="AT" x1="199.12" x2="199.12" y1="165.96" y2="82.33"></linearGradient><linearGradient xlink:href="#H" id="AU" x1="228.86" x2="228.86" y1="248.08" y2="191.96"></linearGradient><linearGradient xlink:href="#H" id="AV" x1="168.74" x2="186.1" y1="151.67" y2="151.67"></linearGradient><linearGradient xlink:href="#H" id="AW" x1="229.11" x2="274" y1="332.25" y2="332.25"></linearGradient><linearGradient xlink:href="#H" id="AX" x1="72.96" x2="92.56" y1="239.67" y2="239.67"></linearGradient><linearGradient xlink:href="#H" id="AY" x1="64.31" x2="64.31" y1="381.72" y2="322"></linearGradient><linearGradient xlink:href="#H" id="AZ" x1="31.03" x2="31.03" y1="382.19" y2="319.67"></linearGradient><linearGradient xlink:href="#H" id="Aa" x1="104.94" x2="104.94" y1="57" y2="47.61"></linearGradient><linearGradient xlink:href="#H" id="Ab" x1="239.61" x2="254.4" y1="198.04" y2="198.04"></linearGradient><linearGradient xlink:href="#G" id="Ac" x1="295.76" x2="295.76" y1="351.67" y2="161"></linearGradient><linearGradient xlink:href="#H" id="Ad" x1="288.11" x2="288.11" y1="233.17" y2="175.75"></linearGradient><linearGradient xlink:href="#H" id="Ae" x1="281.37" x2="281.37" y1="275.5" y2="230"></linearGradient><linearGradient xlink:href="#H" id="Af" x1="313.97" x2="313.97" y1="350.62" y2="198"></linearGradient><linearGradient xlink:href="#B" id="Ag" x1="302.09" x2="302.09" y1="350.62" y2="303.5"></linearGradient><linearGradient xlink:href="#H" id="Ah" x1="281.24" x2="281.24" y1="310" y2="282.05"></linearGradient><linearGradient xlink:href="#H" id="Ai" x1="269.31" x2="269.31" y1="241.17" y2="230"></linearGradient><linearGradient xlink:href="#H" id="Aj" x1="285.51" x2="291.57" y1="200.19" y2="200.19"></linearGradient><linearGradient xlink:href="#H" id="Ak" x1="0" x2="297.44" y1="192" y2="192"></linearGradient><linearGradient xlink:href="#Bg" id="Al" x1="400" x2="400" y1="400" y2="338.64"><stop offset="0" stop-color="#ec572d"></stop><stop offset="1" stop-color="#ff973b"></stop></linearGradient><linearGradient xlink:href="#Bg" id="Am" x1="286.29" x2="286.29" y1="400" y2="342.63"><stop offset="0" stop-color="#8387e4"></stop><stop offset="1" stop-color="#ff8874"></stop></linearGradient><linearGradient xlink:href="#Am" id="An" x1="511.55" x2="511.55" y2="341.11"></linearGradient><linearGradient xlink:href="#Bg" id="Ao" x1="541.95" x2="541.95" y1="400" y2="355.23"><stop offset="0" stop-color="#666bdf"></stop><stop offset="1" stop-color="#ff7254"></stop></linearGradient><linearGradient xlink:href="#Ao" id="Ap" x1="312.41" x2="312.41" y2="349.33"></linearGradient><linearGradient xlink:href="#Bg" id="Aq" x1="251.26" x2="251.26" y1="400" y2="381.4"><stop offset="0" stop-color="#663468"></stop><stop offset="1" stop-color="#861054"></stop></linearGradient><linearGradient xlink:href="#s" id="Ar" x1="163.5" x2="385.25" y1="370.31" y2="370.31"></linearGradient><linearGradient xlink:href="#Bg" id="As" x1="479.5" x2="623" y1="389.88" y2="389.88"><stop offset="0" stop-color="#db4e32"></stop><stop offset="1" stop-color="#7f0c00"></stop></linearGradient><linearGradient xlink:href="#As" id="At" x1="415.71" x2="546" y1="356.62" y2="356.62"></linearGradient><linearGradient xlink:href="#Bg" id="Au" x1="395.64" x2="395.64" y1="355.23" y2="344.71"><stop offset="0" stop-color="#dfdaff"></stop><stop offset=".33" stop-color="#e2deff"></stop><stop offset=".68" stop-color="#eeeaff"></stop><stop offset="1" stop-color="#fefdff"></stop></linearGradient><linearGradient xlink:href="#Au" id="Av" x1="396.42" x2="396.42" y1="357.89" y2="356.18"></linearGradient><linearGradient xlink:href="#Au" id="Aw" x1="529.41" x2="529.41" y1="400" y2="382.38"></linearGradient><linearGradient xlink:href="#Au" id="Ax" x1="265.57" x2="265.57" y1="400" y2="370.5"></linearGradient><linearGradient xlink:href="#H" id="Ay" x1="0" x2="800" y1="383.38" y2="383.38"></linearGradient><linearGradient xlink:href="#Bg" id="Az" x1="75.33" x2="207.97" y1="367.96" y2="367.96"><stop offset="0" stop-color="#4d0000"></stop><stop offset="1" stop-color="#660807"></stop></linearGradient><linearGradient xlink:href="#H" id="BA" x1="75.33" x2="190.96" y1="375.55" y2="375.55"></linearGradient><linearGradient xlink:href="#Bg" id="BB" x1="139.16" x2="236.08" y1="384.39" y2="384.39"><stop offset="0" stop-color="#4d0000"></stop><stop offset="1" stop-color="#600807"></stop></linearGradient><linearGradient xlink:href="#H" id="BC" x1="139.16" x2="207.97" y1="388.23" y2="388.23"></linearGradient><linearGradient xlink:href="#Bg" id="BD" x1="499.43" x2="645.57" y1="373.86" y2="373.86"><stop offset="0" stop-color="#390000"></stop><stop offset="1" stop-color="#570807"></stop></linearGradient><linearGradient xlink:href="#H" id="BE" x1="595.42" x2="613.92" y1="373.05" y2="373.05"></linearGradient><linearGradient xlink:href="#H" id="BF" x1="617.81" x2="645.57" y1="386.46" y2="386.46"></linearGradient><linearGradient xlink:href="#H" id="BG" x1="520.67" x2="534.15" y1="377.8" y2="377.8"></linearGradient><linearGradient xlink:href="#BD" id="BH" x1="580.99" x2="580.99" y1="389.99" y2="381.4"></linearGradient><linearGradient xlink:href="#Z" id="BI" x1="460" x2="460" y1="377.009" y2="399.481"></linearGradient><linearGradient xlink:href="#H" id="BJ" x1="449.34" x2="470.66" y1="388.241" y2="388.241"></linearGradient><linearGradient xlink:href="#H" id="BK" x1="458.68" x2="468.72" y1="380.423" y2="380.423"></linearGradient><linearGradient xlink:href="#Z" id="BL" x1="432.86" x2="432.86" y1="377.009" y2="429.744"></linearGradient><linearGradient xlink:href="#H" id="BM" x1="435.47" x2="435.47" y1="377.009" y2="429.744"></linearGradient><linearGradient xlink:href="#H" id="BN" x1="433.3" x2="445.18" y1="388.722" y2="388.722"></linearGradient><linearGradient xlink:href="#B" id="BO" x1="446.48" x2="446.48" y1="377.009" y2="400.436"></linearGradient><linearGradient xlink:href="#Z" id="BP" x1="399.47" x2="399.47" y1="377.422" y2="385.824"></linearGradient><linearGradient xlink:href="#H" id="BQ" x1="407.67" x2="409.97" y1="379.787" y2="379.787"></linearGradient><linearGradient xlink:href="#Z" id="BR" x1="460" x2="460" y1="376.03" y2="349.89"></linearGradient><linearGradient xlink:href="#H" id="BS" x1="449.34" x2="470.66" y1="362.96" y2="362.96"></linearGradient><linearGradient xlink:href="#H" id="BT" x1="458.68" x2="468.72" y1="372.05" y2="372.05"></linearGradient><linearGradient xlink:href="#Z" id="BU" x1="432.86" x2="432.86" y1="376.03" y2="314.71"></linearGradient><linearGradient xlink:href="#H" id="BV" x1="435.47" x2="435.47" y1="376.03" y2="314.71"></linearGradient><linearGradient xlink:href="#H" id="BW" x1="433.3" x2="445.18" y1="362.4" y2="362.4"></linearGradient><linearGradient xlink:href="#B" id="BX" x1="446.48" x2="446.48" y1="376.03" y2="348.78"></linearGradient><linearGradient xlink:href="#Z" id="BY" x1="399.47" x2="399.47" y1="375.55" y2="365.78"></linearGradient><linearGradient xlink:href="#H" id="BZ" x1="407.67" x2="409.97" y1="372.8" y2="372.8"></linearGradient><linearGradient id="Bg" gradientUnits="userSpaceOnUse"></linearGradient><radialGradient xlink:href="#Bg" id="Ba" cx="397.25" cy="337.4" r="120.25" fx="397.25" fy="337.4"><stop offset="0" stop-color="#c7d7ff"></stop><stop offset="1" stop-color="#548bd9"></stop></radialGradient><radialGradient xlink:href="#Bg" id="Bb" cx="413.57" cy="306.58" r="16.54" fx="413.57" fy="306.58" gradientTransform="matrix(1.21 0 0 1.88 -98.74 -237.35)"><stop offset="0" stop-color="#ff6e59"></stop><stop offset=".1" stop-color="#dd5f4d"></stop><stop offset=".35" stop-color="#8f3d32"></stop><stop offset=".58" stop-color="#52231c"></stop><stop offset=".77" stop-color="#25100d"></stop><stop offset=".91" stop-color="#0a0403"></stop><stop offset="1"></stop></radialGradient><radialGradient xlink:href="#Bg" id="Bc" cx="-1340.57" cy="277.34" r="29.76" fx="-1340.57" fy="277.34" gradientTransform="matrix(0 -.71 1.62 0 -49.78 -604.77)"><stop offset="0" stop-color="#a93e7f"></stop><stop offset=".04" stop-color="#9c3975"></stop><stop offset=".21" stop-color="#6d2852"></stop><stop offset=".38" stop-color="#461934"></stop><stop offset=".54" stop-color="#270e1d"></stop><stop offset=".7" stop-color="#11060d"></stop><stop offset=".86" stop-color="#040103"></stop><stop offset="1"></stop></radialGradient><radialGradient xlink:href="#Bg" id="Bd" cx="-1428.19" cy="281.77" r="16.21" fx="-1428.19" fy="281.77" gradientTransform="matrix(0 -.47 2.42 0 -284.01 -334.22)"><stop offset="0" stop-color="#ff3e1d"></stop><stop offset=".18" stop-color="#c02e15"></stop><stop offset=".41" stop-color="#7d1e0e"></stop><stop offset=".61" stop-color="#471108"></stop><stop offset=".78" stop-color="#200703"></stop><stop offset=".92" stop-color="#080200"></stop><stop offset="1"></stop></radialGradient><radialGradient xlink:href="#Bd" id="Be" cy="282.43" r="11.22" fy="282.43" gradientTransform="matrix(0 -.47 2.67 0 -354.05 -334.22)"></radialGradient><clipPath id="Bf"><path fill="none" d="M0 0h800v400H0z"></path></clipPath></defs><g clip-path="url(#Bf)"><g class="f"><path fill="url(#A)" d="m355.31 224.57 16.83 13.55 5.83 24.59 2.63-.99 9.32 1.39L400 282.05l7.33 5.21 17.2 53.36-52.41-1.98-16.81-114.07z"></path><path fill="url(#B)" d="m380.6 261.72 9.32 36.53 4.09 3.5 5.99 38.64-22.03-77.68 2.63-.99z" class="X" style="mix-blend-mode:multiply"></path><path fill="url(#C)" d="m400 282.05 9.97 42.93-3.7-26.18-4.13-15.22-2.14-1.53z" class="X" style="mix-blend-mode:multiply"></path><path fill="url(#D)" d="m355.31 224.57 4.44 7.43 8.42 75.37 2.92.96 6.88 30.53-5.85-.22-16.81-114.07z" class="X" style="mix-blend-mode:multiply"></path><path fill="url(#E)" d="m415.71 347.42 25.22-98.23 5.64-11.07h8.36l21.41-17.56-6.18 127.94-40.59-1.08h-13.86z"></path><path fill="#ffffc7" d="m446.57 238.12-5.64 11.07-13.48 52.52 6.41 15.41 16.06-44.35-3.35-34.65zm8.36 0-2.6 12.97v21.68l-4.25 25.4 17.15-17.25 5.37-55.65-15.67 12.85zm-25.36 109.3 13.02-41.8 12.2-11.9 12.13-6.46-12.13 60.16h-25.22z" class="V" style="mix-blend-mode:soft-light"></path><path fill="url(#F)" d="m433.86 317.12-6.57 30.3h2.28l13.02-41.8 6.1-5.95-.61-1.5 4.25-25.4v-21.68l2.6-12.97h-8.36l3.35 34.65-16.06 44.35z" class="X" style="mix-blend-mode:multiply"></path><path fill="url(#G)" d="m600.31 129.25-13.4 18.61-12.64-5.51-6.67 2.68-27.13 24.64-8.91-3.17-33.23 6.12v5.81L477 190.39l-5.5 82-6.15 74.34 15.15 8.52 1.25 4 98.75 9.5 32.78-152.59-12.97-86.91z"></path><path fill="url(#H)" d="m574.27 142.35 1.82 86.32-3.59 35.06-9.93 32.29-8.49 6.08-13.61-132.43-8.91-3.17 9.77 32.86 4.67 41.81v62.33l-11.91 60.79 7.25.28 16.04-58.15 16.79-30.54 7.86-15.16 4.22 14.78-5.75 46.5-3.5 2.34-4.5 41.44h8l24.01-109.45 7.06-100.81-11.26-26.27-13.4 18.61-12.64-5.51z" class="V" style="mix-blend-mode:multiply"></path><path fill="url(#I)" d="m498.33 178.43-7 99.82-2.66 3.8-6.92 77.2-1.25-4-4.16-1.5 11-73.42 6.41-80.97 1.92-3.08 1.21-17.04 1.45-.81z" class="V" style="mix-blend-mode:multiply"></path><path fill="url(#J)" d="M546 246.33h-3.67l-10.77 6.42-22.57 23.63-17.66 1.87.17-2.37h12.33l4.67-2.71L533.25 249l11.88-15.62.62 6.12.25 6.83z" class="V" style="mix-blend-mode:multiply"></path><path d="m491.33 278.25-2.66 3.8-6.92 77.2 4.17.37 27.02 2.41-6.03-79.98-9.56-3.8h-6.02zm.17-2.37 6.83-103.26 20.92-3.85-1.1 36.89-5.21 29.92-9.11 40.3H491.5zm53.63-42.5-3.8-34.02-9.77-32.86-3.91.72-4.13 91.28 9.73-9.5 11.88-15.62zm8.95 68.72-4.97-48.38 2.49-29.68 14.17-30 8.4-12.62.86-2.99 1.06 50.24-3.59 35.06-9.93 32.29-8.49 6.08zm-2.59 25.65L580.5 322l1.53-29.12 4.22-17.38-4.22-14.78-24.65 45.7-5.89 21.33z" class="V Z"></path><path fill="#ffa768" d="m562.57 325.55 14.43-1.21 3.5-2.34-17.93 3.55zm-73.9-43.5 20.32-5.67-17.66 1.87-2.66 3.8z" class="V"></path><path fill="url(#K)" d="m542.33 246.33-10.77 6.42v-3l13.57-16.37-3.8-34.02 1.43-7.36 10.38 100.88-7.14 1.35v-47.9h-3.67z" class="V" style="mix-blend-mode:multiply"></path><path fill="url(#L)" d="m576.09 228.67-1.82-86.32 12.64 5.51 3.61 30.57V230l-8.49 30.72-5.94 8.89-3.59-5.88 3.59-35.06z" class="V" style="mix-blend-mode:multiply"></path><path d="m476.34 353.75 9.05-60.39-3.64-11.31-11.78 13.97-4.62 50.71 10.99 7.02z" class="V Z"></path><path fill="url(#M)" d="m519.25 168.77-.74 24.78-.36 12.11-5.21 32.34 6.31-33.33 2.08-31 2.19-5.69-4.27.79z" class="V" style="mix-blend-mode:multiply"></path><path fill="url(#N)" d="m546 298.25-17.25 10.42-31.4 13.33-12.47 2.34-.31 3.41 1.76-2.2 16.59-1.77 42.21-23.28.87 1.25v-3.5z" class="V" style="mix-blend-mode:multiply"></path><path fill="url(#O)" d="m546 301.75 6.25 4 5.13.67 2.32-4.32-2.82 1.98-10.88-5.83v3.5z" class="V" style="mix-blend-mode:multiply"></path><path fill="url(#P)" d="m497.35 322 5.57 1.78 18.58-10.25v-1.79L497.35 322z" class="V" style="mix-blend-mode:multiply"></path><path fill="url(#Q)" d="m574.17 181.42-29.04 23.04-1.38-3.04.8 7.99.58-3.43 27.85-22.78 2.18 1.45-.17-7.9-.82 4.67z" class="V" style="mix-blend-mode:multiply"></path><g fill="#c69a3f"><path d="m609.08 194.04-18.56 8.95h-15.36l-22.02 9.51-7.39 6.5h-2.22l-28.24 8.58-9.19 2.09-12.1 8.1-3.32.35-17.32 6.55-.19 2.84 17.34-7.24 3.29.9 13.2-6.92 36.75-10.63 2.25-.14 5.49-4.1 24.13-7.88 14.9 1 21.24-6.52-2.68-11.94z" class="B"></path><path d="m612.71 210.66-22.19 5.51h-14.43l-29.67 11.41h-2.67l-50.37 19.93h-3.44l-17.12 5.16-.3 4.45 17.3-8.12 3.37 1.36 51.53-20.69 1.95.33 28.49-9.44 15.36-1.06 22.76-3.34-.57-5.5z" class="B"></path></g><path d="m477 190.39-5.5 82v17.77l15.84-67.84 3.99-39.97-14.33 8.04z" class="V Z"></path><path d="m515.82 303.5 2.41-10.73 3.27-2.61-3.27 11.59-2.41 1.75zm5.68-14.62v-5.38l1.25-3-.62 7.43-.63.95zm2.02 1.28 1.36-1.28.74 1.28h-2.1zm3.81 37.59 3.34-5.75 1.61-1.86-1.61 6.54-3.34 1.07zm-25.28-149.32v7.74l1.89-2.17-.94-7.25-.95 1.68zm28.62 22.82 1.61 5.87 2.05 1.73-2.77-8.85-.89 1.25zm.89 6.67-1.81 2.74 1.81 1.01h2.37l-.06-1.88-2.31-1.87zm31.04 70.33L565 272h2.25l-2.33 5.62-2.32.63zm25.23-19.75 1.5-6.17 3.38-4.24-4.88 10.41zm-36.34 95.71 1.36-6.96 1.23 8.5h-1.29l-1.3-1.54zm2.59-9.04 1.92-4.55v4.55l-.96 2.25-.96-2.25z" class="h"></path><path fill="url(#R)" d="m372.12 341.37-39.93 5.88-39.67-147.06 3.24-30.52 10.57-7.85 11.27-9.57 4.33 2.08 10.26 20.86 4.44.96 12.15 21.18 1.11 1.91 16.31 76.26h4.72l1.2 65.87z"></path><path fill="url(#S)" d="m353 268.75-.83.33 2.99 73.82-1.34.12-5.32-90.27-10-32.73.33-3.86-13.66-29.99-5.84 5.83-.5 15.17 12.11 35.5 11.68 13.66v45.42l2.41 3.34 1.99 38.73-14.83 3.43-39.67-147.06 3.24-30.52 10.57-7.85 11.27-9.57 9.4 33.92 9 5.83-3.81-16.81 4.44.96-1.63 4.57 18 86.61 13.2 8.17 1.44.38h-3.56L353 268.75z" class="X" style="mix-blend-mode:multiply"></path><path fill="url(#T)" d="m336 192-4.44 8.19 7.27 15.97-.33 3.86 10 32.73 1.27 21.56 2.4-5.23.83-1.75-18-86.61-2.08-2.29L336 192z" class="X" style="mix-blend-mode:multiply"></path><path fill="url(#U)" d="m325.17 186.17-5.84 5.83-6.41 10.97h-20.4l3.24-33.3 21.84-17.42 9.4 33.92h-1.83z" class="X" style="mix-blend-mode:multiply"></path><path fill="url(#V)" d="m330.94 242.67-13.34 31.64 4.33 13.7 20.69-31.68-11.68-13.66z" class="X" style="mix-blend-mode:multiply"></path><path fill="url(#W)" d="m342.62 301.75-12.54 1.75v9.5l14.95-7.91-2.41-3.34z" class="X" style="mix-blend-mode:multiply"></path><path fill="url(#X)" d="M800 0h-34.19l-15.88 5-8.54 5.33-32.57.67-6.49 2.54-.02 6.79L656.72 66h-3.26v16.33h-10.17l-3.67 3-8.54 13.34-15.88 10-15.87 9 3.25 43.33-.4 66.33-2.85 2.34-3.26 30.66-3.26 4.67-12.31 82.25V400H800V0z"></path><path fill="url(#Y)" d="M653.46 82.33V99l-43.04 126.5v6.25l-10.99 45.75V305l-14.05 48.75L580.5 400v-52.75L592.81 265l3.26-4.67 3.26-30.66 2.85-2.34.4-66.33-3.25-43.33 31.75-19 8.54-13.34 3.67-3h10.17z"></path><path fill="url(#Z)" d="m592.71 367.75 30.22-48.25 9.16-10 9.16-19.5 4.89-6.5 7.32-39 13.44-9 15.87-51.5 22.59-47 7.94-65-10.99-51.67L656.72 66h-3.26v33l-43.04 126.5v6.25l-10.99 45.75V305l-14.05 48.75 7.64 1.5-.31 12.5z"></path><path fill="url(#a)" d="m607.45 384.9 16.3-33.23 25.59-22.34 4.12-13.66-6.92-14 15.88-44.55 15.06-7.79 6.1-8.16 13.44-56.5 8.95-23.67-1.94-21.23 1.33-2.77 3.46 26.33v6.34l-22.39 67.66-20.35 89.35-16.74 63.77-41.89-5.55z" class="V" style="mix-blend-mode:multiply"></path><path fill="url(#b)" d="m699.15 393.89 9.67-49.67 24.63-42.55 4.27-17.17-4.27-54.5 4.27-60.33L713.3 149l-7.48-15.78.76-6.22 2.24 9 7.33 12.67 28.59 21 3.97 6.08L739.86 297l-15.11 33.75-2.6 11.5-4.1 52.19-18.9-.55z" class="V" style="mix-blend-mode:multiply"></path><path fill="url(#c)" d="m708.82 11 11.81 19 9.15 27 10.99 61.67 7.94 42.33-4.27-53-4.28-82.5 1.23-15.17-32.57.67z" class="V" style="mix-blend-mode:multiply"></path><path fill="url(#d)" d="M800 0h-34.19l24.83 137-7.74 86.17-5.29 112.5 13.79 60.9 8.6.25V0z" class="V" style="mix-blend-mode:multiply"></path><path fill="url(#e)" d="m702.31 20.33-4.75 4.76 4.75 43.69-9.36 84.89-14.66 34.35-11.39 35.15-8.08-3.17-14.31 6.84L632.3 230h-15.32l-7.9 7.33 7.9-5.33 6.57 1.17 22.79 6.5 3 1.5-9 44.33-2.63 12.04 3.54-7.54 4.89-6.5 7.32-39 13.44-9 15.87-51.5 22.59-47 7.94-65-10.99-51.67z" class="V" style="mix-blend-mode:multiply"></path><path fill="url(#f)" d="m635.86 150.74 4.48 1.51 20.85-12.75 9.67-10.75 5.19-12.5 4.89-6.25 14.04-17.5 5.8-9.88-4.58 11.21-8.14 12.17-17.09 26.83-17.51 17-15.87 9.11-2.64-5.53.91-2.67z" class="V" style="mix-blend-mode:multiply"></path><path fill="url(#g)" d="M643.29 82.33v26.84l-7.41 21.61-.93-3.78-1.43-16.5-2.44-11.83-8.73 6.28 4.12 32.05-.97 30.8 3.34-18.47 7.04-18.55-.93 2.72-6.11 15.83-8.48 46.95L653.46 99V82.33h-10.17z" class="V" style="mix-blend-mode:multiply"></path><path fill="url(#h)" d="m611.57 222.1-4.31 6.4-8.14 42.33-2.85 10.34v15.16l-5.29 13h-1.83l-.7-15.19-1.45 9.68 1.13 3.18 1.02 4.17 4.07 3.83-2.44 20.03-8.75 16.64 3.35 2.08L599.43 305v-27.5l10.99-45.75v-6.25l1.15-3.4z" class="V" style="mix-blend-mode:multiply"></path><path fill="url(#i)" d="m699.15 393.89 9.67-49.67-28.9-32.09-9.22-5.71-4.62 20.26-16.74 63.77-41.89-5.55 16.3-33.23 25.59-22.34 4.12-13.66-6.92-14 15.88-44.55 9.36 14.24h4.07l1.63-22.03 6.1-8.16 13.44-56.5 11.8-15-24.06 75L673 301.33l6.51 7 36.24 23.92 17.7-30.58 4.27-17.17-3.95-50.37 10.98-4.13-4.89 67-15.11 33.75-6.7 63.69-18.9-.55z" class="V" style="mix-blend-mode:multiply"></path><path fill="#ff5e31" d="m607.45 344.22 9.53 7.45h6.77l25.59-22.34 4.12-13.66-21.37-6.17-9.16 10-15.48 24.72zm54.97-87.1-8.96-12.62 13.44-9 14.65-5.5 2.03 1.67v9.5l-6.1 8.16-15.06 7.79z" class="X"></path><path d="M638.16 237.33 616.98 232l-7.9 5.33-9.65 40.17V305l-14.05 48.75 7.64-1.81 7.93-5.48 29.51-41.21 7.25-7.71 11.15-54.04.48-2.33-11.18-3.84z" class="W a"></path><path fill="#ff4816" d="m673 301.33 35.82-131.66 4.48-10.73 3.66-4.61 20.76 15.34-4.27 60.33 4.27 52.75-4.27 18.92-17.7 30.58-36.24-23.92-6.51-7z" class="W"></path><path fill="#ff632f" d="m724.75 330.75 20 7.89 33.02-6.39 2.09-44.32v-34.84l-35.64-15.76-4.36 59.67-15.11 33.75zM706.58 127l6.72-55-10.99-51.67.02-6.79 6.49-2.54 11.81 19 9.15 27 14.97 104-2.55 3.83-26.05-16.16-7.33-16.34-2.24-5.33z" class="W"></path><path fill="#81462f" d="M741.39 10.33v33.34l7.32 144.65 34.19 34.85 7.74-86.17L765.81 0l-24.42 10.33z" class="W"></path><path fill="url(#j)" d="m593.02 355.25-.31 12.5 14.74-23.53 15.48-24.72 9.16-10 9.16-19.5 4.89-6.5 7.32-39 13.44-9 15.87-51.5-4.88 6.83-10.99 32.34-8.08-3.17-14.31 6.84L632.3 230h-15.32l13.48 3.17L640.5 238l8.84 3.17-11.63 56.37-7.25 7.71-29.51 41.21-7.93 5.48v3.31z" class="V" style="mix-blend-mode:multiply"></path><path fill="url(#k)" d="m640.34 152.25 5.28 2.08 7.84-4.5 17.51-17 5.52-17.14-5.63 13.06-9.67 10.75-20.85 12.75z" class="V" style="mix-blend-mode:multiply"></path><path fill="#b33a4a" d="m716.96 154.33-3.66 4.61-4.48 10.73-25.59 94.06 17.55 12.15 8.04-7.41 15.11-41.63.82-65.84-7.79-6.67zm19.44 33.99-4.78 3.63-2.85 30.15v10.57l5.55 8.5-.87-11.17 2.95-41.68z" class="W"></path><path fill="#ff4627" d="m649.34 390.45 21.36-84.03 9.22 5.71 28.9 32.09-9.67 49.67-30.63-.89-19.18-2.55z" class="W"></path><g class="a"><path d="m610.42 225.5 6.56 4.5h15.32l28.89-38.05 9.78-59.12-17.51 17-15.87 9.11-2.64-5.53-24.53 72.09zm65.68-100.73 4.7 57.37 12.15-28.47 7.83-71.05-4.58 11.21-20.1 30.94zm-40.24 25.97L653.46 99l7.73-13.33 17.92-7.34 4.47 7.34-7.09 30.02-5.63 13.06-9.67 10.75-20.85 12.75-4.48-1.51zm46.91-110.91v36.42l3.36 9.42h7.94l8.24-16.89-4.75-43.69-14.79 14.74z" class="W"></path></g><path fill="#ff3810" d="m741.39 10.33 3.05 97.67 4.27 80.32 34.19 34.85 7.74-86.17L765.81 0l-15.88 5-8.54 5.33z" class="W"></path><path fill="url(#l)" d="m800 282.05-20.14-28.96-35.64-15.76 38.68 15.42 17.1 21.56v7.74z" class="Y" style="mix-blend-mode:multiply"></path><path fill="url(#m)" d="m779.53 294.92-2.73 3.88-35.41-1.94-1.24-3.85-.29 3.99-1.65 3.69 2.67-2.44 36.63 2.44 1.7 1.06.32-6.83z" class="Y" style="mix-blend-mode:multiply"></path><path fill="url(#n)" d="m741.98 55.38 28.56-21.63.84-2.99 1.23 6.75-1.46-1.89-27.32 19.76-1.99 4.12.14-4.12z" opacity=".8" style="mix-blend-mode:multiply"></path><path fill="url(#o)" d="m781.33 85.67-1.02 3.08-35.56 6.13-1.08-1.88.31 6.75.77-3.13L781.33 91l1.28 1.71-1.28-7.04z" opacity=".8" style="mix-blend-mode:multiply"></path><path d="m666.9 223.17-8.08-3.17 2.37-13.25 9.78-17.75 8.11-2.83-12.18 37zM616.98 232l-7.9 5.33-1.63 22.36 4.77 30.47 9.49 16.26 6.54 1.91 2.21-3.08 7.25-7.71 11.63-56.37-32.36-9.17zm-17.55 73 2.13-3.25L611.57 322l-2.49 13.07-8.13 11.39-7.93 5.48-7.64 1.81L599.43 305z" class="W a"></path><path fill="url(#p)" d="m791.4 396.57-13.63-64.32 1.44-30.5-2.41-2.95 2.73-3.88.33-41.83 1.68-.88 1.36-29.04v29.58l2.26 7.97-2.26-3.25v48.95l9.77 50.58 7.33 19.83v19.99l-8.6-.25z" class="V" style="mix-blend-mode:multiply"></path><path fill="url(#q)" d="m771.15 35.62 1.46 1.89 8.72 48.16-1.02 3.08 2.3 3.96 8.03 46.59v-23.61l-9.75-49.94-3.48-55.42.91-10.33h-12.51l5.57 30.76-.23 4.86z" class="V" style="mix-blend-mode:multiply"></path><path fill="url(#r)" d="m720.63 30 19.87-8.7 2.51 53.7-13.23-18-9.15-27z" class="V" style="mix-blend-mode:multiply"></path><path fill="#ff3810" d="m713.3 72 17.8-5.83L744.75 161l-2.55 3.83-26.05-16.16-9.57-21.67 6.72-55z" class="W"></path><path d="M800 234.13 782.9 232l-37.92-5.16-10.97-4.74-40.24 2.9-1 3.67-5.78-1.83h-17.43l-2.66 8.66 14.65-5.5 2.03 1.67 6.67 6.26 1.3-4.76 41.9-6.33 10.77 7.29 37.99 3.87 17.79 6.67v-10.54zm0 130.62-4.97-1.38h-11.15l-63.5 1.38-15.02-4.08-47.22-6.92-25.86-9.53-21.33-5.58-1.87 2.98 19.73 5.63 27.06 17.5h48.12l16.58 5.75 64.3-2.75 12.79 2.75 2.34 6.33v-12.08zm0-312.5h-24.72L742.6 66.17l-11.9-3.67-19.05 1.72.41 1.95-9.75 2.61L679.08 75l-17.89 10.67-6.73 11.61v-4.57l6.73-10.38 17.89-9.72L701.3 59.5h9.34l-.88-4.12 17.47-7.23 14.61 4.56 31.67-10.21H800v9.75z" class="F i"></path><g class="b"><path d="m706.58 127 6.72-55-10.99-51.67.02-6.79 6.49-2.54 10.75 17.31L729.78 57l2.04 15.61h-4.59v-2.72h-3.7l-2.9 48.43-1.88 2.46 1.88-38.16-3.57 3.05-.91 63-9.57-21.67z" class="V"></path><path d="m748.71 188.32-3.96-91.7 14.17-2.17 6.89 83.05 3.66.5-3.66-38 3.66-.7 3.14 54.25 2.66.49 4.26-80.45 5.71-6.35 5.4 29.76-7.74 86.17-34.19-34.85z" class="W"></path><path d="m635.86 150.74 4.48 1.51 20.85-12.75 7.33-26.17h-4.23l-9.83 21.68-5.12 1.99 14.95-47-3.1-4.33-6.73 11.61-18.6 53.46z" opacity=".83"></path></g><path fill="#d83c16" d="m658.82 220 2.37-13.25 9.78-17.75-1.07-49.7-3 3.2-5.71 49.45-2.78 4.33 4.3-49.61-1.52 2-7.73 53.45-12.77 16.82-23.33 1.06-6.15 3.17-.79 2.33 6.56 4.5h15.32l11.28-2.92 15.24-7.08z"></path><g class="b"><path d="m738.21 300.69-13.46 30.06 20 7.89 18.45-3.57 4.49-35.03h-1.68l-4.32 32.21-2.82 1 4.51-33.5-15.58-1.04-11.4 30.41h-2.95l8.85-30.41-1.42-.46-2.67 2.44zm-14.68-1.89 2.14-10.87v9.45l-2.14 1.42zm-6.47 11.2 2.96-3.58-2.96 12.03-8.24 1.35 8.24-9.8zm-20.5 40.93-1.39-3.04 1.39-3.03 3.17 4.41-3.17 1.66zM673 301.33l10.23-37.6-6.74 41.36-3.49-3.76z" class="W"></path><path d="m767.69 275.5-1.88-11.77 3.2-5.23-1.32 17z" class="V"></path><path d="m769.01 274.88 1.68-3.38 1.42 1.69-1.55 1.69h-1.55z" class="W"></path><path d="m708.82 198.41 4.48-12.24 3.76 7.38-4.12 6.45-4.12-1.59z" class="V"></path><path d="m628.4 326.68 6.55-4.61 8.74-.07-8.74 4.68h-6.55zm6.55 9.65 1.09-2.83h3.18l-4.27 2.83z" class="W"></path></g><path d="m599.33 117.67 3.25 43.33v43.81l14.4-14.42 9.49-53.39-4.12-32.05-23.02 12.72z" class="V Z"></path><g fill="#ffa768"><path d="m599.33 229.67 7.93-1.17 3.16-3-8.24 1.83-2.85 2.34zM592.81 265l3.99 3.84-.73-8.51-3.26 4.67z"></path><path d="m616.98 232-7.9 5.33 21.38.67 18.88 3.17-32.36-9.17z" style="mix-blend-mode:soft-light"></path></g><g class="b"><path d="m663.67 347.42 4.85-15.17.43 9.65-5.28 5.52zm24.77 2.73v-4.98l7.23 5.45-7.23-.47zm47.96 6.03v-5.56l4.99-2.73-4.99 8.29zm46.5 28.45-6.1-32.6v18.66l6.1 13.94z" class="W"></path><path d="M757.22 79.83V67.67l3.03 2.22v9.94h-3.03zm5.92 2.5h2.67v5.59l-2.67-5.59z" class="V"></path></g><path fill="#ef4b16" d="m633 200 1.95-8 .91 8H633z"></path><g class="b"><path d="m645 193.08-4.66 6.28-2.6 10.05 7.26-16.33zm23.95-81.5 4.05-8.79-2.03 12.9-2.02-4.11zm55.71 11.87v11.6l-2.26-7.86 2.26-3.74z"></path><path d="M756.15 33.86V20.33l2.72-5.66L760.25 36l-4.1-2.14zm5.6 3.26v-5.06l1.31-1.3 1.75 6.36-2.31 1.38-.75-1.38z" class="W"></path><path d="m713.3 184.65 1.37-6.22 1.83 3.71-3.2 2.51zm-7.94 73.85 1.22-4.5v5.69l-2.59 1.03 1.37-2.22zm7.94 51.5 3.82-4.91v-4.97L713.3 310z"></path></g><path fill="#ef4b16" d="m618.67 272 3.16-10.28v7.89l-3.16 2.39zm4.33 0-1.17 7.21 2.34-5.54L623 272zm45.52-168 1.6-8.63-1.6 3.13v5.5z"></path><path d="M609.08 129.25V137l2.68 5.11-2.68-12.86zm0 12.86 1.34 1.77-.67 3.12-.67-4.89zM601.25 238v11l1.37-4.33-1.37-6.67zm1.37-1.74 2.25-5.01-1.12 4.33-1.13.68zm13.26-74.01-1.5 10.75 1.5 4.62 1.87-.87V161l-1.87 1.25zm1.87-3.31v-4.61l1.75-2.08-.88 6.69h-.87z" class="h"></path><path fill="url(#s)" d="m135.8 0 16.68 11.33v3.33l21.01 20.58 4.93 7.25s31.38 8.25 44.86 14.5c0 0 11.93 16.75 14.52 25.5l1.82 44.5 32.93 17.5-.85 16.5 16.93 14.75h3.89l2.07 7 6.22 17.25 7.26-2 3.37 2 8.3 16.75 10.11 30 2.33 19.5-2.33 4.75 2.33 76.25v52.75H0V0h135.8Z"></path><path fill="#ff723e" d="m139 199.5 7.6 13.06 6.23 7.44 8.99 5 9.68 8.67 8.99 3.66h10.72v-8.66L180.49 189l-5.53-56.67-9.86-40-12.27-48.66-3.57-34.52L135.8 0H92.56l36.06 147.33L139 199.5z" class="W"></path><path d="m194.32 233 4.49 15.08 20.06 42.25L244.8 313l26.28 16.33h4.15L244.11 262 204 158.67l-17.29-12h-4.84l3.11 45.3 1.47 10.53 7.87 30.5z" class="W a"></path><path fill="#ff722a" d="m174.78 268 16.43 7.5h12.44l4.33-1.83-20.06-29-1.21 3.41-14.17-1.91-13.83-8.84-10.55-14.16L174.78 268z" class="W"></path><path d="m0 82.33 21.78 40L29.04 141l24.55 23.67 13.14 14 5.53 3.66 25.94 6.34h5.87l-6.56-11-51.52-89L13.14-.1 0 0v82.33z" class="W a"></path><path fill="url(#t)" d="m13.14-.1 32.85 88.77 58.08 100 27.15 93.08 23.77 44.93 13.57 50.57L0 384V0l13.14-.1z" class="V" style="mix-blend-mode:multiply"></path><g class="a"><path d="m141.89 378.32-12.92-17.99-60.51-52h-6.22l-5.19 2.34V322l13.49 29.67 3.54 2.66 8.56 1.67 14.52 24.11 44.73-1.79z" class="W"></path><path d="m223.28 57-3.03 35v21l3.03 36 5.27 14.33 6.92 6.33 4.15-42.67-1.82-44.5s-7-18.5-14.52-25.5Z" class="V"></path></g><path fill="#ff722d" d="m25.41 0 19.71 35.5 6.92 5L86.1 82.33l13.37 3.17h4.6L81.95-.1 25.41 0z" class="V"></path><path fill="url(#u)" d="m0 82.33 21.78 40L29.04 141l-3.63 34.67V315l19.71 67.19L0 384V82.33z" class="Y" style="mix-blend-mode:multiply"></path><path fill="url(#v)" d="m25.41 0 19.71 35.5 6.92 5L86.1 82.33 77.8 103l7.26 42.29-23.95-62.96L58.78 61 29.04 31.33 16.94-.07l8.47.07z" class="V" style="mix-blend-mode:multiply"></path><path fill="url(#w)" d="m81.95-.1 22.12 85.6v12l7.61 12.83 5.19 18.34L128.62 161l6.57 36.33 15.56 40 23.51 75L184.98 357v19.14l10.72-.73-10.72-28.16-6.91-49.25-3.29-30-26.62-44.83 4.67-3.17L139 199.5l-8.36-42.03L92.56 0 81.95-.1z" class="V" style="mix-blend-mode:multiply"></path><path fill="url(#x)" d="m49.79 161 7.26 27.02v45.15L54.54 311v36.25l2.51 34.47 40.11-1.61L82.64 356l-8.56-1.67-3.54-2.66L57.05 322v-11.33l5.19-2.34h6.22l60.51 52 12.92 17.99 3.34-.14-14.53-22.51L119.63 341l-2.07-4.33 2.07-35-2.42-4.67-20.4-13.67-19.01-26v-8l10.37 9.34 4.39 5.66L87.82 238l-14.86-23-.7-8.33-2.28-25.85L49.79 161z" class="Y" style="mix-blend-mode:multiply"></path><path fill="url(#y)" d="m152.48 14.67.35 29 18.21 72.77 3.92 15.89 5.53 56.67 10.72 39.67v8.66l-3.29 7.34 20.06 29 17.46 44.66 14.17 54.11 12.52-.85-14.59-19.92-11.41-43.34-7.26-18-20.06-42.25-12.36-45.58-4.58-55.83-10.72-43.34L159.05 52l-6.57-37.33z" class="V" style="mix-blend-mode:multiply"></path><path fill="url(#z)" d="M178.41 42.5 174.95 90l3.46 21.5L204 158.67l34.71 89.42-12.92-56.12 2.77-28.63-5.27-14.33-3.03-36v-27.5l3.03-28.5s-35.87-13-44.86-14.5Z" class="V" style="mix-blend-mode:multiply"></path><path fill="url(#AA)" d="m239.61 127-.9 46 .9 45.5 1.04 34.59L274 326.68l-4.56-18.35-15.82-32.83-4.15-17.25-2.59-31.41 12.44 5.16 10.03-2-14.95-3.16-4.41-3.67-2.04-91.74-8.34-4.43z" class="V" style="mix-blend-mode:multiply"></path><path fill="#ff682f" d="M77.8 257.33v-8l14.76 15 4.25 7.03 14.7 9.89 19.71 3.5v-3l23.77 44.93-35.36-25.01-2.42-4.67-20.4-13.67-19.01-26z" class="V"></path><path fill="url(#AB)" d="m57.05 310.67-2.3-6.17.47-14.34 16.7 18.17 28.87 25.84 6.74 1.16 10.03 1.34 2.07 4.33 11.07 14.67 14.53 22.51-3.34.14-12.92-17.99-60.51-52h-6.22l-5.19 2.34z" class="V" style="mix-blend-mode:multiply"></path><path fill="#ff682f" d="M191.21 237.33v-8.66L180.49 189l-20.4-34.67-29.05-15.03.3 21.7 7.66 38.5 13.83 20.5 8.99 5 9.68 8.67 8.99 3.66h10.72zM29.04 141l40.94 39.82 11.97 3.88 16.25 3.97h5.87l-58.08-100h-8.65L0 72v10.33L29.04 141z" class="V"></path><path fill="#ff722d" d="m92.56 0 13.95 57 22.11 37.28 19.54 6.22-2.93-27.9-6.41-41.1 13.66 54.17 8.65 33 13.83 13.66-22.13-88.66-.35-32.34L135.8 0H92.56z" class="V"></path><path fill="#ff723e" d="M85.06 145.29 122.75 161h5.87l-11.75-32.33-5.19-18.34-7.61-12.83L77.8 103l7.26 42.29z" class="V"></path><path fill="url(#AC)" d="m239.61 372.44-14.17-54.11.69-10 11.41 43.34 14.59 19.92-12.52.85z" class="V" style="mix-blend-mode:multiply"></path><path fill="url(#AD)" d="M184.98 376.14V357l-14.63-57.17 4.43-31.83 10.2 79.25 10.72 28.16-10.72.73z" class="V" style="mix-blend-mode:multiply"></path><path fill="url(#AE)" d="m152.75 36.34-1.48 3.49-12.45-1.75-38.38-9.91-1.9-3.17 1.21 5.83 44.09 9 8.99 3.84-.08-7.33z"></path><path fill="url(#AF)" d="m104.07 47.61 50.31 22.06 3.72-.17.34-3.33 1.63 6.44-47.7-20.11-7.09.17-1.21-5.06z"></path><path fill="url(#AG)" d="m174.96 132.33-13.83-13.66-24.55-2.34-7.96-18.83v-3.22L106.51 57l24.13 100.47.4-18.17 29.05 15.03 20.4 34.67-5.53-56.67z" class="V" style="mix-blend-mode:multiply"></path><path fill="url(#AH)" d="m29.04 141 52.91 12.75 4.15 3.96-4.98-8.35-.34 2.52-38.42-8-14.8-5.87 1.48 2.99z"></path><path fill="url(#AI)" d="m121.76 249.33-15.25-1.25-10.56 1.25-6.31-1.25-.42-2.31 1.15 1.78 5.45 1.24 10.44-1.24h12.83l1.64-1.78 1.03 3.56z" class="Y" style="mix-blend-mode:multiply"></path><path fill="url(#AJ)" d="m181.87 323.07 41.15 11.17h5.53l1.27.83-.71-2.71-1.08.97-5.83.34-38.25-12.09-3.13-6.68 1.05 8.17z" class="Y" style="mix-blend-mode:multiply"></path><path fill="url(#AK)" d="M184.98 347.25h6.23l35.7 6.96 5.18-.46 1.81-3.13 1.57 6-5.65-1.5-39.22-6.87-4.72 1.36-.9-2.36z" class="Y" style="mix-blend-mode:multiply"></path><path fill="url(#AL)" d="m139 199.5 13.83 20.5-4.67 3.17 22.19 37.36 4.43 7.47-8.68-8.75-12.7-13.48-18.21-48.44 3.81 2.17z" class="V" style="mix-blend-mode:multiply"></path><path fill="url(#AM)" d="m156.61 222.1 4.52 4.74-2.42 10.49 13.83 8.84 2.24-8.84h5.71l-8.99-3.66-9.68-8.67-5.21-2.9z" class="W" style="mix-blend-mode:multiply"></path><path fill="url(#AN)" d="m136.58 116.33-5.54 22.97-.4 18.17-9.38-38.8-9.58-8.34-7.61-12.83v-12l-5.12-19.81 7.56-8.69 22.11 37.28v3.22l7.96 18.83z" class="Y" style="mix-blend-mode:multiply"></path><path fill="url(#AO)" d="m187.92 244.67 3.29-7.34v-8.66h2.34l5.26 19.41 11.77 24.78-1.1 4.66-1.5-3.85-20.06-29z" class="V" style="mix-blend-mode:multiply"></path><path fill="url(#AP)" d="m45.12 35.5 4.67 3.38v-4.55L81.95 8l2.33.93-1.34-5.2-.99 2.51-34.36 28.09-2.47 1.17z" class="V" style="mix-blend-mode:multiply"></path><path fill="url(#AQ)" d="m29.04 31.33 11.07 3L25.41 0l19.71 35.5 6.92 5L86.1 82.33 77.8 103l-7.22 4.24-9.47-24.91L58.78 61 29.04 31.33z" class="V" style="mix-blend-mode:multiply"></path><path fill="url(#AR)" d="M81.95-.1 91.28 36l6.43-14.7L92.56 0 81.95-.1z" class="V" style="mix-blend-mode:multiply"></path><path fill="url(#AS)" d="M25.41 175.67 0 212.56V384l45.12-1.81-19.19-62.52-.52-144z" class="V" style="mix-blend-mode:multiply"></path><path fill="url(#AT)" d="m174.96 90 45.63-7.67-.34 30.67 3.03 36-16.45 16.96-28.42-54.46-3.45-21.5z" class="V" style="mix-blend-mode:multiply"></path><path fill="url(#AU)" d="m219.01 197.33 6.77-5.36 12.93 56.11-19.7-50.75z" class="V" style="mix-blend-mode:multiply"></path><path fill="url(#AV)" d="m168.74 107.24 2.41-3.91 10.72 43.34L186.1 200l-5.61-11-5.53-56.67-6.22-25.09z" class="V" style="mix-blend-mode:multiply"></path><path d="m0 226.84 25.41-3.67 31.64 10 25.6-3.17 34.25 2.67 2.07 7.09 33.51 3.57h7.66l34.63 11.24 6.26-1.82 43.08 9.25 5.2-5.67h13.41l.79 5.67-14.04-3.75-3.55 6.46h-2.5l-39.07-4.97-3.71 3.31-38.82-16.88-6.23 6.58h-32.83l-3.64-11.08-1.78-5.73-31.24-1.81h-1.82l-28.53 3.2-30.34-10.49L0 228.67v-1.83zm0 19.33 25.41-2.23 10.9 3.61 20.1 5.54 21.39-3.76 11.42 3.42 34.59 3.58 4.38 15.03 32.94-.94 14.62 5.08 23.5 7.5 13.79 3.61 2.72-2.82 40.59 4.71 2.97-1.16 9.28 1.16 1.31 4.51-9.23-2.85-1.36 2.85-41.56-5-2.22 5L177.42 279l-15.08-4.69-32.36 3.21-4.92-14.02-32.5.83-6.98-8-7.78-3.58-22.05 11.96H39.42l-14.18-3.04L0 264.71v-18.54zm0-115.84 17.99-11.66L65.93 123l9-4.33 4.64-5.34h32.96l2.74 9.67 21.31-6.67 24.55 2.34 13.83 13.66 2.16-6.08 12.32 5.13 30.47-21.05 18.8 18.92v8.76l9.42 1.29 23.94 14.38-.82 15.99-22.85-18h-9.27l-.9-9.34-1.99-10-15.56-11.83-29.47 14.58-12.88-2.75-2.82 5.68.96 9.85-31.24-18.61-12.03 1.08-6.13 12.42-8.87-10.42-1.81-5.34L81.95 123l-2.99 6.25-8.77 1.08-1.94-3.33H22.11L0 145.29v-14.96z" class="F i"></path><path fill="url(#AW)" d="m229.82 335.07 2.48-3.31 12.85 1.66 28.85 2.91-29.03-4.57-13.62-3.6-2.24 4.2.71 2.71z" style="mix-blend-mode:multiply"></path><path fill="#ff4824" d="m229.82 335.07 4.08 15.55-1.81 3.13-5.18.46-35.7-6.96h-6.23l-3.11-24.18 41.15 11.17h5.53l1.27.83zM97.16 380.11 82.64 356l14.52-19.67-.87-4.08 32.68 28.08 12.92 17.99-44.73 1.79zM29.04 141l40.94 39.82 28.22 7.85h5.87L86.1 157.71l-5.32-5.83-38.77-6.59L29.04 141z" class="W"></path><path fill="url(#AX)" d="M77.8 249.33 73.13 230l-.17-15 14.86 23 4.74 26.33-14.76-15z" class="Y" style="mix-blend-mode:multiply"></path><path d="M0 277.52h25.41l30.34 4.81L54.54 311l-28.65-2.67H0v-30.81z" class="F i"></path><path fill="url(#AY)" d="m74.08 354.33-10.81 25.78-6.22 1.61-2.51-58.65 2.51-1.07 13.49 29.67 3.54 2.66z" class="V" style="mix-blend-mode:multiply"></path><path fill="url(#AZ)" d="m25.93 319.67-3.37 32.27-5.62 29.78 28.18.47-19.19-62.52z" class="V" style="mix-blend-mode:multiply"></path><path fill="url(#Aa)" d="M104.07 47.61 97.51 57l7.77-4.33 7.09-.17-8.3-4.89z" class="Y" style="mix-blend-mode:multiply"></path><path d="m268.1 327.48-7.54-16.59-1.24-15.97 15.91 34.41h-4.15l-2.98-1.85zm-39.55-28.68-16.1-43.6-13.2-22.03-7.48-11.07 7.04 25.98 20.06 42.25 9.68 8.47zm-68.46-144.47 12.45 31.34L186.1 218l3.33 4.1-8.94-33.1-20.4-34.67zm-24.05 30.28 9.19 3.41 11.38 22.65 5.21 14.33-8.99-5L139 199.5l-2.96-14.89zm36.5 61.56 18.67 29.33h12.44l4.33-1.83-20.06-29-1.21 3.41-14.17-1.91zM27.56 84.3l17.56 31.37L55.75 127l13.4 21.67 11.63 3.21.34-2.52-35.13-60.69h-8.65l-9.78-4.37zm22.23-45.42v-4.55L61.19 25l33.22 59.3-8.31-1.97-36.31-43.45z" class="W a"></path><path fill="#ffa44a" d="m223.28 57 5.27 34 4.84 9.33v67.44l2.08 1.9 4.14-42.67-1.81-44.5L223.28 57z" class="W"></path><path d="M215.39 188.02h-8.56L202.31 208l8.27 29.33 18.53 12 11.54 3.76-25.26-65.07zM96.29 332.25l.87 4.08-7.94 10.76 19.7 13.58 20.05-.34-32.68-28.08zm-39.24-21.58 17.03 9 13.76 5.31-19.38-16.65h-6.22l-5.19 2.34zm-31.64-135 2.15-20.53 3.47 9.69 14.09 27.12-5.7 72.76-14.01 12.81V175.67zM111.75 215v11.84l4.64 17.1 4.34 1.83-8.98-30.77zm19.29-75.7 5 21.7 5.85 14.67 26.85 13V183l-8.65-28.67-29.05-15.03zM0 72l11.41 10.33L29.04 97.5l6.23 22.73-7.71 10.1-2.81 2L0 82.33V72zM47.72-.1l11.15 14.77 8.75 3.28L81.95 6.24l.99-2.51-.99-3.83H47.72z" class="W a"></path><path fill="#ffa44a" d="m131.04 0-14.8 8.93 1.32 23.66 33.71 7.24 1.48-3.49-.27-25.01L131.04 0z" class="W"></path><path fill="#ff5e00" d="m259.32 232-12.44-5.16 2.59 31.41 4.15 17.25 15.82 32.83 5.79 3-9.29-32-6.62-47.33z" class="W"></path><path fill="url(#Ab)" d="m239.61 127 8.34 4.43v53.18l2.04 38.56 4.41 3.67h-7.52l2.59 31.41-2.09 10.84-6.73-16L239.61 127z" class="V" style="mix-blend-mode:multiply"></path><path d="m178.33 132.33 12.88 2.75L204 158.67 191.77 143l-12.04-4.99-1.4-5.68z" class="b"></path><path fill="#d62d16" d="m238.71 248.08-8.39-36.42 4.19-37.96.96-4.03-4.02 40.33 3.06 6.33 2.72-55.33 1.9-9.33-.42 96.41zM128.62 161l6.57 36.33 17.29 46-2.59-.27-18.13-45.73-6.77-1.83 13.75 46.37-10.12-.7-19.52-50.78-.41-35.25 14.06 5.86h5.87z"></path><path d="m155.23 17.36 7.16 48.81h3.71l-4.28-31.84 6.92 4.08 3.8 47.09 2.42 4.5 3.45-47.5-4.92-7.25-18.26-17.89z" class="b"></path><g fill="#d62d16"><path d="m13.14-.1 22.52 60.85-4.2-2.25-3.9-15.8-2.15-1.87-6.39-10.5L32.33 72l-.35 4.5-2.24 2.67 1.55 6.33-4.96-1.75L7.26 14.67l-2.07 1.16V25l9.33 27.95 5.03 17.64-.71 1.41L8.13 34.33 0 28.17V0l13.14-.1z"></path><path d="m58.78 61 5.92-4.95 1.51 2.48-5.4 6.35.65 1.29 6.04-6.1 8.61 10.05-10.9 22.98-.51-1.33L74.56 71 73 68.5 61.11 82.33 58.78 61z" opacity=".81"></path></g><g fill="#ef4916"><path d="m247.95 131.43 1.46 65.9 2.72 5.17v-38.51l2.27-2.99v8.67l4.92 12.52 1.73 1.81 5.68-40.25 2.58 1.54v73.54l.04 11.17 3.2-85.5-24.6-13.07z" opacity=".81"></path><path d="m259.32 232-12.44-5.16 2.59 31.41 4.15 17.25 5.7 11.84 1.73.67-7.09-16.65-2.4-13.03 5.23 2.12 1.98 7.55-4.81 3.36 15.95 21.65L259.32 232zm-9.33-8.83 4.41 3.67 3.99.85-8.77-11.53.37 7.01zm9.33-1.07-2.97-5.94 2.97-11.7v17.64zm-60.07-52.43 3.06 9.58 4.52 1.47-7.58-11.05zm-54.02 83.63 4.66 16.87-.96-10.24-3.7-6.63zM77.8 161l8.3 11h3.12L77.8 161zm58.78-24 8.65-7.75-1.73 3.87v3l-6.92.88zm32.16 16 .79-1.33h2.87v7.71l-1.83-1.91-1.83-4.47zm4.52 8.82 1.5 4.68 1.22-1.67-2.72-3.01z"></path><path d="m199.25 102.17-.13 5.07 3.19 5.73-3.06-10.8zm-18.76-18.88 4.88-4.29 4.06-.67-.08 2.81-8.86 2.15zM86.1 311.33l8.31-18.45-1.85 13.54-6.46 4.91zm-2.59-4.91-2.39-4.32-3.32 1.4v2.92h5.71zm28.24 21.33.51-2.77 3.98 7.27h-4.49v-4.5zm-45.19 34.28-2.25-5.85 1.13-5.56 1.12 11.41z" class="V"></path><path d="m58.78 166.5 10.72 11.11 6.61 5.66 5.84 1.43-23.17-18.2z"></path><path d="m72.96 215-1.99-23 3.11 16.85-1.12 6.15zm32.53 5.02-1.42-15.21 4.62 15.21v7.03l-3.2-7.03zm-3.99 50.15 10.25 5.33h-5.12l-5.13-5.33zM22.56 148.93 21 172l-3.17-10.18 4.73-12.89zm-2.37-2.26 2.37-9.67-1.18-3.88-1.19 13.55z" class="V"></path><path d="m24.5 353.38 1.27 8.65 5.26-1.36-6.53-7.29zm.91 9.95-1.74 5.99 4.21 4.35v-5.17l-2.47-5.17z" class="W"></path><path d="m66.56 188.02-1.73 10.02 3.34 4.13-1.61-14.15z" class="X"></path></g><path fill="url(#Ac)" d="m271.69 161-2.34 45.33V230l-10.03 2 6.62 47.33 9.29 32v18l14.17 22.34 42.79-4.42V340l-2.33-69 2.33-4.75-2.33-19.5-10.12-30-8.29-16.75-3.37-2-7.27 2-8.29-24.25h-3.89L271.69 161z"></path><path fill="url(#Ad)" d="M288.63 175.75 285.51 210v11.75l-1.81 11.42 4.93-12.42 2.85-27.2 1.04-17.8h-3.89z" class="X" style="mix-blend-mode:multiply"></path><path fill="url(#Ae)" d="m260.07 237.33 10.4 3.84L288.11 253l11.67 22.5 3.63-15.5-12.71-14.25L269.35 230l-10.03 2 .75 5.33z" class="X" style="mix-blend-mode:multiply"></path><path fill="url(#Af)" d="m299.59 350.62-3.83-47.12 4.02-28 3.63-15.5 2.59-39v-5.75L300.81 200l7.27-2 3.37 2v15.5l2.07 22.5 8.82 10.08 7.17 10.25 2.68 7.92-2.33 4.75-1.38-10.17-2.77-4.16-12.79-10.34-5.36 18.67 1.21 15.67-1.04 34.66.7 34.37-8.84.92z" class="V" style="mix-blend-mode:multiply"></path><g class="Z"><path d="m288.11 253-4.41 29.05 4.41 15.49 7.65 5.96 4.02-28-9.94-19.17-1.73-3.33zm11.48 97.62-10.19 1.05-6.74-11.28-5.36-50.23 5.36-2.23 5.45 13.82 7.65 8.25 3.83 40.62zm13.33-104.29L307.56 265l.87 84.7 23.76-2.45-3.71-86.42-2.77-4.16-12.79-10.34zM311.45 200v12l2.07 26 8.82 10.08 1.42-19.41-4.83-13.57-7.48-15.1z" class="V"></path></g><path fill="url(#Ag)" d="m308.43 349.7-.35-46.2-4.67 6-7.65.5 3.83 40.62 8.84-.92z" class="X" style="mix-blend-mode:multiply"></path><path fill="url(#Ah)" d="M267.82 285.83h7.41l7.43 2.1 5.45 13.82 7.65 8.25v-6.5l-7.65-5.96-3.47-12.19-7.34-.41-3.89-1.44-6.68-1.45 1.09 3.78z" class="V" style="mix-blend-mode:multiply"></path><path fill="url(#Ai)" d="m270.47 241.17 8.82-3.84-9.94-7.33-10.03 2 .75 5.33 10.4 3.84z" class="X" style="mix-blend-mode:multiply"></path><path fill="url(#Aj)" d="m285.51 210 4.52-2.64 1.54-15.41-4.27-1.56-1.79 19.61z" class="X" style="mix-blend-mode:multiply"></path><path fill="#c69a3f" d="m263.98 265.34 22.02 3.75 12.25 17.04 10.18-1.6 21.89 10.39.18 3.33-21.93-10.99-10.9 2.9-12.16-16.99-20.51-.53-1.02-7.3zm-1.56-11.19 25.18 2.18 11.87 21.29 8.9-2.12 21.74 3.79.11 2.5-21.79-4.27-9.19 1.69-12.18-19.28-24.23-2.81-.41-2.97z" class="B"></path><path fill="url(#Ak)" d="m297.44 366.75-22.21-37.42v-18l-2.79-9.58-2.53-8.74-16.29-17.51-7.44-8.5-35.6-29.67-19.37-8.66-52.85-32.39-7.32-50.99 5.54-28.96-32.51-18.83v-12L86.1 82.33 34.4 16.18 25.41 0H0v384l97.16-3.89 48.07-1.93 148.84-9.43 3.37-2z" style="mix-blend-mode:multiply"></path><path d="m311.45 314.9-1.95-16.65 1.95 7.08v9.57zm.67-4.31v7.64l1.86-1.91-1.86-5.73zm11.64-25.39 2.23-3.41v2.74l-2.23.67zm-7.93-32.45-.93 3.58v4.12l.93-7.7zm1.77-28.71 2.27 6.96v-5.73l-2.27-1.23zM288.54 231l3.2-6.96-1.6 5.96-1.6 1zm37.97 105.15 1.16 10.75 2.41-.41-3.57-10.34zM290.14 344l1.6-5.36v4.2l-1.6 1.16z" class="h"></path><path fill="url(#Al)" d="m465.35 346.73-47.63-7.12-45.6-.97v2.73l-82.72 10.3 8.04 15.08-3.37 2L0 384v16h800v-3.18l-150.66-6.37-72.34-22.7-95.25-8.5-1.25-4-15.15-8.52z"></path><path fill="url(#Ba)" d="M623 400H163.5l42.27-6.48 59.51-9.13 26.34-6.39 22.35-5.42 5.9-3.26-1.45-1.36-20.98-1.21-5.17-9.71-.75-1.4 60.15-10.47 17.78-2.43h.04l15.43-2.12-5.16-1.82 36.44.78 2.95 1.53 1.52.79 29.25 5 15.43 5.04-3.85 1.05 4.6 2.24 12.15 5.9L546 372.44l-6.68 2.06-57.57 5.25 5.59 1.97 68.66 8.27 45.58 6.81 16.96 2.53 4.46.67z"></path><path fill="url(#Am)" d="M373.33 400H199.25l6.52-6.48 59.51-9.13 48.69-11.81 5.9-3.26-1.45-1.36-20.98-1.21-5.17-9.71-.75-1.4 60.15-10.47 17.78-2.43 2.67-.11 1.21 57.37z"></path><path fill="url(#An)" d="M604.87 400H420.83l-2.6-58.68.92-.21 1.52.79 29.25 5 15.43 5.04-3.85 1.05 16.75 8.14L546 372.44l-6.68 2.06-57.57 5.25 5.59 1.97 68.66 8.27 45.58 6.81 3.29 3.2z"></path><path fill="url(#Ao)" d="M618.56 400H465.35v-44.34l.75-.43 12.15 5.9L546 372.44l-6.68 2.06-57.57 5.25 5.59 1.97 68.66 8.27 45.58 6.81 16.96 2.53.02.67z"></path><path fill="url(#Ap)" d="M333.89 400h-42.95l.68-22 22.35-5.42 5.9-3.26-1.45-1.36-20.98-1.21-5.17-9.71 40.44-7.71 1.18 50.67z"></path><path fill="url(#Aq)" d="M295.7 381.4V400h-88.87l1.15-6.11 87.72-12.49z"></path><path fill="url(#Ar)" d="M163.5 400h43.33l5.42-4 4.25 2 57.5-9.77 41.5-12.98 5.94-4.75-3.02-2.54-20.98-1.21-5.17-9.71 58.81-11.46 34.17-4.79-.33-.17-34.14 4.63-59.26 10.39 5.92 11.11 20.98 1.21 1.09 1.02-5.53 3.6-48.7 11.81L163.5 400z"></path><path fill="url(#As)" d="m623 400-67-10.01-68.66-8.27-5.59-1.97-2.25 3.18 7.43 2.05 72.77 8.91 24.49 6.11H623z"></path><path fill="url(#At)" d="m541.99 373.68-64.2-11.39-16.67-8.88.38-.42 2.92-.8-14.5-4.77-30-4.92-4.21-2.93.49.01 4.47 2.32 29.25 5 15.43 5.04-3.85 1.05 16.75 8.14L546 372.44l-4.01 1.24z"></path><path fill="url(#Au)" d="M372.58 351.02s11-1.24 18.84.75l-9.42 1.09s11.18 5.19 33.72.23l-13.66-2.51s8.4-.38 16.93-2.6l-.75-1.99-45.92-1.27.27 6.31Z" style="mix-blend-mode:soft-light"></path><path fill="url(#Av)" d="M387.13 357.37s11.05-2.1 18.57-.71c0 0-6.41 2.23-18.57.71Z" style="mix-blend-mode:soft-light"></path><path fill="#d5d9ff" d="m309.5 353.68 42.33-8.22s-.68 1.19-3.1.92l-1.71.25s-3.57 1.44-15.9 3.34c-12.32 1.91-21.62 3.71-21.62 3.71zm-10.56 2.01 6.56-1.19s-2.58 2.12-6.56 1.19z"></path><path fill="url(#Aw)" d="m486.93 384.98-7.43-2.05.44-.55-5.32 1.3 12.31 1.9L578.12 400h6.07l-24.49-6.11-72.77-8.91z"></path><path fill="url(#Ax)" d="m321.44 370.5 2.86.39-7.8 4.61-23.98 8.48L215.5 400h-8.67l5.42-4 5.63 1.5 81.06-17.01 17.81-6.24 4.69-3.75z"></path><path fill="#d5d9ff" d="m419.92 342.5 1.27.81 8.62.92 2.15.48 17.96 2.71 12.6 5.29 1.9-.52-14.26-4.78-.47-.06-29.77-4.85zm41.85 11.25 15.54 8.28 40.56 7.37 24.12 4.28-4.99.94-19.08-4.74-42.09-7.32-.46-.92-13.6-7.89z"></path><path fill="#b0b8ff" d="m319.87 369.32 191.68 3.87s-94.09-5.44-191.68-3.87Zm-27.6-12.28 185.52 5.25s-120.46-6.11-185.52-5.25Z" style="mix-blend-mode:soft-light"></path><path fill="#cfd4ff" d="m419.92 342.5-58.58 1.5s49.24-2.37 58.58-1.5zm-44.34-.19 41.87-1.68-1.26-1.05-40.62 2.73z" style="mix-blend-mode:soft-light"></path><path fill="url(#Ay)" d="m277.3 377.75 222.13 2.59 86.82-12.38 63.09 22.49L800 396.82V400H0v-16l297.44-17.25-20.14 11z" style="mix-blend-mode:multiply"></path><path fill="url(#Az)" d="m75.33 383.98 51.83-24.46 78.92-7.58 1.89 6.02-4.63 22.14-50.42 3.88H75.33z"></path><path fill="#912a07" d="m127.16 359.52-14.33 7.6 40.09 9.83 38.04-6.19 17.01-12.8-1.89-6.02-78.92 7.58z"></path><path fill="url(#BA)" d="m190.96 370.76-1.89 10.44-35.04 2.69-78.7.09 37.5-16.86 40.09 9.83 38.04-6.19z" class="V" style="mix-blend-mode:multiply"></path><path d="m99.78 372.44 51.17 7.06 33.71-1.18-34.08 3.4-47.63-1.56-3.17-7.72z" class="c"></path><path fill="url(#BB)" d="m139.16 390.45 13.63-4.45 58.04-7.68h15.33l8.17 3.4 1.75 2.67-28.11 6.06h-68.81z"></path><path d="m152.79 386 53.29 1.17 6.42-1.17 21.83-4.28-8.17-3.4h-15.33L152.79 386z" class="c"></path><path fill="url(#BC)" d="m206.08 387.17 1.89 3.28h-68.81l13.63-4.45 53.29 1.17z" class="V" style="mix-blend-mode:multiply"></path><path fill="#de6b40" d="m127.16 359.52 36.67 4.93 29.73-4.93 9.78-3.34 2.74-4.24-78.92 7.58z" class="W"></path></g><ellipse cx="402.05" cy="338.64" fill="url(#Bb)" rx="20.03" ry="31.07" style="mix-blend-mode:screen"></ellipse><ellipse cx="399.32" cy="346.9" fill="url(#Bc)" rx="48.19" ry="21.13" style="mix-blend-mode:screen"></ellipse><ellipse cx="399.17" cy="339.88" fill="url(#Bd)" rx="39.3" ry="7.65" style="mix-blend-mode:screen"></ellipse><ellipse cx="399.17" cy="339.88" fill="url(#Be)" rx="29.92" ry="5.3" style="mix-blend-mode:screen"></ellipse><g class="f"><path fill="url(#BD)" d="m499.43 380.34 11.31-11.62h10.68l12.58 8.91 3.67-12.02 3.41-3.52 69-4.35 3.84 3.39-12.27 22.49 5.89-2.22h24.54l13.49 7.78-2.82.81h-54.33l-88.99-9.65z"></path><path d="m541.08 362.09-3.41 3.52 26.75 10.3 31-1.03 18.5-13.75-3.84-3.39-69 4.35z" class="c"></path><path fill="#a93607" d="m510.74 368.72-8.61 8.84 18.54-1.65 4.66-4.42-3.91-2.77h-10.68z"></path><path d="m607.54 381.4-5.89 2.22-10.73 3.44 26.89.55 11.55-3.11 5.37-1.57-2.65-1.53h-24.54z" class="c"></path><path fill="url(#BE)" d="m595.42 374.88 2 10.1 10.12-3.58 6.38-20.27-18.5 13.75z" class="V" style="mix-blend-mode:multiply"></path><path fill="url(#BF)" d="m617.81 387.61 20.61 2.38h4.33l2.82-.81-10.84-6.25-16.92 4.68z" class="V" style="mix-blend-mode:multiply"></path><path fill="url(#BG)" d="m520.67 375.91 4.66 7.02 8.82 1.17-.15-6.47-8.67-6.14-4.66 4.42z" class="V" style="mix-blend-mode:multiply"></path><path d="m535.54 372.57 12.88 6.6 16 1.17-14.44 2.59-12.31-5.13-2.13-5.23z" class="c"></path><path fill="url(#BH)" d="m569.4 389.99 6.39-6.37 15.13-2.22 1.66 2.22-2.34 6.37H569.4z"></path><path d="m575.79 383.62 5.29 3.99 10.42-2.63 1.08-1.36-1.66-2.22-15.13 2.22z" class="c"></path><g class="V"><path fill="url(#BI)" d="m449.34 376.03 3.27 8.42 13.45 13.17 4.6.95-1.94-16.36-1.48-1.36-.79-4.82h-17.11z"></path><path fill="url(#BJ)" d="m452.61 384.45-1.46-6.04 7.53-.03 5.5 4.5 5.25 15.44 1.23.25-1.94-16.36-1.48-1.36-.79-4.82h-17.11l3.27 8.42z" class="V" style="mix-blend-mode:multiply"></path><path fill="url(#BK)" d="m468.72 382.21-4.54.67-5.5-4.5v-2.21l7.77-.14.79 4.82 1.48 1.36z" class="V" style="mix-blend-mode:multiply"></path><path d="m452.61 384.45-1.46-6.04 7.53-.03 2.34 9.92 5.04 9.32-13.45-13.17zm14.99 13.49-.61-6.78 2.44 7.16-1.83-.38z" class="W g"></path><path fill="url(#BL)" d="m415.24 376.17 3.18 15.11 3.28 1.92 8.53 25.31 12.02 9.15 3.22 1.26 2.74-24.42 2.28-1.61-3.91-26.86-31.34.14z"></path><path fill="url(#BM)" d="m442.25 427.66 3.34-16.96-7.31-17.51h-15.84l-.36 1.12-.38-1.11-1.25-.74 1.77.43 16.06-.43-3.58-4.16-1.4-12.27h13.28l3.91 26.86-2.28-3.36-3.46-16.62-2.66-2.6 3.09 19.22 3.03 4.97-2.74 24.42-3.22-1.26z" class="V" style="mix-blend-mode:multiply"></path><path d="m418.42 391.28 7.36-2.33 8.92-.65 3.58 4.16-16.06.43-1.77-.43-2.03-1.18z" class="V Z"></path><path d="m430.23 418.51-8.15-24.2.36-1.12 5.78.55 7.25 10.05-.79 14.72.79 3.99-5.24-3.99z" class="W g"></path><path fill="url(#BN)" d="m433.3 376.03 1.4 12.27 3.58 4.16-3.49.1-.01.63h3.5l2.39 5.71 4.51.63-3.09-19.22.17-4.24-8.96-.04z" class="V" style="mix-blend-mode:multiply"></path><path fill="url(#BO)" d="m448.21 399.53-1.63-23.5-1.83.14v6.74l3.25 16.28.21.34z" class="V" style="mix-blend-mode:multiply"></path><path fill="url(#BP)" d="M409.97 376.44v4.75l-3.7 3.68-17.29-5.86 4.27-2.57h16.72z"></path><path d="m388.98 379.01 2.85-.96 15.84 2.04 2.3 1.1-3.7 3.68-17.29-5.86z" class="V Z"></path><path fill="url(#BQ)" d="M407.67 380.09v-3.65h2.3v4.75l-2.3-1.1z" class="V" style="mix-blend-mode:multiply"></path><path d="m418.23 376.19-2.99 39.83h.96l2.78-39.83h-.75z" class="d"></path><path d="m420.45 376.19 4.08 44.62.98-.14-4.34-44.48h-.72z" class="e"></path><path d="m440.93 376.42 18.41 37.91H461l-19.15-37.86-.92-.05zm1.33.01 10.36 18.31.69.5-9.71-18.8-1.34-.01z" class="d"></path><path d="m409.97 376.44 1.86 30.54.76.31-1.92-29.24 2.75 31.43 1.25.94-3.34-34.12-1.36.14z" class="e"></path><path d="m412.32 376.47 6.66 38.4h.94l-6.67-38.57-.93.17zm49.45 0 12.85 29.82 1.72.27-14.09-30.09 11.42 21.15h.7l-11.1-21.15h-1.5z" class="d"></path><path d="m460 376.47 5.35 29.21h.71l-5.73-29.21H460z" class="e"></path></g><path fill="url(#BR)" d="m449.34 376.03 3.27-9.77L466.06 351l4.6-1.11-1.94 18.97-1.48 1.57-.79 5.6h-17.11z"></path><path fill="url(#BS)" d="m452.61 366.26-1.46 7.01 7.53.03 5.5-5.22 5.25-17.89 1.23-.3-1.94 18.97-1.48 1.57-.79 5.6h-17.11l3.27-9.77z" class="V" style="mix-blend-mode:multiply"></path><path fill="url(#BT)" d="m468.72 368.86-4.54-.78-5.5 5.22v2.56l7.77.17.79-5.6 1.48-1.57z" class="V" style="mix-blend-mode:multiply"></path><path d="m452.61 366.26-1.46 7.01 7.53.03 2.34-11.5 5.04-10.8-13.45 15.26zm14.99-15.63-.61 7.86 2.44-8.3-1.83.44z" class="W g"></path><path fill="url(#BU)" d="m415.24 375.86 3.18-17.51 3.28-2.23 8.53-29.34 12.02-10.61 3.22-1.46 2.74 28.31 2.28 1.87-3.91 31.14-31.34-.17z"></path><path fill="url(#BV)" d="m442.25 316.17 3.34 19.66-7.31 20.3h-15.84l-.36-1.3-.38 1.29-1.25.85 1.77-.49 16.06.49-3.58 4.83-1.4 14.23h13.28l3.91-31.14-2.28 3.89-3.46 19.27-2.66 3.01 3.09-22.28 3.03-5.76-2.74-28.31-3.22 1.46z" class="V" style="mix-blend-mode:multiply"></path><path d="m418.42 358.35 7.36 2.69 8.92.76 3.58-4.83-16.06-.49-1.77.49-2.03 1.38z" class="V Z"></path><path d="m430.23 326.78-8.15 28.05.36 1.3 5.78-.64 7.25-11.64-.79-17.07.79-4.62-5.24 4.62zm13.03-4.62-2.18 13.67v5.65l1.56 2.55 2.95-8.2-2.33-13.67z" class="W g"></path><path fill="url(#BW)" d="m433.3 376.03 1.4-14.23 3.58-4.83-3.49-.1-.01-.74h3.5l2.39-6.62 4.51-.73-3.09 22.28.17 4.91-8.96.06z" class="V" style="mix-blend-mode:multiply"></path><path fill="url(#BX)" d="m448.21 348.78-1.63 27.25-1.83-.17v-7.81l3.25-18.88.21-.39z" class="V" style="mix-blend-mode:multiply"></path><path fill="url(#BY)" d="M409.97 375.55v-5.5l-3.7-4.27-17.29 6.79 4.27 2.98h16.72z"></path><path d="m388.98 372.57 2.85 1.11 15.84-2.36 2.3-1.27-3.7-4.27-17.29 6.79z" class="V Z"></path><path fill="url(#BZ)" d="M407.67 371.32v4.23h2.3v-5.5l-2.3 1.27z" class="V" style="mix-blend-mode:multiply"></path><path fill="#c6ccff" d="m466.52 375.51 15.23.2-28.1.79 1.64.29-72.2-.85 10.16-.39h16.72v-.93h5.49l-.22 1.24 31.34-.35.18-.89h3.05l-.3.89h17.01z"></path><path d="m418.23 375.84-2.99-46.18h.96l2.78 46.18h-.75z" class="d"></path><path d="m420.45 375.84 4.08-51.74.98.17-4.34 51.57h-.72z" class="e"></path><path d="m440.93 375.58 18.41-43.96H461l-19.15 43.89-.92.07zm1.33-.02 10.36-21.22.69-.59-9.71 21.8-1.34.01z" class="d"></path><path d="m409.97 375.55 1.86-35.41.76-.35-1.92 33.89 2.75-36.43 1.25-1.1-3.34 39.56-1.36-.16z" class="e"></path><path d="m412.32 375.51 6.66-44.51h.94l-6.67 44.71-.93-.2zm49.45 0 12.85-34.57 1.72-.32-14.09 34.89L473.67 351h.7l-11.1 24.51h-1.5z" class="d"></path><path d="m460 375.51 5.35-33.86h.71l-5.73 33.86H460z" class="e"></path></g></g></svg> 