<?xml version="1.0" encoding="UTF-8"?> <svg xmlns="http://www.w3.org/2000/svg" xmlns:xlink="http://www.w3.org/1999/xlink" viewBox="0 0 800 400"><style>.B,.D,.G,.H{mix-blend-mode:multiply}.C,.F{mix-blend-mode:soft-light}.I{fill:#4563b6}.J{opacity:.4}.K{opacity:.92}.L{fill:#250cb0}.M{fill:#aba4d5}.N{opacity:.6}.O{opacity:.5}.P{opacity:.3}.Q{fill:#fff}.R{fill-rule:evenodd}.S{opacity:.8}.T{fill:#d3b5c5}</style><defs><radialGradient xlink:href="#DR" id="A" cx="693.42" cy="374.32" r="37.38" fx="693.42" fy="374.32"><stop offset="0" stop-color="#837779"></stop><stop offset="1" stop-color="#66aca7"></stop></radialGradient><radialGradient xlink:href="#DR" id="B" cx="339.89" cy="357.67" r="336.57" fx="339.89" fy="357.67"><stop offset="0" stop-color="#cecae8"></stop><stop offset=".45" stop-color="#c7d8f0"></stop><stop offset=".61" stop-color="#bdccea"></stop><stop offset=".89" stop-color="#a5afdc"></stop><stop offset="1" stop-color="#9ba2d6"></stop></radialGradient><radialGradient xlink:href="#DR" id="C" cx="402.8" cy="294.66" r="36.96" fx="402.8" fy="294.66"><stop offset="0" stop-color="#ae9593"></stop><stop offset="1" stop-color="#ac4b83"></stop></radialGradient><radialGradient xlink:href="#C" id="D" cx="423.39" cy="310.87" r="18.7" fx="423.39" fy="310.87"></radialGradient><radialGradient xlink:href="#C" id="E" cx="401.84" cy="298.8" r="23.49" fx="401.84" fy="298.8"></radialGradient><radialGradient xlink:href="#C" id="F" cx="393.93" cy="307.31" r="17.33" fx="393.93" fy="307.31"></radialGradient><radialGradient xlink:href="#C" id="G" cx="384.73" cy="323.13" r="6.07" fx="384.73" fy="323.13"></radialGradient><radialGradient xlink:href="#DR" id="H" cx="295.3" cy="-2287.77" r="16.32" fx="295.3" fy="-2287.77" gradientTransform="matrix(1 0 0 1.42 0 3349.03)"><stop offset="0" stop-color="#53a5e3"></stop><stop offset=".99" stop-color="#0a59d9"></stop></radialGradient><radialGradient xlink:href="#DR" id="I" cx="294.28" cy="117.59" r="8.72" fx="294.28" fy="117.59"><stop offset="0" stop-color="#224799"></stop><stop offset=".99" stop-color="#002a86"></stop></radialGradient><radialGradient xlink:href="#DR" id="J" cx="392.64" cy="-6492.38" r="9.16" fx="392.64" fy="-6492.38" gradientTransform="matrix(2.3 0 0 5.47 -611.28 35716.57)"><stop offset="0" stop-color="#abeeff"></stop><stop offset="1" stop-color="#6a90de"></stop></radialGradient><radialGradient xlink:href="#I" id="K" cx="372.54" cy="139.85" r="5.73" fx="372.54" fy="139.85" gradientTransform="matrix(1.45 0 0 1 -252.37 0)"></radialGradient><radialGradient xlink:href="#DR" id="L" cx="291.93" cy="124" r="17.92" fx="291.93" fy="124"><stop offset="0" stop-color="#e4fbff"></stop><stop offset="1" stop-color="#91bbff"></stop></radialGradient><radialGradient xlink:href="#DR" id="M" cx="376.82" cy="137.99" r="12.61" fx="376.82" fy="137.99" gradientTransform="matrix(1.45 0 0 1 -252.37 0)"><stop offset="0" stop-color="#4166d4"></stop><stop offset=".99" stop-color="#0d0ad9"></stop></radialGradient><radialGradient xlink:href="#DR" id="N" cx="378.47" cy="139.43" r="2.82" fx="378.47" fy="139.43" gradientTransform="matrix(1.45 0 0 1 -252.37 0)"><stop offset="0" stop-color="#2644ba"></stop><stop offset=".99" stop-color="#0006b0"></stop></radialGradient><radialGradient xlink:href="#N" id="O" cx="370.16" cy="139.52" r="2.8" fx="370.16" fy="139.52"></radialGradient><radialGradient xlink:href="#L" id="P" cx="295.76" cy="118.87" r="5.52" fx="295.76" fy="118.87"></radialGradient><radialGradient xlink:href="#L" id="Q" cx="300.69" cy="120.88" r="4.59" fx="300.69" fy="120.88"></radialGradient><radialGradient xlink:href="#L" id="R" cx="282.14" cy="121.13" r="4.96" fx="282.14" fy="121.13"></radialGradient><radialGradient xlink:href="#I" id="S" cx="522.2" cy="140.8" r="1.81" fx="522.2" fy="140.8" gradientTransform="scale(-1 1) rotate(-3.22 -2.91308393 14494.48220025)"></radialGradient><radialGradient xlink:href="#DR" id="T" cx="293.97" cy="149.07" r="9.45" fx="293.97" fy="149.07"><stop offset="0" stop-color="#7bbcdd"></stop><stop offset="1" stop-color="#3e39c8"></stop></radialGradient><radialGradient xlink:href="#L" id="U" cx="375.49" cy="145.97" r="5.71" fx="375.49" fy="145.97" gradientTransform="matrix(1.45 0 0 1 -252.37 0)"></radialGradient><radialGradient xlink:href="#L" id="V" cx="294.1" cy="149.88" r="5.38" fx="294.1" fy="149.88"></radialGradient><radialGradient xlink:href="#L" id="W" cx="299.65" cy="152.01" r="5.15" fx="299.65" fy="152.01"></radialGradient><radialGradient xlink:href="#L" id="X" cx="280.99" cy="151.42" r="4.83" fx="280.99" fy="151.42"></radialGradient><radialGradient xlink:href="#DR" id="Y" cx="282.93" cy="195.69" r="22.11" fx="282.93" fy="195.69"><stop offset="0" stop-color="#4578ab"></stop><stop offset=".99" stop-color="#1000a4"></stop></radialGradient><radialGradient xlink:href="#Y" id="Z" cx="441.57" cy="197.35" fx="441.57" fy="197.35" gradientTransform="scale(-1 1) rotate(-1.69 14.51121143 25178.40979789)"></radialGradient><radialGradient xlink:href="#Y" id="a" cx="288.43" cy="195.67" r="22.15" fx="288.43" fy="195.67"></radialGradient><radialGradient xlink:href="#DR" id="b" cx="388.34" cy="98.12" r="31.21" fx="388.34" fy="98.12"><stop offset="0" stop-color="#4188d4"></stop><stop offset=".99" stop-color="#0a45d9"></stop></radialGradient><radialGradient xlink:href="#I" id="c" cx="388.34" cy="135.2" r="8.74" fx="388.34" fy="135.2"></radialGradient><radialGradient xlink:href="#J" id="d" cx="434.04" cy="-6489.11" r="9.18" fx="434.04" fy="-6489.11"></radialGradient><radialGradient xlink:href="#L" id="e" cx="386.12" cy="141.63" r="17.94" fx="386.12" fy="141.63"></radialGradient><radialGradient xlink:href="#L" id="f" cx="389.84" cy="136.48" r="5.53" fx="389.84" fy="136.48"></radialGradient><radialGradient xlink:href="#L" id="g" cx="394.8" cy="138.5" r="4.6" fx="394.8" fy="138.5"></radialGradient><radialGradient xlink:href="#L" id="h" cx="376.22" cy="138.75" r="4.98" fx="376.22" fy="138.75"></radialGradient><radialGradient xlink:href="#I" id="i" cx="427.14" cy="153.14" r="1.82" fx="427.14" fy="153.14" gradientTransform="scale(-1 1) rotate(-3.22 -2.91308393 14494.48220025)"></radialGradient><radialGradient xlink:href="#T" id="j" cx="388.4" cy="166.77" r="9.48" fx="388.4" fy="166.77"></radialGradient><radialGradient xlink:href="#L" id="k" cx="440.6" cy="163.66" r="5.72" fx="440.6" fy="163.66" gradientTransform="matrix(1.45 0 0 1 -252.37 0)"></radialGradient><radialGradient xlink:href="#L" id="l" cx="388.55" cy="167.59" r="5.39" fx="388.55" fy="167.59"></radialGradient><radialGradient xlink:href="#L" id="m" cx="394.13" cy="169.73" r="5.16" fx="394.13" fy="169.73"></radialGradient><radialGradient xlink:href="#L" id="n" cx="375.43" cy="169.12" r="4.85" fx="375.43" fy="169.12"></radialGradient><radialGradient xlink:href="#I" id="o" cx="322.59" cy="79.66" r="29.9" fx="322.59" fy="79.66"></radialGradient><radialGradient xlink:href="#M" id="p" cx="358.31" cy="52.29" r="69.83" fx="358.31" fy="52.29"></radialGradient><radialGradient xlink:href="#I" id="q" cx="339.49" cy="111.94" r="25.24" fx="339.49" fy="111.94"></radialGradient><radialGradient xlink:href="#DR" id="r" cx="350.8" cy="224.75" r="66.76" fx="350.8" fy="224.75"><stop offset="0" stop-color="#92e2ff"></stop><stop offset="1" stop-color="#5c8fff"></stop></radialGradient><radialGradient xlink:href="#M" id="s" cx="362.88" cy="183.11" r="46.61" fx="362.88" fy="183.11"></radialGradient><radialGradient xlink:href="#I" id="t" cx="293.26" cy="187.04" r="21.81" fx="293.26" fy="187.04"></radialGradient><radialGradient xlink:href="#T" id="u" cx="346.4" cy="212.38" r="41.46" fx="346.4" fy="212.38" gradientTransform="matrix(.93 0 0 1 30.81 0)"></radialGradient><radialGradient xlink:href="#L" id="v" cx="353.58" cy="211.59" r="32.08" fx="353.58" fy="211.59" gradientTransform="matrix(.93 0 0 1 30.81 0)"></radialGradient><radialGradient xlink:href="#DR" id="w" cx="305.41" cy="300.71" r="73.33" fx="305.41" fy="300.71"><stop offset="0" stop-color="#4e71b7"></stop><stop offset="1" stop-color="#2f39a7"></stop></radialGradient><radialGradient xlink:href="#I" id="x" cx="305.62" cy="301.28" r="65.05" fx="305.62" fy="301.28"></radialGradient><radialGradient xlink:href="#L" id="y" cx="353.13" cy="236.51" r="86.54" fx="353.13" fy="236.51"></radialGradient><radialGradient xlink:href="#T" id="z" cx="361.5" cy="301.45" r="76.49" fx="361.5" fy="301.45"></radialGradient><radialGradient xlink:href="#DR" id="AA" cx="349.5" cy="290.67" r="49.8" fx="349.5" fy="290.67"><stop offset="0" stop-color="#89e0ff"></stop><stop offset="1" stop-color="#5599eb"></stop></radialGradient><radialGradient xlink:href="#I" id="AB" cx="344.69" cy="293.94" r="38.77" fx="344.69" fy="293.94"></radialGradient><radialGradient xlink:href="#T" id="AC" cx="371.4" cy="230.88" r="34" fx="371.4" fy="230.88"></radialGradient><radialGradient xlink:href="#L" id="AD" cx="372.07" cy="230.88" r="34" fx="372.07" fy="230.88"></radialGradient><radialGradient xlink:href="#w" id="AE" cx="371.91" cy="234.6" r="28.49" fx="371.91" fy="234.6"></radialGradient><radialGradient xlink:href="#I" id="AF" cx="370.64" cy="236.17" r="26.45" fx="370.64" fy="236.17"></radialGradient><radialGradient xlink:href="#L" id="AG" cx="373.06" cy="257.72" r="5.12" fx="373.06" fy="257.72" gradientTransform="rotate(.12 358.35849106 247.90662047)"></radialGradient><radialGradient xlink:href="#T" id="AH" cx="372.58" cy="257.9" r="5.95" fx="372.58" fy="257.9"></radialGradient><radialGradient xlink:href="#DR" id="AI" cx="370.4" cy="235.02" r="27.32" fx="370.4" fy="235.02"><stop offset="0" stop-color="#d6ffe8"></stop><stop offset="1" stop-color="#92bcff"></stop></radialGradient><radialGradient xlink:href="#T" id="AJ" cx="324.26" cy="231.01" r="33.95" fx="324.26" fy="231.01"></radialGradient><radialGradient xlink:href="#L" id="AK" cx="324.93" cy="231.01" r="33.95" fx="324.93" fy="231.01"></radialGradient><radialGradient xlink:href="#w" id="AL" cx="324.76" cy="234.74" r="28.45" fx="324.76" fy="234.74"></radialGradient><radialGradient xlink:href="#I" id="AM" cx="323.49" cy="236.3" r="26.42" fx="323.49" fy="236.3"></radialGradient><radialGradient xlink:href="#L" id="AN" cx="325.91" cy="257.82" r="5.12" fx="325.91" fy="257.82"></radialGradient><radialGradient xlink:href="#T" id="AO" cx="325.43" cy="258.01" r="5.95" fx="325.43" fy="258.01"></radialGradient><radialGradient xlink:href="#AI" id="AP" cx="323.39" cy="235.16" r="27.28" fx="323.39" fy="235.16"></radialGradient><radialGradient xlink:href="#M" id="AQ" cx="301.37" cy="188.55" r=".08" fx="301.37" fy="188.55"></radialGradient><radialGradient xlink:href="#L" id="AR" cx="357.59" cy="286.1" r="73.47" fx="357.59" fy="286.1"></radialGradient><radialGradient xlink:href="#T" id="AS" cx="292.2" cy="287.72" r="53.71" fx="292.2" fy="287.72"></radialGradient><radialGradient xlink:href="#H" id="AT" cx="312.88" cy="199.08" r="30.2" fx="312.88" fy="199.08"></radialGradient><radialGradient xlink:href="#I" id="AU" cx="310.12" cy="212.96" r="8.81" fx="310.12" fy="212.96"></radialGradient><radialGradient xlink:href="#AI" id="AV" cx="385.25" cy="-6478.52" r="5.6" fx="385.25" fy="-6478.52" gradientTransform="matrix(1.45 0 0 5.47 -252.37 35716.57)"></radialGradient><radialGradient xlink:href="#T" id="AW" cx="387.31" cy="241.98" r="9.65" fx="387.31" fy="241.98" gradientTransform="matrix(1.45 0 0 1 -252.37 0)"></radialGradient><radialGradient xlink:href="#L" id="AX" cx="386.05" cy="241.73" r="5.6" fx="386.05" fy="241.73" gradientTransform="matrix(1.45 0 0 1 -252.37 0)"></radialGradient><radialGradient xlink:href="#I" id="AY" cx="383.45" cy="235.24" r="5.78" fx="383.45" fy="235.24" gradientTransform="matrix(1.45 0 0 1 -252.37 0)"></radialGradient><radialGradient xlink:href="#L" id="AZ" cx="307.77" cy="219.37" fx="307.77" fy="219.37"></radialGradient><radialGradient xlink:href="#M" id="Aa" cx="387.44" cy="233.47" r="12.42" fx="387.44" fy="233.47"></radialGradient><radialGradient xlink:href="#N" id="Ab" cx="389.44" cy="234.83" fx="389.44" fy="234.83"></radialGradient><radialGradient xlink:href="#N" id="Ac" cx="381.04" cy="234.87" r="2.8" fx="381.04" fy="234.87"></radialGradient><radialGradient xlink:href="#L" id="Ad" cx="311.63" cy="214.24" r="5.52" fx="311.63" fy="214.24"></radialGradient><radialGradient xlink:href="#L" id="Ae" cx="316.62" cy="216.27" r="4.59" fx="316.62" fy="216.27"></radialGradient><radialGradient xlink:href="#L" id="Af" cx="297.85" cy="216.47" r="4.97" fx="297.85" fy="216.47"></radialGradient><radialGradient xlink:href="#I" id="Ag" cx="311.63" cy="226.07" r="1.94" fx="311.63" fy="226.07"></radialGradient><radialGradient xlink:href="#I" id="Ah" cx="501.11" cy="235.12" r="1.81" fx="501.11" fy="235.12" gradientTransform="scale(-1 1) rotate(-3.22 -2.91308393 14494.48220025)"></radialGradient><radialGradient xlink:href="#M" id="Ai" cx="275.49" cy="203.56" r="24.64" fx="275.49" fy="203.56"></radialGradient><radialGradient xlink:href="#I" id="Aj" cx="275.49" cy="232.82" r="6.99" fx="275.49" fy="232.82"></radialGradient><radialGradient xlink:href="#L" id="Ak" cx="272.29" cy="250.6" r="61.33" fx="272.29" fy="250.6"></radialGradient><radialGradient xlink:href="#L" id="Al" cx="276.68" cy="233.84" r="4.37" fx="276.68" fy="233.84"></radialGradient><radialGradient xlink:href="#L" id="Am" cx="280.63" cy="235.45" r="3.63" fx="280.63" fy="235.45"></radialGradient><radialGradient xlink:href="#L" id="An" cx="265.73" cy="235.6" r="3.93" fx="265.73" fy="235.6"></radialGradient><radialGradient xlink:href="#I" id="Ao" cx="276.64" cy="243.2" r="1.53" fx="276.64" fy="243.2"></radialGradient><radialGradient xlink:href="#I" id="Ap" cx="532.87" cy="253.36" r="1.43" fx="532.87" fy="253.36" gradientTransform="scale(-1 1) rotate(-3.22 -2.91308393 14494.48220025)"></radialGradient><radialGradient xlink:href="#H" id="Aq" cx="406.63" cy="203.87" r="29.77" fx="406.63" fy="203.87"></radialGradient><radialGradient xlink:href="#I" id="Ar" cx="402.51" cy="212.67" r="8.92" fx="402.51" fy="212.67"></radialGradient><radialGradient xlink:href="#AI" id="As" cx="452.7" cy="-6478.53" r="5.62" fx="452.7" fy="-6478.53" gradientTransform="matrix(1.45 0 0 5.47 -252.37 35716.57)"></radialGradient><radialGradient xlink:href="#T" id="At" cx="452.24" cy="241.78" r="9.76" fx="452.24" fy="241.78" gradientTransform="matrix(1.45 0 0 1 -252.37 0)"></radialGradient><radialGradient xlink:href="#L" id="Au" cx="450.94" cy="241.53" r="5.73" fx="450.94" fy="241.53" gradientTransform="matrix(1.45 0 0 1 -252.37 0)"></radialGradient><radialGradient xlink:href="#I" id="Av" cx="448.07" cy="235.02" r="5.84" fx="448.07" fy="235.02" gradientTransform="matrix(1.45 0 0 1 -252.37 0)"></radialGradient><radialGradient xlink:href="#L" id="Aw" cx="401.33" cy="219.09" r="17.98" fx="401.33" fy="219.09"></radialGradient><radialGradient xlink:href="#M" id="Ax" cx="452.24" cy="233.23" r="12.46" fx="452.24" fy="233.23"></radialGradient><radialGradient xlink:href="#N" id="Ay" cx="454.22" cy="234.62" r="2.81" fx="454.22" fy="234.62"></radialGradient><radialGradient xlink:href="#N" id="Az" cx="445.44" cy="234.62" r="2.81" fx="445.44" fy="234.62"></radialGradient><radialGradient xlink:href="#L" id="BA" cx="404.13" cy="213.96" r="5.5" fx="404.13" fy="213.96"></radialGradient><radialGradient xlink:href="#L" id="BB" cx="409.31" cy="216.01" r="4.58" fx="409.31" fy="216.01"></radialGradient><radialGradient xlink:href="#L" id="BC" cx="390.3" cy="216.17" r="5" fx="390.3" fy="216.17"></radialGradient><radialGradient xlink:href="#I" id="BD" cx="404.87" cy="225.83" r="1.94" fx="404.87" fy="225.83"></radialGradient><radialGradient xlink:href="#I" id="BE" cx="408.15" cy="229.64" r="1.83" fx="408.15" fy="229.64" gradientTransform="scale(-1 1) rotate(-3.22 -2.91308393 14494.48220025)"></radialGradient><radialGradient xlink:href="#L" id="BF" cx="353.45" cy="278.54" r="31.69" fx="353.45" fy="278.54"></radialGradient><radialGradient xlink:href="#L" id="BG" cx="357.98" cy="275.42" r="67.36" fx="357.98" fy="275.42"></radialGradient><radialGradient xlink:href="#T" id="BH" cx="358.3" cy="281.56" r="59.85" fx="358.3" fy="281.56"></radialGradient><radialGradient xlink:href="#DR" id="BI" cx="355.79" cy="326.28" r="24.94" fx="355.79" fy="326.28"><stop offset="0" stop-color="#5240b5"></stop><stop offset=".99" stop-color="#2a0086"></stop></radialGradient><radialGradient xlink:href="#I" id="BJ" cx="332.06" cy="94.68" r="40.32" fx="332.06" fy="94.68"></radialGradient><radialGradient xlink:href="#r" id="BK" cx="346.84" cy="155.25" r="40.47" fx="346.84" fy="155.25"></radialGradient><radialGradient xlink:href="#H" id="BL" cx="348.19" cy="-3717.88" r="24.81" fx="348.19" fy="-3717.88" gradientTransform="matrix(1 0 0 1.9 0 7168.73)"></radialGradient><radialGradient xlink:href="#T" id="BM" cx="347.45" cy="155.86" r="52.18" fx="347.45" fy="155.86"></radialGradient><radialGradient xlink:href="#L" id="BN" cx="348.47" cy="155.86" r="52.18" fx="348.47" fy="155.86"></radialGradient><radialGradient xlink:href="#w" id="BO" cx="348.22" cy="161.57" r="43.69" fx="348.22" fy="161.57"></radialGradient><radialGradient xlink:href="#I" id="BP" cx="346.28" cy="163.98" r="40.57" fx="346.28" fy="163.98"></radialGradient><radialGradient xlink:href="#L" id="BQ" cx="349.96" cy="197.03" r="7.81" fx="349.96" fy="197.03"></radialGradient><radialGradient xlink:href="#T" id="BR" cx="349.23" cy="197.34" r="9.07" fx="349.23" fy="197.34"></radialGradient><radialGradient xlink:href="#AI" id="BS" cx="346.02" cy="162.22" r="41.92" fx="346.02" fy="162.22"></radialGradient><radialGradient xlink:href="#DR" id="BT" cx="324.83" cy="-3061.25" r="20.83" fx="324.83" fy="-3061.25" gradientTransform="matrix(1 0 0 1.63 0 5017.55)"><stop offset="0" stop-color="#5379e3"></stop><stop offset=".99" stop-color="#3221f0"></stop></radialGradient><radialGradient xlink:href="#I" id="BU" cx="322.81" cy="49.79" r="6.77" fx="322.81" fy="49.79"></radialGradient><radialGradient xlink:href="#J" id="BV" cx="405.74" cy="-6513.68" r="2.33" fx="405.74" fy="-6513.68"></radialGradient><radialGradient xlink:href="#L" id="BW" cx="321.02" cy="54.81" r="14.02" fx="321.02" fy="54.81"></radialGradient><radialGradient xlink:href="#L" id="BX" cx="323.96" cy="50.78" r="4.32" fx="323.96" fy="50.78"></radialGradient><radialGradient xlink:href="#L" id="BY" cx="327.79" cy="52.35" r="3.59" fx="327.79" fy="52.35"></radialGradient><radialGradient xlink:href="#L" id="BZ" cx="313.41" cy="52.58" r="3.88" fx="313.41" fy="52.58"></radialGradient><radialGradient xlink:href="#I" id="Ba" cx="350.19" cy="64.52" r="1.42" fx="350.19" fy="64.52" gradientTransform="rotate(.64 547.84851628 -2253.75643757)"></radialGradient><radialGradient xlink:href="#T" id="Bb" cx="322.66" cy="74.44" r="7.36" fx="322.66" fy="74.44"></radialGradient><radialGradient xlink:href="#L" id="Bc" cx="395.56" cy="72.01" r="4.43" fx="395.56" fy="72.01" gradientTransform="matrix(1.45 0 0 1 -252.37 0)"></radialGradient><radialGradient xlink:href="#L" id="Bd" cx="322.77" cy="75.07" r="4.21" fx="322.77" fy="75.07"></radialGradient><radialGradient xlink:href="#L" id="Be" cx="327.07" cy="76.73" r="4.03" fx="327.07" fy="76.73"></radialGradient><radialGradient xlink:href="#L" id="Bf" cx="312.61" cy="76.3" r="3.78" fx="312.61" fy="76.3"></radialGradient><radialGradient xlink:href="#L" id="Bg" cx="371.67" cy="321.71" r="71.3" fx="371.67" fy="321.71"></radialGradient><radialGradient xlink:href="#C" id="Bh" cx="287.7" cy="310.4" r="32.97" fx="287.7" fy="310.4"></radialGradient><radialGradient xlink:href="#C" id="Bi" cx="287.7" cy="323.91" r="29.78" fx="287.7" fy="323.91"></radialGradient><linearGradient xlink:href="#DR" id="Bj" x1="400" x2="400" y1="322.48" y2="-119.89"><stop offset="0" stop-color="#d3ffe2"></stop><stop offset=".31" stop-color="#b1c5db"></stop><stop offset=".62" stop-color="#9290d5"></stop><stop offset=".86" stop-color="#7f6fd1"></stop><stop offset=".99" stop-color="#7863d0"></stop></linearGradient><linearGradient xlink:href="#DR" id="Bk" x1="716.39" x2="716.39" y1="354.24" y2="233.1"><stop offset="0" stop-color="#704a00"></stop><stop offset="1" stop-color="#7a7100"></stop></linearGradient><linearGradient xlink:href="#DR" id="Bl" x1="681.15" x2="743.36" y1="293.67" y2="293.67"><stop offset="0" stop-color="#d19dae"></stop><stop offset="1" stop-color="#c0c4d9"></stop></linearGradient><linearGradient xlink:href="#DR" id="Bm" x1="717.51" x2="717.51" y1="310.96" y2="233.1"><stop offset="0" stop-color="#e0d6f5"></stop><stop offset=".99" stop-color="#fffff4"></stop></linearGradient><linearGradient xlink:href="#Bm" id="Bn" x1="707.58" x2="707.58" y1="276.19" y2="262.07"></linearGradient><linearGradient xlink:href="#Bk" id="Bo" x1="235.62" x2="235.62" y1="386.45" y2="231.64"></linearGradient><linearGradient xlink:href="#Bl" id="Bp" x1="203.78" x2="246.83" y1="297.17" y2="297.17"></linearGradient><linearGradient xlink:href="#Bm" id="Bq" x1="237.42" x2="237.42" y1="291.28" y2="231.18"></linearGradient><linearGradient xlink:href="#Bm" id="Br" x1="248.49" x2="248.49" y1="296.91" y2="275.64"></linearGradient><linearGradient xlink:href="#DR" id="Bs" x1="690.84" x2="690.84" y1="383.63" y2="248.99"><stop offset="0" stop-color="#4a3100"></stop><stop offset="1" stop-color="#514b00"></stop></linearGradient><linearGradient xlink:href="#Bl" id="Bt" x1="663.15" x2="700.59" y1="305.98" y2="305.98"></linearGradient><linearGradient xlink:href="#Bm" id="Bu" x1="692.48" x2="692.48" y1="300.36" y2="248.88"></linearGradient><linearGradient xlink:href="#Bm" id="Bv" x1="701.96" x2="701.96" y1="305.19" y2="286.96"></linearGradient><linearGradient xlink:href="#Bs" id="Bw" x1="792.92" x2="792.92" y1="347.97" y2="215.81"></linearGradient><linearGradient xlink:href="#Bl" id="Bx" x1="749.65" x2="826.04" y1="281.89" y2="281.89"></linearGradient><linearGradient xlink:href="#Bm" id="By" x1="795.02" x2="795.02" y1="297.09" y2="215.33"></linearGradient><linearGradient xlink:href="#Bm" id="Bz" x1="784.6" x2="784.6" y1="260.58" y2="245.75"></linearGradient><linearGradient xlink:href="#Bs" id="CA" x1="648.18" x2="648.18" y1="331.7" y2="248.88"></linearGradient><linearGradient xlink:href="#DR" id="CB" x1="624.09" x2="666.62" y1="290.29" y2="290.29"><stop offset="0" stop-color="#7d5e68"></stop><stop offset="1" stop-color="#8c8f9e"></stop></linearGradient><linearGradient xlink:href="#Bm" id="CC" x1="648.18" x2="648.18" y1="307.98" y2="247.61"></linearGradient><linearGradient xlink:href="#Bm" id="CD" x1="640.48" x2="640.48" y1="281.03" y2="270.07"></linearGradient><linearGradient xlink:href="#Bs" id="CE" x1="211.53" x2="211.53" y1="328.75" y2="245.94"></linearGradient><linearGradient xlink:href="#CB" id="CF" x1="187.44" x2="229.97" y1="287.35" y2="287.35"></linearGradient><linearGradient xlink:href="#Bm" id="CG" x1="211.78" x2="211.78" y1="306.31" y2="245.94"></linearGradient><linearGradient xlink:href="#Bm" id="CH" x1="204.08" x2="204.08" y1="279.35" y2="268.4"></linearGradient><linearGradient xlink:href="#Bm" id="CI" x1="36.6" x2="35.587" y1="322.699" y2="301.123"></linearGradient><linearGradient xlink:href="#Bm" id="CJ" x1="191.902" x2="193.202" y1="307.352" y2="285.791"></linearGradient><linearGradient xlink:href="#Bm" id="CK" x1="-6.95" x2="-6.95" y1="311.29" y2="279.39" gradientTransform="scale(-1 1) rotate(-5.66 -323.06971177 7251.3520441)"></linearGradient><linearGradient xlink:href="#Bl" id="CL" x1="-94.21" x2="-94.21" y1="307.34" y2="306.79" gradientTransform="scale(-1 1) rotate(-5.66 -323.06971177 7251.3520441)"></linearGradient><linearGradient xlink:href="#Bm" id="CM" x1="438.927" x2="438.471" y1="304.039" y2="271.413"></linearGradient><linearGradient xlink:href="#Bl" id="CN" x1="174.05" x2="174.05" y1="309.21" y2="308.66" gradientTransform="scale(-1 1) rotate(.35 1574.7281708 -113657.42482585)"></linearGradient><linearGradient xlink:href="#Bl" id="CO" x1="503.058" x2="503.056" y1="300.824" y2="300.704"></linearGradient><linearGradient xlink:href="#DR" id="CP" x1="400" x2="400" y1="400" y2="300.7"><stop offset="0" stop-color="#d7c9f5"></stop><stop offset=".39" stop-color="#d8cbf4"></stop><stop offset=".61" stop-color="#ded3f4"></stop><stop offset=".78" stop-color="#e8e1f4"></stop><stop offset=".93" stop-color="#f7f4f4"></stop><stop offset=".99" stop-color="#fffff4"></stop></linearGradient><linearGradient xlink:href="#CP" id="CQ" x1="210.74" x2="210.74" y2="302.64"></linearGradient><linearGradient xlink:href="#CP" id="CR" x1="531.2" x2="531.2" y1="301.16" y2="400"></linearGradient><linearGradient xlink:href="#Bm" id="CS" x1="38.76" x2="201.18" y1="331.76" y2="331.76"></linearGradient><linearGradient xlink:href="#DR" id="CT" x1="138.87" x2="802.44" y1="349.19" y2="349.19"><stop offset="0" stop-color="#844034"></stop><stop offset=".99" stop-color="#a46533"></stop></linearGradient><linearGradient xlink:href="#DR" id="CU" x1="240.08" x2="813.74" y1="362.54" y2="362.54"><stop offset="0"></stop><stop offset=".71" stop-color="#509b9e"></stop><stop offset=".99" stop-color="#71dbde"></stop></linearGradient><linearGradient xlink:href="#CU" id="CV" x1="539.63" x2="814.94" y1="368.48" y2="368.48"></linearGradient><linearGradient xlink:href="#DR" id="CW" x1="631.04" x2="631.04" y1="334.12" y2="203.68"><stop offset="0" stop-color="#814c63"></stop><stop offset=".65" stop-color="#7c4658"></stop><stop offset="1" stop-color="#7a4351"></stop></linearGradient><linearGradient xlink:href="#CW" id="CX" x1="44.27" x2="44.27" y1="366.29" y2="214.24"></linearGradient><linearGradient xlink:href="#CW" id="CY" x1="51.36" x2="51.36" y1="338.49" y2="314.54"></linearGradient><linearGradient xlink:href="#DR" id="CZ" x1="402.8" x2="402.8" y1="331.7" y2="257.63"><stop offset="0" stop-color="#525289"></stop><stop offset="1" stop-color="#9f7f9e"></stop></linearGradient><linearGradient xlink:href="#DR" id="Ca" x1="335.28" x2="335.28" y1="330.9" y2="279.19"><stop offset="0" stop-color="#cf568b"></stop><stop offset="1" stop-color="#fff"></stop></linearGradient><linearGradient xlink:href="#DR" id="Cb" x1="349.18" x2="349.18" y1="107.72" y2="98.7"><stop offset="0" stop-color="#c2c5e0"></stop><stop offset=".99" stop-color="#eee5ff"></stop></linearGradient><linearGradient xlink:href="#Cb" id="Cc" y2="102.53"></linearGradient><linearGradient xlink:href="#Cb" id="Cd" x1="316.4" x2="316.4" y1="118.03" y2="99.23"></linearGradient><linearGradient xlink:href="#Cb" id="Ce" x1="349.36" x2="349.36" y1="141.73" y2="133.91"></linearGradient><linearGradient xlink:href="#Cb" id="Cf" x1="349.36" x2="349.36" y1="141.73" y2="137.41"></linearGradient><linearGradient xlink:href="#DR" id="Cg" x1="325.04" x2="325.04" y1="147.2" y2="133.91"><stop offset="0" stop-color="#c2c5e0"></stop><stop offset=".99" stop-color="#eee5ff"></stop></linearGradient><linearGradient xlink:href="#Cb" id="Ch" x1="325.04" x2="325.04" y1="147.2" y2="133.91"></linearGradient><linearGradient xlink:href="#Cb" id="Ci" x1="385.97" x2="385.97" y1="137.73" y2="130.07"></linearGradient><linearGradient xlink:href="#Cb" id="Cj" x1="385.97" x2="385.97" y1="137.73" y2="133.24"></linearGradient><linearGradient xlink:href="#Cb" id="Ck" x1="307.73" x2="307.73" y1="215.49" y2="207.83"></linearGradient><linearGradient xlink:href="#Cb" id="Cl" x1="307.73" x2="307.73" y1="215.49" y2="210.99"></linearGradient><linearGradient xlink:href="#Cb" id="Cm" x1="273.46" x2="273.46" y1="234.81" y2="228.75"></linearGradient><linearGradient xlink:href="#Cb" id="Cn" x1="399.92" x2="399.92" y1="215.25" y2="207.44"></linearGradient><linearGradient xlink:href="#Cb" id="Co" x1="399.92" x2="399.92" y1="215.25" y2="210.67"></linearGradient><linearGradient xlink:href="#Cb" id="Cp" x1="292.1" x2="292.1" y1="120.45" y2="112.65"></linearGradient><linearGradient xlink:href="#Cb" id="Cq" x1="292.1" x2="292.1" y1="120.45" y2="115.87"></linearGradient><linearGradient xlink:href="#Cb" id="Cr" x1="320.96" x2="320.96" y1="51.84" y2="45.88"></linearGradient><linearGradient xlink:href="#Cb" id="Cs" x1="320.96" x2="320.96" y1="51.84" y2="48.35"></linearGradient><linearGradient xlink:href="#DR" id="Ct" x1="337.99" x2="337.99" y1="330.9" y2="14.54"><stop offset="0"></stop><stop offset=".1" stop-color="#0d0c12"></stop><stop offset=".32" stop-color="#2e2c43"></stop><stop offset=".62" stop-color="#655f91"></stop><stop offset=".99" stop-color="#afa5fb"></stop><stop offset="1" stop-color="#b1a7fe"></stop></linearGradient><linearGradient xlink:href="#CZ" id="Cu" x1="290.29" x2="290.29" y1="331.99" y2="288.81"></linearGradient><linearGradient xlink:href="#DR" id="Cv" x1="-5.32" x2="808.21" y1="194.48" y2="194.48"><stop offset="0" stop-color="#1f2a50"></stop><stop offset=".38" stop-color="#10162b"></stop><stop offset=".78" stop-color="#04060c"></stop><stop offset="1"></stop></linearGradient><linearGradient xlink:href="#Bm" id="Cw" x1="353.54" x2="353.54" y1="211.22" y2="204.65"></linearGradient><linearGradient xlink:href="#Cb" id="Cx" x1="353.54" x2="353.54" y1="211.22" y2="204.65"></linearGradient><linearGradient xlink:href="#Bm" id="Cy" x1="306.31" x2="306.31" y1="332.12" y2="317.12"></linearGradient><linearGradient xlink:href="#Cb" id="Cz" x1="300.43" x2="300.43" y1="332.06" y2="319.4"></linearGradient><linearGradient xlink:href="#Bm" id="DA" x1="327.47" x2="327.47" y1="274.95" y2="268.05"></linearGradient><linearGradient xlink:href="#Cb" id="DB" x1="327.47" x2="327.47" y1="274.95" y2="270.22"></linearGradient><linearGradient xlink:href="#Bm" id="DC" x1="404.4" x2="404.4" y1="331.41" y2="322.73"></linearGradient><linearGradient xlink:href="#Cb" id="DD" x1="404.4" x2="404.4" y1="331.41" y2="325.46"></linearGradient><linearGradient xlink:href="#Bm" id="DE" x1="288.81" x2="288.81" y1="279.57" y2="275.74"></linearGradient><linearGradient xlink:href="#Cb" id="DF" x1="288.81" x2="288.81" y1="279.57" y2="276.94"></linearGradient><linearGradient xlink:href="#Bm" id="DG" x1="383.89" x2="383.89" y1="275.14" y2="267.4"></linearGradient><linearGradient xlink:href="#Cb" id="DH" x1="383.89" x2="383.89" y1="275.14" y2="268.32"></linearGradient><linearGradient xlink:href="#Bm" id="DI" x1="342.63" x2="342.63" y1="196.66" y2="192.29"></linearGradient><linearGradient xlink:href="#Cb" id="DJ" x1="342.63" x2="342.63" y1="196.66" y2="192.81"></linearGradient><linearGradient xlink:href="#DR" id="DK" x1="-6.14" x2="806.6" y1="148.73" y2="148.73"><stop offset="0"></stop><stop offset=".22" stop-color="#04060c"></stop><stop offset=".62" stop-color="#10162b"></stop><stop offset="1" stop-color="#1f2a50"></stop></linearGradient><linearGradient id="DR" gradientUnits="userSpaceOnUse"></linearGradient><path id="DM" d="m328 99.23-16.95 11.34-6.24 7.46 19.4-14.56 3.79-4.24z"></path><path id="DN" d="m331.99 133.91-8.53 7.02-5.37 5.69 4.14.58 7.51-8.84 2.25-4.45z"></path><path id="DO" d="M283.79 234.24c-.26-.13-4.51-2.45-10.74-2.26-5.92.17-9.68 2.68-9.91 2.83l.54-.85 2.23-3.52s2.75-1.83 7-1.68 6.88 1.69 6.88 1.69l3.71 3.52s.02.02.03.02l.14.13.12.12z"></path><path id="DP" d="M413.21 214.51c-.33-.17-5.8-3.15-13.83-2.91-7.61.21-12.46 3.44-12.76 3.65l.7-1.1 2.87-4.53s3.54-2.35 9.02-2.16c5.47.19 8.85 2.18 8.85 2.18l4.77 4.53s.03.02.04.03l.18.16.15.15Z"></path><path id="DQ" d="M413.21 214.51c-.33-.17-5.8-3.15-13.83-2.91-7.61.21-12.46 3.44-12.76 3.65l.7-1.1s4.34-3.32 13.3-3.47c7.32-.12 11.08 2.52 12.21 3.49.02.01.03.02.04.03l.18.16.15.15Z"></path><clipPath id="DL"><path fill="none" d="M0 0h800v400H0z"></path></clipPath></defs><g clip-path="url(#DL)"><path fill="url(#Bj)" d="M0-119.89h800v442.37H0z"></path><g class="R"><path fill="url(#Bk)" d="m711.54 261.13 11.22-28.03 5.19 21.92-2.14-1.19.61 1.19h-.92l-1.45-3.03.74 4.5 11.59 16.54 15.25 16.08-17.44-1.76-5.7-15.29-.52-.08 3.66 11.91-.92.03-2.74-4.43 4.13 9.14 15.79 5.25-4.53 60.36-46.26-1.74 13.68-58.31-12.3 15.61-1.05.39 1.05-15.59-1.38.86-2.85 15.51-13.1 6 27.67-43.94-9.52 13.15 6.62-15.52 13.26-16.68.12-2.3-1.88 3.86-5.88 5.59z"></path><path fill="url(#Bl)" d="m722.76 233.1-11.22 28.03 5.88-5.59 1.88-3.86-.12 2.3-13.26 16.68-6.62 15.52 9.52-13.15-27.67 43.94 13.1-6 2.85-15.51 1.38-.86-1.05 15.59 1.05-.39 12.3-15.61-13.68 58.31 46.26 1.74-25.29-31.46-2.73-34.84 1.74 4.39 15.02-3.7-4.13-9.14-15.71 1.54 5.77-16.94 2.41-5.02 7.53 12.91-5.21-15.49h2.03l-.74-4.5 1.45 3.03h.92l-.61-1.19 2.14 1.19-1.93-2.65-4.54-4.02.11-9.48 1.17-5.77z" class="P" style="mix-blend-mode:multiply"></path><path fill="url(#Bm)" d="m748.89 284.86-12.41-1.42-2.16-3.19-9.76-19.75 6.39 18.57-1.99.18-5.34-6.57 5.06 11.65-1.35 8.4-9.89-7.62-.28-17.62-12.91 17.37-19.72 26.1v-3.1l17.15-26.9 13.47-18.56-3.01-2.49-.73-1.49 11.46-25.32 3.83 16.34-2.86-5.9-2.16 1.45 2.91 9.12 25.89 28.5-1.59 2.25z"></path><path fill="url(#Bn)" d="m712.29 262.07-2.34.79-7.09 7.39.85 5.94 8.58-14.12z"></path><path d="m750.48 282.61-13.12-.8-11.65-21.31-1.12-6.39-2.91-9.12 2.16-1.45 2.86 5.9-2.09-8.9-4.68 5.05v6.5l-5.25 5.78-3.27.55.73 1.49 3.01 2.49 1.63-1.43 1.61-.47-1.23 4.63-31.53 43.01-1.1-.28v3.1l32.63-43.47.28 17.62 9.89 7.62v-2.75l-8.32-5.6-.62-16.53 2.34-5.3 2.89 10.13 5.34 6.57 1.69-.15-2.45-2.3-3.84-11.72.36-3.33-.16-1.25 9.76 19.75 2.16 3.19 12.41 1.42 1.59-2.25z" class="B M N"></path><path fill="url(#Bo)" d="m237.04 239.94-6.68 16.84 3.3-.82 3.61-4.47-3.8 7.07-10.94 19.27 5.99-1.15 5.14-4.9L214 294.82l-16.12 91.47 75.49.16-13.25-87.04-13.29-22.73 7.83 11.51 7.07 6.15-14.9-32.64 3 4.68 2.3 2.04-2.3-5.22 3.34 3.18 6.15 2.04-15.83-19.3-.89-2.57 3.99 5.28 3.7 1.91-13.13-22.1-.12 8.3z"></path><path fill="url(#Bp)" d="m237.27 251.49-14.74 26.34 5.99-1.15 5.14-4.9L214 294.82l-10.22 59.58 26.87-66.44 6.62-22.56v8.39l9.38 6.87.18-3.98-7.32-23.16 3.98-4.4-.89-2.57-5.56-6.61-6.68 16.84 3.3-.82 3.61-4.47z" class="P" style="mix-blend-mode:multiply"></path><path fill="url(#Bq)" d="m225.35 274.61-.95-1.43 10.16-16.23 3.3-4.7v-3.01l-3.76 5.74-1.87.68-1.1-1.51 5.91-12.55v-10.42l12.88 18.97-1.3 2.75-8.16-11.94 2.13 6.9.79 2.28 12.96 12.81v3l-12.58-10.97 12.58 24.87 2.07 7.9-4.68-3.47-11.47-22.6-3.87 9.81-10.42 19.79-10.77-.56-.77-2.47 17.67-17.3.53-6.06-4.68 7.06-4.6 2.66z"></path><path d="m249.92 250.15-2.12-1.43-8.62-10.72-2.14-.46v4.06l1.17-1.15 1 3.4-5.45 9.77-2.63.53 1.1 1.51 1.87-.68 3.76-5.74v3.01l1.37-.75-.41 4.74-9.86 15.04-4.56 1.9.95 1.43 4.6-2.66 4.68-7.06 4.33-6.55.94 4.05-1.94 8.13-10.73 18.66-10.8-.93.77 2.47 10.77.56 10.42-19.79 3.87-9.81 11.47 22.6 4.68 3.47-2.07-7.9-4.22-.74-12.25-22.42.99-4.31 2.9 2.6 12.58 10.97v-3l-2.58-.51-11.43-9.56-1.87-7.57v-4.35l8.16 11.94 1.3-2.75z" class="B M N"></path><path fill="url(#Br)" d="M240.22 296.19v-20.07l1.69-.48 5.3 4.75 9.55 13.48-.58 1.75-12.96 1.29-3-.72z"></path><path d="M256.76 293.87s-8.01 1.99-13.69.92l-2.85-18.68v20.08l3 .72 12.96-1.29.57-1.75Z" class="B M N"></path><path fill="url(#Bs)" d="m692.08 256.21-5.81 14.65 2.87-.72 3.14-3.89-3.31 6.15-9.51 16.76 5.2-1 4.48-4.26-17.1 20.04-14.02 79.54 65.65.15-11.53-75.7-11.55-19.77 6.81 10.01 6.15 5.35-12.96-28.39 2.61 4.07 2 1.78-2-4.55 2.9 2.77 5.35 1.78-13.76-16.79-.78-2.23 3.47 4.59 3.22 1.66-11.42-19.22-.1 7.22z"></path><path fill="url(#Bt)" d="m692.28 266.25-12.82 22.91 5.2-1 4.48-4.26-17.1 20.04-8.89 51.81 23.37-57.78 5.76-19.62v7.3l8.16 5.97.15-3.46-6.36-20.14 3.46-3.83-.78-2.23-4.83-5.75-5.81 14.65 2.87-.72 3.14-3.89z" class="P" style="mix-blend-mode:multiply"></path><path fill="url(#Bu)" d="m682.13 286.08-.81-1.23 8.7-13.9 2.83-4.03v-2.57l-3.22 4.92-1.6.58-.94-1.29 5.06-10.76v-8.92l11.03 16.25-1.11 2.35-6.99-10.22 1.83 5.91.67 1.95 11.1 10.98v2.56l-10.77-9.39 10.77 21.3 1.78 6.77-4.01-2.97-9.83-19.36-3.31 8.4-8.93 16.95-9.23-.47-.65-2.13 15.13-14.81.46-5.19-4.01 6.04-3.95 2.28z"></path><path d="m703.18 265.13-1.82-1.22-7.37-9.19-1.84-.4v3.48l1-.98.86 2.91-4.67 8.37-2.25.46.94 1.29 1.6-.58 3.22-4.92v2.57l1.18-.64-.36 4.07-8.44 12.88-3.91 1.62.81 1.23 3.95-2.28 4.01-6.04 3.71-5.62.8 3.47-1.67 6.97-9.18 15.99-9.25-.81.65 2.13 9.23.47 8.93-16.95 3.31-8.4 9.83 19.36 4.01 2.97-1.78-6.77-3.61-.63-10.49-19.21.84-3.69 2.49 2.23 10.77 9.39v-2.56l-2.21-.44-9.79-8.2-1.6-6.48v-3.72l6.99 10.22 1.11-2.35z" class="B M N"></path><path fill="url(#Bv)" d="M694.87 304.57v-17.2l1.45-.41 4.54 4.07 8.18 11.55-.49 1.5-11.1 1.11-2.58-.62z"></path><path d="M709.04 302.58s-6.86 1.7-11.73.79l-2.44-16v17.2l2.57.62 11.1-1.11.49-1.5Z" class="B M N"></path><path fill="url(#Bw)" d="m786.96 246.4 13.77-30.59 6.38 23.91-2.63-1.29.75 1.29h-1.13l-1.78-3.3.91 4.91 14.23 18.05 18.73 17.53-21.41-1.91-7.01-16.69-.64-.08 4.5 13-1.13.03-3.37-4.84 5.08 9.98 19.38 5.72-5.55 65.85-56.81-1.9 16.8-63.61-15.1 17.03-1.3.43 1.3-17.02-1.7.94-3.5 16.92-16.08 6.55 33.97-47.93-11.68 14.35 8.13-16.94 16.27-18.2.15-2.5-2.3 4.21-7.23 6.1z"></path><path fill="url(#Bx)" d="m800.73 215.81-13.77 30.59 7.23-6.1 2.3-4.21-.15 2.5-16.27 18.2-8.13 16.94 11.68-14.35-33.97 47.93 16.08-6.55 3.5-16.92 1.7-.94-1.3 17.02 1.3-.43 15.1-17.03-16.8 63.61 56.81 1.9-31.06-34.32-3.36-38.01 2.14 4.79 18.45-4.03-5.08-9.98-19.29 1.69 7.09-18.49 2.97-5.47 9.23 14.08-6.4-16.9h2.5l-.91-4.91 1.78 3.3h1.13l-.75-1.29 2.63 1.29-2.37-2.88-5.57-4.39.14-10.34 1.42-6.3z" class="P" style="mix-blend-mode:multiply"></path><path fill="url(#By)" d="m827.97 269.69-13.03-1.5-2.27-3.34-10.24-20.74 6.71 19.5-2.09.18-5.6-6.89 5.3 12.22-1.41 8.83-10.39-8-.29-18.51-13.56 18.25-20.7 27.4v-3.25l18-28.25 14.15-19.49-3.16-2.62-.76-1.55 12.02-26.6 4.03 17.16-3-6.2-2.28 1.53 3.06 9.58 27.19 29.93-1.68 2.36z"></path><path fill="url(#Bz)" d="m789.55 245.75-2.46.83-7.45 7.76.9 6.24 9.01-14.83z"></path><path d="m829.65 267.33-13.78-.84-12.23-22.38-1.18-6.71-3.06-9.58 2.28-1.53 3 6.2-2.2-9.34-4.92 5.3v6.83l-5.5 6.06-3.43.59.76 1.55 3.16 2.62 1.71-1.5 1.69-.49-1.29 4.86-33.11 45.16-1.15-.29v3.25l34.26-45.65.29 18.51 10.39 8v-2.89l-8.74-5.88-.65-17.36 2.46-5.56 3.04 10.64 5.6 6.89 1.77-.15-2.57-2.42-4.03-12.31.38-3.5-.17-1.3 10.24 20.74 2.27 3.34 13.03 1.5 1.68-2.36z" class="B M N"></path><path fill="url(#CA)" d="m644.87 268.05 7.66-19.17 3.56 14.99-1.47-.82.42.82h-.63l-.99-2.07.51 3.07 7.92 11.31 10.43 10.99-11.93-1.2-3.9-10.45-.35-.06 2.5 8.15-.63.02-1.87-3.03 2.82 6.25 10.79 3.59-3.09 41.26-31.63-1.19 9.36-39.86-8.41 10.67-.72.27.72-10.67-.95.59-1.94 10.61-8.96 4.1 18.92-30.04-6.51 8.99 4.53-10.61 9.06-11.4.08-1.57-1.28 2.64-4.02 3.82z"></path><path fill="url(#CB)" d="m652.53 248.88-7.66 19.17 4.02-3.82 1.28-2.64-.08 1.57-9.06 11.4-4.53 10.61 6.51-8.99-18.92 30.04 8.96-4.1 1.94-10.61.95-.59-.72 10.67.72-.27 8.41-10.67-9.36 39.86 31.63 1.19-17.29-21.51-1.87-23.82 1.19 3 10.27-2.52-2.82-6.25-10.74 1.05 3.95-11.58 1.64-3.43 5.15 8.82-3.57-10.59h1.4l-.51-3.07.99 2.07h.63l-.42-.82 1.47.82-1.33-1.81-3.1-2.75.08-6.48.79-3.95z" class="P" style="mix-blend-mode:multiply"></path><path fill="url(#CC)" d="m672.51 287.75-9.62-1.1-1.67-2.48-7.57-15.31 4.96 14.4-1.55.14-4.13-5.09 3.92 9.02-1.05 6.52-7.67-5.91-.21-13.66-10.01 13.47-15.29 20.23v-2.4l13.29-20.86 10.45-14.39-2.33-1.93-.57-1.15 8.88-19.64 2.97 12.67-2.21-4.57-1.68 1.12 2.25 7.08L673.75 286l-1.24 1.75z"></path><path fill="url(#CD)" d="m644.14 270.07-1.82.62-5.49 5.73.66 4.61 6.65-10.96z"></path><path d="m673.75 286-10.18-.62-9.02-16.52-.88-4.95-2.25-7.08 1.68-1.12 2.21 4.57-1.62-6.9-3.63 3.92v5.04l-4.06 4.48-2.54.43.57 1.15 2.33 1.93 1.26-1.11 1.25-.36-.95 3.59-24.45 33.35-.85-.22v2.4l25.3-33.7.21 13.66 7.67 5.91v-2.13l-6.45-4.35-.48-12.81 1.81-4.11 2.25 7.86 4.13 5.09 1.31-.12-1.89-1.78-2.99-9.09.29-2.59-.13-.96 7.57 15.31 1.67 2.48 9.62 1.1 1.24-1.75z" class="B M N"></path><path fill="url(#CE)" d="m208.21 265.11 7.67-19.17 3.55 14.98-1.46-.81.42.81h-.63l-1-2.07.51 3.08 7.92 11.31 10.43 10.99-11.92-1.2-3.9-10.46-.36-.05 2.51 8.14-.63.02-1.88-3.03 2.83 6.25 10.79 3.59-3.09 41.26-31.63-1.18 9.35-39.87-8.4 10.67-.72.27.72-10.66-.95.59-1.95 10.6-8.95 4.11 18.91-30.04-6.5 8.99 4.52-10.61 9.07-11.41.08-1.57-1.28 2.64-4.03 3.83z"></path><path fill="url(#CF)" d="m215.88 245.94-7.67 19.17 4.03-3.83 1.28-2.64-.08 1.57-9.07 11.41-4.52 10.61 6.5-8.99-18.91 30.04 8.95-4.11 1.95-10.6.95-.59-.72 10.66.72-.27 8.4-10.67-9.35 39.87 31.63 1.18-17.29-21.5-1.87-23.82 1.19 3 10.27-2.53-2.83-6.25-10.74 1.06 3.95-11.58 1.65-3.44 5.14 8.83-3.56-10.59h1.39l-.51-3.08 1 2.07h.63l-.42-.81 1.46.81-1.32-1.81-3.1-2.74.08-6.48.79-3.95z" class="P" style="mix-blend-mode:multiply"></path><path fill="url(#CG)" d="m236.11 286.07-9.62-1.1-1.68-2.47-7.56-15.31 4.95 14.39-1.54.14-4.14-5.09 3.92 9.03-1.04 6.51-7.68-5.91-.21-13.66-10.01 13.47-15.29 20.24v-2.41l13.3-20.86 10.44-14.38-2.33-1.93-.56-1.15 8.87-19.64 2.98 12.67-2.22-4.58-1.68 1.13 2.26 7.07 20.07 22.1-1.23 1.74z"></path><path fill="url(#CH)" d="m207.74 268.4-1.82.61-5.5 5.73.66 4.61 6.66-10.95z"></path><path d="m237.34 284.33-10.17-.62-9.03-16.52-.87-4.96-2.26-7.07 1.68-1.13 2.22 4.58-1.62-6.9-3.64 3.92v5.04l-4.06 4.47-2.53.44.56 1.15 2.33 1.93 1.27-1.11 1.24-.36-.95 3.58-24.45 33.35-.85-.22v2.41l25.3-33.71.21 13.66 7.68 5.91v-2.13l-6.46-4.34-.48-12.82 1.82-4.11 2.24 7.86 4.14 5.09 1.31-.11-1.9-1.79-2.98-9.09.28-2.58-.12-.96 7.56 15.31 1.68 2.47 9.62 1.1 1.23-1.74z" class="B M N"></path><path fill="url(#CI)" d="M74.5 315.73s-7.59 3.43-18.96 4.71S.26 324.4.26 324.4s-2.51-5.07-2.07-6.62c.43-1.54 6.09-5.47 8.89-5.38s4 4.1 4 4.1l-1.05.98 3.15.07s-.03-.03-.07-.09c-.3-.4-1.5-2.03-2.24-3.55 0-.02-.02-.03-.02-.05s-.01-.03-.02-.05c-.34-.73-.58-1.42-.55-1.94.08-1.78 5.61-4.91 9.03-4.23s7.5 4.64 8.02 6.74c.11.42.15.86.17 1.28.03 1.28-.26 2.43-.39 2.91 0 .03-.02.06-.03.09 0 .02-.01.05-.02.07 0 .02-.01.05-.02.07l2.96-.06h.17s-.57-.91-.72-2.14c-.06-.38-.06-.79-.01-1.21.24-1.79 4.65-3.21 7.12-3.19 2.45.03 4.38 4.93 4.32 5.61s-1.53 1.68-1.53 1.68l2.74.72s-.28-3.3.64-5.12c0 0 0-.02.01-.03.93-1.81 13.18-13.66 21.37-15.27 0 0 3.08.28 4.42 4.54.29.94.43 1.94.47 2.94.12 3.33-.89 6.56-1 6.95v.03l-.02.01s2.45-2.27 4.11-1.97c.79.15 1.38.94 1.78 1.73a9.36 9.36 0 0 1 .66 1.72z"></path><g class="M"><path d="M74.5 315.73s-7.59 3.43-18.96 4.71S.26 324.4.26 324.4s-2.51-5.07-2.07-6.62c0 0 .18 3.08 1.58 3.87 0 0 8-2.83 11.31-5.15l-1.05.98 3.15.07s-.03-.03-.07-.09c-.32-.38-1.54-1.92-2.24-3.55 0-.02-.02-.03-.02-.05 0-.01-.01-.03-.02-.05.15.1 5.26 3.17 10.86 3.33 5.35.14 5.76-1.3 5.8-1.47.03.14.22 1.17-.39 2.89 0 .03-.02.06-.03.09 0 .02-.01.05-.02.07 0 .02-.01.05-.02.07l2.96-.06s-.55-.94-.56-2.15c.08.06 1.56 1.07 5.6 1.45 4.17.39 5.83-.23 5.83-.23-.06.68-1.53 1.68-1.53 1.68l2.74.72s-.28-3.3.64-5.12c.25.73.71 1.49 1.53 1.72 1.77.51 15.81.2 20.21-3.32 3.01-2.4 4.11-4.88 4.52-6.22.12 3.33-.89 6.56-1 6.95v.03l-.02.01-1.34 1.93s4.54-.43 7.24-2.17a9.36 9.36 0 0 1 .66 1.72zm-28.29-2.15s5.17.61 12.26-2.25c7.09-2.87 6.96-8.92 6.96-8.92s-.4 4.05-4.37 6.62-14.1 2.64-14.1 2.64l-.76 1.92z" class="B N"></path></g><path fill="url(#CJ)" d="M230.37 304.47s-7.91 2.6-19.35 2.66c-11.45.06-55.39-1.97-55.39-1.97s-1.95-5.31-1.35-6.8c.59-1.49 6.64-4.79 9.41-4.4s3.54 4.5 3.54 4.5l-1.15.86 3.13.4s-.02-.03-.06-.1c-.26-.43-1.27-2.18-1.85-3.77 0-.02-.02-.03-.02-.05s-.01-.03-.01-.05c-.26-.76-.42-1.47-.34-1.99.27-1.76 6.1-4.29 9.43-3.24 3.32 1.05 6.96 5.42 7.25 7.55a6.2 6.2 0 0 1 .03 1.29v.01c-.1 1.26-.51 2.38-.7 2.84 0 .03-.02.06-.04.08 0 .02-.02.05-.03.07 0 .02-.02.05-.03.07l2.95.26.17.02s-.46-.97-.49-2.2c-.02-.38.02-.79.12-1.21.43-1.76 4.97-2.7 7.42-2.41 2.44.29 3.83 5.37 3.7 6.04s-1.7 1.51-1.7 1.51l2.65 1s.07-3.31 1.18-5.03c0 0 0-.02.01-.03 1.12-1.7 14.56-12.18 22.88-12.9 0 0 3.04.61 3.91 4.98.19.96.22 1.98.15 2.97-.24 3.32-1.58 6.43-1.74 6.8v.03l-.02.01s2.68-2 4.3-1.52c.77.23 1.28 1.08 1.59 1.91.35.91.47 1.78.47 1.78z"></path><g class="M"><path d="M230.37 304.47s-7.91 2.6-19.35 2.66c-11.45.06-55.39-1.97-55.39-1.97s-1.95-5.31-1.35-6.8c0 0-.15 3.08 1.15 4.01 0 0 8.25-1.96 11.8-3.91l-1.15.86 3.13.4s-.02-.03-.06-.1c-.28-.41-1.32-2.07-1.85-3.77 0-.02-.02-.03-.02-.05 0-.01-.01-.03-.02-.05.14.12 4.89 3.72 10.44 4.47 5.3.72 5.87-.67 5.92-.84.02.14.09 1.19-.7 2.84 0 .03-.02.06-.04.08 0 .02-.02.05-.03.07 0 .02-.02.05-.03.07l2.95.26s-.44-.99-.32-2.19c.08.07 1.44 1.23 5.41 2.04 4.1.84 5.83.39 5.83.39-.13.67-1.7 1.51-1.7 1.51l2.65 1s.07-3.31 1.18-5.03c.17.75.54 1.56 1.34 1.88 1.7.69 15.7 1.88 20.45-1.14 3.25-2.06 4.61-4.42 5.16-5.71-.24 3.32-1.58 6.43-1.74 6.8v.03l-.02.01-1.54 1.77s4.56.05 7.43-1.38c.35.91.47 1.78.47 1.78zm-27.9-5.16s5.08 1.16 12.43-.93c7.36-2.09 7.88-8.13 7.88-8.13s-.83 3.99-5.05 6.12c-4.23 2.13-14.3 1.12-14.3 1.12l-.96 1.83z" class="B N"></path></g><path fill="url(#CK)" d="m559.45 299.98 14.86 1.4 252.17 25.8 1.36-13.68v-.1l.53-5.35s-15.86 1.42-18.69 4c-2.84 2.57-3.14 5.59-3.14 5.59l3.85 1.53-5.19.44s.11-.53.08-1.23c-.04-.56-.15-1.21-.48-1.8-.75-1.34-12.42-4.16-17.05-3.47-4.32.64-7.12 4.85-7.48 5.41-.01.02-.01.03-.01.04-.02.02-.02.03-.02.03s-5.66-3.1-8.7-3.14c0 0-1.84.33-3.55 1.87-.22.19-.43.4-.64.63l-6.06.99s-3.59-.3-5.13-3.61c0 0 1.97-.44 3.55-2.23a7.33 7.33 0 0 0 1.39-2.36c1.37-3.79-.31-7.27-2.05-7.69s-3.95.87-3.95.87.04-.37.11-.87l.29-1.87c0-.01.01-.02.01-.03.02-.11.04-.21.06-.3.26-1.17-10.9-16.62-20.89-14.31-4.29.99-3.99 9.58-3.2 15.67.42 3.27.98 5.82 1.03 6.08l-.04-.04c-.23-.3-1.28-1.52-3.45-1.96-2.49-.5-10.49.99-11.74 2.64-.21.28-.41.59-.58.92-.9 1.58-1.41 3.46-1.41 3.46l-4.78-.47s-3.56-4.62-7.55-8.16c-2.03-1.8-4.18-3.32-6.03-3.78-5.45-1.37-15.51-2.5-17.67-1.06-.86.57-1.38 1.88-1.69 3.25-.47 2.06-.45 4.28-.45 4.28s-1.67-2.33-2.64-2.8-6.5-.64-8.06.22c-.8.44-1.34 1.22-1.68 1.89-.33.65-.47 1.2-.47 1.2l-11.22.34s1.88-3.57 2.67-6.53c.22-.83.35-1.61.33-2.25-.07-2.93-6.93-8.05-10.86-8.18-3.8-.14-6.58 6.39-6.75 6.8.03-.09.18-.51.4-1.14 0-.02.01-.04.03-.06.01-.03.03-.08.05-.15.73-2.14 2.1-6.25 2.07-7.9-.02-2.29-3.5-8.23-6.94-9.32-3.44-1.1-12.63 3.19-15.25 6.61-.7.92-1.24 2.5-1.65 4.33 0 0-.07.32-.18.92a5.15 5.15 0 0 1-.09.49 14.21 14.21 0 0 0-.14.95c-.02.12-.03.24-.06.36v.02l-.15 1.06c-.09.65-.17 1.38-.25 2.18a34.02 34.02 0 0 0-.1 1.13c-.02.2-.03.4-.05.61 0 .2-.03.41-.04.62-.04.49-.06 1-.09 1.52 0 .19-.02.38-.03.57 0 .16-.01.32-.02.48v.1c-.02.41-.02.64-.02.64s-.11-.25-.29-.6c-.4-.8-1.18-2.17-1.94-2.41-1.11-.36-8.77-2.56-13.33-.06-1.12.61-1.67 1.39-1.94 1.99-.25.56-.26.97-.26.97l-2.38-.37s-.76-1.86-1.7-3.91c-.95-2.07-2.1-4.34-2.87-5.05-1.52-1.42-14.12.66-17.07 2.47-.86.52-1.51 1.16-2.02 1.8-1.24 1.56-1.56 3.14-1.56 3.14s-2.16-.96-5.52-1.57c-3.37-.61-5.67 1.55-5.67 1.55z"></path><path fill="url(#CL)" d="M780.27 318.55s.06.06.1.09l-.09-.13-.31-.46s-.01.23.29.5Z" class="P" style="mix-blend-mode:multiply"></path><path d="m570.64 300.01 3.67 1.38 252.17 25.8 1.36-13.68c-.06.62-.56 4-4.25 5.19-4.06 1.32-17.03-1.06-17.03-1.06s-.55.36-1.26.73c-.4.22-.86.45-1.29.61-1.19.45-11.77 1.51-18 1.01-3.62-.28-5.07-.88-5.62-1.32l1.14 1.7s-7.99-.66-11.08-1.54c-1.4-.4-2.1-.99-2.45-1.51-.22.19-.43.4-.64.63l-6.06.99s-3.59-.3-5.13-3.61c0 0 1.97-.44 3.55-2.23-.26-.02-4.65-.37-6.15-3.23-1.55-2.95 1.27-5.79 1.27-5.79l.39-1.03.29-1.87c-.3.76-1.94 2.7-10.76 3.11-6.09.28-10.51-.93-13.26-2.08.42 3.27.98 5.82 1.03 6.08v.02s1.85 1.67 4.12 7.63c0 0-14.65-1.94-19.94-6.1-.9 1.58-1.41 3.46-1.41 3.46l-4.78-.47s-3.56-4.62-7.55-8.16c-.56 1.25-2.61 3.87-10.15 3.22-7.62-.66-13.14-3.55-15.24-4.82-.47 2.06-.45 4.28-.45 4.28l2.3 2.91s-8.46.16-14.42-3.6h-.25c-.33.65-.47 1.19-.47 1.19l-11.22.34s1.88-3.57 2.67-6.53c-4.89.45-13.28.84-19.85-.82l2.97-3.95s.01-.04.03-.06c.01-.03.03-.08.05-.15.43-1.06 2.47-6.27 2.07-7.9 0 0-4.12 5.8-12.29 6.14-8.15.34-11.55-4.52-11.55-4.52s-.07.32-.18.92a5.15 5.15 0 0 1-.09.49 14.21 14.21 0 0 0-.14.95c-.02.12-.03.24-.06.36v.02l-.15 1.06c-.09.65-.17 1.38-.25 2.18a34.02 34.02 0 0 0-.1 1.13c-.02.2-.03.4-.05.61 0 .2-.03.41-.04.62-.04.49-.06 1-.09 1.52 0 .19-.02.38-.03.57 0 .16-.01.32-.02.48v.1s-.11 0-.32.04c-1.94.21-12.27 1.26-15.23.39-.88-.26-1.51-.56-1.97-.87-.25.56-.26.97-.26.97l-2.38-.37s-.76-1.86-1.7-3.91c0 0-2.1 1.95-10.67 1.86-8.55-.08-11.28-2.64-11.28-2.64-1.24 1.56-1.56 3.14-1.56 3.14z" class="B M N"></path><path fill="url(#CM)" d="m570.95 300.66-1.89 1.54c-65.2-.96-200.89.23-250.08.72l-3.39.04-14.93.16s2.06-2.38 5.47-2.14c3.41.26 5.65.99 5.65.99s.16-1.61 1.22-3.29c.44-.7 1.02-1.39 1.82-2.01 2.73-2.11 15.05-5.49 16.71-4.24.83.62 2.22 2.75 3.38 4.71a102.09 102.09 0 0 1 2.1 3.71l2.4.12s-.04-.41.16-.99c.2-.62.67-1.46 1.71-2.18 4.28-2.96 12.13-1.58 13.26-1.34.78.16 1.7 1.44 2.19 2.2.21.33.35.57.35.57s-.02-.23-.04-.64c0-.03 0-.07-.01-.1-.01-.16-.02-.32-.04-.48-.01-.19-.03-.38-.03-.57l-.07-1.52-.03-.62v-.61a14.45 14.45 0 0 1-.02-1.13v-2.19l.03-1.07v-.02c0-.12 0-.24.02-.36 0-.36.02-.68.04-.96.02-.18.03-.35.04-.5.04-.6.08-.93.08-.93.21-1.86.58-3.49 1.19-4.48 2.25-3.67 10.94-8.9 14.47-8.17 3.55.73 7.62 6.26 7.89 8.55.19 1.64-.73 5.87-1.24 8.08-.02.07-.03.12-.04.15 0 .02-.02.04-.02.06l-.28 1.16c.12-.42 2.22-7.2 6.01-7.47 3.92-.28 11.28 4.09 11.65 7 .09.63.04 1.42-.1 2.27-.47 3.03-1.96 6.78-1.96 6.78l11.12-1.52s.09-.56.34-1.25c.27-.7.72-1.54 1.47-2.06 1.47-1.02 6.98-1.42 8-1.06 1.01.38 2.92 2.52 2.92 2.52s-.25-2.2 0-4.3c.16-1.39.54-2.76 1.34-3.41 2-1.67 12.12-1.59 17.68-.8 1.88.26 4.18 1.55 6.39 3.13 4.33 3.09 8.36 7.32 8.36 7.32l4.8-.04s.3-1.91 1.04-3.59a7.95 7.95 0 0 1 .48-.97c1.08-1.78 8.87-4.1 11.4-3.86 2.21.21 3.38 1.3 3.64 1.59l.04.04c-.08-.26-.91-2.74-1.66-5.95-1.41-5.97-2.62-14.48 1.54-15.91 9.69-3.34 22.41 10.86 22.28 12.04 0 .09-.02.19-.04.3v.03c-.04.61-.07 1.33-.08 1.89-.02.51-.02.88-.02.88s2.06-1.52 3.83-1.28c1.77.25 3.81 3.52 2.84 7.44-.26 1-.65 1.83-1.14 2.5-1.37 1.95-3.29 2.59-3.29 2.59 1.25 2.07 3.24 2.73 4.45 2.95.59.11.99.11 1.03.11l.4-.11 5.52-1.51c.18-.25.36-.49.57-.7 1.54-1.7 3.33-2.23 3.33-2.23 3.03-.27 8.98 2.21 8.98 2.21s0-.01.02-.03c0 0 0-.02.02-.04.29-.58 2.64-5.08 6.86-6.16 4.53-1.17 16.44.41 17.33 1.67.38.54.57 1.18.66 1.72.1.7.05 1.24.05 1.24l5.11-.98-3.99-1.11s-.01-3.03 2.54-5.89c2.54-2.86 14.47-8.95 18.16-5.93.65.52 3.34 2.41 5.46 4.72 1.3 1.42 2.38 3.01 2.61 4.51.38 2.51-3.59 6.35-6.06 8.46z"></path><path fill="url(#CN)" d="m522.21 298.45.11.08-.1-.12-.35-.43s.01.23.34.47z" class="P" style="mix-blend-mode:multiply"></path><path d="m502.35 300.7-183.38 2.23-3.39.04-3.8-.99s.16-1.61 1.22-3.29c0 0 2.98 2.25 11.5 1.44 8.52-.8 10.41-2.97 10.41-2.97a102.09 102.09 0 0 1 2.1 3.71l2.4.12s-.04-.41.16-.99c.49.25 1.15.49 2.05.66 3.04.56 13.2-1.58 15.11-1.98.2-.05.31-.07.31-.07 0-.03 0-.07-.01-.1-.01-.16-.02-.32-.04-.48-.01-.19-.03-.38-.03-.57l-.07-1.52-.03-.62v-.61a14.45 14.45 0 0 1-.02-1.13v-2.19l.03-1.07v-.02c0-.12 0-.24.02-.36 0-.36.02-.68.04-.96.02-.18.03-.35.04-.5.04-.6.08-.93.08-.93s3.89 4.48 11.97 3.28c8.08-1.18 11.58-7.38 11.58-7.38.56 1.58-.92 6.97-1.24 8.08-.02.07-.03.12-.04.15 0 .02-.02.04-.02.06l-2.54 4.24c6.7.97 15.01-.31 19.81-1.27-.47 3.03-1.96 6.78-1.96 6.78l11.12-1.52s.09-.56.34-1.25l.25-.02c6.33 3.11 14.72 2.07 14.72 2.07l-2.59-2.65s-.25-2.2 0-4.3c2.21 1.04 8.01 3.34 15.66 3.19 7.56-.15 9.34-2.96 9.76-4.27 4.33 3.09 8.36 7.32 8.36 7.32l4.8-.04s.3-1.91 1.04-3.59c5.69 3.59 20.46 3.98 20.46 3.98-2.88-5.7-4.89-7.16-4.89-7.16v-.02c-.09-.26-.92-2.74-1.67-5.95 2.85.86 7.37 1.6 13.4.68 8.73-1.33 10.16-3.43 10.37-4.23-.04.61-.07 1.33-.08 1.89l-.28 1.06s-2.5 3.13-.66 5.89c1.8 2.69 6.2 2.58 6.46 2.58-1.37 1.95-3.29 2.59-3.29 2.59 1.25 2.07 3.24 2.73 4.45 2.95z" class="B M N"></path><path fill="url(#CO)" d="M502.35 300.7h1.43l-.4.11s-.44 0-1.03-.11Z" class="P" style="mix-blend-mode:multiply"></path><path d="M570.95 300.66c-18.47-.18-41.89-.14-67.17.03l5.52-1.51c.18-.25.36-.49.57-.7.4.48 1.16.99 2.6 1.25 3.16.55 11.18.36 11.18.36l-1.31-1.57c.6.38 2.1.83 5.73.73 6.25-.16 16.65-2.31 17.79-2.89.41-.21.83-.47 1.22-.73.66-.45 1.17-.87 1.17-.87s13.15 1.01 17.05-.73c2.29-1 6.43-4.11 9.1-6.36 1.3 1.42 2.38 3.01 2.61 4.51.38 2.51-3.59 6.35-6.06 8.46Z" class="B M N"></path></g><path fill="url(#CP)" d="M163 303.66 21.67 323.2 0 322.48V400h800v-77.52L579.96 300.7 163 303.66z"></path><path fill="url(#CQ)" d="m223.02 303.23 50.97-.59-27.62 29.35 32.16 14.43 142.96 26.51L262.39 400H0l72-17.37 15.5-12.35L0 375.54v-8.01l40.54 4.34 74.83-38.67-10.67.1 9.13-2.71 37.51-25.32 11.66-1.61 60.02-.43z"></path><path fill="url(#CR)" d="m515.51 301.16 39.05 18.15 80.12 13.83-16.99.98-77.54-13.54-11.71.26L594 357.1l164.5 16.62 31-8.9-154.32-26.7 125.32 18.43 39.5-7.27V400H262.39l195.36-33.24 43.29-39-51.4-26.09 65.87-.51z"></path><path d="m40.54 371.87 31.31-.65L0 375.54v-8.01l40.54 4.34zM72 382.63 35.92 400H0l72-17.37z" class="Q"></path><path fill="#cc8b59" d="m515.51 301.16 39.05 18.15L620 334.19l86.64 14.35-146.75-30.67-11.39-6.41 45.5 4.46 46.91 4.36-26.02-16.62-34.93-2.96-64.45.46zm12.93 19.68L594 357.1l143.49 14.5-50.04-13.26-58.8-6.64-8.36-3.72 75.1 9.12 39.87-.55-153.18-18.43-13.08-6.81 63.96 8.99 7.25-1.31-100.06-18.41-11.71.26zm169.72 19.28 65.34 7.08 36.5 2.08v-13.7l-152.86-13.1 8.12 3.37 58.24 12.65-15.34 1.62z" class="C"></path><path fill="url(#CS)" d="m38.76 360.13 110.23-19.48 43.28-19.07 8.91-18.19-54.74 1.86-9.13 2.71-98.55 52.17z"></path><path fill="#cc8b59" d="M21.67 323.2 0 331.31l104.7-17h9.05L18.5 330.59l-2.75 2.61 45.5-1.1-2 1.1 7.5 4.2h40.5l8.12-4.2-10.67.1 9.13-2.71 37.51-25.32L21.67 323.2z" class="C"></path><path fill="url(#A)" d="m745.75 381.88-77.41-7.43-27.24-5.35 31.32-2.34 73.33 15.12z" class="O" style="mix-blend-mode:multiply"></path><path fill="url(#CT)" d="M800.08 343.76s-218.98 7.63-231.7 3.17-7.67-6.76-20.39-7.13-196.54 2.44-205.84 2.72c-9.31.27-190.46 1.89-202.1 1.08s66.59 6.82 66.59 6.82l340.2 3.82 100.3 4.36 155.3-4.36-2.36-10.47z"></path><path fill="url(#B)" d="m814.94 387.48-12.59-.16-178.04-2.23-28.86.72-65.08-4.47-4.38-1.91-44.62.75-58.13-10.36c-.22.01-17.67.04-43.08.12L185.17 371c-27.6.8-111.06 7.9-117.13-8.69-1.15-3.14-38.14-5.54-80.25-8.86-61.42-4.84-133.72-11.65-121.6-25.6 40.28 11.01 227.78-8.4 234.99 9.44 3.77 9.3 143.56 9.47 266.59 9.04h.39c96.59-.32 182.75-1.01 184.5 2.08 1.5 2.65 30.85 3.5 69.37 3.46h.04l97.49-1.32h.4l93.02-2.48.99-.03.04 1.45.93 37.99z"></path><path fill="url(#CU)" d="m813.74 338.49-3.81 48.11-77.5-.41-108.12-1.69-28.86.71-28.13-2.16-36.96-2.83-4.38-2.08-44.63.72-35.46-7.07-22.69-4.29c-.75.02-64.71-6.29-126.5-12.39 69.83 3.16 207.26 8.2 211.5 4.81 5.23-4.18-41.13-7.09-48.34-7.53l168.1 4.58c1.39-2.23-70.96-5.13-70.96-5.13l-17.12-4.58-299.79-1.6c123.43-.6 309.4-6.97 312.48-1.11 4.55 8.68 261.18-6.05 261.18-6.05z" class="O" style="mix-blend-mode:screen"></path><path fill="url(#CV)" d="m814.01 349.49.94 37.99-82.53-1.29 61.43-2.2-254.22-5.73c-1.08-2.97 187.09 1.39 186.99-2.61s-138.11-2.6-139.18-5.57 102.99-1.54 102.94-3.54 52.96-2.31 52.89-5.31-73.49-6.09-79.82-5.48-43.06-4.09-43.06-4.09l193.62-2.17z" class="O" style="mix-blend-mode:screen"></path><path d="M541.39 368.21c.01.55-7.14 1.18-15.97 1.39s-16.01-.05-16.02-.61 7.14-1.18 15.97-1.39 16.01.05 16.02.61zm16.95-1.91c0 .28-2.67.57-5.99.65s-6-.08-6.01-.35 2.67-.57 5.99-.65 6 .08 6.01.35zm-10.89 4.27c0 .28-2.67.57-5.99.65s-6-.08-6.01-.35 2.67-.57 5.99-.65 6 .08 6.01.35zm-11.17-6.73c0 .28-2.67.57-5.99.65s-6-.08-6.01-.35 2.67-.57 5.99-.65 6 .08 6.01.35zm15.94-2.39c0 .28-4.24.6-9.48.73-5.25.13-9.5.01-9.51-.27 0-.28 4.24-.6 9.48-.73 5.25-.13 9.5-.01 9.51.27zm19.1 3.53c0 .28-4.24.6-9.48.73-5.25.13-9.5.01-9.51-.27 0-.28 4.24-.6 9.48-.73 5.25-.13 9.5-.01 9.51.27zm15.13 5.12c.01.55-6.69 1.17-14.97 1.37s-15.01-.08-15.02-.63 6.69-1.17 14.97-1.37 15.01.08 15.02.63z" class="O Q" style="mix-blend-mode:lighten"></path><path fill="#e3edff" d="M168.32 360.48c.01.55-7.14 1.18-15.97 1.39-8.83.22-16.01-.05-16.02-.61-.01-.55 7.14-1.18 15.97-1.39 8.83-.22 16.01.05 16.02.61zm16.96-1.92c0 .28-2.67.57-5.99.65s-6-.08-6.01-.35c0-.28 2.67-.57 5.99-.65s6 .08 6.01.35zm-10.9 4.27c0 .28-2.67.57-5.99.65-3.31.08-6-.08-6.01-.35 0-.28 2.67-.57 5.99-.65s6 .08 6.01.35zm-11.17-6.72c0 .28-2.67.57-5.99.65-3.31.08-6-.08-6.01-.35 0-.28 2.67-.57 5.99-.65s6 .08 6.01.35zm15.95-2.4c0 .28-4.24.6-9.48.73-5.25.13-9.5.01-9.51-.27 0-.28 4.24-.6 9.48-.73 5.25-.13 9.5-.01 9.51.27zm19.09 3.53c0 .28-4.24.6-9.48.73-5.25.13-9.5.01-9.51-.27s4.24-.6 9.48-.73 9.5-.01 9.51.27zm15.13 5.13c.01.55-6.69 1.17-14.97 1.37s-15.01-.08-15.02-.63 6.69-1.17 14.97-1.37 15.01.08 15.02.63z" class="S" style="mix-blend-mode:lighten"></path><path fill="#959fab" d="M802.35 387.28v.04l-178.04-2.23-28.86.72-65.08-4.47-4.38-1.91 3.18.23c5.62.41 17.63 1.19 27.33 1.32 13.14.18 35.1 3.49 41.22 2.65 3.56-.5 70.55-.62 126.49-.52l75.79.52c1.26.24 1.9 1.51 2.21 2.93l.14.72zM380.2 369.93h-.04L185.17 371c-27.6.8-111.06 7.9-117.13-8.69-1.15-3.14-38.14-5.54-80.25-8.86l-2.61-4.26s84.6 3.88 85.68 8.47c1.08 4.6-.16 10.28 29.17 12.88s105.29-3.14 131.75-3.01l148.42 2.4z" style="mix-blend-mode:multiply"></path><g class="R"><path fill="url(#CW)" d="M619.66 332.83s5.42-14.1 5.16-19.45l-.88-26.74 2.93-25.02s-3.94-7.68-4.7-13.17-2.04-12.89-2.04-12.89l-2.19-31.89 4.56 40.38c.63 2.72 4.6 13.43 5.49 13.87s5.19-3.22 6.46-4.23c1.26-1.01 1.62-27.76 1.62-27.76l.37 22.84s-.35 3.02-1.56 4.92c-.99 1.55-5.8 5.3-5.8 5.3s.75 2.27.88 3.03c0 0 5.21-1.59 6.54-3.58s2.68-8.79 2.68-8.79l5.25-11.6s-6.65 17.5-7.59 21.01l-.57 1.23s-3.65.9-6.25 3.6l-2.26 22.75c-.26 3.88 5.18 26.74 5.68 29.01.51 2.27 1.27 17.48 1.27 17.48l-2.4.2s-.25-2.4-.76-2.59-3.35 2.8-3.35 2.8l-10.49.56s1.69-.63 1.98-1.29z"></path><path fill="#b56d48" d="M626.67 263.41s1.57 1.81 1.66 3.52l-2.18 21.32c0 .67 3.47 13.17 3.47 13.17l-3.47-6.44s3.69 12.03 4.83 19.89-11.32 17.97-11.32 17.97 4.99-13.37 5.17-18.89-1.11-19.52-.89-27.3 2.73-23.24 2.73-23.24z"></path><path fill="url(#CX)" d="M-.14 366.29s8.65-20.94 27.65-36.31l5.3-7.42s-.66-21.21 7.62-41.09 44.29-58.94 44.29-58.94l3.96-8.28s-49.46 58.59-54.32 73.07c0 0-4.32-.23-6.82-11.72-2.54-11.7-3.78-32.78-3.78-32.78l-.27 18.3s.19 4.46 2.11 13.44c1.91 8.98 7.51 16.97 7.51 16.97s-1.62 22.79-4.71 29.86S-.13 346.57-.13 346.57v19.73z"></path><path fill="url(#CY)" d="M54.02 325.64s-12.25 3.86-27.7 5.32c0 0-5.51 2.7-7.91 7.53 0 0 14.1-6.95 29.56-8.21l36.33-15.74-30.29 11.1Z"></path></g><path fill="url(#CZ)" d="m439.68 331.7-10.13-23.16-4.08-.99-2.2.99-8.05-23.79h-1.36l-7.84-26.54-2.87-.58-1.89 14.12v15.57l-.73 1.49-2.53-22.59-6.76-3.38-2.43 14.54-1.69.95 1.21 37.5-1.27 1.04-6.72-29.93-6.24-2.5-4.16-1.4-4.02 48.47 73.76.19z"></path><path fill="url(#C)" d="m435.08 331.21-7.55-.98-2.06-22.68-2.2.99-3.88 7.29h-2.2l-4.55-25.79 2.58-5.29h-1.36l-6.77 8.04-1.36-.09-2.93-26.7.35-8.37-1.89 14.12v15.57l-.73 1.49v32.77l-3.16 3.86-6.39-42.4.94-17.78-.68-2.42-2.43 14.54 2.41 13.52 1.17 22.16-3.14 2.77-2.13-37.5 1.21 37.5-1.27 1.04-1.77 5.24-5.09 2.78-8.33-41.2-1.93-.65-4.02 48.47 49.62.13 24.14.06-4.6-.49z" class="O" style="mix-blend-mode:multiply"></path><path fill="url(#D)" d="m412.64 290.04-5.55 2.75v11.9l1.78 1.25 3.77 25.69h5.44l21.6.07-12.15-1.47-2.06-22.68-2.2.99-3.88 7.29h-2.2l-4.55-25.79z" class="O" style="mix-blend-mode:multiply"></path><path fill="url(#E)" d="m402.8 266 2.93 26.7 1.36.09v11.9l-4.91 9.41-1.57 17.5-4.03-.01.79-6.15 3.16-3.86v-32.77l.73-1.49v-15.57l1.54-5.75z" class="O" style="mix-blend-mode:multiply"></path><path fill="url(#F)" d="m390.98 283.04-.49 3.79.73 4.07 1.17 22.16 1.91 17.37 2.28 1.16.79-6.15-6.39-42.4z" class="O" style="mix-blend-mode:multiply"></path><path fill="url(#G)" d="m389.25 315.83-1.56 2.25 1.56 12.35-9.05-.48v-5.06l5.09-2.78 1.77-5.24 1.27-1.04h.92z" class="O" style="mix-blend-mode:multiply"></path><g class="T"><path d="m432.74 315.83-6.64-1.32.23 2.54 7.39 1.03-.98-2.25zm3.19 7.3-9.4-3.91.07.75 9.68 3.95-.35-.79z" opacity=".2" style="mix-blend-mode:multiply"></path><path d="m417.39 291.17-2.33 12.57 1.16 6.51 3.01-13.64-1.84-5.44zm-9.22-25.7-4.66 7.03 1.63 14.82 6.54-9.94-3.51-11.91zm-16.25 23.82 7.71-8.48.9 8-5.74 19.48-2.87-19z" class="D O"></path></g><g class="R"><path fill="url(#H)" d="m304.8 119.4-4.94-4.79c-3.25-11.95-6.09-25.29-8.12-42.04-2.9 16.52-5.17 31.71-9.17 42.03l-3.54 5.53s10.87-6.76 25.77-.74Z"></path><path fill="url(#I)" d="M279.03 120.13s11.96-7.28 25.77-.74c0 0-12.13 5.57-25.77.74Z"></path><path fill="url(#J)" d="m298.38 151.13-1.21 134.76h-20.91l5.82-134.78c8.5-2.28 16.3.02 16.3.02z"></path><path fill="url(#K)" d="m298.46 139.45-3.89-.28-1.41 1.73.82 1.35-.59-4.51-5.03.02-.71 3.56.08-1.05.51-1.05-3.83.6-.69 4.51 14.29.92.45-5.8z"></path><path fill="url(#L)" d="m282.3 146.58 1.1-25.24s8.22-3.91 15.17-.62l-.56 24.52-15.71 1.34Z"></path><path fill="url(#M)" d="m279.81 147.36.82-6.76s1.49-2.09 3.49-2.8l-.1 6.13 2.65-.6.28-6.49s3.07-1.5 7.19-.08l-.14 6.69 3 .39.62-6.11s1.95.66 3 2.61l-.04 6.92s-6.52-4.36-20.77.11Z"></path><path fill="url(#N)" d="m297.63 137.71-1.21.52-.49 5.46 1.08.13.62-6.11z"></path><path fill="url(#O)" d="m284.12 137.79 1.15.7-.23 5.2-1.02.23.1-6.13z"></path><g class="I"><path d="m283.41 121.34-2.5-1.52s12.72-5.53 20.98-.13l-3.31 1.03s-6.36-2.92-15.17.62Z"></path><path d="m280.91 119.83 2.28 6.56.28-5.28-2.56-1.28zm11.8-2.5-.28 8.41 2.95-8.28-2.67-.14z"></path></g><path fill="url(#P)" d="M292.42 125.74h1.67l3.97-7.75s-1.12-.36-2.69-.52l-2.95 8.28Z"></path><path d="m301.89 119.69-3.43 6.02.12-4.99 3.31-1.03z" class="I"></path><path fill="url(#Q)" d="m298.46 125.71-.02 1 3.8-6.37-.35-.65-3.43 6.02z"></path><path fill="url(#R)" d="m280.91 119.83-.28.83 2.51 6.9.05-1.17-2.28-6.56z"></path><path d="M285.31 136.14s-.02-5.41-.72-5.89-1.14 6.55-1.14 6.55l1.86-.66z" class="I"></path><path fill="url(#S)" d="M284.38 136.48s-.31-4.07.64-4.98c0 0 .32 2.29.29 4.65l-.93.33Z"></path><path d="m279.03 120.13 3.54-5.53s8.15-4.77 17.29 0l4.94 4.79s-13.35-6.91-25.77.74Z" class="F Q"></path><path fill="url(#T)" d="m279.78 150.35 2.19 2.9s8.22-3.37 16.4-.55l2.19-2.04s-6.62-5.22-20.78-.3Z"></path><path fill="url(#U)" d="M279.78 150.35s11.94-4.58 20.78.3l.02-3.41s-8.43-5.09-20.77.11l-.03 2.99Z"></path><path d="m279.78 150.35 1.99 7.36.2-4.46-2.19-2.9zm11.59-1.91-.06 7.67 1.78-7.61-1.72-.06zm9.19 2.21-2.23 8.06.04-6.02 2.19-2.04z" class="I"></path><path fill="url(#V)" d="m293.09 148.5 2.94.45-2.27 7.74-2.45-.58 1.78-7.61z"></path><path fill="url(#W)" d="m298.33 158.71.02-2.05 2.21-6.01-2.23 8.06z"></path><path fill="url(#X)" d="m281.77 157.71-1.99-7.36.59-.21 1.46 6.02-.06 1.55z"></path><path d="m279.78 150.35 1.99 7.36-.03 3.62s9.93-4.99 16.58-1.29v-1.34l2.24-8.06s-6.47-4.93-20.78-.3Z" class="G J L"></path><path d="M297.04 226.92s1.14-61.99-.91-63.88-2.92 63.75-2.92 63.75l3.84.13z" class="I"></path><path fill="#44419f" d="m298.06 185.3-18.25 18.02-3.55 82.58h20.92l.88-100.6z" class="H S"></path><path d="m280.63 120.66 2.51 6.9-.06 1.36s9.71-3.59 15.36-2.21l3.8-6.37 2.57-.94s-11.66-6.87-25.77.74l1.6.52Z" class="G J L"></path><path d="M280.17 226.91s1.27-61.96 3.39-63.8c2.13-1.83.45 63.78.45 63.78h-3.84Zm5.72-.02s1.95-64.52 4.36-65.6c2.41-1.09 1.09 65.58 1.09 65.58l-5.45.02Z" class="I"></path><path fill="url(#Y)" d="M281.23 226.91s.73-56.63 2.87-62.43c0 0 1.3 20.97-.09 62.42h-2.78Z"></path><path fill="url(#Z)" d="M295.98 226.89s1.47-56.64-.44-62.5c0 0-2.11 20.92-2.34 62.41l2.78.09Z"></path><path fill="url(#a)" d="M285.89 226.89s2.19-62.39 4.18-62.44c1.57-.04.6 62.43.6 62.43h-4.77Z"></path><path fill="url(#b)" d="m398.88 137.02-5.01-4.8c-3.4-11.99-6.41-25.36-8.65-42.16-2.71 16.56-4.8 31.8-8.68 42.15l-3.49 5.54s10.82-6.77 25.83-.72Z"></path><path fill="url(#c)" d="M373.06 137.74s11.9-7.29 25.83-.72c0 0-12.09 5.58-25.83.72Z"></path><path fill="url(#d)" d="m392.83 168.84.43 135.14H372.3l4.19-135.17c8.49-2.28 16.34.03 16.34.03z"></path><path fill="url(#e)" d="m376.66 164.27.8-25.31s8.2-3.92 15.2-.62l-.38 25.85-15.61.08Z"></path><g class="I"><path d="m377.46 138.96-2.53-1.52s12.68-5.54 21.03-.12l-3.31 1.03s-6.41-2.93-15.2.62Z"></path><path d="m374.93 137.44 2.37 6.58.22-5.29-2.59-1.29zm11.8-2.5-.18 8.44 2.86-8.3-2.68-.14z"></path></g><path fill="url(#f)" d="M386.55 143.38h1.68l3.88-7.77s-1.13-.36-2.7-.53l-2.86 8.3Z"></path><path d="m395.96 137.32-3.36 6.02.06-5 3.3-1.02z" class="I"></path><path fill="url(#g)" d="m392.6 143.34-.01 1.01 3.73-6.39-.36-.64-3.36 6.02z"></path><path fill="url(#h)" d="m374.93 137.44-.26.83 2.59 6.93.04-1.18-2.37-6.58z"></path><path d="M379.55 153.8s-.08-5.43-.79-5.9c-.71-.48-1.06 6.57-1.06 6.57l1.86-.67Z" class="I"></path><path fill="url(#i)" d="M378.62 154.13s-.36-4.08.58-5c0 0 .35 2.29.35 4.66l-.93.33Z"></path><path d="m373.06 137.74 3.49-5.54s8.11-4.78 17.34.02l5.01 4.8s-13.47-6.94-25.83.72Z" class="F Q"></path><path fill="url(#j)" d="m374.18 168.05 2.23 2.9s8.2-3.38 16.43-.54l2.17-2.05s-6.69-5.24-20.83-.31Z"></path><path fill="url(#k)" d="M374.18 168.05s11.91-4.59 20.83.31l-.02-3.42s-8.52-5.11-20.82.1v3Z"></path><path d="m374.18 168.05 2.08 7.38.15-4.48-2.23-2.9zm11.59-1.91.03 7.69 1.69-7.63-1.72-.06zm9.24 2.22-2.14 8.08-.03-6.03 2.17-2.05z" class="I"></path><path fill="url(#l)" d="m387.49 166.2 2.96.45-2.18 7.76-2.47-.58 1.69-7.63z"></path><path fill="url(#m)" d="m392.87 176.44-.01-2.05 2.15-6.03-2.14 8.08z"></path><path fill="url(#n)" d="m376.26 175.43-2.08-7.38.59-.21 1.53 6.04-.04 1.55z"></path><path d="m374.18 168.05 2.08 7.38v3.63s9.91-5 16.62-1.28v-1.34l2.13-8.08s-6.54-4.95-20.83-.31Zm.49-29.78 2.59 6.93-.04 1.36s9.68-3.6 15.37-2.21l3.73-6.38 2.56-.94s-11.78-6.9-25.83.72l1.61.53Z" class="G J L"></path><path fill="url(#o)" d="m308.79 118.01-3.97.03 10.42-12.46s16.21-29.15 25.13-64.29l-7.59 59.21-6.84 5-17.15 12.5Z"></path><path fill="url(#p)" d="M340.36 41.29s11.41 33.39 22.35 57.41l11.45 9.02-49.95-4.25 3.79-4.23s5.75-22.12 12.36-57.95Z"></path><path fill="url(#q)" d="m374.16 107.72-19.6 12.7-49.75-2.39 19.4-14.56 49.95 4.25z"></path><path d="m314.35 122.32-5.56-4.31 17.14-12.51 42.23 2.25-5.35 5.3-35.3-.71-13.16 9.98z" class="I"></path><path fill="#817fff" d="m327.79 110.8 35.02 2.25 2.57 67.46-41.02-2.58 3.43-67.13z"></path><path d="m310.85 179.06 3.5-56.74 13.44-11.52-2.24 67.02-14.7 1.24z" class="I"></path><path fill="url(#r)" d="m307.82 306.22 2.89-98.02 68.22-.24 1.53 99.32-72.64-1.06z"></path><path d="m307.82 306.22-20.32.01 3.9-97.96 19.31-.07-2.89 98.02z" class="I"></path><path fill="url(#s)" d="M372.58 180.96c2.44 12.06 3.41 17.68 9.08 26.99l7.5 2.98-82.82.29 4.38-4.22 7.26-29.47 54.6 3.43Z"></path><path fill="url(#t)" d="m283.72 211.3 6.15-4.83c5.63-8.8 7.53-13.47 10.61-25.2l17.49-3.75c-1.5 12.02-3.94 20.85-7.26 29.47l-4.38 4.22-22.62.08Z"></path><path fill="url(#u)" d="m385.69 210.94.02 3.92-6.58 4.53-66.78.22-21.44-.92-3.3-5.1-.43-2.3 21.13-.07 77.38-.28z"></path><path fill="url(#v)" d="m385.71 214.86-76.28-.07-1.12-3.57 77.38-.28.02 3.92z"></path><path fill="url(#w)" d="m306.27 306.1-13.36.09-3.94.03c2.5-44.47 10.81-77.02 10.81-77.02.75 2.57 1.42 5.42 2.01 8.44 5.27 26.85 4.48 68.45 4.48 68.45Z"></path><path fill="url(#x)" d="m306.27 306.1-13.36.09c1.74-30.94 6.29-56.1 8.88-68.55 5.27 26.85 4.48 68.45 4.48 68.45Z"></path><path d="M327.27 306.46s4.7-58.32 14.16-80.33l6.08-3.63s-10.05 29.31-18.96 83.96h-1.28Z" class="I"></path><path fill="url(#y)" d="M347.51 222.51s14.79 28.24 17.05 84.52l-36.01-.57s5.37-61.87 18.96-83.96Z"></path><path fill="url(#z)" d="M363.17 307.03s-1.59-52.57-15.17-77.97c0 0-13.11 32.87-17.07 77.4l32.24.57Z"></path><path fill="url(#AA)" d="M361.22 306.81s-.89-55.82-14.65-73.84c0 0-12.2 31.83-15.64 73.49l30.28.35Z"></path><path fill="url(#AB)" d="m353.37 306.82-22.43-.35c1.46-14.08 3.43-26 5.28-35.34 2.95-14.9 5.64-23.21 5.64-23.21 1.22 1.8 2.32 4.2 3.32 7.01 6.28 17.78 8.19 51.89 8.19 51.89Z"></path><path fill="#44419f" d="m327.53 206.71-9.56-29.18 11.3.71-1.74 28.47z" class="H S"></path><path fill="url(#AC)" d="M374.8 257.54h.61s.81-17.57-4.98-32.17l-.85.73s-6.01 11.02-6.9 32.56l12.11-1.12Z"></path><path fill="url(#AD)" d="M375.5 257.54h.61s.25-17.49-5.68-32.17c0 0-6.16 11.75-7.05 33.29l12.11-1.12Z"></path><path fill="url(#AE)" d="m375.5 257.84-1.86-.05-9.45-.24c.76-14.83 3.59-22.49 5.16-25.69.65-1.32 1.09-1.88 1.09-1.88 5 11.28 5.05 27.86 5.05 27.86Z"></path><path fill="url(#AF)" d="m373.64 257.8-9.45-.24c.76-14.83 3.59-22.49 5.16-25.69 4.09 10.77 4.28 24.97 4.28 25.93Z"></path></g><path fill="url(#AG)" d="M364.19 257.55h12.98v1.09h-12.98z" transform="rotate(359.88 357.838 248.657)"></path><g class="R"><path fill="url(#AH)" d="m377.18 258.62-1.68 1.02-12.81-.12-.01-.87 1.51-1.09v1.09l12.99-.03z"></path><path fill="url(#AI)" d="M367.96 235.23s1.83 4.11 1.09 22.32h.23s.43-17.78 2.26-22.33l-1.46-4.67s-1.36 2.36-2.11 4.68Z"></path><path fill="url(#AJ)" d="M327.65 257.64h.61s.92-17.54-4.78-32.13l-.86.73s-6.07 11-7.09 32.51l12.12-1.11Z"></path><path fill="url(#AK)" d="M328.35 257.64h.61s.35-17.47-5.48-32.13c0 0-6.23 11.73-7.25 33.24l12.12-1.11Z"></path><path fill="url(#AL)" d="m328.35 257.95-1.86-.05-9.45-.24c.85-14.81 3.72-22.46 5.32-25.65.66-1.32 1.1-1.88 1.1-1.88 4.93 11.26 4.89 27.82 4.89 27.82Z"></path><path fill="url(#AM)" d="m326.49 257.9-9.45-.24c.85-14.81 3.72-22.46 5.32-25.65 4.03 10.75 4.13 24.94 4.13 25.89Z"></path><path fill="url(#AN)" d="M317.04 257.66v1.09l12.98-.03.01-1.09-12.99.03z"></path><path fill="url(#AO)" d="m330.02 258.72-1.68 1.02-12.81-.12v-.87l1.51-1.09v1.09l12.98-.03z"></path><path fill="url(#AP)" d="M320.95 235.36s1.81 4.11.95 22.29h.23s.53-17.76 2.39-22.3l-1.43-4.66s-1.38 2.36-2.14 4.67Z"></path><path d="m385.71 214.86-6.58 4.53.01 3.02-69.22 6.26-19.6 6.95.59-16.93-3.3-5.1-.43-2.3 21.13-.07 1.12 3.57 76.28.07z" class="G J L"></path><path fill="url(#AQ)" d="M301.41 188.54s-.08.04-.12.07.08-.05.12-.07Z"></path><path fill="url(#AR)" d="m272.15 279.8 126.14-2.57.34 53.27-129.38.26 2.9-50.96z"></path><path fill="url(#AS)" d="m302.86 279.18-1.45 51.33-32.16.25 2.9-50.96 30.71-.62z"></path><path fill="url(#AT)" d="m320.78 214.8-5.01-4.8c-3.32-11.97-6.22-25.32-8.32-42.08-2.9 16.52-5.17 31.71-9.19 42.03l-3.58 5.52s10.99-6.73 26.09-.66Z"></path><path fill="url(#AU)" d="M294.69 215.47s12.09-7.25 26.09-.66c0 0-12.26 5.54-26.09.66Z"></path><path fill="url(#AV)" d="m309.82 248.6-.1 3.15-1.83 78.84-10.08-.05 2.57-74.05.37-7.87.08-.03c5.43-2.25 8.83-.08 8.97 0z"></path><path fill="url(#AW)" d="m315.6 242.17-.51 4.26c-5.13.64-5.27 2.17-5.27 2.17-4.69-1.47-8.39-.23-8.97-.01l-.08.03c-1.39-2.09-5.24-2.92-5.24-2.92l.02-2.99 1.68-.53.41-.12.4-.11h.03l.57-.15h.01c10.26-2.61 16.39.12 16.92.37.03 0 .04.01.04.01z"></path><path fill="url(#AX)" d="M295.52 245.7s9-3.15 19.57.73l.51-4.26s-8.36-3.48-20.06.53l-.02 3Z"></path><path fill="url(#AY)" d="m314.4 234.85-3.94-.29-1.42 1.72.83 1.35-.61-4.51-5.09.01-.71 3.55.08-1.05.52-1.04-3.88.58-.7 4.51 14.48.96.44-5.79z"></path><path fill="url(#AZ)" d="m298.06 241.94 1.06-25.25s8.32-3.89 15.35-.58l-.52 24.54-15.9 1.29Z"></path><path fill="url(#Aa)" d="m295.54 242.7.82-6.76s1.5-2.09 3.53-2.8l-.09 6.13 2.69-.59.27-6.5s3.66-1.32 7.84.12l-.69 6.52 3.04.4.62-6.11s1.78.54 2.32 2.51l-.28 6.55s-9-2.94-20.06.53Z"></path><path fill="url(#Ab)" d="m313.56 233.1-1.23.52-.48 5.46 1.09.14.62-6.12z"></path><path fill="url(#Ac)" d="m299.88 233.14 1.17.71-.23 5.2-1.03.23.09-6.14z"></path><path d="M315.09 246.43c-5.13.64-5.27 2.17-5.27 2.17l-.1 3.15c-4.26 1.03-7.86 3.59-9.33 4.74l.37-7.87c-1.39-2.09-5.24-2.92-5.24-2.92 8.38-2.09 15.23-.62 18.1.24.02 0 .04.01.05.02.05.01.1.03.15.05.62.19 1.03.34 1.19.4.02 0 .04.01.05.02h.02Z" class="G J L"></path><g class="I"><path d="m299.12 216.69-2.54-1.53s12.86-5.5 21.24-.07l-3.35 1.02s-6.44-2.94-15.35.58Z"></path><path d="m296.59 215.16 2.32 6.58.28-5.28-2.6-1.3zm11.94-2.46-.27 8.42 2.97-8.27-2.7-.14z"></path></g><path fill="url(#Ad)" d="M308.26 221.11h1.69l4-7.74s-1.13-.36-2.72-.53l-2.97 8.27Z"></path><path d="m317.83 215.09-3.46 6 .11-4.98 3.35-1.02z" class="I"></path><path fill="url(#Ae)" d="m314.37 221.09-.02 1.01 3.83-6.36-.35-.65-3.46 6z"></path><path fill="url(#Af)" d="m296.59 215.16-.28.83 2.55 6.92.05-1.17-2.32-6.58z"></path><path d="M311.05 228.33s.35-5.77 1.14-6.23.82 7.06.82 7.06l-1.96-.83z" class="I"></path><path fill="url(#Ag)" d="M312.04 228.75s.58-4.31-.38-5.35c0 0-.49 2.42-.6 4.94l.98.42Z"></path><path d="M301.08 231.5s-.03-5.41-.74-5.89-1.14 6.55-1.14 6.55l1.88-.66z" class="I"></path><path fill="url(#Ah)" d="M300.14 231.83s-.32-4.07.63-4.98c0 0 .33 2.29.31 4.65l-.94.33Z"></path><path d="m296.31 215.99 2.55 6.92-.06 1.36s9.82-3.57 15.55-2.17l3.83-6.36 2.6-.94s-11.82-6.91-26.09.66l1.62.53Z" class="G J L"></path><path d="m294.69 215.47 3.58-5.52s8.24-4.75 17.51.06l5.01 4.8s-13.53-6.95-26.09.66Z" class="F Q"></path><path fill="url(#Ai)" d="m283.94 234.29-3.96-3.8c-2.82-9.48-4.47-20.06-6.46-33.29-1.99 12.97-4.47 22.89-7.44 33.23l-2.86 4.37s8.75-5.32 20.71-.51Z"></path><path fill="url(#Aj)" d="M263.24 234.8s9.62-5.73 20.71-.51c0 0-9.75 4.37-20.71.51Z"></path><path fill="url(#Ak)" d="m262.66 330.9 4.09-95.13s6.61-3.07 12.19-.45l-1.97 95.41-14.31.17Z"></path><g class="I"><path d="m266.75 235.77-2.01-1.21s10.23-4.34 16.86-.05l-2.66.8s-5.1-2.33-12.19.45Z"></path><path d="m264.75 234.56 1.82 5.2.24-4.18-2.06-1.02zm9.48-1.94-.24 6.65 2.39-6.54-2.14-.11z"></path></g><path fill="url(#Al)" d="M273.99 239.27h1.34l3.2-6.12s-.9-.29-2.16-.42l-2.39 6.54Z"></path><path d="m281.6 234.51-2.76 4.75.1-3.94 2.66-.81z" class="I"></path><path fill="url(#Am)" d="m278.84 239.26-.02.79 3.06-5.02-.28-.52-2.76 4.75z"></path><path fill="url(#An)" d="m264.75 234.56-.23.66 2.01 5.47.04-.93-1.82-5.2z"></path><path d="M276.18 244.98s.3-4.56.93-4.92c.62-.36.63 5.58.63 5.58l-1.55-.66Z" class="I"></path><path fill="url(#Ao)" d="M276.96 245.31s.48-3.41-.28-4.23c0 0-.4 1.91-.5 3.9l.78.33Z"></path><path d="M268.26 247.48s0-4.28-.57-4.66-.93 5.18-.93 5.18l1.49-.52Z" class="I"></path><path fill="url(#Ap)" d="M267.51 247.74s-.24-3.22.52-3.94c0 0 .26 1.81.23 3.68l-.75.26Z"></path><path d="m264.52 235.22 2 5.47-.05 1.08s7.8-2.82 12.34-1.71l3.06-5.03 2.06-.74s-9.36-5.47-20.71.51l1.29.42Z" class="G J L"></path><path d="m263.24 234.8 2.86-4.37s6.56-3.75 13.89.05l3.96 3.8s-10.72-5.51-20.71.51Z" class="F Q"></path><path d="m281.88 235.02 2.06-.74-3.96-3.8c-2.72-9.53-4.64-20.16-6.46-33.29-2.46 12.98-4.41 24.31-7.44 33.23l-2.86 4.37c.39.14.79.26 1.18.38l.11.04 2 5.47-.05 1.08s.03 0 .07-.03l-3.89 89.16 14.31-.17 1.85-90.68 3.06-5.02zm-18.45-.34a12.71 12.71 0 0 1 .73-.36 12.96 12.96 0 0 0-.79.4c.02-.01.04-.02.07-.04z" class="G J L"></path><path fill="url(#Aq)" d="m413.31 214.54-5.42-4.83c-4.55-11.83-8.31-25.81-11.07-42.23-1.48 15.85-3.2 30.23-6.66 42.14l-3.32 5.53s10.75-6.72 26.46-.61Z"></path><path fill="url(#Ar)" d="M386.85 215.15s11.83-7.24 26.46-.61c0 0-12.1 5.53-26.46.61Z"></path><path fill="url(#As)" d="m404.4 248.43.11 3.16 3.4 79.09-12.32-.11-.53-74.25-.08-7.89.08-.03c5.51-2.23 9.19-.05 9.34.04z"></path><path fill="url(#At)" d="m409.97 242-.23 4.27c-5.29.63-5.34 2.16-5.34 2.16-4.97-1.49-8.74-.26-9.34-.04l-.08.03c-1.57-2.1-5.62-2.95-5.62-2.95l-.14-3 1.71-.52.42-.11.41-.11h.03l.59-.15h.01c10.46-2.58 16.98.18 17.55.43.03 0 .04.01.04.01z"></path><path fill="url(#Au)" d="M389.36 245.47s9.15-3.13 20.38.8l.23-4.27s-8.89-3.53-20.75.46l.14 3Z"></path><path fill="url(#Av)" d="m408.21 234.65-4.07-.31-1.36 1.73.95 1.35-.92-4.53h-5.25l-.5 3.56.01-1.05.47-1.04-3.96.57-.45 4.52 15.03 1.01.05-5.81z"></path><path fill="url(#Aw)" d="m391.78 241.71-.35-25.32s8.21-3.88 15.58-.55l1.16 24.62-16.38 1.24Z"></path><path fill="url(#Ax)" d="m389.21 242.46.47-6.78s1.43-2.09 3.48-2.79l.26 6.15 2.74-.58-.11-6.51s3.68-1.31 8.07.14l-.28 6.54 3.17.41.22-6.13s1.87.55 2.57 2.53l.17 6.58s-9.51-2.98-20.75.46Z"></path><path fill="url(#Ay)" d="m407.23 232.89-1.23.51-.13 5.48 1.14.15.22-6.14z"></path><path fill="url(#Az)" d="m393.16 232.89 1.24.71.07 5.22-1.05.22-.26-6.15z"></path><path d="M409.74 246.27c-5.29.63-5.34 2.16-5.34 2.16l.11 3.16c-4.37 1.02-7.98 3.57-9.45 4.72l-.08-7.89c-1.57-2.1-5.62-2.95-5.62-2.95 8.58-2.06 15.77-.56 18.82.31.02 0 .04.01.06.02.05.01.11.03.16.05.66.19 1.09.35 1.26.41.02 0 .04.01.06.02h.02Z" class="G J L"></path><g class="I"><path d="m391.43 216.39-2.66-1.54s12.71-5.48 21.57-.03l-3.33 1.02s-6.74-2.96-15.58.55Z"></path><path d="m388.76 214.85 2.74 6.6-.02-5.3-2.72-1.3zm11.98-2.44.27 8.44 2.48-8.29-2.75-.15z"></path></g><path fill="url(#BA)" d="M401 220.85h1.73l3.55-7.75s-1.18-.37-2.8-.54l-2.48 8.29Z"></path><path d="m410.34 214.83-3.1 6.01-.24-5 3.34-1.01z" class="I"></path><path fill="url(#BB)" d="m407.24 220.84.05 1.01 3.46-6.37-.41-.65-3.1 6.01z"></path><path fill="url(#BC)" d="m388.76 214.85-.23.83 2.99 6.94-.02-1.17-2.74-6.6z"></path><path d="M404.34 228.1s-.02-5.79.75-6.25 1.32 7.09 1.32 7.09l-2.07-.84z" class="I"></path><path fill="url(#BD)" d="M405.37 228.52s.3-4.33-.75-5.37c0 0-.34 2.42-.29 4.95l1.03.42Z"></path><path d="M394.29 231.25s-.35-5.43-1.11-5.91-.79 6.57-.79 6.57l1.9-.66z" class="I"></path><path fill="url(#BE)" d="M393.35 231.57s-.56-4.08.36-4.99c0 0 .48 2.3.59 4.67l-.95.33Z"></path><path d="m388.53 215.68 2.99 6.94.02 1.37s9.81-3.55 15.75-2.14l3.46-6.37 2.57-.93s-12.45-6.96-26.46.61l1.68.53Z" class="G J L"></path><path d="m386.85 215.15 3.32-5.53s8.04-4.75 17.72.09l5.42 4.83s-14.19-7.01-26.46.61Z" class="F Q"></path><path fill="url(#BF)" d="m397.32 275.15.8 3.99-2.87 2.96-86.47.12.04-7.37 88.5.3z"></path><g class="L"><path d="m398.12 279.14-89.32.78-.02 2.3 86.47-.12 2.87-2.96z" class="G J"></path><path d="m398.12 279.14-2.85 5.44-86.6 1.28.13-5.94 89.32-.78z" class="G J"></path></g><path fill="url(#Ca)" d="m395.59 330.57-.2-33.06-6.2-.02-.31 20.59-1.51 4.08.81-18.18-13.57-4.54-2.31 5.48.04 12.31 2.34 3.21.01 2.15-2.33 1.5-6.66 2.14-.76-12.19-20.13-11.39-9.77 3.51-4.12 7.9 3.01 9.39-3.04 4.29.02-10.28-7.72-3.4-5.05 4.48-4.23 5.99.08 3.21-3.85-.22 1.09-14.76-2.57-15.19-.89 19.9-5.16 4.28-2.71.43-1.57-8.1.91-34.79-3.3-.1-3.29 25.79-5.23 12.07-5.43 6.63-1.57-2.14-.98-10.9-2.02 2.14-3.03 7.7-5.07 4.06-6.28-2.57-.38 8.93 145.25-.22-.54-17.54-3.13 6.65-5.57 1.08-3.08 9.7z" opacity=".2" style="mix-blend-mode:multiply"></path><path d="m354.8 264.46-3.65 2.02s-4.01 4.62-5.43 8.49h1.15s-4.71 26.25-5.08 55.67l1.16-.05s4.76-54.98 11.86-66.12Z" class="I"></path><path fill="url(#BG)" d="M364.96 330.28s.77-46.31-10.15-65.82c0 0-10.65 20.87-11.86 66.12l22.01-.31Z"></path><path fill="url(#BH)" d="M345.22 330.5s1.34-41.4 9.53-58.68c0 0 9.55 21.83 9.62 58.77l-19.16-.09Z"></path><path fill="url(#BI)" d="M353.5 274.78s8.9 19.56 8.96 55.46l-17.25.26s1.34-37.48 8.28-55.73Z"></path><path d="m374.16 107.72-11.45-9.02-34.71.53-3.79 4.24 49.95 4.25z" class="F Q"></path></g><path fill="url(#Cb)" d="m324.21 103.47 3.79-4.24 34.71-.53 11.45 9.02-49.95-4.25z"></path><path fill="url(#Cc)" d="m324.21 103.47.83-.94 46.52 3.14 2.6 2.05-49.95-4.25z" class="K" style="mix-blend-mode:multiply"></path><use xlink:href="#DM" fill="url(#Cd)"></use><use xlink:href="#DM" fill="url(#Cd)" class="K" style="mix-blend-mode:multiply"></use><g class="R"><path fill="url(#BJ)" d="m343.2 103.73.02-29.76c-7.18 26.15-12.84 49.92-19.77 66.95l-5.36 5.69 5.97.9 6.57-7.55 30.55 2.13-3.03 4.63 10.08-5.01-16.53-5.39-8.51-32.6Z"></path><path fill="url(#BK)" d="m327.53 206.71 32.64-.12-2.01-59.86-26.87-1.96-3.76 61.94z"></path><g class="I"><path d="m327.53 206.71-3.17-28.78 2.11-27.42 4.82-5.74-3.76 61.94z"></path><path d="m326.47 150.51-2.4-2.99 6.57-7.55 30.55 2.13-3.03 4.63-26.87-1.96-4.82 5.74z"></path></g><path fill="url(#BL)" d="m368.24 141.73-8.4-5.9c-7-19-12.33-38.21-16.63-61.85-3.97 23.71-7.88 45.51-11.37 60.53l-2.11 3.86 38.5 3.37Z"></path><path fill="url(#BM)" d="M352.62 196.75h.93s1.31-26.96-7.43-49.36l-1.3 1.13s-9.19 16.93-10.67 49.97l18.46-1.74Z"></path><path fill="url(#BN)" d="M353.68 196.75h.93s.45-26.85-8.5-49.35c0 0-9.43 18.05-10.9 51.09l18.46-1.74Z"></path><path fill="url(#BO)" d="m353.69 197.23-2.83-.07-14.4-.34c1.24-22.76 5.58-34.51 7.99-39.43 1-2.02 1.67-2.89 1.67-2.89 7.55 17.29 7.57 42.73 7.57 42.73Z"></path><path fill="url(#BP)" d="m350.85 197.16-14.4-.34c1.24-22.76 5.58-34.51 7.99-39.43 6.18 16.51 6.4 38.3 6.4 39.77Z"></path><path fill="url(#BQ)" d="m336.46 196.82-.01 1.67 19.79-.08v-1.67l-19.78.08z"></path><path fill="url(#BR)" d="m356.24 198.41-2.55 1.58-19.54-.15.01-1.34 2.3-1.68-.01 1.67 19.79-.08z"></path><path fill="url(#BS)" d="M342.31 162.55s2.77 6.3 1.54 34.24h.34s.74-27.29 3.54-34.27l-2.2-7.16s-2.08 3.63-3.23 7.19Z"></path><path d="m331.86 134.5 27.99 1.32 8.39 5.91-38.5-3.37 2.12-3.86z" class="F Q"></path><path d="m361.19 142.1-3.03 4.63.01 1.15-27.42 5.79-4.81 3.81.53-6.97-2.4-2.99 6.57-7.55 30.55 2.13z" class="G J L"></path><path fill="url(#BT)" d="m330.97 51.18-3.84-3.74c-2.55-9.35-4.8-19.79-6.42-32.9-2.21 12.94-3.92 24.84-6.99 32.93l-2.73 4.34s8.41-5.31 19.99-.62Z"></path><path fill="url(#BU)" d="M310.99 51.8s9.25-5.72 19.99-.62c0 0-9.39 4.38-19.99.62Z"></path><path fill="url(#BV)" d="m326.08 76.04-.06 11.84-8.64 17.57-5.21 4.18 1.27-33.58c6.58-1.8 12.63-.01 12.63-.01z"></path><path fill="url(#BW)" d="m313.61 72.51.78-19.77s6.37-3.08 11.76-.51l-.47 20.18-12.07.09Z"></path><g class="I"><path d="m314.39 52.74-1.94-1.18s9.85-4.35 16.27-.14l-2.57.81s-4.94-2.28-11.76.51Z"></path><path d="m312.44 51.56 1.79 5.14.2-4.14-1.99-1zm9.15-1.98-.2 6.59 2.27-6.48-2.07-.1z"></path></g><path fill="url(#BX)" d="M321.39 56.17h1.3l3.06-6.08s-.87-.28-2.09-.4l-2.27 6.48Z"></path><path d="m328.71 51.42-2.64 4.71.08-3.9 2.56-.81z" class="I"></path><path fill="url(#BY)" d="m326.07 56.13-.01.79 2.92-4.99-.27-.51-2.64 4.71z"></path><path fill="url(#BZ)" d="m312.44 51.56-.21.65 1.96 5.4.04-.91-1.79-5.14z"></path><path d="M323.87 63.79s.29-4.23.85-4.56c.57-.33.55 5.18.55 5.18l-1.4-.62Z" class="I"></path><path fill="url(#Ba)" d="M324.57 64.11s.44-3.16-.24-3.93c0 0-.37 1.77-.46 3.62l.7.31Z"></path><path d="m310.99 51.8 2.73-4.34s6.31-3.75 13.41-.02l3.84 3.74s-10.38-5.39-19.99.62Z" class="F Q"></path><path fill="url(#Bb)" d="m311.67 75.46 1.7 2.26s6.36-2.65 12.7-.46l1.69-1.6s-5.14-4.07-16.1-.2Z"></path><path fill="url(#Bc)" d="M311.67 75.46s9.24-3.61 16.1.2v-2.67s-6.54-3.97-16.09.12v2.35Z"></path><path d="m311.67 75.46 1.56 5.76.14-3.5-1.7-2.26zm8.96-1.51-.02 6 1.36-5.96-1.34-.04zm7.14 1.71-1.71 6.32.01-4.72 1.7-1.6z" class="I"></path><path fill="url(#Bd)" d="m321.97 73.99 2.28.35-1.74 6.06-1.9-.45 1.36-5.96z"></path><path fill="url(#Be)" d="M326.06 81.98v-1.61l1.71-4.71-1.71 6.32z"></path><path fill="url(#Bf)" d="m313.23 81.22-1.56-5.76.45-.16 1.15 4.71-.04 1.21z"></path><path d="m311.67 75.46 1.56 5.76v2.84s7.67-3.93 12.83-1.04v-1.05l1.71-6.32s-5.03-3.85-16.1-.2Zm.56-23.25 1.96 5.4-.04 1.07s7.51-2.83 11.9-1.76l2.93-4.99 1.99-.74s-9.06-5.36-19.99.62l1.24.41Z" class="G J L"></path></g><path fill="url(#Cd)" d="m328 99.23-16.95 11.34-6.24 7.46 6.04-4.53 13.36-10.03 3.79-4.24z"></path><path fill="url(#Ce)" d="m329.74 138.36 2.25-4.45 27.53 1.03 9.46 6.79-39.24-3.37z" class="R"></path><path fill="url(#Cf)" d="m329.74 138.36.49-.95 37.51 3.42 1.24.9-39.24-3.37z" class="K" style="mix-blend-mode:multiply"></path><use xlink:href="#DN" fill="url(#Cg)"></use><use xlink:href="#DN" fill="url(#Ch)" class="K" style="mix-blend-mode:multiply"></use><path fill="url(#Ci)" d="M398.87 137.01c-.32-.17-5.63-3.09-13.42-2.86-7.39.21-12.09 3.38-12.38 3.58l.68-1.08 2.79-4.45s3.44-2.31 8.75-2.12 8.59 2.14 8.59 2.14l4.63 4.45s.03.02.04.03l.17.16.15.15Z"></path><path fill="url(#Cj)" d="M398.87 137.01c-.32-.17-5.63-3.09-13.42-2.86-7.39.21-12.09 3.38-12.38 3.58l.68-1.08s4.21-3.26 12.91-3.41c7.1-.12 10.75 2.47 11.85 3.43.02.01.03.02.04.03l.17.16.15.15Z" class="K" style="mix-blend-mode:multiply"></path><path fill="url(#Ck)" d="M320.78 214.77c-.32-.17-5.69-3.09-13.57-2.86-7.47.21-12.23 3.38-12.52 3.58l.69-1.08 2.82-4.45s3.48-2.31 8.85-2.12 8.69 2.14 8.69 2.14l4.68 4.45a.4.4 0 0 0 .04.03l.17.16.15.15z"></path><path fill="url(#Cl)" d="M320.78 214.77c-.32-.17-5.69-3.09-13.57-2.86-7.47.21-12.23 3.38-12.52 3.58l.69-1.08s4.26-3.26 13.06-3.41c7.18-.12 10.87 2.47 11.98 3.43.02 0 .03.02.04.03l.17.16.15.15Z" class="K" style="mix-blend-mode:multiply"></path><use xlink:href="#DO" fill="url(#Cm)"></use><use xlink:href="#DO" fill="url(#Cm)" class="K" style="mix-blend-mode:multiply"></use><use xlink:href="#DP" fill="url(#Cn)"></use><use xlink:href="#DQ" fill="url(#Co)" class="K" style="mix-blend-mode:multiply"></use><path fill="url(#Cp)" d="M305.39 119.72c-.33-.17-5.8-3.15-13.83-2.91-7.61.21-12.46 3.44-12.76 3.65l.7-1.1 2.87-4.53s3.54-2.35 9.02-2.16c5.47.19 8.85 2.18 8.85 2.18l4.77 4.53s.03.02.04.03l.18.16.15.15Z"></path><path fill="url(#Cq)" d="M305.39 119.72c-.33-.17-5.8-3.15-13.83-2.91-7.61.21-12.46 3.44-12.76 3.65l.7-1.1s4.34-3.32 13.3-3.47c7.32-.12 11.08 2.52 12.21 3.49.02.01.03.02.04.03l.18.16.15.15Z" class="K" style="mix-blend-mode:multiply"></path><path fill="url(#Cr)" d="M331.11 51.28c-.25-.13-4.43-2.41-10.56-2.23-5.82.16-9.52 2.63-9.74 2.79l.54-.84 2.2-3.46s2.71-1.8 6.89-1.65 6.76 1.67 6.76 1.67l3.64 3.46s.02.02.03.02l.13.12.12.12z"></path><path fill="url(#Cs)" d="M331.11 51.28c-.25-.13-4.43-2.41-10.56-2.23-5.82.16-9.52 2.63-9.74 2.79l.54-.84s3.31-2.54 10.16-2.65c5.59-.09 8.46 1.92 9.33 2.67.02 0 .02.02.03.02l.13.12.12.12Z" class="K" style="mix-blend-mode:multiply"></path><g class="R"><path fill="url(#Ct)" d="m410.75 215.48.07-.03 2.5-.91-5.42-4.83c-4.55-11.83-8.31-25.81-11.07-42.23-1.02 10.95-2.16 21.19-3.9 30.41l-.06-20.12s.02 0 .02.01v-1.34l2.13-8.08-.02-3.42s-.97-.58-2.71-1.15l.29-19.45h.02l3.73-6.38h.02c1.62-.52 2.54-.94 2.54-.94l-5.01-4.8c-3.4-11.99-6.41-25.36-8.65-42.16-2.71 16.56-4.8 31.8-8.68 42.15l-3.49 5.54a41.93 41.93 0 0 0 1.47.48l.14.05 2.59 6.92-.6 18.92c-.81.27-1.64.57-2.49.93v3s.76-.29 2.02-.64l-1.41.45-.59.2 2.08 7.37-.61 19.19c-1.12-3.84-1.94-8.05-3.07-13.65l-13.29-.84 6.1.38-1.4-36.66 4.26-2.11-4.46-3.13-.9-23.57 11.27-7.3-11.45-9.02c-10.94-24.02-22.35-57.41-22.35-57.41-4.01 15.78-9.48 30.35-14.3 41.62V82l1.71-6.32v-2.67s-.74-.45-2.08-.89l.35-15.19h.02l2.93-4.99h.01c1.26-.41 1.97-.74 1.97-.74l-3.84-3.74c-2.55-9.35-4.8-19.79-6.42-32.9-2.21 12.94-3.92 24.84-6.99 32.93L311 51.83c.38.14.76.26 1.14.37l.11.03 1.96 5.4-.58 14.78a25.87 25.87 0 0 0-1.93.73v2.35s.64-.25 1.72-.55c-.41.12-.84.26-1.27.41v-.02l-.46.16 1.56 5.74-1.04 28.01-7.37 8.82 4.27.2 5.27 4.09-3.5 56.73-1.75.38c-.59-3.66-1.14-7.49-1.65-11.52l-2.14 12.33-4.84 1.04c-.87 3.32-1.65 6.07-2.45 8.51l.27-29.76s.01 0 .02.01v-1.34l2.24-8.06.02-3.41s-.59-.35-1.68-.78c1.13.41 1.68.78 1.68.78l.04-6.92c-.7-1.3-1.79-2.02-2.45-2.36l.26-11.25 3.8-6.37h.02c1.62-.52 2.55-.94 2.55-.94l-4.94-4.79c-3.25-11.95-6.09-25.29-8.12-42.04-2.9 16.52-5.17 31.71-9.17 42.03l-3.54 5.53a49.59 49.59 0 0 0 1.46.48l.14.05 2.5 6.9-.48 11.03c-1.22.88-2.02 2.01-2.02 2.01l-.82 6.76-.03 2.99s.75-.29 2.01-.64l-1.42.45-.59.2 1.98 7.35-2.96 68.4c-.69-2.72-1.32-5.55-1.92-8.5-1.2-6.13-2.22-12.83-3.36-20.4l-3.83 19.63c-1.11 4.65-2.31 9.08-3.61 13.6l-2.86 4.37c.39.14.78.26 1.17.38l.11.04 2 5.47-.05 1.08h.02l-3.45 80.22-.38 8.92 145.24-.22-.53-17.54-.2.43-2.66-61.98-.11-3.16s.05-1.53 5.34-2.16l.23-4.27-.17-6.58c-.44-1.27-1.37-1.95-1.98-2.27l-.53-11.3 3.46-6.37zm-147.01 19.05.08-.04a7.19 7.19 0 0 0-.45.24c.02-.01.04-.02.06-.04l.29-.15h.01zm60.63-56.61h-.06.06zm48.93-40.31c.19-.11.49-.27.9-.47a20.91 20.91 0 0 0-.98.51.3.3 0 0 1 .08-.04zM311.18 51.7c.15-.08.38-.21.7-.37a16.82 16.82 0 0 0-.76.4c.02-.01.04-.02.06-.04zm-31.9 68.3c.19-.11.49-.27.9-.46a20.91 20.91 0 0 0-.98.51c.03-.02.05-.03.08-.05zM395.2 275.15h-2.02l-.09-28.28c.74.42 1.43.93 1.9 1.56l.08 7.89.13 18.83z" style="mix-blend-mode:screen"></path><path fill="url(#Bg)" d="m406.11 319.88 6.38 2.07 4.75 4.68h4.19l8.38 4.27H246.53l6.99-5.51 10.82-1.78.43 4.53 14.23 2.44 11.6.07 6.52-5.26 7.72-.74 2.86 1.75 4.81 2.79 32.29-.46 5.24.29 25.67-.18 18.65-1.04 11.75-7.92z"></path><g class="L"><path d="m412.49 321.95-3.72 3.27-13.31 3.27 21.78-1.86-4.75-4.68zm8.94 4.68-26.88 3.95-8.26-1.98-21.95.32-10.96 1.8 76.43.18-8.38-4.27zm-124.31-1.24-2.06 3.37h11.6l11.44 2.07-27.5-.18 6.52-5.26zm-43.6 0 7.76 3.37 10.82 2.14h-25.57l6.99-5.51z" class="G J"></path></g></g><path fill="url(#Cu)" d="m246.37 331.99 24.15-32.98 3.23 2.33v7.32l2.28-5.44 5.72-14.41 2.47 3.89 2.29 29.68 2.66-4.3 15.8 1.05 29.23 12.57-87.83.29z"></path><path fill="url(#Bh)" d="m306.17 325.43-17-7.36-2.66 4.3-5.84 5.46-4.81.12-2.11-12.12 7.39-23.86 1.78-1.33-1.16-1.84-8 19.86-14.11 18.16 4.24-16.57 6.64-11.24-24.14 32.98 82.66-.29-22.87-6.27Zm-16.84-4.11 16.38 5.1 12.93 4.48-26.71-2.03-4.23-6.36 1.63-1.18Zm-4.81 9.89-.81-1.26.58-1.09 6 .55 9.08 1.49-14.85.31Z" class="O" style="mix-blend-mode:multiply"></path><path fill="#c095ac" d="m289.17 318.08 17 7.35 22.87 6.27h5.16l-29.23-12.57-15.8-1.05z" style="mix-blend-mode:soft-light"></path><path fill="url(#Bi)" d="m306.17 325.43-.45.99 12.93 4.48-26.71-2.04-1.65.55 9.07 1.49-14.84.31-.81-1.26-3.04-2.12-10.52 2.21 5.71-2.09-2.11-12.12-10.19 9.06-3.92 1.93-13.27 5.17 82.67-.29-22.87-6.27z" class="P" style="mix-blend-mode:multiply"></path><path d="m291.81 319.22-.93 2.58 2.13.67 1.2-2.21-2.4-1.04zm3.02 3.81 2.42-1.45 3.18 1.37-2.74.97-2.86-.89z" class="P T" style="mix-blend-mode:multiply"></path><path fill="#c39ab0" d="m264.28 320.84 12.03-13.27 4.83-15.6-.99.82-6.4 15.87-9.47 12.18zm-.41-10.59-7.31 7.83 13.96-19.07-6.65 11.24z" class="P" style="mix-blend-mode:multiply"></path><path fill="#b888a2" d="m275.86 327.95-5.71 2.09-.94 1.95h-9.63l16.28-4.04z" class="O" style="mix-blend-mode:multiply"></path><path d="m284.94 302.08-9.83 9.35-1.36 4.4.81 4.64 10.81-11.93-.43-6.46zm-7.66 2.36 7.08-9.94-.14-1.8-5.64 7.54-1.3 4.2z" class="D O T"></path><g class="R"><path fill="url(#Cv)" d="M-5.32 156.71s34.41.19 133.06 46.03c98.65 45.83 292.49 50.63 394.93 35.26s166.44-82.65 284.85-100.17l.68 53.49s-90.3-18.69-190.63 23.58c-105.22 44.33-267.76 40.27-350.64 28.04-82.33-12.15-196.99-62.61-272.25-40.17v-46.05z" class="S" style="mix-blend-mode:screen"></path><path fill="url(#Cw)" d="m390.03 211.16-2.48-2.18h-2.44l-.68.73-3.48-.26-6.13-1.4-7.48-.42-2.85-.83-13.65-.56-3.48-.59-4.31.59h-2.67l-1.69-1.04-7.6-.55-2.5 1-.55-.45-2.36.45-8.63 5.57 72.98-.06z"></path><path fill="url(#Cx)" d="m390.03 211.16-2.69-.93h-2.49l.26-1.25-.68.73-3.48-.26 1.82.62h-11.23l-5.44-1.09 1.24-1.35-.46-.13-1.58 1.22-8.41 1.09-9.94-2.8.41-1.36-4.31.59h-2.67l1.64 1.03 1.56 1.71-12.06-1.87-1.61-1.46 1.18-1-2.5 1 1.11 1.57-.1.68-2.03-2.19.47-.51-10.99 6.02 72.98-.06z" class="K" style="mix-blend-mode:multiply"></path><path fill="url(#Cy)" d="m350.39 332.11-104-.09v-11.45l3.19-1.17 13.78 4.68 2.17-.51 1.09.07h5.67v-1.36l-.86-1.71 2.29-3.45 11.29 2.56.97 1.5-1.5 1.1 3.62 1.51 8.83.22 7.68 1.85h17.99l1.17 1.02h3.9l3.34-1.79 3.14.16 1.14 1.63v1.34l3.93-.66 9.11 2.23.29.87 1.38-.87h2.69l1.39 2.2 2.52-.66 4.86.43 4.78.36-14.69-.07-1.16.06z"></path><path fill="url(#Cz)" d="m249.58 319.4-2.32 2.88 3.16 6.31 16.05 3.17h2.93l-6.04-7.68 2.17-.51-.49 1.1 4.71 6.1 12.1.99.76-.56-10.32-7.56v-1.36l-.86-1.71 5.69 1.71h5.82l3.04-1.1-1.5 1.1 3.62 1.51-2.39.07-2.88 3.16 7.5 1.57 14.62-.77-3.23 1.14 4.16 1.81 12.11-.93 4.61-3.98 1.17 1.02h3.9l3.34-1.79-3.27 2.52-.76 1.35 5.02.34 3.29-2.07v.99l-5.6 2.44 15.48.6 3.16-1.47.29.87-2.18.57 4.41.19 3.23.57.4.07-108.09-.04v-11.45l3.19-1.17z" class="K" style="mix-blend-mode:multiply"></path><path fill="url(#DA)" d="m308.53 274.95.81-.43 2.82-.12.62.28.91-.16 1.29-1.01 5.46-3.29h4.45l2.81 1.38v.54l1.55.29-.34-1.2 1.27-2.42 4.4-.76 5.86 5.46.21 1.01h1.95l.49-.46 1.43.04 1.88.85h-37.87z"></path><path fill="url(#DB)" d="m320.44 270.22-2.11 1.92 4.76.99 2.61-.7 2-.83v.54l1.55.29-.34-1.2 3.45 1.2 6.9 1.08h1.18l.21 1.01h1.95l.49-.46.36.46 2.95.43h-37.87l3.01-.17.62-.38.62.28.91-.16 1.29-1.01 5.46-3.29z" class="K" style="mix-blend-mode:multiply"></path><path fill="url(#DC)" d="m380.61 331.41 1.01-.55 3.55-.15.78.35 1.13-.2 1.63-1.27 6.85-4.13h5.59l3.54 1.73v.68l1.94.37-.42-1.51 1.59-3.04 5.52-.96 7.38 6.86.25 1.27h2.46l.61-.58 1.8.05 2.36 1.08h-47.57z"></path><path fill="url(#DD)" d="m395.56 325.46-2.65 2.41 5.98 1.25 3.29-.88 2.51-1.05v.68l1.94.37-.42-1.51 4.33 1.51 8.66 1.35h1.5l.25 1.27h2.46l.61-.58.45.58 3.71.55h-47.57l3.78-.22.78-.48.78.35 1.13-.2 1.63-1.27 6.85-4.13z" class="K" style="mix-blend-mode:multiply"></path><path fill="url(#DE)" d="m278.31 279.57.45-.24 1.56-.07.35.16.5-.09.72-.56 3.02-1.83h2.47l1.56.77v.3l.86.16-.19-.66.7-1.34 2.44-.43 3.26 3.03.11.56h1.08l.28-.26.79.03 1.04.47h-21z"></path><path fill="url(#DF)" d="m284.91 276.94-1.17 1.07 2.64.55 1.45-.39 1.11-.46v.3l.86.16-.19-.66 1.92.66 3.82.6h.66l.11.56h1.08l.28-.26.19.26 1.64.24h-21l1.67-.09.34-.22.35.16.5-.09.72-.56 3.02-1.83z" class="K" style="mix-blend-mode:multiply"></path><path fill="url(#DG)" d="M372.65 275.14v-.48l-1.05-1-.91-1.68 1.47-1.31 4.1.26 1.63 1.47.36-1.13 2.56-2.95 3.24-.92 5.66.17 2.65 2.84 1.66 2.93-.57.98 2.56.34 1.09.48h-24.45z"></path><path fill="url(#DH)" d="m397.1 275.14-1.09-.49h-4.82l2.26-.34.56-.98-1.66-2.93-1.02.97-3.43.19-8.53-.83 1.43-2.42-2.56 2.95-.36 1.13v.52l-.28.23-5.51-.36-1.42-.81.92 1.68 1.05 1v.49h24.45Zm-13.21-2.18 4.52.7 2.95.97-.35.03h-7.75l-4.79-1.2-.34-.15 5.77-.34Z"></path><path fill="url(#DI)" d="M336.28 196.66v-.27l-.59-.56-.51-.95.83-.74 2.31.15.92.83.21-.64 1.44-1.67 1.83-.52 3.19.1 1.5 1.6.93 1.66-.32.55 1.45.19.61.27h-13.8z"></path><path fill="url(#DJ)" d="m350.08 196.66-.62-.28h-2.72l1.28-.19.32-.55-.93-1.65-.57.55-1.93.11-4.82-.47.81-1.36-1.45 1.66-.2.64v.3l-.16.13-3.11-.2-.8-.46.52.95.59.56v.28h13.8Zm-7.45-1.23 2.55.39 1.66.55-.2.02h-4.37l-2.7-.68-.19-.09 3.26-.19Z"></path><path fill="url(#DK)" d="M805.92 87.01s-127.05 61.25-263.96 79.76c-136.9 18.51-295.48 13.45-384.32-22.2C68.81 108.91-6.14 114.51-6.14 114.51v24.57s112.64-6.28 202.86 35.18c90.22 41.47 348.64 49.12 471.86 13.44S806.6 98.47 806.6 98.47l-.68-11.46Z" class="S" style="mix-blend-mode:screen"></path></g></g></svg> 