<?xml version="1.0" encoding="UTF-8"?> <svg xmlns="http://www.w3.org/2000/svg" xmlns:xlink="http://www.w3.org/1999/xlink" viewBox="0 0 3600 2400"><style>.A{mix-blend-mode:screen}</style><defs><linearGradient xlink:href="#Y" id="A" x1="1800" x2="1800" y1="2392.97" y2="15.75"><stop offset=".27" stop-color="#fcc4bd"></stop><stop offset=".6" stop-color="#a2879e"></stop><stop offset=".87" stop-color="#5c5986"></stop><stop offset="1" stop-color="#42477d"></stop></linearGradient><linearGradient xlink:href="#Y" id="B" x1="1818.8" x2="1818.8" y1="1048.73" y2="154.01"><stop offset="0" stop-color="#f2c3a7"></stop><stop offset="1" stop-color="#fff8cf"></stop></linearGradient><linearGradient xlink:href="#Y" id="C" x1="1472.08" x2="1643.28" y1="606.13" y2="1477.95"><stop offset="0" stop-color="#624873"></stop><stop offset="1" stop-color="#63456e"></stop></linearGradient><linearGradient xlink:href="#Y" id="D" x1="1979.72" x2="1979.72" y1="1150.94" y2="2403.7"><stop offset="0" stop-color="#503561"></stop><stop offset="1" stop-color="#63456e"></stop></linearGradient><linearGradient xlink:href="#Y" id="E" x1="1677.84" x2="1677.84" y1="1163.42" y2="1567.67"><stop offset="0" stop-color="#6d5576"></stop><stop offset=".07" stop-color="#6c5276"></stop><stop offset=".39" stop-color="#6a4a76"></stop><stop offset="1" stop-color="#6a4876"></stop></linearGradient><linearGradient xlink:href="#Y" id="F" x1="1979.72" x2="1979.72" y1="1381.39" y2="2051.57"><stop offset="0" stop-color="#4e345f"></stop><stop offset="1" stop-color="#63456e"></stop></linearGradient><linearGradient xlink:href="#Y" id="G" x1="1554.45" x2="1565.01" y1="1273.15" y2="1343.97"><stop offset="0" stop-color="#594269"></stop><stop offset="1" stop-color="#63456e"></stop></linearGradient><linearGradient xlink:href="#G" id="H" x1="1515.7" x2="1533.92" y1="1319.44" y2="1441.63"></linearGradient><linearGradient xlink:href="#F" id="I" x1="1840.76" x2="1840.76" y1="1405.11" y2="2011.98"></linearGradient><linearGradient xlink:href="#F" id="J" x1="1301.33" x2="1301.33" y1="1405.11" y2="2011.98"></linearGradient><linearGradient xlink:href="#F" id="K" x1="2090.19" x2="2090.19" y1="1406.15" y2="1755.45"></linearGradient><linearGradient xlink:href="#F" id="L" x1="2154.92" x2="2154.92" y1="1397.82" y2="1987.75"></linearGradient><linearGradient xlink:href="#F" id="M" x1="1714.47" x2="1714.47" y1="1549.71" y2="1891.58"></linearGradient><linearGradient xlink:href="#Y" id="N" x1="274.13" x2="2874.75" y1="1922.02" y2="1987.54"><stop offset="0" stop-color="#4c2852"></stop><stop offset=".01" stop-color="#4c2852"></stop><stop offset=".29" stop-color="#5f3860"></stop><stop offset=".49" stop-color="#663e66"></stop><stop offset=".79" stop-color="#58335b"></stop><stop offset="1" stop-color="#4d2a52"></stop></linearGradient><linearGradient id="Y" gradientUnits="userSpaceOnUse"></linearGradient><radialGradient xlink:href="#Y" id="O" cx="1815.66" cy="578.77" r="1195.1" fx="1815.66" fy="578.77"><stop offset=".04" stop-color="#ff9000"></stop><stop offset=".05" stop-color="#f58a00"></stop><stop offset=".09" stop-color="#c77000"></stop><stop offset=".13" stop-color="#9c5800"></stop><stop offset=".18" stop-color="#774300"></stop><stop offset=".23" stop-color="#563000"></stop><stop offset=".28" stop-color="#3b2100"></stop><stop offset=".35" stop-color="#251500"></stop><stop offset=".42" stop-color="#140b00"></stop><stop offset=".51" stop-color="#080400"></stop><stop offset=".64" stop-color="#010100"></stop><stop offset="1"></stop></radialGradient><radialGradient xlink:href="#Y" id="P" cx="1801.27" cy="540.26" r="3018.6" fx="1801.27" fy="540.26"><stop offset=".04" stop-color="#543a28"></stop><stop offset=".04" stop-color="#533927"></stop><stop offset=".32" stop-color="#2f2016"></stop><stop offset=".58" stop-color="#150e0a"></stop><stop offset=".82" stop-color="#050302"></stop><stop offset="1"></stop></radialGradient><radialGradient xlink:href="#P" id="Q" cx="-236.12" cy="484.85" r="3018.61" fx="-236.12" fy="484.85"></radialGradient><radialGradient xlink:href="#P" id="R" cx="1944.32" cy="381.67" r="3018.61" fx="1944.32" fy="381.67"></radialGradient><radialGradient xlink:href="#P" id="S" r="3018.61"></radialGradient><radialGradient xlink:href="#P" id="T" cx="1253.71" cy="495.16" r="4391.06" fx="1253.71" fy="495.16"></radialGradient><radialGradient xlink:href="#P" id="U" cx="1496.76" fx="1496.76"></radialGradient><radialGradient xlink:href="#P" id="V"></radialGradient><radialGradient xlink:href="#Y" id="W" cx="1815.66" cy="578.77" r="1195.1" fx="1815.66" fy="578.77"><stop offset=".04" stop-color="#f60"></stop><stop offset=".2" stop-color="#bc4b00"></stop><stop offset=".36" stop-color="#833400"></stop><stop offset=".51" stop-color="#542100"></stop><stop offset=".65" stop-color="#2f1300"></stop><stop offset=".79" stop-color="#150800"></stop><stop offset=".91" stop-color="#050200"></stop><stop offset="1"></stop></radialGradient><path id="X" d="M703.97 684.92c-5.55 0-15.56-3.13-34.76-3.13l-9.76.13c-2.97-5.07-28.13-12.24-58.74-12.24-16.25 0-30.97 1.02-41.64 2.68-1.19-.05-2.39-.09-3.62-.09-3.48 0-6.8.21-9.83.6-5.59-3.58-17.51-6.07-31.36-6.07-2.38 0-4.71.07-6.96.21-7.03-5.99-25.41-10.28-47.04-10.28-27.69 0-50.14 7.01-50.14 15.66 0 .1.04.19.05.29-.5 0-1-.02-1.5-.02-18.66 0-33.79 3.44-33.79 7.69 0 .53.24 1.04.68 1.54-15.03.35-26.16 1.57-26.16 3.03 0 1.73-19.2 3.13 0 3.13h363.99c4.98 0 9.28-3.11-9.41-3.13z"></path></defs><path fill="url(#A)" d="M0 0h3600v2400H0z"></path><circle cx="1818.8" cy="602.69" r="446.04" fill="url(#B)"></circle><path fill="url(#O)" d="M0 0h3600v1925.85H0z" style="mix-blend-mode:screen"></path><path fill="#80638a" d="m1543.11 920.57-1.03-1.29h-3.72l4.75 1.29z"></path><path fill="#93809c" d="M3600 1217.23c-33.8-12.72-67.05-26.26-99.63-40.99-10.28 1.71-20.75 2.79-31.03 3.65v-7.34c-10.02-12.72-19.89-26.26-29.55-40.99-3.56 1.99-7.19 3.13-10.72 4.07-2.62.69-5.26.66-7.88.05-5.1-1.2-10.22-3.37-15.25-6.34-5.18-3.05-10.24-7.66-15.27-12.36-5.17-4.82-10.32-9.79-15.58-13.57-4.16-3-8.4-5.1-12.64-6.95-6.34-2.43-12.69-4.47-19.05-6.44-15.56-4.81-31.12-9.67-46.57-17.25-13.11-6.44-59.71-33.86-66.25-29.92l-43.96 27.29c-6.88 4.18-13.77 8.48-20.69 11.96-3.94 1.98-7.96 4.09-11.99 5.22-2.38 3.68-4.79 7.21-7.22 10.64-7.54 10.64-15.22 20.33-22.78 30.81-.25.34-.49.69-.74 1.04-35.06-3.43-70.06-7.28-104.89-12.36-44.2-6.44-87.92-15.71-129.85-30.03-9.82-2.49-18.9-6.14-27.23-10.93-22.19 3.18-44.24 7.1-66.29 11.04l-148.23 27.29-5.77 1.04c-2.74-3.46-5.46-7.04-8.17-10.63-4.89-6.46-9.69-13.54-14.46-20.8-8.32-12.67-16.55-25.91-25.04-37.49-7.08-8.5-14.39-15.42-21.87-19.59-7.19-1.91-14.41-1.26-21.59 1.06-4.71 2.28-9.38 5.09-14.04 8.17-10.53 6.96-20.98 15.2-31.56 21.44a115.05 115.05 0 0 1-14.27 7.13c-2.6 3.79-5.18 7.71-7.73 11.82-6.25 10.09-12.21 21.42-17.95 34-5.85 12.83-12.26 22.87-18.88 31.43-8.88 11.48-17.78 21.71-26.92 31.06-3.86 3.95-7.72 7.94-11.54 12.18l-8.39 3.86c-12.88 6.04-25.24 12.96-38.34 18.63-31.26 13.53-63.36 24.43-97.4 30.33-29.46 5.1-59.34 8.05-89.11 11.42l-78.1 10.25-52.56 4.95c-17.55 2.6-34.82 6.24-51.55 11.73-19.12 7.95-37.85 16.56-57.86 22.86-16.28 5.12-34.07 6.75-51.04 8.15-1.65.14-3.3.22-4.95.28-8.12 6.77-17.43 11.7-27.93 14.79-12 5.7-24.94 8.31-38.81 7.84-13.87.47-26.8-2.14-38.81-7.84-12.49-3.67-23.29-9.94-32.42-18.82-8.74-9.64-17.51-19.4-24.86-29.97-5.52.9-11.21 1.26-17.06 1.06-29.49-2.14-59.09-6.22-87.82-12.68-20.57-4.63-40.82-10.34-60.98-16.27l-107.22-30.09c-37.1-9.4-74.58-17.55-112.19-25.07l-146.28-27.55-10.58 2.52c-33.09 7.78-66.9 13.66-101.08 15.66l-1.9-2.41c-6.55-8.43-12.9-18.34-18.69-31.06-5.68-12.47-11.59-23.68-17.77-33.65-2.52-4.06-5.07-7.93-7.65-11.67a109.61 109.61 0 0 1-14.13-6.85c-10.48-6.03-20.81-14.07-31.24-20.83-4.61-2.99-9.24-5.7-13.9-7.89-7.11-2.18-14.25-2.69-21.37-.64-7.41 4.32-14.64 11.38-21.65 20.02-8.4 11.75-16.55 25.15-24.78 37.98-4.72 7.36-9.47 14.53-14.31 21.08-6.98 9.45-13.99 18.92-21.26 26.07a61.77 61.77 0 0 1-5.99 5.19l-5.35-1.46c-24.76-7.01-48.65-16.34-72.42-25.65-16.49-6.46-32.67-13.54-48.74-20.8-28.04-12.67-55.8-25.91-84.42-37.49-23.88-8.5-48.51-15.42-73.75-19.59-24.24-1.91-48.59-1.26-72.8 1.06-15.87 2.28-31.63 5.09-47.34 8.17l-106.43 21.44c-10.74 1.88-21.54 3.54-32.37 5.05l-20.87-12.65c-6.47-3.81-52.6 24.53-65.57 31.22-15.29 7.89-30.7 13.05-46.1 18.17-6.29 2.09-12.58 4.26-18.85 6.81-4.2 1.93-8.39 4.12-12.51 7.2-5.21 3.89-10.31 8.96-15.43 13.88-4.98 4.8-9.99 9.5-15.11 12.66-4.98 3.07-10.05 5.34-15.1 6.64-2.6.67-5.21.75-7.8.11-3.5-.87-7.09-1.93-10.61-3.86a585.43 585.43 0 0 1-18.4 27.01l-10.39 3.2c-18.97 5.76-37.92 11.58-56.55 18.17v764.94h56.1v12.28l618.8-12.28h2925.11v-784.04z"></path><path fill="#6a5380" d="M3051.6 1737.07c-47.93-17.9-95.33-36.66-142.24-55.97-41.13-16.93-81.88-34.46-122.06-52.77h7.59v-221.64l27.99-19.88-20.7 144.1h82.46l-41.23-287.02-17.26 120.14-1.48-5.48-14.17-10.45 10.94-1.65-14.02-51.61-2.79-10.31-10.24-37.82-3.58-3.69.86-6.35-3.33-12.29-28.01 103.43 10.8-.49-13.2 9.32-2.61 9.64-8.55-6.31 7.98-1.21-10.23-37.67-9.61-8.21 7.57.69-7.48-27.6-2.61-2.69.63-4.63-2.43-8.97-20.45 75.49 7.89-.36-9.63 6.81-9.09 33.55 26.49 17.57v14.35l-18.09 15.92 18.09-4.77v136.26h9.58v-119.89l21.21 8.02-21.21-19.6 15.78-1.69-15.78-10.82v-17.77l12.47-8.85-2.36 8.72 36.29 24.07v19.67l-24.79 21.82 24.79-6.54v184.18c-35.62-16.32-70.77-33.26-105.29-50.94l-3.47-24.14h51.89l-41.23-287.02-25.94 180.59-10.32-71.82-23.4 162.87-33.81-235.37-28.07 195.43-14.38-26.55c-1.25-3.62-2.28-7.23-3.14-10.85l-7.73-4.7v-73.58l18.09 4.77-18.09-15.92v-14.35l26.49-17.57-9.09-33.55-9.63-6.81 7.89.36-20.45-75.49-2.43 8.97.63 4.63-2.61 2.69-7.48 27.6 7.57-.69-9.61 8.21-10.23 37.67 7.98 1.21-10.34 7.62 13.59-2.27-15.39 8.92-2.86 9.74 26.39 18.75V1372l-15.78 10.82 15.78 1.69-21.21 19.6 21.21-8.02v51.36l-37.19-23.31-28.6-199.09-23.65 164.61-38.25-26.87 4.93-8.71v-122.92h-13.69v14.97h-13.55v-14.97h-13.69v14.97h-2.37V996.36l13.01-20.9v-62.7h12.96l-12.96-18.77-43.47-175.81v-48.43c17.48 13.66 34.96-13.66 52.45 0-6.95-7.71-13.9-8.94-20.85-8.84 6.95-4.65 13.9-7.97 20.85-4.82-17.48-13.66-34.96 13.66-52.45 0h-2.37v62.09l-43.47 175.81-12.96 18.77h12.96v62.7l13.01 20.9v69.74h-6.75v11.11h-11.07v-11.11h-10.16v11.11h-11.07v-11.11h-10.16v11.11h-11.07v-11.11h-10.16v11.11h-11.07v-11.11h-10.16v11.11h-11.07v-11.11h-10.16v11.11h-11.07v-11.11h-10.16v11.11h-11.07v-11.11h-10.03V904.89l11.16-17.94v-15.68h3.24l-3.24-4.69-11.16-45.15-11.16 45.15-3.24 4.69h3.24v12.56h-61.81v-12.56h3.24l-3.24-4.69-11.16-45.15-11.16 45.15-3.24 4.69h3.24v12.56h-36.13l5.25-8.43v-31.35h6.48l-6.48-9.38-22.33-90.3-12.44 50.31v-148.6l12.1-21.41v-78.24h-8.72v9.53h-8.62v-9.53h-8.04v-19.31h6.48l-6.48-9.38-22.33-90.3-22.33 90.3-6.48 9.38h6.48v19.31h-8.04v9.53h-8.62v-9.53h-8.72v78.24l12.1 21.41v121.93h-26.24V718.6l3.22-5.17v-17.1h3.54l-3.54-5.12-12.18-49.26-12.18 49.26-3.54 5.12h3.54v17.1l3.22 5.17v94.22h-10.4V612.47l13.01-20.9v-62.7h12.96l-12.96-18.77-42.51-171.93v-56.38c31.64 24.72 63.28-24.72 94.92 0-12.58-13.95-25.15-16.17-37.73-16 12.58-8.41 25.15-14.42 37.73-8.72-31.64-24.72-63.28 24.72-94.92 0h-4.28v81.1l-42.51 171.93-12.96 18.77h12.96v62.7l13.01 20.9v131.31h-38.95v-14.06l6.5-10.45v-31.35h6.48l-6.48-9.38-22.33-90.3-22.33 90.3-6.48 9.38h6.48v31.35l6.5 10.45v81.2l-15.43-62.4-15.9 64.3h-4.14l-8.76-35.44-8.74 35.36v-41.29l13.01-20.9v-62.7h12.96l-12.96-18.77-44.65-180.59-44.65 180.59-12.96 18.77h12.96v62.7l13.01 20.9v33.96l-12.18 49.26-3.54 5.12h3.54v17.1l12.18 19.57v122.63h-6.8v-14.97h-13.69v14.97h-7.86V986h7.65l-7.65-11.07-26.34-106.53-26.34 106.53-7.65 11.07h7.65v33.09h-7.49v-14.97h-13.69v79.05h-34.65v-12.56h3.24l-3.24-4.69-11.16-45.15-11.16 45.15-3.24 4.69h3.24v12.56h-61.81v-12.56h3.24l-3.24-4.69-11.16-45.15-11.16 45.15-3.24 4.69h3.24v15.68l11.16 17.94v128.87h-118.06v-57.79h-14.19v15.52h-14.04v-15.52h-14.19v15.52h-7.39v-37.05h8.09l-8.09-11.71-26.39-106.73v-55.3c21.74 16.99 43.49-16.99 65.23 0-8.64-9.58-17.28-11.12-25.93-11 8.64-5.78 17.28-9.91 25.93-5.99-21.74-16.99-43.49 16.99-65.23 0h-2.94v72.29l-26.39 106.73-8.09 11.71h8.09v37.05h-7.39v-15.52h-14.19v15.52h-14.04v-15.52h-14.19v127.4l23.84 42.18v94.19c-4.53 2.51-9.31 4.82-14.35 6.94a1550.56 1550.56 0 0 1-52.74 28.33v-36.87l18.09 4.77-18.09-15.92v-14.35l26.49-17.57-9.09-33.55-9.63-6.81 7.89.36-20.44-75.49-2.43 8.97.63 4.63-2.61 2.69-7.48 27.6 7.57-.69-9.61 8.21-10.23 37.67 7.98 1.21-10.34 7.62 13.59-2.27-15.39 8.92-2.86 9.74 26.39 18.75v17.77l-15.78 10.82 15.78 1.69-21.21 19.6 21.21-8.02v25.38l-23.3 11.51-29.87-207.91-34.07 237.16-5.75 2.49-74.43 55.29c-5.62 9.95-13.21 19-22.78 27.15-12.02 14.46-27.97 25.87-47.85 34.22l-23.85 8.72-32.04 25.03c-21.28 16.47-46.36 27.85-75.25 34.17l-10.48 1.1c-10.2 6.26-20.78 12.17-31.46 17.84-7.3 3.87-14.92 7.37-22.7 10.62-21.02 8.78-43.1 16.19-65.27 23.17l-15.45 9.09v486.5h2534.18v-504.75l-15.49-13.58zm-297.66-385.68-10.42-6.04 11.54 1.93-1.11 4.11zm-1510.27 3.04-8.11 2.4-3.76 1.06v-12.98l11.87-21v30.51zm46.75-15.18-30.58 10.16v-68.18c0-8.44 6.84-15.29 15.29-15.29s15.29 6.84 15.29 15.29v58.01zm48.7-20.81-8.88 4.87c-2.82 1.48-5.72 2.87-8.67 4.19-4.25 1.9-8.61 3.66-13.02 5.33v-51.59c0-8.44 6.84-15.29 15.29-15.29s15.29 6.84 15.29 15.29v37.2zm34.59-12.03-16.47 2.57v-27.74c0-8.44 6.84-15.29 15.29-15.29.4 0 .79.03 1.18.06v40.4zm62.45-11.87c-9.09 2.04-18.22 3.96-27.38 5.72l-3.19.59v-19.61c0-8.44 6.84-15.29 15.29-15.29s15.29 6.84 15.29 15.29v13.3zm8.44-61.41h-46.36v-76.97c0-12.8 10.38-23.18 23.18-23.18s23.18 10.38 23.18 23.18v76.97zm27.48-76.97c0-12.8 10.38-23.18 23.18-23.18a23.1 23.1 0 0 1 14.73 5.28l8.2 14.51a23.73 23.73 0 0 1 .25 3.39v41.91h-.74v-10.26h-9.39v10.26h-9.29v-10.26h-9.39v10.26h-9.29v-10.26h-8.26v-31.65zm171.81-423.99h-12.74v-22.72a6.37 6.37 0 0 1 12.74 0v22.72zm174.12-181.69a6.37 6.37 0 0 1 12.74 0v22.72h-12.74v-22.72zm17.32 658.71h-33.03v-58.9c0-9.12 7.39-16.52 16.52-16.52s16.52 7.4 16.52 16.52v58.9zm209.06 5.62-8.78-3.66v-62.95c2.84-2.74 5.77-5.37 8.78-7.91v74.53zm0-220.14h-13.01V979.7h-13.69v14.97h-13.55V979.7h-6.11v-22.89c0-12.8 10.38-23.18 23.18-23.18s23.18 10.38 23.18 23.18v37.86zm73.84 249.49-4.8-1.83-41.56-16.33v-104.87c14.35-8.11 29.93-14.25 46.36-18.1v141.13zm0-166.94h-7.9v-11.11h-10.16v11.11h-11.07v-11.11h-10.16v11.11h-7.08V956.8c0-12.8 10.38-23.18 23.18-23.18s23.18 10.38 23.18 23.18v120.42zm179.71 168.92h-2.37v-14.97h-13.69v14.97h-13.55v-14.97h-13.69v66.8c-29.07-11.06-57.64-22.89-86.23-34.69-8.43-3.48-17.03-6.75-25.66-9.97V1099.1c5.13-.45 10.32-.69 15.56-.69 56.55 0 106.94 26.79 139.63 68.57v79.16zm38.02-289.08h-12.74v-22.72a6.37 6.37 0 0 1 12.74 0v22.72z"></path><path fill="#694e76" d="m953.06 1166.82-41.23 287.02h82.46l-41.23-287.02zm-72.53 86.78-41.23 287.02h82.47l-41.24-287.02z"></path><path fill="url(#C)" d="M2150.04 1359.19c-240.19-148.14-314.64-149.81-314.72-150h-33.03c-81.18 0-390.53 214.97-546.64 244.66-91.79 17.45-261.35 77.08-261.35 77.08l219.62 185.81 1084.02-262.88-147.89-94.66Z"></path><path fill="url(#D)" d="m2903.21 2028.35-1671.42 145.02-175.58-530.79 498.83-126.57 280.27-44.79 274.05-33.83s41.09-63.8 63.96-55.9c432.84 149.44 729.88 646.87 729.88 646.87Z"></path><path fill="url(#E)" d="m1163.19 1659.52-7.25-56.52c323.65-140.91 1022.71-133.17 952.16-215.59-63.71-74.42-431.93-122.42-305.8-178.22h33.03c-157.42 50.94 404.35 157.36 362.16 198.04-99.46 95.88-475.34 33-1034.29 252.29Z"></path><path fill="url(#F)" d="m1918.92 1410.45 17.69-63.86 3.4-12.28 39.8-143.7 8.59 31.02 14.55 52.54-14.75-1.31 18.71 15.63 19.92 71.7 4.6 16.82-26.45-4.33 29.95 16.98 5.58 18.54-51.38 35.69v57.63l41.28 37.32-41.28-15.26v228.24h-18.65v-259.38l-35.22 9.08 35.22-30.31v-27.32l-51.56-33.44z"></path><path fill="url(#G)" d="m1566.25 1202.8-21.88 152.32h43.76l-21.88-152.32z"></path><path fill="url(#H)" d="m1536.07 1198.07-37.75 262.79h75.5l-37.75-262.79z"></path><path fill="url(#I)" d="m1840.76 1359.41-54.14 376.85h108.27l-54.13-376.85z"></path><path fill="url(#J)" d="m1301.33 1359.41-54.13 376.85h108.27l-54.14-376.85z"></path><path fill="url(#K)" d="m2090.19 1183.94-54.14 376.85h108.28l-54.14-376.85z"></path><path fill="url(#L)" d="m2154.92 1299.97-54.13 376.85h108.27l-54.14-376.85z"></path><path fill="url(#M)" d="m1714.47 1523.96-30.5 212.3h60.99l-30.49-212.3z"></path><g fill="#3b424d" class="A"><path d="M2342.31 350.66c-1.81 0-3.28 1.47-3.28 3.28s1.47 3.28 3.28 3.28 3.28-1.47 3.28-3.28-1.47-3.28-3.28-3.28Zm1169.13-128.64c-1.81 0-3.28 1.47-3.28 3.28s1.47 3.28 3.28 3.28 3.28-1.47 3.28-3.28-1.47-3.28-3.28-3.28Zm-93.78-47.69c-1.81 0-3.28 1.47-3.28 3.28s1.47 3.28 3.28 3.28 3.28-1.47 3.28-3.28-1.47-3.28-3.28-3.28Zm-1049.13-3.28c-1.81 0-3.28 1.47-3.28 3.28s1.47 3.28 3.28 3.28 3.28-1.47 3.28-3.28-1.47-3.28-3.28-3.28Z"></path><circle cx="2047.6" cy="429.91" r="3.28"></circle><path d="M3195.2 38.96c-1.81 0-3.28 1.47-3.28 3.28s1.47 3.28 3.28 3.28 3.28-1.47 3.28-3.28-1.47-3.28-3.28-3.28Zm-523.49 169.82c-1.81 0-3.28 1.47-3.28 3.28s1.47 3.28 3.28 3.28 3.28-1.47 3.28-3.28-1.47-3.28-3.28-3.28Zm-136.32-24.48c-1.81 0-3.28 1.47-3.28 3.28s1.47 3.28 3.28 3.28 3.28-1.47 3.28-3.28-1.47-3.28-3.28-3.28Zm-524.77 425.57c-1.81 0-3.28 1.47-3.28 3.28s1.47 3.28 3.28 3.28 3.28-1.47 3.28-3.28-1.47-3.28-3.28-3.28Zm1561.33-290.49c-1.81 0-3.28 1.47-3.28 3.28s1.47 3.28 3.28 3.28 3.28-1.47 3.28-3.28-1.47-3.28-3.28-3.28Z"></path><circle cx="92.32" cy="174.33" r="3.28"></circle><path d="M509.49 228.12c-1.81 0-3.28 1.47-3.28 3.28s1.47 3.28 3.28 3.28 3.28-1.47 3.28-3.28-1.47-3.28-3.28-3.28ZM490 515.26c-1.81 0-3.28 1.47-3.28 3.28s1.47 3.28 3.28 3.28 3.28-1.47 3.28-3.28-1.47-3.28-3.28-3.28Zm-439.59-6.57c-1.81 0-3.28 1.47-3.28 3.28s1.47 3.28 3.28 3.28 3.28-1.47 3.28-3.28-1.47-3.28-3.28-3.28Zm122.53-102.84c-1.81 0-3.28 1.47-3.28 3.28s1.47 3.28 3.28 3.28 3.28-1.47 3.28-3.28-1.47-3.28-3.28-3.28Z"></path><circle cx="2325.29" cy="54.38" r="3.28"></circle><path d="M2443.94 29.89c-1.81 0-3.28 1.47-3.28 3.28s1.47 3.28 3.28 3.28 3.28-1.47 3.28-3.28-1.47-3.28-3.28-3.28ZM1666.3 47.81c-1.81 0-3.28 1.47-3.28 3.28s1.47 3.28 3.28 3.28 3.28-1.47 3.28-3.28-1.47-3.28-3.28-3.28ZM687.71 88.98c-1.81 0-3.28 1.47-3.28 3.28s1.47 3.28 3.28 3.28 3.28-1.47 3.28-3.28-1.47-3.28-3.28-3.28Zm635.47 111.73c-1.81 0-3.28 1.47-3.28 3.28s1.47 3.28 3.28 3.28 3.28-1.47 3.28-3.28-1.47-3.28-3.28-3.28ZM3051.7 85.7c-1.81 0-3.28 1.47-3.28 3.28s1.47 3.28 3.28 3.28 3.28-1.47 3.28-3.28-1.47-3.28-3.28-3.28Zm427.42-62.37c-1.81 0-3.28 1.47-3.28 3.28s1.47 3.28 3.28 3.28 3.28-1.47 3.28-3.28-1.47-3.28-3.28-3.28ZM1195.59 472.59c-1.81 0-3.28 1.47-3.28 3.28s1.47 3.28 3.28 3.28 3.28-1.47 3.28-3.28-1.47-3.28-3.28-3.28ZM924.77 305.26c-1.81 0-3.28 1.47-3.28 3.28s1.47 3.28 3.28 3.28 3.28-1.47 3.28-3.28-1.47-3.28-3.28-3.28ZM841.29 47.81c-1.81 0-3.28 1.47-3.28 3.28s1.47 3.28 3.28 3.28 3.28-1.47 3.28-3.28-1.47-3.28-3.28-3.28Zm-90.72 347.2c-1.81 0-3.28 1.47-3.28 3.28s1.47 3.28 3.28 3.28 3.28-1.47 3.28-3.28-1.47-3.28-3.28-3.28Z"></path><circle cx="2669.49" cy="37.07" r="3.28"></circle><path d="M3051.7 433.19c-1.81 0-3.28 1.47-3.28 3.28s1.47 3.28 3.28 3.28 3.28-1.47 3.28-3.28-1.47-3.28-3.28-3.28Zm-237.3 36.7c-1.81 0-3.28 1.47-3.28 3.28s1.47 3.28 3.28 3.28 3.28-1.47 3.28-3.28-1.47-3.28-3.28-3.28ZM3544.6 31.4c-1.81 0-3.28 1.47-3.28 3.28s1.47 3.28 3.28 3.28 3.28-1.47 3.28-3.28-1.47-3.28-3.28-3.28Zm-596.1 287.98c-1.81 0-3.28 1.47-3.28 3.28s1.47 3.28 3.28 3.28 3.28-1.47 3.28-3.28-1.47-3.28-3.28-3.28Zm-429.51 150.51c-1.81 0-3.28 1.47-3.28 3.28s1.47 3.28 3.28 3.28 3.28-1.47 3.28-3.28-1.47-3.28-3.28-3.28Zm501.39-352.06c-1.81 0-3.28 1.47-3.28 3.28s1.47 3.28 3.28 3.28 3.28-1.47 3.28-3.28-1.47-3.28-3.28-3.28Zm52.83 100.9c-1.81 0-3.28 1.47-3.28 3.28s1.47 3.28 3.28 3.28 3.28-1.47 3.28-3.28-1.47-3.28-3.28-3.28ZM892.18 544.34c-1.81 0-3.28 1.47-3.28 3.28s1.47 3.28 3.28 3.28 3.28-1.47 3.28-3.28-1.47-3.28-3.28-3.28ZM483.51 50.1c-1.81 0-3.28 1.47-3.28 3.28s1.47 3.28 3.28 3.28 3.28-1.47 3.28-3.28-1.47-3.28-3.28-3.28Zm-310.57-2.29c0-3.08-2.49-5.57-5.57-5.57s-5.57 2.49-5.57 5.57 2.49 5.57 5.57 5.57 5.57-2.49 5.57-5.57Z"></path></g><g class="A"><use xlink:href="#X" fill="url(#P)"></use><use xlink:href="#X" x="2037.39" y="55.41" fill="url(#Q)"></use><use xlink:href="#X" x="-143.05" y="158.59" fill="url(#R)"></use><path fill="url(#S)" d="M1026.19 798.92c0-1.73-8.56-3.13-19.11-3.13-1.95 0-3.84.05-5.62.14-2.38-2.55-15.8-4.51-32.05-4.51-4 0-7.82.12-11.36.34-1.82-3.19-7.19-5.5-13.52-5.5-1.91 0-3.74.21-5.41.6-1.62-1.89-4.22-3.47-7.44-4.55-2.9-8.18-18.99-14.45-38.46-14.45-3.45 0-6.77.22-9.95.58-7.79-8.02-24.63-13.57-44.15-13.57-21.79 0-40.24 6.92-46.49 16.46-.97-.02-1.94-.05-2.93-.05-5.65 0-11.05.32-16.1.88-7.63-4.28-19.41-7.03-32.67-7.03-17.05 0-31.68 4.54-38.13 11.04-2.49-.3-5.09-.47-7.79-.47-10.72 0-20.09 2.52-25.32 6.29-3.3-.76-7.05-1.2-11.02-1.2-3.4 0-6.62.32-9.55.88-4.28-3.6-11.66-5.98-20.07-5.98-11.93 0-21.8 4.79-23.64 11.06-1.18-.06-2.37-.1-3.6-.1-5.56 0-10.67.61-14.74 1.63-6.04-1.02-13.62-1.63-21.87-1.63-5.55 0-10.78.28-15.46.77-3.66-3.89-12.51-6.64-22.86-6.64s-18.29 2.48-22.25 6.07c-2.15-.38-4.5-.6-6.98-.6-8.18 0-15.1 2.31-17.45 5.5-4.57-.22-9.5-.34-14.66-.34-20.97 0-38.29 1.96-41.36 4.51-2.29-.09-4.72-.14-7.25-.14-13.62 0-24.66 1.4-24.66 3.13s-13.62 3.13 0 3.13h636.34c10.56 0-2.42-1.4-2.42-3.13Zm-61.06-168.97h241.44c13.24 0-9.86-3.44-9.86-7.69s-10.73-7.69-23.98-7.69c-5.56 0-10.67.61-14.74 1.63-6.04-1.02-13.62-1.63-21.87-1.63-5.55 0-10.78.28-15.46.77-3.66-3.89-12.51-6.64-22.86-6.64s-18.29 2.48-22.25 6.07c-2.15-.38-4.5-.6-6.98-.6-8.18 0-15.1 2.31-17.45 5.5-4.57-.22-9.5-.34-14.66-.34-20.97 0-38.29 1.96-41.36 4.51-2.29-.09-4.72-.14-7.25-.14-13.62 0-24.66 1.4-24.66 3.13s-11.69 3.13 1.93 3.13Z"></path><path fill="url(#T)" d="M3467.03 669.21c0-2.51-16.06-4.55-35.88-4.55-3.67 0-7.21.07-10.54.2-4.46-3.71-29.66-6.56-60.17-6.56-7.52 0-14.68.18-21.33.5-3.42-4.64-13.49-8-25.39-8-3.6 0-7.02.31-10.15.87-5.77-5.21-18.07-8.82-32.37-8.82-15.05 0-27.92 4-33.25 9.66-6.81-.71-14.42-1.12-22.49-1.12-12.01 0-23.03.89-31.82 2.38-5.92-1.48-13.35-2.38-21.44-2.38-1.78 0-3.52.06-5.23.14-2.68-9.12-17.04-16.09-34.39-16.09-12.23 0-22.97 3.46-29.2 8.7-4.26-.82-8.95-1.28-13.89-1.28-5.79 0-11.23.63-16.04 1.74-7.61-5.49-21.23-9.16-36.83-9.16-3.93 0-7.71.25-11.33.69-9.38-9.45-30.67-16.07-55.47-16.07-19.28 0-36.42 4-47.52 10.23-7.34-.81-15.2-1.27-23.41-1.27-1.44 0-2.84.04-4.26.07-9.09-13.88-35.93-23.94-67.63-23.94-28.41 0-52.9 8.08-64.23 19.75-4.63-.54-9.46-.85-14.48-.85-28.32 0-51.73 9.12-55.95 21.02-4.68 1.56-8.46 3.86-10.82 6.62-2.42-.56-5.08-.87-7.86-.87-9.22 0-17.02 3.36-19.67 8-5.15-.32-10.71-.5-16.53-.5-23.64 0-43.17 2.85-46.62 6.56-2.58-.13-5.33-.2-8.17-.2-15.36 0-27.8 2.04-27.8 4.55s-18.87 4.55-3.51 4.55h925.65c19.82 0 0-2.04 0-4.55Z"></path><path fill="url(#U)" d="M2402.4 564.56c0-1.73-11.04-3.13-24.66-3.13-2.52 0-4.95.05-7.25.14-3.07-2.55-20.39-4.51-41.36-4.51-5.17 0-10.09.12-14.66.34-2.35-3.19-9.28-5.5-17.45-5.5-2.47 0-4.83.21-6.98.6-3.96-3.58-12.42-6.07-22.25-6.07-10.35 0-19.19 2.75-22.86 6.64-4.68-.49-9.91-.77-15.46-.77-8.26 0-15.83.61-21.87 1.63-4.07-1.02-9.18-1.63-14.74-1.63-13.24 0-23.98 3.44-23.98 7.69s-23.1 7.69-9.85 7.69h241.44c13.62 0 1.93-1.4 1.93-3.13Z"></path><path fill="url(#V)" d="M3134.95 702.25c0-4.25-10.73-7.69-23.98-7.69-5.56 0-10.67.61-14.74 1.63-6.04-1.02-13.62-1.63-21.87-1.63-5.55 0-10.78.28-15.46.77-3.66-3.89-12.51-6.64-22.86-6.64s-18.29 2.48-22.25 6.07c-2.15-.38-4.51-.6-6.98-.6-8.18 0-15.1 2.31-17.45 5.5-4.57-.22-9.5-.34-14.66-.34-20.97 0-38.29 1.96-41.36 4.51-2.29-.09-4.72-.14-7.25-.14-13.62 0-24.66 1.4-24.66 3.13s-11.69 3.13 1.93 3.13h241.44c13.24 0-9.85-3.44-9.85-7.69Zm373.38-196.71c3.53 0 6.59-3.11-6.68-3.13-3.94 0-11.04-3.13-24.66-3.13-2.41 0-4.73.05-6.93.13-2.11-5.07-19.96-12.24-41.68-12.24-11.53 0-21.97 1.02-29.55 2.68-.84-.05-1.7-.09-2.57-.09-2.47 0-4.83.21-6.98.6-3.96-3.58-12.42-6.07-22.25-6.07-1.69 0-3.34.07-4.94.21-4.99-5.99-18.03-10.28-33.38-10.28-19.65 0-35.58 7.01-35.58 15.66 0 .1.03.19.03.29-.36 0-.71-.02-1.07-.02-13.24 0-23.98 3.44-23.98 7.69 0 .53.17 1.04.48 1.54-10.66.35-18.56 1.57-18.56 3.03 0 1.73-13.62 3.13 0 3.13h258.28ZM311.39 747.76c0-1.46-7.9-2.68-18.56-3.03.31-.5.48-1.01.48-1.54 0-4.25-10.73-7.69-23.98-7.69-.36 0-.71.01-1.07.02 0-.1.03-.19.03-.29 0-8.65-15.93-15.66-35.58-15.66-15.35 0-28.39 4.29-33.38 10.28-1.6-.14-3.25-.21-4.94-.21-9.83 0-18.29 2.48-22.25 6.07-2.15-.38-4.5-.6-6.98-.6-.87 0-1.73.04-2.57.09-7.58-1.65-18.02-2.68-29.55-2.68-21.72 0-39.58 7.17-41.68 12.24-2.2-.08-4.52-.13-6.93-.13-13.62 0-20.73 3.12-24.66 3.13-13.27.01-10.21 3.13-6.68 3.13h258.28c13.62 0 0-1.4 0-3.13Z"></path><path fill="url(#S)" d="M1375.28 766.6c0-2.93-14.53-5.31-32.46-5.31l-2.43.02c1.56-1.51 2.43-3.11 2.43-4.78 0-8.5-21.83-15.38-48.76-15.38-.99 0-1.95.03-2.93.05-6.25-9.54-24.7-16.46-46.49-16.46-19.53 0-36.37 5.56-44.15 13.57-3.18-.37-6.51-.58-9.95-.58-19.47 0-35.56 6.27-38.46 14.45-3.22 1.07-5.81 2.65-7.44 4.55-1.67-.38-3.49-.6-5.41-.6-6.34 0-11.7 2.31-13.52 5.5a184.14 184.14 0 0 0-11.36-.34c-16.25 0-29.67 1.96-32.05 4.51-1.78-.09-3.66-.14-5.62-.14-10.56 0-19.11 1.4-19.11 3.13s-13.49 3.13-.37 3.13h322.51c17.93 0-4.42-2.38-4.42-5.31z"></path></g><path fill="#472a52" d="M2398.92 469.88c-2.98-.29-6.05-.46-9.04-.23-6.04.48-11.52 3.06-16.57 6.27a82.75 82.75 0 0 0-4.28 2.92l-3.51 2.58-2.83 2.5c-.53.46-1.28 1.28-1.99 1.82-9.23-1.7-15.53-2.36-25.5-2.45-11.95.74-26.88 10.23-27.37 10.51 11.08-2.25 19.81-9.12 44.34.98a15.23 15.23 0 0 0-3.63 1.04c-1.44.62-3.63 1.69-4.55 3.2 2.1-.84 3.86-2.26 6.22-1.62 1.58.43 2.83 1.51 2.83 1.51.07 0 1.21-.65 1.27-.65 1.86-.1 4.15.33 6.09.01 2.5-.07 4.79-1.52 5.72-4.15.07-.2.12-.41.17-.61.83-.11 1.64-.44 2.4-.82.72-.35 1.3-.66 1.97-.77 1.3-.52 2.67-.35 3.98.16-.78-1.37-3.32-4.06-5.4-4.63 4.26-5.26 9.03-10.06 15.4-12.75 6.01-2.55 12.63-3.53 19.17-3.76-.07-.03-.15-.05-.22-.08-1.52-.55-3.05-.85-4.65-1zm-301.09 48.36c1.09.37 2.15.83 3.19 1.32l4.58 2.19 4.21 2.03a23.85 23.85 0 0 1 1.39-.57c.91-.33 2.02-.73 3.02-.57.27-.16.58-.27.84-.43.4-.23.78-.49 1.16-.77a34.84 34.84 0 0 0 2.04-1.59l3.88-3.34c1.42-1.2 2.93-2.4 4.58-3.3 1.1-.51 2.26-.9 3.44-.99-2.98 1.11-5.6 2.94-7.91 5.11l-3.73 3.56c-.63.58-1.26 1.16-1.93 1.7l-.93.75a2.2 2.2 0 0 0-.23.2c.41.17.82.52 1.05.76.29.31.46.68.49 1.07-1.15-.51-2.01.05-2.32.08a3.41 3.41 0 0 1-.64-.01c-.07.01-.14.03-.21.04-.24.32-.62.57-.93.76-.51.33-1.11.57-1.7.73a7.59 7.59 0 0 1-1.56.26c-.31.15-.63.27-.88.36-.76.29-1.53.42-2.34.38-.67-.03-1.34-.16-2.01-.28-.51-.15-1.02-.27-1.54-.34-.44-.06-.9-.06-1.34-.03 0-.05.01-.1.06-.12.48-.27 1.01-.26 1.55-.27.61-.01 1.22 0 1.83-.03.53-.03 1.05-.09 1.56-.22.19-.05.37-.11.55-.17-.07-.02-.13-.05-.2-.07-.22-.09-.36-.25-.43-.43-.07 0-.14-.02-.22-.02-3.05.28-5.05-1.57-7.3-3.15-1.32-.92-3.6-2.09-3.99-2.29.6.1 1.18.2 1.76.42l1.29.5c-.15-.09-.3-.17-.45-.25-1.23-.67-2.53-1.21-3.87-1.63-1.04-.32-2.1-.5-3.15-.71a6.27 6.27 0 0 0-1.34-.28c1.22-.44 2.47-.78 3.78-.87 1.66-.12 3.3.08 4.89.48zm397.78-124.84c-3.9-3.03-7.89-5.92-12.07-8.43-6.22-2.98-12.79-4.95-19.71-5.39-5.44-.34-10.84.51-16.21 1.93 1.82.46 3.58 1.23 5.29 2.18 4.17 1.66 8.4 3.19 12.4 5.4 5.17 2.85 10.11 6.31 14.62 10.36.55.49 1.09 1 1.63 1.52-1.62-1.12-3.23-2.23-4.89-3.26-2.24-1.4-4.53-2.28-6.91-3.13 1.44 1.23 9.89 8.33 14.56 13.66 7.99 9.11 14.76 19.37 27.49 19.89.3.01.58.14.88.21.15.9.6 1.75 1.41 2.34a5.95 5.95 0 0 0 .75.48c-.79.19-1.59.37-2.4.48-2.2.31-4.41.28-6.59.1-2.53-.21-5.04-.66-7.55-.99-2.23-.29-4.39-.67-6.58.37-.23.11-.35.34-.36.57 1.86.15 3.73.45 5.49 1 2.07.64 4.08 1.57 6.06 2.6 2.63.99 5.27 2.04 8.02 2.59 3.3.66 6.57.51 9.9-.44 1.1-.31 2.5-.69 3.9-1.22 2.19.18 4.44.05 6.62-.31 2.54-.43 5.18-1.25 7.55-2.54 1.4-.76 3.15-1.77 4.41-3.16.3-.02 5.69-3.9 16.44-3.4-2.15-2.98-6.12-4.96-8.15-5.04l1.12-.83 4.41-3.09c3.16-2.24 6.23-4.67 9.27-7.13 6.11-4.93 12.05-10.16 18.14-15.14 11.21-9.18 23.42-16.52 36.54-20.13-4.95-.29-9.99.9-14.92 2.72-7.49 3.39-14.63 8.35-21.41 13.35l-18.58 13.96c-3.15 2.31-6.35 4.5-9.63 6.53-1.76 1.1-3.54 2.13-5.37 3.03-1.2.58-2.57.93-3.79 1.57-3.97-1.39-8.84-.15-12.85.92-2.08.55-4.13 1.23-6.17 1.95-5.13-4.32-10.48-8.34-15.67-12.52l-17.09-13.53zm-244.98 49.01c0-2.51-.18-5.07.42-7.54.03-.14-.14-.25-.23-.12a11.39 11.39 0 0 0-.79 1.4c.26-1.55.67-3.07 1.33-4.47.04-.09-.1-.15-.15-.07-3.08 4.56-3.53 10.17-4.17 15.5-.34 2.81-.64 5.6-1.25 8.36-.29 1.32-.66 2.63-1.14 3.89-.26.71-.76 1.5-1.04 2.3-1.34-.46-3.31-.46-4.24.65-.03-.02-.07-.03-.1-.05-1.08-.43-2-.9-2.85-1.72-.87-.84-1.62-1.79-2.38-2.72-1.88-2.3-3.96-4.44-6.1-6.5-.24-.23-.48-.45-.72-.67-.25-.33-.5-.66-.78-.97-.17-.19-.37-.27-.56-.28-1.48-1.36-2.99-2.68-4.52-3.98-1.98-1.68-3.93-3.61-6.53-4.24-.21-.05-.31.22-.11.31 1.99.89 3.59 2.5 5.09 4.12 2.17 3.4 3.51 7.31 5.97 10.53 1.12 1.47 2.46 2.72 3.82 3.96.52 1.13 1.15 2.23 2.03 3.1.98.98 2.13 1.67 3.37 2.27.95.47 2.3 1.23 3.42.98.25.07.5.11.73.1.02.05.03.11.05.16s.04.09.05.14c-1.08.7-1.95 2.21-2.4 3.09-.6 1.19-1.33 3.15-.94 4.61 2-1.94 5.76-2.66 7.93-1.38a39.3 39.3 0 0 0-.11-3.26l-.03-.46c.08-.02.16-.04.24-.07.53.74 1.04 1.48 1.46 2.29.05.1.19.11.26.02.37-.52.43-1.12.34-1.73.13-.84.01-1.73-.19-2.57a2.8 2.8 0 0 0 .07-.92c.22-.31.37-.63.44-.95 1.25-.63 2.24-2.3 2.79-3.34.89-1.67 1.67-3.82 1.35-5.75.42-1.9.6-3.9.38-5.77 0-.06-.03-.12-.05-.17.16-.87.29-1.74.41-2.62.21-1.63.52-3.69-.6-5.06v-.39zm-54.3 70.65v.37c0 .28 0 .55.03.82.18 1.28.7 2.51 1.52 3.4.57-2.6 2.19-4.65 3.93-6.58.15-.06.29-.13.38-.16l.58-.24c0 .01-.01.03-.02.04a5.91 5.91 0 0 0-.28.84c-.08.24-.1.51-.12.77s-.05.52-.16.73c-.56 1.13-.29 2.38.3 3.47.12.22.25.43.39.64.13.28.32.48.38.78l.18.76c.19.53.23 1.09.36 1.64a3.86 3.86 0 0 0 .17.55c.54 1.21.8 2.63 1.56 3.79.63.88 1.27 1.84 1.79 2.8.12.17.24.34.37.5-.06-.23-.11-.46-.14-.69-.49-1.81-.14-3.65.4-5.35l.21-.76c.77-2.22.63-4.59-.24-6.7-.04-.16-.09-.31-.13-.47-.1-.38-.2-.77-.28-1.15l-.18-1.06-.08-.53c-.28-1.03-.35-2.25.13-2.96.58-1.03 1.47-2.05 2.12-3.1.24-.35.65-.66 1.07-.84a7.55 7.55 0 0 1 .5-.22 10.87 10.87 0 0 0 .5-.22c.01-.02 0-.05-.02-.07-.59-.78-1.62-.89-2.54-.96-.21.05-.43.14-.64.24-.64.39-1.25.82-1.87 1.24.08-.35.12-.72.09-1.09a11.57 11.57 0 0 0 .28-1.3c.1-.56.17-1.13.22-1.69.05-.6.05-1.21.18-1.8.25-1.08.86-2.06 1.41-3.01.56-.97 1.18-1.92 1.64-2.95.34-.43.66-.87.94-1.35.11-.2.22-.4.32-.61.2-.41.37-.84.52-1.29l.15-.42.15-1.07c-.02.01-.03.03-.04.05l-.06.2c-.03-.01-.07 0-.1.03a14.31 14.31 0 0 0-.71.84l-.34.43c-.28.38-.56.86-.9 1.3.05-.1.01-.22-.03-.15-.45.37-.59.99-.92 1.5-.11.17-.24.32-.41.45.11-.22.25-.41.36-.63s.18-.44.17-.71c-.15.14-.27.31-.38.48s-.21.35-.32.53c-.11.45-.52.68-.77 1.04a.57.57 0 0 0 .08-.4 10.75 10.75 0 0 0-1.17.97c-.19.18-.37.36-.55.54-.43.59-1.02 1.16-1.5 1.8-.16.21-.31.42-.46.63-.45.64-.88 1.28-1.28 1.9-.15.25-.29.51-.43.76-.29.55-.61 1.11-.73 1.73-.13.69.08 1.4.48 1.99.02.48-.05.97-.02 1.45.02.28.09.51.31.69.12.1.26.15.39.22.01.06.03.11.04.17a21.06 21.06 0 0 0-.66.35l-.55.31-.55.45c-.54.28-1.07.58-1.57.92-.01 0-.03.01-.04.02-.92.41-1.84.82-2.87.79-.18 0-.36.09-.42.27-.29.84-.3 1.76-.26 2.64.02.54.05 1.14.16 1.71zm101.96-104.68 5.48 3.74c3.67 2.44 7.31 4.95 11.11 7.19 1.81 1.07 3.65 2.08 5.63 2.79l.6.21c-.96.84-2.13 1.93-2.61 3.08-1.44.55-2.95.93-4.43 1.41-1.85.6-3.57 1.38-5.19 2.46-2.96 1.98-6.45 4.99-7.34 8.59.61-.34 1.23-.64 1.84-.93 2.15-1.03 4.42-1.81 6.74-2.35 2.66-.62 5.54-.76 7.98.13.26-.39.52-.78.8-1.16 1.11-1.52 2.4-3.16 3.96-4.23.97-.67 2.01-.97 3.02-.92a29.66 29.66 0 0 0 4.47-1.67c1.67-.77 3.35-1.77 4.79-2.93.7-.57 1.36-1.22 1.95-1.91a5.11 5.11 0 0 0 .76-1.2c.07-.03.15-.05.22-.08 1.16-.44 2.44-1.13 3.43.07a.42.42 0 0 0 .74-.31c-.08-.97-.58-1.58-1.31-1.94 1.52-.6 3.03-1.24 4.51-1.94 3.77-1.78 7.09-4.11 10.25-6.75l1.88-1.62 2.33-2.03a50.16 50.16 0 0 1 2.25-1.86c5.53-3.5 11.84-6.9 14.81-13.01.05-.1-.09-.19-.15-.1-.55 1.2-1.47 2.13-2.33 2.55-5.61 2.17-10.96 4.37-15.95 7.32l-2.79 1.47a132.12 132.12 0 0 0-5.49 3.18l-2.97 1.97c-2.98 1.95-5.99 3.84-9.08 5.63-2.03 1.18-4.12 2.25-6.19 3.35-.85.45-1.78.86-2.7 1.28a3.56 3.56 0 0 0-1.52-1.16c-1.48-.61-2.68-.97-3.95-1.99-2.93-2.34-5.53-4.93-8.71-6.96-3.23-2.07-6.6-3.94-10.13-5.44-.93-.39-1.87-.77-2.82-1.11-.95-.35-1.91-.66-2.89-.95-6.91-3.05-14.53-1.69-21.88-2.42 6.75 1.18 12.63 4.9 18.12 8.67l2.74 1.89zm-139.59 63.38 2.05 2.42c1.38 1.58 2.74 3.2 4.17 4.66.68.7 1.38 1.36 2.15 1.84.08.05.15.1.23.14-.41.49-.92 1.13-1.15 1.82-.6.3-1.21.5-1.82.76-.76.32-1.47.76-2.16 1.38-1.25 1.14-2.75 2.9-3.24 5.08.26-.19.52-.36.77-.53.89-.58 1.83-1 2.77-1.28 1.08-.31 2.24-.33 3.18.27l.36-.69c.5-.9 1.07-1.88 1.73-2.5.41-.39.84-.55 1.24-.49.63-.23 1.24-.54 1.84-.91.7-.43 1.4-1 2.02-1.68.3-.33.59-.71.85-1.12.15-.24.25-.47.35-.72.03-.02.06-.03.09-.04.48-.24 1.01-.63 1.37.12.1.21.31.09.31-.17 0-.59-.17-.98-.45-1.22a27.3 27.3 0 0 0 1.87-1.08c1.57-1 2.98-2.34 4.33-3.88l.81-.94 1-1.19c.33-.39.65-.75.97-1.08 2.33-2.01 4.97-3.94 6.38-7.61.02-.06-.03-.12-.06-.06-.26.72-.66 1.27-1.02 1.5-2.32 1.19-4.53 2.41-6.63 4.1l-1.17.83c-.77.57-1.54 1.18-2.31 1.81l-1.26 1.13c-1.26 1.12-2.53 2.21-3.83 3.23-.85.67-1.72 1.28-2.59 1.9-.36.26-.74.48-1.12.72a1.81 1.81 0 0 0-.56-.75c-.57-.41-1.03-.66-1.5-1.31-1.08-1.5-2.03-3.14-3.22-4.47-1.21-1.34-2.49-2.57-3.84-3.57-.36-.26-.72-.51-1.08-.75s-.74-.45-1.12-.65c-2.64-2.03-5.74-1.38-8.64-2 2.65.88 4.86 3.3 6.91 5.73l1.02 1.22z"></path><path fill="url(#W)" d="M0 0h3600v1925.85H0z" style="mix-blend-mode:screen"></path><g fill="#472a52"><path d="M3337.66 1407.96c-9.82 6.72-20.53 11.94-32.15 15.63-19.38 9.96-40.27 14.52-62.66 13.7-26.68-2.48-52.67-7.18-78.83-11.43-3.6-.21-7.2-.31-10.81-.3-26.56 5.81-52.4 14.46-78.21 22.97-58.69 19.34-115.72 43.41-176.18 57.33-21.7 5-43.5 8.04-65.6 10.94-21.98 2.89-43.77 5.9-65.97 6.12-22.05.21-44.08-1.68-66.08-1.24l-2.86.82c-39.48 18.11-78.54 37.85-121.53 46.37-22.95 4.55-46.56 7.76-69.95 9.19l-3.53.16-33.12 22.86-20.04 14.62-1.87 1.43-5.07 3.92-7.16 5.66c-23.11 18.63-47.24 37.57-73.19 52.51-25.86 14.89-54.32 26.1-82.59 35.67-6.07 2.05-12.2 3.91-18.36 5.65-5.25 3.65-10.54 7.23-15.94 10.65-3.49 2.21-7.05 4.38-10.68 6.48-27.17 17.41-54.63 34.39-82.37 50.92l-42.39 25.11c-15.71 8.71-33.42 15.13-51.75 14.07-7.75-.45-57.19-15.2-75.07-23.06-1.92-.84-3.81-1.8-5.67-2.83-22.69-1.54-45.57-4.65-67.61-10.37l-87.87 17.23c-36.52 7.19-73.09 15.75-110.08 20.73-5.25 3.4-10.43 6.88-15.49 10.52-9.21 6.63-18.27 13.51-27.73 19.81l-18.54 40.7c-9.12 19.72-18.02 39.28-29.81 57.66-5.68 8.86-11.81 17.44-18.3 25.75l-6.43 8.14c-.29.36-.7.73-1.06 1.03l.55-.37c1.41-1.81 1.53-1.89.34-.21l-.81 1.22-1.6 2.49c-2.31 3.67-4.48 7.43-6.59 11.21l-3.61 6.49c-1.85 7.4-3.6 14.82-5.14 22.28-.96 4.66-1.85 9.34-2.64 14.03l-1.05 6.82c0 .07-.02.14-.03.2-1.02 8.44-38.48 83.76-42.48 70.46-1.44-4.81-3.04-9.56-4.82-14.26-.84-2.22-1.75-4.42-2.63-6.62l-.87-1.93c-4.13-9.04-8.75-17.86-13.69-26.5-10.37-18.12-22.1-35.46-34.14-52.55-20.31-28.84-40.82-57.32-59.61-87.15l-51.42-82.04c-18.22-30.81-34.85-62.67-47.38-96.14-2.53-6.75-4.87-13.65-6.97-20.65l-3.14-4.24-14.55-19.03-3.84-4.91-.42-.54-.32-.4-7.26-9.11-31.06-38.12c-2.79-3.4-4.92-6.71-6.28-10.38-12.47-14.06-24.05-28.83-34.23-44.52l-20.29-21.55c-12.72-11.73-22.84-27.51-30.36-47.34l-8.53-31.52c-.62-3.59-1.13-7.19-1.56-10.78-31.65-38.32-62.25-78.65-90.71-122.57-15.24-9.54-30.4-19.53-45.26-30.46-17.18-12.64-33.96-26.56-50.74-40.42-8.93-7.38-18.22-13.81-27.29-20.81l-27.7-21.94c-16.61-13.55-33-27.74-49.01-42.95-12.31-2.02-24.67-3.99-37.05-5.5-9.07 6.38-18.76 9.27-29.05 8.67-11.3 0-22.6-.11-33.9-.36l-24.16-.76c-3.74 3.33-7.37 6.92-10.91 10.78-17.63 22.18-35.03 44.89-55.29 61.07-26.14 20.88-54.09 37.57-82.63 48.52-8.94 3.43-17.94 6.42-26.97 9.09-3.91 4.81-7.89 9.49-12 13.81-1.4 1.47-2.84 2.85-4.3 4.17-3.41 3.06-6.95 5.76-10.54 8.26-10.58 7.38-21.28 14.54-32.14 20.87-7.88 4.59-15.89 8.68-23.96 12.42-2.72 16.06-7.62 30.13-14.71 42.21-5.97 14.37-13.88 25.7-23.75 33.99-15.1 17.01-30.61 33.11-46.5 48.28-10.05 9.59-20.25 18.82-30.58 27.66l-36.94 54.92c-2.79 9.88-6.56 18.87-11.31 26.96-5.97 14.37-13.88 25.7-23.75 33.99l-11.84 8.67-15.9 24.86c-10.56 16.36-23.01 27.67-37.35 33.94l-5.2 1.09c-5.06 6.22-10.31 12.09-15.61 17.72-3.62 3.85-7.4 7.32-11.26 10.55-10.43 8.72-21.39 16.08-32.39 23.02l-7.67 9.03v483.25h3350.63l-163.32-881.51z"></path><path d="m739.01 1001.57-17.98-64.9-19.05-13.17 15.6.7-40.45-146.04-4.8 17.35 1.24 8.96-5.17 5.2-14.78 53.4 14.98-1.33-19.01 15.88-20.25 72.88 15.79 2.33-20.46 14.75 26.89-4.4-30.45 17.26-5.67 18.85 52.22 36.26v34.38l-31.22 20.92 31.22 3.27-41.95 37.93 41.95-15.51v231.95h18.95v-263.6l35.79 9.23-35.79-30.8v-27.77l52.4-33.98zm170.03-129.45-21.82-78.79-23.13-15.99 18.94.84-49.11-177.3-5.83 21.06 1.51 10.88-6.28 6.32-17.95 64.83 18.19-1.61-23.08 19.28-24.58 88.48 19.17 2.83-24.84 17.91 32.64-5.34-36.97 20.95-6.88 22.88 63.4 44.03v41.74l-37.91 25.4 37.91 3.97-50.94 46.05 50.94-18.83v281.61h23.01V973.28l43.45 11.21-43.45-37.39v-33.72l63.61-41.26zm1994.17 249.41-27.53-99.42-29.18-20.17 23.89 1.06-61.96-223.7-7.36 26.58 1.91 13.72-7.92 7.98-22.65 81.79 22.96-2.03-29.13 24.33-31.01 111.62 24.19 3.58-31.35 22.6 41.19-6.74-46.64 26.43-8.68 28.87 79.98 55.56v52.65l-47.82 32.05 47.82 5.01-64.26 58.1 64.26-23.76v355.3h29.03v-403.78l54.83 14.14-54.83-47.18v-42.53l80.26-52.06zm-233.99 171.83-19.16-69.18-20.31-14.04 16.63.74-43.12-155.67-5.12 18.49 1.33 9.55-5.51 5.56-15.76 56.92 15.97-1.42-20.27 16.93-21.58 77.68 16.83 2.49-21.81 15.72 28.66-4.69-32.45 18.4-6.05 20.09 55.66 38.66v36.64l-33.28 22.31 33.28 3.48-44.72 40.43 44.72-16.53v247.25h20.2v-280.99l38.16 9.84-38.16-32.83v-29.6l55.86-36.23z"></path><path d="m701.02 1080.17 10.52-37.97 26.75-14.12-22.85.04 31.58-43.98-14.52-17.62 18.15-65.54 3.85 13.92-1 7.18 4.15 4.18 11.86 42.83-12.94 12.11 16.17-.44 16.24 58.45-12.67 1.87 16.41 11.83-21.56-3.53 24.42 13.85 4.55 15.11-41.88 29.09V1135l25.04 16.78-25.04 2.62 33.64 30.42-33.64-12.43v186.03h-15.2v-250.99l-42.03-27.26zm241.07 81.81-10.52-37.97-26.75-14.12 22.85.04-31.58-43.98 14.52-17.62-18.15-65.54-3.85 13.92.99 7.18-4.14 4.18-11.86 42.83 12.93 12.11-16.16-.44-16.24 58.45 12.66 1.87-16.41 11.83 21.57-3.53-24.42 13.84-4.55 15.12 41.88 29.09v250.98h15.2v-250.98l42.03-27.26zm2039.39 157.07-10.51-37.97-26.76-14.12 22.85.04-31.58-43.98 14.52-17.62-18.15-65.54-3.85 13.92 1 7.18-4.15 4.18-11.86 42.83 12.94 12.11-16.17-.44-16.24 58.45 12.67 1.87-16.41 11.83 21.56-3.53-24.42 13.84-4.54 15.12 41.87 29.09v250.98h15.2v-250.98l42.03-27.26zm-716.64 350.66-8.14-29.4-20.71-10.93 17.69.03-24.45-34.05 11.24-13.64-14.05-50.75-2.98 10.78.77 5.56-3.21 3.23-9.18 33.16 10.01 9.38-12.52-.34-12.57 45.25 9.81 1.45-12.71 9.17 16.7-2.74-18.91 10.72-3.52 11.7 32.43 22.53v194.33h11.76v-194.33l32.54-21.11zM649.95 1152.16l-27.27 185.64h54.55l-27.28-185.64z"></path><path d="m952.66 1036.9-43.62 296.91h87.23l-43.61-296.91zm-373.59 59.62-43.62 296.92h87.23l-43.61-296.92zm2472.75-209.78-87.73 597.23h175.46l-87.73-597.23zm-650.7 277.6-87.73 597.23h175.46l-87.73-597.23z"></path><path d="m2306.25 1471.21-43.86 298.62h87.73l-43.87-298.62zM465.87 1225.54l-43.61 296.92h87.23l-43.62-296.92zm1055.32 605.61c-92.45 0-219.47 15.46-219.47 15.46l90.01 92.54c29.44-45.72 76.47-75.33 129.46-75.33s100.02 29.6 129.46 75.33l90.01-92.54s-127.02-15.46-219.47-15.46Z"></path></g><path fill="url(#N)" d="M1521.19 1831.15c-277.53 0-456.05-10.12-526.91-13.93-152.69-8.21-29.53 26.92-29.53 26.92l556.44 2.04c802.01 7.35 1247.4 269.82 1300.67 264.72 14.53-1.39 117.78-22.78 9.2-128.91-91.54-89.47-798.59-135.26-1067.81-146.8-60.47-2.59-149.62-4.04-242.06-4.04z"></path><path fill="#472a52" d="M2075.4 1816.73c1.71-2.08 4.22-4.23 5.07-6.55.16-.43-3.11-5.66-4.68-7.8l-.42-.58c-.31-1.2-.76-2.37-1.24-3.46-.73-1.64-1.61-3.23-2.56-4.8l-3.01-4.63-1.77-2.6v.05c-1.34-1.92-2.75-3.82-4.52-5.53-.68-.66-1.41-1.26-2.2-1.83-1.42-1.35-5.11-3.87-5.4-3.86-5.57-3.87-12.25-7.07-18.34-10.49l-6.37-3.57-3.32-1.85c-2.88-1.58-5.56-3.42-8.6-4.84 0 0 .01-.02 0-.01-.25.08-.52.18-.82.29v.02c-8.81 3.23-36.62 17.92-36.75 18.13-3.77 5.9-6.06 12.38-8.66 18.52l-4.06 9.58c-.05.12-.09.27-.13.4 0 0-.02.01-.03.02-.04.11-.06.24-.1.35-.05.17-.1.34-.14.52-.05.21-.09.43-.14.66-.04.19-.08.38-.11.58-.04.24-.07.48-.1.72-.03.2-.06.4-.08.6a19.41 19.41 0 0 0-.07.72c-.02.2-.04.39-.05.58l-.05.73c0 .15-.02.31-.03.45l-.02.64v1.01c0 .16.02.26.04.26-.16 1.87-.17 3.75-.16 5.63h.01c.01 2.26.02 4.52-.15 6.77 0 .01.03.05.03.07h-.02s.04.04.04.05c.07.25.41.68.98 1.25l.07.07c.59.58 1.36 1.26 2.23 1.96.03.03.07.05.1.08.88.7 1.83 1.41 2.76 2.03.02.02.04.03.07.04.94.63 1.85 1.16 2.6 1.49 4.48 1.95 16.46 10.63 19.56 10.94l10.23.92 6.87 1.15 8.86 1.41c1.24.18 2.51.3 3.76.46l5.12.62c.14.01.27.04.41.05 1.33.13 16.47-3.73 18.48-5.8.35-.36 3.88-4.08 7.05-7.19.19-.14 7.13-2.62 7.17-2.65.85-.02 11.37-2.72 12.57-3.44.82-.5-.74-7.37.04-8.31zm-229.91-13.96c-1.43 1.41-3.64 3.03-4.2 4.39-.1.26 3.69 2.3 5.47 3.1.16.07.32.14.48.22.44.56 1.02 1.07 1.61 1.54.9.7 1.94 1.35 3.05 1.97s2.29 1.21 3.47 1.79l2.03.99v-.03c1.53.73 3.12 1.42 5.05 1.96a24.36 24.36 0 0 0 2.36.51c1.54.41 5.44.98 5.72.92 5.88.89 12.79 1.21 19.12 1.78l6.64.58 3.46.3c2.99.25 5.82.66 8.96.79.24-.09.49-.2.77-.31 8.24-3.42 33.72-16.54 33.83-16.67 3.01-3.79 4.5-7.6 6.33-11.28l2.87-5.76c.03-.07.05-.16.08-.23l.02-.01c.02-.06.03-.14.05-.2.03-.1.06-.19.08-.3l.06-.37c.01-.11.03-.21.04-.32.01-.13.01-.26.02-.39v-.33c0-.13 0-.26-.01-.39 0-.1 0-.21-.02-.31a4.04 4.04 0 0 0-.04-.38c0-.08-.02-.16-.03-.24-.02-.13-.03-.23-.05-.34l-.03-.18c-.02-.11-.04-.18-.06-.26a.24.24 0 0 0-.02-.09c-.03-.08-.05-.13-.07-.13-.06-1-.27-1.97-.49-2.94h-.01c-.27-1.17-.54-2.33-.63-3.53 0 0-.04-.02-.04-.03h.02s-.04-.01-.04-.02c-.09-.11-.48-.27-1.1-.45-.02 0-.05-.01-.08-.02-.64-.18-1.47-.38-2.4-.57-.04 0-.07-.01-.11-.02-.94-.19-1.95-.37-2.93-.5h-.07c-.99-.14-1.94-.23-2.71-.25-4.6-.12-17.31-2.22-20.37-1.76l-10.1 1.56-6.84.77-8.82 1.03c-1.23.15-2.48.34-3.72.51l-5.07.7-.41.06c-1.32.2-15.67 5.2-17.39 6.67l-6.06 5.11c-.17.11-6.66 2.77-6.7 2.79-.83.18-10.8 3.66-11.88 4.28-.75.42 1.57 3.66.92 4.3z"></path><g fill="#311c3b"><path d="m3199.11 1302.95-.1-.32c-.02-.06.02.06.1.32zm-1556.89 870.76-.1-.32c-.02-.06.02.06.1.32zm1661.24-929.2c.49-.22.7-.57.59-1.07l-.1-.46c-.07-.31-.4-.52-.7-.6l-.44-.11c-.31-.08-.71.09-.83.38l-.11.25c-.07.15-.05.31.09.43.44.38.61 1.58 1.51 1.18zm-.83.51-.14.28c-.51 1.04 1.51.95 1.08.08l-.15-.3c-.15-.3-.62-.42-.8-.06zm-2.64 14.4.54-.36c.27-.18 0-.56-.28-.41l-.58.31c-.33.18.01.67.32.46zm21.34-13.08c.52-.65.58-.68.45-1.49-.05-.3-.37-.4-.6-.2-.65.55-.62.61-.66 1.42-.02.38.57.57.81.27z"></path><path d="m3600 1111.5-56.92 36.13-8.34 8.44c-14.03 14.25-28.52 27.19-44.56 39.2l3.29-2.37-9.32 6.8 6.03-4.43c-31.7 22.76-65.79 42.25-97.67 64.74-17.5 13.43-32.78 29.22-46.81 45.87-6.43 8.04-12.62 16.24-18.7 24.51-.03-.89-.12-1.78-.28-2.68-.02-.12-.2-.19-.26-.05-2.05 4.56-4.12 8.64-6.92 12.42-.22.27-.44.53-.64.81a42.07 42.07 0 0 1-5.06 5.48l-.02.02c2.14-4.66 5.31-8.86 7.02-13.65.09-.25-.28-.48-.5-.32-3.16 2.36-6.49 6.05-9.35 10.23l.37-6.08c2-2.82 2.61-6.59 3.66-9.78a25.36 25.36 0 0 1 5.25-9.2c1.39-1.58 3.11-2.28 4.03-4.14 0-.01 0-.02-.02-.02-4.24.09-7.37 5.24-9.26 8.33-.78 1.27-1.81 2.63-2.87 4.05l.15-1.61c.38-3.52.86-7.02 1.36-10.53.43.12.94.03 1.27-.27 3.68-3.25 5.68-9.22 7.53-13.59 2.23-5.27 4.19-10.06 8.58-14.15.14-.13-.06-.35-.22-.25-4.81 3.17-8.55 7.62-11.88 12.14-1.28 1.73-2.69 3.71-3.86 5.8l1.6-12.34c.33.19.76.1 1.08-.06l1.13-.6c.2-.1.21-.36.09-.53.2.02.41.02.64-.05 1.13-.36 2.27-.8 3-1.72.42-.53.47-1.09.13-1.67l-.15-.27c-.07-.13-.18-.21-.28-.28v-.01c.48-.19.82-.52.84-1.07 0-.17.01-.34.02-.52.02-.57-.43-.81-.91-.83h.06c.91-.45 1.37-1.13 1.27-2.11-.02-.2-.17-.43-.41-.46-.04 0-.07.01-.11.01l.62-.48a.93.93 0 0 0 .39-.57c.02 0 .04-.01.06-.02.25-.08.49-.29.53-.55l.09-.63c.02-.14-.08-.25-.23-.25-.22 0-.45-.01-.67-.02-.25 0-.47.15-.6.34-.24-.03-.49 0-.66.12-.48.34-1.25.82-1.91 1.37v-.01c.05-.05.07-.11.13-.15.25-.17.4-.44.48-.73.8-.41 2.44-1.61 1.33-2.35-.13-.09-.26-.1-.39-.15-.01-.03 0-.05-.03-.08-.04-.06-.08-.12-.12-.17-.16-.23-.45-.39-.76-.47.12-.22.25-.45.38-.67.65-.33 1.32-1.16 1.56-1.54.2-.32-.07-.67-.39-.77-.69-.21-1.18-.07-1.62.28.1-.22.16-.46.19-.77.3-.46.6-.92.83-1.41.31-.67-.26-1.21-.91-1.14 0-.08-.01-.16-.02-.24 0-.14-.1-.26-.16-.39.51-.67 2.09-2.51.9-3.05-.06-.03-.12-.01-.17-.03.43-.52.92-1 1.52-1.43.18-.13.16-.34-.03-.45-1.02-.61-1.97-.32-2.79.37a2.1 2.1 0 0 0-.47-.41c-.21-.13-.37-.19-.53-.19.02-.06 0-.12.02-.18 0-.03 0-.07.01-.1h.11c.34.14.77.16 1.37-.14.08-.03.16-.05.24-.08.32-.02.51-.22.61-.49.06-.17.07-.32.07-.48.07-.02.15-.03.22-.04 1.21-.24 1.13-1.84.26-2.34-.12-.2-.32-.33-.54-.42.03-.17.07-.34.02-.55-.05-.24-.1-.47-.14-.71-.13-.64-.97-.77-1.49-.46-.06-.15-.06-.32-.15-.46.09-.04.17-.06.27-.13.15-.12.18-.3.04-.44-.27-.26-.65-.53-.94-.85h.02a.81.81 0 0 0 .09-.1c.51.03 1.07-.46.67-.95l-.05-.06h.04c.13-.09.27-.18.4-.28.47-.32.72-.86.53-1.4l-.19-.55c.34-.3.53-.71.38-1.15l-.19-.58c-.06-.18-.23-.22-.36-.31.21-.47.16-.71 0-.84.35-.16.61-.51.58-.87l-.03-.41c-.02-.29-.19-.46-.39-.57.05-.05.11-.05.15-.11l.22-.31c.62-.87-1.13-1.73-1.54-.73-.05.12-.1.23-.14.35-.18.42 0 .75.29.93-.11.09-.21.18-.32.27-.5.42-.21 1.25.36 1.48-.34.14-.64.38-.69.62-.85.08-1.07.88-.78 1.5-.1.12-.21.25-.26.4-.06.18-.12.36-.19.53-.08.22.07.39.26.5-.04.06-.1.07-.14.13-.26.53-.34.87-.33 1.21-.05.02-.11-.02-.14 0-.06.05-.12.09-.19.14-.06.05-.06.12-.11.17 0-.01-.02-.02-.03-.03-.33-.65-1.5-.12-1.21.54.06.14.14.26.22.39-.03.01-.07 0-.1.02-.08.03-.09.11-.04.17.47.48.97.81 1.42 1.33.08.09.15.3.24.54-1.09-.16-1.53.42-1.56 1.08-.6.37-.94.97-1.1 1.83a1.38 1.38 0 0 0 .13.87c-.25-.01-.48-.08-.74-.04-.5.09-.62.7-.4 1.05.31.5.68 1.01 1.06 1.51-.12.13-.17.27-.21.41-.07-.02-.13-.07-.2-.08-.18-.03-.4.11-.38.3.15 1.12.22 2.33 1.14 3.11-.32-.08-.64-.13-1.03-.13-.81 0-.99.92-.52 1.39.13.13.26.27.4.42-.02.16-.09.31-.04.48 0 .16.01.32.06.48-.06-.03-.1-.06-.16-.08-.05-.03-.12-.03-.18-.04a1.26 1.26 0 0 0-.61.01c-.27-.58-.89-.54-1.55-.25.02-.06.04-.11.06-.16.5-.24.65-.74.45-1.23.68-.1 1.01-1.1.26-1.36a2.57 2.57 0 0 1-.72-.31c-.1-.05-.21-.05-.33-.07.47-.07.75-.26.92-.56.29-.16.54-.37.72-.69a.39.39 0 0 0-.1-.49c-.07-.05-.15-.1-.22-.15-.22-.15-.47-.18-.72-.12 0 0 .01-.02.02-.03 1.39-.63.64-2.23-.37-2.27.21-.26.21-.54.13-.79.25-.1.48-.26.65-.53.16-.25.79-1.43.61-1.25.19-.19.12-.44-.04-.62-.1-.14-.22-.25-.36-.35-.42-.33-1.03-.4-1.5-.11-.28.18-.48.33-.65.51v-.1c.46-.9 1.06-1.82 1.08-2.77.37.37.91.52 1.45.11.09-.07.17-.14.26-.2.8-.62.58-2.14-.68-2l-.32.03c-1 .1-1.23.74-1.09 1.34-.07-.04-.12-.11-.21-.12-.43-.04-.8.05-1.14.19-.06-.15-.15-.3-.22-.45 0-.02.01-.03 0-.05.03-.11.04-.22.07-.33a.73.73 0 0 0 .36 0l.66-.21c.33-.1.61-.37.67-.7l.12-.6c.06-.28-.19-.63-.53-.61-.03-.04-.02-.09-.06-.12l.12-.5c.05-.23 0-.41-.06-.58.34-.54.11-1.35-.6-1.57 1.12-.5.82-2.45-.71-2.45-.66 0-1.06.36-1.2.81-.02 0-.03-.02-.05-.03-.28-.05-.52-.04-.77-.03.05-.06.04-.14.08-.2.62-.29.96-.69 1.38-1.28.04-.06.04-.13.07-.2-.05.24.09.4.69.23-.02.07-.03.14-.05.2-.02.26.47.25.44-.02a10.85 10.85 0 0 0-.02-.57c.19-1.15-.66-.6-.97-.08.06-.24-.03-.47-.11-.7.69.02 1.43-.47 1.14-1.22-.27-.68-1.01-.72-1.52-.42.12-.31.26-.61.35-.93.12-.4-.37-.86-.79-.68-.29.12-.5.29-.72.46a1 1 0 0 0-.26-.67c.19-.25.3-.53.21-.88-.05-.2-.17-.33-.25-.5.09-.16.18-.32.2-.54l.06-.66c.07-.7-.33-1.21-.84-1.49-.11-.44-.43-.85-1.06-.85-.1 0-.13.07-.21.09-.04-.08-.01-.17-.09-.25 0 0 .02-.01.02-.02-.01-.09 0-.18 0-.26.22-.21.27-.35.35-.64.08-.32-.22-.49-.53-.47.02-.13.01-.26-.11-.38l-.25-.25c.13-.06.25-.16.29-.29.3-1.12 0-1.68-.88-2.51-.15-.14-.38-.03-.43.13-.33 1.1-.26 1.7.47 2.5-.28.11-.48.47-.18.73l.38.33c.05.04.1.03.15.05-.08.11-.13.25-.12.38a.3.3 0 0 1-.04.08c-.05.11.03.2.06.3-.98.01-1.74 1.39-.55 2.02.19.1.37.08.55.06-.07.12-.15.24-.22.36-.17.27-.23.52-.24.76-.11.06-.2.15-.26.29a1.96 1.96 0 0 1-.06.14c-.02 0-.01-.03-.03-.04-.09-.04-.18-.07-.28-.11-.09-.03-.19-.02-.25.04s-.12.13-.18.19c-.12.13-.2.36-.12.53.06.14.12.27.19.41.15.32.55.37.79.21.01.01 0 .03.02.04l.16.13c-.03.04-.1.04-.12.08l-.21.42c-.31.59-.15 1.01.17 1.29-.01.03 0 .07-.02.1-.33.03-.64.22-.71.59-.11.64-.05.9.31 1.45.27.42.8.48 1.25.3.11.06.17.16.3.2 0 .32.01.63.1.89-.13-.09-.33-.11-.53-.1-.14-.28-.37-.52-.71-.55-.09 0-.17-.02-.26-.02h-.01c-.68.09-1.15.76-.92 1.34-.37-.09-.72.12-.73.5 0 .59.29.95.69 1.14-.57.01-1.14.12-1.66.39-.07.03-.04.14.03.15.93.14 1.68.15 2.52.71.26.17.58.89.86 1.43-.25-.22-.48-.44-.58-.72-.11-.32-.53-.47-.83-.28-1.53.98-.18 2.15.22 3.36 0 .03.03.04.05.06-.86-.24-1.57.85-.85 1.46l.43.37c.23.2.66.32.97.19.09-.04.13-.07.19-.11.15.09.18.24.1.44 0 .06.03.1.05.15-.68-.33-1.4-.57-2.07-.56-.11 0-.18.09-.26.16-.51-.2-1.08-.2-1.58.22-.07.06-.07.18-.02.25.53.75 1.09 1.79 1.94 2.24-.02.07.03.12.04.18-.39-.15-.79-.17-1.33.05-.19.07-.27.36-.04.45.66.26.92 1.03 1.47 1.46.2.16.6.14.7-.13l.15-.38c.12.2.32.37.68.37h.14c.02 0 .03-.02.05-.02.02.15.13.26.22.39-.07.05-.14.09-.21.13-.48-.11-.96-.13-1.51-.03-.83.15-.87.88-.53 1.43 0 .07-.02.14.06.19.04.02.07.06.1.09.01.01.02.02.04.03a4.09 4.09 0 0 1 .44.37c.17.24.35.46.54.65.41.6.76 1.24 1.26 1.74-.09.04-.18.06-.25.13-.67-.77-1.65-1.16-2.84-1-.12.02-.18.1-.16.21.3 1.34 1.28 2.1 2.6 2.3 0 .09.03.18.05.26-.68-.23-1.33-.23-1.81.42-.08.11-.15.29-.03.41.42.46.9.66 1.46.96.06.03.1 0 .16.01-.12.18-.19.39-.1.61-.8-.53-1.76-.8-2.63-.2-.28.19-.31.47-.17.74.47.94 1.72 2.03 2.88 1.87.19-.03.38-.12.52-.26.01.05.01.1.06.12.14.06.24.06.37.1-.26.02-.5.15-.58.45-.29-.11-.61-.2-.96-.22-.57-.04-.64.73-.22.96.44.23.79.51 1.19.76-.03.65.03.77.4 1.32.33.49 1 .47 1.41.1.06-.06.05-.11.09-.17.02.22.09.41.2.56-.03.09-.12.14-.1.25.07.27.12.46.19.61-.26.38-.33.86-.08 1.42.25.57 1.08.91 1.64.65a19.19 19.19 0 0 0-.23 2.32c-1.86-3.2-4.44-6.27-5.66-9.1-.13-.3-.58-.05-.4.18 2.12 2.6 2.96 6.7 3.34 9.86.31 2.58.31 5.53 1.8 7.77.27.4.67.54 1.07.56l-.09 4.12c-.28 1.1-.48 2.19-.46 3.28a1.33 1.33 0 0 0 .43 1.02l-.24 6.35-1.21 1.74c-1.8 2.62-4.55 5.64-5.92 8.82-.44-6.47-1.07-12.89-1.89-19.26.6-1.55.4-3.22-.13-4.87 1.67-1.19 1.4-3 1.53-4.88l.57-9.67c.04-.43-.63-.42-.75-.06-.93 2.79-1.82 5.59-2.49 8.44-.07.31-.16.63-.24.96l-.94-5.35c.36-.17.61-.48.8-.83.36-.13.67-.42.78-.92.21-.97.29-2.21-.67-2.84-.03-.02-.06-.01-.09-.03.16-.31.29-.61.42-.91 1.38-.77 2.49-1.84 3.32-3.15.18-.28-.11-.74-.47-.68-.68.11-1.27.38-1.79.72-.04-.04-.06-.09-.1-.14.61-.11 1-.64.83-1.21-.04-.15-.09-.3-.13-.46-.05-.18-.21-.26-.38-.29v-.11c0-.33-.24-.66-.55-.8-.05-.02-.09-.04-.14-.06-.11-.05-.24-.03-.37-.05.01-.03.02-.07.03-.1.06-.17.01-.31-.04-.45.21-.33.4-.67.59-1.02.56.67 1.72.27 1.7-.59v-.24c0-.26-.21-.44-.46-.51-.1-.03-.19-.06-.29-.08-.23-.07-.44-.03-.61.06-.07-.06-.12-.13-.2-.15-.18-.04-.34-.04-.5-.04a1.37 1.37 0 0 1 .18-.33c.35-.48.04-.97-.45-1.01-.06-.07-.11-.15-.21-.16h-.1v-.02c.29-.22.53-.44.74-.8s.09-.82-.22-1.09c-.08-.07-.16-.14-.24-.2-.41-.35-.98-.36-1.47-.16.09-.24.16-.49.3-.71.07-.12.07-.26.02-.38.45-.69.63-1.52 1.01-2.33.18-.39-.31-.94-.72-.61-.63.51-1.25 1.11-1.59 1.79-.02-.1-.06-.19-.14-.27l-.12-.12c-.29-.29-.89-.26-1.18.03.17-.22.31-.48.42-.78.11-.01.22-.03.33-.04.97-.13.52-1.14-.08-1.12 0-.04.01-.08.01-.12.1-.16.2-.33.35-.49.32-.34.12-.77-.22-.95.3-.58.58-1.18.77-1.78.04-.14 0-.25-.02-.37.09-.15.15-.33.13-.55l-.03-.43c-.11-1.38-2.11-1.21-2.21.1v.1c-.04-.02-.08 0-.11-.01-.04-.39-.09-.73-.15-.96-.04-.17-.18-.32-.34-.45-.02-.19-.06-.39-.1-.61-.09-.47-.51-.82-.99-1.02.3-.64.32-1.42 0-2.12-.13-.29-.49-.38-.73-.15-.05.05-.09.11-.15.16-.04-.04-.05-.1-.11-.11v-.05l-.15-.39c-.05-.13-.15-.16-.23-.22.17-.29-.1-.6-.41-.6-.07 0-.1.03-.17.04.02-.05.04-.1.03-.16-.03-.13-.06-.22-.1-.3.16-.27.26-.61.03-.87-.12-.14-.23-.17-.34-.26-.24-.31-.62-.52-.96-.38-.02-.02-.03-.05-.04-.07-.04-.07-.13-.09-.21-.11.01-.02.02-.03.03-.05.06-.1.05-.2 0-.28.03-.02.08 0 .1-.03.04-.08.09-.16.13-.24.86-1.59-2.51-.49-.9.26l-.36.38c-.29.31.03.65.35.65-.01.15 0 .3.06.54.04.18.19.29.36.35.1.13.28.16.46.19.02.05.03.06.05.1-.05-.01-.1-.05-.14-.03-.18.1-.35.19-.53.28.01 0 .03.01.04.02-.35.19-.29.57-.04.79-.99.24-1.14 1.59-.19 1.97-.5.75.02 1.42.65 1.62-.07.07-.11.15-.16.22-.27-.26-.86-.06-.87.37v.07c-.34-.05-.73.13-.68.5v.02c-.01 0-.02 0-.03-.01-.36-.12-.79.13-.65.53.18.53.32.81.59 1.31.15.27.55.45.86.42.15-.01.3-.03.46-.04.18-.02.38-.14.4-.32.01-.1.03-.19.04-.29.04-.03.03-.09.06-.13.16.1.38.13.63.09l-.42.38c-.39.38-.23.88.12 1.18-.05.16-.07.33-.11.5-.7-.3-1.45-.48-2.04-.48-.15 0-.21.14-.19.25.15.69.18.7.55 1.34.34.59 1.4 1.09 1.59 1.68.09.28.28.45.48.58-.08.05-.13.12-.19.2-.19-.24-.41-.47-.66-.66-.02-.02-.04 0-.06-.02-.14-.18-.24-.34-.43-.57-.32-.38-1.07-.13-.87.39.25.63.47 1.07.76 1.49-.2-.14-.37-.29-.65-.41-.32-.15-.65.14-.56.45.07.23.17.37.25.56a5.5 5.5 0 0 0-.8-.03c-.2 0-.28.24-.14.36.92.81 1.99 2.13 3.21 2.74-.12.09-.23.21-.21.38.04.34.06.65.09.95-.04 0-.09.01-.13.02-.34-.65-1-1.14-1.8-.99-.11.02-.13.14-.08.22.02.03.02.08.03.11-.31-.02-.64 0-1.02.16-.04.02-.05.05-.02.08.63.64.89 1.53 1.58 2.09.04.03.1 0 .15.01.12.1.27.18.41.21.1.02.19.03.29.05.07.01.11-.06.18-.08.15.03.3.05.45.07-.15.32-.13.75.13 1.02.13.14.26.34.39.56h-.03c-.17.03-.28.15-.23.32.06.24.06.41.08.56-.59-.93-1.75-1.12-2.95-.96-.24.03-.37.25-.25.45.59.99 1.47 1.77 2.61 1.65.07.11.15.24.29.26.02.09.04.18.1.24-.24.15-.42.41-.43.68 0 .16.04.28.07.42-.53.09-1.04.26-1.49.53-.23.14-.21.47.03.59.74.37 1.6.61 2.44.62.17.24.46.35.75.19.04-.02.09-.04.13-.07-.21.1-.28.39-.09.54.37.3.76.61 1.16.89-.46.11-.9.33-1.3.71-.12.12-.07.34.08.41 1.22.55 2.31 1.06 3.28 1.98.07.07.18.09.27.13a.69.69 0 0 0 .03.47c.3.62.55.95 1.09 1.43.35.31.72.39 1.06.38l.35 5.11c-.03-.06-.07-.12-.1-.18-.75-1.33-1.69-2.56-2.51-3.85-.55-.86-.89-2.57-1.6-3.47-1.39-1.74-3.46-2.11-4.99-3.76-.21-.22-.51.09-.39.32.66 1.22 1.26 2.02 2.32 2.92 1.98 1.69 2.43 5.59 3.39 7.86 1.39 3.29 2.05 8.16 4.63 10.87l.99 12.36c-1.51-2-3.66-3.79-5.28-5.2-4.39-3.83-10.73-5.12-15.18-8.96-.06-.05-.15.03-.1.08 3.24 3.74 6.22 7.19 10.04 10.49 2.33 2 4.32 4.2 6.23 6.55 1.32 1.63 2.28 2.85 4.45 3.25.11.02.23 0 .35 0l1.17 15.17-.45-.54c-.92-1.78-1.71-3.53-2.95-5.21-2.82-3.81-7.08-6.48-10.51-9.73-.19-.18-.45.07-.34.27 3.26 5.61 8.68 9.42 10.78 15.67.4 1.2 1.29 5.09 2.92 6.65v.02c0 .2.1.33.16.49-.93 2.37-1.4 4.79-.61 6.97.22.6.82.98 1.46 1.04l.02 3.76c-.07.13-.1.21-.15.32-.14-.16-.27-.33-.41-.48-3.18-3.45-6.29-8.44-10.44-10.9-.99-1.98-1.85-3.99-2.52-6.03-.09-.26-.49-.13-.42.13 2.7 10.4 5.17 19.6 12.03 28.44.38.48.85.73 1.33.88l-.28 4.42-.89 1.15c-.46-.73-.92-1.41-1.31-2-2.25-3.47-5.57-6.14-8.36-9.23-1.6-3.08-2.88-6.27-3.38-9.7-.05-.34-.52-.31-.55.02-.56 6.8 2.37 13.44 4.62 19.79.86 2.42 1.88 5.47 3.5 7.92-2.56 3.07-5.18 6.07-7.93 8.96-.27-.18-.54-.38-.81-.59-1.19-.92-2.41-2.05-3.54-3.22-1.41-1.46-2.71-2.87-3.56-3.5-.29-.22-.82-.86-1.49-1.67 1.32-1.44 2.06-2.37 1.72-2.27-.93.27-1.9.57-2.87.88a37.22 37.22 0 0 0-1.09-1.22c-.09-.1-.15-.19-.25-.28v.05c-1.05-1.07-2.18-2.09-3.35-2.71 1.22-4.25 2.13-8.31 1.84-7.63-1.11 2.57-2.38 4.88-3.8 7.02a84.12 84.12 0 0 0-2.24-.14c1.44-10.39-1.12-25.54-1.13-25.48-.38 7.87.21 16.03-1.31 23.79-.11.55-.24 1.08-.4 1.6-2.18-.04-4.37 0-6.57.09 1.48-5.29 2.94-9.95 2.03-9.21-2.87 2.34-5.37 5.76-7.31 9.57l-2 .18c1.1-6.32 7.68-19.31 7-18.74-4.28 3.61-8.98 8.83-11.98 14.56.84-16.74 24.08-45.15 23.63-44.87-14.84 9.25-21.78 22.4-25.39 37 .57-8.25 4.55-26.12 4.04-25.26-3.67 6.29-6.63 12.93-9.1 19.75.22-1.35.35-2.69.66-4.04 3.51-15.56 20.53-45.25 19.52-44.09-14.34 16.38-27.76 40.33-29.12 63.14-.16-7.05-1.53-15.32-1.65-17.84-.6-13.2 7.72-38.39 7.34-37.85-9.99 14.55-11.41 31.03-12.15 47.93-.09 1.99-1.59 8.43-1.92 14.51-.1.01-.19.03-.29.04-2.91-33.35 5.83-99.34 5.64-98.43-4.8 22.71-9.24 45-11.92 68.07-.33 2.84-.76 5.81-1.17 8.81-1.89-16.32-11.67-47.06-12.78-50.52 4.6 13.85 3.98 28.67 4.15 43 .07 5.62-.61 11.28-1.32 16.93-.9-7.66-8.74-23.35-8.37-21.72 2.29 9.97 1.37 19.41-.46 29.3-3.05-14.86-22.91-40.42-22.46-39.63 7.14 12.53 10.07 25.18 12.13 38.3l-1.6-2.59c-5.2-8.41-24.44-16.02-24.11-15.72 6.6 6.01 11.9 12.93 16.57 20.34.94 1.49 1.66 3.07 2.34 4.67-1.86-2.28-7.67-7.19-7.19-6.18.58 1.23.9 2.5 1.21 3.76-.47-.74-.98-1.5-1.39-2.2-2.04-3.49-10.71-7.25-10.7-7.22 1.48 3.49 5 6.19 7.32 9.29 2.36 3.17 4.1 6.28 5.71 9.47-1.78.48-3.54.99-5.27 1.55-1.31.42-2.98 1.51-4.86 3.05v-.02c-1.69 1.37-3.56 3.15-5.53 5.17-.66.68-1.37 1.49-2.05 2.23a167.73 167.73 0 0 0-4.31 4.79c-.83.97-1.64 1.98-2.48 3l-4.03 5.02-2.5 3.29-3.71 5.09-2.27 3.26a154.87 154.87 0 0 0-3.14 4.8l-1.84 2.93c-.96 1.61-1.71 3.01-2.42 4.4-.31.6-.69 1.26-.97 1.84-7.93 2.1-15.74 4.61-23.44 7.45-38.85 41.41-79.83 80.98-122.87 118.58l-84.95 75.15c-9.33 8.7-18.06 17.87-26.77 27.09l-15.03 20.56c-11.17 15.04-19.46 31.78-29.54 47.46-12.42 19.32-28.06 41.43-50.63 51.14-3.77 1.62-7.53 3.03-11.29 4.22-.09-.15-.18-.31-.28-.46-.29-1.4-.72-2.76-1.18-4.02-.69-1.91-1.53-3.76-2.43-5.57s-1.88-3.6-2.86-5.38l-1.68-3.02v.06c-1.28-2.23-2.61-4.43-4.3-6.43a19.02 19.02 0 0 0-2.09-2.12c-1.35-1.56-4.86-4.49-5.14-4.49-5.29-4.49-11.66-8.21-17.44-12.2l-6.06-4.15v-.01l-3.16-2.15c-2.74-1.84-5.28-3.97-8.18-5.62 0 0 .01-.02 0-.02l-.78.33v.02c-8.38 3.76-34.83 20.83-34.96 21.07-2.1 4.01-3.71 8.26-5.19 12.53-3.36-.12-6.58-.2-9.46-.43-10.86-.85-22.81-1.42-33.94.09-.13-.15-.22-.21-.35-.36l-.06-.09c-1.04-1.15-1.82-1.84-2.71-2.72-.7-.7-1.54-1.64-2.15-2.17-.1-.08-.16-.11-.26-.19-.51-.43-.86-.52-1.3-.82-.69-.47-1.47-1.12-2-1.27.03.12.13.25.17.37-.3-.08-.78-.53-1.03-.51-13.98 1.32-35.4 4.79-48.75 9.23l-2.45.8c-.24.12-40.39 28.7-58.9 45.06h-.01l-.72.63c-1.22 1.08-3.06 9.61-3.85 12.78-1.12 4.5-2.29 8.94-2.87 13.54-.06.42-.6 2.52-.47 2.83-.01 2.42 5.17 6.14 11.15 9.79l-8.58 3.9c-6.07 15.41-13.05 30.64-21.49 44.99-8.29 14.1-18.12 27.2-28.98 39.52-2.88-.18-5.77-.27-8.67-.2-3.1.07-6.15.38-9.17.89-6.41.21-20.2 2.85-20.68 3.48-20.98 3.83-41.93 11.46-62.5 17.32l-21.5 6.18s-.01-.02-.02-.03l-11.17 3.24c-9.62 2.85-19.64 4.74-29.07 8.3 0 0-.02-.06-.03-.04-.19.71-.37 1.5-.56 2.37 0 0 .03.03.04.05-3.1 14.16-5.86 47.97-7.66 75.63-13.7 4.15-27.71 7.38-41.86 9.62-35.35 5.6-71.17 4.76-106.67 8.57-12.1 1.83-24.01 4.47-35.51 8.46-7.61 3.44-14.85 7.51-21.67 12.26-3.85 2.68-8.42 4.3-13.23 5.14l-16.8-11.18-9.65-6.61v-.02l-5.03-3.42c-4.35-2.93-8.41-6.32-13.02-8.95 0 0 .02-.03.01-.03a32.76 32.76 0 0 0-1.24.53v.03c-13.33 5.98-55.44 33.15-55.63 33.53-5.71 10.9-9.17 22.9-13.11 34.25l-6.15 17.72c-.07.21-.13.5-.2.74-.01.01-.03.02-.04.03-.05.2-.1.44-.15.65a15.14 15.14 0 0 0-.17.78c-.03 0-.06-.01-.09-.02-8.18-1.73-16.39-3.27-24.63-4.69-7.26-.79-14.52-.82-21.82.61-.59.18-1.14.49-1.72.7-.08-.02-.16-.05-.24-.07-6.6 2.33-12.95 5.7-18.84 8.66-7.02 3.53-13.97 6.93-21.09 10.02-2.09 1.21-4.21 2.37-6.41 3.39-5.77 2.7-11.71 5.1-17.62 7.54l-2.79 1.13.12.05c-4.29 1.79-8.59 3.56-12.73 5.61-.9.45-1.81.86-2.71 1.29l-5.29 3.14-3.07 1.83c-2.29.3-4.56.69-6.83 1.05-6.94 2.32-14 4.22-21.14 5.93-1 1.29-1.62 2.8-1.85 4.4-6.56 5.19-10.02 13.47-12.85 21.71-9.17 3.76-18.41 7.33-27.76 10.63-4.67 1.65-9.33 3.14-14.01 4.5 1.64-5.07 3.15-11.58 2.78-10.74-1.89 4.35-4.19 7.98-7.01 11.25 3.27-9.76-.15-29.92-.16-29.86-.38 7.87.21 16.03-1.31 23.79-.58 2.93-1.91 5.51-3.38 8.01l-1.97.49c-.05-2.48-.18-5.21-.41-4.65-.72 1.74-1.54 3.51-2.32 5.29l-.82.19c1.43-7.1 5.3-17.95 3.96-16.85-4.14 3.38-7.54 8.97-9.54 14.8 0-1.63-.07-3.26.19-4.88 1.02-6.26 7.71-19.49 7.03-18.91-4.28 3.61-8.98 8.83-11.98 14.56.84-16.74 24.08-45.15 23.63-44.87-14.84 9.25-21.78 22.4-25.39 37 .57-8.25 4.55-26.12 4.04-25.26-3.67 6.29-6.63 12.93-9.1 19.75.22-1.35.35-2.69.66-4.04 3.51-15.56 20.53-45.25 19.52-44.09-14.34 16.38-27.76 40.33-29.12 63.14-.16-7.05-1.53-15.31-1.65-17.84-.6-13.2 7.72-38.39 7.34-37.85-9.99 14.55-11.41 31.02-12.15 47.93-.1 2.25-2.01 10.2-1.99 16.88-3.55-32.5 5.61-101.69 5.41-100.75-4.8 22.71-9.24 45-11.92 68.07-.33 2.84-.76 5.81-1.17 8.81-1.89-16.32-11.67-47.06-12.78-50.52 4.6 13.85 3.98 28.67 4.15 43 .07 5.62-.61 11.28-1.32 16.94-.9-7.66-8.74-23.35-8.37-21.72 2.29 9.97 1.37 19.41-.46 29.3-.4-1.94-1.09-4.06-1.97-6.27.25-2.62.36-5.22-.03-7.76s0-.02 0-.02c-.12-.73-12.06-18.5-12.83-19.16-1.92-1.6-4.04-3.1-6.14-4.52-1-1.32-1.57-2.03-1.49-1.89l.77 1.39c-2.26-1.53-4.46-2.96-6.29-4.34-5.67-4.28-11.77-9.59-18.19-13.67.06-.06.12-.13.18-.2-1.15-.73-2.31-1.44-3.48-2.06-.11-.16-.24-.31-.35-.47-2.72-3.75-5.86-7.34-8.31-10.69l-20.17-27.67c-5.51-7.55-10.52-16.23-16.97-23.08-2.05-2.18-6.24-4.36-10.64-6.19v-.01c-.34-.14-.68-.25-1.03-.39-1.17-.47-2.32-.91-3.47-1.31l-1.49-.5a83.77 83.77 0 0 0-2.91-.91l-1.3-.37a36.57 36.57 0 0 0-2.3-.55c-.29-.06-.62-.14-.86-.18-.82-.14-1.45-.19-1.69-.1-1.44.59-2.63 1.41-3.72 2.33-.34.29-.65.62-.96.93-.71.71-1.36 1.47-1.94 2.29-.27.38-.54.74-.78 1.13a32.56 32.56 0 0 0-1.65 3.02c-.11.24-.25.46-.36.7-.01.03-.03.06-.05.09-.61 1.34-1.17 2.69-1.71 4.01-.36.88-1.06 1.91-1.87 2.96-.31.4-.67.8-1.01 1.2-.58.68-1.15 1.37-1.75 2.02l-2.06 2.22a48.62 48.62 0 0 0-.92 1.03c-.21.24-.53.57-.68.76.02.02.03.05.04.08-.11.15-.4.45-.42.54-.32 1.53-.39 3.08-.38 4.65-.01.16-.04.34-.04.52-.01.23.02.45.08.66.06 2.41.26 4.84.05 7.24l-.62 7.04c-3.02-.47-6.36-.38-8.98-.59-4.19-.33-8.79-.55-13.08.03-.05-.06-.08-.08-.13-.14 0-.01-.02-.02-.02-.04-.4-.44-.7-.71-1.04-1.05-.27-.27-.59-.63-.83-.84-.04-.03-.06-.04-.1-.07-.2-.17-.33-.2-.5-.32-.26-.18-.57-.43-.77-.49.01.05.05.09.07.14-.12-.03-.3-.21-.4-.2-5.18.49-13 1.74-18.17 3.36-16.17-11.57-32.44-23.5-47.12-36.68-25.96-23.31-43.41-53.17-64.57-80.12-6.78-7.85-14.11-15.22-22.32-21.75l-15.48-10.34c1.75-1.57 4.99-6.82 4.03-7.94-.17-.2-.32-.46-.48-.79-.06-.12-.13-.28-.19-.41a51 51 0 0 0-.68-1.41l-.4-.79c-.02-.03-.03-.06-.05-.09-.14-.26-.35-.57-.52-.85-.19-.31-.33-.59-.56-.94l-.08-.13c-.07-.09-.1-.16-.17-.26 0 0-6.33-.14-9.3 0 0-.01-.02-.03-.02-.04-.14-.26-.35-.57-.52-.85-.19-.31-.33-.59-.56-.94l-.08-.13c-.07-.09-.1-.16-.17-.26l-4.37-.06-.16-.69c-.32-1.31-.72-2.66-1.12-4l-.7-2.29c0 .01-.02.01-.02.02-.55-1.71-1.17-3.45-2.18-5.32a23.31 23.31 0 0 0-1.36-2.18c-.82-1.48-3.3-4.88-3.57-5.05-3.71-5.15-8.68-10.64-13.02-15.89l-4.55-5.49-2.38-2.85c-2.07-2.46-3.86-4.93-6.14-7.41h.01l-.85-.35h-.01c-9.15-3.68-39.61-13.14-39.8-13.12-4.32.46-7.93 1.63-11.47 2.79l-4.21-3.46c-31.14-12.29-60.63-27.33-86.22-48.72-15.63-13.06-28.2-28.35-39.01-44.77 3.24-3.67 5.53-8.84 8.06-12.85 1.16-1.84 3.58-4.24 3.79-6.45 0-.09-.24-.48-.61-1-.12-.17-.3-.4-.45-.6l-1.14-1.48c-.1-.12-.14-.19-.25-.32s0-.01-.01-.02c-.04-.05-.1-.12-.14-.18a23.62 23.62 0 0 0-.51-.62l-.86-1.06-.81-.97-.7-.83-.44-.53-1.66-1.94-.84-.98-2.83-3.2c-.02-.03-.04-.05-.07-.07l-2.49-2.67-.67-.68a35.52 35.52 0 0 0-1.48-1.42c-.18-.17-.37-.34-.53-.47-.52-.43-.94-.73-1.14-.73l-17.83.37 4.92-24.97c-1.47-4.19-2.53-8.49-3.09-12.92l-15.47-12.43c-4.33-3.6-8.61-7.5-12.93-11.48-14.79-9.53-28.72-20.16-42.36-31.1-12.35-1.41-24.63-3.23-36.89-5.23 3.87.12 7.88.37 11.64-.06 1.47-.17 3.51-1.12 5.47-2.26.15-.09.29-.19.44-.27.51-.31 1.01-.61 1.49-.93.22-.14.41-.27.61-.41l1.17-.83c.18-.13.34-.25.51-.38a16.1 16.1 0 0 0 .85-.7c.1-.09.23-.19.31-.27.28-.27.48-.49.5-.6.15-.69.13-1.36.04-2.01-.03-.21-.08-.41-.13-.61a8 8 0 0 0-.42-1.34c-.08-.2-.16-.4-.26-.6a13.45 13.45 0 0 0-.81-1.43c-.07-.11-.12-.22-.19-.32 0-.01-.02-.03-.02-.04-.39-.59-.8-1.16-1.2-1.72-.27-.37-.51-.91-.72-1.5-.08-.22-.15-.46-.23-.7-.13-.4-.26-.8-.36-1.2l-.36-1.37c-.06-.23-.12-.44-.18-.62-.04-.14-.09-.35-.13-.46h-.04c-.04-.08-.08-.27-.11-.3-.55-.53-1.18-.98-1.83-1.41-.06-.05-.13-.11-.2-.16-.09-.07-.19-.12-.3-.15-1.02-.63-2.08-1.22-3.03-1.95l-5.67-4.38-2.62-1.97a19.24 19.24 0 0 1-.54-.41l-3.05-2.25c-.24-.17-.45-.33-.68-.5l-3.09-2.24c-.03-.02-.06-.04-.08-.06l-2.45-1.72c-.08-.05-.21-.15-.28-.2-.56-.37-1-.66-1.13-.71-.07-.05-.14-.09-.22-.14-.2-.12-.2-.27-.45-.34-3.53-1.09-8.08-.86-11.43-1.12-4.19-.33-8.79-.55-13.08.03-.05-.06-.08-.08-.13-.14 0-.01-.02-.02-.02-.04-.4-.44-.7-.71-1.04-1.05-.27-.27-.59-.63-.83-.84-.04-.03-.06-.04-.1-.07-.2-.17-.33-.2-.5-.32-.26-.18-.57-.43-.77-.49.01.05.05.09.07.14-.12-.03-.3-.2-.4-.2-5.39.51-13.64 1.84-18.79 3.56l-.94.31c-.07.03-8.54 6.06-15.83 11.74 1.54-1.78 2.83-2.18 2.72-2.19-2.5-.37-5.12 1.08-7.24 3.22.12-1.98-3.26-6.98-3.24-5.48.07 3.82-1.02 6.72-2.94 9.42 1.25-4.26 1.53-8.96 1.96-13.08.05-.45-6.18 9.89-10.16 14.25 1.21-2.89 2.1-5.97 3.02-8.59 2.63-7.47-.03-15.68-.15-23.25-.01-.84-1.65 13.78-2.72 20.21-.52 3.11-5.29 11.89-5.75 11.89.16-4.75.8-15.64.31-14.59-1.06 2.28-2.96 5.41-4.52 8.71.17-4.01 1.14-13.47.7-12.76-.97 1.57-2.51 4.06-3.99 6.88 1.44-10.58 9.1-30.59 9.06-30.55-6.84 7.23-9.99 13.69-13.02 22.92-.61 1.87-1.23 3.82-1.78 5.8 1.02-6.62.92-13.46-.07-19.8-.25-1.6-3.25 14.3-5.42 20.73.11-4.7-1.34-12.54-1.48-11.93-1.17 5.21-1.92 10.49-2.09 12.05-1.15-6.45-7.62-25.84-7.55-25.27.75 6.3 1.39 12.6 2.51 18.86 1.22 6.86 2 12.63-1.1 18.18.06-.54-.77-8.91-.55-12.78.07-1.21-4.41 12.63-4.75 13.04.19-3.04-1.08-5.09 2.01-10.07 0 0-5.5 5.08-6.32 7.79-.37-1.97-.74-3.91-.82-5.74-.03-.61-.82-.66-1.12-.23-.11.16-.18.4-.28.56l.47-1.95c1.1-5.03 5.52-15.21 5.03-14.51-4.31 6.23-7.56 13.13-8.96 20.48-.09.46-.14 1-.22 1.49-.27-1.75-.5-3.51-.99-5.19-.01-.04-.07-.03-.09-.06 1.01-6.72.19-20.65.08-20.2-1.66 6.42-3.93 12.62-6.06 18.91-.3.87-.64 1.76-.98 2.64-.11-.26-.19-.56-.32-.79-.07-.13-.24-.09-.34-.19 3.39-9.35-1.98-29.6-1.87-29 1.95 10.79-.35 19.86-4.83 28.57-.16-2.8-.43-5.51-.73-7.83-.07-.57-4.87 10.1-6.01 15.63-.02 0-.05-.02-.07-.03-.4-3.21.22-10.09-.07-9.13-.56 1.86-1.46 3.76-2.22 5.67-.31-2.92-.19-5.85 1.21-8.83.04-.09-.06-.19-.16-.13-1.61 1.1-2.82 2.45-3.87 3.88l.13-.44c1.72-5.89 8.6-17.07 8.19-16.61-4.34 4.82-7.72 10.08-10.45 15.86-.33.7-.68 1.52-1.03 2.3.42-1.84 1.34-6.54.91-6.1-1.18 1.2-2.14 2.49-3.02 3.82.92-4.83 3.22-15.46 2.8-14.75-2.15 3.64-4.69 8.51-6.41 13.56.16-1.97-.29-6.37-.51-6.13-.31.34-.6.8-.91 1.21.69-2.82 1.48-5.68 2.5-8.74 2.12-6.42.87-19.71.88-19.48.19 12.76-7.31 24.1-8.48 36.49l-.65-.24-1.32-.48c0-2.58.3-5.04.67-6.82.03-.15-.17-.25-.28-.13-.88.99-1.7 2.4-2.44 3.96 3.41-11.68-.17-35.38-.09-34.82 1.87 12.52.34 24.24-3.21 35.86l-2.44-.89c-.34-1.62-.74-3.25-1.15-4.87-.02-.06-.11-.04-.11.02a20.46 20.46 0 0 1-.06 4.37l-4.3-1.58c1.06-7.12 2.99-13.56 2.94-13.45-2.13 4.15-3.6 8.43-4.7 12.8l-8.51-3.14-.32-6.37c-.24 2.01-.41 4.02-.57 6.04l-3.43-1.28c-2.83-13.14-6.37-35.9-6.37-35.65.12 10.17 1 20.11 2.34 30.2.18 1.38.32 2.75.43 4.11l-4.17-1.56c-3.81-7.59-9.17-16.05-9.05-15.76l6.61 14.84-24.91-9.67c5.39-11.11 12.4-27.76 12.37-27.96-1.07-7.57-3.72-14.98-5.88-22.19l-3.38-11.28c-.04-.14-.12-.3-.17-.45v-.03c-.04-.12-.11-.26-.17-.39l-.25-.58-.34-.7-.31-.61c-.13-.25-.27-.5-.42-.75l-.35-.62-.44-.73-.35-.58a31.48 31.48 0 0 0-.46-.72c-.1-.15-.2-.31-.29-.45l-.43-.63c-.07-.11-.16-.23-.22-.33l-.34-.48c-.04-.05-.09-.12-.12-.16-.12-.15-.19-.24-.21-.23-1.16-1.89-2.44-3.7-3.74-5.51-1.56-2.18-3.13-4.35-4.53-6.61 0-.02-.06-.04-.08-.05h.01s-.05-.02-.06-.03c-.22-.21-.79-.45-1.63-.71-.03-.01-.07-.02-.1-.03-.86-.26-1.93-.54-3.1-.78-.04 0-.09-.02-.13-.03-1.18-.24-2.42-.45-3.57-.58h-.08c-1.17-.13-2.26-.19-3.08-.13-4.87.36-20.3-2.01-22.96-.77l-8.71 4.23-6.21 2.33c-2.67.98-5.33 2-7.97 3.07-1.1.45-2.19.97-3.28 1.44-1.49.65-3 1.26-4.47 1.96h.01c-.12.06-.24.1-.36.16-1.14.55-10.44 11.85-10.6 14.85l-.62 10.46c-.05.23-3.83 6.09-3.84 6.15-.34.23-2.26 2.48-4.08 4.76-21.56-4.69-42.9-10.15-63.38-18.25-11.04-4.37-22.01-8.73-32.38-14.4-3.73-2.04-7.34-4.24-10.87-6.54l-.16-6.49-.33-8.78-.07-1.82-.47-10.16-.12-2.27-.56-10.2c0-.09-.01-.18-.02-.27l-.57-7.99-.06-.91c-.17-1.78-.32-3.19-.45-3.55-.02-.23-.06-.45-.09-.68-.11-.61.25-.88-.07-1.51-3.94-9.02-12.68-17.67-18.14-24.83-6.83-8.94-14.66-18.52-23.7-26.02.04-.21.03-.31.06-.52.02-.03.02-.08.04-.11.27-1.6.32-2.67.47-3.97.12-1.03.34-2.33.37-3.17 0-.13-.02-.21-.01-.33.02-.69-.15-1.02-.2-1.57-.08-.85-.05-1.91-.3-2.42-.08.11-.12.27-.2.39-.14-.29-.08-.97-.28-1.15-10.87-9.83-28.78-23.88-41.91-31.05l-2.4-1.33c-.19-.07-26.82-5.63-51.91-9.86l-1.03-1c-.44-6.58-1.53-15.42-.34-17.2 4.13-6.14 10.2-12.5 12.23-19.33.38-1.28-7.5-16.7-11.31-23.03l-1.02-1.71c-.74-3.56-1.84-7.01-3-10.2-1.76-4.84-3.88-9.54-6.18-14.15s-4.78-9.15-7.26-13.67l-4.27-7.66c0 .06-.01.09 0 .15-3.24-5.67-6.64-11.26-10.91-16.32-1.63-1.93-3.41-3.73-5.32-5.39-3.42-3.97-12.34-11.41-13.05-11.4-13.44-11.41-29.6-20.86-44.29-30.97l-15.39-10.54v-.03l-8.02-5.46c-6.95-4.67-13.42-10.09-20.77-14.28 0 0 .03-.04.02-.04-.61.24-1.27.53-1.98.85 0 0 0 .03-.02.05-21.28 9.54-88.45 52.89-88.76 53.49-1.53 2.92-2.95 5.9-4.3 8.91-35.7-18.36-71.96-35.73-109.31-50.9l-5.93-2.27V2399.9h3600V1111.4zm-306.36 150.25v-.01c.02-.01.03-.04.04-.05-.01.02-.02.04-.04.06zm13.88 63.78c-.61.89-1.24 1.77-1.81 2.69a22.13 22.13 0 0 0-4.26 6.38l-.42-12.52c.26.03.53 0 .75-.18 2.97-2.4 3.86-6.37 5.57-9.61.11-.21.25-.4.36-.6l-.19 13.84zm7.12-35.43c.22.04.44.07.66.05.12.12.25.22.38.31-.77 3.27-1.47 6.55-2.04 9.86-1.48 1.21-2.84 2.63-4.05 4.18.04-1.27.06-2.55.06-3.83.46-.16.88-.42 1.06-.91 1.06-2.86.47-1.94.83-5.65.15-1.5.56-2.96 1.03-4.4.61.72 1.4.73 2.06.39zm-5.05-9.42.13.03c.81.18 1.48-.45 1.51-1.14.19.26.46.49.91.63.09.03.17-.01.26-.02-.2.32-.3.63-.37.94-.54.07-1.06.45-1.16.96-.2 1.04.42 1.85 1.28 2.48-.69.22-1.03.95-.91 1.59-.13.35-.09.74.25 1.12.08.09.17.17.26.26l-1.97 4.09v-.52c0-.02.03-.02.03-.04.46-1.57.29-3.12-.18-4.66l-.2-1.66.15-4.08zm-.46 29.94c.07-.52.12-1.05.18-1.57 1.3-2.01 2.69-4 3.87-6.05l-.91 5.96c-1.27 1.54-2.4 3.15-3.08 4.96l-.06-3.3z"></path></g></svg> 