<?xml version="1.0" encoding="UTF-8"?> <svg xmlns="http://www.w3.org/2000/svg" viewBox="0 0 1344 326"><path fill="#f7971e" fill-rule="evenodd" d="M1306.568 101.33h-80.165V.19h76.556c27.976 0 40.427 10.515 40.427 39.241v21.171c0 27.646-8.835 40.728-36.818 40.728zm9.237-63.279c0-13.084-4.15-15.779-13.519-15.779h-49.108V79.28h49.24c9.911 0 13.387-6.607 13.387-17.262V38.051zM1084.006.19h116.529v22.082h-89.754v17.427h75.766v22.12h-75.766V79.28h89.754v22.05h-116.529V.19zm-64.384 101.14h-80.165V.19h76.557c27.976 0 40.426 10.515 40.426 39.241v21.171c0 27.646-8.834 40.728-36.818 40.728zm9.238-63.279c0-13.084-4.15-15.779-13.52-15.779h-49.107V79.28h49.239c9.91 0 13.388-6.607 13.388-17.262V38.051zm83.312 151.974H958.913v29.761h129.368v37.767H958.913v29.821h153.259v37.648H913.195v-172.71h198.977v37.713zM820.132 23.65v77.68h-27.09V.19h43.603l45.836 77.675V.19h27.09v101.14h-44.006l-45.433-77.68zm-94.783 77.632h-37.147c-27.441 0-40.426-8.901-40.426-37.088V.138h29.256v65.675c0 9.976 6.559 13.483 17.136 13.483h25.223c12.986 0 15.665-4.177 15.665-13.621V.138h29.249v60.416c0 28.184-10.446 40.728-38.956 40.728zm-188.89-61.583h75.758v22.12h-75.758v39.511h-26.777V.19h116.53v22.082h-89.753v17.427zm117.348 286.263h-46.626l-12.026-40.071h-92.214l-12.026 40.071h-46.633l52.123-172.706h105.286l52.116 172.706zm-87.148-135.001h-35.222l-16.272 54.871h67.766l-16.272-54.871zm-167.898 91.236 25.12 42.855H372l-21.762-37.648h-79.615v37.589h-45.72V152.287h140.465c34.183 0 51.231 10.276 56.596 37.766 1.31 6.696 1.925 20.279 1.925 28.598s-.454 21.123-1.574 28.416c-2.737 17.827-9.501 29.157-23.554 35.13zm-21.959-76.51c0-8.636-6.947-15.638-15.518-15.638h-90.661v57.282h90.661c8.571 0 15.518-7.001 15.518-15.636v-26.008zM289.339.19h116.529v22.082h-89.754v17.427h75.766v22.12h-75.766V79.28h89.754v22.05H289.339V.19zm-56.8 61.663h-62.987v39.509h-26.768V.223l26.768-.067v39.581h62.987V.223l26.767-.067v101.206h-26.767V61.853zM75.912 101.279H49.136V22.257H4.26V.141h116.529v22.116H75.912v79.022zM199.6 189.998h-76.623v134.937H77.251V189.998H.622v-37.767H199.6v37.767zm678.767 29.327v36.151c0 47.207-15.086 69.543-62.861 69.543H678.621V152.312h130.714c47.769 0 69.032 17.963 69.032 67.013zm-154.035-29.3v97.349h84.081c16.916 0 22.86-11.283 22.86-29.479v-40.929c0-22.337-7.086-26.941-23.087-26.941h-83.854zm617.063.028c1.31 6.696 1.925 20.279 1.925 28.598s-.446 21.123-1.566 28.416c-2.745 17.827-9.509 29.157-23.555 35.13l25.121 42.855h-51.889l-21.754-37.648h-79.623v37.589h-45.712V152.287h140.464c34.184 0 51.223 10.276 56.589 37.766zm-60.68-.004h-90.655v57.282h90.655c8.571 0 15.525-7.001 15.525-15.636v-26.008c0-8.636-6.954-15.638-15.525-15.638z"></path></svg> 