<svg width="40" height="442" viewBox="0 0 40 442" fill="none" xmlns="http://www.w3.org/2000/svg">
<path fill-rule="evenodd" clip-rule="evenodd" d="M19.9229 436.96V4.7417L15.3008 0.110779V441.591L19.9229 436.96Z" fill="url(#paint0_linear_1516_186451)"/>
<path fill-rule="evenodd" clip-rule="evenodd" d="M19.9219 4.73932V436.958L24.0818 433.356V8.8557L19.9219 4.73932Z" fill="url(#paint1_linear_1516_186451)"/>
<path fill-rule="evenodd" clip-rule="evenodd" d="M3.74458 220.845L19.922 202.836V198.719L0.046875 220.845H3.74458Z" fill="url(#paint2_linear_1516_186451)"/>
<path fill-rule="evenodd" clip-rule="evenodd" d="M19.9235 202.834L3.74609 220.844H7.4438L19.9235 206.951V202.834Z" fill="url(#paint3_linear_1516_186451)"/>
<path fill-rule="evenodd" clip-rule="evenodd" d="M36.0993 220.845L19.9219 202.836V198.719L39.797 220.845H36.0993Z" fill="url(#paint4_linear_1516_186451)"/>
<path fill-rule="evenodd" clip-rule="evenodd" d="M19.9219 202.834L36.0993 220.844H32.4016L19.9219 206.951V202.834Z" fill="url(#paint5_linear_1516_186451)"/>
<path fill-rule="evenodd" clip-rule="evenodd" d="M3.74458 220.845L19.922 238.855V242.971L0.046875 220.845H3.74458Z" fill="url(#paint6_linear_1516_186451)"/>
<path fill-rule="evenodd" clip-rule="evenodd" d="M19.9235 238.855L3.74609 220.845H7.4438L19.9235 234.738V238.855Z" fill="url(#paint7_linear_1516_186451)"/>
<path fill-rule="evenodd" clip-rule="evenodd" d="M36.0993 220.845L19.9219 238.855V242.971L39.797 220.845H36.0993Z" fill="url(#paint8_linear_1516_186451)"/>
<path fill-rule="evenodd" clip-rule="evenodd" d="M19.9219 238.855L36.0993 220.845H32.4016L19.9219 234.738V238.855Z" fill="url(#paint9_linear_1516_186451)"/>
<path fill-rule="evenodd" clip-rule="evenodd" d="M7.44141 220.843L19.9211 206.95L32.4008 220.843L19.9211 234.736L7.44141 220.843Z" fill="#990099"/>
<path fill-rule="evenodd" clip-rule="evenodd" d="M11.6016 220.843L19.9214 212.096L27.779 220.843L19.9214 230.105L11.6016 220.843Z" fill="url(#paint10_linear_1516_186451)"/>
<path fill-rule="evenodd" clip-rule="evenodd" d="M11.6013 220.843L19.9211 212.096V206.95L7.44141 220.843H11.6013Z" fill="url(#paint11_linear_1516_186451)"/>
<path fill-rule="evenodd" clip-rule="evenodd" d="M27.7795 220.843L19.9219 212.096V206.95L32.4016 220.843H27.7795Z" fill="url(#paint12_linear_1516_186451)"/>
<path fill-rule="evenodd" clip-rule="evenodd" d="M11.6013 220.845L19.9211 229.593V234.738L7.44141 220.845H11.6013Z" fill="url(#paint13_linear_1516_186451)"/>
<path fill-rule="evenodd" clip-rule="evenodd" d="M27.7795 220.845L19.9219 229.593V234.738L32.4016 220.845H27.7795Z" fill="url(#paint14_linear_1516_186451)"/>
<defs>
<linearGradient id="paint0_linear_1516_186451" x1="15.3059" y1="220.915" x2="19.7847" y2="220.915" gradientUnits="userSpaceOnUse">
<stop stop-color="#F5AD24"/>
<stop offset="1" stop-color="#FFE56B"/>
</linearGradient>
<linearGradient id="paint1_linear_1516_186451" x1="19.7837" y1="220.912" x2="24.2629" y2="220.912" gradientUnits="userSpaceOnUse">
<stop stop-color="#AB671C"/>
<stop offset="1" stop-color="#784C00"/>
</linearGradient>
<linearGradient id="paint2_linear_1516_186451" x1="-0.158347" y1="209.809" x2="19.7833" y2="209.809" gradientUnits="userSpaceOnUse">
<stop stop-color="#FFF18F"/>
<stop offset="1" stop-color="#FFFAE3"/>
</linearGradient>
<linearGradient id="paint3_linear_1516_186451" x1="3.57184" y1="211.882" x2="19.7848" y2="211.882" gradientUnits="userSpaceOnUse">
<stop stop-color="#AB5F0B"/>
<stop offset="1" stop-color="#753C00"/>
</linearGradient>
<linearGradient id="paint4_linear_1516_186451" x1="19.7832" y1="209.809" x2="39.7253" y2="209.809" gradientUnits="userSpaceOnUse">
<stop stop-color="#EDA85F"/>
<stop offset="1" stop-color="#A36700"/>
</linearGradient>
<linearGradient id="paint5_linear_1516_186451" x1="19.7832" y1="211.882" x2="35.9967" y2="211.882" gradientUnits="userSpaceOnUse">
<stop stop-color="#A15900"/>
<stop offset="1" stop-color="#E39644"/>
</linearGradient>
<linearGradient id="paint6_linear_1516_186451" x1="-0.157423" y1="232.009" x2="19.7847" y2="232.009" gradientUnits="userSpaceOnUse">
<stop stop-color="#EDA85F"/>
<stop offset="1" stop-color="#A36700"/>
</linearGradient>
<linearGradient id="paint7_linear_1516_186451" x1="3.57276" y1="229.935" x2="19.7862" y2="229.935" gradientUnits="userSpaceOnUse">
<stop stop-color="#6E4500"/>
<stop offset="1" stop-color="#CF9353"/>
</linearGradient>
<linearGradient id="paint8_linear_1516_186451" x1="19.7846" y1="232.009" x2="39.7258" y2="232.009" gradientUnits="userSpaceOnUse">
<stop stop-color="#AB5F0B"/>
<stop offset="1" stop-color="#753C00"/>
</linearGradient>
<linearGradient id="paint9_linear_1516_186451" x1="19.7846" y1="229.935" x2="35.9971" y2="229.935" gradientUnits="userSpaceOnUse">
<stop stop-color="#FFBE45"/>
<stop offset="1" stop-color="#FFF0AB"/>
</linearGradient>
<linearGradient id="paint10_linear_1516_186451" x1="19.7836" y1="229.862" x2="19.7836" y2="211.953" gradientUnits="userSpaceOnUse">
<stop stop-color="#F72F2F"/>
<stop offset="1" stop-color="#FF8A8A"/>
</linearGradient>
<linearGradient id="paint11_linear_1516_186451" x1="15.7612" y1="216.429" x2="13.302" y2="214.22" gradientUnits="userSpaceOnUse">
<stop stop-color="#FF8C8C"/>
<stop offset="1" stop-color="#FF5252"/>
</linearGradient>
<linearGradient id="paint12_linear_1516_186451" x1="19.7837" y1="213.956" x2="32.2712" y2="213.956" gradientUnits="userSpaceOnUse">
<stop stop-color="#FF5E5E"/>
<stop offset="1" stop-color="#B80000"/>
</linearGradient>
<linearGradient id="paint13_linear_1516_186451" x1="7.29627" y1="227.839" x2="19.7829" y2="227.839" gradientUnits="userSpaceOnUse">
<stop stop-color="#FF5E5E"/>
<stop offset="1" stop-color="#B80000"/>
</linearGradient>
<linearGradient id="paint14_linear_1516_186451" x1="26.0277" y1="227.839" x2="23.5685" y2="225.63" gradientUnits="userSpaceOnUse">
<stop stop-color="#FF6666"/>
<stop offset="1" stop-color="#DE0000"/>
</linearGradient>
</defs>
</svg>
