<svg width="41" height="442" viewBox="0 0 41 442" fill="none" xmlns="http://www.w3.org/2000/svg">
<path fill-rule="evenodd" clip-rule="evenodd" d="M20.8087 198.719L40.6838 220.845L20.8087 242.97L0.933594 220.845L20.8087 198.719ZM20.8087 206.952L8.32901 220.845L20.8087 234.738L33.2884 220.845L20.8087 206.952Z" fill="#999999"/>
<path fill-rule="evenodd" clip-rule="evenodd" d="M8.32812 220.843L20.8078 206.95L33.2875 220.843L20.8078 234.736L8.32812 220.843Z" fill="#990099"/>
<path fill-rule="evenodd" clip-rule="evenodd" d="M16.6484 8.8557V433.356L20.8083 436.958V4.73932L16.6484 8.8557Z" fill="url(#paint0_linear_1516_186454)"/>
<path fill-rule="evenodd" clip-rule="evenodd" d="M20.8086 4.7417V436.96L25.4307 441.591V0.110779L20.8086 4.7417Z" fill="url(#paint1_linear_1516_186454)"/>
<path fill-rule="evenodd" clip-rule="evenodd" d="M4.6313 220.845L20.8087 202.836V198.719L0.933594 220.845H4.6313Z" fill="url(#paint2_linear_1516_186454)"/>
<path fill-rule="evenodd" clip-rule="evenodd" d="M20.8063 202.834L4.62891 220.844H8.32661L20.8063 206.951V202.834Z" fill="url(#paint3_linear_1516_186454)"/>
<path fill-rule="evenodd" clip-rule="evenodd" d="M36.986 220.845L20.8086 202.836V198.719L40.6837 220.845H36.986Z" fill="url(#paint4_linear_1516_186454)"/>
<path fill-rule="evenodd" clip-rule="evenodd" d="M20.8086 202.834L36.986 220.844H33.2883L20.8086 206.951V202.834Z" fill="url(#paint5_linear_1516_186454)"/>
<path fill-rule="evenodd" clip-rule="evenodd" d="M4.6313 220.845L20.8087 238.855V242.971L0.933594 220.845H4.6313Z" fill="url(#paint6_linear_1516_186454)"/>
<path fill-rule="evenodd" clip-rule="evenodd" d="M20.8063 238.855L4.62891 220.845H8.32661L20.8063 234.738V238.855Z" fill="url(#paint7_linear_1516_186454)"/>
<path fill-rule="evenodd" clip-rule="evenodd" d="M36.986 220.845L20.8086 238.855V242.971L40.6837 220.845H36.986Z" fill="url(#paint8_linear_1516_186454)"/>
<path fill-rule="evenodd" clip-rule="evenodd" d="M20.8086 238.855L36.986 220.845H33.2883L20.8086 234.738V238.855Z" fill="url(#paint9_linear_1516_186454)"/>
<path fill-rule="evenodd" clip-rule="evenodd" d="M12.9492 220.843L20.8068 212.096L29.1266 220.843L20.8068 230.105L12.9492 220.843Z" fill="url(#paint10_linear_1516_186454)"/>
<path fill-rule="evenodd" clip-rule="evenodd" d="M12.9502 220.843L20.8078 212.096V206.95L8.32812 220.843H12.9502Z" fill="url(#paint11_linear_1516_186454)"/>
<path fill-rule="evenodd" clip-rule="evenodd" d="M29.1284 220.843L20.8086 212.096V206.95L33.2883 220.843H29.1284Z" fill="url(#paint12_linear_1516_186454)"/>
<path fill-rule="evenodd" clip-rule="evenodd" d="M12.9502 220.845L20.8078 229.593V234.738L8.32812 220.845H12.9502Z" fill="url(#paint13_linear_1516_186454)"/>
<path fill-rule="evenodd" clip-rule="evenodd" d="M29.1284 220.845L20.8086 229.593V234.738L33.2883 220.845H29.1284Z" fill="url(#paint14_linear_1516_186454)"/>
<defs>
<linearGradient id="paint0_linear_1516_186454" x1="16.4673" y1="220.912" x2="20.9465" y2="220.912" gradientUnits="userSpaceOnUse">
<stop stop-color="#D18900"/>
<stop offset="1" stop-color="#F5B41E"/>
</linearGradient>
<linearGradient id="paint1_linear_1516_186454" x1="20.9468" y1="220.915" x2="25.4256" y2="220.915" gradientUnits="userSpaceOnUse">
<stop stop-color="#AB671C"/>
<stop offset="1" stop-color="#784C00"/>
</linearGradient>
<linearGradient id="paint2_linear_1516_186454" x1="1.00477" y1="209.809" x2="20.9464" y2="209.809" gradientUnits="userSpaceOnUse">
<stop stop-color="#FFF18F"/>
<stop offset="1" stop-color="#FFFAE3"/>
</linearGradient>
<linearGradient id="paint3_linear_1516_186454" x1="4.73106" y1="211.882" x2="20.9441" y2="211.882" gradientUnits="userSpaceOnUse">
<stop stop-color="#AB5F0B"/>
<stop offset="1" stop-color="#753C00"/>
</linearGradient>
<linearGradient id="paint4_linear_1516_186454" x1="20.9463" y1="209.809" x2="40.8885" y2="209.809" gradientUnits="userSpaceOnUse">
<stop stop-color="#EDA85F"/>
<stop offset="1" stop-color="#A36700"/>
</linearGradient>
<linearGradient id="paint5_linear_1516_186454" x1="20.9463" y1="211.882" x2="37.1598" y2="211.882" gradientUnits="userSpaceOnUse">
<stop stop-color="#A15900"/>
<stop offset="1" stop-color="#E39644"/>
</linearGradient>
<linearGradient id="paint6_linear_1516_186454" x1="1.0057" y1="232.009" x2="20.9478" y2="232.009" gradientUnits="userSpaceOnUse">
<stop stop-color="#EDA85F"/>
<stop offset="1" stop-color="#A36700"/>
</linearGradient>
<linearGradient id="paint7_linear_1516_186454" x1="4.73198" y1="229.935" x2="20.9454" y2="229.935" gradientUnits="userSpaceOnUse">
<stop stop-color="#6E4500"/>
<stop offset="1" stop-color="#CF9353"/>
</linearGradient>
<linearGradient id="paint8_linear_1516_186454" x1="20.9477" y1="232.009" x2="40.8889" y2="232.009" gradientUnits="userSpaceOnUse">
<stop stop-color="#AB5F0B"/>
<stop offset="1" stop-color="#753C00"/>
</linearGradient>
<linearGradient id="paint9_linear_1516_186454" x1="20.9477" y1="229.935" x2="37.1603" y2="229.935" gradientUnits="userSpaceOnUse">
<stop stop-color="#FFBE45"/>
<stop offset="1" stop-color="#FFF0AB"/>
</linearGradient>
<linearGradient id="paint10_linear_1516_186454" x1="20.945" y1="229.862" x2="20.945" y2="211.953" gradientUnits="userSpaceOnUse">
<stop stop-color="#F72F2F"/>
<stop offset="1" stop-color="#FF8A8A"/>
</linearGradient>
<linearGradient id="paint11_linear_1516_186454" x1="16.9243" y1="216.429" x2="14.4651" y2="214.22" gradientUnits="userSpaceOnUse">
<stop stop-color="#FF8C8C"/>
<stop offset="1" stop-color="#FF5252"/>
</linearGradient>
<linearGradient id="paint12_linear_1516_186454" x1="20.9468" y1="213.956" x2="33.4339" y2="213.956" gradientUnits="userSpaceOnUse">
<stop stop-color="#FF5E5E"/>
<stop offset="1" stop-color="#B80000"/>
</linearGradient>
<linearGradient id="paint13_linear_1516_186454" x1="8.45939" y1="227.839" x2="20.946" y2="227.839" gradientUnits="userSpaceOnUse">
<stop stop-color="#FF5E5E"/>
<stop offset="1" stop-color="#B80000"/>
</linearGradient>
<linearGradient id="paint14_linear_1516_186454" x1="27.1903" y1="227.839" x2="24.7315" y2="225.63" gradientUnits="userSpaceOnUse">
<stop stop-color="#FF6666"/>
<stop offset="1" stop-color="#DE0000"/>
</linearGradient>
</defs>
</svg>
