<svg xmlns="http://www.w3.org/2000/svg" xmlns:xlink="http://www.w3.org/1999/xlink" viewBox="0 0 147.009 174">
  <style>
    .B{fill:#7f3b16}.C{opacity:.5}.D{opacity:.57}.E{opacity:.49}.F{fill:#ffde8f}.G{fill:#38320a}.H{fill:#492410}.I{fill:#380d0a}.J{fill:#300f0a}.K{fill:#492710}
  </style>
  <defs>
    <linearGradient id="A" x1=".5" x2=".5" y1="1.027" y2="-.065">
      <stop offset="0" stop-color="#e38044"/>
      <stop offset=".26" stop-color="#99450f"/>
      <stop offset="1" stop-color="#fc991a"/>
    </linearGradient>
    <linearGradient id="B" x2="1" y1=".5" y2=".5">
      <stop offset=".16" stop-color="#99450f"/>
      <stop offset="1" stop-color="#fc991a"/>
    </linearGradient>
    <linearGradient xlink:href="#B" id="C" x1="0"/>
    <linearGradient id="D" x1=".522" x2="1.776" y1=".259" y2="2.841">
      <stop offset=".06" stop-color="#f0c252"/>
      <stop offset="1" stop-color="#eb9978"/>
    </linearGradient>
    <linearGradient xlink:href="#D" id="E" x1=".419" x2="1.834" y1=".046" y2="2.236"/>
    <linearGradient xlink:href="#D" id="F" x1=".592" x2="2.636" y1=".421" y2="1.954"/>
    <linearGradient id="G" x1=".515" x2=".487" y1="1.114" y2="-.074">
      <stop offset="0" stop-color="#99450f"/>
      <stop offset="1" stop-color="#fc991a"/>
    </linearGradient>
    <linearGradient id="H" x1=".523" x2=".491" y1="-.06" y2="1.039">
      <stop offset=".06" stop-color="#fab529"/>
      <stop offset="1" stop-color="#ff9400"/>
    </linearGradient>
    <linearGradient id="I" x1=".508" x2=".496" y1=".074" y2=".987">
      <stop offset=".06" stop-color="#fac954"/>
      <stop offset="1" stop-color="#ff9400"/>
    </linearGradient>
    <linearGradient xlink:href="#I" id="J" x1=".5" x2=".5" y1="-.068" y2="1.003"/>
    <linearGradient xlink:href="#I" id="K" x1=".498" x2=".504" y1=".043" y2="1.445"/>
    <linearGradient xlink:href="#H" id="L" x1=".508" x2=".497" y1="-.011" y2="1.013"/>
    <linearGradient xlink:href="#H" id="M" x1=".507" y1="-.083" y2="1.017"/>
    <linearGradient xlink:href="#H" id="N" x1=".5" x2=".5" y1="-.098" y2="1.224"/>
    <linearGradient xlink:href="#B" id="O" x1="-68.752" x2="-67.752"/>
    <linearGradient xlink:href="#B" id="P" x1="-64.494" x2="-63.494"/>
    <linearGradient xlink:href="#B" id="Q" x1="-76.857" x2="-75.857"/>
    <linearGradient xlink:href="#D" id="R" x1="-137.51" x2="-136.257"/>
    <linearGradient xlink:href="#D" id="S" x1="-192.063" x2="-190.647" y1=".046" y2="2.236"/>
    <linearGradient xlink:href="#D" id="T" x1="-230.036" x2="-227.993" y1=".421" y2="1.954"/>
    <linearGradient xlink:href="#G" id="U" x2=".486" y1="1.077" y2="-.111"/>
    <linearGradient xlink:href="#H" id="V" x1="-80.501" x2="-80.473" y1=".234" y2="1.766"/>
    <linearGradient xlink:href="#I" id="W" x1="-243.418" x2="-243.22" y1="-1.796" y2="11.691"/>
    <linearGradient xlink:href="#I" id="X" x1="-223.232" x2="-223.049" y1=".008" y2="8.413"/>
    <linearGradient xlink:href="#I" id="Y" x1="-93.743" x2="-93.666" y1=".874" y2="8.946"/>
    <linearGradient xlink:href="#H" id="Z" x1="-112.755" x2="-113.082" y1=".681" y2="1.948"/>
    <linearGradient xlink:href="#H" id="a" x1="-311.369" x2="-310.661" y1=".247" y2="3.072"/>
    <linearGradient xlink:href="#H" id="b" x1="-339.106" x2="-338.78" y1=".234" y2="3.163"/>
    <clipPath id="c">
      <path fill="#fff" d="M520.009-715h-147l3.368 28.823s-5.007 3.336-1.951 3.9 4.228.388 11.443.508c10.6.176 25.82 0 36.65 0 10.272 5.2 13.7 11.921 12.555 45.654-.2 6.038-2.381 23.32-2.381 23.32s-14.359-7.593-35.918 14.095c-9.421 9.477-15.091 21.052-20.8 32.211-3.295 11.665-2.966 25.489-2.966 25.489h147Z"/>
    </clipPath>
  </defs>
  <g clip-path="url(#c)" transform="translate(-373 715)">
    <path fill="url(#A)" d="M418.52-683.15H-52.39a35.18 35.18 0 0 0-35.18 35.18v55.39c.003 19.428 15.752 35.177 35.18 35.18h470.9c19.43-.002 35.182-15.75 35.19-35.18v-55.39c-.004-19.431-15.759-35.181-35.19-35.18zM-41.1-573.57c-21.15 0-30.31-8.74-30.31-26.13v-41.15c0-18.46 10.08-26.13 30.31-26.13h448.24c20.7 0 30.31 8.09 30.31 26.13v41.15c0 17.81-9.77 26.13-30.31 26.13z"/>
    <path fill="#ac4600" d="M407.14-671.35H-41.1c-20.23 0-30.31 7.67-30.31 26.13v4.37c0-18.46 10.08-26.13 30.31-26.13h448.24c20.7 0 30.31 8.09 30.31 26.13v-4.37c0-18.04-9.61-26.13-30.31-26.13zm11.38 109.58H-52.39a35.186 35.186 0 0 1-35.18-35.18v4.37a35.186 35.186 0 0 0 35.18 35.18h470.9a35.194 35.194 0 0 0 35.19-35.18v-4.37a35.194 35.194 0 0 1-35.19 35.18z" opacity=".44"/>
    <path fill="#fff" d="M60.57-680.34c-8.74 0-8.43 5.62 0 5.62l345.57-.31c10.92 0 37.15 2.19 37.15 23.88v45.11c0 8.43 6.24 7.49 6.24 0v-45.89c0-9.05-9.37-28.56-32-28.56l-356.97.16zm-108.01-.31H7.5c8.43 0 8.74 6.56 0 6.56h-53.38c-17.17 0-29.97 8.43-29.97 30.9v45.58c0 4.99 2.5 26.59 29.03 26.59h313.73c7.8 0 7.8 6.22.94 6.22H-48.07c-14.36 0-34.65-5.33-34.65-31.24v-56.81c0-10.3 10.61-27.78 35.28-27.78zm364.61 109.88c-12.17 0-13.11 5.62.31 5.62h100.83c17.17 0 24.97-9.05 28.1-17.79s-5.2-7.33-5.93-2.19c-.62 4.37-8.12 14.67-21.54 14.67s-101.33-.31-101.77-.31z" opacity=".3"/>
    <path d="M-149.65-565.97s8.66 1.98 15.17 4.03 13.87 5.82 17.98 6.34 14-1.43 16.57-2.97a3.231 3.231 0 0 0 1.45-4.07s-22.3-1.54-25.04-2.21c-2.74-.7-17.83-2.75-26.13-1.12Z" class="B"/>
    <path fill="url(#B)" d="M-92.61-569.13s-22.19-6.34-35.39-4.23c-7.606 1.132-14.942 3.639-21.65 7.4 0 0 21.12 2.64 30.1 7.4s24.3-3.17 25.88-3.17 9.35-5.38 1.06-7.4z"/>
    <path d="M-91.83-563.31a55.1 55.1 0 0 0-1.3-5.97c-3.41-.93-22.85-6.01-34.87-4.08-1.22.2-2.37.42-3.5.66 2.91 1.63 8.49 4.94 5.91 4.94-3.42 0 2.74 2.4 2.06 4.29-.28.79-2.32 1.35-4.77 1.68a45.029 45.029 0 0 1 8.73 3.23c8.98 4.75 24.3-3.17 25.88-3.17a4.589 4.589 0 0 0 1.88-.8 5.1 5.1 0 0 0-.04-.77Z" class="H" opacity=".38"/>
    <path d="m-155.5-604.55.16.2c1.02 1.22 6.7 8 12.42 13.59 6.31 6.15 12.71 16.77 17.86 19.89s17.95 8.11 24.97 5.15-5.3-6.71-11.7-9.67-18.57-13.42-21.69-15.77-22.01-13.39-22.01-13.39z" class="B"/>
    <path fill="url(#C)" d="M-92.61-567.54s-17.43-28.79-31.69-33.42c-14.27-4.61-31.7-3.55-31.7-3.55s20.08 16.37 23.77 23.76 14.86 12.66 23.83 13.73c5.768.654 11.566 1.007 17.37 1.06l-1.58-1.57z"/>
    <path d="M-92.61-567.54s-17.43-28.79-31.69-33.42a70.635 70.635 0 0 0-10.55-2.43c.09.04 6.52 2.51 8.95 5.88 2.44 3.39-2.03 4.23-2.03 4.23s6.08 6.22 4.57 10.55c-1.18 3.41-6.73 1.72-10.58-.67a16.652 16.652 0 0 1 1.71 2.66c3.7 7.39 14.86 12.66 23.83 13.73a167.757 167.757 0 0 0 17.37 1.06l-1.58-1.57Z" class="H" opacity=".38"/>
    <path d="M-137.1-596.86s8.28 1.5 14.13 7.34c5.83 5.84 9.59 12.24 15.62 14.31s4.36-2.68 4.36-2.68-20.36-18.4-34.11-18.97Z" class="C I"/>
    <path d="M-143.13-643.85s4.71 10.07 10.54 20.99c4.75 8.89 11.3 23.37 13.18 31.65s11.12 16.77 14.88 17.7 8.66-.37 8.66-.93-41.42-65.91-47.26-69.41Z" class="B"/>
    <path fill="url(#C)" d="M-92.77-585.7s5.56-27.8-9.73-43.1-41.72-16.68-41.72-16.68 16.68 25.02 20.86 37.53c4.16 12.53 7.86 30.55 24.09 34.74s6.5-12.49 6.5-12.49z"/>
    <path d="M-102.5-628.8a46.32 46.32 0 0 0-9.62-7.26s8.77 8.84 7.22 13.77-4.71 2.07-5.28 2.07 4.33 13.76 1.7 19.03c-1.98 3.97-8.21 3.76-11.83 2.78 3.56 10.71 8.64 21.99 21.04 25.2 16.24 4.2 6.5-12.49 6.5-12.49s5.56-27.8-9.73-43.1Z" class="H" opacity=".38"/>
    <path d="M-122.8-628.9s13 7.99 16.85 19.52a88.208 88.208 0 0 1 4.14 22.76s1.18-16.85-.29-21.88-4.58-13.52-20.69-20.41Z" class="C I"/>
    <path fill="url(#D)" d="M-116.77-636.04c6.78 4.52 10.55 10.92 7.35 10.92s-11.68-6.41-17.33-7.73a70.98 70.98 0 0 0 8.47 10.37c3.86 3.86 7.54 12.05 3.97 15.63s-9.8-12.62-14.7-20.9a130.44 130.44 0 0 0-9.61-14.12s15.07 1.31 21.85 5.83z" class="E"/>
    <path fill="url(#E)" d="M-135.98-602.1s-11.39-1.08-13.58-.77 5.62 4.52 8.9 7.8 8.42 9.67 11.24 9.67.47-7.64-4.84-9.21c-5.3-1.55-7.02-4.2-3.11-4.2s8.34 3.36 9.2 2.5-1.56-4.53-7.8-5.79z" class="E"/>
    <path d="M-121.65-636.8s-4.62.35-1.71 2.05c2.91 1.72 11.28 7.45 11.8 5.55.51-1.88-3.57-7.6-10.09-7.6zm.86 14.05s-2.4-1.36-.51 3.26 4.98 8.94 5.49 6.1c.49-2.85-2.58-7.82-4.98-9.36zm-18.48 21.06s-4.3.7 0 1.56 8.42 2.14 7.7 1.02-3.42-3.26-7.69-2.58zm3.41 7.89s-3.43-1.72-.68 1.02 4.45 4.62 4.96 3.09c.52-1.55-2.94-3.62-4.28-4.11z" class="F"/>
    <path d="M-140.14-568.11s10.62-2.56 16.45-.34a90.473 90.473 0 0 0 11.65 3.76 55.78 55.78 0 0 1-11.65-1.37 78.7 78.7 0 0 0-16.45-2.05Z" class="C I"/>
    <path fill="url(#F)" d="M-131.58-571.52c-3.664.538-7.276 1.381-10.8 2.52-4.74 1.67-3.41 1.94.87 2.79s14.05 3.76 14.39 2.57c.34-1.21-3.94-2.75-8.91-3.26s-7.02-1.21-4.62-1.55 6.33-1.7 8.56-1.7 1.89-1.37.51-1.37z" class="E"/>
    <path d="M-136.03-566.9s-5.31.69-1.09 1.71 9.24-.29 1.09-1.71Z" class="F"/>
    <path fill="url(#G)" d="M-65.67-612.27a49.24 49.24 0 0 0-7.62.51c-1.46-6.47-3.11-18.27-3.11-38.37 0-35.76 14.47-32.52 26.46-32.34 22.19.33 36.64 0 36.64 0s-55.74-37.08-71.52-27.61-16.83 57.85-17.88 95.71-6.25 68.35 23.14 69.41c36.79 1.32 73.62 2.56 62.05-21.85s-33.23-45.45-48.16-45.45z"/>
    <path fill="#40170a" d="M-76.22-656.68c-1.93-3.52-10.24-16.32-24.04-7.45l-.49 5.54c2.06-2.52 6.38-6.05 13.78-4.36 10.25 2.34 10.58 11.33 10.58 12.64 0-2.28.06-4.39.18-6.37zm-11.27-22.57c7.58 2 11.71 6.79 13.15 10.26l.5-1.64c-3.57-5.26-12.74-16.25-23.98-11.54l-.48 2.68a20.868 20.868 0 0 1 10.8.24zm10.69-14.24c6.06 6.05 6.93 12.1 6.65 16.01a13.038 13.038 0 0 1 2.77-2.48c-2.04-7.48-8.6-24.93-24.62-21.46-.54 1.08-1.04 2.21-1.52 3.42 4.04-1.28 10.47-1.75 16.73 4.5z" class="C"/>
    <g opacity=".42">
      <path d="M-56.92-590.18c-3.58-1.34-8.04 7.58-5.37 10.26s4.02 2.23 2.68.89 1.78-6.24 3.12-6.24 21.42 13.83 13.83 19.63-27.66 1.79-33.24-2.01-5.36-27.22.45-36.59c5.79-9.35 16.08-6.93 16.14-6.93a21.04 21.04 0 0 0-6.36-1.11 49.241 49.241 0 0 0-7.62.51c-1.46-6.47-3.11-18.27-3.11-38.37 0-35.76 14.47-32.52 26.46-32.34 22.19.33 36.64 0 36.64 0s-12.92-8.59-28.07-16.44c10.61 5.36 11.07 13.26 2.29 13.7-8.92.46-25.43.9-33.45 6.24-8.03 5.36-5.81 29.46-5.81 37.49s1.79 28.11.45 34.8-13.84 28.56-5.36 40.61c8.48 12.03 41.28 8.25 48.64.89s-18.74-23.65-22.3-24.99Z" class="J"/>
      <path d="m-43.59-700.05 1.43.73-1.43-.73z" class="G"/>
    </g>
    <path fill="url(#H)" d="M-61.27-606.95s-10.49-1.16-13.2 10.31.78 19.97 2.03 21.22 3.92-10.33 8.24-14.65 12.13-4.88 19.95 2.93 18.7 19.54 18.7 15.64-18.94-36.35-35.72-35.45z" class="D"/>
    <path d="M-15.66-561.41c-1.33 7.05-9.07 10.84-17.42 12.23-8.37 1.39-39.63 3.07-54.42-.57-8.9-2.18-13.75-18.79-16.21-31.69.12 21.23 4.04 35.74 24.14 36.47 33.82 1.22 67.64 2.34 63.9-16.44Z" class="B"/>
    <path fill="#f7a634" d="M-85.83-659.14s-11.44-.55-12.85 6.7c-1.39 7.26-.27 16.19.56 20.38s4.75-16.2 8.1-10.61 1.67 16.46 4.73 16.46 2.52 8.93 3.35 15.08 1.96 1.11 1.96-6.7 1.95-40.47-5.86-41.31Z" opacity=".85"/>
    <path fill="url(#I)" d="M-93.92-678.11s-3.91 2.78-3.91 5.58 2.51-1.12 7.54.55 7.25 3.08 8.65 3.08 2.23-9.21-12.28-9.21z"/>
    <path fill="url(#J)" d="M-83.6-694.57s-7.81-1.96-9.76 3.63 4.73.27 7.67 3.2 8.23 8.79 9.62 7.4 1.68-10.6-7.54-14.23z"/>
    <path fill="url(#K)" d="M-82.76-706.02s4.18-4.47 13.95-2.23 26.51 10.33 28.74 12.56-4.47.83-10.88.83-15.07-.83-16.89.98-2.63-3.14-4.88-6.01c-2.375-3.322-6-5.535-10.04-6.13z"/>
    <path d="M-56.25-604.61s-7.95-2.21-11.48 1.33 6.63 3.09 12.81 5.29 15.17 7.45 12.32 2.76-6.27-8.85-13.64-9.38zm-26.67-52.13c0 1.72-3.06 3.11-6.83 3.11s-6.83-1.39-6.83-3.11 3.06-3.11 6.83-3.11 6.83 1.39 6.83 3.11zm.72 7.55c0 .99-1.23 1.79-2.75 1.79s-2.76-.81-2.76-1.79 1.24-1.79 2.76-1.79 2.75.81 2.75 1.79zm-2.63-26.25c0 1.06-1.99 1.92-4.44 1.92s-4.43-.86-4.43-1.92 1.99-1.91 4.43-1.91 4.44.85 4.44 1.91zm17.25-30.43c0 1.06-2.31 1.92-5.15 1.92s-5.15-.86-5.15-1.92 2.31-1.91 5.15-1.91 5.15.85 5.15 1.91zM-81-691.25c0 1.19-1.77 2.15-3.95 2.15s-3.96-.96-3.96-2.15 1.77-2.15 3.96-2.15 3.95.96 3.95 2.15z" class="F"/>
    <path fill="url(#L)" d="M-82.29-600.21s-10.05 21.28-3.26 34.29 26.91 7.1 30.16 8.87-12.42 5.03-23.65.59-11.87-10.69-12-20.43 8.75-23.32 8.75-23.32z" class="D"/>
    <path fill="url(#M)" d="M-97.38-616.36s3.11-2.01 4.21 1.1 3.48 9.7 4.94 9.16 3.66-.37 2.56 3.66-8.61 12.63-10.07 19.78-4.58-25.27-1.65-33.7z" class="D"/>
    <path fill="url(#N)" d="M-54.83-581.42s11.37 4.67 10.69 10.02-7.01 4.01-10.35 4.01 5.01-1.65 4.01-4.32-8.36-9.71-4.35-9.71z" class="D"/>
    <path d="M509.63-565.97s-8.66 1.98-15.16 4.03-13.88 5.82-17.98 6.34c-4.12.51-14.01-1.43-16.57-2.97a3.228 3.228 0 0 1-1.46-4.07s22.31-1.54 25.04-2.21c2.75-.7 17.84-2.75 26.13-1.12Z" class="B"/>
    <path fill="url(#O)" d="M452.58-569.13s22.19-6.34 35.39-4.23a63.34 63.34 0 0 1 21.66 7.4s-21.12 2.64-30.11 7.4-24.29-3.17-25.88-3.17-9.35-5.38-1.06-7.4z"/>
    <path d="M451.81-563.31a50.716 50.716 0 0 1 1.3-5.97c3.41-.93 22.85-6.01 34.86-4.08 1.22.2 2.37.42 3.5.66-2.9 1.63-8.5 4.94-5.92 4.94 3.43 0-2.74 2.4-2.06 4.29.28.79 2.33 1.35 4.76 1.68a45.783 45.783 0 0 0-8.73 3.23c-8.98 4.75-24.29-3.17-25.88-3.17a4.537 4.537 0 0 1-1.88-.8 6.939 6.939 0 0 1 .05-.77Z" class="K" opacity=".28"/>
    <path d="m515.47-604.55-.17.2c-1.01 1.22-6.69 8-12.42 13.59-6.31 6.15-12.71 16.77-17.85 19.89s-17.94 8.11-24.97 5.15 5.3-6.71 11.7-9.67 18.57-13.42 21.7-15.77c3.11-2.34 22-13.39 22-13.39Z" class="B"/>
    <path fill="url(#P)" d="M452.58-567.54s17.43-28.79 31.69-33.42c14.27-4.61 31.69-3.55 31.69-3.55s-20.06 16.37-23.76 23.76-14.86 12.66-23.83 13.73c-5.768.654-11.566 1.007-17.37 1.06l1.58-1.57z"/>
    <path d="M452.58-567.54s17.43-28.79 31.69-33.42a70.635 70.635 0 0 1 10.55-2.43c-.08.04-6.52 2.51-8.95 5.88-2.45 3.39 2.02 4.23 2.02 4.23s-6.08 6.22-4.57 10.55c1.18 3.41 6.73 1.72 10.58-.67a16.655 16.655 0 0 0-1.71 2.66c-3.7 7.39-14.86 12.66-23.83 13.73a167.757 167.757 0 0 1-17.37 1.06l1.58-1.57Z" class="K" opacity=".28"/>
    <path d="M497.07-596.86s-8.28 1.5-14.13 7.34c-5.83 5.84-9.6 12.24-15.62 14.31s-4.36-2.68-4.36-2.68 20.36-18.4 34.11-18.97Z" class="C G"/>
    <path d="M503.1-643.85s-4.71 10.07-10.54 20.99c-4.75 8.89-11.3 23.37-13.19 31.65s-11.11 16.77-14.88 17.7-8.66-.37-8.66-.93 41.43-65.91 47.26-69.4Z" class="B"/>
    <path fill="url(#Q)" d="M452.74-585.7s-5.56-27.8 9.73-43.1 41.71-16.68 41.71-16.68-16.68 25.02-20.86 37.53c-4.17 12.53-7.86 30.55-24.09 34.74s-6.5-12.49-6.5-12.49z"/>
    <path d="M462.47-628.8a46.527 46.527 0 0 1 9.61-7.26s-8.77 8.84-7.21 13.77 4.71 2.07 5.27 2.07-4.33 13.76-1.69 19.03c1.99 3.97 8.21 3.76 11.83 2.78-3.56 10.71-8.64 21.99-21.04 25.2-16.23 4.2-6.5-12.49-6.5-12.49s-5.56-27.8 9.73-43.1Z" class="K" opacity=".28"/>
    <path d="M482.77-628.9s-13 7.99-16.85 19.52a88.713 88.713 0 0 0-4.14 22.76s-1.18-16.85.29-21.88 4.58-13.52 20.69-20.41Z" class="C G"/>
    <path fill="url(#R)" d="M476.74-636.04c-6.78 4.52-10.55 10.92-7.34 10.92s11.67-6.41 17.32-7.73a70.98 70.98 0 0 1-8.47 10.37c-3.86 3.86-7.53 12.05-3.95 15.63s9.79-12.62 14.69-20.9a131.33 131.33 0 0 1 9.6-14.12s-15.07 1.31-21.85 5.83z" class="E"/>
    <path fill="url(#S)" d="M495.96-602.1s11.39-1.08 13.58-.77-5.62 4.52-8.89 7.8c-3.29 3.28-8.43 9.67-11.24 9.67s-.47-7.64 4.84-9.21c5.3-1.55 7.01-4.2 3.11-4.2s-8.35 3.36-9.2 2.5 1.56-4.53 7.8-5.79z" class="E"/>
    <path d="M481.62-636.8s4.61.35 1.71 2.05c-2.91 1.72-11.28 7.45-11.8 5.55-.5-1.88 3.57-7.6 10.09-7.6zm-.86 14.05s2.4-1.36.51 3.26-4.98 8.94-5.49 6.1 2.57-7.82 4.97-9.36zm18.48 21.06s4.29.7 0 1.56-8.42 2.14-7.7 1.02 3.41-3.26 7.69-2.58zm-3.41 7.89s3.43-1.72.69 1.02-4.45 4.62-4.96 3.09c-.52-1.55 2.94-3.62 4.27-4.11z" class="F"/>
    <path d="M500.11-568.11s-10.62-2.56-16.44-.34a90.472 90.472 0 0 1-11.65 3.76 55.78 55.78 0 0 0 11.65-1.37 78.7 78.7 0 0 1 16.44-2.05Z" class="C G"/>
    <path fill="url(#T)" d="M491.55-571.52c3.664.538 7.276 1.381 10.8 2.52 4.74 1.67 3.41 1.94-.87 2.79s-14.04 3.76-14.39 2.57c-.34-1.21 3.94-2.75 8.91-3.26s7.02-1.21 4.62-1.55-6.34-1.7-8.56-1.7-1.89-1.37-.51-1.37z" class="E"/>
    <path d="M496-566.9s5.31.69 1.09 1.71-9.24-.29-1.09-1.71Z" class="F"/>
    <path fill="url(#U)" d="M425.65-612.27a49.24 49.24 0 0 1 7.62.51c1.45-6.47 3.12-18.27 3.12-38.37 0-35.76-14.48-32.52-26.47-32.34-22.18.33-36.64 0-36.64 0s55.75-37.08 71.52-27.61 16.83 57.85 17.88 95.71 6.24 68.35-23.14 69.41c-36.79 1.32-73.62 2.56-62.05-21.85s33.23-45.45 48.16-45.45z"/>
    <path d="M436.19-656.68c1.93-3.52 10.24-16.32 24.04-7.45l.49 5.54c-2.06-2.52-6.38-6.05-13.78-4.36-10.24 2.34-10.58 11.33-10.57 12.64a114.18 114.18 0 0 0-.18-6.37zm11.27-22.57c-7.57 2-11.7 6.79-13.14 10.26a40.57 40.57 0 0 0-.5-1.64c3.58-5.26 12.74-16.25 23.98-11.54l.48 2.68a20.9 20.9 0 0 0-10.81.24zm-10.69-14.24c-6.06 6.05-6.93 12.1-6.65 16.01a13.24 13.24 0 0 0-2.76-2.48c2.04-7.48 8.6-24.93 24.62-21.46.54 1.08 1.05 2.21 1.52 3.42-4.04-1.28-10.47-1.75-16.73 4.5z" class="C J"/>
    <g opacity=".42">
      <path d="M416.9-590.18c3.57-1.34 8.03 7.58 5.36 10.26s-4.02 2.23-2.67.89c1.33-1.34-1.79-6.24-3.13-6.24s-21.42 13.83-13.83 19.63 27.66 1.79 33.24-2.01 5.36-27.22-.45-36.59c-5.79-9.35-16.08-6.93-16.13-6.93a21.092 21.092 0 0 1 6.36-1.11 49.24 49.24 0 0 1 7.62.51c1.45-6.47 3.12-18.27 3.12-38.37 0-35.76-14.48-32.52-26.47-32.34-22.18.33-36.64 0-36.64 0s12.93-8.59 28.08-16.44c-10.62 5.36-11.08 13.26-2.3 13.7 8.92.46 25.43.9 33.46 6.24 8.04 5.36 5.8 29.46 5.8 37.49s-1.78 28.11-.45 34.8 13.84 28.56 5.36 40.61c-8.48 12.03-41.28 8.25-48.64.89s18.74-23.65 22.31-24.99Z" class="J"/>
      <path d="m403.56-700.05-1.43.73 1.43-.73z" class="G"/>
    </g>
    <path fill="url(#V)" d="M421.24-606.95s10.49-1.16 13.2 10.31-.78 19.97-2.03 21.22-3.92-10.33-8.24-14.65-12.13-4.88-19.95 2.93-18.7 19.54-18.7 15.64 18.95-36.35 35.72-35.45z" class="D"/>
    <path d="M375.63-561.41c1.33 7.05 9.07 10.84 17.42 12.23 8.37 1.39 39.63 3.07 54.42-.57 8.9-2.18 13.75-18.79 16.21-31.69-.14 21.23-4.04 35.74-24.15 36.47-33.81 1.22-67.64 2.34-63.9-16.44Z" class="B"/>
    <path fill="#f7a634" d="M445.8-659.14s11.45-.55 12.85 6.7.28 16.19-.56 20.38-4.75-16.2-8.09-10.61-1.67 16.46-4.75 16.46-2.51 8.93-3.35 15.08-1.95 1.11-1.95-6.7-1.95-40.47 5.86-41.31Z" opacity=".85"/>
    <path fill="url(#W)" d="M453.89-678.11s3.91 2.78 3.91 5.58-2.51-1.12-7.53.55-7.25 3.08-8.65 3.08-2.23-9.21 12.28-9.21z"/>
    <path fill="url(#X)" d="M443.57-694.57s7.81-1.96 9.76 3.63-4.74.27-7.67 3.2-8.23 8.79-9.63 7.4-1.67-10.6 7.55-14.23z"/>
    <path fill="url(#Y)" d="M442.73-706.02s-4.18-4.47-13.95-2.23-26.51 10.33-28.74 12.56 4.47.83 10.88.83 15.07-.83 16.89.98 2.64-3.14 4.88-6.01c2.375-3.322 6-5.535 10.04-6.13z"/>
    <path d="M416.22-604.61s7.95-2.21 11.48 1.33-6.63 3.09-12.81 5.29-15.17 7.45-12.32 2.76 6.27-8.85 13.64-9.38zm26.67-52.13c0 1.72 3.06 3.11 6.83 3.11s6.83-1.39 6.83-3.11-3.06-3.11-6.83-3.11-6.83 1.39-6.83 3.11zm-.72 7.55c0 .99 1.23 1.79 2.76 1.79s2.76-.81 2.76-1.79-1.24-1.79-2.76-1.79-2.76.81-2.76 1.79zm2.63-26.25c0 1.06 2 1.92 4.44 1.92s4.43-.86 4.43-1.92-1.99-1.91-4.43-1.91-4.44.85-4.44 1.91zm-17.25-30.43c0 1.06 2.31 1.92 5.15 1.92s5.15-.86 5.15-1.92-2.31-1.91-5.15-1.91-5.15.85-5.15 1.91zm13.42 14.62c0 1.19 1.77 2.15 3.96 2.15s3.95-.96 3.95-2.15-1.78-2.15-3.95-2.15-3.96.96-3.96 2.15z" class="F"/>
    <path fill="url(#Z)" d="M442.26-600.21s10.05 21.28 3.26 34.29-26.91 7.1-30.16 8.87 12.42 5.03 23.66.59 11.87-10.69 12-20.43-8.75-23.32-8.75-23.32z" class="D"/>
    <path fill="url(#a)" d="M457.35-616.36s-3.11-2.01-4.21 1.1-3.48 9.7-4.94 9.16-3.67-.37-2.56 3.66 8.61 12.63 10.07 19.78 4.58-25.27 1.65-33.7z" class="D"/>
    <path fill="url(#b)" d="M414.79-581.42s-11.35 4.67-10.69 10.02 7.02 4.01 10.36 4.01-5.01-1.65-4.01-4.32 8.35-9.71 4.34-9.71z" class="D"/>
  </g>
</svg>
