<svg xmlns="http://www.w3.org/2000/svg" viewBox="0 0 128 40"><defs><linearGradient id="a" x1=".295" x2=".551" y1="-.061" y2=".922" gradientUnits="objectBoundingBox"><stop offset="0" stop-color="#006884"/><stop offset="1" stop-color="#8ad1d0"/></linearGradient><linearGradient id="b" x1="-.075" x2=".915" y1=".158" y2=".862" gradientUnits="objectBoundingBox"><stop offset="0" stop-color="#24bbb6"/><stop offset="1" stop-color="#dbe692"/></linearGradient><linearGradient id="c" x1=".499" x2=".499" y1="1.058" y2="-.031" gradientUnits="objectBoundingBox"><stop offset="0" stop-color="#fcc072"/><stop offset="1" stop-color="#f58a5b"/></linearGradient><linearGradient id="d" x1=".112" x2=".904" y1="1.178" y2=".121" gradientUnits="objectBoundingBox"><stop offset="0" stop-color="#712b8f"/><stop offset="1" stop-color="#ea1d27"/></linearGradient></defs><path d="M124 40H4a4.012 4.012 0 0 1-4-4V4a4.012 4.012 0 0 1 4-4h120a4.012 4.012 0 0 1 4 4v32a4.012 4.012 0 0 1-4 4Z" data-name="Path 1"/><path fill="url(#a)" fill-rule="evenodd" d="M195.3 38.1V27.6a1.1 1.1 0 0 1 1-1.1 1.493 1.493 0 0 1 1 .3l19.3 10.6a.833.833 0 0 1 0 1.6l-19.3 10.6a1.964 1.964 0 0 1-1 .3 1.1 1.1 0 0 1-1-1.1Z" data-name="Path 2" transform="translate(-185.5 -18.5)"/><path fill="url(#b)" fill-rule="evenodd" d="m207.8 38.2-11.7-11.7h.2a1.493 1.493 0 0 1 1 .3l14.2 7.8-3.7 3.6Z" data-name="Path 3" transform="translate(-185.5 -18.5)"/><path fill="url(#c)" fill-rule="evenodd" d="m211.4 41.7-3.6-3.6 3.7-3.7 5.1 2.8a.833.833 0 0 1 0 1.6Z" data-name="Path 4" transform="translate(-185.5 -18.5)"/><g fill-rule="evenodd" data-name="Group 2"><path fill="url(#d)" d="m196.2 49.7 11.6-11.6 3.6 3.6-14.1 7.7a1.609 1.609 0 0 1-1.1.3Z" data-name="Path 5" transform="translate(-185.5 -18.5)"/><g fill="#fff" data-name="Group 1"><path d="M71.1 33.9a4.789 4.789 0 0 1-1.1-1.5l1.6-.7a9.222 9.222 0 0 0 .5.8 2.469 2.469 0 0 0 1.6.8 2.289 2.289 0 0 0 1.7-.8 3.1 3.1 0 0 0 .5-1.7v-.6c-1.2 1.5-3.7 1.3-5.1-.3a4.43 4.43 0 0 1 0-5.9c1.5-1.5 3.7-1.7 5-.3V23h1.7v7.5a4.333 4.333 0 0 1-1.6 3.7 3.691 3.691 0 0 1-2.3.7 4.589 4.589 0 0 1-2.5-1Zm41.9.4 1.7-4-3-6.9h1.7l2.1 4.9 2.1-4.9h1.7l-4.6 10.9H113Zm-8.1-3.8a2.64 2.64 0 0 1-.7-1.9 2.271 2.271 0 0 1 .6-1.6 3.857 3.857 0 0 1 2.8-1 3.424 3.424 0 0 1 1.8.4 1.7 1.7 0 0 0-1.8-1.7 1.848 1.848 0 0 0-1.7 1.1l-1.5-.6a3.176 3.176 0 0 1 3.1-2 3.392 3.392 0 0 1 2.6 1 3.688 3.688 0 0 1 .8 2.6V31h-1.7v-.7a3.114 3.114 0 0 1-.9.7 3.194 3.194 0 0 1-1.4.3 3.861 3.861 0 0 1-2-.8Zm-53.3-3.6a4.152 4.152 0 0 1 4.2-4.2 4.218 4.218 0 0 1 4.2 4.2 4.2 4.2 0 1 1-8.4 0Zm9 0a4.152 4.152 0 0 1 4.2-4.2 4.218 4.218 0 0 1 4.2 4.2 4.152 4.152 0 0 1-4.2 4.2 4.218 4.218 0 0 1-4.2-4.2Zm-20.3 2.2a6.581 6.581 0 0 1 .1-9.2A6.349 6.349 0 0 1 45 18a6.2 6.2 0 0 1 4.4 1.8l-1.2 1.3a4.467 4.467 0 0 0-6.4.1 4.83 4.83 0 0 0 0 6.7 4.535 4.535 0 0 0 6.6.1 3.6 3.6 0 0 0 .9-2.2h-4.2V24H51a6.149 6.149 0 0 1 .1 1.4 5.76 5.76 0 0 1-1.6 4 6.131 6.131 0 0 1-4.3 1.7 7.426 7.426 0 0 1-4.9-2Zm42.3.7a4.562 4.562 0 0 1 0-6 3.637 3.637 0 0 1 5.4 0 5.927 5.927 0 0 1 1.1 1.9L83.6 28a2.13 2.13 0 0 0 2 1.3 2.265 2.265 0 0 0 2.1-1.2l1.5 1a2.651 2.651 0 0 0-.5.6 4.379 4.379 0 0 1-6.1.1ZM93 31V19.9h3.6a3.591 3.591 0 0 1 3.8 3.3 3.351 3.351 0 0 1-3.4 3.3h-2.2v4.4H93v.1Zm8.4 0V19.9h1.7V31h-1.7Zm-22.6-.2V18.4h1.8v12.4h-1.8Zm30.5-3.1a2.726 2.726 0 0 0-1.6-.4c-1.2 0-1.9.6-1.9 1.3a1.257 1.257 0 0 0 1.4 1.1 2.09 2.09 0 0 0 2.1-2Zm-51.2-.8a2.308 2.308 0 1 0-2.3 2.5 2.433 2.433 0 0 0 2.3-2.5Zm9 0a2.308 2.308 0 1 0-2.3 2.5 2.365 2.365 0 0 0 2.3-2.5Zm8.9.7a.367.367 0 0 1 .1-.3v-.9c0-.1-.1-.3-.1-.4a2.32 2.32 0 0 0-2.1-1.7 2.428 2.428 0 0 0-2.2 2.5 2.375 2.375 0 0 0 2.3 2.5c.8.1 1.6-.6 2-1.7Zm7.3-.9 3.7-1.6a1.669 1.669 0 0 0-1.5-.9 2.424 2.424 0 0 0-2.2 2.5Zm15.3-3.4a1.74 1.74 0 0 0-1.9-1.7h-2v3.5h2.1a1.79 1.79 0 0 0 1.8-1.8Z" data-name="Path 6"/><path d="M114.3 32.3h-.1v-.1.1Zm0 0Zm0-.1Zm0 .1Zm0 0Zm0-.1Zm0 0Zm0 .1Zm0 0Zm0 0Zm.1 0Zm0-.1Zm0 .1Zm0-.1Zm0 .1Zm0 0Zm0-.1Zm0 .1Zm.1 0Zm0-.1c0 .1-.1.1 0 0Zm0 .1Zm0 0Zm0-.1Zm0 .1Zm.1-.1Zm0 .1Zm0 0Zm0-.1Z" data-name="Path 7"/></g></g><path fill="#fff" d="M38.9 10.1a2.782 2.782 0 0 1 2.9-2.9 2.658 2.658 0 0 1 2.3 1.2l-.8.5a1.806 1.806 0 0 0-1.5-.7 2 2 0 0 0 0 4 1.972 1.972 0 0 0 1.3-.5v-.9h-1.6v-.9h2.7V12a2.927 2.927 0 0 1-2.3 1 2.865 2.865 0 0 1-3-2.9Zm6.5 2.8V7.3h3.8v.9h-2.9v1.4h2.8v.9h-2.8v1.6h2.9v.9l-3.8-.1Zm6.6 0V8.2h-1.7v-.9h4.4v.9H53v4.7h-1Zm6.1 0V7.3h1v5.6Zm3.7 0V8.2h-1.7v-.9h4.4v.9h-1.7v4.7h-1Zm5.9-2.8a2.9 2.9 0 1 1 2.9 2.9 2.84 2.84 0 0 1-2.9-2.9Zm4.7 0a1.813 1.813 0 0 0-1.9-2 1.923 1.923 0 0 0-1.9 2 1.813 1.813 0 0 0 1.9 2 1.864 1.864 0 0 0 1.9-2Zm6.1 2.8-2.9-4v4h-1V7.3h1l2.9 3.9V7.3h1v5.6Z" data-name="Path 8"/></svg>