<svg xmlns="http://www.w3.org/2000/svg" viewBox="0 0 1758.53 355"><path fill="#34b66a" d="M121.89 1.04c3.64-.16 7.3-.61 10.92-.41 9.22.5 18.43 1.27 27.64 1.97 2.86.22 5.75.33 8.55.87 3.5.68 6.98 1.55 10.35 2.69 6.54 2.22 13.04 4.59 19.48 7.09 3.33 1.3 6.45 3.11 9.74 4.53 11.41 4.93 20.84 12.7 30.08 20.77l5.09 5.07 11.35 14.19.51.55 3.96 6.79 1.16 2.25c2.23 5.53 4.69 10.99 6.6 16.63.97 2.88 1.1 6.08 1.36 9.15.48 5.67.82 11.35 1.12 17.04.05.98-.47 1.97-.59 2.97-.34 2.79-.3 5.67-.96 8.38-1.18 4.82-2.17 9.82-4.3 14.24-3.27 6.77-7.28 13.2-11.27 19.59-2.15 3.45-4.74 6.67-7.41 9.75-2.61 3.02-5.54 5.77-8.42 8.54-.96.92-2.19 1.56-3.3 2.32l-2.47 2.01 3.03 2.11c3.2 2.89 6.55 5.64 9.55 8.72 2.18 2.24 3.92 4.91 5.84 7.4 2.61 3.37 5.71 6.48 7.7 10.19 2.87 5.36 4.69 11.27 7.41 16.72 3.01 6.06 3.12 12.6 4.17 19.02 1.35 8.23.07 16.23-1.04 24.35-1.29 9.46-5.67 17.58-9.64 25.99-2.79 5.9-7.06 10.6-10.88 15.67-8.03 10.66-18.83 18.14-29.91 25.18-4.32 2.74-9.07 4.84-13.69 7.09-3.98 1.94-7.98 3.87-12.11 5.44-3.68 1.4-7.5 2.46-11.33 3.36-6.97 1.64-13.97 3.14-21 4.53-3.13.62-6.34.81-9.51 1.2h-30.05c-.3-.18-.58-.48-.9-.53-7.36-1.16-14.83-1.84-22.07-3.52-30.45-7.08-57-20.92-76.97-45.65-7.46-9.24-13.14-19.49-16.31-30.99-1.27-4.57-2.26-9.23-3.37-13.85v-18.12c.17-.41.42-.8.51-1.22 1.12-5.17 1.87-10.45 3.39-15.5 4.5-14.91 13.01-27.45 23.88-38.45 3.21-3.25 6.75-6.19 10.18-9.32-2.78-2.35-5.65-4.53-8.22-7.01-7.64-7.4-14.15-15.72-19.29-25.05-3.98-7.23-6.99-14.85-8.6-22.99-.53-2.63-1.23-5.24-1.85-7.85V95.12c.44-2.39.77-4.81 1.34-7.18 3.94-16.35 11.55-30.81 22.85-43.25 8.92-9.81 19.34-17.82 30.91-24.28C75.86 8.83 98.22 2.69 121.89 1.04zm13.28 176.59c-1.05.95-1.49 1.3-1.89 1.7l-33.74 33.51c-.39.39-.76.85-1.22 1.12-5.56 3.26-10.43 7.23-14.5 12.33-7.59 9.51-10.65 20.07-8.28 32.04 1.99 10.04 7.47 18.13 15.3 24.4 10.08 8.07 21.7 12.65 34.64 14.03 9 .96 17.94.76 26.66-1.41 10.13-2.52 19.46-6.88 27.44-13.92 8.02-7.09 13.56-15.62 14.74-26.26 1.55-14.11-3.85-25.91-14.69-34.71-7.46-6.05-14.76-12.19-21.46-19.07l-21.2-21.24c-.66-.66-1.11-1.53-1.8-2.51zm.07-.34c.65-.95 1.12-1.92 1.84-2.65l25.01-25.04c3.66-3.68 7.28-7.34 11.95-9.84 1.97-1.05 3.71-2.6 5.4-4.09 12.36-10.91 17.97-24.29 13.78-40.65-2.58-10.06-9.18-17.67-17.48-23.64-9.54-6.86-20.26-10.79-32.03-12.02-8.63-.9-17.15-.74-25.63 1.05-7.14 1.5-13.9 4.05-20.16 7.84-11.06 6.7-19.35 15.65-22.1 28.63-.9 4.27-1.46 8.93-.73 13.16 2.1 12.28 8.78 22.06 19.19 28.8 6.2 4.01 11.33 9 16.47 14.11l21.84 21.8c.66.66 1.35 1.28 2.67 2.53zm608.51 88.16-5.65 3.43-6.24 3.4-12.85 4.2c-9.46 2.99-19.22 3.33-29.02 3.11-10.91-.24-21.43-2.41-31.45-6.71-8.08-3.46-15.64-7.81-22.53-13.36-8.74-7.04-15.38-15.75-21.19-25.2l-1.07-1.5-3.91-9.71c-1.56-3.99-3.51-7.9-4.45-12.03-1.02-4.43-.79-9.13-1.61-13.62-.81-4.38-.6-8.73-.51-13.08.1-5.27.8-10.5 1.93-15.68 1.88-8.64 4.42-17.11 8.92-24.69 3.71-6.24 8.51-11.84 12.8-17.74.41-.56.68-1.22 1.01-1.83l4.62-4.63c1.97-1.55 3.84-3.27 5.94-4.62 5.57-3.58 11.25-6.99 16.88-10.47l1.73-1.03c7.26-1.99 14.46-4.26 21.8-5.89 8.16-1.81 16.47-1.33 24.73-.44 2.31.25 4.69.15 6.94.66 6.11 1.38 12.56 2.13 18.14 4.72 7.62 3.55 14.58 8.53 21.75 12.99 1.66 1.03 3.05 2.49 5.3 4.48 1.49-1.78 2.91-3.63 4.49-5.33L771.48 103c.55-.58 1.29-1.38 1.95-1.39l21.97-.06v3.71l-.06 156.81c-.03 10.87-1.49 21.62-4 32.28-1.14 4.86-3.62 9.02-5.07 13.65l-2.3 4.51c-.93 1.86-1.69 3.85-2.84 5.56-1.67 2.47-3.52 4.84-5.5 7.06-2.4 2.69-5.01 5.18-7.53 7.76l-.51.51-.55.18-.66.5c-6.79 4.44-13.18 9.73-20.46 13.1-8.98 4.15-18.7 6.7-28.75 7.33-.2.01-.39.33-.58.5h-29.48l-10.05-1.7c-15.1-2.67-28.79-8.52-40.76-18.19-8.67-7-16.06-15.16-20.7-25.34-2.73-5.99-4.5-12.41-6.65-18.66-.2-.58-.03-1.3-.03-2.14.96-.05 1.79-.12 2.62-.13l43.92-.03c1.75 0 2.59.34 3.46 2.22 2.53 5.44 6.17 10.13 11.66 13.04l1.77 1.18c6.21 4.29 13.23 6.24 20.6 7.31 7.77 1.13 15.36.61 22.86-1.71 14.99-4.63 25.24-14.08 29-29.5 1.19-4.88.82-10.15 1.16-15.24v-1.81l-2.21 1.16zm3.5-77.24c-.74-4.23-1.31-8.5-2.26-12.68-2.42-10.73-8.28-19.19-17.23-25.61-10.49-7.53-22.15-9.35-34.73-7.92-12.92 1.47-23.11 7.5-30.47 17.95-10.49 14.9-11.64 31.21-5.06 47.83 8.5 21.49 31.08 32.05 54.96 26.29 20.89-5.04 34.25-23.05 34.79-45.88zM1562.97 355l-.08-3.11V96.74h32.79l8.08 20.5c5.49-3.51 10.72-7.52 16.52-10.38 6.38-3.14 13.19-5.55 20-7.69 9.42-2.95 19.25-2.73 28.97-2.3 18.83.84 36.14 6.48 51.31 17.83 11.85 8.87 21.47 19.78 28 33.13 4.79 9.8 8.15 20.09 8.87 31.09l1.09 18.48c.09 1.94-.28 3.9-.43 5.84-.65 4.53-1.02 9.11-1.99 13.57-4.72 21.51-16.09 38.98-33.14 52.72-15.51 12.5-33.56 18.94-53.31 20.2-7.13.45-14.4-.34-21.54-1.1-10.47-1.11-20.22-4.62-29.3-9.98-2.03-1.2-4.1-2.31-6.5-3.65v79.97h-49.32zm145.13-161.78c.95-27.01-20.4-51.85-52.85-49.99-26.06 1.49-44.9 18.84-46.3 46.85-1.63 32.63 22.88 52.74 48.89 52.95 30.82.25 51.73-24.48 50.26-49.81z"/><path fill="#fff" d="m875.31 0-.05.68-3.33 2.23.54-2.91h2.83z"/><path fill="#34b66a" d="M1346.21 241.68c-3.83-5.98-6.55-12.49-8.12-19.35-.44-1.95-1.49-4.1-1.42-5.62.17-3.92-2.13-7.08-2.21-10.82-.14-6.92-.69-13.84-.7-20.76 0-2.26 1.16-4.53 1.96-7.44-1.53-3.14.34-6.96 1.19-10.63 2.92-12.55 8.43-24 16.33-34.18 13.33-17.19 30.54-28.58 51.8-33.62 11.06-2.62 22.35-3.15 33.59-2.3 18.89 1.43 35.72 8.33 50.17 20.73.21.18.45.31 1.01.69l5.36-21.71h37.13v192.37c-.75.08-1.38.2-2.01.2-11.52.01-23.05-.03-34.57.05-2.16.02-2.8-.74-3.13-2.85-.97-6.03-2.28-11.99-3.53-18.33-1.92 1.54-3.57 3.03-5.38 4.28-2.85 1.96-5.67 4.05-8.76 5.57-5.94 2.95-11.98 5.75-18.14 8.18-2.98 1.18-6.34 1.53-9.56 1.96-5.42.72-10.86 1.55-16.3 1.69-4.82.13-9.69-.38-14.48-1.04-5.09-.71-10.15-1.79-15.15-2.99-3.58-.86-7.2-1.85-10.53-3.37-13.01-5.92-24.6-13.95-33.74-25-1.86-2.25-4.62-4.1-5.22-7.75-.37-2.28-3.1-4.18-4.78-6.25l-.8-1.7zm134.56-67.31-.43-.55c-3.17-9.33-9.31-16.47-17.13-22.1-10.71-7.71-22.93-10-35.87-8.56-11.94 1.33-22.16 6.35-30.17 15.34-7.31 8.2-12.18 17.7-12.66 28.82-.29 6.68-.98 13.54 1.67 20.05 1.33 3.25 1.75 6.68 3.77 9.88 5.87 9.29 14.8 19.33 27.82 23.09 3.96 1.14 8.07 2.22 12.15 2.41 4.61.22 9.34-.21 13.89-1.06 4.49-.84 8.94-1.57 13.21-4.03 9.26-5.34 16.71-12.1 21.58-21.65.68-1.33 2.3-2.34 2.59-3.69.86-4.05 1.26-8.2 1.88-12.3 1.31-8.74.67-17.3-2.3-25.65zM871.93 2.91l3.33-2.23.05 113.79v2.59c5.55-3.7 10.89-7.72 16.65-10.98 7.22-4.08 15.11-6.64 23.41-7.54 6.41-.69 12.84-1.58 19.26-1.57 4.51 0 9.18.91 13.5 2.27 6.55 2.06 13.13 4.36 19.19 7.53 3.87 2.02 7.11 5.53 10.1 8.85 3.79 4.23 7.52 8.66 10.37 13.53 2.47 4.22 3.64 9.19 5.44 13.81 3.09 7.92 3.83 16.29 3.89 24.61l.42 118.85c0 1.64.02 2.86-2.3 2.85l-46.2-.06c-.27 0-.54-.1-1.16-.22v-3.25l-.08-105.02c-.06-9.88-1.28-19.73-6.7-28.44-2.44-3.92-5.83-6.73-10.19-8.5-9.87-4-19.78-3.94-29.71-.57-4.63 1.57-8.89 3.89-12.04 7.89-2.12 2.68-4.8 4.98-6.62 7.83-3.51 5.51-5.05 11.71-6.28 18.15-1.04 5.43-.88 10.75-.9 16.11l-.04 92.56v3.28h-49.65v-3.12l-.05-233.82c0-2.09.68-3.48 2.12-4.91l42.32-42.2c.66-.66 1.26-1.38 1.89-2.07zM513.44 224.8c-.24.95-.36 1.94-.73 2.83-1.15 2.84-2.39 5.65-3.6 8.47l-.73 1.47c-4.4 8.88-10.42 16.61-16.97 23.97l-1.07 1.07c-8.5 7.71-17.69 14.41-28.27 19.03-8.42 3.68-17.17 6.12-26.33 7.04-4.07.41-8.15 1.03-12.23 1.12-4.01.09-8.08-.05-12.04-.63-5.99-.87-12.08-1.66-17.81-3.49-6.24-1.99-12.31-4.78-18.1-7.88-4.99-2.68-9.67-6.05-14.13-9.57-3.36-2.65-6.31-5.87-9.16-9.08-6.11-6.89-11.42-14.34-15.38-22.7-4.29-9.07-7.16-18.56-8.03-28.56-.57-6.5-1.24-13.05-1.04-19.55.16-5.39 1.53-10.75 2.34-16.13.26-1.74.22-3.55.71-5.22 1.33-4.56 2.86-9.05 4.32-13.57l.45-.55c3.45-7.44 7.07-14.78 12.45-21.09 1.38-1.62 2.7-3.3 4.05-4.95l1.75-2.25 2.75-2.8 2.26-1.72 10.74-8.46 1.77-1.2c3.52-1.77 6.92-3.88 10.59-5.24 6.18-2.29 12.46-4.34 18.83-6.03 4.87-1.29 9.92-1.95 14.92-2.67 1.68-.24 3.47.33 5.2.29 2.7-.05 5.39-.43 8.08-.42 1.11 0 2.31 1.13 3.32.94 5.44-1.02 10.2 1.71 15.29 2.5 2.28.35 4.71.36 6.78 1.22 4.83 2.01 9.32 4.95 14.26 6.57 6.66 2.18 11.52 6.99 16.67 11.06 5.1 4.04 8.73 9.94 12.99 15.03.98 1.17 1.99 2.33 2.87 3.58 1.79 2.52 3.84 4.93 5.18 7.68 1.93 3.96 3.32 8.18 4.97 12.28.64 1.6 1.98 3.22 1.88 4.76-.16 2.53 1.09 4.54 1.5 6.81 1.53 8.56 3.02 17.12 2.61 25.87-.18 3.93-.52 7.86-.81 12.19H378.3c.57 2.68.72 4.98 1.56 6.99 2.12 5.01 4.14 10.14 6.99 14.73 2.7 4.35 6.8 7.4 11.29 10.24 9.33 5.89 19.44 7.37 29.84 6.17 8.18-.94 16.18-3.02 22.67-9.27 3.56-3.43 7.56-6.35 10.32-10.57.35-.53 1.45-.8 2.2-.8l49.86.03.42.44zm-66.78-79.84c-6.24-3.51-12.88-5.7-20.06-6.25-2.29-.18-4.61-1.06-6.84-.85-2.94.27-5.81 1.32-8.71 2.01-9 2.15-16.47 6.68-22.27 13.97-4.47 5.62-7.24 12.04-9.28 18.94h88.13c-.84-2.17-1.42-4.08-2.28-5.85-2.62-5.41-4.82-11.1-9.71-15.05l-6.69-5.41-.6-.38-1.1-.75-.6-.38zm883.85 67.4c-.76 3.79-1.32 7.63-2.36 11.35-.69 2.45-2.11 4.68-3.13 7.05l-4.74 11.2c-.51 1.15-1.52 2.06-2.2 3.14-1.71 2.72-3.12 5.67-5.12 8.15-2.69 3.33-5.71 6.44-8.81 9.41-3.71 3.54-7.43 7.13-11.56 10.15-3.59 2.63-7.64 4.74-11.7 6.61-5.61 2.59-11.31 5.08-17.18 6.95-4.06 1.3-8.45 1.62-12.72 2.14-4.81.59-9.68 1.45-14.48 1.26-9.49-.37-18.91-1.23-28.18-3.89-7.66-2.2-14.94-5.15-21.75-9.06-8.54-4.91-16.22-11.02-22.74-18.53-9-10.38-15.97-21.92-19.9-35.07-1.87-6.24-3.08-12.75-3.78-19.23-.73-6.79-1.06-13.73-.58-20.53 1.29-18.14 7.19-34.72 18.33-49.28 9.56-12.5 21.35-22.29 35.74-28.76 8.53-3.83 17.45-6.5 26.81-7.53 2.88-.32 5.72-1.04 8.58-1.57l1.2.35h12.92l1.26-.36c2.7.54 5.38 1.16 8.1 1.6 4.14.66 8.61.42 12.39 1.93 9.9 3.95 19.77 7.99 28.79 14 6.04 4.02 10.52 9.5 15.87 14.14 2.96 2.56 4.73 6.54 6.9 9.96 2.45 3.86 5.13 7.64 6.99 11.77 1.87 4.16 2.91 8.71 4.2 13.12.72 2.47 1.2 5 1.78 7.51l-.1 1.05h-48.19c-3.35-4.78-5.97-9.81-9.79-13.66-5.25-5.3-11.43-9.51-18.86-11.79-6.23-1.9-12.45-3.09-18.92-2.68-9.33.59-18 3.22-25.38 9.2-8.14 6.59-13.88 14.83-16.58 24.99-1.67 6.27-2.92 12.65-1.69 19.19.64 3.42 1.7 6.79 2.07 10.23.68 6.38 3.48 11.83 7.21 16.75 4.85 6.4 10.43 12.14 18.08 15.31 6.08 2.52 12.25 4.44 19 3.98 5.93-.4 11.81-.73 17.39-3.1 5.66-2.4 11.02-5.4 15.13-9.92 3.36-3.7 5.99-8.07 8.84-12.22.95-1.38 1.39-3.12 2.38-4.45.46-.62 1.68-.94 2.57-.95l29.19-.07 18.14-.07.59.2zm-194.2 33.29c.03.64.11 1.47.11 2.3l.06 38.2c.02 2.53-.73 3.15-3.2 3.14-12.84-.1-25.69.26-38.53-.1-5.2-.14-10.46-1.33-15.52-2.7-4.55-1.24-9.01-3.08-13.23-5.2-6.76-3.4-12.29-8.24-16.98-14.38-4.25-5.56-7.2-11.53-9.37-18.03-2.21-6.64-3.35-13.46-3.35-20.47v-87.05h-33.44l.05-10.27c.02-.61.67-1.29 1.17-1.79l73.82-73.54c1.38-1.37 4.17-1.31 6.87-2.08v47.9h3.69l43.64-.05c2.4-.02 3.27.48 3.23 3.08v33.67c.04 2.62-.85 3.09-3.24 3.08l-42.5-.05h-3.48c-.07 1.25-.16 2.17-.16 3.08l.1 77.49c.04 4.72 1.33 9.49 4.98 13.1 2.27 2.25 4.24 4.94 6.86 6.64 2.21 1.44 5.12 2.27 7.78 2.46 10.07.71 20.16 1.06 30.62 1.56zm-551.46 43.44h-49.31V96.69h49.31v192.4z"/><path fill="#35b66b" d="m565.03 47.74 10.89-10.54 8.93-8.84v49.05h-49.08a.74.74 0 0 0-.04-.39l15.3-15.58 2.86-3.05 11.13-10.65z"/><path fill="#fff" d="M565.03 47.74 553.9 58.39c.39-.9.58-1.98 1.21-2.66l6.98-6.95c.71-.64 1.95-.71 2.94-1.04zm-321.29-4.13-5.09-5.07 1.16-.96 4.88 4.86c.05.05-.62.76-.95 1.17zM783.95 312.5l2.3-4.51c.3.58.97 1.31.82 1.71-.54 1.38-.94 3.15-3.11 2.8zm-52.1-40.23 6.24-3.4c-.58 2.31-3.92 4.13-6.24 3.4zM632.53 119.8l-4.62 4.63c.1-2.44 2.15-4.5 4.62-4.63zM234.1 180.13l-3.03-2.11 2.47-2.01.57 4.12zm26.62-112.74-1.16-2.25 2.11 1.27-.95.98zm229.63 195.23 1.07-1.07.5 1.57-1.58-.5zM358.88 120.09l-2.26 1.72c.23-2.32.51-2.53 2.26-1.72zm-5.01 4.52-1.75 2.25c-.81-1.77-.59-2.06 1.75-2.25zm154.52 112.96.73-1.47.61 1.47h-1.34zm235.36 27.88 2.21-1.16v1.81l-2.21-.66zm23.81 67.94.51-.51 1 .66-.84.84-.66-1zM657.07 103.67l-1.73 1.03c.06-1.21.15-2.36 1.73-1.03zm15.26 201.59-1.77-1.18 1.77 1.18zM371.39 110.43l-1.77 1.2 1.77-1.2z"/><path fill="#49be79" d="m1346.21 241.68.8 1.7-.8-1.7z"/><path fill="#fff" d="m255.59 58.35-.51-.55.86-.3-.35.85z"/><path fill="#b3e4c7" d="m1230.26 96.69-1.2-.35 1.2.35z"/><path fill="#fff" d="m613.74 232.82 1.07 1.5-1.07-1.5z"/><path fill="#b3e4c7" d="m1244.44 96.33-1.26.36 1.26-.36Z"/><path fill="#ccedda" d="m1330.51 212.36-.59-.2.43-.6.15.8z"/><path fill="#66c88f" d="m1329.35 171.4.1-1.05-.1 1.05zm-815.91 53.4-.42-.44.42.44z"/><path fill="#49be79" d="m335.62 152.89-.45.55.45-.55z"/><path fill="#66c88f" d="M535.74 77.02a.75.75 0 0 1 .04.39l-.47-.12.43-.27z"/><path fill="#fff" d="m766.36 334.08.66-.5-.66.5z"/><path fill="#43bb75" d="m1480.77 174.37-.43-.55.43.55z"/><path fill="#3ab86f" d="m448.97 146.48-.6-.38.6.38zm-1.7-1.14-.6-.38.6.38z"/></svg>