<svg width="1920" height="206" viewBox="0 0 1920 206" fill="none" xmlns="http://www.w3.org/2000/svg">
<path opacity="0.5" d="M483.771 71.9619C477.464 71.6288 468.77 76.4313 468.77 76.4313C468.77 76.4313 462.828 74.4867 458.379 74.8197C453.92 75.1528 450.761 74.5296 450.761 74.5296C448.74 75.1098 446.688 77.9246 449.514 81.8891C452.34 85.8535 457.401 88.0237 462.205 86.8634C467.964 85.4667 466.976 81.2014 466.976 81.2014C466.976 81.2014 475.121 82.3296 481.182 80.9007C485.372 79.9123 489.832 72.2842 483.771 71.9619Z" fill="#C6825D"/>
<path opacity="0.5" d="M444.055 71.8865C440.681 71.3815 422.188 67.3848 422.188 67.3848C420.662 67.6748 416.031 69.7376 419.394 74.2393C422.768 78.7409 428.141 83.0599 433.632 83.7582C439.542 84.5103 444.657 82.7805 446.645 79.4822C448.644 76.1839 447.419 72.3914 444.045 71.8865H444.055Z" fill="#C6825D"/>
<path opacity="0.5" d="M1425.05 111.402C1419 110.467 1379.4 134.995 1379.4 134.995C1378.86 134.995 1375.53 135.371 1376.47 140.518C1377.4 145.664 1379.27 149.37 1387.54 150.788C1395.8 152.196 1406.87 151.852 1410.6 149.295C1414.33 146.738 1413.39 141.775 1411.66 140.195C1409.93 138.605 1406.6 137.144 1406.6 137.144C1406.6 137.144 1409.72 137.563 1417.18 131.944C1424.65 126.325 1431 122.984 1432.34 119.266C1432.6 118.504 1432.72 117.773 1432.67 117.075C1439.31 117.418 1447.44 114.453 1445.06 111.585C1441.42 107.201 1427.98 111.875 1425.05 111.423V111.402Z" fill="#C6825D"/>
<path d="M1978.37 205.754C1929.68 205.754 1875.56 200.629 1839.42 196.428C1738.54 184.707 1635.69 163.993 1557.23 139.604C1400.61 90.9246 1212.91 85.5849 1089.47 96.8229C1044.02 100.959 992.203 114.722 932.21 130.655C835.649 156.3 715.48 188.209 566.792 192.979C414.311 197.878 332.623 169.569 266.988 146.835C228.497 133.502 198.087 122.962 160.38 121.426C121.416 119.857 71.9432 133.405 17.3444 160.662C-26.3582 182.472 -57.6067 205.334 -57.9183 205.56L-112.162 132.084C-110.68 130.988 -75.3908 105.053 -25.0473 79.7511C44.9071 44.5976 108.554 27.9126 164.098 30.1795C215.269 32.2638 254.921 46.005 296.893 60.5413C358.466 81.8783 428.259 106.063 563.859 101.701C702.113 97.2634 811.901 68.1048 908.763 42.3843C972.764 25.3878 1028.04 10.7118 1081.2 5.86642C1213.37 -6.15581 1414.95 -0.257454 1584.34 52.3868C1749.13 103.602 1981.24 124.509 2034.14 109.995L2058.32 198.061C2037.8 203.701 2009.16 205.754 1978.38 205.754H1978.37Z" fill="#FFD290"/>
<path opacity="0.5" d="M718.769 180.001C715.373 179.678 696.697 176.681 696.697 176.681C695.192 177.046 690.669 179.356 694.279 183.675C697.89 187.994 703.488 192.023 709.001 192.42C714.943 192.85 719.951 190.852 721.767 187.457C723.583 184.062 722.164 180.334 718.769 180.011V180.001Z" fill="#C6825D"/>
<path d="M713.525 169.955C710.849 169.955 704.799 170.213 699.598 173.114C694.397 176.014 693.248 180 695.107 182.471C696.966 184.942 701.79 187.929 705.025 190.207C708.259 192.474 718.382 190.368 720.004 187.22C721.627 184.072 721.057 181.386 719.596 177.336C718.135 173.286 716.695 169.966 713.525 169.966V169.955Z" fill="#676767"/>
<path d="M713.686 171.266C711.01 170.385 705.67 171.33 700.974 173.232C696.278 175.133 698.384 178.947 704.294 183.062C710.204 187.177 713.933 182.837 715.706 178.969C717.49 175.101 715.437 171.846 713.686 171.266Z" fill="#878787"/>
<path opacity="0.5" d="M342.455 160.694C337.061 160.178 307.392 155.419 307.392 155.419C304.995 156.01 297.817 159.673 303.545 166.528C309.272 173.382 318.17 179.786 326.938 180.42C336.384 181.107 344.335 177.927 347.226 172.534C350.106 167.14 347.849 161.22 342.455 160.705V160.694Z" fill="#C6825D"/>
<path d="M334.138 144.74C329.893 144.74 320.276 145.148 312.012 149.746C303.749 154.345 301.922 160.694 304.867 164.616C307.811 168.537 315.483 173.297 320.63 176.896C325.778 180.495 341.853 177.154 344.432 172.147C347 167.14 346.108 162.875 343.787 156.44C341.477 150.004 339.177 144.74 334.138 144.729V144.74Z" fill="#676767"/>
<path d="M334.396 146.824C330.151 145.427 321.662 146.931 314.205 149.95C306.747 152.969 310.089 159.018 319.481 165.561C328.872 172.104 334.793 165.196 337.619 159.05C340.446 152.905 337.19 147.737 334.406 146.824H334.396Z" fill="#878787"/>
<path opacity="0.5" d="M378.055 177.895C372.661 177.379 342.992 172.62 342.992 172.62C340.596 173.211 333.418 176.874 339.145 183.729C344.873 190.583 353.77 196.986 362.539 197.62C371.984 198.308 379.936 195.128 382.826 189.734C385.706 184.341 383.45 178.421 378.055 177.905V177.895Z" fill="#C6825D"/>
<path d="M369.738 161.94C365.494 161.94 355.876 162.349 347.613 166.947C339.349 171.545 337.523 177.895 340.467 181.816C343.411 185.738 351.084 190.497 356.231 194.096C361.378 197.696 377.454 194.354 380.033 189.348C382.601 184.341 381.709 180.076 379.388 173.64C377.078 167.205 374.778 161.94 369.738 161.93V161.94Z" fill="#676767"/>
<path d="M369.996 164.025C365.752 162.628 357.263 164.132 349.805 167.151C342.348 170.17 345.689 176.219 355.081 182.762C364.473 189.305 370.394 182.396 373.22 176.251C376.046 170.106 372.79 164.938 370.007 164.025H369.996Z" fill="#878787"/>
<path opacity="0.5" d="M905.862 143.676C898.522 142.978 858.172 136.5 858.172 136.5C854.916 137.295 845.159 142.28 852.95 151.605C860.74 160.931 872.84 169.633 884.768 170.493C897.609 171.427 908.43 167.108 912.352 159.77C916.274 152.432 913.201 144.385 905.862 143.676Z" fill="#C6825D"/>
<path d="M894.546 121.985C888.776 121.974 875.698 122.543 864.458 128.796C853.218 135.049 850.736 143.676 854.744 149.016C858.752 154.355 869.176 160.823 876.182 165.722C883.177 170.621 905.045 166.066 908.548 159.265C912.051 152.464 910.826 146.652 907.678 137.917C904.529 129.172 901.413 122.006 894.557 121.985H894.546Z" fill="#676767"/>
<path d="M894.901 124.821C889.13 122.919 877.579 124.971 867.435 129.075C857.291 133.18 861.836 141.409 874.602 150.305C887.368 159.201 895.417 149.811 899.264 141.452C903.111 133.094 898.673 126.067 894.89 124.821H894.901Z" fill="#878787"/>
<path d="M473.864 69.5118C470.457 70.2746 466.557 71.897 466.557 71.897L466.277 77.3548C466.03 79.1812 469.211 80.5242 473.875 80.4705C479.398 80.4061 483.363 79.4821 484.685 76.8714C485.308 75.6574 485.663 74.497 485.684 73.5086C485.695 73.4871 485.706 73.4763 485.706 73.4763L485.953 68.2334C485.953 68.2334 477.259 68.7598 473.853 69.5226L473.864 69.5118Z" fill="#676767"/>
<path d="M484.459 65.3864C482.009 64.3227 480.515 65.2789 475.734 66.3211C472.263 67.0731 468.459 68.9855 467.062 70.726C465.181 73.0681 468.641 74.959 474.165 74.8945C479.688 74.8301 483.653 73.9061 484.975 71.2954C486.307 68.6847 486.522 66.2996 484.438 65.3971L484.459 65.3864Z" fill="#878787"/>
<path d="M472.327 82.9525C471.059 81.9534 469.447 82.7269 469.372 83.2534C469.222 84.1988 470.694 84.3815 471.317 84.3062C471.94 84.2418 473.208 83.6294 472.338 82.9418L472.327 82.9525Z" fill="#878787"/>
<path d="M447.73 84.0595C446.462 83.0603 444.85 83.8339 444.775 84.3603C444.625 85.3058 446.097 85.4884 446.72 85.4132C447.343 85.3487 448.611 84.7363 447.741 84.0487L447.73 84.0595Z" fill="#878787"/>
<path d="M448.902 85.6383C448.579 85.7458 448.321 86.036 448.386 86.4012C448.461 86.8632 448.977 87.0888 449.342 87.2822C450.019 87.6367 451.395 88.3029 451.803 87.1855C452.168 86.1649 449.815 85.3375 448.912 85.6491L448.902 85.6383Z" fill="#878787"/>
<path d="M488.961 76.5816C487.629 76.6353 487.296 77.5163 487.93 78.4187C488.564 79.3212 489.939 79.1171 490.692 78.5692C491.444 78.0212 490.691 76.5171 488.961 76.5816Z" fill="#676767"/>
<path d="M474.895 82.9525C473.842 84.1128 474.562 85.2517 476.067 86.3906C477.571 87.5294 478.57 86.1219 478.27 84.693C477.969 83.2748 476.163 81.5665 474.906 82.9525H474.895Z" fill="#676767"/>
<path d="M459.808 72.2196C457.047 71.0592 453.307 71.575 450.363 74.9593C447.913 77.7634 448.912 80.965 453.64 84.1344C458.368 87.3038 465.074 86.2939 465.31 81.846C465.547 77.3981 463.107 73.6163 459.798 72.2303L459.808 72.2196Z" fill="#676767"/>
<path d="M455.779 74.0139C453.683 75.7544 452.845 79.0312 456.456 81.5989C460.066 84.1667 465.342 82.5122 463.355 77.4305C461.367 72.3487 457.283 72.7676 455.779 74.0139Z" fill="#878787"/>
<path d="M439.37 61.5725C436.705 61.4221 430.645 61.3576 425.293 63.9791C419.942 66.5898 418.577 70.522 420.297 73.0897C422.016 75.6575 426.68 78.902 429.785 81.3409C432.901 83.7797 443.12 82.2112 444.904 79.16C446.688 76.098 446.269 73.3905 445.033 69.2649C443.797 65.1393 442.529 61.7551 439.359 61.5725H439.37Z" fill="#676767"/>
<path d="M439.456 62.894C436.834 61.8734 431.451 62.5287 426.658 64.1832C421.865 65.827 423.767 69.7485 429.441 74.175C435.126 78.6014 439.08 74.465 441.057 70.694C443.045 66.9229 441.165 63.5709 439.445 62.894H439.456Z" fill="#878787"/>
<path d="M1435.75 103.634C1431.75 102.377 1427.99 102.42 1425.47 103.291C1426.24 106.299 1429.38 109.49 1434.87 109.683C1439.06 109.823 1441.3 108.791 1442.5 107.642C1441.32 106.17 1439.26 104.741 1435.75 103.634Z" fill="#878787"/>
<path d="M1434.87 109.683C1429.38 109.49 1426.24 106.299 1425.47 103.291C1423.73 103.892 1422.57 104.881 1422.36 106.116C1422.36 106.116 1420.94 109.5 1422.36 111.918C1423.78 114.335 1430.73 115.066 1434.88 115.012C1439.02 114.958 1443.85 114.034 1443.91 111.574C1443.93 110.392 1443.61 109.006 1442.51 107.642C1441.31 108.791 1439.08 109.823 1434.88 109.683H1434.87Z" fill="#878787"/>
<path opacity="0.5" d="M1434.87 109.683C1429.38 109.49 1426.24 106.299 1425.47 103.291C1423.73 103.892 1422.57 104.881 1422.36 106.116C1422.36 106.116 1420.94 109.5 1422.36 111.918C1423.78 114.335 1430.73 115.066 1434.88 115.012C1439.02 114.958 1443.85 114.034 1443.91 111.574C1443.93 110.392 1443.61 109.006 1442.51 107.642C1441.31 108.791 1439.08 109.823 1434.88 109.683H1434.87Z" fill="#676767"/>
<path d="M1421.4 103.795C1412.83 99.0251 1402.86 98.5954 1398.46 98.6061C1393.24 98.6169 1390.87 104.085 1388.46 110.746C1386.06 117.408 1385.13 121.834 1387.79 127.023C1390.46 132.212 1407.13 135.683 1412.46 131.944C1417.79 128.205 1425.74 123.284 1428.79 119.213C1431.85 115.141 1429.96 108.566 1421.39 103.795H1421.4Z" fill="#676767"/>
<path d="M1419.13 103.999C1411.39 100.873 1402.6 99.315 1398.2 100.755C1395.32 101.7 1391.93 107.061 1394.86 113.432C1397.8 119.803 1403.93 126.959 1413.66 120.179C1423.39 113.4 1426.85 107.126 1419.13 103.999Z" fill="#878787"/>
<path d="M1378.36 128.13L1378.31 136.768C1378.31 136.768 1378.32 136.79 1378.34 136.822C1378.28 138.455 1378.78 140.389 1379.68 142.441C1381.64 146.857 1388.06 148.726 1397.14 149.317C1404.79 149.822 1410.15 147.888 1409.91 144.869H1409.92L1409.94 135.877C1409.94 135.877 1403.68 132.868 1398.14 131.31C1392.61 129.753 1378.36 128.13 1378.36 128.13Z" fill="#676767"/>
<path d="M1395.34 125.885C1387.57 123.758 1385.19 122.049 1381.08 123.586C1377.58 124.896 1377.73 128.829 1379.68 133.244C1381.64 137.66 1388.06 139.529 1397.14 140.12C1406.22 140.711 1412.09 137.907 1409.2 133.889C1407.06 130.913 1400.97 127.432 1395.34 125.885Z" fill="#878787"/>
<path d="M1381.93 118.407C1379.76 116.871 1377.18 118.3 1377.09 119.17C1376.93 120.738 1379.36 120.9 1380.38 120.738C1381.39 120.566 1383.42 119.471 1381.94 118.407H1381.93Z" fill="#878787"/>
<path d="M1369.23 141.538C1368.71 141.742 1368.3 142.247 1368.44 142.838C1368.61 143.59 1369.47 143.913 1370.09 144.192C1371.24 144.718 1373.56 145.696 1374.12 143.816C1374.63 142.108 1370.69 140.958 1369.23 141.538Z" fill="#878787"/>
<path d="M1376.1 146.545C1374.48 146.663 1372.09 148.704 1372.54 150.874C1372.98 153.044 1376.53 151.798 1377.78 150.197C1379.03 148.597 1377.88 146.405 1376.1 146.534V146.545Z" fill="#878787"/>
<path opacity="0.5" d="M1214.03 92.3535C1202.76 92.3535 1187.77 101.733 1187.77 101.733C1187.77 101.733 1177.03 98.8428 1169.13 99.8528C1161.23 100.863 1155.55 100.057 1155.55 100.057C1152 101.292 1148.63 106.482 1154.03 113.261C1159.44 120.04 1168.65 123.435 1177.08 120.91C1187.2 117.881 1185.03 110.382 1185.03 110.382C1185.03 110.382 1199.63 111.617 1210.28 108.501C1217.65 106.342 1224.85 92.3428 1214.03 92.3535Z" fill="#C6825D"/>
<path d="M1196.17 88.937C1190.17 90.6237 1183.4 93.8791 1183.4 93.8791L1183.42 103.602H1183.43C1183.18 106.868 1188.97 108.953 1197.24 108.415C1207.06 107.771 1214.02 105.751 1216.13 100.97C1217.12 98.7459 1217.65 96.651 1217.59 94.889C1217.62 94.8568 1217.64 94.8353 1217.64 94.8353L1217.57 85.4883C1217.57 85.4883 1202.15 87.2502 1196.17 88.9262V88.937Z" fill="#676767"/>
<path d="M1214.64 80.5781C1210.18 78.9128 1207.61 80.7608 1199.21 83.0707C1193.11 84.736 1186.53 88.507 1184.21 91.7301C1181.08 96.0813 1187.43 99.1218 1197.25 98.4772C1207.07 97.8326 1214.03 95.8127 1216.14 91.0317C1218.26 86.2615 1218.42 81.9963 1214.63 80.5781H1214.64Z" fill="#878787"/>
<path d="M1194.73 112.992C1192.37 111.327 1189.58 112.874 1189.49 113.819C1189.32 115.517 1191.94 115.7 1193.05 115.517C1194.15 115.334 1196.34 114.142 1194.74 113.003L1194.73 112.992Z" fill="#878787"/>
<path d="M1151.07 117.311C1148.71 115.646 1145.92 117.193 1145.83 118.138C1145.66 119.836 1148.28 120.018 1149.39 119.836C1150.49 119.653 1152.68 118.461 1151.08 117.322L1151.07 117.311Z" fill="#878787"/>
<path d="M1153.3 119.997C1152.74 120.212 1152.3 120.76 1152.45 121.394C1152.64 122.199 1153.57 122.554 1154.23 122.866C1155.47 123.435 1157.98 124.488 1158.59 122.457C1159.15 120.609 1154.88 119.363 1153.29 119.997H1153.3Z" fill="#878787"/>
<path d="M1199.29 112.756C1197.53 114.915 1198.92 116.881 1201.7 118.751C1204.49 120.62 1206.13 118.031 1205.45 115.528C1204.77 113.024 1201.4 110.177 1199.29 112.756Z" fill="#676767"/>
<path d="M1171.42 95.0929C1166.39 93.2879 1159.8 94.5664 1154.87 100.862C1150.78 106.084 1152.86 111.681 1161.59 116.87C1170.31 122.06 1182.13 119.61 1182.13 111.681C1182.13 103.752 1177.43 97.2631 1171.41 95.0929H1171.42Z" fill="#676767"/>
<path d="M1164.42 98.6811C1160.86 101.979 1159.69 107.888 1166.36 112.122C1173.03 116.355 1182.26 112.895 1178.22 104.042C1174.18 95.2001 1166.98 96.3175 1164.42 98.6811Z" fill="#878787"/>
<path opacity="0.5" d="M1143.37 96.0062C1137.32 95.4261 1104.04 90.0864 1104.04 90.0864C1101.36 90.7418 1093.31 94.8566 1099.74 102.549C1106.16 110.242 1116.14 117.408 1125.98 118.128C1136.56 118.901 1145.49 115.334 1148.72 109.285C1151.96 103.237 1149.42 96.5971 1143.37 96.017V96.0062Z" fill="#C6825D"/>
<path d="M1134.05 78.1073C1129.29 78.0966 1118.51 78.5694 1109.23 83.7264C1099.96 88.8834 1097.92 95.9956 1101.23 100.401C1104.54 104.805 1113.13 110.134 1118.91 114.174C1124.68 118.214 1142.71 114.464 1145.6 108.845C1148.48 103.237 1147.48 98.4453 1144.88 91.2362C1142.28 84.0272 1139.71 78.1182 1134.06 78.0967L1134.05 78.1073Z" fill="#676767"/>
<path d="M1134.34 80.4497C1129.58 78.8811 1120.06 80.5679 1111.68 83.9521C1103.31 87.3364 1107.06 94.1265 1117.59 101.464C1128.13 108.802 1134.77 101.056 1137.94 94.1587C1141.11 87.2719 1137.45 81.4703 1134.33 80.4389L1134.34 80.4497Z" fill="#878787"/>
</svg>
