<svg xmlns="http://www.w3.org/2000/svg" xmlns:xlink="http://www.w3.org/1999/xlink" viewBox="0 0 8.63 8.63">
  <defs>
    <linearGradient id="c" x2="1" y1=".499" y2=".499">
      <stop offset="0" stop-color="#fff18f"/>
      <stop offset="1" stop-color="#fffae3"/>
    </linearGradient>
    <linearGradient id="b" x2="1" y1=".501" y2=".501">
      <stop offset="0" stop-color="#ab5f0b"/>
      <stop offset="1" stop-color="#753c00"/>
    </linearGradient>
    <linearGradient id="a" x2="1" y1=".499" y2=".499">
      <stop offset="0" stop-color="#eda85f"/>
      <stop offset="1" stop-color="#a36700"/>
    </linearGradient>
    <linearGradient id="d" x2="1" y1=".501" y2=".501">
      <stop offset="0" stop-color="#a15900"/>
      <stop offset="1" stop-color="#e39644"/>
    </linearGradient>
    <linearGradient xlink:href="#a" id="e" x1="0" y1=".5" y2=".5"/>
    <linearGradient id="f" x2="1" y1=".501" y2=".501">
      <stop offset="0" stop-color="#6e4500"/>
      <stop offset="1" stop-color="#cf9353"/>
    </linearGradient>
    <linearGradient id="g" x2="1" y1=".501" y2=".501">
      <stop offset="0" stop-color="#ffbe45"/>
      <stop offset="1" stop-color="#fff0ab"/>
    </linearGradient>
    <linearGradient id="h" x1=".5" x2=".5" y1="1">
      <stop offset="0" stop-color="#f72f2f"/>
      <stop offset="1" stop-color="#ff8a8a"/>
    </linearGradient>
    <linearGradient id="i" x1=".678" x2=".5" y1=".678" y2=".5">
      <stop offset="0" stop-color="#ff8c8c"/>
      <stop offset="1" stop-color="#ff5252"/>
    </linearGradient>
    <linearGradient id="j" x2="1" y1=".5" y2=".5">
      <stop offset="0" stop-color="#ff5e5e"/>
      <stop offset="1" stop-color="#b80000"/>
    </linearGradient>
    <linearGradient id="k" x1=".502" x2=".321" y1=".5" y2=".322">
      <stop offset="0" stop-color="#f66"/>
      <stop offset="1" stop-color="#de0000"/>
    </linearGradient>
    <linearGradient xlink:href="#b" id="l" x1="0" y1=".5" y2=".5"/>
  </defs>
  <g fill-rule="evenodd">
    <path fill="url(#c)" d="M.81 4.31 4.31.8V0L0 4.31z"/>
    <path fill="url(#b)" d="M4.31.8.81 4.31h.8l2.7-2.7V.8z"/>
    <path fill="url(#a)" d="M7.82 4.31 4.31.8V0l4.32 4.31z"/>
    <path fill="url(#d)" d="m4.31.8 3.51 3.51h-.8l-2.71-2.7V.8z"/>
    <path fill="url(#e)" d="m.81 4.31 3.5 3.51v.81L0 4.31z"/>
    <path fill="url(#f)" d="M4.31 7.82.81 4.31h.8l2.7 2.7v.81z"/>
    <path fill="url(#g)" d="m4.31 7.82 3.51-3.51h-.8l-2.71 2.7v.81z"/>
    <path fill="url(#h)" d="m2.57 4.31 1.74-1.74 1.74 1.74-1.74 1.74-1.74-1.74z"/>
    <path fill="url(#i)" d="m2.57 4.31 1.74-1.74v-.96l-2.7 2.7z"/>
    <path fill="url(#j)" d="M6.05 4.31 4.31 2.57v-.96l2.71 2.7zm-3.48 0 1.74 1.74v.96l-2.7-2.7z"/>
    <path fill="url(#k)" d="M6.05 4.31 4.31 6.05v.96l2.71-2.7z"/>
    <path fill="url(#l)" d="M7.82 4.31 4.31 7.82v.81l4.32-4.32z"/>
  </g>
</svg>
