<svg width="260" height="208" viewBox="0 0 260 208" fill="none" xmlns="http://www.w3.org/2000/svg">
<path d="M155.314 49.0865C152.824 40.5995 145.77 33.5615 137.263 31.0775C128.756 28.5935 118.797 30.6635 112.364 36.8735C105.932 43.0835 103.235 52.8125 105.932 61.2995C107.8 67.5095 112.364 72.8915 111.949 79.3085C111.949 81.9995 110.705 84.6905 108.422 85.9325C106.347 87.1745 102.82 86.3465 101.99 83.8625C102.82 89.4515 105.517 95.6615 110.705 97.7315C115.892 99.8015 122.116 98.7665 126.474 95.0405C129.586 92.5565 131.453 88.8305 133.113 85.1045C135.188 80.4125 136.986 75.6515 138.508 70.8215C139.545 67.3025 140.583 63.5765 142.658 60.4715C144.732 57.3665 148.467 55.0895 151.994 55.7105C154.277 54.6755 156.144 51.3635 155.314 49.0865Z" fill="#EB690C"/>
<path d="M152.202 50.9496C151.787 46.3956 148.467 43.0836 144.11 41.6346C139.753 40.1856 134.981 40.3926 130.416 41.4276C128.064 41.8416 125.782 42.3936 123.569 43.0836C120.456 41.6346 116.307 41.2206 112.779 41.8416C106.555 41.2206 99.9152 42.8766 94.9355 46.6026C89.5409 50.5356 86.0136 56.7456 85.1836 63.1626C83.5237 74.9616 90.3708 86.3466 91.4083 98.1456C91.6157 102.7 90.9933 107.668 87.6735 110.773C85.5986 113.05 82.6938 114.085 79.9965 114.913C76.2617 115.948 72.3194 116.569 68.7922 115.327C62.9825 113.464 59.2478 107.047 59.4552 101.044C59.6627 94.8336 63.605 89.2446 68.5847 85.7256C62.775 83.0346 56.3429 82.4136 51.1558 85.9326C45.9686 89.4516 42.4413 95.0406 40.9889 101.251C39.9515 105.184 39.9515 109.324 40.5739 113.257C38.2916 115.948 36.6317 119.053 35.3867 122.158C32.6894 130.852 34.3493 140.374 38.4991 148.24C40.5739 152.173 43.4787 155.899 47.2135 158.383C50.9483 160.867 55.513 162.316 60.0777 161.488C59.2478 164.593 60.2852 167.491 62.3601 169.975C64.2274 172.459 67.1323 174.115 70.0371 175.357C86.2211 182.809 105.932 178.876 121.286 169.768C129.378 164.8 137.055 158.176 141.205 149.482C145.977 139.753 146.185 128.575 144.94 117.811C143.487 107.047 140.79 96.4896 139.753 85.9326C139.13 79.3086 139.13 72.6846 140.998 66.4746C142.865 60.2646 146.6 54.4686 152.202 50.9496Z" fill="#EB690C"/>
<path d="M128.341 53.6414C124.606 54.2624 121.494 56.5394 119.419 59.4374C117.137 62.3354 115.892 65.8544 115.062 69.3734C111.742 83.6564 115.892 98.5604 114.232 113.257C113.817 115.534 113.402 118.018 112.364 120.088C111.12 122.158 109.252 123.4 106.97 124.021C109.46 129.61 108.837 136.441 105.517 141.409C102.198 146.584 96.1805 149.896 89.9558 149.896C85.8061 149.896 82.2788 147.619 80.6189 143.686C78.1291 147.826 73.1494 149.896 68.7922 149.068C64.2274 148.24 60.7002 144.1 60.0777 139.546C56.3429 141.202 51.7782 140.581 48.2509 138.511C44.7237 136.441 42.2338 132.922 40.7814 129.196C37.2541 120.088 39.9515 110.359 49.2884 106.426C51.5707 105.391 54.0606 104.977 56.5504 105.598C58.8328 106.426 60.9077 108.496 60.9077 110.773C57.3804 113.257 55.098 118.639 55.7205 122.779C56.3429 126.919 59.0403 130.852 62.5676 133.336C67.3398 136.855 73.3569 138.304 79.1665 137.062C84.9762 136.027 90.1633 132.301 93.2756 127.333C96.1805 122.779 97.0104 117.19 97.6329 111.601C98.6703 102.907 99.0853 94.0064 100.745 85.3124C102.405 76.8254 105.31 68.1314 110.705 61.3004C114.647 56.3324 122.116 52.3994 128.341 53.6414Z" fill="#FEAA0F"/>
<path style="mix-blend-mode:overlay" d="M150.335 46.1884C145.562 40.8064 138.715 37.2874 131.453 36.6664C124.399 35.8384 116.929 37.7014 111.12 42.0484C113.402 41.6344 115.477 41.8414 117.344 43.0834C112.779 44.3254 108.63 45.5674 104.48 47.8444C100.33 49.9144 96.5954 53.2264 94.5206 57.3664C90.7858 65.0254 93.0682 74.1334 95.973 82.2064C95.143 72.6844 99.5003 62.9554 106.555 56.5384C113.402 50.1214 123.361 47.2234 132.698 48.8794C131.661 47.0164 130.416 44.7394 128.341 43.9114C136.018 42.2554 143.28 42.4624 150.335 46.1884Z" fill="url(#paint0_linear_1_10259)"/>
<g style="mix-blend-mode:multiply" opacity="0.4">
<path d="M143.073 57.7809C136.433 56.9529 129.586 60.4719 125.436 65.6469C121.494 71.0289 119.626 77.8599 119.419 84.6909C119.212 91.3149 120.456 97.9389 121.909 104.563C122.116 101.251 123.154 98.3529 125.229 95.4549C127.304 104.149 126.889 113.464 124.191 121.951C122.739 126.712 119.834 131.68 115.062 132.715C116.514 134.164 117.759 134.992 119.834 134.164C117.967 143.065 111.949 151.138 103.65 154.45C95.143 157.969 85.1836 156.934 77.7141 151.759C77.7141 155.071 78.5441 157.555 81.0339 159.832C76.2617 160.246 70.4521 158.797 67.9622 154.657C67.3398 160.246 68.9996 165.628 73.5644 169.147C78.1291 173.08 84.5612 174.115 90.3708 173.908C101.99 173.701 113.402 169.768 122.324 162.73C131.453 155.692 138.093 145.756 141.205 134.578C148.052 109.945 135.81 82.2069 143.073 57.7809Z" fill="#782C0A"/>
</g>
<path d="M162.576 55.5027C161.124 52.1907 159.049 49.9137 156.559 47.4297C152.202 49.4997 148.467 53.0187 146.185 57.1587C146.392 59.0217 147.015 60.8847 147.845 62.7477C152.617 61.9197 159.049 58.6077 162.576 55.5027Z" fill="#67CFC6"/>
<path d="M191.417 47.4297C218.39 60.0567 228.765 137.061 209.468 162.936C183.325 164.178 155.729 156.726 135.603 140.166C134.358 119.466 132.007 98.8347 128.548 78.2727C140.375 61.7127 169.838 47.4297 191.417 47.4297Z" fill="url(#paint1_linear_1_10259)"/>
<path style="mix-blend-mode:overlay" d="M136.433 73.7187C136.295 73.7187 136.225 73.6497 136.225 73.5117C134.427 75.3057 132.836 77.1687 131.453 79.1007C134.773 98.7657 137.055 118.845 138.3 138.717C139.96 140.097 141.758 141.408 143.695 142.65C143.902 119.466 145.355 96.0747 136.433 73.7187Z" fill="url(#paint2_linear_1_10259)"/>
<g style="mix-blend-mode:multiply" opacity="0.2">
<path d="M164.651 122.364C163.406 103.32 162.784 82.2057 155.107 64.6107C154.553 63.2307 154.277 61.9197 154.277 60.6777C149.09 63.5757 144.11 66.6807 139.96 70.1997C140.099 70.3377 140.237 70.5447 140.375 70.8207C148.675 90.0717 148.882 112.428 147.43 134.163C147.706 137.889 147.845 141.615 147.845 145.341C153.032 148.446 158.634 151.137 164.444 153.414C164.651 143.064 165.481 132.507 164.651 122.364Z" fill="#1D4078"/>
</g>
<g style="mix-blend-mode:multiply" opacity="0.2">
<path d="M212.373 87.1741C207.601 68.1301 199.717 54.6751 190.795 50.1211C188.72 50.1211 186.645 50.2591 184.57 50.5351C184.847 51.0871 185.123 51.5701 185.4 51.9841C200.961 85.5181 207.394 123.606 203.036 160.245C203.451 160.383 203.797 160.452 204.074 160.452C205.457 160.452 206.771 160.383 208.016 160.245C217.56 146.169 219.428 115.119 212.373 87.1741Z" fill="#1D4078"/>
</g>
<path style="mix-blend-mode:overlay" d="M193.492 113.877C192.247 93.5913 189.965 73.5123 180.835 55.0893C180.282 53.8473 179.936 52.6053 179.798 51.3633C176.201 52.1913 172.536 53.2263 168.801 54.4683C178.553 76.2033 182.495 99.1803 184.777 122.985C185.815 134.991 187.475 146.997 188.097 159.21C189.757 159.486 191.417 159.693 193.077 159.831C193.284 144.513 194.529 129.195 193.492 113.877Z" fill="url(#paint3_linear_1_10259)"/>
<path d="M219.843 139.546C223.785 119.467 225.86 95.8688 219.843 78.6878C216.73 73.9268 212.373 70.2008 207.601 67.5098C186.852 70.6148 166.934 79.7228 150.957 93.3848C150.335 101.251 151.372 109.117 154.069 116.569C169.008 133.336 207.601 139.546 219.843 139.546Z" fill="#FEAA0F"/>
<path style="mix-blend-mode:overlay" d="M156.144 91.9355C155.038 92.6255 154 93.4535 153.032 94.4195C152.617 101.872 153.447 109.117 155.937 115.534C156.628 116.362 157.458 117.19 158.427 118.018C156.352 109.324 155.729 100.216 156.144 91.9355Z" fill="url(#paint4_linear_1_10259)"/>
<path style="mix-blend-mode:overlay" d="M219.635 128.989C222.748 108.496 222.125 91.5222 217.975 79.5162C215.693 75.9972 212.581 73.0992 208.431 70.4082C215.278 89.2452 218.805 108.91 219.635 128.989Z" fill="url(#paint5_linear_1_10259)"/>
<path fill-rule="evenodd" clip-rule="evenodd" d="M158.012 93.1782L158.842 92.7642C160.916 91.5222 163.06 90.3492 165.274 89.2452L168.178 87.7962V91.1082C168.593 100.009 170.046 108.91 172.743 117.604L174.196 122.365L169.838 119.881C168.455 119.191 167.141 118.501 165.896 117.811C167.003 120.295 168.109 122.71 169.216 125.056C173.988 127.54 179.59 129.61 185.192 131.266C184.501 129.748 183.878 128.161 183.325 126.505C182.703 126.298 182.288 126.091 181.665 125.677L180.628 125.263L180.42 124.228C179.175 116.914 177.93 109.669 176.685 102.493C175.855 97.9392 175.164 93.3852 174.611 88.8312C174.611 88.1412 174.541 87.4512 174.403 86.7612L174.196 85.1052H174.403C174.265 83.5872 174.126 82.0692 173.988 80.5512C168.178 83.4492 162.715 86.8302 157.597 90.6942C157.735 91.5222 157.873 92.3502 158.012 93.1782ZM194.322 77.8602L196.397 77.4462C199.094 76.6182 201.584 75.9972 204.074 75.5832C203.797 74.0652 203.52 72.4782 203.244 70.8222C203.244 70.6842 203.244 70.5462 203.244 70.4082C197.987 71.3742 192.8 72.7542 187.682 74.5482C187.821 76.4802 187.959 78.4122 188.097 80.3442L188.512 82.0002C190.587 90.5562 192.178 99.2502 193.284 108.082C195.567 116.155 198.472 124.228 201.791 132.301V131.887C202.206 114.292 199.924 96.9042 194.944 79.9302L194.322 77.8602Z" fill="url(#paint6_linear_1_10259)"/>
<path fill-rule="evenodd" clip-rule="evenodd" d="M159.879 94.4193C159.879 100.629 159.671 107.046 161.539 112.842C164.444 114.774 167.487 116.568 170.668 118.224C167.971 109.323 166.519 100.215 166.311 91.1073C164.098 92.2113 161.954 93.3153 159.879 94.4193ZM176.27 86.3463C178.138 98.7663 180.213 111.6 182.495 123.813C185.953 125.469 189.55 126.987 193.284 128.367C192.247 113.049 190.172 97.5243 186.437 82.6203C183.118 83.7243 179.729 84.9663 176.27 86.3463ZM205.734 77.2383C202.829 77.9283 199.855 78.6183 196.812 79.3083C201.999 96.2823 204.281 114.084 203.866 131.886C207.048 132.852 210.229 133.749 213.411 134.577C215.486 115.119 212.373 95.4543 205.734 77.2383Z" fill="#7A1B29"/>
<defs>
<linearGradient id="paint0_linear_1_10259" x1="163.821" y1="105.183" x2="85.6455" y2="75.2529" gradientUnits="userSpaceOnUse">
<stop stop-color="#FFF7CC"/>
<stop offset="1" stop-color="#FFF7CC"/>
</linearGradient>
<linearGradient id="paint1_linear_1_10259" x1="259.058" y1="156.105" x2="146.863" y2="194.769" gradientUnits="userSpaceOnUse">
<stop stop-color="#E2F0D5"/>
<stop offset="0.6" stop-color="#67CFC6"/>
<stop offset="1" stop-color="#007B94"/>
</linearGradient>
<linearGradient id="paint2_linear_1_10259" x1="267.565" y1="7.89273" x2="290.294" y2="71.0618" gradientUnits="userSpaceOnUse">
<stop stop-color="#FFF7CC"/>
<stop offset="1" stop-color="#FFF7CC"/>
</linearGradient>
<linearGradient id="paint3_linear_1_10259" x1="385.832" y1="-38.4747" x2="417.022" y2="107.697" gradientUnits="userSpaceOnUse">
<stop stop-color="#FFF7CC"/>
<stop offset="1" stop-color="#FFF7CC"/>
</linearGradient>
<linearGradient id="paint4_linear_1_10259" x1="209.261" y1="78.8945" x2="211.946" y2="114.706" gradientUnits="userSpaceOnUse">
<stop stop-color="#FFF7CC"/>
<stop offset="1" stop-color="#FFF7CC"/>
</linearGradient>
<linearGradient id="paint5_linear_1_10259" x1="325.039" y1="55.7112" x2="327.93" y2="121.538" gradientUnits="userSpaceOnUse">
<stop stop-color="#FFF7CC"/>
<stop offset="1" stop-color="#FFF7CC"/>
</linearGradient>
<linearGradient id="paint6_linear_1_10259" x1="138.3" y1="149.689" x2="139.333" y2="79.5161" gradientUnits="userSpaceOnUse">
<stop stop-color="#FEAA0F"/>
<stop offset="1" stop-color="#EB690C"/>
</linearGradient>
</defs>
</svg>
