<svg width="1920" height="2198" viewBox="0 0 1920 2198" fill="none" xmlns="http://www.w3.org/2000/svg">
<rect width="2775" height="1110" transform="translate(-430 679)" fill="black" fill-opacity="0.5"/>
<g clip-path="url(#clip0_2_5)">
<path d="M2345 481.975H-430V1547.3H2345V481.975Z" fill="url(#paint0_linear_2_5)"/>
<g opacity="0.6">
<path opacity="0.4" fill-rule="evenodd" clip-rule="evenodd" d="M-241.855 885.738C-241.855 885.738 199.648 848.83 341.173 822.745C345.613 821.913 234.335 839.95 237.388 831.903C240.44 823.855 90.8675 849.108 91.4225 848.553C106.408 839.673 275.683 813.31 324.8 800.268C582.598 732.003 1171.18 653.748 1171.18 653.748L892.01 680.943C892.01 680.943 1034.37 669.288 907.828 687.88C863.983 694.263 812.923 668.455 791.278 671.785C769.91 675.115 772.685 702.588 761.863 710.358C751.04 717.85 491.578 758.088 491.3 760.863C490.745 763.36 487.415 768.633 472.153 769.743C456.89 770.853 404.72 754.758 379.745 758.92C355.047 763.36 363.927 802.765 281.232 805.818C272.63 788.335 237.665 814.698 236.555 818.305C235.445 821.913 167.18 802.765 167.18 802.765C167.18 802.765 66.17 697.315 3.45501 790.278C-56.7625 879.633 -241.855 885.738 -241.855 885.738Z" fill="url(#paint1_linear_2_5)"/>
<path opacity="0.4" fill-rule="evenodd" clip-rule="evenodd" d="M-865.397 978.422C-999.707 894.617 -1008.59 1135.49 -536.282 1165.46C350.053 1221.79 2659.69 1199.59 2513.72 762.805C2510.95 754.48 654.193 1013.94 661.685 998.958C669.178 984.25 342.56 1051.13 343.948 1050.29C381.965 1030.04 759.92 953.725 886.738 914.875C1552.74 711.19 2240.66 600.745 2240.66 600.745L2397.73 600.468C2397.73 600.468 1939.02 646.255 1840.51 674.56C1773.35 693.707 1741.44 576.048 1652.36 599.635C1549.41 627.107 1462.27 747.542 1429.25 755.312C1414.54 758.92 1399.56 708.97 1344.61 724.787C1314.09 733.39 1279.4 785.837 1251.93 802.487C1224.45 819.137 1198.09 806.65 1193.1 809.702C1179.5 817.75 1181.44 834.4 1141.76 841.615C1102.08 848.552 1125.94 830.237 1061.56 845.777C997.46 861.595 988.858 906.272 774.073 939.295C749.93 911.822 661.407 969.265 658.632 975.925C655.857 982.862 575.105 963.16 575.105 963.16C575.105 963.16 262.64 744.212 107.795 925.975C91.9775 944.567 -88.9525 1021.71 -107.267 1031.7C-285.977 1060.56 -557.095 1035.31 -865.397 978.422Z" fill="url(#paint2_linear_2_5)"/>
</g>
<path d="M2425.2 1158.24L2421.59 1214.58L2420.48 1265.36C2420.48 1265.36 2251.2 1265.36 2234.83 1265.36H2233.17C2227.06 1265.36 2220.12 1265.36 2212.35 1265.36H2210.13C2209.86 1265.36 2209.58 1265.36 2209.02 1265.36H2197.92C2197.37 1265.36 2196.54 1265.36 2195.98 1265.36H2179.89C2179.61 1265.36 2179.05 1265.36 2178.78 1265.36H2165.18C2164.62 1265.36 2164.07 1265.36 2163.51 1265.36H2148.53C2147.97 1265.36 2147.42 1265.36 2146.86 1265.36H2134.65C2133.82 1265.36 2133.27 1265.36 2132.43 1265.36H2122.17C2119.95 1265.36 2118 1265.36 2115.78 1265.36H2102.19C2099.69 1265.36 2097.19 1265.36 2094.69 1265.36H2085.54C2084.7 1265.36 2083.59 1265.36 2082.76 1265.36H2068.89C2068.05 1265.36 2067.22 1265.36 2066.39 1265.36H2055.84C2051.13 1265.36 2046.13 1265.36 2041.14 1265.36H2038.08C2036.42 1265.36 2034.75 1265.36 2033.09 1265.36H2018.94C2017.27 1265.36 2015.88 1265.36 2014.22 1265.36H2002.29C2000.07 1265.36 1998.12 1265.36 1995.9 1265.36H1985.91C1984.8 1265.36 1983.69 1265.36 1982.58 1265.36H1969.82C1969.54 1265.36 1969.26 1265.36 1968.71 1265.36H1954.28C1952.89 1265.36 1951.23 1265.36 1949.84 1265.36H1936.52C1935.41 1265.36 1934.3 1265.36 1933.19 1265.36H1917.09C1916.26 1265.36 1915.15 1265.36 1914.32 1265.36H1904.05C1902.66 1265.36 1901.28 1265.36 1900.17 1265.36H1884.07C1882.13 1265.36 1880.46 1265.36 1878.52 1265.36H1865.48C1862.15 1265.36 1858.82 1265.36 1855.77 1265.36H1847.16C1846.05 1265.36 1845.22 1265.36 1844.39 1265.36H1826.63C1825.8 1265.36 1825.24 1265.36 1824.41 1265.36H1819.41H1814.42C1812.48 1265.36 1810.26 1265.36 1808.31 1265.36C1796.66 1265.36 1784.73 1265.36 1772.79 1265.36C1755.03 1265.36 1737.27 1265.36 1718.96 1265.63C1712.58 1265.63 1706.19 1265.63 1699.81 1265.63C1695.65 1265.63 1691.21 1265.63 1686.77 1265.63C1682.33 1265.63 1678.17 1265.63 1673.73 1265.63C1668.18 1265.63 1662.9 1265.63 1657.35 1265.63C1654.58 1265.63 1651.8 1265.63 1649.03 1265.63C1646.25 1265.63 1643.48 1265.63 1640.7 1265.63C1637.37 1265.63 1634.04 1265.63 1630.71 1265.63C1627.38 1265.63 1624.05 1265.63 1620.72 1265.63C1618.5 1265.63 1616.28 1265.63 1614.06 1265.63C1611.84 1265.63 1609.62 1265.63 1607.4 1265.63C1600.74 1265.63 1594.08 1265.63 1587.15 1265.63C1583.82 1265.63 1580.49 1265.63 1576.88 1265.63C1566.61 1265.63 1556.34 1265.63 1546.08 1265.63H1532.2C1527.76 1265.63 1523.04 1265.63 1518.33 1265.63C1513.61 1265.63 1509.17 1265.63 1504.45 1265.63C1459.77 1265.63 1414.26 1265.91 1368.48 1265.91C1353.49 1265.91 1338.23 1265.91 1323.24 1265.91H1322.13C1304.37 1265.91 1286.89 1265.91 1269.13 1265.91C1267.19 1265.91 1264.97 1265.91 1263.03 1265.91C1258.59 1265.91 1254.15 1265.91 1249.43 1265.91C1241.94 1265.91 1234.44 1265.91 1226.95 1265.91H1226.67C1213.63 1265.91 1200.59 1265.91 1187.55 1265.91H1172.84C1169.51 1265.91 1165.9 1265.91 1162.57 1265.91C1152.58 1265.91 1142.31 1265.91 1132.32 1265.91C1110.4 1265.91 1088.76 1265.91 1067.11 1265.91C1061.84 1265.91 1056.57 1265.91 1051.29 1265.91C1036.31 1265.91 1017.44 1265.91 995.795 1266.19C969.432 1266.47 938.907 1266.74 905.607 1267.02H905.053C806.54 1268.13 683.33 1270.08 573.718 1271.46C513.778 1272.3 457.723 1273.13 411.935 1273.4C374.473 1273.68 343.948 1273.96 323.413 1273.96H317.03C245.435 1273.96 180.223 1273.68 123.613 1273.4H113.9C112.79 1273.4 111.402 1273.4 110.292 1273.4H100.58C99.47 1273.4 98.0825 1273.4 96.9725 1273.4H92.255C90.3125 1273.4 88.3701 1273.4 86.4276 1273.4H76.16C75.605 1273.4 75.05 1273.4 74.495 1273.4C71.72 1273.4 68.6675 1273.4 65.8925 1273.4H65.06C54.2375 1273.4 43.97 1273.13 34.2575 1273.13H28.985C27.32 1273.13 25.9325 1273.13 24.2675 1273.13C22.6025 1273.13 20.9375 1273.13 19.2725 1273.13H13.7225C12.89 1273.13 12.0575 1273.13 10.9475 1273.13H8.17253C7.34003 1273.13 6.50753 1273.13 5.39753 1273.13H1.79006C-0.984937 1273.13 -3.48249 1273.13 -5.97999 1273.13C-6.81249 1273.13 -7.64497 1273.13 -8.47747 1273.13H-11.8075C-12.64 1273.13 -13.4725 1273.13 -14.305 1273.13H-16.8025C-17.635 1273.13 -18.4674 1273.13 -19.0224 1273.13H-21.52C-22.9075 1273.13 -24.0175 1273.13 -25.405 1273.13H-27.625C-29.29 1273.13 -30.955 1273.13 -32.62 1273.13C-36.7825 1273.13 -179.972 1292.55 -274.877 1305.32C-275.987 1305.59 -277.097 1305.59 -278.485 1305.87C-323.162 1311.98 -356.462 1316.14 -358.127 1316.14H-358.682C-360.625 1316.14 -362.29 1316.14 -364.232 1316.14H-364.787C-368.117 1316.14 -371.17 1316.14 -373.945 1315.86H-374.5C-375.055 1315.86 -375.61 1315.86 -376.165 1315.86H-376.442C-376.997 1315.86 -377.552 1315.86 -377.83 1315.86H-378.107C-378.662 1315.86 -379.217 1315.86 -379.495 1315.86H-379.772C-380.605 1315.86 -381.437 1315.86 -381.992 1315.86H-382.27C-382.825 1315.86 -383.102 1315.86 -383.657 1315.86H-385.6C-386.432 1315.86 -386.987 1315.86 -387.542 1315.86C-387.82 1315.86 -388.097 1315.86 -388.375 1315.86C-389.207 1315.86 -390.04 1315.86 -390.872 1315.86C-393.092 1315.86 -395.035 1315.58 -396.422 1315.58C-396.977 1315.58 -397.532 1315.58 -398.087 1315.58C-398.365 1315.58 -398.642 1315.58 -398.92 1315.58C-399.197 1315.58 -399.197 1315.58 -399.475 1315.58H-399.752C-400.03 1315.58 -400.03 1315.58 -400.307 1315.58H-400.585H-400.862H-401.14H-401.417C-401.417 1315.58 -401.417 1315.58 -401.695 1315.58C-401.695 1315.58 -401.695 1315.59 -401.695 1315.31C-401.417 1315.31 -401.14 1315.03 -400.862 1314.75C-400.307 1314.48 -400.03 1313.92 -400.03 1313.37C-400.03 1313.09 -400.03 1312.81 -400.03 1312.81C-400.03 1312.53 -400.03 1312.53 -400.03 1312.25C-400.03 1311.98 -400.03 1311.98 -400.03 1311.7C-400.307 1310.04 -401.695 1307.54 -403.637 1304.76C-404.47 1303.65 -405.58 1302.27 -406.69 1300.88C-407.245 1300.32 -407.522 1299.77 -408.077 1299.21C-413.905 1292.55 -422.507 1283.95 -432.497 1274.79C-433.052 1274.24 -433.607 1273.68 -434.44 1273.13C-437.215 1270.63 -439.712 1268.13 -442.765 1265.63C-443.875 1264.52 -444.985 1263.42 -446.372 1262.58L-446.65 1262.3C-447.482 1261.47 -448.315 1260.92 -449.147 1260.08C-452.477 1257.03 -456.085 1253.98 -459.692 1250.93C-460.802 1249.82 -461.912 1248.99 -463.022 1248.15C-464.41 1247.04 -465.52 1245.93 -466.907 1244.82C-468.017 1243.71 -469.405 1242.88 -470.515 1241.77C-471.347 1241.22 -471.902 1240.66 -472.735 1239.83C-474.122 1238.72 -475.51 1237.61 -476.897 1236.22C-479.395 1234 -481.892 1232.06 -484.667 1229.84C-485.5 1229.01 -486.332 1228.45 -487.165 1227.62C-487.72 1227.34 -487.997 1226.79 -488.552 1226.51C-489.94 1225.4 -491.05 1224.29 -492.437 1223.18C-494.38 1221.51 -496.322 1219.85 -498.265 1218.46C-499.652 1217.35 -500.762 1216.24 -502.15 1215.41C-503.537 1214.3 -504.647 1213.19 -506.035 1212.35C-507.422 1211.24 -508.532 1210.41 -509.92 1209.3C-511.307 1208.19 -512.417 1207.36 -513.805 1206.25C-515.192 1205.14 -516.302 1204.31 -517.412 1203.2C-517.967 1202.64 -518.522 1202.09 -519.355 1201.81C-520.465 1200.7 -521.852 1199.87 -522.962 1199.03C-523.517 1198.48 -524.35 1197.93 -524.905 1197.37C-526.015 1196.54 -527.125 1195.7 -528.235 1194.87C-530.455 1192.93 -532.952 1191.27 -534.895 1189.6C-535.727 1189.05 -536.56 1188.21 -537.392 1187.66C-538.78 1186.55 -539.89 1185.72 -541 1184.88C-542.11 1184.05 -542.942 1183.22 -544.052 1182.66C-544.607 1182.39 -544.885 1181.83 -545.44 1181.55C-547.382 1180.17 -549.047 1178.78 -550.99 1177.39C-551.822 1176.84 -552.377 1176.28 -552.932 1175.73C-555.43 1173.78 -557.927 1171.84 -559.87 1170.45C-560.147 1170.18 -560.425 1169.9 -560.98 1169.62C-561.535 1169.07 -562.09 1168.79 -562.645 1168.23C-562.922 1167.96 -563.2 1167.68 -563.477 1167.68C-564.032 1167.4 -564.587 1166.84 -564.865 1166.57C-565.42 1166.29 -565.697 1165.74 -566.252 1165.46C-564.587 1165.46 -563.2 1165.46 -561.535 1165.46L78.6575 1013.66L114.455 1048.35L340.618 949.008L430.25 950.95L774.905 800.545L857.322 723.122L914.765 697.87L1106.24 946.787L1107.63 948.452C1111.79 947.342 1115.95 945.955 1120.11 944.845L1131.77 943.18L1138.15 942.07L1145.92 940.683L1208.64 963.16L1287.45 991.465L1324.08 963.437L1380.96 983.973L1384.29 982.585L1517.49 932.358L1652.08 978.7L1663.74 982.585L2020.05 837.175L2285.34 1028.65L2278.4 1079.15L2425.2 1158.24Z" fill="url(#paint3_linear_2_5)"/>
<path opacity="0.7" d="M1719.24 1267.3C1719.24 1267.3 1706.47 1267.3 1700.09 1267.3C1695.65 1267.3 1691.49 1267.3 1687.05 1267.3C1682.61 1267.3 1678.45 1267.3 1674.01 1267.3C1668.46 1267.3 1663.18 1267.3 1657.63 1267.3C1654.86 1267.3 1652.08 1267.3 1649.31 1267.3C1646.53 1267.3 1643.76 1267.3 1640.98 1267.3C1637.65 1267.3 1634.32 1267.3 1630.99 1267.3C1627.66 1267.3 1624.33 1267.3 1621 1267.3C1618.78 1267.3 1616.56 1267.3 1614.34 1267.3C1612.12 1267.3 1609.9 1267.3 1607.68 1267.3C1601.02 1267.3 1594.09 1267.3 1587.43 1267.3C1584.1 1267.3 1580.77 1267.3 1577.16 1267.3C1566.89 1267.3 1556.62 1267.3 1546.36 1267.3C1541.92 1267.3 1537.2 1267.3 1532.48 1267.3C1527.76 1267.3 1523.32 1267.3 1518.61 1267.3C1513.89 1267.3 1509.45 1267.3 1504.73 1267.3C1498.63 1255.65 1492.8 1244.27 1486.97 1233.17C1481.14 1222.07 1475.32 1211.25 1469.49 1200.7C1464.49 1191.82 1459.78 1183.22 1454.78 1174.62C1430.64 1132.71 1406.77 1096.92 1382.91 1068.06C1355.44 1034.76 1327.69 1010.34 1298.27 996.183C1294.66 994.518 1290.78 992.853 1287.17 991.188L1323.8 963.16C1309.37 976.203 1338.51 1008.39 1397.62 1053.9C1418.71 1070 1443.4 1087.76 1471.43 1107.18C1475.87 1110.24 1480.31 1113.29 1485.03 1116.62C1485.03 1116.62 1485.31 1117.17 1485.58 1117.73V1118.01C1485.86 1118.84 1485.86 1119.95 1486.14 1121.61C1487.8 1132.16 1489.47 1156.58 1489.47 1156.58C1553.29 1199.59 1715.35 1265.64 1719.24 1267.3Z" fill="url(#paint4_linear_2_5)"/>
<path opacity="0.7" d="M1824.69 1012C1822.75 1012 1820.8 1012.28 1818.31 1012.55L1820.8 1011.17L1824.69 1012Z" fill="url(#paint5_linear_2_5)"/>
<path opacity="0.7" d="M1471.71 1107.46C1470.32 1120.22 1466.44 1146.31 1455.06 1175.17C1430.92 1133.27 1407.05 1097.47 1383.19 1068.61C1390.4 1063.89 1395.4 1058.06 1397.89 1054.18C1418.98 1070.55 1443.96 1088.31 1471.71 1107.46Z" fill="url(#paint6_linear_2_5)"/>
<path opacity="0.7" d="M1487.25 1233.72C1481.42 1222.62 1475.59 1211.8 1469.77 1201.26C1477.26 1177.95 1483.64 1149.36 1485.31 1116.9C1486.97 1118.01 1484.75 1117.73 1486.42 1118.84C1486.97 1154.91 1490.3 1196.54 1487.25 1233.72Z" fill="url(#paint7_linear_2_5)"/>
<path opacity="0.7" d="M1824.69 1012C1822.75 1012 1820.8 1012.28 1818.31 1012.55L1820.8 1011.17L1824.69 1012Z" fill="url(#paint8_linear_2_5)"/>
<path opacity="0.7" fill-rule="evenodd" clip-rule="evenodd" d="M2225.4 1166.29L2163.51 1261.75L2161.02 1265.64L2123 1324.47L2121.34 1321.69L2083.04 1265.91L2082.49 1265.36L2051.4 1220.13L1874.91 1119.67L1850.77 1105.8L1803.32 1078.88L1790 1071.39L1776.68 1063.89L1773.07 1061.67L1763.08 1035.03L1727.84 1016.44L1672.06 987.025L1664.01 982.863L2020.05 837.175L1996.74 864.093L1988.14 919.315L2012 949.285L2013.94 952.06L2100.8 1061.67L2097.47 1076.1L2199.87 1153.53L2225.4 1166.29Z" fill="url(#paint9_linear_2_5)"/>
<path opacity="0.7" fill-rule="evenodd" clip-rule="evenodd" d="M577.88 1282.28L414.71 1283.39L412.213 1276.73L411.103 1274.24L402.5 1250.37L377.248 1182.38L374.473 1181.27L242.383 1127.44L209.915 1114.12L196.318 1096.91L178.28 1086.37L169.678 1081.37L142.76 1065.83L114.178 1049.46L340.34 950.117L361.153 981.197L387.515 1020.6L430.25 1071.38L464.383 1074.44L505.175 1149.36L572.885 1272.85L573.995 1274.51L577.88 1282.28Z" fill="url(#paint10_linear_2_5)"/>
<path opacity="0.7" fill-rule="evenodd" clip-rule="evenodd" d="M1227.51 1268.69L1058.23 1123.56L1058.51 1123.28L1123.17 1090.26H1090.7L1015.5 865.758L913.1 838.84L906.163 811.923L897.56 799.158L914.488 697.87L857.045 723.122L774.628 800.545L430.25 950.95C430.25 950.95 433.58 952.615 439.685 955.39C440.795 955.945 441.905 956.5 443.293 957.055C490.468 979.255 649.198 1055.29 641.983 1064.73C633.38 1075.83 633.38 1088.59 633.38 1088.59L706.64 1194.6L995.795 1269.24L996.628 1269.52L1032.15 1278.68L1237.5 1277.01L1227.51 1268.69ZM954.17 1082.49L981.365 1093.59L846.5 1088.87L740.773 1068.33L778.235 1065.28L954.17 1082.49Z" fill="url(#paint11_linear_2_5)"/>
<path opacity="0.7" fill-rule="evenodd" clip-rule="evenodd" d="M1322.97 1268.69L1271.63 1272.3L1269.69 1268.69L1206.97 1142.98L1199.76 1128.55L1111.24 986.193L1109.29 982.863L1106.24 947.065L1107.63 948.73C1111.79 947.62 1115.95 946.233 1120.11 945.123L1131.77 943.458L1138.15 942.348L1135.1 987.58L1135.93 988.968L1180.89 1071.39L1210.02 1124.94L1211.69 1126.89L1254.42 1178.78L1295.77 1232.89L1322.69 1268.13L1322.97 1268.69Z" fill="url(#paint12_linear_2_5)"/>
<path opacity="0.7" fill-rule="evenodd" clip-rule="evenodd" d="M1553.02 1115.51L1384.57 982.863L1382.35 981.198L1517.77 932.635L1469.49 968.433L1479.76 984.25L1486.42 1026.99L1553.02 1115.51Z" fill="url(#paint13_linear_2_5)"/>
<path opacity="0.7" d="M2082.49 1265.91L1773.35 1267.86L1773.07 1267.02L1759.48 1245.38L1554.68 1118.84L1587.15 1131.33L1614.34 1110.79L1833.01 1205.7L2051.41 1220.13L2081.93 1265.36L2082.49 1265.91Z" fill="url(#paint14_linear_2_5)"/>
<path opacity="0.7" d="M1252.76 1272.3L1237.5 1277.01L1227.79 1268.69C1235.28 1268.69 1242.77 1268.69 1250.26 1268.69L1252.76 1272.3Z" fill="url(#paint15_linear_2_5)"/>
<path opacity="0.7" fill-rule="evenodd" clip-rule="evenodd" d="M1212.25 1128.27L1206.97 1142.7L1199.76 1128.27L1111.51 985.915L1134.82 987.58L1211.69 1126.88L1212.25 1128.27Z" fill="url(#paint16_linear_2_5)"/>
<path opacity="0.7" d="M1773.07 1061.67L1668.73 1049.18L1572.16 1037.53L1526.1 1031.7L1518.88 1030.87L1486.42 1026.99L1479.76 984.25L1500.85 988.135L1514.72 990.633L1537.48 994.517L1652.36 1015.05L1763.08 1035.03L1773.07 1061.67Z" fill="url(#paint17_linear_2_5)"/>
<path opacity="0.7" d="M906.163 811.922L1013.83 835.51L1017.16 838.84H913.1L906.163 811.922Z" fill="url(#paint18_linear_2_5)"/>
<path opacity="0.7" fill-rule="evenodd" clip-rule="evenodd" d="M641.705 1065L921.703 1118.84L926.698 1129.94L633.38 1088.59L641.705 1065Z" fill="url(#paint19_linear_2_5)"/>
<path opacity="0.7" fill-rule="evenodd" clip-rule="evenodd" d="M774.905 800.823L822.635 851.327L820.97 871.863L902.833 1025.32L865.37 970.098L626.443 1009.5L635.045 993.685L834.568 968.433L800.435 891.01L737.443 903.498L442.183 957.333L433.58 950.95L774.905 800.823Z" fill="url(#paint20_linear_2_5)"/>
<path opacity="0.7" fill-rule="evenodd" clip-rule="evenodd" d="M1090.7 1090.26L942.238 1109.4L1059.9 1123.56L1122.89 1090.26H1090.7Z" fill="url(#paint21_linear_2_5)"/>
<path opacity="0.7" fill-rule="evenodd" clip-rule="evenodd" d="M430.25 1071.38L377.248 1182.11L374.473 1181.27L242.383 1127.44L402.778 1044.47L376.138 1005.06L324.245 1026.98L370.865 996.46L361.708 985.637L266.248 1045.85L199.925 1083.87L178.28 1086.37L142.76 1065.83L249.32 1028.65L262.918 1039.75L361.153 981.197L361.708 980.642L430.25 1071.38Z" fill="url(#paint22_linear_2_5)"/>
<path opacity="0.7" fill-rule="evenodd" clip-rule="evenodd" d="M1237.22 1277.01L1032.15 1278.68L996.628 1269.52L995.795 1269.24L706.64 1194.59L1112.9 1215.13L1095.7 1194.59L962.495 1188.49L1132.88 1190.43L1227.23 1268.69L1237.22 1277.01Z" fill="url(#paint23_linear_2_5)"/>
<path opacity="0.7" fill-rule="evenodd" clip-rule="evenodd" d="M641.705 1065L482.975 1080.82L633.38 1088.59L641.705 1065Z" fill="url(#paint24_linear_2_5)"/>
<path opacity="0.7" fill-rule="evenodd" clip-rule="evenodd" d="M1614.34 1110.79L1778.34 1128.27L1578.54 1098.3L1614.34 1110.79Z" fill="url(#paint25_linear_2_5)"/>
<path opacity="0.7" fill-rule="evenodd" clip-rule="evenodd" d="M1526.1 1031.7L1518.88 1030.87L1500.84 988.135L1514.72 990.633L1526.1 1031.7Z" fill="url(#paint26_linear_2_5)"/>
<path opacity="0.7" fill-rule="evenodd" clip-rule="evenodd" d="M1668.73 1049.18L1572.16 1037.53L1537.48 994.517L1652.36 1015.05L1668.73 1049.18Z" fill="url(#paint27_linear_2_5)"/>
<path opacity="0.7" fill-rule="evenodd" clip-rule="evenodd" d="M743.27 1068.89L749.375 1085.54L845.945 1105.52L846.5 1088.59L743.27 1068.89Z" fill="url(#paint28_linear_2_5)"/>
<path opacity="0.7" fill-rule="evenodd" clip-rule="evenodd" d="M2162.13 1226.23L2156.86 1265.63L2156.58 1267.02C2156.58 1267.02 2133.82 1303.1 2121.06 1321.69L2082.76 1265.91L2082.49 1265.36L2051.41 1220.12L1874.92 1119.67L1850.77 1105.79L1803.32 1078.88L1790 1071.38L1776.68 1063.89L1773.07 1061.95L1762.81 1035.03L1727.56 1016.44L1672.06 987.025L1727.01 982.585L1810.54 1026.98L1820.8 1030.04L1819.14 1061.67L1823.3 1064.72L1918.21 1136.04L1930.14 1139.37L1991.74 1156.58L2058.34 1185.16L2065.28 1194.59L2162.13 1226.23Z" fill="url(#paint29_linear_2_5)"/>
<path opacity="0.7" fill-rule="evenodd" clip-rule="evenodd" d="M73.9402 1276.73C55.3477 1278.4 -141.677 1295.05 -279.317 1308.37C-323.995 1314.47 -357.295 1318.64 -358.96 1318.64H-359.515C-361.457 1318.64 -363.122 1318.64 -365.065 1318.64H-365.62C-368.95 1318.64 -372.002 1318.64 -374.777 1318.36C-397.255 1321.13 -411.407 1323.08 -413.072 1324.46C-418.345 1328.63 -411.685 1317.8 -404.192 1306.43C-405.025 1305.32 -406.135 1303.93 -407.245 1302.54C-407.8 1301.99 -408.077 1301.43 -408.632 1300.88C-414.46 1294.22 -423.062 1285.61 -433.052 1276.46C-433.607 1275.9 -434.162 1275.35 -434.995 1274.79C-437.77 1272.29 -440.267 1269.8 -443.32 1267.3C-444.43 1266.19 -445.54 1265.08 -446.927 1264.25L-447.205 1263.97C-448.037 1263.14 -448.87 1262.58 -449.702 1261.75C-453.032 1258.7 -456.64 1255.64 -460.247 1252.59C-461.357 1251.48 -462.467 1250.65 -463.577 1249.82C-464.965 1248.71 -466.075 1247.6 -467.462 1246.49C-468.572 1245.38 -469.96 1244.54 -471.07 1243.43C-471.902 1242.88 -472.457 1242.32 -473.29 1241.49C-474.677 1240.38 -476.065 1239.27 -477.452 1237.88C-479.95 1235.66 -482.447 1233.72 -485.222 1231.5C-486.055 1230.67 -486.887 1230.11 -487.72 1229.28C-488.275 1229 -488.552 1228.45 -489.107 1228.17C-490.495 1227.06 -491.605 1225.95 -492.992 1224.84C-494.935 1223.18 -496.877 1221.51 -498.82 1220.12C-500.207 1219.01 -501.317 1217.9 -502.705 1217.07C-504.092 1215.96 -505.202 1214.85 -506.59 1214.02C-507.977 1212.91 -509.087 1212.08 -510.475 1210.97C-511.862 1209.86 -512.972 1209.02 -514.36 1207.91C-515.747 1206.8 -516.857 1205.97 -517.967 1204.86C-518.522 1204.31 -519.077 1203.75 -519.91 1203.47C-521.02 1202.36 -522.407 1201.53 -523.517 1200.7C-524.072 1200.14 -524.905 1199.59 -525.46 1199.03C-526.57 1198.2 -527.68 1197.37 -528.79 1196.54C-531.01 1194.59 -533.507 1192.93 -535.45 1191.26C-536.282 1190.71 -537.115 1189.88 -537.947 1189.32C-539.335 1188.21 -540.445 1187.38 -541.555 1186.55C-542.665 1185.71 -543.497 1184.88 -544.607 1184.33C-545.162 1184.05 -545.44 1183.49 -545.995 1183.22C-547.937 1181.83 -549.602 1180.44 -551.545 1179.05C-552.377 1178.5 -552.932 1177.94 -553.487 1177.39C-555.985 1175.45 -558.482 1173.5 -560.425 1172.12C-560.702 1171.84 -560.98 1171.56 -561.535 1171.28C-562.09 1170.73 -562.645 1170.45 -563.2 1169.9C-563.477 1169.62 -563.755 1169.34 -564.032 1169.34C-564.587 1169.06 -565.142 1168.51 -565.42 1168.23C-565.975 1167.95 -566.252 1167.4 -566.807 1167.12C-565.142 1167.12 -563.755 1167.12 -562.09 1167.12L78.1027 1015.33L-88.6748 1076.1L-71.7473 1096.64L-109.21 1121.33L-112.54 1123.55L-52.8774 1210.69L73.9402 1276.73Z" fill="url(#paint30_linear_2_5)"/>
<path opacity="0.7" fill-rule="evenodd" clip-rule="evenodd" d="M196.318 1096.92L-49.2699 1121.89L-40.9449 1118.84L171.065 1081.38L196.318 1096.92Z" fill="url(#paint31_linear_2_5)"/>
<path opacity="0.7" fill-rule="evenodd" clip-rule="evenodd" d="M209.915 1114.12L22.3251 1139.37L47.8551 1148.81L-66.4749 1164.62L374.473 1181.27L209.915 1114.12Z" fill="url(#paint32_linear_2_5)"/>
<path opacity="0.7" fill-rule="evenodd" clip-rule="evenodd" d="M2005.34 1001.73L1821.08 1030.04L1819.14 1061.67L2005.34 1008.12V1001.73Z" fill="url(#paint33_linear_2_5)"/>
<path opacity="0.7" fill-rule="evenodd" clip-rule="evenodd" d="M1916.54 1139.37L2181.28 1142.7L2174.34 1136.32L1870.48 1093.59L1865.2 1088.59L2049.74 1107.74L2044.47 1104.41L1820.53 1064.45L1916.54 1139.37Z" fill="url(#paint34_linear_2_5)"/>
<path opacity="0.7" fill-rule="evenodd" clip-rule="evenodd" d="M1996.74 864.093L1785.01 938.463L1790.28 944.845L1988.14 919.315L1996.74 864.093Z" fill="url(#paint35_linear_2_5)"/>
<path opacity="0.7" fill-rule="evenodd" clip-rule="evenodd" d="M2225.4 1166.29L2189.6 1264.25L2163.52 1265.63H2161.02H2157.13L2082.49 1265.36H2081.93H2078.05L1830.24 1266.74L1824.41 1267.02H1819.42H1808.32L1833.01 1205.69L2051.41 1220.12L1874.92 1119.67L1850.77 1105.79L1803.32 1078.88L1790 1071.38L1776.68 1063.89L1773.07 1061.67L1763.08 1035.03L1727.84 1016.44L1672.06 987.025L1727.01 982.585L1813.31 1028.65L1821.08 1030.04L1819.14 1061.67L1823.3 1064.72L1918.21 1136.04L1930.97 1139.37L1990.36 1155.19L2058.07 1185.16L2065 1194.59L2134.1 1182.38L2225.4 1166.29Z" fill="url(#paint36_linear_2_5)"/>
<path opacity="0.7" fill-rule="evenodd" clip-rule="evenodd" d="M1503.62 1265.91L1369.31 1268.13H1369.03L1324.36 1268.96L1323.8 1268.41L1295.77 1233.17L1212.25 1128.27L1211.69 1126.88L1180.89 1071.66L1135.66 990.077V988.967L1145.92 940.96L1287.73 991.742L1302.16 997.015L1298.55 996.737L1143.43 988.967L1193.1 1058.62L1343.23 1082.48L1203.09 1077.77L1392.62 1106.07L1503.62 1265.91Z" fill="url(#paint37_linear_2_5)"/>
<path opacity="0.7" fill-rule="evenodd" clip-rule="evenodd" d="M75.8827 1276.73C75.8827 1276.73 75.3277 1276.73 74.4952 1276.73C55.6252 1278.4 -141.4 1294.77 -279.04 1308.37C-317.057 1311.98 -350.357 1315.58 -374.222 1318.36C-396.7 1321.13 -410.852 1323.08 -412.517 1324.46C-417.79 1328.63 -411.13 1317.8 -403.637 1306.43C-396.7 1295.88 -388.652 1285.06 -388.652 1285.06L-52.5998 1210.69L-112.262 1123.55L-299.852 1167.95L-71.1924 1096.64L-113.095 1123.83L-111.707 1125.22L-48.7149 1211.8L75.8827 1276.73Z" fill="url(#paint38_linear_2_5)"/>
<path opacity="0.7" fill-rule="evenodd" clip-rule="evenodd" d="M412.213 1276.74H125.278H75.8826L-49.2699 1211.52L374.473 1181.28L401.945 1250.65L411.103 1274.24L412.213 1276.74Z" fill="url(#paint39_linear_2_5)"/>
<path opacity="0.7" fill-rule="evenodd" clip-rule="evenodd" d="M1067.11 1268.96L996.628 1269.52L905.608 1270.07H905.053L572.885 1272.85L411.103 1274.24L125.278 1276.73H110.293H111.68L400.835 1250.93L401.945 1250.65L402.5 1250.37L534.313 1202.36L508.228 1161.29L399.448 1213.74L504.343 1149.08L505.175 1149.36L706.64 1194.59L1067.11 1268.96Z" fill="url(#paint40_linear_2_5)"/>
<path opacity="0.76" fill-rule="evenodd" clip-rule="evenodd" d="M653.915 1119.39C653.638 1119.11 653.36 1119.12 653.36 1119.12C653.36 1118.84 653.638 1119.11 653.915 1119.39Z" fill="url(#paint41_linear_2_5)"/>
<path opacity="0.76" fill-rule="evenodd" clip-rule="evenodd" d="M2254.54 1167.4L2324.19 1158.24L2235.39 1148.81L2359.99 1147.14L2152.42 1115.23L2221.79 1161.29L2055.85 1224.29L2017.83 1202.36L1748.65 1172.12L1721.74 1204.03L1611.29 1155.19L1708.14 1214.57L1552.46 1191.54L1484.75 1234.28L1310.76 1246.21L1270.8 1180.72L1442.02 1183.49L1264.42 1162.96L1242.22 1148.81L1295.5 1233.17L1253.04 1231.78L1221.68 1185.16L1238.89 1218.46L1204.75 1221.51L1160.35 1194.59L1100.69 1169.34L1178.67 1230.39L1131.22 1229.28L945.29 1186.55L873.695 1178.5L969.155 1205.42L928.918 1208.47C928.918 1208.47 667.513 1126.05 653.638 1119.11C659.188 1125.22 701.923 1189.04 701.923 1189.04L790.723 1212.35L900.058 1254.53L555.68 1240.38L541.528 1218.46L385.295 1222.62L532.648 1197.65L624.223 1197.37L524.878 1185.71L492.965 1194.32L523.213 1180.16L690.823 1194.32L513.223 1161.85L411.38 1204.03L505.175 1149.36L409.438 1175.72L353.105 1171.01L257.645 1123.55L370.31 1069.72L355.325 1070.55L247.378 1123.83L237.388 1120.22L300.658 1086.92L210.193 1114.12L287.893 1146.31L374.75 1181L72.2751 1188.21L203.255 1196.54L-58.9824 1204.58L-226.592 1206.53L-78.9624 1212.08L-301.517 1233.44L-479.672 1238.44L-248.792 1247.6L-389.762 1288.67C-389.762 1288.67 -421.952 1288.11 -459.415 1287.56L-431.387 1319.47L2421.87 1268.96L2424.64 1162.68L2254.54 1167.4ZM-152.777 1270.35L-32.0649 1245.65L-278.485 1286.17L-131.41 1242.32L-12.0848 1232.33L115.01 1244.27L-152.777 1270.35Z" fill="url(#paint42_linear_2_5)"/>
<path opacity="0.76" fill-rule="evenodd" clip-rule="evenodd" d="M1707.31 1150.75L1891.01 1180.44L1674.28 1132.99L1707.31 1150.75Z" fill="url(#paint43_linear_2_5)"/>
<path opacity="0.76" fill-rule="evenodd" clip-rule="evenodd" d="M1563.28 1094.97L1607.68 1110.79L1757.81 1128.27L1563.28 1094.97Z" fill="url(#paint44_linear_2_5)"/>
<path opacity="0.76" fill-rule="evenodd" clip-rule="evenodd" d="M1674.01 1133.55L1611.29 1151.86L1680.67 1136.04L1674.01 1133.55Z" fill="url(#paint45_linear_2_5)"/>
<path opacity="0.76" fill-rule="evenodd" clip-rule="evenodd" d="M942.238 1109.4L1059.9 1123.55L1114.56 1094.97L942.238 1109.4Z" fill="url(#paint46_linear_2_5)"/>
<path opacity="0.76" fill-rule="evenodd" clip-rule="evenodd" d="M644.758 1090.81L969.433 1134.65L974.428 1137.71L641.15 1098.86L621.17 1086.65L644.758 1090.81Z" fill="url(#paint47_linear_2_5)"/>
<path opacity="0.76" fill-rule="evenodd" clip-rule="evenodd" d="M868.7 1132.99L885.905 1139.37L1100.69 1169.34L1076.83 1147.14L868.7 1132.99Z" fill="url(#paint48_linear_2_5)"/>
<path opacity="0.76" fill-rule="evenodd" clip-rule="evenodd" d="M160.798 1076.93L242.383 1056.95L202.7 1082.48L175.228 1084.7L160.798 1076.93Z" fill="url(#paint49_linear_2_5)"/>
<path opacity="0.76" fill-rule="evenodd" clip-rule="evenodd" d="M549.575 938.185L805.708 887.68L751.04 882.963L549.575 938.185Z" fill="url(#paint50_linear_2_5)"/>
<path opacity="0.76" fill-rule="evenodd" clip-rule="evenodd" d="M641.705 930.415L783.508 913.21L811.535 918.205L641.705 930.415Z" fill="url(#paint51_linear_2_5)"/>
<path opacity="0.76" fill-rule="evenodd" clip-rule="evenodd" d="M12.0576 1167.4C15.3876 1166.01 277.903 1177.95 277.903 1177.95L65.0601 1159.91H213.523L49.7976 1155.19L73.6626 1158.24L-49.2699 1164.63L12.0576 1167.4Z" fill="url(#paint52_linear_2_5)"/>
<path fill-rule="evenodd" clip-rule="evenodd" d="M735.223 1188.49L739.385 1143.53V1181.27L743.548 1146.31L743.27 1180.44L749.098 1124.67L752.15 1143.53L754.648 1134.93L756.59 1168.23L757.145 1138.26C757.145 1138.26 759.92 1182.38 759.92 1179.89C759.92 1177.67 764.638 1132.16 764.638 1132.16L771.575 1180.17L773.24 1171.01L776.293 1187.66C776.293 1187.66 778.79 1170.73 779.068 1172.12C779.068 1173.78 786.005 1188.21 786.005 1188.21L789.613 1176L791.833 1187.93L795.718 1124.11L799.88 1162.96L800.99 1144.37L807.65 1171.56C807.65 1171.56 809.038 1146.87 809.038 1149.36C809.038 1151.86 818.473 1175.17 818.473 1175.17C818.473 1175.17 815.698 1157.13 815.975 1159.63C816.253 1162.13 825.133 1180.72 825.133 1180.72C825.133 1180.72 822.913 1167.12 823.468 1170.45C824.023 1174.06 837.62 1202.92 837.62 1202.92L830.683 1146.03C830.683 1146.03 852.605 1205.97 852.605 1202.64C852.605 1199.31 851.495 1184.05 851.495 1184.05L865.093 1209.86L865.925 1203.75L885.073 1237.33L882.575 1170.73L900.058 1248.43L735.223 1188.49Z" fill="#70632F"/>
<path fill-rule="evenodd" clip-rule="evenodd" d="M937.52 1195.98L941.128 1132.71L943.07 1185.72L947.233 1136.32L948.343 1184.33L953.615 1105.8L958.888 1132.16L961.94 1119.95L966.38 1166.29L965.825 1124.39C965.825 1124.39 971.93 1185.99 971.653 1182.66C971.653 1179.33 975.815 1115.51 975.815 1115.51L987.748 1182.38L989.413 1169.62L994.685 1192.65C994.685 1192.65 997.46 1168.51 997.738 1170.73C998.015 1172.95 1008.01 1192.65 1008.01 1192.65L1012.45 1175.17L1016.05 1191.82L1018.27 1102.19L1026.04 1156.58L1026.88 1130.77L1037.42 1168.23C1037.42 1168.23 1037.97 1133.55 1038.25 1136.88C1038.53 1140.48 1052.68 1172.4 1052.68 1172.4C1052.68 1172.4 1047.97 1147.14 1048.52 1150.75C1049.08 1154.36 1062.4 1179.89 1062.4 1179.89C1062.4 1179.89 1058.51 1160.74 1059.62 1165.73C1060.73 1170.73 1080.71 1210.13 1080.71 1210.13L1068.22 1130.77C1068.22 1130.77 1102.08 1213.46 1101.8 1208.75C1101.52 1204.03 1099.3 1182.66 1099.3 1182.66L1119.56 1217.9L1120.67 1209.3L1145.92 1258.14L1138.71 1219.29L1170.62 1269.8L937.52 1195.98Z" fill="#70632F"/>
<path fill-rule="evenodd" clip-rule="evenodd" d="M726.343 1251.2C726.343 1243.43 725.787 1202.92 725.787 1202.92L733.557 1243.43L735.5 1225.12L743.27 1254.26L745.212 1242.32L748.543 1262.03L756.868 1189.04L764.637 1244.27V1225.12L776.293 1274.79L707.195 1250.65L726.343 1251.2Z" fill="#70632F"/>
<path fill-rule="evenodd" clip-rule="evenodd" d="M898.115 1242.05C898.115 1234.28 897.56 1193.76 897.56 1193.76L905.33 1234.28L907.273 1215.96L915.043 1245.1L916.985 1233.17L920.315 1252.87L928.64 1179.89L936.41 1235.11V1215.96L948.065 1265.63L878.968 1241.49L898.115 1242.05Z" fill="#70632F"/>
<path fill-rule="evenodd" clip-rule="evenodd" d="M1715.08 1245.1L1722.57 1174.06L1730.34 1244.27L1739.22 1212.91L1746.16 1246.77L1760.03 1199.31L1770.02 1253.15L1775.85 1241.22L1778.9 1251.21L1872.14 1257.03L1592.98 1258.42L1715.08 1245.1Z" fill="#70632F"/>
<path fill-rule="evenodd" clip-rule="evenodd" d="M723.013 1237.61L723.845 1194.04L739.663 1234.28L740.218 1214.02L763.25 1252.31L855.658 1257.86L571.775 1256.48L679.168 1247.87L718.85 1249.82L714.41 1214.02L723.013 1237.61Z" fill="#70632F"/>
<path d="M-451.09 1323.36H2416.04V1838.95L-510.197 1819.25L-451.09 1323.36Z" fill="#E3DCFD"/>
<path d="M2387.74 1373.31L2375.53 1883.07L-557.65 1842L-573.467 1423.26L969.988 1473.21L2099.14 1393.29L2363.87 1374.69L2387.74 1373.31Z" fill="url(#paint53_linear_2_5)"/>
<path opacity="0.55" d="M2387.74 1512.89L1845.22 1789.56L2300.05 1934.97L2387.74 1512.89Z" fill="#FFFF81"/>
<path d="M2265.08 1879.19H2265.91L2210.41 1892.51L2152.97 1906.38L2144.37 1908.33L2062.23 1895.56L2034.76 1891.4L2004.51 1886.68L1997.57 1885.57L1794.72 1853.94L1721.18 1842.56L1635.16 1829.24L1627.11 1827.85L511.003 1643.31L509.06 1622.22C522.38 1639.15 810.148 1665.51 1152.03 1716.02C1155.63 1716.57 1158.97 1717.13 1162.57 1717.68L1166.46 1718.24C1204.48 1723.79 1306.6 1730.17 1306.6 1730.17L1312.42 1758.75L1315.48 1732.67C1315.48 1732.67 1549.69 1774.29 1552.46 1774.57C1577.16 1778.18 1602.13 1781.51 1627.39 1784.84C1630.44 1785.12 1633.21 1785.67 1636.26 1785.95C1648.75 1787.61 1661.24 1789.28 1674.01 1790.67C1710.91 1795.11 1747.82 1799.55 1784.73 1803.71L1803.04 1852.55L1854.1 1857.82L1848 1810.37C1899.89 1815.92 1950.39 1820.64 1997.85 1825.35C2002.01 1825.63 2005.9 1826.19 2010.06 1826.46C2018.66 1827.3 2026.99 1828.13 2035.03 1828.96C2048.63 1830.35 2062.23 1831.46 2075.27 1832.85C2163.24 1841.17 2235.39 1848.11 2278.12 1854.49C2316.14 1860.6 2260.36 1878.63 2265.08 1879.19Z" fill="#3A3371"/>
<path d="M1041.03 1446.57V1452.39C1041.03 1452.39 464.383 1589.48 379.745 1643.87C377.248 1643.04 375.028 1641.93 372.808 1641.09C356.158 1634.43 348.665 1628.88 352.273 1625C359.21 1617.23 376.97 1609.46 401.945 1601.41C403.888 1600.86 404.443 1590.87 406.385 1590.31C447.178 1577.55 500.458 1566.17 562.618 1550.91C762.695 1502.62 1031.04 1456.56 1041.03 1446.57Z" fill="#5D4C90"/>
<path d="M1164.24 1433.25C1164.24 1434.63 1115.4 1446.84 1100.69 1451.28L1061.29 1444.62L979.978 1440.18L974.428 1439.91C675.838 1422.98 -518.245 1387.74 -518.245 1387.74L-569.582 1383.3C-569.86 1383.02 1164.24 1420.76 1164.24 1433.25Z" fill="#897CCF"/>
<path d="M2144.37 1908.6L1842.17 2033.76C1842.17 2033.76 692.765 1726.01 529.873 1686.05C461.885 1669.4 409.715 1654.97 379.745 1643.59C464.382 1589.2 1041.03 1452.12 1041.03 1452.12V1446.29C1041.3 1446.01 1041.31 1445.73 1041.31 1445.46C1040.47 1444.07 1018.27 1442.13 979.978 1439.91L1061.29 1444.35L1100.69 1451.01C1083.76 1456.28 1057.96 1463.77 1026.88 1472.37C1026.88 1472.37 1026.6 1472.37 1026.32 1472.37C1014.11 1475.7 1001.35 1479.31 987.47 1482.92H987.193C799.325 1533.7 485.75 1612.51 507.118 1618.89L512.945 1654.69L2144.37 1908.6Z" fill="#CDC8F8"/>
<path opacity="0.22" d="M1627.39 1785.39C1630.44 1785.67 1633.21 1786.23 1636.26 1786.5L1635.43 1829.24L1627.39 1827.85V1785.39Z" fill="#91006F"/>
<path opacity="0.26" d="M1946.79 2003.79L1041.03 1776.79L996.35 1765.69H988.025L957.778 1759.59L829.018 1718.52L986.083 1753.2L1313.81 1847.83L1553.57 1871.7L1614.34 1886.96L2095.25 1989.08L1946.79 2003.79Z" fill="#91006F"/>
<path d="M379.745 1643.87L509.06 1681.05L523.49 1679.39L838.73 1755.7V1770.41L847.888 1756.81L1230.84 1850.33L1520.27 1896.95V1931.36L1249.71 1894.45L435.523 1666.35L379.745 1643.87Z" fill="#5D4C90"/>
<path d="M951.395 1770.69C955.835 1771.52 959.998 1771.24 955.835 1770.13C951.673 1769.3 946.955 1769.85 951.395 1770.69Z" fill="#79190D"/>
<path d="M925.033 1765.41C915.043 1765.14 933.08 1770.69 936.41 1769.85C939.185 1769.3 933.08 1765.41 925.033 1765.41Z" fill="#79190D"/>
<path d="M940.018 1770.69C928.64 1774.29 955.558 1777.9 958.333 1775.13C961.108 1772.63 949.73 1767.63 940.018 1770.69Z" fill="#79190D"/>
<path d="M1046.86 1785.95C1049.63 1786.5 1052.41 1786.23 1049.63 1785.67C1046.86 1784.84 1044.08 1785.39 1046.86 1785.95Z" fill="url(#paint54_linear_2_5)"/>
<path d="M1029.93 1782.34C1023.54 1782.06 1035.2 1785.67 1037.14 1785.12C1039.09 1784.84 1035.2 1782.62 1029.93 1782.34Z" fill="url(#paint55_linear_2_5)"/>
<path d="M1039.64 1785.95C1032.43 1788.17 1049.63 1790.39 1051.3 1789C1052.96 1787.06 1045.75 1784.01 1039.64 1785.95Z" fill="#79190D"/>
<path d="M1004.68 1783.45C991.355 1787.61 1022.99 1791.78 1026.04 1788.72C1029.1 1785.67 1015.78 1779.84 1004.68 1783.45Z" fill="#79190D"/>
<path opacity="0.2" d="M1848 1811.2L1853.83 1858.65L1802.77 1853.38L1784.45 1804.26L2204.86 1606.13L1845.22 1789.56L1848 1811.2Z" fill="#91006F"/>
<path d="M1413.99 1785.39L1375.69 1791.5L1313.81 1782.62L1316.03 1729.06L1377.36 1740.44L1409.55 1739.33L1413.99 1785.39Z" fill="#3A3371"/>
<path opacity="0.22" d="M1375.69 1791.5L1377.36 1740.44H1392.07L1393.73 1779.57L1395.12 1740.44L1409.55 1739.33L1400.95 1787.61L1375.69 1791.5Z" fill="#91006F"/>
<path d="M1215.3 1767.63C1212.25 1769.58 1219.74 1769.85 1220.57 1768.74C1221.13 1767.63 1217.8 1765.97 1215.3 1767.63Z" fill="url(#paint56_linear_2_5)"/>
<path d="M1203.36 1767.91C1210.86 1769.02 1218.35 1766.8 1210.86 1765.41C1203.64 1764.3 1195.59 1766.8 1203.36 1767.91Z" fill="url(#paint57_linear_2_5)"/>
<path d="M1386.79 1790.94C1394.29 1792.05 1401.78 1789.83 1394.29 1788.44C1387.07 1787.33 1379.02 1789.83 1386.79 1790.94Z" fill="url(#paint58_linear_2_5)"/>
<path d="M1339.9 1784.01C1322.69 1785.95 1355.16 1795.38 1360.43 1792.89C1365.7 1790.39 1354.33 1782.34 1339.9 1784.01Z" fill="url(#paint59_linear_2_5)"/>
<path d="M1367.09 1794C1347.94 1805.93 1395.67 1808.43 1399.84 1801.21C1404 1794 1383.18 1783.73 1367.09 1794Z" fill="url(#paint60_linear_2_5)"/>
<path opacity="0.26" d="M425.532 1645.81L559.288 1680.78L582.597 1686.33H610.625L709.138 1712.13L601.745 1691.32L497.96 1658.3L425.532 1645.81Z" fill="#91006F"/>
<path fill-rule="evenodd" clip-rule="evenodd" d="M2218.18 1208.75L2168.79 1093.58L2180.44 1175.17L2162.13 1097.47L2173.51 1171.84L2146.31 1048.35L2146.87 1088.03L2139.93 1068.33C2139.93 1068.33 2138.26 1121.61 2137.71 1116.62C2136.88 1111.62 2121.61 1057.51 2121.61 1057.51L2124.67 1160.18L2119.12 1139.37L2118.84 1175.17C2118.84 1175.17 2107.46 1105.24 2107.74 1108.57C2108.02 1111.9 2101.91 1172.39 2101.91 1172.39L2087.48 1100.8L2088.31 1150.47L2063.89 1024.49L2068.33 1109.68L2060.29 1067.5L2056.4 1125.77C2056.4 1125.77 2041.69 1032.81 2042.25 1038.08C2042.8 1043.36 2037.25 1128.83 2037.25 1128.83C2037.25 1128.83 2031.15 1083.59 2031.15 1089.14C2031.15 1094.69 2026.15 1138.54 2026.15 1138.54C2026.15 1138.54 2021.71 1099.41 2021.71 1107.18C2021.71 1115.23 2009.5 1184.88 2009.5 1184.88L2005.06 1055.84C2005.06 1055.84 1980.64 1185.71 1979.53 1177.67C1978.42 1169.62 1976.2 1119.95 1976.2 1119.95L1957.06 1189.6L1951.23 1142.15L1929.86 1253.98V1187.38L1895.73 1269.8L2218.18 1208.75Z" fill="#6B6D25"/>
<path fill-rule="evenodd" clip-rule="evenodd" d="M1756.98 1216.24C1756.98 1202.92 1758.09 1133.55 1758.09 1133.55L1745.05 1202.64L1741.71 1171.01L1728.67 1220.68L1725.34 1200.15L1719.79 1234.28L1705.64 1109.12L1692.6 1203.75V1171.01L1672.9 1255.92L1882.41 1243.16L1756.98 1216.24Z" fill="#7D8030"/>
<path fill-rule="evenodd" clip-rule="evenodd" d="M57.2901 1226.23C58.6776 1215.96 64.505 1163.52 64.505 1163.52L67.5576 1217.63L73.1076 1194.04L78.1026 1233.45L82.5425 1218.18L83.3751 1244.55L106.408 1151.58L106.963 1225.12L110.293 1200.15L116.675 1267.02L-15.6924 1252.87L57.2901 1226.23Z" fill="#7D8030"/>
<path fill-rule="evenodd" clip-rule="evenodd" d="M129.44 1266.47C130.828 1255.09 137.765 1195.43 137.765 1195.43L139.985 1256.48L146.09 1229.84L150.53 1274.24L155.247 1257.03L155.525 1287L180.222 1181.27L179.667 1264.25L183.275 1236.22L188.547 1311.7L105.02 1261.19L129.44 1266.47Z" fill="#6B6D25"/>
<path d="M2411.6 1161.85C2447.4 1155.47 2391.34 1326.68 2391.34 1326.68L1610.74 1327.52L1598.52 1328.35L1574.11 1329.74L1563.28 1330.29L1503.06 1333.9L1389.84 1340.56L1241.11 1349.16L1074.61 1358.88L1014.11 1362.48L978.035 1364.43L923.922 1367.48L863.15 1371.09L857.6 1371.36L851.772 1371.64H850.94L835.122 1372.47L805.153 1374.14L391.678 1358.88L160.798 1350.27L-455.807 1327.52C-455.807 1327.52 -485.777 1199.04 -458.86 1202.92C172.175 1295.33 1587.43 1311.15 2411.6 1161.85Z" fill="#EDE8FD"/>
<path opacity="0.1" d="M353.938 1358.88L133.603 1350.55L-271.27 1257.31H-139.457L353.938 1358.88Z" fill="#8E62BF"/>
<path opacity="0.1" d="M861.763 1367.2L798.493 1371.09L646.145 1368.87L161.075 1257.31H327.853L861.763 1367.2Z" fill="#8E62BF"/>
<path opacity="0.1" d="M1164.24 1348.89L1005.23 1358.6L564.838 1257.31H667.235L1164.24 1348.89Z" fill="#8E62BF"/>
<path opacity="0.1" d="M1516.66 1327.52L1505.29 1328.07L1481.98 1329.74L1471.71 1330.29L1414.27 1333.62L1306.32 1340.28H1306.04L841.505 1257.31H1061.84L1414.27 1311.7L1438.96 1315.58L1488.36 1323.08L1503.07 1325.3L1516.66 1327.52Z" fill="#8E62BF"/>
<path opacity="0.1" d="M2013.67 1325.85L1736.72 1326.68L1707.58 1315.86L1701.48 1314.75L1584.93 1293.94L1564.67 1290.33L1539.7 1285.89L1491.13 1277.29L1419.54 1264.53H1418.43L1418.15 1264.25L1379.58 1257.31H1549.96L2013.67 1325.85Z" fill="#8E62BF"/>
<path opacity="0.1" d="M2597.53 1326.13L2320.58 1327.24L2045.58 1293.94L2025.6 1290.33L2000.62 1285.89L1952.06 1277.29L1880.47 1264.53H1879.36L1879.08 1264.25L1840.23 1257.31H2010.89L2597.53 1326.13Z" fill="#8E62BF"/>
<path opacity="0.25" d="M2345 482H-430V1784H2345V482Z" fill="#522F5F"/>
</g>
<path d="M1934 1008L-17 1008V415L1934 415V1008Z" fill="url(#paint61_linear_2_5)"/>
<path fill-rule="evenodd" clip-rule="evenodd" d="M-15 1547H1932V2198H-15V1547Z" fill="url(#paint62_linear_2_5)"/>
<g clip-path="url(#clip1_2_5)">
<path d="M-18 0H1933V871H-18V0Z" fill="url(#paint63_linear_2_5)"/>
</g>
<defs>
<linearGradient id="paint0_linear_2_5" x1="951.243" y1="480.653" x2="962.319" y2="1425.86" gradientUnits="userSpaceOnUse">
<stop stop-color="#4862B1"/>
<stop offset="0.3259" stop-color="#73ACD4"/>
<stop offset="0.5996" stop-color="#94E4EE"/>
<stop offset="0.7311" stop-color="#A1FAF8"/>
<stop offset="0.7858" stop-color="#AEEEEE"/>
<stop offset="0.8878" stop-color="#D1CFD4"/>
<stop offset="1" stop-color="#FFA6B3"/>
</linearGradient>
<linearGradient id="paint1_linear_2_5" x1="461.039" y1="1222.56" x2="465.733" y2="679.032" gradientUnits="userSpaceOnUse">
<stop stop-color="#353683"/>
<stop offset="0.6546" stop-color="#6D3CD7"/>
<stop offset="1" stop-color="#883FFF"/>
</linearGradient>
<linearGradient id="paint2_linear_2_5" x1="2505.98" y1="753.056" x2="1123.64" y2="927.519" gradientUnits="userSpaceOnUse">
<stop stop-color="#353683"/>
<stop offset="0.6546" stop-color="#6D3CD7"/>
<stop offset="1" stop-color="#883FFF"/>
</linearGradient>
<linearGradient id="paint3_linear_2_5" x1="929.355" y1="889.664" x2="929.355" y2="1267.68" gradientUnits="userSpaceOnUse">
<stop offset="0.00396825" stop-color="#E7EAE1"/>
<stop offset="0.4451" stop-color="#E5E8E1"/>
<stop offset="0.6039" stop-color="#DEE3E3"/>
<stop offset="0.7172" stop-color="#D3D9E5"/>
<stop offset="0.8087" stop-color="#C2CCE8"/>
<stop offset="0.8872" stop-color="#ACBAEC"/>
<stop offset="0.9553" stop-color="#91A5F1"/>
<stop offset="1" stop-color="#7B93F5"/>
</linearGradient>
<linearGradient id="paint4_linear_2_5" x1="1512.93" y1="653.003" x2="1498.4" y2="1376.09" gradientUnits="userSpaceOnUse">
<stop stop-color="#1919A2"/>
<stop offset="1" stop-color="white"/>
</linearGradient>
<linearGradient id="paint5_linear_2_5" x1="1823.74" y1="1009.29" x2="1821.11" y2="1012.85" gradientUnits="userSpaceOnUse">
<stop stop-color="#1919A2"/>
<stop offset="1" stop-color="white"/>
</linearGradient>
<linearGradient id="paint6_linear_2_5" x1="1559.94" y1="766.027" x2="1393.69" y2="1186.43" gradientUnits="userSpaceOnUse">
<stop stop-color="#1919A2"/>
<stop offset="1" stop-color="white"/>
</linearGradient>
<linearGradient id="paint7_linear_2_5" x1="1604.85" y1="875.701" x2="1467.83" y2="1222.22" gradientUnits="userSpaceOnUse">
<stop stop-color="#1919A2"/>
<stop offset="1" stop-color="white"/>
</linearGradient>
<linearGradient id="paint8_linear_2_5" x1="1821.56" y1="1013.52" x2="1821.52" y2="1011.23" gradientUnits="userSpaceOnUse">
<stop stop-color="#1919A2"/>
<stop offset="1" stop-color="white"/>
</linearGradient>
<linearGradient id="paint9_linear_2_5" x1="2040.76" y1="261.624" x2="1873.07" y2="1680.56" gradientUnits="userSpaceOnUse">
<stop stop-color="#1919A2"/>
<stop offset="1" stop-color="white"/>
</linearGradient>
<linearGradient id="paint10_linear_2_5" x1="311.354" y1="637.011" x2="374.563" y2="1597.32" gradientUnits="userSpaceOnUse">
<stop stop-color="#1919A2"/>
<stop offset="1" stop-color="white"/>
</linearGradient>
<linearGradient id="paint11_linear_2_5" x1="637.932" y1="387.198" x2="977.181" y2="1646.34" gradientUnits="userSpaceOnUse">
<stop stop-color="#1919A2"/>
<stop offset="1" stop-color="white"/>
</linearGradient>
<linearGradient id="paint12_linear_2_5" x1="1216.16" y1="591.821" x2="1212.93" y2="1661.16" gradientUnits="userSpaceOnUse">
<stop stop-color="#1919A2"/>
<stop offset="1" stop-color="white"/>
</linearGradient>
<linearGradient id="paint13_linear_2_5" x1="1454.97" y1="638.508" x2="1475.98" y2="1314.06" gradientUnits="userSpaceOnUse">
<stop stop-color="#1919A2"/>
<stop offset="1" stop-color="white"/>
</linearGradient>
<linearGradient id="paint14_linear_2_5" x1="1750.97" y1="1456.15" x2="1850.18" y2="1068.99" gradientUnits="userSpaceOnUse">
<stop stop-color="#1919A2"/>
<stop offset="1" stop-color="white"/>
</linearGradient>
<linearGradient id="paint15_linear_2_5" x1="1239.93" y1="1276.96" x2="1240.13" y2="1270.94" gradientUnits="userSpaceOnUse">
<stop stop-color="#1919A2"/>
<stop offset="1" stop-color="white"/>
</linearGradient>
<linearGradient id="paint16_linear_2_5" x1="997.302" y1="1262.73" x2="1258.67" y2="942.6" gradientUnits="userSpaceOnUse">
<stop stop-color="#1919A2"/>
<stop offset="1" stop-color="white"/>
</linearGradient>
<linearGradient id="paint17_linear_2_5" x1="1212.08" y1="1425.65" x2="1704.66" y2="947.037" gradientUnits="userSpaceOnUse">
<stop stop-color="#1919A2"/>
<stop offset="1" stop-color="white"/>
</linearGradient>
<linearGradient id="paint18_linear_2_5" x1="798.173" y1="984.263" x2="988.954" y2="798.894" gradientUnits="userSpaceOnUse">
<stop stop-color="#1919A2"/>
<stop offset="1" stop-color="white"/>
</linearGradient>
<linearGradient id="paint19_linear_2_5" x1="677.392" y1="1464.13" x2="808.708" y2="1009.99" gradientUnits="userSpaceOnUse">
<stop stop-color="#1919A2"/>
<stop offset="1" stop-color="white"/>
</linearGradient>
<linearGradient id="paint20_linear_2_5" x1="738.827" y1="380.107" x2="656.964" y2="1085.27" gradientUnits="userSpaceOnUse">
<stop stop-color="#1919A2"/>
<stop offset="1" stop-color="white"/>
</linearGradient>
<linearGradient id="paint21_linear_2_5" x1="1044.47" y1="924.143" x2="1028.16" y2="1164.77" gradientUnits="userSpaceOnUse">
<stop stop-color="#1919A2"/>
<stop offset="1" stop-color="white"/>
</linearGradient>
<linearGradient id="paint22_linear_2_5" x1="-93.9318" y1="2383.96" x2="390.614" y2="708.241" gradientUnits="userSpaceOnUse">
<stop stop-color="#1919A2"/>
<stop offset="1" stop-color="white"/>
</linearGradient>
<linearGradient id="paint23_linear_2_5" x1="1922.05" y1="1215.84" x2="727.928" y2="1240.25" gradientUnits="userSpaceOnUse">
<stop stop-color="#1919A2"/>
<stop offset="1" stop-color="white"/>
</linearGradient>
<linearGradient id="paint24_linear_2_5" x1="336.056" y1="1244.36" x2="678.022" y2="998.609" gradientUnits="userSpaceOnUse">
<stop stop-color="#1919A2"/>
<stop offset="1" stop-color="white"/>
</linearGradient>
<linearGradient id="paint25_linear_2_5" x1="1437.1" y1="1286.67" x2="1795.14" y2="1029.38" gradientUnits="userSpaceOnUse">
<stop stop-color="#1919A2"/>
<stop offset="1" stop-color="white"/>
</linearGradient>
<linearGradient id="paint26_linear_2_5" x1="1483.31" y1="1142.46" x2="1518.78" y2="987.116" gradientUnits="userSpaceOnUse">
<stop stop-color="#1919A2"/>
<stop offset="1" stop-color="white"/>
</linearGradient>
<linearGradient id="paint27_linear_2_5" x1="1570.2" y1="1165.88" x2="1606.96" y2="1004.95" gradientUnits="userSpaceOnUse">
<stop stop-color="#1919A2"/>
<stop offset="1" stop-color="white"/>
</linearGradient>
<linearGradient id="paint28_linear_2_5" x1="457.961" y1="1109.58" x2="930.741" y2="1078.18" gradientUnits="userSpaceOnUse">
<stop stop-color="#1919A2"/>
<stop offset="1" stop-color="white"/>
</linearGradient>
<linearGradient id="paint29_linear_2_5" x1="2008.69" y1="562.077" x2="1891.8" y2="1263.38" gradientUnits="userSpaceOnUse">
<stop stop-color="#1919A2"/>
<stop offset="1" stop-color="white"/>
</linearGradient>
<linearGradient id="paint30_linear_2_5" x1="-287.885" y1="927.293" x2="-143.622" y2="1462.73" gradientUnits="userSpaceOnUse">
<stop stop-color="#1919A2"/>
<stop offset="1" stop-color="white"/>
</linearGradient>
<linearGradient id="paint31_linear_2_5" x1="350.649" y1="601.52" x2="22.5605" y2="1202.59" gradientUnits="userSpaceOnUse">
<stop stop-color="#1919A2"/>
<stop offset="1" stop-color="white"/>
</linearGradient>
<linearGradient id="paint32_linear_2_5" x1="449.011" y1="632.407" x2="112.435" y2="1249.02" gradientUnits="userSpaceOnUse">
<stop stop-color="#1919A2"/>
<stop offset="1" stop-color="white"/>
</linearGradient>
<linearGradient id="paint33_linear_2_5" x1="1791.95" y1="1598.51" x2="1921.68" y2="978.136" gradientUnits="userSpaceOnUse">
<stop stop-color="#1919A2"/>
<stop offset="1" stop-color="white"/>
</linearGradient>
<linearGradient id="paint34_linear_2_5" x1="1893.29" y1="1618" x2="2023.42" y2="995.671" gradientUnits="userSpaceOnUse">
<stop stop-color="#1919A2"/>
<stop offset="1" stop-color="white"/>
</linearGradient>
<linearGradient id="paint35_linear_2_5" x1="1932.07" y1="656.496" x2="1882.87" y2="951.691" gradientUnits="userSpaceOnUse">
<stop stop-color="#1919A2"/>
<stop offset="1" stop-color="white"/>
</linearGradient>
<linearGradient id="paint36_linear_2_5" x1="1793.39" y1="1729" x2="1971.75" y2="980.195" gradientUnits="userSpaceOnUse">
<stop stop-color="#1919A2"/>
<stop offset="1" stop-color="white"/>
</linearGradient>
<linearGradient id="paint37_linear_2_5" x1="774.23" y1="1682.49" x2="1444.65" y2="977.396" gradientUnits="userSpaceOnUse">
<stop stop-color="#1919A2"/>
<stop offset="1" stop-color="white"/>
</linearGradient>
<linearGradient id="paint38_linear_2_5" x1="-323.559" y1="1518.7" x2="70.8555" y2="956.446" gradientUnits="userSpaceOnUse">
<stop stop-color="#1919A2"/>
<stop offset="1" stop-color="white"/>
</linearGradient>
<linearGradient id="paint39_linear_2_5" x1="74.2004" y1="1689.75" x2="226.803" y2="1055.57" gradientUnits="userSpaceOnUse">
<stop stop-color="#1919A2"/>
<stop offset="1" stop-color="white"/>
</linearGradient>
<linearGradient id="paint40_linear_2_5" x1="466.063" y1="1665.87" x2="682.602" y2="971.9" gradientUnits="userSpaceOnUse">
<stop stop-color="#1919A2"/>
<stop offset="1" stop-color="white"/>
</linearGradient>
<linearGradient id="paint41_linear_2_5" x1="653.707" y1="1119.41" x2="653.731" y2="1119.04" gradientUnits="userSpaceOnUse">
<stop stop-color="#794993"/>
<stop offset="1" stop-color="#DBB719"/>
</linearGradient>
<linearGradient id="paint42_linear_2_5" x1="962.219" y1="1387.89" x2="982.263" y2="1077.21" gradientUnits="userSpaceOnUse">
<stop stop-color="#794993"/>
<stop offset="1" stop-color="#DBB719"/>
</linearGradient>
<linearGradient id="paint43_linear_2_5" x1="1728.04" y1="1326.3" x2="1791.14" y2="1130.07" gradientUnits="userSpaceOnUse">
<stop stop-color="#794993"/>
<stop offset="1" stop-color="#DBB719"/>
</linearGradient>
<linearGradient id="paint44_linear_2_5" x1="1605.05" y1="1284.27" x2="1665.84" y2="1095.2" gradientUnits="userSpaceOnUse">
<stop stop-color="#794993"/>
<stop offset="1" stop-color="#DBB719"/>
</linearGradient>
<linearGradient id="paint45_linear_2_5" x1="1604.6" y1="1273.02" x2="1661.66" y2="1095.56" gradientUnits="userSpaceOnUse">
<stop stop-color="#794993"/>
<stop offset="1" stop-color="#DBB719"/>
</linearGradient>
<linearGradient id="paint46_linear_2_5" x1="917.112" y1="1412.08" x2="1054.51" y2="1029.08" gradientUnits="userSpaceOnUse">
<stop stop-color="#794993"/>
<stop offset="1" stop-color="#DBB719"/>
</linearGradient>
<linearGradient id="paint47_linear_2_5" x1="711.96" y1="1351.71" x2="856.34" y2="949.248" gradientUnits="userSpaceOnUse">
<stop stop-color="#794993"/>
<stop offset="1" stop-color="#DBB719"/>
</linearGradient>
<linearGradient id="paint48_linear_2_5" x1="892.564" y1="1408.24" x2="1033.44" y2="1015.56" gradientUnits="userSpaceOnUse">
<stop stop-color="#794993"/>
<stop offset="1" stop-color="#DBB719"/>
</linearGradient>
<linearGradient id="paint49_linear_2_5" x1="160.862" y1="1261.29" x2="184.669" y2="1147.86" gradientUnits="userSpaceOnUse">
<stop stop-color="#794993"/>
<stop offset="1" stop-color="#DBB719"/>
</linearGradient>
<linearGradient id="paint50_linear_2_5" x1="616.076" y1="1103.78" x2="635.511" y2="1043.43" gradientUnits="userSpaceOnUse">
<stop stop-color="#794993"/>
<stop offset="1" stop-color="#DBB719"/>
</linearGradient>
<linearGradient id="paint51_linear_2_5" x1="664.641" y1="1116.8" x2="683.732" y2="1057.51" gradientUnits="userSpaceOnUse">
<stop stop-color="#794993"/>
<stop offset="1" stop-color="#DBB719"/>
</linearGradient>
<linearGradient id="paint52_linear_2_5" x1="114.084" y1="1173.9" x2="115.257" y2="1155.73" gradientUnits="userSpaceOnUse">
<stop stop-color="#794993"/>
<stop offset="1" stop-color="#DBB719"/>
</linearGradient>
<linearGradient id="paint53_linear_2_5" x1="907.088" y1="1883.07" x2="907.088" y2="1373.21" gradientUnits="userSpaceOnUse">
<stop stop-color="#C9BDF2"/>
<stop offset="0.0796833" stop-color="#CABFF3"/>
<stop offset="0.9946" stop-color="#CFCFFC"/>
</linearGradient>
<linearGradient id="paint54_linear_2_5" x1="1049.64" y1="1687.16" x2="1047.19" y2="1852.16" gradientUnits="userSpaceOnUse">
<stop stop-color="#E17521"/>
<stop offset="1" stop-color="#C42B1B"/>
</linearGradient>
<linearGradient id="paint55_linear_2_5" x1="1034.28" y1="1686.92" x2="1031.83" y2="1851.95" gradientUnits="userSpaceOnUse">
<stop stop-color="#E17521"/>
<stop offset="1" stop-color="#C42B1B"/>
</linearGradient>
<linearGradient id="paint56_linear_2_5" x1="1223.77" y1="1792.31" x2="1248.89" y2="1888" gradientUnits="userSpaceOnUse">
<stop stop-color="#952F0B"/>
<stop offset="1" stop-color="#79190D"/>
</linearGradient>
<linearGradient id="paint57_linear_2_5" x1="1214.54" y1="1795.21" x2="1240.14" y2="1892.75" gradientUnits="userSpaceOnUse">
<stop stop-color="#952F0B"/>
<stop offset="1" stop-color="#79190D"/>
</linearGradient>
<linearGradient id="paint58_linear_2_5" x1="1396.81" y1="1731.62" x2="1395.22" y2="1746.27" gradientUnits="userSpaceOnUse">
<stop stop-color="#952F0B"/>
<stop offset="1" stop-color="#79190D"/>
</linearGradient>
<linearGradient id="paint59_linear_2_5" x1="1354.86" y1="1728.38" x2="1353.3" y2="1742.77" gradientUnits="userSpaceOnUse">
<stop stop-color="#952F0B"/>
<stop offset="1" stop-color="#79190D"/>
</linearGradient>
<linearGradient id="paint60_linear_2_5" x1="1388.83" y1="1731.15" x2="1387.26" y2="1745.7" gradientUnits="userSpaceOnUse">
<stop stop-color="#952F0B"/>
<stop offset="1" stop-color="#79190D"/>
</linearGradient>
<linearGradient id="paint61_linear_2_5" x1="958.5" y1="1008" x2="958.5" y2="415" gradientUnits="userSpaceOnUse">
<stop stop-color="#3D4578" stop-opacity="0"/>
<stop offset="0.560764" stop-color="#3D4578"/>
</linearGradient>
<linearGradient id="paint62_linear_2_5" x1="958.5" y1="1547" x2="958.5" y2="2198" gradientUnits="userSpaceOnUse">
<stop stop-color="#A49DB9" stop-opacity="0"/>
<stop offset="0.237842" stop-color="#A49DB9" stop-opacity="0.950412"/>
<stop offset="0.420137" stop-color="#A49DB9"/>
<stop offset="0.748268" stop-color="#A49DB9"/>
<stop offset="1" stop-color="#A49DB9" stop-opacity="0"/>
</linearGradient>
<linearGradient id="paint63_linear_2_5" x1="957.5" y1="0" x2="957.5" y2="871" gradientUnits="userSpaceOnUse">
<stop stop-color="#3D4578" stop-opacity="0"/>
<stop offset="0.331593" stop-color="#3D4578" stop-opacity="0.665499"/>
<stop offset="0.498263" stop-color="#3D4578"/>
<stop offset="0.644099" stop-color="#3D4578"/>
</linearGradient>
<clipPath id="clip0_2_5">
<rect width="2775" height="1110" fill="white" transform="translate(-430 679)"/>
</clipPath>
<clipPath id="clip1_2_5">
<rect width="1924" height="679" fill="white" transform="translate(-4)"/>
</clipPath>
</defs>
</svg>
