<svg width="1159" height="735" viewBox="0 0 1159 735" fill="none" xmlns="http://www.w3.org/2000/svg">
<path fill-rule="evenodd" clip-rule="evenodd" d="M13.8018 48.5602H1145.2L1158.44 35.0733H799.541C795.268 35.0733 791.637 33.1155 789.5 29.4175L788.005 27.0246L723.274 18.976L700.843 27.0246L699.348 29.4175C696.998 33.1155 693.58 35.0733 689.307 35.0733H677.13C668.798 35.0733 661.535 30.9402 657.048 23.7617L651.067 13.9728L579.5 0.920898L508.147 14.1903L502.165 23.9792C497.679 31.1577 490.415 35.2908 482.084 35.2908H469.907C465.634 35.2908 462.002 33.3331 459.866 29.635L458.371 27.2422L435.939 19.1935L371.209 27.2422L369.713 29.635C367.363 33.3331 363.945 35.2908 359.672 35.2908H0.556641L13.8018 48.5602Z" fill="#CCCCCC"/>
<path fill-rule="evenodd" clip-rule="evenodd" d="M1151.95 42.064H7.0498L13.6739 48.5602H1145.33L1151.95 42.064Z" fill="url(#paint0_linear_1506_186700)"/>
<path fill-rule="evenodd" clip-rule="evenodd" d="M7.17371 42.064H435.576V18.2443L370.899 26.6379L369.405 29.1333C367.057 32.9898 363.642 35.0315 359.373 35.0315H0.556641L7.17371 42.064Z" fill="url(#paint1_linear_1506_186700)"/>
<path fill-rule="evenodd" clip-rule="evenodd" d="M435.576 19.0851V42.064H578.418V0.920898L507.528 14.2705L501.585 24.1186C497.128 31.3405 489.911 35.4986 481.634 35.4986H469.536C465.291 35.4986 461.683 33.529 459.56 29.8086L458.074 27.4013L435.576 19.0851Z" fill="url(#paint2_linear_1506_186700)"/>
<path fill-rule="evenodd" clip-rule="evenodd" d="M578.418 0.920898V42.064H723.424V19.0851L700.801 27.1824L699.293 29.5897C696.922 33.3101 693.475 35.2797 689.166 35.2797H676.884C668.481 35.2797 661.156 31.1217 656.631 23.8997L650.598 14.0517L578.418 0.920898Z" fill="url(#paint3_linear_1506_186700)"/>
<path fill-rule="evenodd" clip-rule="evenodd" d="M723.424 18.2443V42.064H1151.83L1158.44 35.0315H799.627C795.358 35.0315 791.729 32.9898 789.595 29.1333L788.1 26.6379L723.424 18.2443Z" fill="url(#paint4_linear_1506_186700)"/>
<path fill-rule="evenodd" clip-rule="evenodd" d="M483.189 42.064C497.003 40.5401 556.442 35.751 563.767 33.5741C574.022 30.7442 574.441 17.9006 578.418 0.920898V41.8463H483.189V42.064Z" fill="url(#paint5_linear_1506_186700)"/>
<path fill-rule="evenodd" clip-rule="evenodd" d="M383.633 42.064C391.084 41.1801 423.74 38.7496 427.685 37.6447C433.384 36.098 433.384 29.2482 435.575 20.4097V42.064H383.633Z" fill="url(#paint6_linear_1506_186700)"/>
<path fill-rule="evenodd" clip-rule="evenodd" d="M671.481 42.064C678.933 41.1801 711.589 38.7496 715.534 37.6447C721.232 36.098 721.232 29.2482 723.424 20.4097V42.064H671.481Z" fill="url(#paint7_linear_1506_186700)"/>
<path fill-rule="evenodd" clip-rule="evenodd" d="M723.424 722.007V700.353H1151.61L1158.44 707.016H1157.8H797.315C793.258 707.016 789.841 709.098 788.132 712.638L723.424 722.007Z" fill="url(#paint8_linear_1506_186700)"/>
<path fill-rule="evenodd" clip-rule="evenodd" d="M578.418 700.353V703.818V735L639.394 721.141L641.979 715.944C644.78 710.531 650.167 707.283 656.2 707.283H691.536C695.63 707.283 699.077 709.448 700.801 713.129L723.424 722.874V703.818V700.353H578.418Z" fill="url(#paint9_linear_1506_186700)"/>
<path opacity="0.5" fill-rule="evenodd" clip-rule="evenodd" d="M695.289 700.353C705.094 701.23 713.194 702.107 715.325 702.546C720.014 703.862 721.719 706.712 723.425 717.677V700.353H695.289Z" fill="url(#paint10_linear_1506_186700)"/>
<path fill-rule="evenodd" clip-rule="evenodd" d="M435.576 722.007V700.353H7.39051L0.556641 707.016H1.19732H361.684C365.742 707.016 369.159 709.098 370.867 712.638L435.576 722.007Z" fill="url(#paint11_linear_1506_186700)"/>
<path fill-rule="evenodd" clip-rule="evenodd" d="M578.418 700.353V703.818V735L518.352 721.141L515.805 715.944C513.046 710.531 507.74 707.283 501.797 707.283H466.989C462.956 707.283 459.56 709.448 457.862 713.129L435.576 722.874V703.818V700.353H578.418Z" fill="url(#paint12_linear_1506_186700)"/>
<path fill-rule="evenodd" clip-rule="evenodd" d="M13.4505 693.857H1143.39L1149.79 700.353H7.0498L13.4505 693.857Z" fill="url(#paint13_linear_1506_186700)"/>
<path opacity="0.5" fill-rule="evenodd" clip-rule="evenodd" d="M522.146 700.353C542.228 702.085 562.938 703.818 566.912 704.901C573.397 706.633 575.907 710.747 578.418 726.338V700.353H522.146Z" fill="url(#paint14_linear_1506_186700)"/>
<path opacity="0.5" fill-rule="evenodd" clip-rule="evenodd" d="M407.44 700.353C417.245 701.23 425.345 702.107 427.476 702.546C432.166 703.862 433.871 706.712 435.576 717.677V700.353H407.44Z" fill="url(#paint15_linear_1506_186700)"/>
<path fill-rule="evenodd" clip-rule="evenodd" d="M7.04946 700.141V42.2762L0.556641 35.5677V706.849L7.04946 700.141Z" fill="url(#paint16_linear_1506_186700)"/>
<path fill-rule="evenodd" clip-rule="evenodd" d="M7.0498 42.064V700.353L7.25925 700.137L13.5426 693.64V48.7768L7.0498 42.064Z" fill="url(#paint17_linear_1506_186700)"/>
<path fill-rule="evenodd" clip-rule="evenodd" d="M1145.46 48.7746V693.642L1151.74 700.137L1151.95 700.353V42.064L1145.46 48.7746Z" fill="url(#paint18_linear_1506_186700)"/>
<path fill-rule="evenodd" clip-rule="evenodd" d="M1151.95 42.274V700.143L1158.44 706.849V35.5677L1151.95 42.274Z" fill="url(#paint19_linear_1506_186700)"/>
<defs>
<linearGradient id="paint0_linear_1506_186700" x1="579.5" y1="48.6126" x2="579.5" y2="42.1208" gradientUnits="userSpaceOnUse">
<stop stop-color="#6E4500"/>
<stop offset="1" stop-color="#CF9353"/>
</linearGradient>
<linearGradient id="paint1_linear_1506_186700" x1="0.529959" y1="30.1834" x2="435.454" y2="30.1834" gradientUnits="userSpaceOnUse">
<stop stop-color="#BA7621"/>
<stop offset="1" stop-color="#FFD24F"/>
</linearGradient>
<linearGradient id="paint2_linear_1506_186700" x1="435.667" y1="21.4981" x2="578.418" y2="21.4981" gradientUnits="userSpaceOnUse">
<stop stop-color="#BA7014"/>
<stop offset="0.7175" stop-color="#FFD24F"/>
<stop offset="1" stop-color="#FFE48A"/>
</linearGradient>
<linearGradient id="paint3_linear_1506_186700" x1="578.418" y1="21.4981" x2="723.334" y2="21.4981" gradientUnits="userSpaceOnUse">
<stop stop-color="#BA7014"/>
<stop offset="0.7175" stop-color="#FFD24F"/>
<stop offset="1" stop-color="#FFE48A"/>
</linearGradient>
<linearGradient id="paint4_linear_1506_186700" x1="723.334" y1="30.1834" x2="1158.26" y2="30.1834" gradientUnits="userSpaceOnUse">
<stop stop-color="#BA7014"/>
<stop offset="1" stop-color="#FFD24F"/>
</linearGradient>
<linearGradient id="paint5_linear_1506_186700" x1="483.257" y1="21.6069" x2="578.418" y2="21.6069" gradientUnits="userSpaceOnUse">
<stop stop-color="#473626"/>
<stop offset="1" stop-color="#E8E7B3"/>
</linearGradient>
<linearGradient id="paint6_linear_1506_186700" x1="383.72" y1="31.268" x2="435.669" y2="31.268" gradientUnits="userSpaceOnUse">
<stop stop-color="#473626"/>
<stop offset="1" stop-color="#E8E7B3"/>
</linearGradient>
<linearGradient id="paint7_linear_1506_186700" x1="671.383" y1="31.268" x2="723.332" y2="31.268" gradientUnits="userSpaceOnUse">
<stop stop-color="#473626"/>
<stop offset="1" stop-color="#E8E7B3"/>
</linearGradient>
<linearGradient id="paint8_linear_1506_186700" x1="723.334" y1="711.192" x2="1158.47" y2="711.192" gradientUnits="userSpaceOnUse">
<stop stop-color="#945200"/>
<stop offset="1" stop-color="#E39919"/>
</linearGradient>
<linearGradient id="paint9_linear_1506_186700" x1="578.418" y1="717.72" x2="723.334" y2="717.72" gradientUnits="userSpaceOnUse">
<stop stop-color="#945200"/>
<stop offset="0.7026" stop-color="#E39919"/>
<stop offset="1" stop-color="#EBAB21"/>
</linearGradient>
<linearGradient id="paint10_linear_1506_186700" x1="695.277" y1="709.067" x2="723.335" y2="709.067" gradientUnits="userSpaceOnUse">
<stop stop-color="#473626"/>
<stop offset="1" stop-color="#E8E7B3"/>
</linearGradient>
<linearGradient id="paint11_linear_1506_186700" x1="0.529946" y1="711.192" x2="435.667" y2="711.192" gradientUnits="userSpaceOnUse">
<stop stop-color="#945200"/>
<stop offset="0.7026" stop-color="#E39919"/>
<stop offset="1" stop-color="#EBAB21"/>
</linearGradient>
<linearGradient id="paint12_linear_1506_186700" x1="435.667" y1="717.72" x2="578.418" y2="717.72" gradientUnits="userSpaceOnUse">
<stop stop-color="#945200"/>
<stop offset="0.7026" stop-color="#E39919"/>
<stop offset="1" stop-color="#EBAB21"/>
</linearGradient>
<linearGradient id="paint13_linear_1506_186700" x1="578.419" y1="700.393" x2="578.419" y2="693.932" gradientUnits="userSpaceOnUse">
<stop stop-color="#FFD99E"/>
<stop offset="1" stop-color="#FFD147"/>
</linearGradient>
<linearGradient id="paint14_linear_1506_186700" x1="522.143" y1="713.38" x2="578.418" y2="713.38" gradientUnits="userSpaceOnUse">
<stop stop-color="#473626"/>
<stop offset="1" stop-color="#E8E7B3"/>
</linearGradient>
<linearGradient id="paint15_linear_1506_186700" x1="407.395" y1="709.067" x2="435.454" y2="709.067" gradientUnits="userSpaceOnUse">
<stop stop-color="#473626"/>
<stop offset="1" stop-color="#E8E7B3"/>
</linearGradient>
<linearGradient id="paint16_linear_1506_186700" x1="0.530879" y1="371.257" x2="7.0193" y2="371.257" gradientUnits="userSpaceOnUse">
<stop stop-color="#F5AD24"/>
<stop offset="1" stop-color="#FFE56B"/>
</linearGradient>
<linearGradient id="paint17_linear_1506_186700" x1="7.01964" y1="371.257" x2="13.5089" y2="371.257" gradientUnits="userSpaceOnUse">
<stop stop-color="#AB671C"/>
<stop offset="1" stop-color="#784C00"/>
</linearGradient>
<linearGradient id="paint18_linear_1506_186700" x1="1145.49" y1="371.272" x2="1151.98" y2="371.272" gradientUnits="userSpaceOnUse">
<stop stop-color="#D18900"/>
<stop offset="1" stop-color="#F5B41E"/>
</linearGradient>
<linearGradient id="paint19_linear_1506_186700" x1="1151.98" y1="371.272" x2="1158.47" y2="371.272" gradientUnits="userSpaceOnUse">
<stop stop-color="#AB671C"/>
<stop offset="1" stop-color="#784C00"/>
</linearGradient>
</defs>
</svg>
