<svg xmlns="http://www.w3.org/2000/svg" viewBox="0 0 60.54 60.54">
  <path fill="#fff" fill-rule="evenodd" d="M0 30.27c0 16.72 13.55 30.27 30.27 30.27 14.21 0 26.13-9.79 29.39-22.99.58-2.33.88-4.77.88-7.28 0-1.11-.06-2.21-.18-3.28C58.73 11.81 45.88 0 30.27 0 13.55 0 0 13.55 0 30.27Z"/>
  <g fill="#625eab" fill-rule="evenodd" opacity=".2">
    <path d="M37.92 50.73c-.38.81-.63 1.53-1.28 2.2-.7.73-1.25.87-2.16 1.14-.53.16-.64.34-1.32.33-.44 0-1.06-.11-1.48-.02-.96.22-1.47 1.07-2.55 1.13-1.02.06-1.68-.28-2.57-.55l-2.58-.91-2.47-.83c-.94-.3-1.42-.93-2.59-.6-.07.44.03 1.13-.5 1.35-.37.15-.98-.24-1.38-.39l-2.93-1.02c-.47-.2-.81-.18-1.29-.54-.46-.34-.95-.6-1.43-.92l-2.64-1.83c-1.69-1.15-2.79-2.73-3.81-4.4-.54-.88-.85-1.85-1.19-2.85-.42-1.23-.28-1.59.55-2.59 1.48.62 2.07-.3 1.66-1.89-.36-1.39-.52-3.23-.2-4.69.06-.26.25-.44.29-.81.05-.4-.03-.7.07-1.11.17-.67.29-1.12.29-1.83 0-.72-.1-1.51.08-2.2.11-.44.27-.62.29-1.1.02-.49-.06-.91.07-1.38.35-1.22 1.47-1.57 2.48-1.92.69-.24 1.04-.47 1.48 0 .47.5.35 1.19.36 1.84 0 1.22-.78 2.3-1.47 3.3-.3.44-.84.87-.76 1.48.04.33.46.38.43.72-.03.41-.47.53-.69.82-1.75 2.29 1.55 4.3 3.12 5.51.9.69 2.24 1.04 2.58 2.19.37 1.23-.48 2.25-.93 3.3-.47 1.1-.87 3.02-.19 4.05.29.44.85.7 1.29.91.64.31.89.7 1.46 1.11.93.67 2.07.9 3.22.82.73-.05 1.26-.34 1.83-.74.44-.31 1.03-.87 1.55-1.02.37-.11.65-.03 1.03-.07.52-.06.62-.28 1.07-.39.78-.2 1.33.35 1.94.66.52.26 1.13.64 1.76.48.61-.16 1.31-.55 1.89-.67 1.4-.29 3.66-.39 4.78.56.56.48.76 1.15 1.27 1.66.48.48 1.42.61 1.57 1.73zm-27.87-31.9c1.34.03 2.58-.98 3.68-1.74.9-.62 1.85-1.6 2.28-2.57.13-.29.17-.53.28-.82l.35-.96c-.01-.51-.43-1.12-.81-1.51-1.09-1.13-2.76-.32-3.86.36-1.04.64-2.04 1.37-2.91 2.2-.42.4-1 .77-1.3 1.27-.39.67-.28 1.49-.27 2.3.02 1.24-1.61 2.67.36 2.94.77.11 3.13-.54 3.31-1.47h-1.1zm24.2 39.24c.33.37.73.11 1.1 0 .36-.12.68-.18 1.1-.18.8 0 1.53 0 2.29-.18l2.11-.46c.28-.07.54-.22.82-.28.17-.04.37.02.54 0 .08-.01.09-.11.15-.13.14-.03.28-.01.42-.04.69-.12 1.35-.33 1.97-.51.29-.09.56-.1.83-.26l.92-.55c.99-.73 2.07-1.35 2.97-2.25l2.62-2.43c.21-.18.37-.43.59-.6.24-.19.46-.27.69-.5.46-.47.82-.98 1.19-1.52.72-1.05 1.65-1.9 2.22-3.04l.85-1.62a6.37 6.37 0 0 0 .55-1.11c.11-.28.34-.6.41-.86.11-.39.11-.77.22-1.16.05-.17.16-.28.2-.44.05-.21-.06-.45-.02-.66.04-.19.16-.27.2-.44.05-.21-.06-.45-.02-.66.04-.19.16-.27.2-.44.06-.24-.08-.52-.02-.75.04-.17.16-.26.2-.44.04-.19 0-.45 0-.65 0-.47.16-.83.19-1.28.02-.41.09-.98 0-1.38-.04-.18-.16-.27-.2-.44-.06-.24.06-.48-.02-.73-.49-.13-.34.92-.34 1.18 0 .47-.19.73-.18 1.19.01.57-.22.65-.56 1.06-.14.18-.48.53-.55.76-.05.16-.04.41-.08.56-.05.19-.1.32-.09.55 0 .45.03.67-.32.96-.24.2-.65.45-.96.51-.42.09-.78.09-1.21.17-.19.04-.26.16-.44.2-.23.05-.48-.09-.71.03-.21.11-.49.54-.55.74-.12.39-.04.72.14 1.06l.18.37c.08.14.25.27.33.4.35.63-.15 1.67-.29 2.2-.05.21-.37.84-.2 1.03s1.21.03 1.41-.09c.11.23-.1.68-.17.92-.08.29-.22.7-.39.98-.33.55-.93 1.05-1.5 1.35-.37.2-.6.3-.67-.2-.03-.23.03-.35-.08-.56-.08-.15-.23-.17-.29-.35-.06-.2.06-.45.02-.66-.04-.15-.14-.25-.17-.38-.1-.43.07-.92 0-1.36-.15-.88-.8-1.28-1.57-1.47-.78-.19-1.55-.41-2.28-.73-.83-.37-1.72-.5-2.58-.23-.7.22-1.26.64-1.9.98-.3.16-.56.23-.85.34l-1.02.35c-.6.17-1.3.27-1.86.61-.52.31-1.23.73-1.61 1.24-.36.49-.7 1.49-.44 2.1.2.46.89.86 1.22 1.25.56.66.41 1.1 0 1.78-.15.25-.42.58-.49.85-.1.36-.04.9-.02 1.27.02.35.13.58.32.87.18.27.6.44.75.72.13.25 0 .38-.1.56-.03.05-.12.07-.15.13-.07.13-.03.25-.08.38-.18.42-.54.36-.92.45-.39.1-.73.06-1.11-.09-.22-.09-.3-.15-.54-.19-.27-.04-.4.1-.59.15-.45.09-.71-.22-1.16-.24-.36-.02-.58.14-.86.42-.23.23-.56.62-.52.97.04.36.5.58.75.91zm3.48-13.75-.32-.16c-.29.33-.61.67-.96.89-.54.34-.8.12-.92-.45-.06-.29.1-.48.15-.69.06-.24 0-.5.26-.66.36-.21 1.4-.1 1.25.51l.55.55zm17.6-23.65c.08.14.19.2.34.17.08-.31.07-.85.01-1.16-.03-.17-.15-.26-.17-.47-.02-.18 0-.34-.04-.51-.05-.23-.24-.59-.29-.81-.08-.36-.09-.55-.23-.87-.13-.3-.21-.68-.34-1.02-.12-.31-.27-.53-.44-.81l-.96-1.66c-.61-.99-1.29-1.97-2.21-2.75-.31-.26-.67-.46-1-.69-.11-.08-.2-.21-.31-.28s-.28-.1-.38-.17c-.29-.21-1.11-1.04-1.48-.84.26.68.71 1.36 1.03 2.03.38.77 1.08.74 1.65 1.28.88.86-.59 1.21-1.1 1.55-.5.33-.51.8-.5 1.34a4.55 4.55 0 0 1-.18 1.38c-.06.19-.16.44-.19.64 0 .13.01.25.02.38a.24.24 0 0 1-.15.21c-.11.52.1.83.28 1.28.17.44.28.86.64 1.2.36.33.76.22 1.24.23.31 0 .45-.07.73-.14l.59-.18c.22-.04.43-.04.65-.08.23-.05.24-.18.55-.1.32.08.62.44.95.52.46.1.99-.11 1.44.02.01.05.02.1-.15.34zm-34.29 23.4c.53-.01 1.23.6 1.54 1.06.43.62-.37 1.27-.82 1.58-.17.12-.32.23-.52.31-.12.05-.37.22-.47.22-.32 0-.45-.77-.57-1.03-.38-.81.23-1.39.84-1.86v-.27zm-2.6 1.24.11.09c.18-.39-.1-.81-.13-1.17-.26-.01-.81.48-.81.74 0 .45.66.47.97.48l-.14-.14zm-4.79-17.8c.15-.67 1.09.08 1.33.31.17.16.35.32.45.51.14.26.12.58.13.89.01.34.14.61.14.96 0 .36-.03.7-.13 1.03-.18.59-.61 1.03-1.1 1.36-.25.17-.55.3-.82.44-.36.19-.36.28-.73.09-.42-.22-.88-.43-1.21-.77-.4-.4-.78-.78-1.06-1.27-.36-.62.02-1.1.35-1.64.38-.64.94-1.18 1.47-1.74.14-.15.36-.46.54-.55.35-.18.72.12.66.38zm.13-2.46.11-.03c.01-.18.39-.75.14-.91-.19-.12-.48.25-.59.39-.18.22-.35.62-.11.87.23.24.68.03.59-.31h-.14zm6.02 29.97c.19-.22.75-.32 1.03-.26l.96.26c.68.12 1.54.46 2.13.82.85.53 2.35 2.01.9 2.76-.59.3-1.32.25-2 .26-.35 0-.54-.14-.89-.14-.38 0-.69-.12-1.03-.21-.61-.15-1.19-.33-1.78-.58-.52-.22-.93-.6-1.34-1-.51-.49-.58-1.15-.06-1.68.3-.31.57-.24.99-.24h1.09zm-3.69-.27c.06.11.15.15.26.12.15-.31-.62-.8-.84-.91-.36-.18-1.07-.57-1.2.03-.09.39.34.91.68 1.1.38.21 1.14.01 1.24-.48l-.14.14zM4.75 28.88s.08.02.11.02c.16.55-.09 1.1-.12 1.62-.03.54 0 1.1 0 1.64v1.64c0 .22.02.44-.03.65-.02.09-.09.17-.11.3-.02.17 0 .37 0 .55 0 .27.02.54-.03.79 0 .03-.09.27-.11.3-.05.16 0 .17-.1.31-.25.38-.73.62-1.14.41-.34-.17-.59-.44-.94-.59-.5-.21-.73-.49-.97-.96-.2-.39-.28-.81-.41-1.24-.04-.12-.12-.14-.15-.26s0-.26-.02-.39c-.02-.09-.09-.17-.11-.3l.01-.28c0-.07-.05-.13-.11-.16-.05-.22-.01-.43-.03-.65-.02-.29-.12-.52-.14-.82-.01-.29-.14-.52-.14-.82v-2.46c0-.28.08-.43.14-.68.06-.27.07-.56.13-.83.04-.18.21-.4.25-.57.07-.28.11-.41.27-.66.3-.45.47-.64.96-.85.46-.2 1.09-.12 1.51.2.14.11.39.34.44.51.03.11 0 .27.02.39.03.15.11.24.11.44 0 .53-.13 1.27 0 1.79.06.25.23.55.31.81.11.33.1.6.38.14zm.68-6.98c.36-.11.55.7.55.96 0 .22.07.47-.13.62-.13.1-.53.12-.7.07-.43-.13-.4-.75-.4-1.1 0-.39.33-.92.82-.82l-.14.27zm46.95-.55.03-.11c.14-.01.21-.12.33-.15.15-.04.31-.01.47-.01.33 0 .52-.11.82-.14.15-.02.33 0 .48 0 .18 0 .25.08.37.11.3.07.54.04.79.23.41.3.71.79.96 1.22.3.53.55 1.08.55 1.72 0 .28 0 .51-.15.74-.17.24-.25.41-.36.67-.25.58-.47.78-1.13.79-.59 0-1.15-.34-1.64-.61-.24-.13-.42-.32-.63-.47-.18-.13-.39-.22-.54-.42-.35-.48-.41-1.11-.54-1.65-.07-.29-.13-.7-.06-1.02.01-.06.08-.07.09-.11.03-.11 0-.22.03-.32.04-.16.19-.3.14-.48zm-1.5 1.1c.35 0-.12-.98-.51-.93-.33.04-.63.59-.71.87-.34 1.23 1.52 1.32 1.49.19l-.27-.14zm-4.52 2.19c.03.29.32.46.38.71.07.26-.05.48-.2.69-.12.17-.36.43-.59.38s-.36-.36-.54-.49c-.36-.27-1-.55-.55-1.09.18-.22.48-.31.75-.35.4-.06.59.05.89.28l-.14-.14z"/>
    <path d="M55.8 36.82c.51.12.46-.65.39-.94-.22-.04-.45-.18-.66-.17-.22.01-.62.19-.79.32-.39.28-.61.74-.38 1.2.15.29.82.73 1.14.52.29-.19.44-.9.44-1.2l-.14.27zM17.2 7.39c.13-.25.22-.36 0-.55-.18-.16-.43-.17-.66-.1-.32.1-.66.49-.89.75-.12.14-.34.46-.35.62-.02.2.08.37.21.55.22.3.57.55.82.82.39.41.64.17.96-.21.25-.3.45-.64.69-.95.06-.08.27-.47.28-.55.02-.16-.06-.37-.17-.52-.23-.31-.68-.7-1.03-.82l.14.96zm-3.28 1.1s.08.02.11.02c.11.36-.03.59-.38.67-.31.07-.77-.06-.84-.34-.07-.27.21-.54.41-.69.32-.24.61-.28.69.21v.14zm2.05 35.04c-.04.13.12.52.17.65l.24.65c.1.21.16.44.21.68.05.25.17.45.21.68.1.52-.5.88-.97.76-.41-.1-.78-.42-1.12-.66-.23-.16-.29-.13-.41-.41-.11-.24-.16-.48-.24-.73s-.14-.39-.14-.68c0-.27-.03-.56.03-.82.31-1.29 1.73-.46 2.02.41v-.55zm-4.1 8.89c.13-.48-.78-.82-1.09-.82-.38 0-.44.04-.58.38-.12.3-.16.51.03.79.29.41 1.09.65 1.57.47.57-.23.32-.98-.19-1.08l.27.27zm5.88-9.85c.16-.03.37-.25.42-.4.04-.12-.01-.26.02-.39.03-.1.09-.17.11-.3s-.04-.28-.01-.41c.03-.15.12-.26.15-.41.05-.26-.06-.56-.01-.82.04-.24.28-.53.12-.79-.14-.22-.43-.2-.66-.17-.24.03-.44.11-.68.17a3.13 3.13 0 0 0-.88.38c-.39.26-.8.55-.91 1.02-.1.44-.03 1.18.07 1.58.09.34.25.82.61 1.03s1.17.09 1.51-.07l.14-.41zm-3.15-.27v-.09c.12.66-.66.59-.83.1-.19-.56.71-.73.83-.14v.14z"/>
  </g>
</svg>
