<svg xmlns="http://www.w3.org/2000/svg" xmlns:xlink="http://www.w3.org/1999/xlink" viewBox="0 0 800 486.3"><style>.A,.T{mix-blend-mode:multiply}.E,.I{mix-blend-mode:soft-light}.e{opacity:.2}.f{opacity:.5}.g{fill:#16011a}.h{fill:#3c1d47}.i{fill:#8b89a4}.j{fill:#726da7}.k{fill-rule:evenodd}.l{fill:#5c367d}.m{opacity:.3}.n{fill:#8b3386}.o{opacity:.81}.p{fill:#5f3464}.q{fill:#5c489a}.r{fill:#362072}.s{fill:#6d335b}.t{fill:#6a81ff}.u{fill:#7f757c}.v{fill:#a2bbff}.w{fill:#8897c0}.x{fill:#462a58}.y{fill:#281147}</style><defs><linearGradient xlink:href="#BD" id="A" x1="389.92" x2="389.92" y1="340.72" y2="224.67"><stop offset="0" stop-color="#5c44ab"/><stop offset="1" stop-color="#6583ff"/></linearGradient><linearGradient xlink:href="#BD" id="B" x1="332.32" x2="332.32" y1="347.35" y2="152.35"><stop offset="0" stop-color="#5c44ab"/><stop offset="1" stop-color="#806fb3"/></linearGradient><linearGradient xlink:href="#B" id="C" x1="446.03" x2="446.03" y1="348.6" y2="220.65"/><linearGradient xlink:href="#BD" id="D" x1="539.32" x2="539.32" y1="368.85" y2="129.35"><stop offset="0" stop-color="#571e63"/><stop offset="1" stop-color="#4c3b8f"/></linearGradient><linearGradient xlink:href="#BD" id="E" x1="531.56" x2="611.57" y1="247.61" y2="247.61"><stop offset="0" stop-color="#c77cbd"/><stop offset="1" stop-color="#974577"/></linearGradient><linearGradient xlink:href="#E" id="F" x1="476.34" x2="498.33" y1="268.94" y2="268.94"/><linearGradient xlink:href="#E" id="G" x1="491.33" x2="546" y1="255.91" y2="255.91"/><linearGradient xlink:href="#E" id="H" x2="553.14" y1="243.22" y2="243.22"/><linearGradient xlink:href="#E" id="I" x1="572.5" x2="590.52" y1="206.08" y2="206.08"/><linearGradient xlink:href="#E" id="J" x1="512.94" x2="523.52" y1="203.09" y2="203.09"/><linearGradient xlink:href="#E" id="K" x1="484.57" x2="546" y1="313.1" y2="313.1"/><linearGradient xlink:href="#E" id="L" x1="546" x2="559.7" y1="302.43" y2="302.43"/><linearGradient xlink:href="#E" id="M" x1="497.35" x2="521.5" y1="317.86" y2="317.86"/><linearGradient xlink:href="#E" id="N" x1="543.75" x2="575.16" y1="193.18" y2="193.18"/><linearGradient xlink:href="#BD" id="O" x1="690.25" x2="690.25" y1="400.1" y2=".1"><stop offset="0" stop-color="#1b0033"/><stop offset="1" stop-color="#340023"/></linearGradient><linearGradient xlink:href="#BD" id="P" x1="616.98" x2="616.98" y1="400.1" y2="82.43"><stop offset="0" stop-color="#40135b"/><stop offset="1" stop-color="#432c81"/></linearGradient><linearGradient xlink:href="#BD" id="Q" x1="649.34" x2="649.34" y1="367.85" y2="20.43"><stop offset="0" stop-color="#3b003d"/><stop offset="1" stop-color="#461d54"/></linearGradient><linearGradient xlink:href="#E" id="R" x1="658.14" x2="658.14" y1="390.55" y2="137.1"/><linearGradient xlink:href="#E" id="S" x1="723.93" x2="723.93" y1="394.54" y2="127.1"/><linearGradient xlink:href="#E" id="T" x1="728.77" x2="728.77" y1="161.1" y2="10.43"/><linearGradient xlink:href="#E" id="U" x1="782.9" x2="782.9" y1="396.92" y2=".1"/><linearGradient xlink:href="#E" id="V" x1="661.19" x2="661.19" y1="297.64" y2="20.43"/><linearGradient xlink:href="#E" id="W" x1="667.87" x2="667.87" y1="159.03" y2="82.72"/><linearGradient xlink:href="#E" id="X" x1="636.91" x2="636.91" y1="196.37" y2="82.43"/><linearGradient xlink:href="#E" id="Y" x1="596.8" x2="596.8" y1="353.85" y2="222.2"/><linearGradient xlink:href="#E" id="Z" x1="676.1" x2="676.1" y1="394.54" y2="169.76"/><linearGradient xlink:href="#E" id="a" x1="637.74" x2="637.74" y1="367.85" y2="184.1"/><linearGradient xlink:href="#E" id="b" x1="658.41" x2="658.41" y1="154.43" y2="115.79"/><linearGradient xlink:href="#E" id="c" x1="744.22" x2="800" y1="259.79" y2="259.79"/><linearGradient xlink:href="#E" id="d" x1="738.21" x2="779.53" y1="297.48" y2="297.48"/><linearGradient xlink:href="#E" id="e" x1="741.84" x2="772.61" y1="45.23" y2="45.23"/><linearGradient xlink:href="#E" id="f" x1="743.67" x2="782.61" y1="92.81" y2="92.81"/><linearGradient xlink:href="#E" id="g" x1="776.8" x2="800" y1="310.09" y2="310.09"/><linearGradient xlink:href="#E" id="h" x1="765.81" x2="790.64" y1="69.75" y2="69.75"/><linearGradient xlink:href="#E" id="i" x1="720.63" x2="743.01" y1="48.25" y2="48.25"/><linearGradient xlink:href="#BD" id="j" x1="166.1" x2="166.1" y1="400.1" y2=".1"><stop offset="0" stop-color="#1b0033"/><stop offset="1" stop-color="#410f37"/></linearGradient><linearGradient xlink:href="#E" id="k" x1="84.28" x2="84.28" y1="384.1" y2="0"/><linearGradient xlink:href="#E" id="l" x1="22.56" x2="22.56" y1="384.1" y2="82.43"/><linearGradient xlink:href="#E" id="m" x1="51.52" x2="51.52" y1="145.39" y2=".03"/><linearGradient xlink:href="#E" id="n" x1="138.82" x2="138.82" y1="376.24" y2="0"/><linearGradient xlink:href="#E" id="o" x1="97.51" x2="97.51" y1="381.81" y2="161.1"/><linearGradient xlink:href="#E" id="p" x1="202.31" x2="202.31" y1="372.54" y2="14.76"/><linearGradient xlink:href="#E" id="q" x1="206.83" x2="206.83" y1="248.18" y2="42.6"/><linearGradient xlink:href="#E" id="r" x1="256.35" x2="256.35" y1="326.78" y2="127.1"/><linearGradient xlink:href="#E" id="s" x1="99.99" x2="99.99" y1="378.42" y2="290.26"/><linearGradient xlink:href="#E" id="t" x1="225.44" x2="252.13" y1="340.48" y2="340.48"/><linearGradient xlink:href="#E" id="u" x1="170.35" x2="195.7" y1="322.17" y2="322.17"/><linearGradient xlink:href="#E" id="v" x1="143.5" x2="143.5" y1="189.1" y2="57.1"/><linearGradient xlink:href="#E" id="w" x1="105.49" x2="105.49" y1="249.43" y2="245.87"/><linearGradient xlink:href="#E" id="x" x1="205.32" x2="205.32" y1="335.17" y2="315"/><linearGradient xlink:href="#E" id="y" x1="210.23" x2="210.23" y1="356.72" y2="347.35"/><linearGradient xlink:href="#E" id="z" x1="154.99" x2="154.99" y1="268.1" y2="197.43"/><linearGradient xlink:href="#BD" id="AA" x1="168.55" x2="168.55" y1="246.26" y2="222.2"><stop offset="0" stop-color="#974577"/><stop offset="1" stop-color="#c77cbd"/></linearGradient><linearGradient xlink:href="#E" id="AB" x1="117.77" x2="117.77" y1="157.57" y2="57.1"/><linearGradient xlink:href="#E" id="AC" x1="199.25" x2="199.25" y1="277.62" y2="228.76"/><linearGradient xlink:href="#E" id="AD" x1="64.7" x2="64.7" y1="38.97" y2="3.83"/><linearGradient xlink:href="#E" id="AE" x1="55.75" x2="55.75" y1="107.33" y2=".1"/><linearGradient xlink:href="#E" id="AF" x1="89.83" x2="89.83" y1="36.1" y2="0"/><linearGradient xlink:href="#E" id="AG" x1="22.56" x2="22.56" y1="384.1" y2="175.76"/><linearGradient xlink:href="#E" id="AH" x1="199.12" x2="199.12" y1="166.06" y2="82.43"/><linearGradient xlink:href="#E" id="AI" x1="228.86" x2="228.86" y1="248.18" y2="192.06"/><linearGradient xlink:href="#E" id="AJ" x1="168.74" x2="186.1" y1="151.76" y2="151.76"/><linearGradient xlink:href="#E" id="AK" x1="229.11" x2="274" y1="332.34" y2="332.34"/><linearGradient xlink:href="#E" id="AL" x1="72.96" x2="92.56" y1="239.76" y2="239.76"/><linearGradient xlink:href="#E" id="AM" x1="64.31" x2="64.31" y1="381.81" y2="322.1"/><linearGradient xlink:href="#E" id="AN" x1="31.03" x2="31.03" y1="382.29" y2="319.76"/><linearGradient xlink:href="#E" id="AO" x1="104.94" x2="104.94" y1="57.1" y2="47.7"/><linearGradient xlink:href="#E" id="AP" x1="239.61" x2="254.4" y1="198.14" y2="198.14"/><linearGradient xlink:href="#D" id="AQ" x1="295.76" x2="295.76" y1="351.76" y2="161.1"/><linearGradient xlink:href="#E" id="AR" x1="288.11" x2="288.11" y1="233.26" y2="175.85"/><linearGradient xlink:href="#E" id="AS" x1="281.37" x2="281.37" y1="275.6" y2="230.1"/><linearGradient xlink:href="#E" id="AT" x1="313.97" x2="313.97" y1="350.71" y2="198.1"/><linearGradient xlink:href="#E" id="AU" x1="281.24" x2="281.24" y1="310.09" y2="282.15"/><linearGradient xlink:href="#E" id="AV" x1="269.31" x2="269.31" y1="241.26" y2="230.1"/><linearGradient xlink:href="#E" id="AW" x1="285.51" x2="291.57" y1="200.29" y2="200.29"/><linearGradient xlink:href="#BD" id="AX" x1="400" x2="400" y1="400.1" y2="338.74"><stop offset="0" stop-color="#2a0036"/><stop offset=".29" stop-color="#2b0138"/><stop offset=".49" stop-color="#2e0741"/><stop offset=".65" stop-color="#341151"/><stop offset=".81" stop-color="#3c2066"/><stop offset=".95" stop-color="#473282"/><stop offset="1" stop-color="#4c3b8f"/></linearGradient><linearGradient xlink:href="#BD" id="AY" x1="286.29" x2="286.29" y1="400.1" y2="342.73"><stop offset="0" stop-color="#fff"/><stop offset="1" stop-color="#6d458b"/></linearGradient><linearGradient xlink:href="#AY" id="AZ" x1="511.55" x2="511.55" y2="341.21"/><linearGradient xlink:href="#AY" id="Aa" x1="541.95" x2="541.95" y2="355.33"/><linearGradient xlink:href="#AY" id="Ab" x1="312.41" x2="312.41" y2="349.43"/><linearGradient xlink:href="#BD" id="Ac" x1="251.26" x2="251.26" y1="400.1" y2="381.49"><stop offset="0" stop-color="#9090a9"/><stop offset="1" stop-color="#402f5c"/></linearGradient><linearGradient xlink:href="#j" id="Ad" x1="479.5" x2="623" y1="389.97" y2="389.97"/><linearGradient xlink:href="#BD" id="Ae" x1="529.41" x2="529.41" y1="400.1" y2="382.47"><stop offset="0" stop-color="#7c6de7"/><stop offset=".37" stop-color="#7b71e5"/><stop offset=".76" stop-color="#7b7de1"/><stop offset="1" stop-color="#7b8add"/></linearGradient><linearGradient xlink:href="#Ae" id="Af" x1="265.57" x2="265.57" y2="370.6"/><linearGradient xlink:href="#BD" id="Ag" x1="499.43" x2="645.57" y1="373.96" y2="373.96"><stop offset="0" stop-color="#1b0033"/><stop offset="1" stop-color="#180028"/></linearGradient><linearGradient xlink:href="#E" id="Ah" x1="520.67" x2="534.15" y1="377.89" y2="377.89"/><linearGradient xlink:href="#j" id="Ai" x1="580.99" x2="580.99" y1="390.09" y2="381.49"/><linearGradient xlink:href="#Q" id="Aj" x1="460" x2="460" y1="377.103" y2="399.575"/><linearGradient xlink:href="#E" id="Ak" x1="449.34" x2="470.66" y1="388.335" y2="388.335"/><linearGradient xlink:href="#E" id="Al" x1="458.68" x2="468.72" y1="380.517" y2="380.517"/><linearGradient xlink:href="#Q" id="Am" x1="432.86" x2="432.86" y1="377.103" y2="429.838"/><linearGradient xlink:href="#E" id="An" x1="435.47" x2="435.47" y1="377.103" y2="429.838"/><linearGradient xlink:href="#E" id="Ao" x1="433.3" x2="445.18" y1="388.816" y2="388.816"/><linearGradient xlink:href="#AA" id="Ap" x1="446.48" x2="446.48" y1="377.103" y2="400.538"/><linearGradient xlink:href="#Q" id="Aq" x1="399.47" x2="399.47" y1="377.516" y2="385.918"/><linearGradient xlink:href="#E" id="Ar" x1="407.67" x2="409.97" y1="379.881" y2="379.881"/><linearGradient xlink:href="#Q" id="As" x1="460" x2="460" y1="376.13" y2="349.99"/><linearGradient xlink:href="#E" id="At" x1="449.34" x2="470.66" y1="363.06" y2="363.06"/><linearGradient xlink:href="#E" id="Au" x1="458.68" x2="468.72" y1="372.15" y2="372.15"/><linearGradient xlink:href="#Q" id="Av" x1="432.86" x2="432.86" y1="376.13" y2="314.8"/><linearGradient xlink:href="#E" id="Aw" x1="435.47" x2="435.47" y1="376.13" y2="314.8"/><linearGradient xlink:href="#E" id="Ax" x1="433.3" x2="445.18" y1="362.5" y2="362.5"/><linearGradient xlink:href="#AA" id="Ay" x1="446.48" x2="446.48" y1="376.13" y2="348.88"/><linearGradient xlink:href="#Q" id="Az" x1="399.47" x2="399.47" y1="375.64" y2="365.87"/><linearGradient xlink:href="#E" id="BA" x1="407.67" x2="409.97" y1="372.89" y2="372.89"/><linearGradient id="BD" gradientUnits="userSpaceOnUse"/><radialGradient xlink:href="#BD" id="BB" cx="-1263.8" cy="311.41" r="35.97" fx="-1263.8" fy="311.41" gradientTransform="matrix(0 -2.39 2.37 0 -349.29 -2719.14)"><stop offset="0" stop-color="#0053c2"/><stop offset=".13" stop-color="#004bb0"/><stop offset=".38" stop-color="#003883"/><stop offset=".73" stop-color="#00193c"/><stop offset="1"/></radialGradient><radialGradient xlink:href="#BD" id="BC" cx="397.25" cy="337.5" r="120.25" fx="397.25" fy="337.5"><stop offset="0" stop-color="#599dff"/><stop offset="1" stop-color="#632fd9"/></radialGradient></defs><g class="k"><path fill="url(#A)" d="m355.31 224.67 16.83 13.55 5.83 24.59 2.63-.99 9.32 1.39L400 282.15l7.33 5.21 17.2 53.36-52.41-1.98-16.81-114.07z"/><path d="m380.6 261.82 9.32 36.53 4.09 3.5 5.99 38.63-22.03-77.67 2.63-.99zm19.4 20.33 9.97 42.93-3.7-26.19-4.13-15.21-2.14-1.53zm-44.69-57.48 4.44 7.43 8.42 75.37 2.92.96 6.88 30.53-5.85-.22-16.81-114.07z" class="A m r"/><path fill="url(#B)" d="m372.12 341.47-39.93 5.88-39.67-147.06 3.24-30.52 10.57-7.85 11.27-9.57 4.33 2.08 10.26 20.86 4.44.96 12.15 21.18 1.11 1.91 16.31 76.26h4.72l1.2 65.87z"/><g class="r"><path d="m353 268.85-.83.33 2.99 73.82-1.34.12-5.32-90.27-10-32.73.33-3.86-13.66-29.99-5.84 5.83-.5 15.17 12.11 35.5 11.68 13.66v45.42l2.41 3.34 1.99 38.73-14.83 3.43-39.67-147.06 3.24-30.52 10.57-7.85 11.27-9.57 9.4 33.92 9 5.83-3.81-16.81 4.44.96-1.63 4.57 18 86.61 13.2 8.17 1.44.38h-3.56L353 268.85z" class="A m"/><path d="m336 192.1-4.44 8.19 7.27 15.97-.33 3.86 10 32.73 1.27 21.56 2.4-5.23.83-1.75-18-86.61-2.08-2.3L336 192.1zm-10.83-5.83-5.84 5.83-6.41 10.96h-20.4l3.24-33.29 21.84-17.42 9.4 33.92h-1.83zm5.77 56.5-13.34 31.64 4.33 13.7 20.69-31.68-11.68-13.66zm11.68 59.08-12.54 1.75v9.5l14.95-7.91-2.41-3.34z" class="A m"/></g><path d="m294.78 179.79.98-10.02 22.05-16.67 4.12 1.33 10.26 20.86 4.44.96 13.26 23.09 5.42 25.33 15.63 12.27 7.03 25.87 2.63-.99 9.32 1.39L400 282.15l7.33 5.21 13.12 40.7-12.62-41.88-7.83-4.92-9.5-19.44-10.92-1.27-1.61.63-6.41-25.02L355.75 224l-5.13-25.86-13.43-22.29-4.44-1.25-10.13-20.69-5.18-2.37-22.41 17.72-1.57 8.45 1.32 2.08z" class="v"/><path fill="url(#C)" d="m415.71 347.52 25.22-98.23 5.64-11.07h8.36l21.41-17.57-6.18 127.95-40.59-1.08h-13.86z"/><path fill="#a5e5f6" d="m446.57 238.22-5.64 11.07-13.48 52.51 6.41 15.42 16.06-44.35-3.35-34.65zm8.36 0-2.6 12.96v21.69l-4.25 25.4 17.15-17.25 5.37-55.65-15.67 12.85zm-25.36 109.3 13.02-41.8 12.2-11.9 12.13-6.46-12.13 60.16h-25.22z" class="f" style="mix-blend-mode:soft-light"/><path d="m433.86 317.22-6.57 30.3h2.28l13.02-41.8 6.1-5.96-.61-1.49 4.25-25.4v-21.69l2.6-12.96h-8.36l3.35 34.65-16.06 44.35z" class="A m r"/><path fill="url(#D)" d="m600.31 129.35-13.4 18.61-12.64-5.52-6.67 2.69-27.13 24.63-8.91-3.16-33.23 6.12v5.8L477 190.49l-5.5 82-6.15 74.33 15.15 8.53 1.25 4 98.75 9.5 32.78-152.6-12.97-86.9z"/><path fill="url(#E)" d="m574.27 142.44 1.82 86.32-3.59 35.07-9.93 32.29-8.49 6.08-13.61-132.44-8.91-3.16 9.77 32.85 4.67 41.81v62.34l-11.91 60.78 7.25.29 16.04-58.16 16.79-30.54 7.86-15.15 4.22 14.78-5.75 46.5-3.5 2.34-4.5 41.43h8l24.01-109.44 7.06-100.81-11.26-26.27-13.4 18.61-12.64-5.52z" style="mix-blend-mode:multiply"/><path fill="url(#F)" d="m498.33 178.52-7 99.83-2.66 3.8-6.92 77.2-1.25-4-4.16-1.5 11-73.42 6.41-80.98 1.92-3.08 1.21-17.03 1.45-.82z" style="mix-blend-mode:multiply"/><path fill="url(#G)" d="M546 246.43h-3.67l-10.77 6.42-22.57 23.62-17.66 1.88.17-2.38h12.33l4.67-2.71 24.75-24.16 11.88-15.62.62 6.12.25 6.83z" style="mix-blend-mode:multiply"/><path d="m491.33 278.35-2.66 3.8-6.92 77.2 4.17.37 27.02 2.41-6.03-79.98-9.56-3.8h-6.02zm.17-2.38 6.83-103.25 20.92-3.85-1.1 36.89-5.21 29.92-9.11 40.29H491.5zm53.63-42.49-3.8-34.03-9.77-32.85-3.91.72-4.13 91.28 9.73-9.5 11.88-15.62zm8.95 68.72-4.97-48.38 2.49-29.68 14.17-30 8.4-12.63.86-2.99 1.06 50.24-3.59 35.07-9.93 32.29-8.49 6.08zm-2.59 25.65 29.01-5.75 1.53-29.13 4.22-17.37-4.22-14.78-24.65 45.69-5.89 21.34z" class="e i"/><path fill="#7f609c" d="m562.57 325.65 14.43-1.21 3.5-2.34-17.93 3.55zm-73.9-43.5 20.32-5.68-17.66 1.88-2.66 3.8z"/><path fill="url(#H)" d="m542.33 246.43-10.77 6.42v-3l13.57-16.37-3.8-34.03 1.43-7.35 10.38 100.87-7.14 1.36v-47.9h-3.67z" style="mix-blend-mode:multiply"/><path fill="url(#I)" d="m576.09 228.76-1.82-86.32 12.64 5.52 3.61 30.56v51.58l-8.49 30.72-5.94 8.89-3.59-5.88 3.59-35.07z" style="mix-blend-mode:multiply"/><path d="m476.34 353.85 9.05-60.39-3.64-11.31-11.78 13.97-4.62 50.7 10.99 7.03z" class="e i"/><path fill="url(#J)" d="m519.25 168.87-.74 24.78-.36 12.11-5.21 32.34 6.31-33.33 2.08-31.01 2.19-5.68-4.27.79z" style="mix-blend-mode:multiply"/><path fill="url(#K)" d="m546 298.35-17.25 10.41-31.4 13.34-12.47 2.34-.31 3.41 1.76-2.2 16.59-1.78 42.21-23.27.87 1.25v-3.5z" style="mix-blend-mode:multiply"/><path fill="url(#L)" d="m546 301.85 6.25 4 5.13.66 2.32-4.31-2.82 1.98-10.88-5.83v3.5z" style="mix-blend-mode:multiply"/><path fill="url(#M)" d="m497.35 322.1 5.57 1.77 18.58-10.24v-1.79l-24.15 10.26z" style="mix-blend-mode:multiply"/><path fill="url(#N)" d="m574.17 181.51-29.04 23.05-1.38-3.05.8 8 .58-3.43 27.85-22.78 2.18 1.45-.17-7.9-.82 4.66z" style="mix-blend-mode:multiply"/><g fill="#a6aeb8"><path d="m609.08 194.14-18.56 8.95h-15.36l-22.02 9.51-7.39 6.5h-2.22l-28.24 8.58-9.19 2.08-12.1 8.1-3.32.36-17.32 6.54-.19 2.85 17.34-7.25 3.29.9 13.2-6.91 36.75-10.63 2.25-.14 5.49-4.11 24.13-7.87 14.9 1 21.24-6.52-2.68-11.94z" class="E"/><path d="m612.71 210.76-22.19 5.5h-14.43l-29.67 11.42h-2.67l-50.37 19.93h-3.44l-17.12 5.15-.3 4.46 17.3-8.12 3.37 1.35 51.53-20.69 1.95.34 28.49-9.45 15.36-1.05 22.76-3.35-.57-5.49z" class="E"/></g><path d="m477 190.49-5.5 82v17.77l15.84-67.84 3.99-39.97-14.33 8.04z" class="e i"/><path fill="#604b88" d="m515.82 303.6 2.41-10.73 3.27-2.61-3.27 11.59-2.41 1.75zm5.68-14.63v-5.37l1.25-3-.62 7.42-.63.95zm2.02 1.29 1.36-1.29.74 1.29h-2.1zm3.81 37.59 3.34-5.75 1.61-1.86-1.61 6.54-3.34 1.07zm-25.28-149.33v7.75l1.89-2.17-.94-7.25-.95 1.67zm28.62 22.82 1.61 5.88 2.05 1.73-2.77-8.85-.89 1.24zm.89 6.67-1.81 2.75 1.81 1h2.37l-.06-1.87-2.31-1.88zm31.04 70.34 2.4-6.25h2.25l-2.33 5.62-2.32.63zm25.23-19.75 1.5-6.17 3.38-4.24-4.88 10.41zm-36.34 95.71 1.36-6.96 1.23 8.5h-1.29l-1.3-1.54zm2.59-9.04 1.92-4.55v4.55l-.96 2.25-.96-2.25z"/><path fill="url(#O)" d="M800 .1h-34.19l-15.88 5-8.54 5.33-32.57.67-6.49 2.53-.02 6.8-45.59 45.67h-3.26v16.33h-10.17l-3.67 3-8.54 13.33-15.88 10-15.87 9 3.25 43.34-.4 66.33-2.85 2.33-3.26 30.67-3.26 4.67-12.31 82.25v52.75H800V.1z"/><path fill="url(#P)" d="M653.46 82.43V99.1l-43.04 126.5v6.25l-10.99 45.75v27.5l-14.05 48.75-4.88 46.25v-52.75l12.31-82.25 3.26-4.67 3.26-30.67 2.85-2.33.4-66.33-3.25-43.34 31.75-19 8.54-13.33 3.67-3h10.17z"/><path fill="url(#Q)" d="m592.71 367.85 30.22-48.25 9.16-10 9.16-19.5 4.89-6.5 7.32-39 13.44-9 15.87-51.5 22.59-47 7.94-65-10.99-51.67-45.59 45.67h-3.26v33l-43.04 126.5v6.25l-10.99 45.75v27.5l-14.05 48.75 7.64 1.5-.31 12.5z"/><path fill="url(#R)" d="m607.45 384.99 16.3-33.23 25.59-22.33 4.12-13.67-6.92-14 15.88-44.54 15.06-7.79 6.1-8.17 13.44-56.5 8.95-23.66-1.94-21.23 1.33-2.77 3.46 26.33v6.33l-22.39 67.67-20.35 89.35-16.74 63.77-41.89-5.56z" style="mix-blend-mode:multiply"/><path fill="url(#S)" d="m699.15 393.99 9.67-49.67 24.63-42.56 4.27-17.16-4.27-54.5 4.27-60.34-24.42-20.66-7.48-15.78.76-6.22 2.24 9 7.33 12.66 28.59 21 3.97 6.09-8.85 121.25-15.11 33.75-2.6 11.5-4.1 52.19-18.9-.55z" style="mix-blend-mode:multiply"/><path fill="url(#T)" d="m708.82 11.1 11.81 19 9.15 27 10.99 61.66 7.94 42.34-4.27-53-4.28-82.5 1.23-15.17-32.57.67z" style="mix-blend-mode:multiply"/><path fill="url(#U)" d="M800 .1h-34.19l24.83 137-7.74 86.16-5.29 112.5 13.79 60.91 8.6.25V.1z" style="mix-blend-mode:multiply"/><path fill="url(#V)" d="m702.31 20.43-4.75 4.76 4.75 43.69-9.36 84.88-14.66 34.36-11.39 35.14-8.08-3.16-14.31 6.84-12.21 3.16h-15.32l-7.9 7.33 7.9-5.33 6.57 1.16 22.79 6.5 3 1.5-9 44.34-2.63 12.04 3.54-7.54 4.89-6.5 7.32-39 13.44-9 15.87-51.5 22.59-47 7.94-65-10.99-51.67z" style="mix-blend-mode:multiply"/><path fill="url(#W)" d="m635.86 150.84 4.48 1.51 20.85-12.75 9.67-10.75 5.19-12.5 4.89-6.25 14.04-17.5 5.8-9.88-4.58 11.21-8.14 12.17-17.09 26.83-17.51 17-15.87 9.1-2.64-5.52.91-2.67z" style="mix-blend-mode:multiply"/><path fill="url(#X)" d="M643.29 82.43v26.83l-7.41 21.62-.93-3.78-1.43-16.5-2.44-11.84-8.73 6.28 4.12 32.06-.97 30.8 3.34-18.47 7.04-18.55-.93 2.72-6.11 15.83-8.48 46.94 33.1-97.27V82.43h-10.17z" style="mix-blend-mode:multiply"/><path fill="url(#Y)" d="m611.57 222.2-4.31 6.4-8.14 42.33-2.85 10.33v15.17l-5.29 13h-1.83l-.7-15.19-1.45 9.68 1.13 3.18 1.02 4.16 4.07 3.84-2.44 20.03-8.75 16.63 3.35 2.09 14.05-48.75v-27.5l10.99-45.75v-6.25l1.15-3.4z" style="mix-blend-mode:multiply"/><path fill="url(#Z)" d="m699.15 393.99 9.67-49.67-28.9-32.1-9.22-5.71-4.62 20.27-16.74 63.77-41.89-5.56 16.3-33.23 25.59-22.33 4.12-13.67-6.92-14 15.88-44.54 9.36 14.24h4.07l1.63-22.03 6.1-8.17 13.44-56.5 11.8-15-24.06 75L673 301.43l6.51 7 36.24 23.91 17.7-30.58 4.27-17.16-3.95-50.37 10.98-4.13-4.89 67-15.11 33.75-6.7 63.69-18.9-.55z" style="mix-blend-mode:multiply"/><path d="m607.45 344.32 9.53 7.44h6.77l25.59-22.33 4.12-13.67-21.37-6.16-9.16 10-15.48 24.72zm54.97-87.1-8.96-12.62 13.44-9 14.65-5.5 2.03 1.66v9.5l-6.1 8.17-15.06 7.79z" class="f l"/><path d="m638.16 237.43-21.18-5.33-7.9 5.33-9.65 40.17v27.5l-14.05 48.75 7.64-1.82 7.93-5.48 29.51-41.2 7.25-7.71 11.15-54.05.48-2.33-11.18-3.83z" class="e i"/><g class="j"><path d="m673 301.43 35.82-131.67 4.48-10.73 3.66-4.6 20.76 15.33-4.27 60.34 4.27 52.75-4.27 18.91-17.7 30.58-36.24-23.91-6.51-7zm51.75 29.42 20 7.89 33.02-6.4 2.09-44.32v-34.83l-35.64-15.76-4.36 59.67-15.11 33.75zM706.58 127.1l6.72-55-10.99-51.67.02-6.8 6.49-2.53 11.81 19 9.15 27 14.97 104-2.55 3.83-26.05-16.17-7.33-16.33-2.24-5.33z" class="e"/></g><path fill="#81462f" d="M741.39 10.43v33.33l7.32 144.66 34.19 34.84 7.74-86.16L765.81.1l-24.42 10.33z" class="e"/><path fill="url(#a)" d="m593.02 355.35-.31 12.5 14.74-23.53 15.48-24.72 9.16-10 9.16-19.5 4.89-6.5 7.32-39 13.44-9 15.87-51.5-4.88 6.83-10.99 32.33-8.08-3.16-14.31 6.84-12.21 3.16h-15.32l13.48 3.16 10.04 4.84 8.84 3.16-11.63 56.38-7.25 7.71-29.51 41.2-7.93 5.48v3.32z" style="mix-blend-mode:multiply"/><path fill="url(#b)" d="m640.34 152.35 5.28 2.08 7.84-4.5 17.51-17 5.52-17.14-5.63 13.06-9.67 10.75-20.85 12.75z" style="mix-blend-mode:multiply"/><path fill="#b33a4a" d="m716.96 154.43-3.66 4.6-4.48 10.73-25.59 94.07 17.55 12.14 8.04-7.4 15.11-41.63.82-65.84-7.79-6.67zm19.44 33.99-4.78 3.63-2.85 30.15v10.56l5.55 8.5-.87-11.16 2.95-41.68z" class="e"/><path d="m649.34 390.55 21.36-84.04 9.22 5.71 28.9 32.1-9.67 49.67-30.63-.89-19.18-2.55z" class="f l"/><g class="i"><path d="m610.42 225.6 6.56 4.5h15.32l28.89-38.05 9.78-59.12-17.51 17-15.87 9.1-2.64-5.52-24.53 72.09zm65.68-100.73 4.7 57.36 12.15-28.47 7.83-71.04-4.58 11.21-20.1 30.94zm-40.24 25.97 17.6-51.74 7.73-13.34 17.92-7.33 4.47 7.33-7.09 30.03-5.63 13.06-9.67 10.75-20.85 12.75-4.48-1.51zm46.91-110.91v36.42l3.36 9.41h7.94l8.24-16.88-4.75-43.69-14.79 14.74z" class="e"/></g><path d="m741.39 10.43 3.05 97.67 4.27 80.32 34.19 34.84 7.74-86.16L765.81.1l-15.88 5-8.54 5.33z" class="f l"/><path fill="url(#c)" d="m800 282.15-20.14-28.96-35.64-15.76 38.68 15.42 17.1 21.56v7.74z" style="mix-blend-mode:multiply"/><path fill="url(#d)" d="m779.53 295.02-2.73 3.87-35.41-1.94-1.24-3.84-.29 3.99-1.65 3.69 2.67-2.44 36.63 2.44 1.7 1.06.32-6.83z" style="mix-blend-mode:multiply"/><path fill="url(#e)" d="m741.98 55.48 28.56-21.63.84-2.99 1.23 6.75-1.46-1.89-27.32 19.76-1.99 4.12.14-4.12z" style="mix-blend-mode:multiply"/><path fill="url(#f)" d="m781.33 85.76-1.02 3.09-35.56 6.12-1.08-1.87.31 6.75.77-3.13 36.58-5.62 1.28 1.71-1.28-7.05z" style="mix-blend-mode:multiply"/><path d="m666.9 223.26-8.08-3.16 2.37-13.25 9.78-17.75 8.11-2.83-12.18 36.99zm-49.92 8.84-7.9 5.33-1.63 22.36 4.77 30.47 9.49 16.25 6.54 1.92 2.21-3.08 7.25-7.71 11.63-56.38-32.36-9.16zm-17.55 73 2.13-3.25 10.01 20.25-2.49 13.07-8.13 11.38-7.93 5.48-7.64 1.82 14.05-48.75z" class="e i"/><path fill="url(#g)" d="m791.4 396.67-13.63-64.33 1.44-30.49-2.41-2.96 2.73-3.87.33-41.83 1.68-.89 1.36-29.04v29.59l2.26 7.97-2.26-3.25v48.94l9.77 50.59 7.33 19.83v19.99l-8.6-.25z" style="mix-blend-mode:multiply"/><path fill="url(#h)" d="m771.15 35.72 1.46 1.89 8.72 48.15-1.02 3.09 2.3 3.96 8.03 46.59v-23.61l-9.75-49.94-3.48-55.42.91-10.33h-12.51l5.57 30.76-.23 4.86z" style="mix-blend-mode:multiply"/><path fill="url(#i)" d="m720.63 30.1 19.87-8.7 2.51 53.7-13.23-18-9.15-27z" style="mix-blend-mode:multiply"/><path d="m713.3 72.1 17.8-5.84 13.65 94.84-2.55 3.83-26.05-16.17-9.57-21.66 6.72-55z" class="f l"/><path d="m800 234.23-17.1-2.13-37.92-5.16-10.97-4.74-40.24 2.9-1 3.66-5.78-1.82h-17.43l-2.66 8.66 14.65-5.5 2.03 1.66 6.67 6.27 1.3-4.77 41.9-6.32 10.77 7.29 37.99 3.87 17.79 6.66v-10.53zm0 130.62-4.97-1.38h-11.15l-63.5 1.38-15.02-4.09-47.22-6.91-25.86-9.53-21.33-5.58-1.87 2.98 19.73 5.63 27.06 17.5h48.12l16.58 5.74 64.3-2.74 12.79 2.74 2.34 6.34v-12.08zm0-312.5h-24.72L742.6 66.26l-11.9-3.66-19.05 1.72.41 1.94-9.75 2.62-23.23 6.22-17.89 10.66-6.73 11.62v-4.57l6.73-10.38 17.89-9.72L701.3 59.6h9.34l-.88-4.12 17.47-7.23 14.61 4.56 31.67-10.21H800v9.75z" class="I w"/><g class="n"><path d="m706.58 127.1 6.72-55-10.99-51.67.02-6.8 6.49-2.53 10.75 17.3 10.21 28.7 2.04 15.61h-4.59v-2.72h-3.7l-2.9 48.42-1.88 2.47 1.88-38.16-3.57 3.04-.91 63-9.57-21.66z" class="f"/><path d="m748.71 188.42-3.96-91.7 14.17-2.18 6.89 83.06 3.66.5-3.66-38 3.66-.7 3.14 54.25 2.66.49 4.26-80.45 5.71-6.35 5.4 29.76-7.74 86.16-34.19-34.84z" class="e"/></g><path d="m635.86 150.84 4.48 1.51 20.85-12.75 7.33-26.17h-4.23l-9.83 21.68-5.12 1.99 14.95-47-3.1-4.34-6.73 11.62-18.6 53.46z" class="s" opacity=".83"/><path fill="#5b3762" d="m658.82 220.1 2.37-13.25 9.78-17.75-1.07-49.7-3 3.2-5.71 49.45-2.78 4.32 4.3-49.61-1.52 2-7.73 53.46-12.77 16.82-23.33 1.06-6.15 3.16-.79 2.34 6.56 4.5h15.32l11.28-2.92 15.24-7.08z" class="o"/><g class="n"><path d="m738.21 300.79-13.46 30.06 20 7.89 18.45-3.57 4.49-35.04h-1.68l-4.32 32.21-2.82 1.01 4.51-33.5-15.58-1.04-11.4 30.41h-2.95l8.85-30.41-1.42-.46-2.67 2.44zm-14.68-1.9 2.14-10.87v9.46l-2.14 1.41zm-6.47 11.2 2.96-3.58-2.96 12.03-8.24 1.35 8.24-9.8zm-20.5 40.94-1.39-3.04 1.39-3.04 3.17 4.42-3.17 1.66zM673 301.43l10.23-37.6-6.74 41.35-3.49-3.75z" class="e"/><path d="m767.69 275.6-1.88-11.77 3.2-5.23-1.32 17z" class="f"/><path d="m769.01 274.97 1.68-3.37 1.42 1.69-1.55 1.68h-1.55z" class="e"/><path d="m708.82 198.51 4.48-12.24 3.76 7.38-4.12 6.45-4.12-1.59z" class="f"/><path d="m628.4 326.78 6.55-4.61 8.74-.07-8.74 4.68h-6.55zm6.55 9.65 1.09-2.83h3.18l-4.27 2.83z" class="e"/></g><path d="m599.33 117.76 3.25 43.34v43.8l14.4-14.41 9.49-53.39-4.12-32.06-23.02 12.72z" class="e i"/><path fill="#7f609c" d="m599.33 229.76 7.93-1.16 3.16-3-8.24 1.83-2.85 2.33zm-6.52 35.34 3.99 3.84-.73-8.51-3.26 4.67zm24.17-33-7.9 5.33 21.38.67 18.88 3.16-32.36-9.16z"/><g class="n"><path d="m663.67 347.52 4.85-15.18.43 9.66-5.28 5.52zm24.77 2.73v-4.98l7.23 5.44-7.23-.46zm47.96 6.03v-5.57l4.99-2.72-4.99 8.29zm46.5 28.44-6.1-32.59v18.66l6.1 13.93z" class="e"/><path d="M757.22 79.93V67.77l3.03 2.22v9.94h-3.03zm5.92 2.5h2.67v5.58l-2.67-5.58z" class="f"/></g><path d="m633 200.1 1.95-8 .91 8H633z" class="o x"/><path d="m645 193.18-4.66 6.27-2.6 10.06 7.26-16.33z" class="n"/><path d="m668.95 111.68 4.05-8.79-2.03 12.9-2.02-4.11z" class="s"/><g class="n"><path d="M724.66 123.55v11.6l-2.26-7.86 2.26-3.74z"/><path d="M756.15 33.96V20.43l2.72-5.67 1.38 21.34-4.1-2.14zm5.6 3.26v-5.06l1.31-1.3 1.75 6.36-2.31 1.38-.75-1.38z" class="e"/><path d="m713.3 184.75 1.37-6.23 1.83 3.71-3.2 2.52zm-7.94 73.85 1.22-4.5v5.69l-2.59 1.03 1.37-2.22zm7.94 51.49 3.82-4.91v-4.96l-3.82 9.87z"/></g><path d="m618.67 272.1 3.16-10.28v7.89l-3.16 2.39zm4.33 0-1.17 7.21 2.34-5.55-1.17-1.66zm45.52-168 1.6-8.63-1.6 3.13v5.5z" class="o x"/><path fill="#604b88" d="M609.08 129.35v7.75l2.68 5.1-2.68-12.85zm0 12.85 1.34 1.77-.67 3.13-.67-4.9zm-7.83 95.9v11l1.37-4.34-1.37-6.66zm1.37-1.74 2.25-5.01-1.12 4.33-1.13.68zm13.26-74.01-1.5 10.75 1.5 4.62 1.87-.87V161.1l-1.87 1.25zm1.87-3.32v-4.6l1.75-2.08-.88 6.68h-.87z"/><path fill="#401469" d="M778.32.1h-12.51l-15.88 5-8.54 5.33-32.57.67-6.49 2.53-.02 6.8-4.75 4.76-14.79 14.74V40l-26.05 26.1h-3.26v16.33h-10.17l-3.67 3-8.54 13.33-31.75 19 .88 11.73-13.3 18.47-12.64-5.52-6.67 2.69-27.13 24.63-8.91-3.16-3.91.72-4.13.76-4.27.79-20.92 3.85-.4 6.03-6.6 3.7-14.33 8.04-2.1 31.35-19.97 16.38h-8.36l-5.64 11.07-13.48 52.51-11.74 45.72h13.86l38.47 1.02 8.3 5.31.12-.78-.12.78 4.16 1.5 1.25 4 52.34 5.03 46.41 4.47v31.25H800V.1h-21.68z" opacity=".58" style="mix-blend-mode:multiply"/><path fill="url(#j)" d="m135.8.1 16.68 11.33v3.33l21.01 20.58 4.93 7.25s31.38 8.25 44.86 14.5c0 0 11.93 16.75 14.52 25.5l1.82 44.5 32.93 17.5-.85 16.5 16.93 14.75h3.89l2.07 7 6.22 17.25 7.26-2 3.37 2 8.3 16.75 10.11 30 2.33 19.5-2.33 4.75 2.33 76.25v52.75H0V.1h135.8Z"/><path fill="#7c68a2" d="m139 199.6 7.6 13.06 6.23 7.44 8.99 5 9.68 8.66 8.99 3.67h10.72v-8.67l-10.72-39.66-5.53-56.67-9.86-40-12.27-48.67-3.57-34.52L135.8.1H92.56l36.06 147.33L139 199.6z" class="e"/><path d="m194.32 233.1 4.49 15.08 20.06 42.25 25.93 22.67 26.28 16.33h4.15l-31.12-67.33L204 158.76l-17.29-12h-4.84l3.11 45.3 1.47 10.54 7.87 30.5z" class="e j"/><path fill="#ff722a" d="m174.78 268.1 16.43 7.5h12.44l4.33-1.84-20.06-29-1.21 3.42-14.17-1.92-13.83-8.83-10.55-14.17 26.62 44.84z" class="e"/><path d="m0 82.43 21.78 40 7.26 18.67 24.55 23.66 13.14 14 5.53 3.67 25.94 6.33h5.87l-6.56-11-51.52-89L13.14 0 0 .1v82.33z" class="e j"/><path fill="url(#k)" d="m13.14 0 32.85 88.76 58.08 100 27.15 93.09 23.77 44.93 13.57 50.57L0 384.1V.1L13.14 0z" style="mix-blend-mode:multiply"/><g class="j"><path d="m141.89 378.42-12.92-17.99-60.51-52h-6.22l-5.19 2.33v11.34l13.49 29.66 3.54 2.67 8.56 1.67 14.52 24.11 44.73-1.79z" class="e"/><path d="m223.28 57.1-3.03 35v21l3.03 36 5.27 14.33 6.92 6.33 4.15-42.67-1.82-44.5s-7-18.5-14.52-25.5Z" class="f"/></g><path d="m25.41.1 19.71 35.5 6.92 5L86.1 82.43l13.37 3.17h4.6L81.95 0 25.41.1z" class="f l"/><path fill="url(#l)" d="m0 82.43 21.78 40 7.26 18.67-3.63 34.66V315.1l19.71 67.19L0 384.1V82.43z" style="mix-blend-mode:multiply"/><path fill="url(#m)" d="m25.41.1 19.71 35.5 6.92 5L86.1 82.43l-8.3 20.67 7.26 42.29-23.95-62.96-2.33-21.33-29.74-29.67L16.94.03l8.47.07z" style="mix-blend-mode:multiply"/><path fill="url(#n)" d="m81.95 0 22.12 85.6v12l7.61 12.83 5.19 18.33 11.75 32.34 6.57 36.33 15.56 40 23.51 75 10.72 44.67v19.14l10.72-.73-10.72-28.16-6.91-49.25-3.29-30-26.62-44.84 4.67-3.16L139 199.6l-8.36-42.03L92.56.1 81.95 0z" style="mix-blend-mode:multiply"/><path fill="url(#o)" d="m49.79 161.1 7.26 27.02v45.14l-2.51 77.84v36.25l2.51 34.46 40.11-1.6-14.52-24.11-8.56-1.67-3.54-2.67-13.49-29.66v-11.34l5.19-2.33h6.22l60.51 52 12.92 17.99 3.34-.14-14.53-22.52-11.07-14.66-2.07-4.34 2.07-35-2.42-4.66-20.4-13.67-19.01-26v-8l10.37 9.33 4.39 5.67-4.74-26.33-14.86-23-.7-8.34-2.28-25.85-20.19-19.81z" style="mix-blend-mode:multiply"/><path fill="url(#p)" d="m152.48 14.76.35 29 18.21 72.78 3.92 15.89 5.53 56.67 10.72 39.66v8.67l-3.29 7.33 20.06 29 17.46 44.67 14.17 54.11 12.52-.85-14.59-19.93-11.41-43.33-7.26-18-20.06-42.25-12.36-45.58-4.58-55.84-10.72-43.33-12.1-51.33-6.57-37.34z" style="mix-blend-mode:multiply"/><path fill="url(#q)" d="m178.41 42.6-3.46 47.5 3.46 21.5L204 158.77l34.71 89.42-12.92-56.12 2.77-28.63-5.27-14.33-3.03-36v-27.5l3.03-28.5s-35.87-13-44.86-14.5Z" style="mix-blend-mode:multiply"/><path fill="url(#r)" d="m239.61 127.1-.9 46 .9 45.5 1.04 34.59L274 326.78l-4.56-18.35-15.82-32.83-4.15-17.25-2.59-31.41 12.44 5.16 10.03-2-14.95-3.16-4.41-3.68-2.04-91.73-8.34-4.43z" style="mix-blend-mode:multiply"/><path fill="#593b55" d="M77.8 257.43v-8l14.76 15 4.25 7.03 14.7 9.89 19.71 3.5v-3l23.77 44.93-35.36-25.02-2.42-4.66-20.4-13.67-19.01-26z" class="f"/><path fill="url(#s)" d="m57.05 310.76-2.3-6.16.47-14.34 16.7 18.17 28.87 25.83 6.74 1.17 10.03 1.33 2.07 4.34 11.07 14.66 14.53 22.52-3.34.14-12.92-17.99-60.51-52h-6.22l-5.19 2.33z" style="mix-blend-mode:multiply"/><path fill="#593b55" d="M191.21 237.43v-8.67l-10.72-39.66-20.4-34.67-29.05-15.03.3 21.7 7.66 38.5 13.83 20.5 8.99 5 9.68 8.66 8.99 3.67h10.72zM29.04 141.1l40.94 39.81 11.97 3.89 16.25 3.96h5.87l-58.08-100h-8.65L0 72.1v10.33l29.04 58.67z" class="f"/><path d="m92.56.1 13.95 57 22.11 37.28 19.54 6.22-2.93-27.91-6.41-41.09 13.66 54.16 8.65 33 13.83 13.67-22.13-88.67-.35-32.33L135.8.1H92.56z" class="f l"/><path fill="#7c68a2" d="m85.06 145.39 37.69 15.71h5.87l-11.75-32.34-5.19-18.33-7.61-12.83-26.27 5.5 7.26 42.29z" class="f"/><path fill="url(#t)" d="m239.61 372.54-14.17-54.11.69-10 11.41 43.33 14.59 19.93-12.52.85z" style="mix-blend-mode:multiply"/><path fill="url(#u)" d="M184.98 376.24V357.1l-14.63-57.17 4.43-31.83 10.2 79.25 10.72 28.16-10.72.73z" style="mix-blend-mode:multiply"/><path fill="#202" d="m152.75 36.43-1.48 3.5-12.45-1.75-38.38-9.92-1.9-3.16 1.21 5.83 44.09 9 8.99 3.83-.08-7.33zM104.07 47.7l50.31 22.06 3.72-.16.34-3.34 1.63 6.45-47.7-20.11-7.09.16-1.21-5.06z"/><path fill="url(#v)" d="m174.96 132.43-13.83-13.67-24.55-2.33-7.96-18.83v-3.22L106.51 57.1l24.13 100.47.4-18.17 29.05 15.03 20.4 34.67-5.53-56.67z" style="mix-blend-mode:multiply"/><path fill="#202" d="m29.04 141.1 52.91 12.75 4.15 3.96-4.98-8.36-.34 2.52-38.42-8-14.8-5.86 1.48 2.99z"/><path fill="url(#w)" d="m121.76 249.43-15.25-1.25-10.56 1.25-6.31-1.25-.42-2.31 1.15 1.78 5.45 1.24 10.44-1.24h12.83l1.64-1.78 1.03 3.56z" style="mix-blend-mode:multiply"/><path fill="url(#x)" d="m181.87 323.17 41.15 11.17h5.53l1.27.83-.71-2.71-1.08.97-5.83.33-38.25-12.08-3.13-6.68 1.05 8.17z" style="mix-blend-mode:multiply"/><path fill="url(#y)" d="M184.98 347.35h6.23l35.7 6.96 5.18-.46 1.81-3.14 1.57 6.01-5.65-1.5-39.22-6.87-4.72 1.36-.9-2.36z" style="mix-blend-mode:multiply"/><path fill="url(#z)" d="m139 199.6 13.83 20.5-4.67 3.16 22.19 37.37 4.43 7.47-8.68-8.75-12.7-13.48-18.21-48.44 3.81 2.17z" style="mix-blend-mode:multiply"/><path fill="url(#AA)" d="m156.61 222.2 4.52 4.74-2.42 10.49 13.83 8.83 2.24-8.83h5.71l-8.99-3.67-9.68-8.66-5.21-2.9z" class="e" style="mix-blend-mode:multiply"/><path fill="url(#AB)" d="m136.58 116.43-5.54 22.97-.4 18.17-9.38-38.81-9.58-8.33-7.61-12.83v-12l-5.12-19.81 7.56-8.69 22.11 37.28v3.22l7.96 18.83z" style="mix-blend-mode:multiply"/><path fill="url(#AC)" d="m187.92 244.76 3.29-7.33v-8.67h2.34l5.26 19.42 11.77 24.78-1.1 4.66-1.5-3.86-20.06-29z" style="mix-blend-mode:multiply"/><path fill="url(#AD)" d="m45.12 35.6 4.67 3.37v-4.54L81.95 8.1l2.33.93-1.34-5.2-.99 2.51-34.36 28.09-2.47 1.17z" style="mix-blend-mode:multiply"/><path fill="url(#AE)" d="m29.04 31.43 11.07 3L25.41.1l19.71 35.5 6.92 5L86.1 82.43l-8.3 20.67-7.22 4.23-9.47-24.9-2.33-21.33-29.74-29.67z" style="mix-blend-mode:multiply"/><path fill="url(#AF)" d="m81.95 0 9.33 36.1 6.43-14.7L92.56.1 81.95 0z" style="mix-blend-mode:multiply"/><path fill="url(#AG)" d="M25.41 175.76 0 212.66V384.1l45.12-1.81-19.19-62.53-.52-144z" style="mix-blend-mode:multiply"/><path fill="url(#AH)" d="m174.96 90.1 45.63-7.67-.34 30.67 3.03 36-16.45 16.96-28.42-54.46-3.45-21.5z" style="mix-blend-mode:multiply"/><path fill="url(#AI)" d="m219.01 197.43 6.77-5.37 12.93 56.12-19.7-50.75z" style="mix-blend-mode:multiply"/><path fill="url(#AJ)" d="m168.74 107.33 2.41-3.9 10.72 43.33 4.23 53.34-5.61-11-5.53-56.67-6.22-25.1z" style="mix-blend-mode:multiply"/><path d="m0 226.94 25.41-3.68 31.64 10 25.6-3.16 34.25 2.66 2.07 7.1 33.51 3.57h7.66l34.63 11.24 6.26-1.82 43.08 9.25 5.2-5.67h13.41l.79 5.67-14.04-3.75-3.55 6.45h-2.5l-39.07-4.96-3.71 3.31-38.82-16.89-6.23 6.59h-32.83l-3.64-11.09-1.78-5.72-31.24-1.81h-1.82l-28.53 3.2-30.34-10.49L0 228.76v-1.82zm0 19.32 25.41-2.23 10.9 3.62 20.1 5.54 21.39-3.76 11.42 3.42 34.59 3.58 4.38 15.03 32.94-.94 14.62 5.08 23.5 7.5 13.79 3.61 2.72-2.82 40.59 4.7 2.97-1.15 9.28 1.15 1.31 4.52-9.23-2.85-1.36 2.85-41.56-5-2.22 5-38.12-14.01-15.08-4.69-32.36 3.21-4.92-14.02-32.5.83-6.98-8-7.78-3.58-22.05 11.95H39.42l-14.18-3.04L0 264.8v-18.54zm0-115.83 17.99-11.67 47.94 4.34 9-4.34 4.64-5.33h32.96l2.74 9.67 21.31-6.67 24.55 2.33 13.83 13.67 2.16-6.08 12.32 5.12 30.47-21.04 18.8 18.92v8.76l9.42 1.29 23.94 14.38-.82 15.98-22.85-18h-9.27l-.9-9.33-1.99-10-15.56-11.83-29.47 14.58-12.88-2.75-2.82 5.68.96 9.85-31.24-18.61-12.03 1.08-6.13 12.42-8.87-10.42-1.81-5.35-34.44-3.98-2.99 6.25-8.77 1.08-1.94-3.33H22.11L0 145.39v-14.96z" class="I w"/><path fill="url(#AK)" d="m229.82 335.17 2.48-3.31 12.85 1.65 28.85 2.92-29.03-4.57-13.62-3.6-2.24 4.2.71 2.71z" style="mix-blend-mode:multiply"/><path fill="#ff4824" d="m229.82 335.17 4.08 15.54-1.81 3.14-5.18.46-35.7-6.96h-6.23l-3.11-24.18 41.15 11.17h5.53l1.27.83zM97.16 380.21 82.64 356.1l14.52-19.67-.87-4.09 32.68 28.09 12.92 17.99-44.73 1.79zM29.04 141.1l40.94 39.81 28.22 7.85h5.87L86.1 157.81l-5.32-5.84-38.77-6.58-12.97-4.29z" class="e"/><path fill="url(#AL)" d="m77.8 249.43-4.67-19.33-.17-15 14.86 23 4.74 26.33-14.76-15z" style="mix-blend-mode:multiply"/><path d="M0 277.62h25.41l30.34 4.81-1.21 28.67-28.65-2.67H0v-30.81z" class="I w"/><path fill="url(#AM)" d="m74.08 354.43-10.81 25.78-6.22 1.6-2.51-58.64 2.51-1.07 13.49 29.66 3.54 2.67z" style="mix-blend-mode:multiply"/><path fill="url(#AN)" d="m25.93 319.76-3.37 32.27-5.62 29.78 28.18.48-19.19-62.53z" style="mix-blend-mode:multiply"/><path fill="url(#AO)" d="m104.07 47.7-6.56 9.4 7.77-4.34 7.09-.16-8.3-4.9z" style="mix-blend-mode:multiply"/><path d="m268.1 327.58-7.54-16.6-1.24-15.96 15.91 34.41h-4.15l-2.98-1.85zm-39.55-28.69-16.1-43.59-13.2-22.04-7.48-11.06 7.04 25.98 20.06 42.25 9.68 8.46zm-68.46-144.46 12.45 31.33 13.56 32.34 3.33 4.1-8.94-33.1-20.4-34.67zm-24.05 30.28 9.19 3.41 11.38 22.64 5.21 14.34-8.99-5L139 199.6l-2.96-14.89zm36.5 61.55 18.67 29.34h12.44l4.33-1.84-20.06-29-1.21 3.42-14.17-1.92zM27.56 84.4l17.56 31.36 10.63 11.34 13.4 21.66 11.63 3.21.34-2.52-35.13-60.69h-8.65l-9.78-4.36zm22.23-45.43v-4.54l11.4-9.33 33.22 59.3-8.31-1.97-36.31-43.46z" class="e j"/><path fill="#928986" d="m223.28 57.1 5.27 34 4.84 9.33v67.43l2.08 1.9 4.14-42.66-1.81-44.5-14.52-25.5z" class="e"/><path d="M215.39 188.12h-8.56l-4.52 19.98 8.27 29.33 18.53 12 11.54 3.76-25.26-65.07zM96.29 332.34l.87 4.09-7.94 10.75 19.7 13.58 20.05-.33-32.68-28.09zm-39.24-21.58 17.03 9 13.76 5.32-19.38-16.65h-6.22l-5.19 2.33zm-31.64-135 2.15-20.52 3.47 9.69 14.09 27.12-5.7 72.75-14.01 12.82V175.76zm86.34 39.34v11.84l4.64 17.09 4.34 1.84-8.98-30.77zm19.29-75.7 5 21.7 5.85 14.66 26.85 13v-5.66l-8.65-28.67-29.05-15.03zM0 72.1l11.41 10.33L29.04 97.6l6.23 22.73-7.71 10.1-2.81 2L0 82.43V72.1zM47.72 0l11.15 14.76 8.75 3.29L81.95 6.34l.99-2.51L81.95 0H47.72z" class="e j"/><path fill="#928986" d="m131.04.1-14.8 8.92 1.32 23.67 33.71 7.24 1.48-3.5-.27-25L131.04.1z" class="e"/><path d="m259.32 232.1-12.44-5.16 2.59 31.41 4.15 17.25 15.82 32.83 5.79 3-9.29-32-6.62-47.33z" class="e j"/><path fill="url(#AP)" d="m239.61 127.1 8.34 4.43v53.18l2.04 38.55 4.41 3.68h-7.52l2.59 31.41-2.09 10.84-6.73-16-1.04-126.09z" style="mix-blend-mode:multiply"/><path d="m178.33 132.43 12.88 2.75L204 158.76l-12.23-15.66-12.04-4.99-1.4-5.68z" class="f s"/><path fill="#4a2d54" d="m238.71 248.18-8.39-36.42 4.19-37.97.96-4.03-4.02 40.34 3.06 6.33 2.72-55.33 1.9-9.34-.42 96.42zM128.62 161.1l6.57 36.33 17.29 46-2.59-.28-18.13-45.72-6.77-1.83 13.75 46.37-10.12-.71-19.52-50.77-.41-35.25 14.06 5.86h5.87z"/><path d="m155.23 17.46 7.16 48.8h3.71l-4.28-31.83 6.92 4.07 3.8 47.1 2.42 4.5 3.45-47.5-4.92-7.25-18.26-17.89z" class="f s"/><g fill="#4a2d54"><path d="m13.14 0 22.52 60.85-4.2-2.25-3.9-15.8-2.15-1.87-6.39-10.51L32.33 72.1l-.35 4.5-2.24 2.66 1.55 6.34-4.96-1.75L7.26 14.76l-2.07 1.17v9.17l9.33 27.94 5.03 17.65-.71 1.41L8.13 34.43 0 28.26V.1L13.14 0z"/><path d="m58.78 61.1 5.92-4.95 1.51 2.48-5.4 6.34.65 1.29 6.04-6.09 8.61 10.05-10.9 22.97-.51-1.33 9.86-20.76L73 68.6 61.11 82.43 58.78 61.1z" class="o"/></g><path fill="#37154f" d="m247.95 131.53 1.46 65.9 2.72 5.17v-38.52l2.27-2.98v8.66l4.92 12.52 1.73 1.82 5.68-40.25 2.58 1.54v73.54l.04 11.17 3.2-85.5-24.6-13.07zm11.37 100.57-12.44-5.16 2.59 31.41 4.15 17.25 5.7 11.84 1.73.67-7.09-16.65-2.4-13.03 5.23 2.12 1.98 7.55-4.81 3.36 15.95 21.65-10.59-61.01z" class="f"/><path d="m249.99 223.26 4.41 3.68 3.99.84-8.77-11.53.37 7.01zm9.33-1.06-2.97-5.95 2.97-11.69v17.64zm-60.07-52.44 3.06 9.59 4.52 1.46-7.58-11.05zm-54.02 83.64 4.66 16.86-.96-10.24-3.7-6.62zM77.8 161.1l8.3 11h3.12l-11.42-11zm58.78-24 8.65-7.75-1.73 3.87v3l-6.92.88zm32.16 16 .79-1.34h2.87v7.71l-1.83-1.9-1.83-4.47zm4.52 8.82 1.5 4.68 1.22-1.67-2.72-3.01zm25.99-59.66-.13 5.08 3.19 5.73-3.06-10.81zm-18.76-18.88 4.88-4.28 4.06-.67-.08 2.81-8.86 2.14zM86.1 311.43l8.31-18.46-1.85 13.54-6.46 4.92zm-2.59-4.92-2.39-4.31-3.32 1.4v2.91h5.71zm28.24 21.34.51-2.77 3.98 7.26h-4.49v-4.49zm-45.19 34.28-2.25-5.85 1.13-5.57 1.12 11.42zM58.78 166.6l10.72 11.11 6.61 5.66 5.84 1.43-23.17-18.2zm14.18 48.5-1.99-23 3.11 16.85-1.12 6.15zm32.53 5.02-1.42-15.22 4.62 15.22v7.02l-3.2-7.02zm-3.99 50.14 10.25 5.34h-5.12l-5.13-5.34zM22.56 149.03 21 172.1l-3.17-10.18 4.73-12.89zm-2.37-2.27 2.37-9.66-1.18-3.88-1.19 13.54zm4.31 206.71 1.27 8.66 5.26-1.37-6.53-7.29zm.91 9.96-1.74 5.99 4.21 4.34v-5.16l-2.47-5.17zm41.15-175.31-1.73 10.02 3.34 4.12-1.61-14.14z" class="o x"/><path fill="url(#AQ)" d="m271.69 161.1-2.34 45.33v23.67l-10.03 2 6.62 47.33 9.29 32v18l14.17 22.33 42.79-4.41v-7.25l-2.33-69 2.33-4.75-2.33-19.5-10.12-30-8.29-16.75-3.37-2-7.27 2-8.29-24.25h-3.89l-16.94-14.75z"/><path fill="url(#AR)" d="m288.63 175.85-3.12 34.25v11.75l-1.81 11.41 4.93-12.41 2.85-27.2 1.04-17.8h-3.89z" style="mix-blend-mode:multiply"/><path fill="url(#AS)" d="m260.07 237.43 10.4 3.83 17.64 11.84 11.67 22.5 3.63-15.5-12.71-14.25-21.35-15.75-10.03 2 .75 5.33z" style="mix-blend-mode:multiply"/><path fill="url(#AT)" d="m299.59 350.71-3.83-47.11 4.02-28 3.63-15.5 2.59-39v-5.75l-5.19-15.25 7.27-2 3.37 2v15.5l2.07 22.5 8.82 10.08 7.17 10.25 2.68 7.92-2.33 4.75-1.38-10.17-2.77-4.17-12.79-10.33-5.36 18.67 1.21 15.66-1.04 34.67.7 34.37-8.84.91z" style="mix-blend-mode:multiply"/><path fill="#6558b1" d="m288.11 253.1-4.41 29.05 4.41 15.49 7.65 5.96 4.02-28-9.94-19.17-1.73-3.33zm11.48 97.61-10.19 1.05-6.74-11.28-5.36-50.22 5.36-2.24 5.45 13.83 7.65 8.24 3.83 40.62zm13.33-104.28-5.36 18.67.87 84.7 23.76-2.45-3.71-86.42-2.77-4.17-12.79-10.33zm-1.47-46.33v12l2.07 26 8.82 10.08 1.42-19.42-4.83-13.56-7.48-15.1z" class="f"/><path d="m308.43 349.8-.35-46.2-4.67 6-7.65.49 3.83 40.62 8.84-.91z" class="A m r"/><path fill="url(#AU)" d="M267.82 285.93h7.41l7.43 2.09 5.45 13.83 7.65 8.24v-6.49l-7.65-5.96-3.47-12.19-7.34-.41-3.89-1.44-6.68-1.45 1.09 3.78z" style="mix-blend-mode:multiply"/><path fill="url(#AV)" d="m270.47 241.26 8.82-3.83-9.94-7.33-10.03 2 .75 5.33 10.4 3.83z" style="mix-blend-mode:multiply"/><path fill="url(#AW)" d="m285.51 210.1 4.52-2.64 1.54-15.41-4.27-1.56-1.79 19.61z" style="mix-blend-mode:multiply"/><path fill="#a6aeb8" d="m263.98 265.44 22.02 3.75 12.25 17.04 10.18-1.6 21.89 10.39.18 3.33-21.93-10.99-10.9 2.9-12.16-17-20.51-.52-1.02-7.3zm-1.56-11.19 25.18 2.18 11.87 21.29 8.9-2.12 21.74 3.79.11 2.5-21.79-4.27-9.19 1.69-12.18-19.29-24.23-2.8-.41-2.97z" class="E"/><path d="m297.44 366.85-22.21-37.42v-18l-2.79-9.58-2.53-8.74-16.29-17.51-7.44-8.5-35.6-29.67-19.37-8.67-52.85-32.39-7.32-50.98 5.54-28.96-32.51-18.83v-12L86.1 82.43 34.4 16.28 25.41.1H0v384l97.16-3.89 48.07-1.93 148.84-9.43 3.37-2z" class="T p"/><path fill="#7570a9" d="m311.45 315-1.95-16.65 1.95 7.08V315zm.67-4.31v7.64l1.86-1.91-1.86-5.73zm11.64-25.39 2.23-3.41v2.74l-2.23.67zm-7.93-32.45-.93 3.58v4.12l.93-7.7zm1.77-28.71 2.27 6.96v-5.73l-2.27-1.23zm-29.06 6.96 3.2-6.96-1.6 5.96-1.6 1zm37.97 105.15 1.16 10.75 2.41-.41-3.57-10.34zm-36.37 7.85 1.6-5.36v4.19l-1.6 1.17z"/><g class="v"><path d="m765.81.1-15.88 5-8.54 5.33-32.57.67-6.49 2.53-.02 6.8-4.75 4.76-40.84 40.91h-3.26v16.33h-10.17l-3.67 3-8.54 13.33-31.75 19 .98 11.59-13.4 18.61-12.64-5.52-6.67 2.69-27.13 24.63-8.91-3.16-33.23 6.12v5.8L477 190.49l-2.54 31.71-19.53 16.02h-8.36l-5.64 11.07-19.6 76.36 18.79-77.46 5.91-11.83 8.9.43 19-15.91 2.41-31.37 21.33-12.25.25-5.2 4.13-.84 25.03-4.62 4.76-1.34 8.49 3.61 26.17-24.41 8-3.11 11.75 4.75 1.5-.76 11.58-15.99-1.16-12.09 32.75-19.88 7.83-12.52 4.25-3.44h9.92l-.38-15.53.92-.54 3 .29 16.79-16.75 25.08-26.54 2.45-1.92V13.1l8.04-3 31.93-.34 9.17-5.83L760.25.1h5.56z"/><path d="m653.46 82.43 1 14.95h-1l-2.6-14.95h2.6zM473.17 223.26l.32 19.51 3.51-52.28-3.83 32.77zM135.8.1l16.68 11.33.27 4.85 19.8 18.15 5.86 8.17 44.87 14.5 14.52 25.5 1.81 44.5 32.94 17.5-.86 16.5 16.94 14.75h3.89l8.29 24.25 7.27-2 3.37 2 13.44 32 4.97 14.75 2.33 19.5-2.33 4.75 2.33 76.25-1.69-76.5 3-5.41-3-20.78-4.26-13.56-13.82-31.65-4.17-2.69-6.33 1.92-8.84-23.39h-3.66l-16.87-14.19.53-17.25-1.01-.92-31.65-16.92-1.71-43.83-7.26-14.25-8.17-11.92-42.79-14.54-6.37-7.04-20.37-18.71v-5.68L140.81.1h-5.01z"/></g></g><!--<ellipse cx="389.92" cy="306.51" fill="url(#BB)" rx="85.39" ry="86.12" style="mix-blend-mode:screen"/>--><g class="k"><path d="m128.03 373.61-2.68-21.76.57-5.28.62 9.99-.62-32.38 4.08-5.88 3.17 25.78-.23-10.44 1.1 1.88 5.12 33.89 1.15-.15.45-34.57 1.37-.17-.72 36.43 2.03-34.48 2.22-1.55-2.41 33.98.9-.11 2.11-22.47 2.15-2.75 14.17 7.72-.7 18.16.65-.46.47-20.71 2.02-.75-.2 32.04-36.79-5.96z" class="g"/><path d="m143.88 375.92 3.76-45.97 2.07-2.9-4.62 49.32-1.21-.45zm2.18.61 5.66-33.13 3.16 1.03-4.8 26.47 6.63-28.96 4.65-.58-5.37 36.78-9.93-1.61z" class="h"/><path fill="#3c1d4f" d="m163.69 379.38 2.78-38.64 1.35-.92-3 39.75-1.13-.19zm-35.66-5.77-9.38-36.2.79-3.62 9.46 39.96-.87-.14zm8.95 1.45-3.29-44.44.69-.09 3.48 44.67-.88-.14z"/><path fill="url(#AX)" d="m465.35 346.82-47.63-7.11-45.6-.97v2.73l-82.72 10.29 8.04 15.09-3.37 2L0 384.1v16h800v-3.18l-150.66-6.37-72.34-22.7-95.25-8.5-1.25-4-15.15-8.53z"/><path fill="url(#BC)" d="M623 400.1H163.5l42.27-6.48 59.51-9.13 26.34-6.39 22.35-5.42 5.9-3.26-1.45-1.36-20.98-1.21-5.17-9.71-.75-1.4 60.15-10.47 17.78-2.43h.04l15.43-2.12-5.16-1.82 36.44.78 2.95 1.53 1.52.79 29.25 5 15.43 5.04-3.85 1.05 4.6 2.24 12.15 5.9L546 372.54l-6.68 2.06-57.57 5.25 5.59 1.97 68.66 8.27 45.58 6.81 16.96 2.53 4.46.67z"/><path fill="url(#AY)" d="M373.33 400.1H199.25l6.52-6.48 59.51-9.13 48.69-11.81 5.9-3.26-1.45-1.36-20.98-1.21-5.17-9.71-.75-1.4 60.15-10.47 17.78-2.43 2.67-.11 1.21 57.37z" style="mix-blend-mode:multiply"/><path fill="url(#AZ)" d="M604.87 400.1H420.83l-2.6-58.68.92-.21 1.52.79 29.25 5 15.43 5.04-3.85 1.05 16.75 8.14L546 372.54l-6.68 2.06-57.57 5.25 5.59 1.97 68.66 8.27 45.58 6.81 3.29 3.2z" style="mix-blend-mode:multiply"/><path fill="url(#Aa)" d="M618.56 400.1H465.35v-44.34l.75-.43 12.15 5.9L546 372.54l-6.68 2.06-57.57 5.25 5.59 1.97 68.66 8.27 45.58 6.81 16.96 2.53.02.67z" style="mix-blend-mode:multiply"/><path fill="url(#Ab)" d="M333.89 400.1h-42.95l.68-22 22.35-5.42 5.9-3.26-1.45-1.36-20.98-1.21-5.17-9.71 40.44-7.71 1.18 50.67z" style="mix-blend-mode:multiply"/><path fill="url(#Ac)" d="M295.7 381.49v18.61h-88.87l1.15-6.11 87.72-12.5z" style="mix-blend-mode:multiply"/><path fill="#1a002e" d="M163.5 400.1h43.33l5.42-4 4.25 2 57.5-9.77 41.5-12.98 5.94-4.75-3.02-2.55-20.98-1.2-5.17-9.71 58.81-11.46 34.17-4.79-.33-.17-34.14 4.62-59.26 10.4 5.92 11.11 20.98 1.2 1.09 1.03-5.53 3.6-48.7 11.8L163.5 400.1z"/><path fill="url(#Ad)" d="m623 400.1-67-10.01-68.66-8.28-5.59-1.96-2.25 3.17 7.43 2.06 72.77 8.91 24.49 6.11H623z"/><path fill="#1a002e" d="m541.99 373.78-64.2-11.39-16.67-8.89.38-.41 2.92-.8-14.5-4.77-30-4.92-4.21-2.94.49.01 4.47 2.33 29.25 5 15.43 5.03-3.85 1.06 16.75 8.13L546 372.54l-4.01 1.24z"/><path d="m309.5 353.78 42.33-8.22s-.68 1.19-3.1.92l-1.71.25s-3.57 1.44-15.9 3.34c-12.32 1.91-21.62 3.71-21.62 3.71zm-10.56 2.01 6.56-1.19s-2.58 2.12-6.56 1.19z" class="t"/><path fill="url(#Ae)" d="m486.93 385.08-7.43-2.06.44-.55-5.32 1.3 12.31 1.91 91.19 14.42h6.07l-24.49-6.11-72.77-8.91z"/><path fill="url(#Af)" d="m321.44 370.6 2.86.39-7.8 4.61-23.98 8.47-77.02 16.03h-8.67l5.42-4 5.63 1.5 81.06-17.01 17.81-6.24 4.69-3.75z"/><path d="m419.92 342.6 1.27.81 8.62.92 2.15.48 17.96 2.71 12.6 5.29 1.9-.52-14.26-4.79-.47-.06-29.77-4.84zm41.85 11.25 15.54 8.28 40.56 7.37 24.12 4.28-4.99.94-19.08-4.75-42.09-7.31-.46-.92-13.6-7.89z" class="t"/><path fill="#b0b8ff" d="m319.87 369.42 191.68 3.87s-94.09-5.44-191.68-3.87Zm-27.6-12.28 185.52 5.25s-120.46-6.11-185.52-5.25Z" style="mix-blend-mode:soft-light"/><path fill="#cfd4ff" d="m419.92 342.6-58.58 1.5s49.24-2.37 58.58-1.5zm-44.34-.19 41.87-1.68-1.26-1.05-40.62 2.73z" style="mix-blend-mode:soft-light"/><path d="m277.3 377.85 222.13 2.58 86.82-12.38 63.09 22.5L800 396.92v3.18H0v-16l297.44-17.25-20.14 11z" class="T p"/><path d="m209.94 379.74 14.41-23.08h2.06l-15.42 22.8 1-.13 19.02-27.29 3.84.59-16.44 26.35h1l7.85-12.88h.95l-6.73 12.88h-6.84l-4.7.76z" class="g"/><path d="m209.94 379.74 7.92-20.34 2.22-1.05-9.09 21.11-1.05.28zm11.54-.76 6.23-5.92.58.6-5.9 5.32h-.91zm12.28-29.64-8.87 15.9 8.32-12.87 1.06.17.99-1.44-1.5-1.76z" class="h"/><path fill="#190031" d="m75.33 384.07 51.83-24.45 78.92-7.59 1.89 6.03-4.63 22.14-50.42 3.87H75.33z"/><path d="m127.16 359.62-14.33 7.59 40.09 9.84 38.04-6.19 17.01-12.8-1.89-6.03-78.92 7.59z" class="y"/><path d="m190.96 370.86-1.89 10.44-35.04 2.69-78.7.08 37.5-16.86 40.09 9.84 38.04-6.19z" class="T p"/><path d="m99.78 372.54 51.17 7.06 33.71-1.18-34.08 3.39-47.63-1.55-3.17-7.72z" class="y"/><path fill="#190031" d="m139.16 390.55 13.63-4.45 58.04-7.68h15.33l8.17 3.39 1.75 2.67-28.11 6.07h-68.81z"/><path d="m152.79 386.1 53.29 1.16 6.42-1.16 21.83-4.29-8.17-3.39h-15.33l-58.04 7.68z" class="y"/><path d="m206.08 387.26 1.89 3.29h-68.81l13.63-4.45 53.29 1.16z" class="T p"/><path fill="url(#Ag)" d="m499.43 380.43 11.31-11.62h10.68l12.58 8.92 3.67-12.03 3.41-3.51 69-4.36 3.84 3.39-12.27 22.5 5.89-2.23h24.54l13.49 7.79-2.82.81h-54.33l-88.99-9.66z"/><path fill="#9081cf" d="m541.08 362.19-3.41 3.51 26.75 10.31 31-1.03 18.5-13.76-3.84-3.39-69 4.36zm-30.34 6.62-8.61 8.84 18.54-1.64 4.66-4.43-3.91-2.77h-10.68zm96.8 12.68-5.89 2.23-10.73 3.44 26.89.55 11.55-3.11 5.37-1.58-2.65-1.53h-24.54z" class="e"/><path d="m595.42 374.98 2 10.1 10.12-3.59 6.38-20.27-18.5 13.76zm22.39 12.73 20.61 2.38h4.33l2.82-.81-10.84-6.26-16.92 4.69z" class="T p"/><path fill="url(#Ah)" d="m520.67 376.01 4.66 7.01 8.82 1.18-.15-6.47-8.67-6.15-4.66 4.43z" class="f" style="mix-blend-mode:multiply"/><path fill="#9081cf" d="m535.54 372.67 12.88 6.6 16 1.16-14.44 2.59-12.31-5.13-2.13-5.22z" class="e"/><path fill="url(#Ai)" d="m569.4 390.09 6.39-6.37 15.13-2.23 1.66 2.23-2.34 6.37H569.4z"/><path fill="#6d81e5" d="m575.79 383.72 5.29 3.99 10.42-2.63 1.08-1.36-1.66-2.23-15.13 2.23z" class="e"/><g class="f"><path fill="url(#Aj)" d="m449.34 376.13 3.27 8.42 13.45 13.17 4.6.95-1.94-16.36-1.48-1.36-.79-4.82h-17.11z"/><path fill="url(#Ak)" d="m452.61 384.55-1.46-6.05 7.53-.03 5.5 4.51 5.25 15.43 1.23.26-1.94-16.36-1.48-1.36-.79-4.82h-17.11l3.27 8.42z" class="f" style="mix-blend-mode:multiply"/><path fill="url(#Al)" d="m468.72 382.31-4.54.67-5.5-4.51v-2.2l7.77-.14.79 4.82 1.48 1.36z" class="f" style="mix-blend-mode:multiply"/><path d="m452.61 384.55-1.46-6.05 7.53-.03 2.34 9.93 5.04 9.32-13.45-13.17zm14.99 13.49-.61-6.79 2.44 7.16-1.83-.37z" class="e u"/><path fill="url(#Am)" d="m415.24 376.27 3.18 15.1 3.28 1.93 8.53 25.31 12.02 9.14 3.22 1.27 2.74-24.42 2.28-1.62-3.91-26.85-31.34.14z"/><path fill="url(#An)" d="m442.25 427.75 3.34-16.95-7.31-17.52h-15.84l-.36 1.13-.38-1.11-1.25-.74 1.77.42 16.06-.42-3.58-4.16-1.4-12.27h13.28l3.91 26.85-2.28-3.35-3.46-16.62-2.66-2.6 3.09 19.22 3.03 4.97-2.74 24.42-3.22-1.27z" style="mix-blend-mode:multiply"/><path d="m418.42 391.37 7.36-2.32 8.92-.65 3.58 4.16-16.06.42-1.77-.42-2.03-1.19z" class="e i"/><path d="m430.23 418.61-8.15-24.2.36-1.13 5.78.56 7.25 10.04-.79 14.73.79 3.98-5.24-3.98zm13.03 3.98-2.18-11.79v-4.87l1.56-2.2 2.95 7.07-2.33 11.79z" class="e u"/><path fill="url(#Ao)" d="m433.3 376.13 1.4 12.27 3.58 4.16-3.49.09-.01.63h3.5l2.39 5.72 4.51.63-3.09-19.22.17-4.24-8.96-.04z" style="mix-blend-mode:multiply"/><path fill="url(#Ap)" d="m448.21 399.63-1.63-23.5-1.83.14v6.74l3.25 16.28.21.34z" class="f" style="mix-blend-mode:multiply"/><path fill="url(#Aq)" d="M409.97 376.54v4.74l-3.7 3.69-17.29-5.86 4.27-2.57h16.72z"/><path d="m388.98 379.11 2.85-.96 15.84 2.04 2.3 1.09-3.7 3.69-17.29-5.86z" class="e i"/><path fill="url(#Ar)" d="M407.67 380.19v-3.65h2.3v4.74l-2.3-1.09z" class="f" style="mix-blend-mode:multiply"/><path d="m418.23 376.29-2.99 39.83h.96l2.78-39.83h-.75z" class="g"/><path d="m420.45 376.29 4.08 44.62.98-.14-4.34-44.48h-.72z" class="h"/><path d="m440.93 376.51 18.41 37.92H461l-19.15-37.86-.92-.06zm1.33.02 10.36 18.3.69.51-9.71-18.8-1.34-.01z" class="g"/><path d="m409.97 376.54 1.86 30.54.76.3-1.92-29.23 2.75 31.42 1.25.95-3.34-34.12-1.36.14z" class="h"/><path d="m412.32 376.57 6.66 38.39h.94l-6.67-38.56-.93.17zm49.45 0 12.85 29.82 1.72.27-14.09-30.09 11.42 21.15h.7l-11.1-21.15h-1.5z" class="g"/><path d="m460 376.57 5.35 29.21h.71l-5.73-29.21H460z" class="h"/></g><path fill="url(#As)" d="m449.34 376.13 3.27-9.77 13.45-15.27 4.6-1.1-1.94 18.96-1.48 1.58-.79 5.6h-17.11z"/><path fill="url(#At)" d="m452.61 366.36-1.46 7.01 7.53.03 5.5-5.22 5.25-17.89 1.23-.3-1.94 18.96-1.48 1.58-.79 5.6h-17.11l3.27-9.77z" class="f" style="mix-blend-mode:multiply"/><path fill="url(#Au)" d="m468.72 368.95-4.54-.77-5.5 5.22v2.56l7.77.17.79-5.6 1.48-1.58z" class="f" style="mix-blend-mode:multiply"/><path d="m452.61 366.36-1.46 7.01 7.53.03 2.34-11.5 5.04-10.81-13.45 15.27zm14.99-15.64-.61 7.87 2.44-8.3-1.83.43z" class="e u"/><path fill="url(#Av)" d="m415.24 375.96 3.18-17.51 3.28-2.23 8.53-29.34 12.02-10.61 3.22-1.47 2.74 28.32 2.28 1.87-3.91 31.14-31.34-.17z"/><path fill="url(#Aw)" d="m442.25 316.27 3.34 19.66-7.31 20.3h-15.84l-.36-1.3-.38 1.29-1.25.85 1.77-.49 16.06.49-3.58 4.83-1.4 14.23h13.28l3.91-31.14-2.28 3.89-3.46 19.27-2.66 3.01 3.09-22.28 3.03-5.76-2.74-28.32-3.22 1.47z" style="mix-blend-mode:multiply"/><path fill="#8b89b3" d="m418.42 358.45 7.36 2.69 8.92.76 3.58-4.83-16.06-.49-1.77.49-2.03 1.38z" class="e"/><path d="m430.23 326.88-8.15 28.05.36 1.3 5.78-.64 7.25-11.65-.79-17.06.79-4.63-5.24 4.63zm13.03-4.63-2.18 13.68v5.65l1.56 2.55 2.95-8.2-2.33-13.68z" class="e u"/><path fill="url(#Ax)" d="m433.3 376.13 1.4-14.23 3.58-4.83-3.49-.11-.01-.73h3.5l2.39-6.62 4.51-.73-3.09 22.28.17 4.91-8.96.06z" style="mix-blend-mode:multiply"/><path fill="url(#Ay)" d="m448.21 348.88-1.63 27.25-1.83-.17v-7.81l3.25-18.88.21-.39z" class="f" style="mix-blend-mode:multiply"/><path fill="url(#Az)" d="M409.97 375.64v-5.5l-3.7-4.27-17.29 6.8 4.27 2.97h16.72z"/><path d="m388.98 372.67 2.85 1.11 15.84-2.37 2.3-1.27-3.7-4.27-17.29 6.8z" class="e i"/><path fill="url(#BA)" d="M407.67 371.41v4.23h2.3v-5.5l-2.3 1.27z" class="f" style="mix-blend-mode:multiply"/><path d="m466.52 375.61 15.23.2-28.1.79 1.64.29-72.2-.85 10.16-.4h16.72v-.92h5.49l-.22 1.24 31.34-.35.18-.89h3.05l-.3.89h17.01z" class="t"/><path d="m418.23 375.94-2.99-46.18h.96l2.78 46.18h-.75z" class="g"/><path d="m420.45 375.94 4.08-51.74.98.17-4.34 51.57h-.72z" class="q"/><path d="m440.93 375.67 18.41-43.95H461l-19.15 43.89-.92.06zm1.33-.01 10.36-21.22.69-.59-9.71 21.79-1.34.02z" class="g"/><path d="m409.97 375.64 1.86-35.4.76-.35-1.92 33.89 2.75-36.43 1.25-1.1-3.34 39.56-1.36-.17z" class="h"/><path d="m412.32 375.61 6.66-44.51h.94l-6.67 44.71-.93-.2zm49.45 0 12.85-34.57 1.72-.32-14.09 34.89 11.42-24.52h.7l-11.1 24.52h-1.5z" class="g"/><path d="m460 375.61 5.35-33.86h.71l-5.73 33.86H460z" class="h"/><g class="v"><path d="m388.98 372.67 2.1 1.46-1.16-1.46 14.93-5.82h1.65l2.99 3.56.48 1.52v-1.79l-3.7-4.27-17.29 6.8zm29.44-14.22 3.28-2.23 2.83-32.02.98.17-2.16 25.62 6.88-23.11 12.02-10.61 3.22-1.47.91 9.4-1.63-8.02-2.49 1.04L431 327.35l-8.56 28.88.44-4.01-.6.54-.34 4.29-3.52 1.4zm30.66-2.23v.83L461 331.72h-1.66l-10.26 24.5zm-33.58-1.88 3.48-23.24h.94l-3.2 21.46-1.22 1.78z"/><path d="m416.9 355.33-1.66-25.57h.96l1.13 18.84-.43 6.73zm-4.57-3.57 1.17-1.69 1.17-13.82-1.25 1.1-1.09 14.41zm38.16 20.93 2.12-6.33 10.59-12.02 2.15-12.59h.71l-1.96 11.56 1.96-2.22 4.6-1.1-.24 2.35 4.2-11.3 1.72-.32-6.04 12.83-.21-2.76-6.18 3.65.21-2.47-.42.24-.49 3.12-9.9 10.96-2.82 6.4z"/></g><path d="m649.34 390.55 11.85-64.9 2.48-1.21-11.21 54.22 15.18-60.12h7.03l-6.15 61.31 6.15-41.11h1.43l-5.99 52.69 11.39-59.09h1.73l-10.67 59.19 19.49-34.48 1.78-.33-17.73 35.41-26.76-1.58z" class="g"/><path d="m649.34 390.55 2.54-50.62 1.58-2.33-2.06 43.89 5.35-57.45 1.39-1.94-4.68 68.45h-4.12zm26.76 1.58 19.57-27.84 1.78-.76-19.33 28.73-2.02-.13zm-12.43-25.28 7.92-55.01 1.41 1.36v5.34l-.88-.13-8.45 48.44z" class="h"/><path d="m275.23 391.3-18.88-81.21 2.04-3.42L276 391.3h-.77z" class="q"/><path d="m274.27 392.42-22.14-94.07-2.51-.23 22.93 94.3h1.72zm9.43-3.4 12.62-47.27 2.41-.12-14.06 47.39h-.97z" class="g"/><path d="m275.23 391.86-18.88 61.27 2.04 2.58L276 391.86h-.77z" class="h"/><path d="m274.27 392.42-22.14 70.98-2.51.18 22.93-71.16h1.72zm9.43-3.19 12.62 35.66 2.41.1-14.06-35.76h-.97z" class="f g"/><path d="m266.18 391.61 9.82-.31 12.44 1.12h-15.89l-6.37-.81zm15.26-2.59h3.23l3.77.41-7-.41z" class="t"/><path fill="#9897ef" d="m256.35 310.09 9.83 32.64-7.79-36.06-2.04 3.42zm-6.73-11.97 8.22 33.81 3.43 5.25-9.14-38.83-2.51-.23zm46.7 43.63-5.51 20.64 3.65-6.37 4.27-14.39-2.41.12z"/><g class="f"><path d="m520.67 395.94 17 59.17 13.82 31.19 2.59-.43-14.76-31.28-16.57-58.65h-2.08zm-1.48 0-6.25 65.25h-1.39l6.76-65.25h.88z" class="g"/><path d="m532.51 396.79 45.71 52.48h2.23l-46.64-52.48h-1.3zm-9.76-.85 24.12 72.88 2.24 2.34-24.54-75.22h-1.82z" class="h"/></g><path d="m520.67 396.28 17-55.56 13.82-29.29 2.59.41-14.76 29.37-16.57 55.07h-2.08zm-1.48 0-6.25-61.27h-1.39l6.76 61.27h.88z" class="g"/><path d="m532.51 397.3 45.71-49.27h2.23l-46.64 49.27h-1.3zm-9.76-1.02 24.12-68.43 2.24-2.2-24.54 70.63h-1.82z" class="h"/><path fill="#b38bff" d="m511.55 396.28 10.2-.52 10.5.52h-20.7zm18.09 1.02 4.65-.51 3.47.51h-8.12z"/><path d="m83.51 103.43-12.15 23.75-10.86 21.25-3.67-.63 8.57-33.09 5.57-21.51 1.99-1.6-6.6 25.13-8.19 31.23 3.16-2.36 7.69-23.33 1.34-4.08 13.15-14.76zm-31.7 43.2-3.43-42.78 1.05-1.59 3.13 44.5-.75-.13z" class="g"/><path d="m72.96 91.6-6.6 25.13-.96-2.02 5.57-21.51 1.99-1.6zm10.55 11.83-12.15 23.75-2.34-4.91 1.34-4.08 13.15-14.76z" class="q"/><path d="m121.76 249.43 14.28-29.31-1.09-.9-14.22 30.21h1.03zm-6.26-1.25 3.38-23.08h1.85l-4.49 23.88-.74-.8zm501.48-16.08-6.02 3.58-24.71-11.54 1.58-.88 21.25 10.22-10.83-7.88 1.08-1.13 11.09 7.38-7.8-18.59 4.83-3.75 4.12 12.69-2.49-14.19h1.34l5.64 22.09 2.61.39 7.8-39.64h1.15l-8.08 41.97-2.56-.72z" class="g"/><path d="m614.93 233.48-7.48-32.14 2.13-1.89 7.4 32.65-2.05 1.38z" class="q"/><path d="m744.22 237.43-18.55-48.67v-4.01l20.22 53.35-1.67-.67zm18.92 8.37L775 222.42l1.05.49-12.11 22.89h-.8z" class="g"/><path d="m760.8 244.76 2.34-29.92 1.11.36-2.64 29.92-.81-.36zM744.75 96.72l-17.52-14 .94-.29 18.33 14.02-5.83-8.44h1.17l5.83 8.25-2.92.46z" class="h"/><path d="m173.26 125.53 16.17-18.2 1.73.34-17.52 19.43-.38-1.57z" class="g"/><path d="m170.12 113.07 10.37-18.69-1.15-.65-9.61 17.74.39 1.6z" class="q"/><path d="m199.73 261.83 7.1-22.07 1.05 1.5-8.15 21.49v-.92zm351.76 15.89-12.17-11.12v-1.34L551.49 277v.72zm-.18-2.5-14.64-18 .71-1.31 13.93 17.69v1.62z" class="g"/></g></svg>