<svg xmlns="http://www.w3.org/2000/svg" xmlns:xlink="http://www.w3.org/1999/xlink" viewBox="0 0 137.24 40.3">
  <style>
    .A{mix-blend-mode:multiply}.B{opacity:.5}.C{fill-rule:evenodd}.D{opacity:.25}.E{opacity:.65}.F{opacity:.75}.G{fill:#8a512b}
  </style>
  <defs>
    <radialGradient xlink:href="#Af" id="A" cx="70.14" cy="83.38" r="8.14" fx="70.14" fy="83.38" gradientTransform="rotate(90 68.62 20.15)">
      <stop offset="0" stop-color="#663303"/>
      <stop offset="1" stop-color="#b37e42"/>
    </radialGradient>
    <radialGradient xlink:href="#Af" id="B" cx="65.34" cy="80.66" r="10.57" fx="65.34" fy="80.66" gradientTransform="rotate(90 68.62 20.15)">
      <stop offset=".51" stop-color="#fff"/>
      <stop offset=".7" stop-color="#cfc9c2"/>
      <stop offset="1" stop-color="#7b6a58"/>
    </radialGradient>
    <radialGradient xlink:href="#Af" id="C" cx="65.34" cy="84.22" r="9.87" fx="65.34" fy="84.22" gradientTransform="rotate(90 68.62 20.15)">
      <stop offset="0" stop-color="#fca03f"/>
      <stop offset=".11" stop-color="#e9943a"/>
      <stop offset=".32" stop-color="#b8752e"/>
      <stop offset=".63" stop-color="#69431a"/>
      <stop offset="1"/>
    </radialGradient>
    <radialGradient xlink:href="#C" id="D" cx="62.41" cy="83.72" r="13.08" fx="62.41" fy="83.72"/>
    <radialGradient xlink:href="#C" id="E" cx="62.16" cy="82.24" r="6.23" fx="62.16" fy="82.24"/>
    <radialGradient xlink:href="#C" id="F" cx="73.54" cy="88.69" r="5.72" fx="73.54" fy="88.69"/>
    <radialGradient xlink:href="#Af" id="G" cx="71.35" cy="86.14" r="6.51" fx="71.35" fy="86.14" gradientTransform="rotate(90 68.62 20.15)">
      <stop offset="0" stop-color="#fccf9f"/>
      <stop offset=".11" stop-color="#e9bf93"/>
      <stop offset=".32" stop-color="#b89774"/>
      <stop offset=".63" stop-color="#695642"/>
      <stop offset="1"/>
    </radialGradient>
    <radialGradient xlink:href="#G" id="H" cx="62.8" cy="77.61" r="6.12" fx="62.8" fy="77.61"/>
    <radialGradient xlink:href="#G" id="I" cx="65.39" cy="77.5" r="5.84" fx="65.39" fy="77.5"/>
    <radialGradient xlink:href="#Af" id="J" cx="63.93" cy="72.66" r="7.29" fx="63.93" fy="72.66" gradientTransform="rotate(90 68.62 20.15)">
      <stop offset="0" stop-color="#1d48b5"/>
      <stop offset="1"/>
    </radialGradient>
    <radialGradient xlink:href="#J" id="K" cx="63.15" cy="66.13" r="8.51" fx="63.15" fy="66.13"/>
    <radialGradient xlink:href="#J" id="L" cx="63.45" cy="60.44" r="8.46" fx="63.45" fy="60.44"/>
    <radialGradient xlink:href="#J" id="M" cx="62.66" cy="54.24" r="11.15" fx="62.66" fy="54.24"/>
    <radialGradient xlink:href="#G" id="N" cx="63.8" cy="51.18" r="7.66" fx="63.8" fy="51.18"/>
    <radialGradient xlink:href="#G" id="O" cx="66.3" cy="51.92" fx="66.3" fy="51.92"/>
    <radialGradient xlink:href="#A" id="P" cx="62.39" cy="49.24" r="14.85" fx="62.39" fy="49.24"/>
    <radialGradient xlink:href="#G" id="Q" cx="49.69" cy="32.12" r="13.45" fx="49.69" fy="32.12"/>
    <radialGradient xlink:href="#A" id="R" cx="76.53" cy="47.19" r="13.59" fx="76.53" fy="47.19"/>
    <radialGradient xlink:href="#G" id="S" cx="88.74" cy="26.55" r="20.76" fx="88.74" fy="26.55"/>
    <radialGradient xlink:href="#A" id="T" cx="62.06" cy="38.34" r="12.16" fx="62.06" fy="38.34"/>
    <radialGradient xlink:href="#G" id="U" cx="56.98" cy="22.75" r="11.68" fx="56.98" fy="22.75"/>
    <radialGradient xlink:href="#A" id="V" cx="77.11" cy="39.27" r="12.68" fx="77.11" fy="39.27"/>
    <radialGradient xlink:href="#G" id="W" cx="78.4" cy="19.35" r="13.57" fx="78.4" fy="19.35"/>
    <radialGradient xlink:href="#Af" id="X" cx="42.44" cy="-25.48" r="62.59" fx="42.44" fy="-25.48" gradientTransform="rotate(90 68.62 20.15)">
      <stop offset="0" stop-color="#cfe2e8"/>
      <stop offset="1" stop-color="#5c839e"/>
    </radialGradient>
    <radialGradient xlink:href="#Af" id="Y" cx="47.68" cy="-19.32" r="57.58" fx="47.68" fy="-19.32" gradientTransform="rotate(90 68.62 20.15)">
      <stop offset="0" stop-color="#a1c3e6"/>
      <stop offset="1" stop-color="#4e729e"/>
    </radialGradient>
    <radialGradient xlink:href="#Af" id="Z" cx="52.27" cy="-29.85" r="73.74" fx="52.27" fy="-29.85" gradientTransform="rotate(90 68.62 20.15)">
      <stop offset="0" stop-color="#b37e42"/>
      <stop offset="1" stop-color="#663303"/>
    </radialGradient>
    <radialGradient xlink:href="#Af" id="a" cx="40.33" cy="-9.27" r="46.38" fx="40.33" fy="-9.27" gradientTransform="rotate(90 68.62 20.15)">
      <stop offset="0" stop-color="#b17f4a"/>
      <stop offset=".14" stop-color="#9e7142"/>
      <stop offset=".43" stop-color="#6d4e2d"/>
      <stop offset=".84" stop-color="#1f160d"/>
      <stop offset="1"/>
    </radialGradient>
    <radialGradient xlink:href="#A" id="b" cx="68.65" cy="37.8" r="8.44" fx="68.65" fy="37.8"/>
    <radialGradient xlink:href="#B" id="c" cx="68.38" cy="36.76" r="10.05" fx="68.38" fy="36.76"/>
    <radialGradient xlink:href="#B" id="d" cx="70.25" cy="39.64" r="8.67" fx="70.25" fy="39.64"/>
    <radialGradient xlink:href="#B" id="e" cx="67.44" cy="36.32" r="9.42" fx="67.44" fy="36.32"/>
    <radialGradient xlink:href="#C" id="f" cx="57.39" cy="25.25" r="22.06" fx="57.39" fy="25.25"/>
    <radialGradient xlink:href="#G" id="g" cx="63.82" cy="31.43" r="11.86" fx="63.82" fy="31.43"/>
    <radialGradient xlink:href="#G" id="h" cx="72.28" cy="45.82" r="10.76" fx="72.28" fy="45.82"/>
    <radialGradient xlink:href="#G" id="i" cx="71.33" cy="39.96" r="5.01" fx="71.33" fy="39.96"/>
    <radialGradient xlink:href="#B" id="j" cx="48.53" cy="31.06" r="18.47" fx="48.53" fy="31.06"/>
    <radialGradient xlink:href="#B" id="k" cx="86.6" cy="27.47" r="19.75" fx="86.6" fy="27.47"/>
    <radialGradient xlink:href="#B" id="l" cx="60.3" cy="21.15" r="15.32" fx="60.3" fy="21.15"/>
    <radialGradient xlink:href="#B" id="m" cx="75.96" cy="23.37" r="13.98" fx="75.96" fy="23.37"/>
    <radialGradient xlink:href="#C" id="n" cx="57.39" cy="25.25" r="22.06" fx="57.39" fy="25.25" gradientTransform="rotate(-90 51.01 37.83)"/>
    <radialGradient xlink:href="#G" id="o" cx="63.82" cy="31.43" r="11.86" fx="63.82" fy="31.43" gradientTransform="rotate(-90 51.01 37.83)"/>
    <radialGradient xlink:href="#G" id="p" cx="62.76" cy="29.11" r="9.7" fx="62.76" fy="29.11"/>
    <radialGradient xlink:href="#Af" id="q" cx="63.19" cy="31.61" r="6.02" fx="63.19" fy="31.61" gradientTransform="rotate(90 32 31.71) scale(.24)">
      <stop offset="0" stop-color="#ffd52e"/>
      <stop offset=".01" stop-color="#f9d02c"/>
      <stop offset=".18" stop-color="#b89921"/>
      <stop offset=".34" stop-color="#806a17"/>
      <stop offset=".49" stop-color="#52440e"/>
      <stop offset=".64" stop-color="#2e2608"/>
      <stop offset=".78" stop-color="#141103"/>
      <stop offset=".9" stop-color="#050400"/>
      <stop offset="1"/>
    </radialGradient>
    <radialGradient xlink:href="#q" id="r" cx="67.65" cy="-22.52" r="7.04" fx="67.65" fy="-22.52" gradientTransform="rotate(90 68.62 20.15)"/>
    <radialGradient xlink:href="#Af" id="s" cx="70.6" cy="14.64" r="3.68" fx="70.6" fy="14.64" gradientTransform="rotate(90 68.62 20.15)">
      <stop offset="0" stop-color="#ffdb4b"/>
      <stop offset=".01" stop-color="#f9d549"/>
      <stop offset=".18" stop-color="#b89e36"/>
      <stop offset=".34" stop-color="#806d25"/>
      <stop offset=".49" stop-color="#524618"/>
      <stop offset=".64" stop-color="#2e270d"/>
      <stop offset=".78" stop-color="#141106"/>
      <stop offset=".9" stop-color="#050401"/>
      <stop offset="1"/>
    </radialGradient>
    <radialGradient xlink:href="#q" id="t" cx="67.83" cy="77.39" r="3.99" fx="67.83" fy="77.39" gradientTransform="matrix(0 .72 -.69 0 65.88 -28.19)"/>
    <radialGradient xlink:href="#q" id="u" cx="73.41" cy="42.43" r="3.68" fx="73.41" fy="42.43" gradientTransform="matrix(0 .41 -.41 0 63.95 -5.76)"/>
    <linearGradient xlink:href="#Af" id="v" x1="12.18" x2="12.18" y1="16.43" y2="23.94">
      <stop offset="0" stop-color="#94561c"/>
      <stop offset=".31" stop-color="#f0b665"/>
      <stop offset="1" stop-color="#875810"/>
    </linearGradient>
    <linearGradient xlink:href="#Af" id="w" x1="12.36" x2="12.36" y1="16.43" y2="17.3">
      <stop offset="0" stop-color="#7b6a58"/>
      <stop offset=".3" stop-color="#cfc9c2"/>
      <stop offset=".49" stop-color="#fff"/>
    </linearGradient>
    <linearGradient xlink:href="#Af" id="x" x1="12.23" x2="12.23" y1="21.14" y2="24.63">
      <stop offset=".51" stop-color="#fff"/>
      <stop offset=".7" stop-color="#cfc9c2"/>
      <stop offset="1" stop-color="#7b6a58"/>
    </linearGradient>
    <linearGradient xlink:href="#Af" id="y" x1="14.7" x2="14.7" y1="16.69" y2="23.67">
      <stop offset="0" stop-color="#b37e42"/>
      <stop offset="1" stop-color="#663303"/>
    </linearGradient>
    <linearGradient xlink:href="#Af" id="z" x1="17.28" x2="17.28" y1="16.76" y2="23.6">
      <stop offset="0" stop-color="#281f36"/>
      <stop offset=".27" stop-color="#37454a"/>
      <stop offset="1" stop-color="#2c2f3b"/>
    </linearGradient>
    <linearGradient xlink:href="#Af" id="AA" x1="17.42" x2="17.42" y1="16.76" y2="17.52">
      <stop offset="0" stop-color="#83839c"/>
      <stop offset="1" stop-color="#fff"/>
    </linearGradient>
    <linearGradient xlink:href="#Af" id="AB" x1="17.33" x2="17.33" y1="21.91" y2="23.6">
      <stop offset="0" stop-color="#fff"/>
      <stop offset="1" stop-color="#83839c"/>
    </linearGradient>
    <linearGradient xlink:href="#Af" id="AC" x1="20.61" x2="20.61" y1="15.97" y2="24.4">
      <stop offset="0" stop-color="#663303"/>
      <stop offset=".31" stop-color="#b37e42"/>
      <stop offset="1" stop-color="#663303"/>
    </linearGradient>
    <linearGradient xlink:href="#Af" id="AD" x1="20" x2="20" y1="16.44" y2="22.52">
      <stop offset="0" stop-color="#fccf9f"/>
      <stop offset=".11" stop-color="#e9bf93"/>
      <stop offset=".32" stop-color="#b89774"/>
      <stop offset=".63" stop-color="#695642"/>
      <stop offset="1"/>
    </linearGradient>
    <linearGradient xlink:href="#z" id="AE" x1="23.39" x2="23.39" y1="16.66" y2="23.7"/>
    <linearGradient xlink:href="#AA" id="AF" x1="23.54" x2="23.54" y1="16.66" y2="17.44"/>
    <linearGradient xlink:href="#AB" id="AG" x1="23.45" x2="23.45" y1="22" y2="23.7"/>
    <linearGradient xlink:href="#AC" id="AH"/>
    <linearGradient xlink:href="#AD" id="AI"/>
    <linearGradient xlink:href="#z" id="AJ" x1="29.48" x2="29.48" y1="16.56" y2="23.81"/>
    <linearGradient xlink:href="#AA" id="AK" x1="29.58" x2="29.58" y1="16.56" y2="17.36"/>
    <linearGradient xlink:href="#AB" id="AL" x1="29.54" x2="29.54" y1="22.08" y2="23.81"/>
    <linearGradient xlink:href="#z" id="AM" x1="36" x2="36" y1="16.44" y2="23.92"/>
    <linearGradient xlink:href="#AA" id="AN" x1="36.16" x2="36.16" y1="16.44" y2="17.28"/>
    <linearGradient xlink:href="#AB" id="AO" x1="36.06" x2="36.06" y1="22.16" y2="23.92"/>
    <linearGradient xlink:href="#AC" id="AP" x1="41.33" x2="41.33" y1="16.04" y2="24.33"/>
    <linearGradient xlink:href="#w" id="AQ" x1="41.48" x2="41.48" y1="16.04" y2="17.11"/>
    <linearGradient xlink:href="#x" id="AR" x1="41.38" x2="41.38" y1="19.33" y2="25.32"/>
    <linearGradient xlink:href="#Af" id="AS" x1="57.12" x2="137.24" y1="15.95" y2="15.95">
      <stop offset="0" stop-color="#a9c5cf"/>
      <stop offset="1" stop-color="#d9f2fa"/>
    </linearGradient>
    <linearGradient xlink:href="#Af" id="AT" x1="57.12" x2="137.24" y1="24.35" y2="24.35">
      <stop offset="0" stop-color="#89a7cc"/>
      <stop offset="1" stop-color="#a1b9c9"/>
    </linearGradient>
    <linearGradient xlink:href="#Af" id="AU" x1="57.12" x2="124.65" y1="17.89" y2="17.89">
      <stop offset="0" stop-color="#ab7543"/>
      <stop offset="1" stop-color="#855130"/>
    </linearGradient>
    <linearGradient xlink:href="#Af" id="AV" x1="57.12" x2="124.65" y1="22.41" y2="22.41">
      <stop offset="0" stop-color="#8c521c"/>
      <stop offset="1" stop-color="#cc9354"/>
    </linearGradient>
    <linearGradient xlink:href="#Af" id="AW" x1="61.35" x2="61.35" y1="14.32" y2="26.05">
      <stop offset="0" stop-color="#f0b665"/>
      <stop offset="1" stop-color="#875810"/>
    </linearGradient>
    <linearGradient xlink:href="#Af" id="AX" x1="61.35" x2="61.35" y1="14.32" y2="20.18">
      <stop offset="0"/>
      <stop offset=".07" stop-color="#0c0704"/>
      <stop offset=".52" stop-color="#5a331e"/>
      <stop offset=".84" stop-color="#8b4f2f"/>
      <stop offset="1" stop-color="#9e5a36"/>
    </linearGradient>
    <linearGradient xlink:href="#Af" id="AY" x1="60.22" x2="60.22" y1="14.32" y2="15.74">
      <stop offset="0" stop-color="#7b6a58"/>
      <stop offset=".62" stop-color="#cfc9c2"/>
      <stop offset="1" stop-color="#fff"/>
    </linearGradient>
    <linearGradient xlink:href="#Af" id="AZ" x1="60.22" x2="60.22" y1="24.63" y2="26.05">
      <stop offset="0" stop-color="#fff"/>
      <stop offset=".38" stop-color="#cfc9c2"/>
      <stop offset="1" stop-color="#7b6a58"/>
    </linearGradient>
    <linearGradient id="Af" gradientUnits="userSpaceOnUse"/>
    <path id="Aa" d="M21.97 20.19c0 .97-.06 1.86-.16 2.5-.16 1.06-.58 1.71-1.21 1.71s-1.04-.65-1.21-1.71c-.1-.65-.16-1.54-.16-2.5s.06-1.86.16-2.5c.16-1.06.58-1.71 1.21-1.71s1.04.65 1.21 1.71c.1.65.16 1.54.16 2.5Z"/>
    <path id="Ab" d="M21.81 22.69c.1-.65.16-1.54.16-2.5s-.06-1.86-.16-2.5c-.07-.43-.18-.8-.32-1.08-.07-.13-.2-.21-.35-.21s-.28.08-.35.21c-.15.28-.26.65-.32 1.08-.1.65-.16 1.54-.16 2.5s.06 1.86.16 2.5c.07.43.18.8.32 1.08.07.13.2.21.35.21s.28-.08.35-.21c.15-.28.26-.65.32-1.08Z"/>
    <path id="Ac" d="M20.52 16.57c-.04-.08-.16-.15-.25-.13-1.12.24-1.01 5.33-.06 6.08-.16-1.57-.28-3.82.19-5.33.07-.23.16-.52.11-.62Z"/>
    <path id="Ad" d="M58.81 20.19a7.84 7.84 0 1 0-15.68 0 7.84 7.84 0 1 0 15.68 0zm-2.07 0c0 3.18-2.58 5.76-5.76 5.76s-5.76-2.58-5.76-5.76 2.58-5.76 5.76-5.76 5.76 2.58 5.76 5.76z"/>
    <path id="Ae" d="M58.21 20.19a7.24 7.24 0 1 0-14.48 0 7.24 7.24 0 1 0 14.48 0zm-.88 0c0 3.51-2.85 6.36-6.36 6.36s-6.36-2.85-6.36-6.36 2.85-6.36 6.36-6.36 6.36 2.85 6.36 6.36z"/>
  </defs>
  <g class="C">
    <path fill="url(#A)" d="M11.87 20.19c0 3.28-2.66 5.94-5.94 5.94S0 23.46 0 20.19s2.66-5.94 5.94-5.94 5.94 2.66 5.94 5.94Zm-2.71 0c0 1.78-1.45 3.23-3.23 3.23S2.7 21.97 2.7 20.19s1.45-3.23 3.23-3.23 3.23 1.45 3.23 3.23Z"/>
    <path fill="url(#B)" d="M6.31 25.99a5.81 5.81 0 0 1 0-11.62c.63 0 1.24.1 1.8.29a5.83 5.83 0 0 0-2.18-.41 5.94 5.94 0 1 0 0 11.88c.77 0 1.51-.15 2.18-.41-.57.19-1.17.29-1.8.29z" style="mix-blend-mode:multiply"/>
    <path fill="url(#C)" d="M11.37 20.19c0-3-2.43-5.43-5.43-5.43S.51 17.18.51 20.19s2.43 5.43 5.43 5.43 5.43-2.43 5.43-5.43Zm-1.71 0c0 2.06-1.67 3.73-3.72 3.73s-3.72-1.67-3.72-3.73 1.67-3.73 3.72-3.73 3.72 1.67 3.72 3.73Z" style="mix-blend-mode:screen"/>
    <path fill="url(#D)" d="M10.87 20.19c0-2.72-2.21-4.93-4.93-4.93s-4.93 2.21-4.93 4.93 2.21 4.93 4.93 4.93 4.93-2.21 4.93-4.93Zm-.7 0c0 2.34-1.89 4.23-4.23 4.23s-4.23-1.9-4.23-4.23 1.89-4.23 4.23-4.23 4.23 1.9 4.23 4.23Z" style="mix-blend-mode:screen"/>
    <path fill="url(#E)" d="M6.39 15.94c1.99.21 3.58 1.8 3.79 3.79a.5.5 0 0 0 .5.45h.03a.5.5 0 0 0 .38-.17c.1-.11.14-.24.13-.39A5.31 5.31 0 0 0 6.5 14.9a.47.47 0 0 0-.39.13.5.5 0 0 0-.17.38v.03c0 .26.19.48.45.5z" style="mix-blend-mode:screen"/>
    <path fill="url(#F)" d="M3.42 23.63a4.41 4.41 0 0 1-.94-.94c-.15-.21-.44-.27-.66-.14H1.8c-.13.09-.21.2-.24.35s0 .28.09.4a5.41 5.41 0 0 0 1.17 1.17c.12.09.26.12.4.09.15-.03.26-.11.33-.24v-.02a.49.49 0 0 0-.13-.66z" style="mix-blend-mode:screen"/>
    <path fill="url(#G)" d="M2.71 20.19c0-1.74 1.38-3.16 3.1-3.23h-.13c-1.78 0-3.23 1.45-3.23 3.23s1.45 3.23 3.23 3.23h.13c-1.72-.07-3.1-1.49-3.1-3.23Z" style="mix-blend-mode:screen"/>
    <path fill="url(#v)" d="M14.72 16.7v6.98l-2.01.13-2.16.14c-.24.02-.47-.4-.63-1.07-.16-.68-.26-1.63-.26-2.68s.1-2 .26-2.68.38-1.09.63-1.07l2.16.14 2.01.13z"/>
    <path fill="url(#w)" d="m10.25 17.06 2.32.12 2.14.11v-.6l-2.01-.13-2.16-.14c-.2-.01-.38.26-.53.72.08-.06.16-.1.25-.09z" style="mix-blend-mode:multiply"/>
    <path fill="url(#x)" d="m14.71 22.27-2.14.08-2.32.09c-.18 0-.35-.15-.5-.44.08.59.19 1.08.32 1.42s.29.53.46.52l2.16-.14 2.01-.13v-1.41z" style="mix-blend-mode:multiply"/>
    <path fill="url(#H)" d="m14.72 17.83-2.32-.1-2.52-.11c-.06.28-.11.61-.15.96l-.08 1.14 2.64.02 2.42.02v-1.94z" style="mix-blend-mode:screen"/>
    <path fill="url(#I)" d="M14.71 20.32H9.65l.04 1.06 2.62-.05 2.4-.05v-.97z" style="mix-blend-mode:screen"/>
    <path fill="url(#y)" d="M15.46 20.19c0 .95-.08 1.81-.22 2.44-.13.63-.32 1.03-.53 1.05-.21.01-.4-.37-.54-1s-.23-1.51-.23-2.49.09-1.86.23-2.49.33-1.01.54-1 .4.41.53 1.04.22 1.49.22 2.44z"/>
    <path fill="url(#z)" d="M14.32 20.19c0-1.84.32-3.33.71-3.33l5.21-.09c-.4 0-.73 1.53-.73 3.42s.33 3.42.73 3.42l-5.21-.09c-.39 0-.71-1.49-.71-3.33Z"/>
    <path fill="url(#AA)" d="M19.8 17.46c.12-.43.27-.69.44-.69l-5.21.09c-.16 0-.31.25-.43.67l5.2-.07Z" class="D" style="mix-blend-mode:multiply"/>
    <path fill="url(#AB)" d="m19.62 21.99-5.2-.07c.13.96.35 1.6.61 1.6l5.21.09c-.26 0-.49-.65-.62-1.62Z" style="mix-blend-mode:multiply"/>
    <path fill="url(#J)" d="M19.51 20.19c0-.68.04-1.32.12-1.85l-5.2.04c-.07.52-.12 1.15-.12 1.82v.48l5.2.04v-.51Z" style="mix-blend-mode:screen"/>
  </g>
  <use xlink:href="#Aa" fill="url(#AC)"/>
  <g class="C">
    <use xlink:href="#Ab" class="A B G"/>
    <use xlink:href="#Ac" fill="url(#AD)" class="B" style="mix-blend-mode:screen"/>
    <path fill="url(#AE)" d="m26.34 23.71-5.16-.09c-.41 0-.74-1.54-.74-3.43s.33-3.43.74-3.43l5.16-.09c-.42 0-.75 1.58-.75 3.52s.34 3.52.75 3.52z"/>
    <path fill="url(#AF)" d="M25.89 17.38c.13-.44.28-.71.45-.71l-5.15.09c-.17 0-.32.26-.44.69l5.15-.07z" class="D" style="mix-blend-mode:multiply"/>
    <path fill="url(#AG)" d="M20.56 22c.13.97.36 1.62.63 1.62l5.15.09c-.27 0-.5-.66-.63-1.64L20.56 22z" style="mix-blend-mode:multiply"/>
    <path fill="url(#K)" d="M25.59 20.19c0-.7.04-1.35.12-1.89l-5.14.04c-.07.54-.12 1.17-.12 1.86v.52l5.14.04v-.55Z" style="mix-blend-mode:screen"/>
  </g>
  <use xlink:href="#Aa" x="6.06" fill="url(#AH)"/>
  <g class="C">
    <use xlink:href="#Ab" x="6.06" class="A B G"/>
    <use xlink:href="#Ac" x="6.06" fill="url(#AI)" class="B" style="mix-blend-mode:screen"/>
    <path fill="url(#AJ)" d="m27.41 16.65 4.93-.08c-.38.23-.68 1.76-.68 3.61 0 2.01.35 3.64.78 3.64l-5.03-.08s-.08-.02-.13-.02c-.42 0-.75-1.58-.75-3.52s.34-3.52.75-3.52c.04 0 .09 0 .13-.02Z"/>
    <path fill="url(#AK)" d="M31.96 17.29c.11-.39.24-.65.38-.73l-4.93.08s-.08.02-.13.02c-.17 0-.33.26-.45.7l5.13-.07Z" class="D" style="mix-blend-mode:multiply"/>
    <path fill="url(#AL)" d="M26.64 22.08c.13.98.37 1.63.64 1.63.04 0 .09 0 .13.02l5.02.08c-.27 0-.51-.67-.65-1.66l-5.14-.07Z" style="mix-blend-mode:multiply"/>
    <path fill="url(#L)" d="M31.66 20.17c0-.71.04-1.36.12-1.92l-5.13.04c-.08.55-.12 1.2-.12 1.9v.56l5.14.04-.01-.61z" style="mix-blend-mode:screen"/>
  </g>
  <use xlink:href="#Aa" x="12.12" fill="url(#AH)"/>
  <g class="C">
    <use xlink:href="#Ab" x="12.12" class="A B G"/>
    <use xlink:href="#Ac" x="12.12" fill="url(#AI)" class="B" style="mix-blend-mode:screen"/>
    <path fill="url(#AM)" d="m33.55 16.54 5.86-.1v7.48l-5.86-.1c-.05-.02-.11-.03-.18-.03-.43 0-.77-1.62-.77-3.61s.35-3.61.77-3.61c.06 0 .12-.01.18-.03Z"/>
    <path fill="url(#AN)" d="m32.91 17.28 6.5-.09v-.75l-5.86.1c-.05.02-.11.03-.18.03-.17 0-.33.26-.46.7Z" class="D" style="mix-blend-mode:multiply"/>
    <path fill="url(#AO)" d="M32.72 22.16c.14.98.38 1.63.65 1.63.06 0 .12.01.18.03l5.86.1v-1.67l-6.69-.09Z" style="mix-blend-mode:multiply"/>
    <path fill="url(#M)" d="M32.72 18.24c-.08.56-.12 1.23-.12 1.94l.01.6 6.8.05v-2.64l-6.69.05z" style="mix-blend-mode:screen"/>
    <path fill="url(#AP)" d="M43.84 16.04v8.29l-2.2-.14-2.05-.13c-.21-.01-.41-.46-.54-1.16-.14-.7-.22-1.66-.22-2.71s.08-2.02.22-2.71c.14-.7.33-1.14.54-1.16l2.05-.13 2.2-.14z"/>
    <path fill="url(#AQ)" d="m39.34 16.99 2.17-.11 2.33-.12v-.71l-2.2.14-2.05.13c-.17.01-.33.31-.46.8.07-.07.14-.11.21-.12z" style="mix-blend-mode:multiply"/>
    <path fill="url(#AR)" d="m43.84 22.66-2.33-.09-2.17-.08c-.16 0-.3-.18-.42-.48.06.6.16 1.1.27 1.46.12.36.25.57.4.58l2.05.13 2.2.14v-1.67z" style="mix-blend-mode:multiply"/>
    <path fill="url(#N)" d="m43.84 17.39-2.5.11-2.31.1-.13.98-.06 1.15 2.4-.02 2.6-.02v-2.3z" style="mix-blend-mode:screen"/>
    <path fill="url(#O)" d="M43.84 20.35h-5.01l.04 1.06 2.39.05 2.59.05v-1.15z" style="mix-blend-mode:screen"/>
    <path fill="url(#P)" d="m47.58 0 3.92 11.95-5.1 1.37-2.58-12.31A11.6 11.6 0 0 1 47.58 0z"/>
    <path fill="url(#Q)" d="m45.66.34 2.05 6.47c.82 2.6 1.39 3.73 3.5 4.27L47.57 0c-.65.06-1.29.17-1.92.34Z" style="mix-blend-mode:screen"/>
    <path fill="url(#R)" d="m47.59 40.3 3.92-11.95-5.1-1.37-2.58 12.31c1.21.55 2.46.89 3.76 1.01Z"/>
    <path fill="url(#S)" d="m45.67 39.96 2.05-6.47c.82-2.6 1.39-3.73 3.5-4.27L47.58 40.3c-.65-.06-1.29-.17-1.92-.34Z" style="mix-blend-mode:screen"/>
    <path fill="url(#T)" d="M61.17 6.34 57 14.59l-4.25-2.45 5.06-7.74a11.4 11.4 0 0 1 3.37 1.94z"/>
    <path fill="url(#U)" d="m59.56 5.22-1.55 2.92c-1.25 2.42-1.65 3.62-.54 5.49l3.69-7.3c-.5-.42-1.04-.79-1.6-1.12Z" style="mix-blend-mode:screen"/>
    <path fill="url(#V)" d="M61.17 34.03 57 25.78l-4.25 2.45 5.06 7.74a11.4 11.4 0 0 0 3.37-1.94z"/>
    <path fill="url(#W)" d="m59.56 35.15-1.55-2.92c-1.25-2.42-1.65-3.62-.54-5.49l3.69 7.3c-.5.42-1.04.79-1.6 1.12Z" style="mix-blend-mode:screen"/>
    <path fill="url(#X)" d="M57.12 20.15h80.12c-6.24-3.61-15.01-7.12-21.39-8.4-17.6.57-38.7 1.67-58.73 3.23v5.17Z"/>
    <path fill="url(#AS)" d="m127.53 17.34 6.06 2.81h3.65c-6.24-3.61-15.01-7.12-21.39-8.4-17.6.57-38.7 1.67-58.73 3.23v1.75c18.9-1.45 39.64-2.61 58.58-3.22 3.98.82 8.09 2.28 11.83 3.84z"/>
    <path fill="url(#Y)" d="M57.12 20.15h80.12c-6.24 3.61-15.01 7.12-21.39 8.4-17.6-.57-38.7-1.67-58.73-3.23v-5.17Z"/>
    <path fill="url(#AT)" d="m127.53 22.96 6.06-2.81h3.65c-6.24 3.61-15.01 7.12-21.39 8.4-17.6-.57-38.7-1.67-58.73-3.23v-1.75c18.9 1.45 39.64 2.61 58.58 3.22 3.98-.82 8.09-2.28 11.83-3.84z"/>
    <path fill="url(#Z)" d="M57.12 17.56v5.17l48.18 1.82c9.25.35 13.16.12 19.36-4.4-6.19-4.52-10.11-4.75-19.36-4.4l-48.18 1.82Z"/>
    <path fill="url(#a)" d="M83.63 23.74c-1.35-1.74-3.23-4.93-4.05-7.02l-9.06.34c1.4 1.76 3.06 4.72 3.65 6.32l9.47.36zm14.77.56c-1.42-1.75-3.82-5.82-4.68-8.11l-5.71.22c1.64 2.07 3.6 5.55 4.43 7.67l5.96.22zm1.21-8.33c1.86 2.32 3.94 6.17 4.94 8.56l.75.03c4.58.17 7.85.2 10.73-.36-1.39-1.44-4.12-6.23-4.94-8.55-1.7-.03-3.6.02-5.8.1l-5.69.21z" style="mix-blend-mode:screen"/>
    <path fill="url(#AU)" d="M117.52 17.19c2.17.64 4.09 1.7 5.92 2.97h1.21c-6.19-4.52-10.11-4.75-19.36-4.4l-48.18 1.82v2.59h.7v-1.91l47.5-1.79c2.31-.09 4.66-.17 6.96-.06 1.77.08 3.53.3 5.23.8Z"/>
    <path fill="url(#AV)" d="M123.45 20.15c-1.84 1.27-3.76 2.33-5.92 2.97-1.71.5-3.46.71-5.23.8-2.31.11-4.66.03-6.96-.06l-47.5-1.79v-1.91h-.7v2.59l48.18 1.82c9.25.35 13.16.12 19.36-4.4h-1.21Z"/>
    <path fill="url(#AW)" d="M63.73 24.23c.6-1.1 1.19-2.35 1.75-3.79l.1-.26-.1-.26a35.02 35.02 0 0 0-1.75-3.79l-1.09-1.82-5.52.4v10.92l5.52.4c.37-.55.73-1.16 1.09-1.82z"/>
    <path fill="url(#AX)" d="m65.59 20.19-.1-.26a35.02 35.02 0 0 0-1.75-3.79l-1.09-1.82-5.52.4v5.46h8.47z" style="mix-blend-mode:screen"/>
    <path fill="url(#AY)" d="m57.12 15.74 6.2-.33-.68-1.09-5.52.4v1.01z" style="mix-blend-mode:multiply"/>
    <path fill="url(#AZ)" d="m63.32 24.96-6.2-.33v1.01l5.52.4.68-1.09z" style="mix-blend-mode:multiply"/>
    <path fill="url(#b)" d="M59.41 20.19c0 4.66-3.78 8.44-8.44 8.44s-8.44-3.78-8.44-8.44 3.78-8.44 8.44-8.44 8.44 3.78 8.44 8.44Zm-3.27 0c0 2.85-2.31 5.17-5.17 5.17s-5.17-2.31-5.17-5.17 2.31-5.17 5.17-5.17 5.17 2.31 5.17 5.17Z"/>
    <path fill="url(#c)" d="M51.51 28.44c-4.56 0-8.26-3.7-8.26-8.26s3.7-8.26 8.26-8.26c.89 0 1.76.14 2.56.41-.96-.38-2-.59-3.1-.59-4.66 0-8.44 3.78-8.44 8.44s3.78 8.44 8.44 8.44c1.09 0 2.14-.21 3.1-.59-.81.26-1.67.41-2.56.41Z" style="mix-blend-mode:multiply"/>
    <path fill="url(#d)" d="M56.14 20.19c0 2.39-1.63 4.4-3.83 4.99 2.41-.38 4.26-2.47 4.26-4.99s-1.84-4.61-4.26-4.99c2.21.59 3.83 2.6 3.83 4.99Z" style="mix-blend-mode:multiply"/>
    <path fill="url(#e)" d="M59.15 20.19c0 2.88-1.39 5.44-3.53 7.04 2.28-1.51 3.79-4.1 3.79-7.04s-1.51-5.53-3.79-7.04c2.14 1.6 3.53 4.16 3.53 7.04Z" style="mix-blend-mode:multiply"/>
    <use xlink:href="#Ad" fill="url(#f)" style="mix-blend-mode:screen"/>
    <use xlink:href="#Ae" fill="url(#g)" style="mix-blend-mode:screen"/>
    <path fill="url(#h)" d="M49.84 25.23a5.17 5.17 0 0 1 0-10.08 5.09 5.09 0 0 0-4.34 5.04c0 2.56 1.89 4.68 4.34 5.04z" style="mix-blend-mode:screen"/>
    <path fill="url(#i)" d="M47.4 25.09c-.51-.37-.96-.82-1.33-1.33a.72.72 0 0 0-.94-.2l-.03.02c-.18.11-.3.27-.34.47-.04.21 0 .4.12.57a7.47 7.47 0 0 0 1.66 1.66c.17.12.37.17.57.12.21-.04.37-.16.47-.34l.02-.03a.72.72 0 0 0-.2-.94z" style="mix-blend-mode:screen"/>
    <path fill="url(#j)" d="M49.04 11.97c-1.51-.55-2.52-1.76-3.29-3.78-.63-1.68-1.18-4.26-1.48-6.08-.1-.6 0-1.07.23-1.4l-.7.29 2.54 12.11a8.43 8.43 0 0 1 2.68-1.15z" class="E" style="mix-blend-mode:multiply"/>
    <path fill="url(#k)" d="M49.05 28.33c-1.51.55-2.52 1.76-3.29 3.78-.63 1.68-1.18 4.26-1.48 6.08-.1.6 0 1.06.23 1.4l-.7-.29 2.54-12.11a8.43 8.43 0 0 0 2.68 1.15z" class="E" style="mix-blend-mode:multiply"/>
    <path fill="url(#l)" d="M57.45 5.42c.29-.44.8-.63 1.32-.61l-.98-.41-4.94 7.56a8.62 8.62 0 0 1 1.22.38c.55.22 1.07.49 1.55.81a8.06 8.06 0 0 1 .59.43c-.93-1.07-2-2.31-1.32-3.8.7-1.53 1.63-2.95 2.56-4.35z" class="E" style="mix-blend-mode:multiply"/>
    <path fill="url(#m)" d="M57.45 34.95c.29.44.8.63 1.32.61l-.98.41-4.94-7.56a8.62 8.62 0 0 0 1.22-.38c.55-.22 1.07-.49 1.55-.81a8.06 8.06 0 0 0 .59-.43c-.93 1.07-2 2.31-1.32 3.8.7 1.53 1.63 2.95 2.56 4.35z" class="E" style="mix-blend-mode:multiply"/>
    <path fill="url(#n)" d="M43.13 20.19a7.84 7.84 0 1 0 15.68 0 7.84 7.84 0 1 0-15.68 0zm2.07 0c0-3.18 2.58-5.76 5.76-5.76s5.76 2.58 5.76 5.76-2.58 5.76-5.76 5.76-5.76-2.58-5.76-5.76z" class="B" style="mix-blend-mode:screen"/>
    <path fill="url(#o)" d="M43.73 20.19a7.24 7.24 0 1 0 14.48 0 7.24 7.24 0 1 0-14.48 0zm.88 0c0-3.51 2.85-6.36 6.36-6.36s6.36 2.85 6.36 6.36-2.85 6.36-6.36 6.36-6.36-2.85-6.36-6.36z" class="B" style="mix-blend-mode:screen"/>
    <path fill="url(#p)" d="M51.62 14.16c2.83.3 5.09 2.55 5.39 5.39.04.37.35.64.71.64h.04a.68.68 0 0 0 .53-.24.72.72 0 0 0 .18-.56c-.37-3.53-3.17-6.33-6.7-6.7a.72.72 0 0 0-.56.18.68.68 0 0 0-.24.53v.04c0 .37.28.68.64.71z" style="mix-blend-mode:screen"/>
    <use xlink:href="#Ad" fill="url(#f)" style="mix-blend-mode:screen"/>
    <use xlink:href="#Ae" fill="url(#g)" style="mix-blend-mode:screen"/>
  </g>
  <circle cx="56" cy="15.11" r="1.47" fill="url(#q)" class="F" style="mix-blend-mode:screen"/>
  <circle cx="111.29" cy="19.18" r="7.04" fill="url(#r)" class="F" style="mix-blend-mode:screen"/>
  <g class="C">
    <path fill="url(#s)" d="M74.13 25.81c-2.03 0-3.68-1.65-3.68-3.68s1.65-3.68 3.68-3.68 3.68 1.65 3.68 3.68-1.65 3.68-3.68 3.68Z" class="B" style="mix-blend-mode:screen"/>
    <path fill="url(#t)" d="M12.63 23.36c-1.52 0-2.75-1.28-2.75-2.86s1.23-2.86 2.75-2.86 2.75 1.28 2.75 2.86-1.23 2.86-2.75 2.86Z" class="F" style="mix-blend-mode:screen"/>
    <path fill="url(#u)" d="M46.15 26.23c-.85 0-1.54-.68-1.54-1.53s.69-1.53 1.54-1.53 1.54.68 1.54 1.53-.69 1.53-1.54 1.53Z" class="F" style="mix-blend-mode:screen"/>
  </g>
</svg>
