<svg width="1691" height="1496" viewBox="0 0 1691 1496" fill="none" xmlns="http://www.w3.org/2000/svg">
<path d="M1652.35 11.277C1648.83 2.09818 1642.66 2.09814 1640.02 2.09814C1636.49 2.09814 1631.2 2.09818 1627.68 11.277C1622.39 23.8978 1625.91 62.9079 1626.8 73.234C1627.68 83.5602 1633.85 97.3283 1632.08 111.096C1631.2 117.981 1635.61 116.833 1640.02 114.539C1644.42 116.833 1648.83 117.981 1647.95 111.096C1646.18 98.4756 1652.35 83.5602 1653.24 73.234C1654.12 61.7605 1656.76 23.8978 1652.35 11.277Z" fill="url(#paint0_linear_9_7167)"/>
<path opacity="0.11" d="M1635.61 18.1602C1636.49 7.83406 1638.25 3.24465 1640.9 0.949951H1640.02C1636.49 0.949951 1631.2 0.949986 1627.68 10.1288C1622.39 22.7497 1625.91 61.7595 1626.8 72.0857C1627.68 82.4118 1633.85 96.1801 1632.08 109.948C1631.2 116.832 1635.61 115.685 1640.02 113.39C1640.02 113.39 1640.9 113.39 1640.9 114.538C1641.78 113.39 1642.66 113.39 1642.66 113.39C1642.66 113.39 1645.3 98.4748 1640.9 78.9698C1636.49 59.4649 1634.73 41.1072 1635.61 18.1602Z" fill="#2B0004"/>
<path opacity="0.09" d="M1625.91 66.3513C1625.91 68.646 1625.91 70.9407 1625.91 72.0881C1626.8 82.4142 1632.96 96.1825 1631.2 109.951C1630.32 116.835 1634.73 115.687 1639.13 113.393C1643.54 115.687 1647.95 116.835 1647.07 109.951C1646.18 98.4772 1650.59 85.8563 1651.47 75.5302C1649.71 77.8249 1647.07 80.1196 1643.54 81.2669C1633.85 85.8563 1628.56 74.3828 1625.91 66.3513Z" fill="#2B0004"/>
<path opacity="0.18" d="M1625.91 29.631C1625.91 29.631 1625.91 17.0102 1630.32 20.4522C1634.73 23.8943 1629.44 50.2833 1633.85 70.9356C1638.25 91.5879 1637.37 95.0299 1639.13 105.356C1640.02 116.83 1635.61 115.682 1634.73 106.504C1633.85 98.4721 1629.44 84.7039 1627.68 69.7883C1625.03 56.0201 1625.91 29.631 1625.91 29.631Z" fill="#2B0004"/>
<path d="M1657.64 121.421C1657.64 130.6 1651.47 138.631 1644.42 138.631H1634.73C1626.79 138.631 1621.51 130.6 1621.51 121.421C1621.51 112.242 1627.68 104.211 1634.73 104.211H1644.42C1651.47 104.211 1657.64 112.242 1657.64 121.421Z" fill="url(#paint1_linear_9_7167)"/>
<path opacity="0.09" d="M1635.61 138.633H1644.42C1652.35 138.633 1657.64 130.602 1657.64 121.423C1657.64 120.276 1657.64 119.128 1657.64 117.981C1656.76 120.276 1655 123.718 1649.71 123.718C1641.78 123.718 1634.73 122.57 1635.61 114.539C1635.61 106.507 1638.25 105.36 1638.25 105.36H1634.73C1626.79 105.36 1621.51 113.392 1621.51 122.57C1621.51 127.16 1623.27 131.749 1625.03 134.044C1627.68 135.191 1631.2 137.486 1635.61 138.633Z" fill="#2B0004"/>
<path opacity="0.18" d="M1624.15 127.156C1624.15 127.156 1623.27 116.829 1628.56 112.24C1633.85 107.651 1630.32 117.977 1632.08 124.861C1634.73 131.745 1627.68 129.45 1624.15 127.156Z" fill="#2B0004"/>
<path d="M1633.85 104.211C1626.79 105.358 1621.51 112.242 1621.51 121.421C1621.51 126.01 1622.39 129.452 1624.15 131.747C1624.15 130.6 1624.15 130.6 1624.15 129.452C1620.63 112.242 1632.08 105.358 1633.85 104.211Z" fill="#E37800"/>
<path opacity="0.18" d="M1657.64 120.273C1655.88 123.715 1649.71 124.862 1632.08 123.715C1625.91 123.715 1623.27 122.568 1621.51 121.42C1621.51 130.599 1627.68 137.483 1634.73 137.483H1644.42C1651.47 138.631 1657.64 130.599 1657.64 120.273C1657.64 121.42 1657.64 121.42 1657.64 120.273Z" fill="#2B0004"/>
<path d="M1674.39 153.546C1674.39 168.462 1664.69 181.083 1653.23 181.083H1626.79C1615.34 181.083 1605.64 168.462 1605.64 153.546C1605.64 138.631 1615.34 126.01 1626.79 126.01H1653.23C1664.69 126.01 1674.39 138.631 1674.39 153.546Z" fill="url(#paint2_linear_9_7167)"/>
<path opacity="0.09" d="M1674.39 153.546C1674.39 146.662 1671.74 139.778 1668.22 134.041C1669.1 137.483 1669.1 140.925 1668.22 143.22C1665.57 146.662 1648.83 143.22 1638.25 142.073C1629.44 142.073 1635.61 128.304 1636.49 126.01H1625.91C1614.46 126.01 1604.76 138.631 1604.76 153.546C1604.76 168.462 1614.46 181.083 1625.91 181.083H1652.35C1664.69 181.083 1674.39 168.462 1674.39 153.546Z" fill="#2B0004"/>
<path opacity="0.18" d="M1609.17 151.252C1609.17 151.252 1610.05 140.926 1617.1 138.631C1624.15 136.336 1625.03 144.368 1628.56 146.662C1632.97 148.957 1611.81 151.252 1609.17 151.252Z" fill="#2B0004"/>
<path opacity="0.18" d="M1665.57 145.518C1664.69 145.518 1663.81 145.518 1662.05 144.37C1658.52 144.37 1654.12 144.37 1650.59 143.223C1638.25 142.076 1621.51 142.076 1616.22 144.37C1611.81 146.665 1608.29 145.518 1607.41 143.223C1606.52 146.665 1606.52 148.96 1606.52 152.402C1606.52 155.844 1607.41 160.433 1608.29 163.875C1612.69 167.317 1620.63 170.759 1632.96 174.201C1648.83 177.643 1659.4 177.643 1666.46 175.349C1671.74 170.759 1675.27 162.728 1675.27 153.549C1675.27 150.107 1674.39 146.665 1673.51 143.223C1671.74 145.518 1669.1 146.665 1665.57 145.518Z" fill="#2B0004"/>
<path d="M1622.39 126.01C1612.69 128.304 1604.76 139.778 1604.76 153.546C1604.76 158.136 1605.64 162.725 1607.41 166.167C1608.29 162.725 1608.29 159.283 1608.29 155.841C1606.52 137.483 1619.74 128.304 1622.39 126.01Z" fill="#E37800"/>
<path opacity="0.66" d="M1646.18 5.5376C1646.18 5.5376 1639.13 5.53763 1641.78 20.4532C1644.42 35.3688 1645.3 42.2529 1646.18 61.7579C1647.07 82.4102 1651.47 70.9366 1651.47 53.7263C1652.35 36.516 1653.24 8.97965 1646.18 5.5376Z" fill="#F4BF1A"/>
<path opacity="0.54" d="M1647.06 7.83255C1645.3 6.6852 1640.9 5.53799 1643.54 15.8641C1646.18 26.1903 1647.95 37.6637 1648.83 43.4005C1650.59 50.2846 1651.47 38.8111 1651.47 29.6323C1651.47 21.6009 1650.59 11.2746 1647.06 7.83255Z" fill="white"/>
<path opacity="0.66" d="M1647.07 105.359C1647.07 105.359 1640.01 104.212 1641.78 111.096C1642.66 117.98 1653.23 122.569 1655 117.98C1657.64 112.243 1649.71 105.359 1647.07 105.359Z" fill="#F4BF1A"/>
<path opacity="0.54" d="M1646.18 106.508C1646.18 106.508 1642.66 107.656 1646.18 109.95C1648.83 113.392 1652.35 114.54 1654.12 112.245C1655 111.098 1649.71 105.361 1646.18 106.508Z" fill="white"/>
<path opacity="0.54" d="M1654.12 113.388C1654.12 113.388 1652.35 114.535 1653.24 115.682C1654.12 116.83 1655 115.682 1655 115.682C1655 114.535 1655 113.388 1654.12 113.388Z" fill="white"/>
<path opacity="0.54" d="M1651.47 53.7309C1651.47 56.0256 1650.59 58.3204 1650.59 58.3204C1649.71 58.3204 1649.71 56.0256 1649.71 53.7309C1649.71 51.4362 1650.59 49.1416 1650.59 49.1416C1651.47 49.1416 1651.47 51.4362 1651.47 53.7309Z" fill="white"/>
<path opacity="0.66" d="M1655 127.16C1655 127.16 1646.18 124.865 1644.42 129.455C1643.54 134.044 1654.12 139.781 1662.05 137.486C1670.86 136.339 1663.81 129.455 1655 127.16Z" fill="#F4BF1A"/>
<path opacity="0.54" d="M1654.12 128.303C1654.12 128.303 1650.59 129.45 1654.12 131.745C1656.76 134.04 1660.29 135.187 1662.05 134.04C1663.81 131.745 1657.64 127.156 1654.12 128.303Z" fill="white"/>
<path opacity="0.54" d="M1662.93 134.043C1662.93 134.043 1662.05 135.19 1662.05 136.338C1662.93 137.485 1663.81 136.338 1663.81 136.338C1664.69 135.19 1663.81 135.19 1662.93 134.043Z" fill="white"/>
<path d="M58.9168 11.277C55.3915 2.09818 49.2223 2.09814 46.5783 2.09814C43.053 2.09814 37.765 2.09818 34.2397 11.277C28.9517 23.8978 32.4771 62.9079 33.3584 73.234C34.2398 83.5602 40.409 97.3283 38.6463 111.096C37.765 117.981 42.1717 116.833 46.5783 114.539C50.9849 116.833 55.3915 117.981 54.5102 111.096C52.7475 98.4756 58.9169 83.5602 59.7982 73.234C60.6795 61.7605 64.2048 23.8978 58.9168 11.277Z" fill="url(#paint3_linear_9_7167)"/>
<path opacity="0.11" d="M42.1717 18.1602C42.1717 7.83406 44.8156 3.24465 47.4596 0.949951H46.5783C43.053 0.949951 37.765 0.949986 34.2397 10.1288C28.9517 22.7497 32.4771 61.7595 33.3584 72.0857C34.2398 82.4118 40.409 96.1801 38.6463 109.948C37.765 116.832 42.1717 115.685 46.5783 113.39C46.5783 113.39 47.4596 113.39 47.4596 114.538C48.3409 113.39 49.2223 113.39 49.2223 113.39C49.2223 113.39 51.8662 98.4748 47.4596 78.9698C43.9343 59.4649 41.2904 41.1072 42.1717 18.1602Z" fill="#2B0004"/>
<path opacity="0.09" d="M32.4766 66.3513C32.4766 68.646 32.4766 70.9407 32.4766 72.0881C33.3579 82.4142 39.5272 96.1825 37.7646 109.951C36.8832 116.835 41.2898 115.687 45.6964 113.393C50.1031 115.687 54.5098 116.835 53.6284 109.951C51.8658 98.4772 57.1538 85.8563 58.0351 75.5302C56.2724 77.8249 53.6284 80.1196 50.1031 81.2669C41.2898 85.8563 35.1205 74.3828 32.4766 66.3513Z" fill="#2B0004"/>
<path opacity="0.18" d="M33.3583 29.631C33.3583 29.631 33.3583 17.0102 37.7649 20.4522C42.1716 23.8943 36.8836 50.2833 41.2902 70.9356C45.6968 91.5879 44.8155 95.0299 46.5782 105.356C47.4595 116.83 43.0529 115.682 42.1716 106.504C41.2902 98.4721 36.8836 84.7039 35.1209 69.7883C32.477 56.0201 33.3583 29.631 33.3583 29.631Z" fill="#2B0004"/>
<path d="M65.0863 121.421C65.0863 130.6 58.9171 138.631 50.9852 138.631H41.2906C33.3587 138.631 27.1895 130.6 27.1895 121.421C27.1895 112.242 33.3587 104.211 41.2906 104.211H50.9852C58.9171 104.211 65.0863 112.242 65.0863 121.421Z" fill="url(#paint4_linear_9_7167)"/>
<path opacity="0.09" d="M43.0533 138.633H51.8665C59.7985 138.633 65.9678 130.602 65.9678 121.423C65.9678 120.276 65.9678 119.128 65.9678 117.981C65.0865 120.276 63.3239 123.718 58.0359 123.718C50.104 123.718 43.0533 122.57 43.9347 114.539C43.9347 106.507 46.5787 105.36 46.5787 105.36H43.0533C35.1213 105.36 28.9521 113.392 28.9521 122.57C28.9521 127.16 30.7147 131.749 32.4774 134.044C35.1214 135.191 37.7653 137.486 43.0533 138.633Z" fill="#2B0004"/>
<path opacity="0.18" d="M31.5954 127.156C31.5954 127.156 30.714 116.829 36.002 112.24C41.2899 107.651 37.7646 117.977 39.5272 124.861C41.2899 131.745 34.2393 129.45 31.5954 127.156Z" fill="#2B0004"/>
<path d="M41.2906 104.211C34.24 105.358 28.9521 112.242 28.9521 121.421C28.9521 126.01 29.8335 129.452 31.5962 131.747C31.5962 130.6 31.5962 130.6 31.5962 129.452C28.0708 112.242 38.6467 105.358 41.2906 104.211Z" fill="#E37800"/>
<path opacity="0.18" d="M65.0864 120.273C63.3238 123.715 57.1545 124.862 39.528 123.715C33.3587 123.715 30.7148 122.568 28.9521 121.42C28.9521 130.599 35.1214 137.483 42.172 137.483H51.8665C58.9171 138.631 65.0864 130.599 65.0864 120.273C65.0864 121.42 65.0864 121.42 65.0864 120.273Z" fill="#2B0004"/>
<path d="M80.949 153.546C80.949 168.462 71.2544 181.083 59.7972 181.083H33.3575C21.9002 181.083 12.2056 168.462 12.2056 153.546C12.2056 138.631 21.9002 126.01 33.3575 126.01H59.7972C72.1358 126.01 80.949 138.631 80.949 153.546Z" fill="url(#paint5_linear_9_7167)"/>
<path opacity="0.09" d="M80.9494 153.546C80.9494 146.662 78.3054 139.778 74.7801 134.041C75.6614 137.483 75.6614 140.925 74.7801 143.22C72.1361 146.662 55.391 143.22 44.8151 142.073C36.0018 142.073 42.171 128.304 43.0523 126.01H32.4765C21.0192 126.01 11.3247 138.631 11.3247 153.546C11.3247 168.462 21.0192 181.083 32.4765 181.083H58.9162C72.1361 181.083 80.9494 168.462 80.9494 153.546Z" fill="#2B0004"/>
<path opacity="0.18" d="M16.6125 151.252C16.6125 151.252 17.494 140.926 24.5446 138.631C31.5952 136.336 32.4765 144.368 36.0018 146.662C39.5271 148.957 18.3752 151.252 16.6125 151.252Z" fill="#2B0004"/>
<path opacity="0.18" d="M72.1362 145.518C71.2548 145.518 70.3736 145.518 68.6109 144.37C65.0856 144.37 60.679 144.37 57.1537 143.223C44.8151 142.076 28.07 142.076 22.782 144.37C18.3754 146.665 14.8501 145.518 13.9688 143.223C13.0875 146.665 13.0874 148.96 13.0874 152.402C13.0874 155.844 13.9687 160.433 14.85 163.875C19.2567 167.317 27.1886 170.759 39.5272 174.201C55.391 177.643 65.9669 177.643 73.0176 175.349C78.3055 170.759 81.8308 162.728 81.8308 153.549C81.8308 150.107 80.9495 146.665 80.0682 143.223C79.1869 145.518 76.5428 146.665 72.1362 145.518Z" fill="#2B0004"/>
<path d="M29.8321 126.01C20.1375 128.304 12.2056 139.778 12.2056 153.546C12.2056 158.136 13.0869 162.725 14.8496 166.167C15.7309 162.725 15.7309 159.283 15.7309 155.841C13.9683 137.483 26.3068 128.304 29.8321 126.01Z" fill="#E37800"/>
<path opacity="0.66" d="M53.629 5.5376C53.629 5.5376 46.5784 5.53763 49.2224 20.4532C51.8664 35.3688 52.7477 42.2529 53.629 61.7579C54.5103 82.4102 58.9169 70.9366 58.9169 53.7263C58.9169 36.516 59.7983 8.97965 53.629 5.5376Z" fill="#F4BF1A"/>
<path opacity="0.54" d="M54.5102 7.83255C52.7475 6.6852 48.341 5.53799 50.9849 15.8641C53.6289 26.1903 55.3915 37.6637 56.2728 43.4005C58.0355 50.2846 58.9168 38.8111 58.9168 29.6323C58.9168 21.6009 58.0355 11.2746 54.5102 7.83255Z" fill="white"/>
<path opacity="0.66" d="M53.6273 105.359C53.6273 105.359 46.5766 104.212 48.3393 111.096C49.2206 117.98 59.7965 122.569 61.5592 117.98C65.0845 112.243 56.2713 105.359 53.6273 105.359Z" fill="#F4BF1A"/>
<path opacity="0.54" d="M52.748 106.508C52.748 106.508 49.2227 107.656 52.748 109.95C55.3919 113.392 58.9172 114.54 60.6798 112.245C61.5612 111.098 56.2733 105.361 52.748 106.508Z" fill="white"/>
<path opacity="0.54" d="M61.5603 113.388C61.5603 113.388 59.7976 114.535 60.6789 115.682C61.5602 116.83 62.4417 115.682 62.4417 115.682C62.4417 114.535 62.4416 113.388 61.5603 113.388Z" fill="white"/>
<path opacity="0.54" d="M58.9162 53.7309C58.9162 56.0256 58.0349 58.3204 58.0349 58.3204C57.1536 58.3204 57.1536 56.0256 57.1536 53.7309C57.1536 51.4362 58.0349 49.1416 58.0349 49.1416C58.0349 49.1416 58.9162 51.4362 58.9162 53.7309Z" fill="white"/>
<path opacity="0.66" d="M61.5599 127.16C61.5599 127.16 52.7467 124.865 50.9841 129.455C50.1027 134.044 60.6786 139.781 68.6106 137.486C77.4238 136.339 70.3732 129.455 61.5599 127.16Z" fill="#F4BF1A"/>
<path opacity="0.54" d="M61.5602 128.303C61.5602 128.303 58.0349 129.45 61.5602 131.745C64.2042 134.04 67.7294 135.187 69.4921 134.04C70.3734 131.745 65.0855 127.156 61.5602 128.303Z" fill="white"/>
<path opacity="0.54" d="M70.3735 134.043C70.3735 134.043 68.6108 135.19 69.4921 136.338C70.3735 137.485 71.2549 136.338 71.2549 136.338C71.2549 135.19 71.2548 135.19 70.3735 134.043Z" fill="white"/>
<path d="M1652.35 1486.77C1648.83 1495.95 1642.66 1495.95 1640.02 1495.95C1636.49 1495.95 1631.2 1495.95 1627.68 1486.77C1622.39 1474.15 1625.92 1435.14 1626.8 1424.81C1627.68 1414.49 1633.85 1400.72 1632.08 1386.95C1631.2 1380.07 1635.61 1381.21 1640.02 1383.51C1644.42 1381.21 1648.83 1380.07 1647.95 1386.95C1646.19 1399.57 1652.36 1414.49 1653.24 1424.81C1654.12 1435.14 1656.76 1474.15 1652.35 1486.77Z" fill="url(#paint6_linear_9_7167)"/>
<path opacity="0.11" d="M1635.61 1478.74C1636.49 1489.07 1638.25 1493.66 1640.9 1495.95H1640.02C1636.49 1495.95 1631.2 1495.95 1627.68 1486.77C1622.39 1474.15 1625.92 1435.14 1626.8 1424.81C1627.68 1414.49 1633.85 1400.72 1632.08 1386.95C1631.2 1380.07 1635.61 1381.21 1640.02 1383.51H1640.9C1641.78 1384.66 1642.66 1384.66 1642.66 1384.66C1642.66 1384.66 1645.3 1399.57 1640.9 1419.08C1636.49 1437.43 1634.73 1455.79 1635.61 1478.74Z" fill="#2B0004"/>
<path opacity="0.09" d="M1625.92 1430.55C1625.92 1428.26 1625.92 1425.96 1625.92 1424.81C1626.8 1414.49 1632.97 1400.72 1631.2 1386.95C1630.32 1380.07 1634.73 1381.21 1639.13 1383.51C1643.54 1381.21 1647.95 1380.07 1647.07 1386.95C1646.19 1398.42 1650.59 1411.05 1651.47 1421.37C1649.71 1419.08 1647.07 1416.78 1643.54 1415.64C1633.85 1411.05 1628.56 1422.52 1625.92 1430.55Z" fill="#2B0004"/>
<path opacity="0.18" d="M1625.91 1467.27C1625.91 1467.27 1625.91 1479.89 1630.32 1476.44C1634.73 1473 1629.44 1446.61 1633.85 1425.96C1638.25 1405.31 1637.37 1401.87 1639.13 1391.54C1640.02 1380.07 1635.61 1381.21 1634.73 1390.39C1633.85 1398.42 1629.44 1412.19 1627.68 1427.11C1625.03 1440.88 1625.91 1467.27 1625.91 1467.27Z" fill="#2B0004"/>
<path d="M1657.64 1375.48C1657.64 1366.3 1651.47 1358.27 1644.42 1358.27H1634.73C1626.8 1358.27 1621.51 1366.3 1621.51 1375.48C1621.51 1384.66 1627.68 1392.69 1634.73 1392.69H1644.42C1651.47 1392.69 1657.64 1384.66 1657.64 1375.48Z" fill="url(#paint7_linear_9_7167)"/>
<path opacity="0.09" d="M1635.61 1358.27H1644.42C1652.35 1358.27 1657.64 1366.3 1657.64 1375.48C1657.64 1376.63 1657.64 1377.77 1657.64 1378.92C1656.76 1376.63 1655 1373.18 1649.71 1373.18C1641.78 1373.18 1634.73 1374.33 1635.61 1382.36C1635.61 1390.39 1638.25 1391.54 1638.25 1391.54H1634.73C1626.8 1391.54 1621.51 1383.51 1621.51 1374.33C1621.51 1369.74 1623.27 1365.15 1625.03 1362.86C1627.68 1361.71 1631.2 1359.42 1635.61 1358.27Z" fill="#2B0004"/>
<path opacity="0.18" d="M1624.15 1369.74C1624.15 1369.74 1623.27 1380.07 1628.56 1384.66C1633.85 1389.25 1630.32 1378.92 1632.09 1372.04C1634.73 1365.15 1627.68 1367.45 1624.15 1369.74Z" fill="#2B0004"/>
<path d="M1633.85 1392.69C1626.8 1391.54 1621.51 1384.65 1621.51 1375.48C1621.51 1370.89 1622.39 1367.44 1624.15 1365.15C1624.15 1366.3 1624.15 1366.3 1624.15 1367.44C1620.63 1384.65 1632.08 1391.54 1633.85 1392.69Z" fill="#E37800"/>
<path opacity="0.18" d="M1657.64 1376.63C1655.88 1373.18 1649.71 1372.04 1632.08 1373.18C1625.91 1373.18 1623.27 1374.33 1621.51 1375.48C1621.51 1366.3 1627.68 1359.42 1634.73 1359.42H1644.42C1651.47 1358.27 1657.64 1366.3 1657.64 1376.63C1657.64 1375.48 1657.64 1375.48 1657.64 1376.63Z" fill="#2B0004"/>
<path d="M1674.39 1343.35C1674.39 1328.44 1664.69 1315.81 1653.24 1315.81H1626.8C1615.34 1315.81 1605.64 1328.44 1605.64 1343.35C1605.64 1358.27 1615.34 1370.89 1626.8 1370.89H1653.24C1664.69 1370.89 1674.39 1358.27 1674.39 1343.35Z" fill="url(#paint8_linear_9_7167)"/>
<path opacity="0.09" d="M1674.39 1343.35C1674.39 1350.24 1671.74 1357.12 1668.22 1362.86C1669.1 1359.42 1669.1 1355.97 1668.22 1354.83C1665.57 1351.38 1648.83 1354.83 1638.25 1355.97C1629.44 1355.97 1635.61 1369.74 1636.49 1372.04H1625.91C1614.46 1372.04 1604.76 1359.42 1604.76 1344.5C1604.76 1329.59 1614.46 1316.96 1625.91 1316.96H1652.35C1664.69 1315.82 1674.39 1328.44 1674.39 1343.35Z" fill="#2B0004"/>
<path opacity="0.18" d="M1609.17 1345.65C1609.17 1345.65 1610.05 1355.97 1617.1 1358.27C1624.15 1360.56 1625.03 1352.53 1628.56 1350.24C1632.97 1347.94 1611.81 1345.65 1609.17 1345.65Z" fill="#2B0004"/>
<path opacity="0.18" d="M1665.57 1351.39C1664.69 1351.39 1663.81 1351.39 1662.05 1352.53C1658.52 1352.53 1654.12 1352.53 1650.59 1353.68C1638.25 1354.83 1621.51 1354.83 1616.22 1352.53C1611.81 1350.24 1608.29 1351.39 1607.41 1353.68C1606.53 1350.24 1606.53 1347.94 1606.53 1344.5C1606.53 1341.06 1607.41 1336.47 1608.29 1333.03C1612.7 1329.59 1620.63 1326.14 1632.97 1322.7C1648.83 1319.26 1659.41 1319.26 1666.46 1321.55C1671.74 1326.14 1675.27 1334.18 1675.27 1343.35C1675.27 1346.8 1674.39 1350.24 1673.51 1353.68C1671.74 1351.39 1669.1 1350.24 1665.57 1351.39Z" fill="#2B0004"/>
<path d="M1622.39 1370.89C1612.7 1368.59 1604.76 1357.12 1604.76 1343.35C1604.76 1338.76 1605.64 1334.17 1607.41 1330.73C1608.29 1334.17 1608.29 1337.61 1608.29 1341.05C1606.53 1359.41 1619.75 1368.59 1622.39 1370.89Z" fill="#E37800"/>
<path opacity="0.66" d="M1646.19 1491.36C1646.19 1491.36 1639.14 1491.36 1641.78 1476.44C1644.42 1461.53 1645.3 1454.64 1646.19 1435.14C1647.07 1414.49 1651.47 1425.96 1651.47 1443.17C1652.36 1460.38 1653.24 1487.92 1646.19 1491.36Z" fill="#F4BF1A"/>
<path opacity="0.54" d="M1647.07 1489.06C1645.3 1490.21 1640.9 1491.36 1643.54 1481.03C1646.18 1470.71 1647.95 1459.23 1648.83 1453.5C1650.59 1446.61 1651.47 1458.09 1651.47 1467.26C1651.47 1475.3 1650.59 1485.62 1647.07 1489.06Z" fill="white"/>
<path opacity="0.66" d="M1647.07 1391.54C1647.07 1391.54 1640.02 1392.69 1641.78 1385.8C1642.66 1378.92 1653.24 1374.33 1655 1378.92C1657.64 1384.65 1649.71 1391.54 1647.07 1391.54Z" fill="#F4BF1A"/>
<path opacity="0.54" d="M1646.19 1390.39C1646.19 1390.39 1642.66 1389.25 1646.19 1386.95C1648.83 1383.51 1652.35 1382.36 1654.12 1384.66C1655 1385.8 1649.71 1391.54 1646.19 1390.39Z" fill="white"/>
<path opacity="0.54" d="M1654.12 1383.51C1654.12 1383.51 1652.36 1382.36 1653.24 1381.22C1654.12 1380.07 1655 1381.22 1655 1381.22C1655 1382.36 1655 1383.51 1654.12 1383.51Z" fill="white"/>
<path opacity="0.54" d="M1651.47 1443.17C1651.47 1440.88 1650.59 1438.58 1650.59 1438.58C1649.71 1438.58 1649.71 1440.88 1649.71 1443.17C1649.71 1445.47 1650.59 1447.76 1650.59 1447.76C1651.47 1447.76 1651.47 1445.47 1651.47 1443.17Z" fill="white"/>
<path opacity="0.66" d="M1655 1369.74C1655 1369.74 1646.19 1372.03 1644.42 1367.45C1643.54 1362.86 1654.12 1357.12 1662.05 1359.41C1670.86 1360.56 1663.81 1368.59 1655 1369.74Z" fill="#F4BF1A"/>
<path opacity="0.54" d="M1654.12 1368.6C1654.12 1368.6 1650.59 1367.45 1654.12 1365.15C1656.76 1362.86 1660.29 1361.71 1662.05 1362.86C1663.81 1365.15 1657.64 1369.74 1654.12 1368.6Z" fill="white"/>
<path opacity="0.54" d="M1662.93 1362.86C1662.93 1362.86 1662.05 1361.71 1662.05 1360.56C1662.93 1359.41 1663.81 1360.56 1663.81 1360.56C1664.69 1361.71 1663.81 1362.86 1662.93 1362.86Z" fill="white"/>
<path d="M58.9168 1486.77C55.3915 1495.95 49.2223 1495.95 46.5783 1495.95C43.053 1495.95 37.765 1495.95 34.2397 1486.77C28.9517 1474.15 32.4771 1435.14 33.3584 1424.81C34.2398 1414.49 40.409 1400.72 38.6463 1386.95C37.765 1380.07 42.1717 1381.21 46.5783 1383.51C50.9849 1381.21 55.3915 1380.07 54.5102 1386.95C52.7475 1399.57 58.9169 1414.49 59.7982 1424.81C60.6795 1435.14 64.2048 1474.15 58.9168 1486.77Z" fill="url(#paint9_linear_9_7167)"/>
<path opacity="0.11" d="M42.1717 1478.74C42.1717 1489.07 44.8156 1493.66 47.4596 1495.95H46.5783C43.053 1495.95 37.765 1495.95 34.2397 1486.77C28.9517 1474.15 32.4771 1435.14 33.3584 1424.81C34.2398 1414.49 40.409 1400.72 38.6463 1386.95C37.765 1380.07 42.1717 1381.21 46.5783 1383.51H47.4596C48.3409 1384.66 49.2223 1384.66 49.2223 1384.66C49.2223 1384.66 51.8662 1399.57 47.4596 1419.08C43.9343 1437.43 41.2904 1455.79 42.1717 1478.74Z" fill="#2B0004"/>
<path opacity="0.09" d="M32.4766 1430.55C32.4766 1428.26 32.4766 1425.96 32.4766 1424.81C33.3579 1414.49 39.5272 1400.72 37.7646 1386.95C36.8832 1380.07 41.2898 1381.21 45.6964 1383.51C50.1031 1381.21 54.5098 1380.07 53.6284 1386.95C51.8658 1398.42 57.1538 1411.05 58.0351 1421.37C56.2724 1419.08 53.6284 1416.78 50.1031 1415.64C41.2898 1411.05 35.1205 1422.52 32.4766 1430.55Z" fill="#2B0004"/>
<path opacity="0.18" d="M33.3583 1467.27C33.3583 1467.27 33.3583 1479.89 37.7649 1476.44C42.1716 1473 36.8836 1446.61 41.2902 1425.96C45.6968 1405.31 44.8155 1401.87 46.5782 1391.54C47.4595 1380.07 43.0529 1381.21 42.1716 1390.39C41.2902 1398.42 36.8836 1412.19 35.1209 1427.11C32.477 1440.88 33.3583 1467.27 33.3583 1467.27Z" fill="#2B0004"/>
<path d="M65.0863 1375.48C65.0863 1366.3 58.9171 1358.27 50.9852 1358.27H41.2906C33.3587 1358.27 27.1895 1366.3 27.1895 1375.48C27.1895 1384.66 33.3587 1392.69 41.2906 1392.69H50.9852C58.9171 1392.69 65.0863 1384.66 65.0863 1375.48Z" fill="url(#paint10_linear_9_7167)"/>
<path opacity="0.09" d="M43.0533 1358.27H51.8665C59.7985 1358.27 65.9678 1366.3 65.9678 1375.48C65.9678 1376.63 65.9678 1377.77 65.9678 1378.92C65.0865 1376.63 63.3239 1373.18 58.0359 1373.18C50.104 1373.18 43.0533 1374.33 43.9347 1382.36C43.9347 1390.39 46.5787 1391.54 46.5787 1391.54H43.0533C35.1213 1391.54 28.9521 1383.51 28.9521 1374.33C28.9521 1369.74 30.7147 1365.15 32.4774 1362.86C35.1214 1361.71 37.7653 1359.42 43.0533 1358.27Z" fill="#2B0004"/>
<path opacity="0.18" d="M31.5954 1369.74C31.5954 1369.74 30.714 1380.07 36.002 1384.66C41.2899 1389.25 37.7646 1378.92 39.5272 1372.04C41.2899 1365.15 34.2393 1367.45 31.5954 1369.74Z" fill="#2B0004"/>
<path d="M41.2906 1392.69C34.24 1391.54 28.9521 1384.65 28.9521 1375.48C28.9521 1370.89 29.8335 1367.44 31.5962 1365.15C31.5962 1366.3 31.5962 1366.3 31.5962 1367.44C28.0708 1384.65 38.6467 1391.54 41.2906 1392.69Z" fill="#E37800"/>
<path opacity="0.18" d="M65.0864 1376.63C63.3238 1373.18 57.1545 1372.04 39.528 1373.18C33.3587 1373.18 30.7148 1374.33 28.9521 1375.48C28.9521 1366.3 35.1214 1359.42 42.172 1359.42H51.8665C58.9171 1358.27 65.0864 1366.3 65.0864 1376.63C65.0864 1375.48 65.0864 1375.48 65.0864 1376.63Z" fill="#2B0004"/>
<path d="M80.949 1343.35C80.949 1328.44 71.2544 1315.81 59.7972 1315.81H33.3575C21.9002 1315.81 12.2056 1328.44 12.2056 1343.35C12.2056 1358.27 21.9002 1370.89 33.3575 1370.89H59.7972C72.1358 1370.89 80.949 1358.27 80.949 1343.35Z" fill="url(#paint11_linear_9_7167)"/>
<path opacity="0.09" d="M80.9494 1343.35C80.9494 1350.24 78.3054 1357.12 74.7801 1362.86C75.6614 1359.42 75.6614 1355.97 74.7801 1354.83C72.1361 1351.38 55.391 1354.83 44.8151 1355.97C36.0018 1355.97 42.171 1369.74 43.0523 1372.04H32.4765C21.0192 1372.04 11.3247 1359.42 11.3247 1344.5C11.3247 1329.59 21.0192 1316.96 32.4765 1316.96H58.9162C72.1361 1315.82 80.9494 1328.44 80.9494 1343.35Z" fill="#2B0004"/>
<path opacity="0.18" d="M16.6125 1345.65C16.6125 1345.65 17.494 1355.97 24.5446 1358.27C31.5952 1360.56 32.4765 1352.53 36.0018 1350.24C39.5271 1347.94 18.3752 1345.65 16.6125 1345.65Z" fill="#2B0004"/>
<path opacity="0.18" d="M72.1362 1351.39C71.2548 1351.39 70.3736 1351.39 68.6109 1352.53C65.0856 1352.53 60.679 1352.53 57.1537 1353.68C44.8151 1354.83 28.07 1354.83 22.782 1352.53C18.3754 1350.24 14.8501 1351.39 13.9688 1353.68C13.0875 1350.24 13.0874 1347.94 13.0874 1344.5C13.0874 1341.06 13.9687 1336.47 14.85 1333.03C19.2567 1329.59 27.1886 1326.14 39.5272 1322.7C55.391 1319.26 65.9669 1319.26 73.0176 1321.55C78.3055 1326.14 81.8308 1334.18 81.8308 1343.35C81.8308 1346.8 80.9495 1350.24 80.0682 1353.68C79.1869 1351.39 76.5428 1350.24 72.1362 1351.39Z" fill="#2B0004"/>
<path d="M29.8321 1370.89C20.1375 1368.59 12.2056 1357.12 12.2056 1343.35C12.2056 1338.76 13.0869 1334.17 14.8496 1330.73C15.7309 1334.17 15.7309 1337.61 15.7309 1341.05C13.9683 1359.41 26.3068 1368.59 29.8321 1370.89Z" fill="#E37800"/>
<path opacity="0.66" d="M53.629 1491.36C53.629 1491.36 46.5784 1491.36 49.2224 1476.44C51.8664 1461.53 52.7477 1454.64 53.629 1435.14C54.5103 1414.49 58.9169 1425.96 58.9169 1443.17C58.9169 1460.38 59.7983 1487.92 53.629 1491.36Z" fill="#F4BF1A"/>
<path opacity="0.54" d="M54.5102 1489.06C52.7475 1490.21 48.341 1491.36 50.9849 1481.03C53.6289 1470.71 55.3915 1459.23 56.2728 1453.5C58.0355 1446.61 58.9168 1458.09 58.9168 1467.26C58.9168 1475.3 58.0355 1485.62 54.5102 1489.06Z" fill="white"/>
<path opacity="0.66" d="M53.6273 1391.54C53.6273 1391.54 46.5766 1392.69 48.3393 1385.8C49.2206 1378.92 59.7965 1374.33 61.5592 1378.92C65.0845 1384.65 56.2713 1391.54 53.6273 1391.54Z" fill="#F4BF1A"/>
<path opacity="0.54" d="M52.748 1390.39C52.748 1390.39 49.2227 1389.25 52.748 1386.95C55.3919 1383.51 58.9172 1382.36 60.6798 1384.66C61.5612 1385.8 56.2733 1391.54 52.748 1390.39Z" fill="white"/>
<path opacity="0.54" d="M61.5603 1383.51C61.5603 1383.51 59.7976 1382.36 60.6789 1381.22C61.5602 1380.07 62.4417 1381.22 62.4417 1381.22C62.4417 1382.36 62.4416 1383.51 61.5603 1383.51Z" fill="white"/>
<path opacity="0.54" d="M58.9162 1443.17C58.9162 1440.88 58.0349 1438.58 58.0349 1438.58C57.1536 1438.58 57.1536 1440.88 57.1536 1443.17C57.1536 1445.47 58.0349 1447.76 58.0349 1447.76C58.0349 1447.76 58.9162 1445.47 58.9162 1443.17Z" fill="white"/>
<path opacity="0.66" d="M61.5599 1369.74C61.5599 1369.74 52.7467 1372.03 50.9841 1367.45C50.1027 1362.86 60.6786 1357.12 68.6106 1359.41C77.4238 1360.56 70.3732 1368.59 61.5599 1369.74Z" fill="#F4BF1A"/>
<path opacity="0.54" d="M61.5602 1368.6C61.5602 1368.6 58.0349 1367.45 61.5602 1365.15C64.2042 1362.86 67.7294 1361.71 69.4921 1362.86C70.3734 1365.15 65.0855 1369.74 61.5602 1368.6Z" fill="white"/>
<path opacity="0.54" d="M70.3735 1362.86C70.3735 1362.86 68.6108 1361.71 69.4921 1360.56C70.3735 1359.41 71.2549 1360.56 71.2549 1360.56C71.2549 1361.71 71.2548 1362.86 70.3735 1362.86Z" fill="white"/>
<path d="M91.5268 178.789C91.5268 178.789 194.642 193.705 265.148 185.673C265.148 185.673 282.774 241.893 298.638 254.514L319.79 195.999L339.179 183.378C339.179 183.378 489.005 200.589 701.404 209.767C913.803 220.094 1326.26 214.357 1332.43 212.062C1338.6 209.767 1338.6 214.357 1351.82 218.946C1365.04 223.536 1375.62 262.546 1375.62 262.546L1383.55 218.946C1383.55 218.946 1436.43 214.357 1443.48 214.357C1450.53 214.357 1453.17 240.746 1453.17 240.746C1453.17 240.746 1476.97 223.536 1482.26 206.325C1482.26 206.325 1562.46 208.62 1593.31 195.999C1624.15 183.378 1596.83 1299.75 1596.83 1299.75C1596.83 1299.75 1232.84 1277.95 1086.54 1289.42C1086.54 1289.42 1070.68 1263.04 1067.15 1240.09C1067.15 1240.09 1059.22 1274.51 1051.29 1287.13C1051.29 1287.13 932.311 1284.84 840.653 1287.13C748.996 1289.42 661.744 1299.75 661.744 1299.75L650.287 1282.54H632.661L621.203 1256.15L585.95 1303.19C585.95 1303.19 521.614 1298.6 400.872 1303.19C280.131 1307.78 72.1377 1318.11 72.1377 1318.11L91.5268 178.789Z" fill="url(#paint12_linear_9_7167)"/>
<path opacity="0.08" d="M1592.42 198.297C1561.58 210.918 1481.38 208.623 1481.38 208.623C1479.61 213.212 1476.97 218.949 1472.56 222.391C1506.94 284.348 1548.36 412.852 1553.65 673.3C1559.81 996.853 1525.44 1189.61 1478.73 1295.16C1547.48 1298.61 1595.95 1300.9 1595.95 1300.9C1595.95 1300.9 1623.27 185.676 1592.42 198.297Z" fill="#2D1400"/>
<path opacity="0.14" d="M1592.42 198.297C1582.73 201.739 1567.75 204.033 1552.76 206.328C1557.17 226.981 1562.46 256.812 1564.22 294.674C1569.51 384.168 1566.86 1033.57 1564.22 1160.92C1563.34 1218.29 1558.05 1265.33 1552.76 1300.9C1580.08 1302.05 1595.95 1303.2 1595.95 1303.2C1595.95 1303.2 1623.27 185.676 1592.42 198.297Z" fill="#2D1400"/>
<path opacity="0.08" d="M166.439 387.607C183.184 291.229 222.844 232.715 267.791 195.999C266.029 190.263 264.266 185.673 264.266 185.673C193.76 192.557 90.645 178.789 90.645 178.789L71.2559 1319.26C71.2559 1319.26 167.32 1314.67 266.91 1310.08C129.423 1119.62 125.898 623.961 166.439 387.607Z" fill="#2D1400"/>
<path opacity="0.14" d="M122.373 314.176C122.373 243.041 134.712 205.178 146.169 184.526C114.441 182.231 91.5268 178.789 91.5268 178.789L72.1377 1319.26C72.1377 1319.26 111.797 1316.96 166.439 1314.67C165.558 1314.67 164.677 1313.52 164.677 1313.52C112.679 1274.51 122.373 455.301 122.373 314.176Z" fill="#2D1400"/>
<path opacity="0.1" d="M1595.95 1299.75C1575.68 1288.28 1553.65 1277.95 1536.02 1274.51C1482.26 1263.04 1517.51 1263.04 1493.72 1253.86C1470.8 1244.68 1475.21 1248.12 1468.16 1236.65C1461.11 1225.17 1445.24 1240.09 1425.85 1245.83C1407.35 1251.56 1425.85 1245.83 1409.99 1251.56C1394.13 1257.3 1400.3 1240.09 1387.08 1230.91C1372.97 1221.73 1370.33 1234.35 1357.11 1245.83C1343.01 1257.3 1357.11 1245.83 1335.96 1240.09C1314.81 1234.35 1320.09 1257.3 1298.94 1251.56C1277.79 1245.83 1284.84 1257.3 1276.03 1257.3C1266.33 1257.3 1260.16 1236.65 1247.83 1221.73C1236.37 1206.82 1224.91 1259.6 1203.76 1265.33C1182.61 1271.07 1168.51 1268.77 1157.05 1265.33C1145.59 1261.89 1135.9 1268.77 1117.39 1268.77C1098.88 1268.77 1089.19 1251.56 1077.73 1227.47C1066.27 1204.52 1061.87 1180.43 1052.17 1201.08C1042.48 1221.73 1038.07 1230.91 1033.66 1238.94C1029.26 1248.12 1016.92 1244.68 1005.46 1235.5C994.004 1226.32 984.31 1238.94 984.31 1238.94C984.31 1238.94 974.615 1261.89 951.7 1261.89C928.786 1261.89 951.7 1261.89 934.955 1252.71C919.091 1243.53 906.753 1258.45 892.652 1261.89C878.55 1265.33 892.652 1261.89 878.551 1250.42C864.449 1238.94 874.144 1235.5 861.805 1229.76C850.348 1224.03 838.891 1267.63 831.84 1267.63C824.79 1267.63 799.231 1261.89 785.13 1258.45C771.029 1255.01 768.385 1267.63 759.572 1279.1C749.877 1290.57 738.42 1269.92 722.556 1267.63C706.692 1264.18 680.252 1273.36 680.252 1273.36L668.795 1269.92C668.795 1269.92 666.151 1258.45 661.744 1249.27C657.338 1240.09 644.999 1243.53 636.186 1237.8C626.491 1232.06 633.542 1217.14 631.779 1194.2C629.135 1171.25 617.678 1205.67 601.814 1224.03C585.069 1241.24 592.12 1250.42 590.357 1273.36C587.713 1296.31 567.442 1269.92 553.341 1269.92C539.24 1269.92 532.19 1284.84 525.139 1284.84C518.088 1284.84 506.631 1284.84 495.174 1281.39C483.717 1277.95 499.58 1260.74 497.818 1251.56C495.174 1242.38 479.31 1251.56 469.615 1251.56C459.921 1251.56 459.921 1263.04 451.108 1274.51C441.413 1285.98 422.905 1283.69 411.448 1280.25C399.991 1276.81 407.041 1263.04 395.584 1253.86C384.127 1244.68 374.432 1257.3 355.924 1248.12C337.417 1238.94 355.924 1248.12 339.179 1242.38C322.434 1236.65 322.434 1251.56 332.129 1263.04C341.823 1274.51 306.57 1280.25 299.52 1285.98C292.469 1291.72 271.317 1285.98 257.216 1285.98C243.115 1285.98 257.216 1285.98 250.165 1276.81C243.115 1267.63 247.521 1256.15 240.471 1253.86C233.42 1250.42 219.319 1274.51 219.319 1274.51L200.811 1285.98C200.811 1285.98 175.253 1295.16 161.152 1285.98C147.05 1276.81 144.406 1282.54 117.085 1285.98C88.8829 1289.43 74.7816 1236.65 74.7816 1236.65H72.1376L70.375 1315.82C70.375 1315.82 278.368 1305.49 399.109 1300.9C519.851 1296.31 584.188 1300.9 584.188 1300.9L619.441 1253.86L630.898 1280.25H648.525L659.982 1297.46C659.982 1297.46 747.233 1287.13 838.891 1284.84C930.549 1282.54 1049.53 1284.84 1049.53 1284.84C1057.46 1272.22 1065.39 1237.8 1065.39 1237.8C1068.92 1259.6 1084.78 1287.13 1084.78 1287.13C1231.08 1274.51 1595.07 1297.46 1595.07 1297.46C1595.07 1297.46 1595.95 1300.9 1595.95 1299.75Z" fill="#2D1400"/>
<path d="M1595.95 1302.05L1341.25 1296.31C1320.09 1296.31 1298.94 1295.16 1277.79 1295.16L1214.33 1294.01C1172.03 1294.01 1129.73 1292.87 1087.42 1295.16H1085.66L1084.78 1294.01C1083.02 1290.57 1080.37 1285.98 1078.61 1282.54C1076.85 1277.95 1075.09 1274.51 1073.32 1269.92C1069.8 1261.89 1067.15 1252.71 1065.39 1243.53H1069.8C1068.03 1251.56 1065.39 1259.59 1062.75 1267.62C1061.87 1271.07 1060.1 1275.66 1058.34 1279.1C1056.58 1282.54 1054.82 1287.13 1053.05 1290.57L1052.17 1291.72H1051.29C1035.43 1291.72 1018.68 1290.57 1002.82 1290.57H954.344C921.735 1290.57 889.126 1291.72 857.398 1292.87C824.789 1294.01 792.18 1296.31 760.452 1298.6C727.843 1300.9 696.116 1304.34 663.506 1307.78H660.863L659.1 1305.49L647.643 1288.28L652.049 1290.57H634.423H630.898L629.135 1287.13L617.678 1260.74L626.491 1261.89L591.238 1308.93L589.475 1311.22H586.831C544.528 1308.93 501.343 1308.93 459.039 1310.08C437.887 1310.08 415.854 1311.22 394.702 1311.22L330.366 1313.52L266.029 1315.81L201.692 1316.96C158.507 1318.11 116.204 1319.26 73.0186 1319.26V1318.11C116.204 1314.67 158.507 1311.22 201.692 1308.93L266.029 1304.34L330.366 1300.9L394.702 1297.46C415.854 1296.31 437.887 1295.16 459.039 1295.16C480.191 1294.01 502.224 1294.01 523.376 1295.16C544.528 1295.16 566.561 1296.31 587.713 1297.46L581.543 1299.75L616.796 1253.86L622.084 1246.97L625.61 1255L637.067 1282.54L632.66 1279.1H650.287H652.931L654.693 1281.39L666.151 1298.6L661.744 1296.31C694.353 1292.87 726.962 1290.57 759.571 1289.42C792.18 1288.28 824.789 1287.13 857.398 1287.13C890.007 1287.13 922.616 1287.13 955.225 1287.13L1053.05 1288.28L1051.29 1289.42C1053.05 1285.98 1054.81 1282.54 1055.7 1279.1C1057.46 1275.66 1058.34 1271.07 1059.22 1267.62C1061.87 1259.59 1063.63 1251.56 1065.39 1243.53L1068.04 1233.2L1069.8 1243.53C1071.56 1251.56 1074.2 1260.74 1077.73 1267.62C1079.49 1271.07 1081.25 1275.66 1083.02 1279.1C1084.78 1282.54 1087.42 1287.13 1089.19 1290.57L1086.54 1289.42C1107.69 1287.13 1128.85 1285.98 1150 1284.83C1171.15 1283.69 1192.3 1283.69 1213.45 1283.69C1234.61 1283.69 1255.76 1283.69 1276.91 1283.69C1298.06 1283.69 1319.21 1284.83 1340.36 1285.98C1361.52 1287.13 1382.67 1288.28 1403.82 1288.28C1424.97 1289.42 1446.12 1290.57 1467.28 1291.72C1509.58 1294.01 1551.88 1297.46 1595.07 1302.05H1595.95Z" fill="#A86C27"/>
<path opacity="0.1" d="M1603 263.696C1600.36 221.244 1596.83 197.15 1592.42 198.297C1561.58 210.918 1481.38 208.623 1481.38 208.623C1475.21 225.833 1452.29 243.044 1452.29 243.044C1452.29 243.044 1450.53 216.655 1442.6 216.655C1434.67 216.655 1382.67 221.244 1382.67 221.244L1374.74 264.843C1374.74 264.843 1365.04 225.833 1350.94 221.244C1337.72 216.655 1337.72 210.918 1331.55 214.36C1325.38 216.654 912.922 221.244 700.522 212.065C488.123 201.739 338.297 185.676 338.297 185.676L318.908 198.297L297.756 256.812C281.893 244.191 264.266 187.971 264.266 187.971C193.76 194.855 90.645 181.087 90.645 181.087V198.297C95.0516 201.739 102.102 202.886 112.678 199.444C142.643 190.266 166.439 190.266 175.252 196.002C184.947 201.739 189.353 222.391 210.505 222.391C231.657 222.391 238.708 207.476 254.571 228.128C271.317 248.78 271.317 239.601 280.13 260.254C289.825 280.906 296.875 295.822 296.875 295.822C296.875 295.822 303.926 240.749 313.62 231.57C323.315 222.391 325.078 222.391 346.229 216.655C367.381 210.918 362.975 199.444 381.482 207.476C399.99 216.655 411.447 233.865 411.447 233.865C411.447 233.865 421.142 269.433 441.413 251.075C462.564 233.865 466.971 215.507 481.072 224.686C495.173 233.865 503.987 245.338 513.681 245.338C523.376 245.338 557.747 245.338 557.747 245.338C557.747 245.338 571.849 224.686 578.899 236.16C585.95 247.633 614.152 230.423 637.067 226.981C659.981 223.539 679.37 238.454 692.59 238.454C706.692 238.454 739.301 235.012 746.351 235.012C749.877 235.012 783.367 272.875 790.417 257.959C800.993 235.012 840.653 241.896 860.042 246.486C879.431 251.075 890.889 235.012 896.177 243.044C911.159 267.138 913.803 231.57 936.717 231.57C980.784 231.57 980.784 228.128 999.291 240.749C1017.8 252.222 1020.44 255.664 1043.36 246.486C1066.27 237.307 1075.97 223.539 1083.02 231.57C1090.07 240.749 1118.27 252.222 1127.08 246.486C1136.78 240.749 1182.61 235.012 1213.45 243.044C1225.79 246.486 1211.69 271.727 1220.5 275.169C1233.72 280.906 1266.33 263.696 1269.86 252.222C1274.27 231.57 1295.42 222.391 1316.57 237.307C1337.72 252.222 1393.24 290.085 1398.53 263.696C1402.94 237.307 1408.23 240.749 1415.28 243.044C1422.33 246.486 1431.14 252.222 1447.89 257.959C1463.75 263.696 1476.09 246.486 1483.14 248.78C1490.19 252.222 1492.83 222.391 1511.34 239.602C1529.85 256.812 1539.54 236.16 1529.85 256.812C1520.15 277.464 1525.44 283.201 1534.26 283.201C1543.95 283.201 1557.17 271.727 1566.86 274.022C1573.03 278.612 1591.54 277.464 1603 263.696Z" fill="#2D1400"/>
<path d="M91.5259 177.641C105.627 178.788 120.61 179.936 134.711 181.083C148.812 182.231 163.795 183.378 177.896 183.378C191.997 183.378 206.98 184.525 221.081 184.525C235.182 184.525 250.164 183.378 264.266 182.231H266.028L266.91 184.525C268.672 190.262 271.316 197.146 273.079 202.883C275.723 208.62 277.486 214.356 280.13 221.24C282.774 226.977 285.417 232.714 288.061 238.451C290.705 244.187 294.231 248.777 297.756 252.219L293.349 254.514L314.501 195.999L315.383 194.851L316.264 193.704L335.653 181.083H336.534H337.416C425.548 190.262 512.8 198.294 600.932 205.178C644.998 208.62 689.065 210.914 733.131 212.062C777.197 213.209 821.263 213.209 865.33 214.356C953.462 214.356 1041.59 214.356 1129.73 213.209L1261.93 212.062H1294.53C1305.11 212.062 1316.57 212.062 1327.14 210.914H1328.03H1328.91H1329.79C1330.67 210.914 1330.67 210.914 1331.55 210.914C1332.43 210.914 1334.19 210.914 1335.08 210.914C1335.96 210.914 1336.84 212.062 1337.72 212.062C1340.36 214.356 1342.13 215.504 1344.77 216.651C1345.65 217.798 1347.41 217.798 1348.3 217.798L1350.06 218.946C1350.94 218.946 1351.82 220.093 1352.7 220.093C1356.23 222.388 1357.99 224.683 1360.63 228.125C1365.04 233.861 1367.69 240.745 1370.33 246.482C1372.97 253.366 1374.74 259.103 1376.5 265.987H1369.45L1377.38 222.388L1378.26 218.946H1380.91L1423.21 215.504L1433.78 214.356H1439.07H1440.84H1441.72H1442.6C1444.36 214.356 1445.24 215.504 1446.12 216.651C1447.89 218.946 1448.77 221.24 1449.65 223.535C1450.53 225.83 1451.41 228.125 1451.41 230.419C1452.29 235.009 1453.17 239.598 1453.17 244.187L1448.77 241.893C1451.41 239.598 1454.05 237.303 1456.7 235.009C1459.34 232.714 1461.99 230.419 1464.63 226.977C1467.27 224.683 1469.92 221.241 1471.68 218.946C1473.44 215.504 1476.09 213.209 1476.97 209.767L1477.85 207.472H1479.61C1488.43 207.472 1498.12 207.472 1507.82 207.472C1517.51 207.472 1526.32 207.472 1536.02 207.472C1544.83 207.472 1554.53 206.325 1563.34 205.178C1572.15 204.03 1581.85 202.883 1590.66 199.441V200.588C1581.85 204.03 1572.15 206.325 1563.34 207.472C1553.64 208.62 1544.83 209.767 1535.14 210.914C1516.63 212.062 1498.12 213.209 1479.61 213.209L1481.38 212.062C1479.61 216.651 1477.85 220.093 1475.21 223.535C1472.56 226.977 1470.8 230.419 1468.16 232.714C1465.51 236.156 1462.87 238.451 1460.22 240.745C1457.58 243.04 1454.94 245.335 1451.41 247.63L1447.89 249.924L1447 244.187C1447 239.598 1446.12 236.156 1445.24 231.567C1444.36 228.125 1442.6 223.535 1441.72 221.24C1440.84 220.093 1440.83 220.093 1439.07 220.093H1433.78L1423.21 221.24L1380.91 225.83L1384.43 222.388L1376.5 265.987L1373.85 283.197L1369.45 267.135C1367.68 261.398 1365.92 254.514 1363.28 248.777C1360.63 243.04 1357.99 237.303 1355.35 232.714C1353.58 230.419 1351.82 228.125 1350.06 226.977C1349.18 226.977 1349.18 226.977 1349.18 225.83L1347.41 224.683C1345.65 224.683 1344.77 223.535 1343.01 222.388C1340.36 221.241 1337.72 218.946 1335.08 217.798C1334.19 216.651 1334.19 216.651 1333.31 216.651C1333.31 216.651 1333.31 216.651 1332.43 216.651H1331.55C1330.67 216.651 1329.79 216.651 1329.79 216.651H1328.91C1317.45 217.798 1306.87 217.798 1295.42 217.798L1261.93 218.946C1217.86 220.093 1173.79 220.093 1129.73 220.093C1041.59 220.093 953.462 218.946 865.33 216.651C821.263 215.504 777.197 213.209 733.131 212.062L667.031 208.62L600.932 205.178C556.866 202.883 512.799 200.588 468.733 197.146C424.667 194.851 380.601 190.262 336.534 185.673H338.297L318.908 198.293L320.67 195.999L298.637 254.514L296.875 259.103L293.349 256.808C288.062 252.219 284.536 246.482 281.011 240.745C277.486 235.009 274.842 229.272 272.198 223.535C266.91 210.914 262.503 199.441 258.978 186.82L261.622 189.115C247.52 190.262 232.538 190.262 218.437 190.262C204.336 190.262 189.353 189.115 175.252 187.967C161.151 186.82 146.168 185.673 132.067 183.378C119.728 183.378 105.627 181.083 91.5259 177.641Z" fill="#FFBF74"/>
<path d="M0.75 1324.99C0.75 1337.61 23.6644 1346.79 50.9855 1346.79C79.1879 1346.79 101.221 1336.47 101.221 1324.99V167.317C101.221 154.696 78.3066 145.517 50.9855 145.517C22.7831 145.517 0.75 155.843 0.75 167.317V1324.99Z" fill="url(#paint13_linear_9_7167)"/>
<path opacity="0.1" d="M25.4278 148.958C23.6652 168.463 21.9027 202.883 22.784 246.483C24.5466 314.177 24.5465 713.455 21.0212 836.221C16.6146 958.988 28.9532 1212.55 25.4278 1268.77C23.6652 1298.6 21.9025 1324.99 21.0212 1343.35C29.8345 1345.64 39.5291 1347.94 50.9864 1347.94C62.4436 1347.94 73.0195 1346.79 80.9514 1343.35C80.9514 1324.99 80.0701 553.973 80.0701 431.206C80.0701 307.292 76.5447 212.062 73.9007 169.61C73.0194 161.579 73.0194 154.695 72.1381 146.663C65.9688 145.516 58.9183 144.369 50.9864 144.369C41.2918 145.516 32.4785 146.663 25.4278 148.958Z" fill="white"/>
<path d="M1588.9 1324.99C1588.9 1337.61 1611.81 1346.79 1639.13 1346.79C1667.34 1346.79 1689.37 1336.47 1689.37 1324.99V167.317C1689.37 154.696 1666.46 145.517 1639.13 145.517C1610.93 145.517 1588.9 155.843 1588.9 167.317V1324.99Z" fill="url(#paint14_linear_9_7167)"/>
<path opacity="0.1" d="M1615.34 147.809C1611.81 162.725 1609.17 187.967 1610.05 225.829C1611.81 303.849 1612.69 339.417 1610.05 385.311C1607.41 431.205 1607.41 866.051 1607.41 971.607C1607.41 1078.31 1614.46 1201.08 1609.17 1284.83C1607.41 1307.78 1606.53 1326.14 1605.64 1339.91C1614.46 1343.35 1626.8 1345.64 1640.02 1345.64C1650.59 1345.64 1661.17 1344.5 1669.1 1341.05C1669.1 1318.11 1671.74 1265.33 1671.74 1139.12C1671.74 941.776 1671.74 381.869 1669.98 286.639C1669.1 243.039 1668.22 190.261 1666.46 146.662C1658.52 144.367 1648.83 143.22 1639.13 143.22C1631.2 145.515 1623.27 146.662 1615.34 147.809Z" fill="white"/>
<path opacity="0.15" d="M1660.29 562.003C1662.93 481.688 1661.17 372.69 1663.81 315.323C1666.45 262.544 1666.45 184.525 1663.81 146.662C1656.76 144.367 1647.95 143.22 1639.13 143.22C1632.96 143.22 1626.8 143.22 1621.51 144.367C1621.51 153.546 1621.51 163.872 1621.51 178.788C1622.39 216.65 1617.98 286.639 1621.51 397.932C1625.03 509.225 1621.51 541.351 1632.08 601.013C1642.66 662.97 1657.64 642.318 1660.29 562.003Z" fill="white"/>
<path opacity="0.1" d="M1640.01 145.517C1611.81 145.517 1589.78 155.843 1589.78 167.317V173.053C1591.54 170.759 1593.3 169.611 1595.95 170.759C1607.41 176.495 1613.58 153.548 1620.63 156.99C1627.68 160.432 1625.03 162.727 1633.85 160.432C1642.66 158.138 1649.71 154.696 1655.88 156.99C1662.05 159.285 1661.17 166.169 1669.98 167.317C1678.79 168.464 1680.56 187.969 1689.37 206.326C1689.37 207.474 1690.25 207.474 1690.25 208.621V167.317C1690.25 155.843 1667.34 145.517 1640.01 145.517Z" fill="#2D1400"/>
<path opacity="0.15" d="M36.0014 235.009C34.2387 370.397 37.7639 432.354 36.8826 487.426C36.0013 542.499 63.3224 598.72 65.9664 503.489C69.4917 407.112 66.8477 256.809 65.085 218.946C64.2037 199.441 63.3224 169.61 63.3224 145.516C59.7971 145.516 55.3905 144.369 50.9839 144.369C47.4586 144.369 44.8146 144.369 42.1706 144.369C39.5266 156.99 36.8827 182.231 36.0014 235.009Z" fill="white"/>
<path opacity="0.15" d="M50.1037 849.99C50.1037 849.99 42.1719 855.726 42.1719 902.768C42.1719 949.809 38.6465 1066.84 38.6465 1133.39C38.6465 1199.93 40.4092 1323.85 46.5785 1319.26C52.7478 1314.67 71.2555 1330.73 69.4929 1222.88C68.6115 1115.03 74.7809 786.885 50.1037 849.99Z" fill="white"/>
<path opacity="0.18" d="M1523.68 650.348C1501.65 480.541 1489.31 315.322 1416.16 315.322C1403.82 315.322 1391.48 316.469 1380.91 317.617C1372.97 298.112 1345.65 274.018 1310.4 291.228C1310.4 291.228 1260.16 311.88 1287.48 334.827C1281.32 334.827 1274.26 333.68 1268.1 331.385C1231.96 318.764 1071.56 291.228 940.243 291.228C808.925 291.228 707.573 291.228 583.306 295.817C459.92 300.407 340.06 278.607 263.385 313.027C263.385 313.027 196.404 363.511 194.641 533.319C192.879 665.264 191.116 864.903 227.25 1001.44C213.149 1011.76 191.116 1037.01 208.743 1094.37C233.42 1175.84 280.13 1238.94 339.179 1205.67C350.636 1198.78 360.33 1191.9 369.144 1183.87C436.124 1212.55 505.749 1207.96 534.833 1193.05C579.781 1170.1 620.322 1127.65 658.219 1167.8C696.997 1207.96 731.368 1218.29 876.787 1211.4C1023.09 1203.37 1037.19 1135.68 1071.56 1150.59C1105.93 1165.51 1093.59 1198.78 1246.06 1196.49C1397.65 1194.19 1462.87 1173.54 1492.83 1104.7C1523.68 1035.86 1545.71 820.156 1523.68 650.348Z" fill="white"/>
<path opacity="0.11" d="M1444.36 514.965C1440.84 407.114 1357.99 361.22 1197.59 361.22C1046 361.22 875.025 373.841 761.334 377.283C751.639 354.336 704.048 326.799 613.271 329.094C613.271 329.094 499.58 326.799 507.512 370.399C451.989 368.104 411.448 364.662 411.448 364.662C411.448 364.662 287.181 342.862 254.572 478.25C221.963 612.49 241.352 897.033 258.097 978.495C275.724 1059.96 326.84 1129.95 411.448 1134.53C496.055 1139.12 540.121 1117.32 646.761 1134.53C754.283 1151.74 886.482 1170.1 989.597 1143.71C1092.71 1117.32 1215.22 1174.69 1324.5 1150.6C1433.79 1126.5 1477.85 1054.22 1479.61 962.432C1482.26 874.086 1447.89 622.816 1444.36 514.965Z" fill="white"/>
<path opacity="0.11" d="M1484.9 621.664C1484.9 621.664 1471.68 615.928 1474.32 673.295C1476.09 729.515 1489.31 837.366 1506.05 797.209C1523.68 757.052 1512.22 617.075 1484.9 621.664Z" fill="white"/>
<path opacity="0.1" d="M50.9855 145.517C22.7831 145.517 0.75 155.843 0.75 167.317V190.264C4.2753 186.822 7.8005 182.232 7.8005 178.79C7.8005 168.464 9.56325 167.317 18.3765 167.317C27.1898 167.317 27.1897 165.022 33.359 161.58C39.5283 159.285 50.9854 147.812 56.2734 155.843C61.5613 163.875 56.2734 169.611 65.968 175.348C75.6626 181.085 73.9 167.317 83.5945 173.053C93.2891 178.79 101.221 194.853 101.221 194.853C101.221 194.853 101.221 194.853 102.102 196V168.464C101.221 155.843 79.1879 145.517 50.9855 145.517Z" fill="#2D1400"/>
<path opacity="0.1" d="M89.7638 1333.02C80.0692 1338.76 77.4253 1339.91 65.968 1338.76C53.6295 1337.61 48.3415 1331.88 38.6469 1322.7C28.9523 1313.52 20.1392 1326.14 13.9699 1326.14C10.4446 1326.14 5.15663 1319.25 0.75 1312.37V1324.99C0.75 1337.61 23.6644 1346.79 50.9855 1346.79C72.1373 1346.79 90.6452 1341.05 97.6958 1331.88C95.9331 1333.02 95.0517 1329.58 89.7638 1333.02Z" fill="#2D1400"/>
<path opacity="0.1" d="M1690.25 1324.99V1306.63C1686.73 1312.37 1682.32 1320.4 1677.91 1324.99C1663.81 1341.05 1653.23 1333.02 1645.3 1327.29C1637.37 1321.55 1618.86 1329.58 1608.29 1329.58C1602.12 1329.58 1595.07 1314.67 1589.78 1302.04V1323.84C1589.78 1336.46 1612.69 1345.64 1640.01 1345.64C1667.34 1347.94 1690.25 1337.61 1690.25 1324.99Z" fill="#2D1400"/>
<path opacity="0.15" d="M1645.3 922.271C1645.3 922.271 1636.49 914.24 1634.73 956.692C1633.85 999.143 1624.15 1098.96 1626.8 1152.89C1629.44 1207.96 1645.3 1315.81 1654.12 1279.1C1662.93 1243.53 1662.05 1109.29 1659.41 1065.69C1657.64 1020.94 1658.52 915.387 1645.3 922.271Z" fill="white"/>
<path opacity="0.1" d="M375.314 224.682C375.314 224.682 346.23 228.124 352.399 233.861C358.568 239.598 347.992 248.777 366.5 248.777C385.008 248.777 393.821 262.545 392.94 248.777C391.177 236.156 385.008 223.535 375.314 224.682Z" fill="#2D1400"/>
<path opacity="0.1" d="M180.54 229.271C180.54 229.271 169.964 215.503 159.389 225.829C148.813 235.008 148.813 229.271 145.287 243.039C142.643 256.807 128.542 252.218 142.643 256.807C156.744 260.249 151.457 247.629 163.795 253.365C176.134 259.102 184.947 261.397 184.947 261.397C184.947 261.397 195.523 232.713 180.54 229.271Z" fill="#2D1400"/>
<path opacity="0.1" d="M214.03 246.485C214.03 246.485 199.929 248.779 203.455 255.663C206.099 263.695 197.285 257.958 206.098 263.695C214.912 269.432 214.912 269.432 214.912 269.432C214.912 269.432 219.318 260.253 227.25 260.253C236.064 259.105 229.894 241.895 214.03 246.485Z" fill="#2D1400"/>
<path opacity="0.1" d="M1182.61 255.664C1178.2 255.664 1149.12 261.401 1153.52 264.843C1157.93 268.285 1150.88 276.316 1162.34 282.053C1174.68 287.79 1187.01 284.348 1191.42 284.348C1196.71 284.348 1201.12 257.959 1182.61 255.664Z" fill="#2D1400"/>
<path opacity="0.1" d="M674.964 1203.37C674.964 1203.37 652.049 1203.37 660.862 1214.84C669.676 1226.32 667.031 1237.79 681.133 1237.79C695.234 1237.79 704.047 1243.53 705.81 1232.05C706.691 1220.58 696.115 1220.58 674.964 1203.37Z" fill="#2D1400"/>
<path opacity="0.1" d="M219.318 1204.52C214.911 1203.37 196.404 1195.34 190.234 1212.55C184.065 1229.76 187.59 1227.47 177.896 1234.35C169.083 1240.09 169.964 1243.53 177.896 1248.12C185.828 1251.56 190.234 1248.12 200.81 1248.12C211.386 1248.12 215.793 1230.91 221.081 1228.62C225.488 1226.32 252.808 1212.55 219.318 1204.52Z" fill="#2D1400"/>
<path opacity="0.1" d="M1534.26 307.294C1529.85 306.146 1500.77 310.736 1509.58 321.062C1518.39 330.241 1529.85 330.241 1526.32 338.272C1523.68 346.304 1517.51 357.777 1524.56 363.514C1532.49 369.251 1541.31 384.166 1541.31 384.166C1541.31 384.166 1544.83 381.872 1545.71 356.63C1547.48 332.535 1569.51 314.178 1534.26 307.294Z" fill="#2D1400"/>
<path opacity="0.1" d="M1118.27 1227.47C1118.27 1227.47 1090.07 1242.39 1107.69 1250.42C1126.2 1258.45 1127.96 1248.12 1142.07 1252.71C1156.17 1257.3 1164.1 1255.01 1170.27 1248.12C1176.44 1240.09 1170.27 1219.44 1156.17 1219.44C1142.07 1219.44 1135.9 1224.03 1135.9 1224.03C1135.9 1224.03 1134.13 1204.52 1118.27 1227.47Z" fill="#2D1400"/>
<path opacity="0.05" fill-rule="evenodd" clip-rule="evenodd" d="M823.139 595.046H778.269V552.682H823.139V467.95H868.265V552.682H913.392V595.046H868.265H823.139ZM800.832 678.924H800.825V913.808L845.704 997.462V678.924V622.636H1063.75L1033.56 678.924H905.658V917.336L845.782 1028.95H845.704L785.746 917.321V678.924H657.945L627.75 622.636H800.832V678.924ZM973.599 791.5H935.625V735.213H1003.79L973.599 791.5Z" fill="#1D1D1D"/>
<defs>
<linearGradient id="paint0_linear_9_7167" x1="1608.42" y1="131.451" x2="1688.34" y2="18.6047" gradientUnits="userSpaceOnUse">
<stop offset="0.0458024" stop-color="#AB5400"/>
<stop offset="1" stop-color="#F28900"/>
</linearGradient>
<linearGradient id="paint1_linear_9_7167" x1="1628.85" y1="140.976" x2="1665.96" y2="101.358" gradientUnits="userSpaceOnUse">
<stop offset="0.0458024" stop-color="#AB5400"/>
<stop offset="1" stop-color="#F28900"/>
</linearGradient>
<linearGradient id="paint2_linear_9_7167" x1="1631.11" y1="170.109" x2="1672" y2="123" gradientUnits="userSpaceOnUse">
<stop offset="0.0458024" stop-color="#AB5400"/>
<stop offset="1" stop-color="#F28900"/>
</linearGradient>
<linearGradient id="paint3_linear_9_7167" x1="15.486" y1="131.451" x2="95.4176" y2="18.6029" gradientUnits="userSpaceOnUse">
<stop offset="0.0458024" stop-color="#AB5400"/>
<stop offset="1" stop-color="#F28900"/>
</linearGradient>
<linearGradient id="paint4_linear_9_7167" x1="35.9287" y1="140.978" x2="73.0434" y2="101.36" gradientUnits="userSpaceOnUse">
<stop offset="0.0458024" stop-color="#AB5400"/>
<stop offset="1" stop-color="#F28900"/>
</linearGradient>
<linearGradient id="paint5_linear_9_7167" x1="38.187" y1="170.107" x2="79.0664" y2="123.004" gradientUnits="userSpaceOnUse">
<stop offset="0.0458024" stop-color="#AB5400"/>
<stop offset="1" stop-color="#F28900"/>
</linearGradient>
<linearGradient id="paint6_linear_9_7167" x1="1608.42" y1="1365.6" x2="1688.34" y2="1478.44" gradientUnits="userSpaceOnUse">
<stop offset="0.0458024" stop-color="#AB5400"/>
<stop offset="1" stop-color="#F28900"/>
</linearGradient>
<linearGradient id="paint7_linear_9_7167" x1="1628.85" y1="1356.07" x2="1665.96" y2="1395.69" gradientUnits="userSpaceOnUse">
<stop offset="0.0458024" stop-color="#AB5400"/>
<stop offset="1" stop-color="#F28900"/>
</linearGradient>
<linearGradient id="paint8_linear_9_7167" x1="1631.11" y1="1326.93" x2="1672" y2="1374.04" gradientUnits="userSpaceOnUse">
<stop offset="0.0458024" stop-color="#AB5400"/>
<stop offset="1" stop-color="#F28900"/>
</linearGradient>
<linearGradient id="paint9_linear_9_7167" x1="15.4869" y1="1365.6" x2="95.415" y2="1478.44" gradientUnits="userSpaceOnUse">
<stop offset="0.0458024" stop-color="#AB5400"/>
<stop offset="1" stop-color="#F28900"/>
</linearGradient>
<linearGradient id="paint10_linear_9_7167" x1="35.9304" y1="1356.07" x2="73.0427" y2="1395.69" gradientUnits="userSpaceOnUse">
<stop offset="0.0458024" stop-color="#AB5400"/>
<stop offset="1" stop-color="#F28900"/>
</linearGradient>
<linearGradient id="paint11_linear_9_7167" x1="38.187" y1="1326.93" x2="79.0656" y2="1374.03" gradientUnits="userSpaceOnUse">
<stop offset="0.0458024" stop-color="#AB5400"/>
<stop offset="1" stop-color="#F28900"/>
</linearGradient>
<linearGradient id="paint12_linear_9_7167" x1="7.29858" y1="748.708" x2="1651.27" y2="748.708" gradientUnits="userSpaceOnUse">
<stop stop-color="#D17724"/>
<stop offset="0.0307823" stop-color="#D57E2B"/>
<stop offset="0.1539" stop-color="#E39742"/>
<stop offset="0.2835" stop-color="#ECA852"/>
<stop offset="0.4223" stop-color="#F2B35C"/>
<stop offset="0.587" stop-color="#F4B65F"/>
<stop offset="0.7252" stop-color="#ECAC56"/>
<stop offset="0.9623" stop-color="#D8903D"/>
<stop offset="1" stop-color="#D48B38"/>
</linearGradient>
<linearGradient id="paint13_linear_9_7167" x1="101.442" y1="746.41" x2="0.697121" y2="746.41" gradientUnits="userSpaceOnUse">
<stop stop-color="#D17724"/>
<stop offset="0.0307823" stop-color="#D57E2B"/>
<stop offset="0.1539" stop-color="#E39742"/>
<stop offset="0.2835" stop-color="#ECA852"/>
<stop offset="0.4223" stop-color="#F2B35C"/>
<stop offset="0.587" stop-color="#F4B65F"/>
<stop offset="0.7252" stop-color="#ECAC56"/>
<stop offset="0.9623" stop-color="#D8903D"/>
<stop offset="1" stop-color="#D48B38"/>
</linearGradient>
<linearGradient id="paint14_linear_9_7167" x1="1690.06" y1="746.41" x2="1589.3" y2="746.41" gradientUnits="userSpaceOnUse">
<stop stop-color="#D17724"/>
<stop offset="0.0307823" stop-color="#D57E2B"/>
<stop offset="0.1539" stop-color="#E39742"/>
<stop offset="0.2835" stop-color="#ECA852"/>
<stop offset="0.4223" stop-color="#F2B35C"/>
<stop offset="0.587" stop-color="#F4B65F"/>
<stop offset="0.7252" stop-color="#ECAC56"/>
<stop offset="0.9623" stop-color="#D8903D"/>
<stop offset="1" stop-color="#D48B38"/>
</linearGradient>
</defs>
</svg>
