<svg width="385" height="461" viewBox="0 0 385 461" fill="none" xmlns="http://www.w3.org/2000/svg">
<path fill-rule="evenodd" clip-rule="evenodd" d="M19.9642 80.9492L20.0642 43.0502L30.0642 37.0502L39.0642 27.9492L43.0642 25.0502L346.064 24.9502L350.964 35.0502L356.064 39.9492L365.964 45.9492L364.064 429.949L355.064 432.05L347.064 442.949L344.064 447.949H39.0642L34.0642 437.05L23.0642 430.949L20.0642 428.949L19.9642 80.9492Z" fill="black"/>
<path fill-rule="evenodd" clip-rule="evenodd" d="M144.43 450.772C146.279 452.154 150.901 454.459 153.212 455.38C158.296 455.38 175.86 455.38 192.5 460.45C209.602 455.38 226.703 455.38 231.788 455.38C234.099 454.92 238.721 452.615 240.57 450.772H192.5H144.43Z" fill="#666666"/>
<path fill-rule="evenodd" clip-rule="evenodd" d="M144.43 450.772C146.279 452.154 150.901 454.459 153.212 455.38C158.296 455.38 175.86 455.38 192.5 460.45V450.772H144.43Z" fill="url(#paint0_linear_2_2346)"/>
<path fill-rule="evenodd" clip-rule="evenodd" d="M240.57 450.772C238.721 452.154 234.099 454.459 231.788 455.38C226.704 455.38 209.14 455.38 192.5 460.45V450.772H240.57Z" fill="url(#paint1_linear_2_2346)"/>
<path fill-rule="evenodd" clip-rule="evenodd" d="M39.0457 21.2307H345.954L349.652 17.0827H260.907H192.5H131.488H124.093H35.348L39.0457 21.2307Z" fill="url(#paint2_linear_2_2346)"/>
<path fill-rule="evenodd" clip-rule="evenodd" d="M345.954 21.2326H39.0453L42.7431 25.8414H342.256L345.954 21.2326Z" fill="url(#paint3_linear_2_2346)"/>
<path fill-rule="evenodd" clip-rule="evenodd" d="M20.5567 40.1293C30.2632 38.2857 37.6585 30.9116 39.5074 21.233L35.3475 16.6242C35.3475 27.2245 26.5655 35.9813 15.9346 35.9813L20.5567 40.1293Z" fill="url(#paint4_linear_2_2346)"/>
<path fill-rule="evenodd" clip-rule="evenodd" d="M39.0454 21.2326C37.1965 30.9112 29.8011 38.2853 20.0947 40.1289L24.7168 43.3551C33.0366 40.5898 39.5076 34.1374 42.7431 25.3806L39.0454 21.2326Z" fill="url(#paint5_linear_2_2346)"/>
<path fill-rule="evenodd" clip-rule="evenodd" d="M20.5567 427.273V40.1302L15.9346 35.9822V431.421L20.5567 427.273Z" fill="url(#paint6_linear_2_2346)"/>
<path fill-rule="evenodd" clip-rule="evenodd" d="M20.5568 40.1279V427.271L24.7167 424.045V43.815L20.5568 40.1279Z" fill="url(#paint7_linear_2_2346)"/>
<path fill-rule="evenodd" clip-rule="evenodd" d="M345.954 21.233C347.803 30.9116 355.198 38.2857 364.905 40.1293L369.527 35.9813C358.896 35.9813 350.114 27.2245 350.114 16.6242L345.954 21.233Z" fill="url(#paint8_linear_2_2346)"/>
<path fill-rule="evenodd" clip-rule="evenodd" d="M364.442 40.1289C354.736 38.2853 347.34 30.9112 345.491 21.2326L342.256 25.8414C345.029 34.1374 351.5 40.5898 360.282 43.8159L364.442 40.1289Z" fill="url(#paint9_linear_2_2346)"/>
<path fill-rule="evenodd" clip-rule="evenodd" d="M360.282 43.815V424.045L364.442 427.271V40.1279L360.282 43.815Z" fill="url(#paint10_linear_2_2346)"/>
<path fill-rule="evenodd" clip-rule="evenodd" d="M364.442 40.1302V427.273L369.064 431.421V35.9822L364.442 40.1302Z" fill="url(#paint11_linear_2_2346)"/>
<path fill-rule="evenodd" clip-rule="evenodd" d="M360.282 424.047C351.962 426.812 345.491 433.264 342.256 442.021L345.491 446.63C347.34 436.951 354.736 429.577 364.442 427.734L360.282 424.047Z" fill="url(#paint12_linear_2_2346)"/>
<path fill-rule="evenodd" clip-rule="evenodd" d="M364.442 427.27C354.736 429.113 347.341 436.488 345.492 446.166L349.652 450.775C349.652 440.175 358.434 431.418 369.065 431.418L364.442 427.27Z" fill="url(#paint13_linear_2_2346)"/>
<path fill-rule="evenodd" clip-rule="evenodd" d="M342.256 441.56H42.7431L39.0453 446.169H345.954L342.256 441.56Z" fill="url(#paint14_linear_2_2346)"/>
<path fill-rule="evenodd" clip-rule="evenodd" d="M345.954 446.167H39.0457L35.348 450.776H144.43H192.5H240.57H349.652L345.954 446.167Z" fill="url(#paint15_linear_2_2346)"/>
<path fill-rule="evenodd" clip-rule="evenodd" d="M39.0454 446.166C37.1966 436.488 29.8012 429.113 20.0947 427.27L15.4726 431.418C26.1035 431.418 34.8855 440.175 34.8855 450.775L39.0454 446.166Z" fill="url(#paint16_linear_2_2346)"/>
<path fill-rule="evenodd" clip-rule="evenodd" d="M20.5568 427.272C30.2633 429.115 37.6586 436.49 39.5075 446.168L42.743 441.559C39.9697 433.263 33.4987 426.811 24.7167 423.585L20.5568 427.272Z" fill="url(#paint17_linear_2_2346)"/>
<path fill-rule="evenodd" clip-rule="evenodd" d="M124.092 17.0811H260.907C258.134 13.855 253.512 10.6288 248.889 8.32436C235.023 12.9332 200.819 10.6288 192.5 0.950195C184.18 10.6288 149.976 12.9332 136.11 8.32436C131.488 10.6288 127.328 13.855 124.092 17.0811Z" fill="#CCCCCC"/>
<path fill-rule="evenodd" clip-rule="evenodd" d="M124.092 17.0811H192.5V0.950195C184.18 10.6288 149.976 12.9332 136.11 8.32436C131.488 10.6288 127.328 13.855 124.092 17.0811Z" fill="url(#paint18_linear_2_2346)"/>
<path fill-rule="evenodd" clip-rule="evenodd" d="M260.907 17.0811H192.5V0.950195C200.82 10.6288 235.023 12.9332 248.89 8.32436C253.512 10.6288 257.672 13.855 260.907 17.0811Z" fill="url(#paint19_linear_2_2346)"/>
<path fill-rule="evenodd" clip-rule="evenodd" d="M186.029 12.0104C172.162 17.0802 146.278 16.6193 131.488 17.0802H192.5V4.63631C192.5 8.32338 191.575 10.1669 186.029 12.0104Z" fill="url(#paint20_linear_2_2346)"/>
<path fill-rule="evenodd" clip-rule="evenodd" d="M20.5571 213.878L40.4322 233.696L20.5571 253.514L0.682007 233.696L20.5571 213.878ZM20.5571 221.252L8.07742 233.696L20.5571 246.14L33.0368 233.696L20.5571 221.252Z" fill="#999999"/>
<path fill-rule="evenodd" clip-rule="evenodd" d="M4.37971 233.696L20.5571 217.565V213.878L0.682007 233.696H4.37971Z" fill="url(#paint21_linear_2_2346)"/>
<path fill-rule="evenodd" clip-rule="evenodd" d="M20.5573 217.564L4.37988 233.695H8.07759L20.5573 221.251V217.564Z" fill="url(#paint22_linear_2_2346)"/>
<path fill-rule="evenodd" clip-rule="evenodd" d="M36.7348 233.696L20.5574 217.565V213.878L40.4325 233.696H36.7348Z" fill="url(#paint23_linear_2_2346)"/>
<path fill-rule="evenodd" clip-rule="evenodd" d="M20.5574 217.564L36.7348 233.695H33.0371L20.5574 221.251V217.564Z" fill="url(#paint24_linear_2_2346)"/>
<path fill-rule="evenodd" clip-rule="evenodd" d="M4.37971 233.697L20.5571 249.828V253.515L0.682007 233.697H4.37971Z" fill="url(#paint25_linear_2_2346)"/>
<path fill-rule="evenodd" clip-rule="evenodd" d="M20.5573 249.828L4.37988 233.697H8.07759L20.5573 246.141V249.828Z" fill="url(#paint26_linear_2_2346)"/>
<path fill-rule="evenodd" clip-rule="evenodd" d="M36.7348 233.697L20.5574 249.828V253.515L40.4325 233.697H36.7348Z" fill="url(#paint27_linear_2_2346)"/>
<path fill-rule="evenodd" clip-rule="evenodd" d="M20.5574 249.828L36.7348 233.697H33.0371L20.5574 246.141V249.828Z" fill="url(#paint28_linear_2_2346)"/>
<path fill-rule="evenodd" clip-rule="evenodd" d="M8.07727 233.694L20.557 221.25L33.0367 233.694L20.557 246.138L8.07727 233.694Z" fill="#990099"/>
<path fill-rule="evenodd" clip-rule="evenodd" d="M12.2373 233.695L20.5571 225.86L28.4147 233.695L20.5571 241.991L12.2373 233.695Z" fill="url(#paint29_linear_2_2346)"/>
<path fill-rule="evenodd" clip-rule="evenodd" d="M12.2371 233.694L20.557 225.859V221.25L8.07727 233.694H12.2371Z" fill="url(#paint30_linear_2_2346)"/>
<path fill-rule="evenodd" clip-rule="evenodd" d="M28.415 233.694L20.5574 225.859V221.25L33.0371 233.694H28.415Z" fill="url(#paint31_linear_2_2346)"/>
<path fill-rule="evenodd" clip-rule="evenodd" d="M12.2371 233.697L20.557 241.532V246.141L8.07727 233.697H12.2371Z" fill="url(#paint32_linear_2_2346)"/>
<path fill-rule="evenodd" clip-rule="evenodd" d="M28.415 233.697L20.5574 241.532V246.141L33.0371 233.697H28.415Z" fill="url(#paint33_linear_2_2346)"/>
<path fill-rule="evenodd" clip-rule="evenodd" d="M364.443 213.878L384.318 233.696L364.443 253.514L344.567 233.696L364.443 213.878ZM364.443 221.252L351.963 233.696L364.443 246.14L376.922 233.696L364.443 221.252Z" fill="#999999"/>
<path fill-rule="evenodd" clip-rule="evenodd" d="M348.265 233.696L364.443 217.565V213.878L344.567 233.696H348.265Z" fill="url(#paint34_linear_2_2346)"/>
<path fill-rule="evenodd" clip-rule="evenodd" d="M364.443 217.564L348.265 233.695H351.963L364.443 221.251V217.564Z" fill="url(#paint35_linear_2_2346)"/>
<path fill-rule="evenodd" clip-rule="evenodd" d="M380.62 233.696L364.443 217.565V213.878L384.318 233.696H380.62Z" fill="url(#paint36_linear_2_2346)"/>
<path fill-rule="evenodd" clip-rule="evenodd" d="M364.443 217.564L380.62 233.695H376.923L364.443 221.251V217.564Z" fill="url(#paint37_linear_2_2346)"/>
<path fill-rule="evenodd" clip-rule="evenodd" d="M348.265 233.697L364.443 249.828V253.515L344.567 233.697H348.265Z" fill="url(#paint38_linear_2_2346)"/>
<path fill-rule="evenodd" clip-rule="evenodd" d="M364.443 249.828L348.265 233.697H351.963L364.443 246.141V249.828Z" fill="url(#paint39_linear_2_2346)"/>
<path fill-rule="evenodd" clip-rule="evenodd" d="M380.62 233.697L364.443 249.828V253.515L384.318 233.697H380.62Z" fill="url(#paint40_linear_2_2346)"/>
<path fill-rule="evenodd" clip-rule="evenodd" d="M364.443 249.828L380.62 233.697H376.923L364.443 246.141V249.828Z" fill="url(#paint41_linear_2_2346)"/>
<path fill-rule="evenodd" clip-rule="evenodd" d="M351.963 233.694L364.442 221.25L376.922 233.694L364.442 246.138L351.963 233.694Z" fill="#990099"/>
<path fill-rule="evenodd" clip-rule="evenodd" d="M356.585 233.695L364.443 225.86L372.762 233.695L364.443 241.991L356.585 233.695Z" fill="url(#paint42_linear_2_2346)"/>
<path fill-rule="evenodd" clip-rule="evenodd" d="M356.585 233.694L364.442 225.859V221.25L351.963 233.694H356.585Z" fill="url(#paint43_linear_2_2346)"/>
<path fill-rule="evenodd" clip-rule="evenodd" d="M372.763 233.694L364.443 225.859V221.25L376.923 233.694H372.763Z" fill="url(#paint44_linear_2_2346)"/>
<path fill-rule="evenodd" clip-rule="evenodd" d="M356.585 233.697L364.442 241.532V246.141L351.963 233.697H356.585Z" fill="url(#paint45_linear_2_2346)"/>
<path fill-rule="evenodd" clip-rule="evenodd" d="M372.763 233.697L364.443 241.532V246.141L376.923 233.697H372.763Z" fill="url(#paint46_linear_2_2346)"/>
<defs>
<linearGradient id="paint0_linear_2_2346" x1="144.347" y1="455.368" x2="192.499" y2="455.368" gradientUnits="userSpaceOnUse">
<stop stop-color="#945200"/>
<stop offset="1" stop-color="#E39919"/>
</linearGradient>
<linearGradient id="paint1_linear_2_2346" x1="192.499" y1="455.368" x2="240.653" y2="455.368" gradientUnits="userSpaceOnUse">
<stop stop-color="#945200"/>
<stop offset="1" stop-color="#CF8300"/>
</linearGradient>
<linearGradient id="paint2_linear_2_2346" x1="192.5" y1="21.3736" x2="192.5" y2="16.9072" gradientUnits="userSpaceOnUse">
<stop stop-color="#FFF18F"/>
<stop offset="1" stop-color="#FFFAE3"/>
</linearGradient>
<linearGradient id="paint3_linear_2_2346" x1="192.5" y1="25.8414" x2="192.5" y2="21.3755" gradientUnits="userSpaceOnUse">
<stop stop-color="#6E4500"/>
<stop offset="1" stop-color="#CF9353"/>
</linearGradient>
<linearGradient id="paint4_linear_2_2346" x1="15.9397" y1="28.538" x2="39.2633" y2="28.538" gradientUnits="userSpaceOnUse">
<stop stop-color="#F5AD24"/>
<stop offset="1" stop-color="#FFE56B"/>
</linearGradient>
<linearGradient id="paint5_linear_2_2346" x1="20.4187" y1="32.4874" x2="42.707" y2="32.4874" gradientUnits="userSpaceOnUse">
<stop stop-color="#6E4500"/>
<stop offset="1" stop-color="#CF9353"/>
</linearGradient>
<linearGradient id="paint6_linear_2_2346" x1="15.9397" y1="233.759" x2="20.4185" y2="233.759" gradientUnits="userSpaceOnUse">
<stop stop-color="#F5AD24"/>
<stop offset="1" stop-color="#FFE56B"/>
</linearGradient>
<linearGradient id="paint7_linear_2_2346" x1="20.4186" y1="233.757" x2="24.8979" y2="233.757" gradientUnits="userSpaceOnUse">
<stop stop-color="#AB671C"/>
<stop offset="1" stop-color="#784C00"/>
</linearGradient>
<linearGradient id="paint8_linear_2_2346" x1="357.398" y1="40.1661" x2="357.398" y2="16.9095" gradientUnits="userSpaceOnUse">
<stop stop-color="#F5AD24"/>
<stop offset="1" stop-color="#FFE56B"/>
</linearGradient>
<linearGradient id="paint9_linear_2_2346" x1="342.292" y1="32.4874" x2="364.58" y2="32.4874" gradientUnits="userSpaceOnUse">
<stop stop-color="#CF9353"/>
<stop offset="1" stop-color="#6E4500"/>
</linearGradient>
<linearGradient id="paint10_linear_2_2346" x1="360.101" y1="233.757" x2="364.58" y2="233.757" gradientUnits="userSpaceOnUse">
<stop stop-color="#D18900"/>
<stop offset="1" stop-color="#F5B41E"/>
</linearGradient>
<linearGradient id="paint11_linear_2_2346" x1="364.581" y1="233.759" x2="369.059" y2="233.759" gradientUnits="userSpaceOnUse">
<stop stop-color="#AB671C"/>
<stop offset="1" stop-color="#784C00"/>
</linearGradient>
<linearGradient id="paint12_linear_2_2346" x1="342.292" y1="435.029" x2="364.58" y2="435.029" gradientUnits="userSpaceOnUse">
<stop stop-color="#FFBE45"/>
<stop offset="1" stop-color="#FFF0AB"/>
</linearGradient>
<linearGradient id="paint13_linear_2_2346" x1="345.736" y1="438.976" x2="369.059" y2="438.976" gradientUnits="userSpaceOnUse">
<stop stop-color="#6E4500"/>
<stop offset="1" stop-color="#CF9353"/>
</linearGradient>
<linearGradient id="paint14_linear_2_2346" x1="192.5" y1="446.141" x2="192.5" y2="441.675" gradientUnits="userSpaceOnUse">
<stop stop-color="#FFBE45"/>
<stop offset="1" stop-color="#FFF0AB"/>
</linearGradient>
<linearGradient id="paint15_linear_2_2346" x1="192.5" y1="450.606" x2="192.5" y2="446.139" gradientUnits="userSpaceOnUse">
<stop stop-color="#472D00"/>
<stop offset="1" stop-color="#784814"/>
</linearGradient>
<linearGradient id="paint16_linear_2_2346" x1="15.9399" y1="438.976" x2="39.2636" y2="438.976" gradientUnits="userSpaceOnUse">
<stop stop-color="#CF9353"/>
<stop offset="1" stop-color="#6E4500"/>
</linearGradient>
<linearGradient id="paint17_linear_2_2346" x1="20.4186" y1="435.028" x2="42.7069" y2="435.028" gradientUnits="userSpaceOnUse">
<stop stop-color="#FFF0AB"/>
<stop offset="1" stop-color="#FFBE45"/>
</linearGradient>
<linearGradient id="paint18_linear_2_2346" x1="124.151" y1="8.74421" x2="192.5" y2="8.74421" gradientUnits="userSpaceOnUse">
<stop stop-color="#DE8C26"/>
<stop offset="0.7175" stop-color="#FFD24F"/>
<stop offset="1" stop-color="#FFE48A"/>
</linearGradient>
<linearGradient id="paint19_linear_2_2346" x1="192.5" y1="8.74421" x2="260.848" y2="8.74421" gradientUnits="userSpaceOnUse">
<stop stop-color="#945200"/>
<stop offset="1" stop-color="#E39919"/>
</linearGradient>
<linearGradient id="paint20_linear_2_2346" x1="131.559" y1="10.7264" x2="192.5" y2="10.7264" gradientUnits="userSpaceOnUse">
<stop stop-color="#473626"/>
<stop offset="1" stop-color="#E8E7B3"/>
</linearGradient>
<linearGradient id="paint21_linear_2_2346" x1="0.476785" y1="223.811" x2="20.4185" y2="223.811" gradientUnits="userSpaceOnUse">
<stop stop-color="#FFF18F"/>
<stop offset="1" stop-color="#FFFAE3"/>
</linearGradient>
<linearGradient id="paint22_linear_2_2346" x1="4.20563" y1="225.668" x2="20.4186" y2="225.668" gradientUnits="userSpaceOnUse">
<stop stop-color="#AB5F0B"/>
<stop offset="1" stop-color="#753C00"/>
</linearGradient>
<linearGradient id="paint23_linear_2_2346" x1="20.4188" y1="223.811" x2="40.3609" y2="223.811" gradientUnits="userSpaceOnUse">
<stop stop-color="#EDA85F"/>
<stop offset="1" stop-color="#A36700"/>
</linearGradient>
<linearGradient id="paint24_linear_2_2346" x1="20.4188" y1="225.668" x2="36.6322" y2="225.668" gradientUnits="userSpaceOnUse">
<stop stop-color="#A15900"/>
<stop offset="1" stop-color="#E39644"/>
</linearGradient>
<linearGradient id="paint25_linear_2_2346" x1="0.477709" y1="243.696" x2="20.4198" y2="243.696" gradientUnits="userSpaceOnUse">
<stop stop-color="#EDA85F"/>
<stop offset="1" stop-color="#A36700"/>
</linearGradient>
<linearGradient id="paint26_linear_2_2346" x1="4.20655" y1="241.838" x2="20.42" y2="241.838" gradientUnits="userSpaceOnUse">
<stop stop-color="#6E4500"/>
<stop offset="1" stop-color="#CF9353"/>
</linearGradient>
<linearGradient id="paint27_linear_2_2346" x1="20.4202" y1="243.696" x2="40.3614" y2="243.696" gradientUnits="userSpaceOnUse">
<stop stop-color="#AB5F0B"/>
<stop offset="1" stop-color="#753C00"/>
</linearGradient>
<linearGradient id="paint28_linear_2_2346" x1="20.4202" y1="241.838" x2="36.6327" y2="241.838" gradientUnits="userSpaceOnUse">
<stop stop-color="#FFBE45"/>
<stop offset="1" stop-color="#FFF0AB"/>
</linearGradient>
<linearGradient id="paint29_linear_2_2346" x1="20.4194" y1="241.773" x2="20.4194" y2="225.731" gradientUnits="userSpaceOnUse">
<stop stop-color="#F72F2F"/>
<stop offset="1" stop-color="#FF8A8A"/>
</linearGradient>
<linearGradient id="paint30_linear_2_2346" x1="16.3971" y1="229.741" x2="14.1816" y2="227.519" gradientUnits="userSpaceOnUse">
<stop stop-color="#FF8C8C"/>
<stop offset="1" stop-color="#FF5252"/>
</linearGradient>
<linearGradient id="paint31_linear_2_2346" x1="20.4192" y1="227.526" x2="32.9068" y2="227.526" gradientUnits="userSpaceOnUse">
<stop stop-color="#FF5E5E"/>
<stop offset="1" stop-color="#B80000"/>
</linearGradient>
<linearGradient id="paint32_linear_2_2346" x1="7.93214" y1="239.961" x2="20.4188" y2="239.961" gradientUnits="userSpaceOnUse">
<stop stop-color="#FF5E5E"/>
<stop offset="1" stop-color="#B80000"/>
</linearGradient>
<linearGradient id="paint33_linear_2_2346" x1="26.6632" y1="239.961" x2="24.4478" y2="237.739" gradientUnits="userSpaceOnUse">
<stop stop-color="#FF6666"/>
<stop offset="1" stop-color="#DE0000"/>
</linearGradient>
<linearGradient id="paint34_linear_2_2346" x1="344.639" y1="223.811" x2="364.58" y2="223.811" gradientUnits="userSpaceOnUse">
<stop stop-color="#FFF18F"/>
<stop offset="1" stop-color="#FFFAE3"/>
</linearGradient>
<linearGradient id="paint35_linear_2_2346" x1="348.368" y1="225.668" x2="364.581" y2="225.668" gradientUnits="userSpaceOnUse">
<stop stop-color="#AB5F0B"/>
<stop offset="1" stop-color="#753C00"/>
</linearGradient>
<linearGradient id="paint36_linear_2_2346" x1="364.581" y1="223.811" x2="384.523" y2="223.811" gradientUnits="userSpaceOnUse">
<stop stop-color="#EDA85F"/>
<stop offset="1" stop-color="#A36700"/>
</linearGradient>
<linearGradient id="paint37_linear_2_2346" x1="364.581" y1="225.668" x2="380.794" y2="225.668" gradientUnits="userSpaceOnUse">
<stop stop-color="#A15900"/>
<stop offset="1" stop-color="#E39644"/>
</linearGradient>
<linearGradient id="paint38_linear_2_2346" x1="344.64" y1="243.696" x2="364.582" y2="243.696" gradientUnits="userSpaceOnUse">
<stop stop-color="#EDA85F"/>
<stop offset="1" stop-color="#A36700"/>
</linearGradient>
<linearGradient id="paint39_linear_2_2346" x1="348.369" y1="241.838" x2="364.582" y2="241.838" gradientUnits="userSpaceOnUse">
<stop stop-color="#6E4500"/>
<stop offset="1" stop-color="#CF9353"/>
</linearGradient>
<linearGradient id="paint40_linear_2_2346" x1="364.582" y1="243.696" x2="384.523" y2="243.696" gradientUnits="userSpaceOnUse">
<stop stop-color="#AB5F0B"/>
<stop offset="1" stop-color="#753C00"/>
</linearGradient>
<linearGradient id="paint41_linear_2_2346" x1="364.582" y1="241.838" x2="380.795" y2="241.838" gradientUnits="userSpaceOnUse">
<stop stop-color="#FFBE45"/>
<stop offset="1" stop-color="#FFF0AB"/>
</linearGradient>
<linearGradient id="paint42_linear_2_2346" x1="364.581" y1="241.773" x2="364.581" y2="225.731" gradientUnits="userSpaceOnUse">
<stop stop-color="#F72F2F"/>
<stop offset="1" stop-color="#FF8A8A"/>
</linearGradient>
<linearGradient id="paint43_linear_2_2346" x1="360.559" y1="229.741" x2="358.343" y2="227.519" gradientUnits="userSpaceOnUse">
<stop stop-color="#FF8C8C"/>
<stop offset="1" stop-color="#FF5252"/>
</linearGradient>
<linearGradient id="paint44_linear_2_2346" x1="364.581" y1="227.526" x2="377.068" y2="227.526" gradientUnits="userSpaceOnUse">
<stop stop-color="#FF5E5E"/>
<stop offset="1" stop-color="#B80000"/>
</linearGradient>
<linearGradient id="paint45_linear_2_2346" x1="352.094" y1="239.961" x2="364.581" y2="239.961" gradientUnits="userSpaceOnUse">
<stop stop-color="#FF5E5E"/>
<stop offset="1" stop-color="#B80000"/>
</linearGradient>
<linearGradient id="paint46_linear_2_2346" x1="370.825" y1="239.961" x2="368.61" y2="237.739" gradientUnits="userSpaceOnUse">
<stop stop-color="#FF6666"/>
<stop offset="1" stop-color="#DE0000"/>
</linearGradient>
</defs>
</svg>
