<svg width="56" height="204" viewBox="0 0 56 204" fill="none" xmlns="http://www.w3.org/2000/svg">
<path fill-rule="evenodd" clip-rule="evenodd" d="M28.6858 193.402C23.6314 193.733 20.0757 196.306 20.7372 199.138C21.3987 201.969 26.0294 204.005 31.0838 203.675C36.1382 203.344 39.6939 200.771 39.0324 197.939C38.3709 195.108 33.7402 193.072 28.6858 193.402Z" fill="#574C4B"/>
<path d="M28.3447 198.352L24.8097 6.20003L26.6082 6.14844L31.1768 198.269L28.3447 198.352Z" fill="#9F5364"/>
<path d="M25.7917 60.4961L27.3835 148.553C28.1794 149.576 28.9753 150.661 29.7608 151.787L27.7866 60.4961H25.7917Z" fill="#5C2E38"/>
<path d="M51.3533 35.6211H4.98474V37.8326H51.3533V35.6211Z" fill="#85434E"/>
<path d="M0.0233481 115.443C0.0233481 115.443 -0.989612 81.4539 10.2252 35.6016L5.08811 96.6657L48.8726 98.2261C48.8726 98.2261 44.9241 51.6814 46.2368 35.8392C46.2368 35.8392 51.3119 95.2912 56.0046 115.629L48.3041 116.021L47.7356 108.788H40.7793L41.7199 116.218L33.2028 115.794L32.4275 107.992L23.497 108.199L22.7425 115.825L14.4734 115.629L13.905 107.413L6.94865 107.806L6.57654 116.021L0.00267112 115.432L0.0233481 115.443Z" fill="#FFE3C5"/>
<path d="M2.67975 104.819C2.67975 104.819 32.4896 101.873 52.0354 104.043C52.0354 104.043 45.5339 57.23 46.3195 33.9473L10.4836 33.9886C10.4836 33.9886 4.65398 65.6523 2.67975 104.819Z" fill="#F89822"/>
<path d="M46.3195 33.9576L20.8613 33.9886C24.3239 41.7805 29.1406 49.8205 35.1977 57.5194C39.3425 62.8001 43.7664 67.5021 48.2731 71.5841C47.0017 58.4288 45.9887 43.992 46.3298 33.9473L46.3195 33.9576Z" fill="#D27728"/>
<path d="M11.3002 67.5739C9.59471 64.453 8.12696 61.3012 6.87627 58.1699C5.29482 70.6225 3.579 86.9297 2.67975 104.818C2.67975 104.818 32.4896 101.873 52.0354 104.043C52.0354 104.043 51.715 101.759 51.2292 97.9458C38.867 99.7543 22.205 87.5394 11.3002 67.5739Z" fill="#D27728"/>
<path d="M41.5441 35.7559L36.8514 35.849V37.3163L41.5441 37.2233V35.7559Z" fill="#85434E"/>
<path d="M19.9413 35.7559H15.2383V37.2233H19.9413V35.7559Z" fill="#85434E"/>
<path d="M2.4007 36.3752C2.4007 37.6669 3.41366 38.7209 4.65401 38.7209C5.89436 38.7209 6.90731 37.6669 6.90731 36.3752C6.90731 35.0834 5.89436 34.0293 4.65401 34.0293C3.41366 34.0293 2.4007 35.0834 2.4007 36.3752Z" fill="#FDBC5D"/>
<path d="M23.5694 7.17192C23.5694 8.46369 24.5823 9.51778 25.8227 9.51778C27.063 9.51778 28.076 8.46369 28.076 7.17192C28.076 5.88016 27.063 0 25.8227 0C24.5823 0 23.5694 5.86983 23.5694 7.17192Z" fill="#FDBC5D"/>
<path d="M27.3524 64.5352V66.7053V79.0029L25.7296 75.7683V66.7053V64.5352H19.4555L20.5512 66.7053H25.1818V75.9027L27.3524 80.2119H27.3628L29.5334 75.9027V66.7053H34.164L35.2597 64.5352H27.3524Z" fill="white"/>
<path d="M26.5358 58.5625V61.8281H24.913V63.4712H26.5358H28.1793H29.8124V61.8281H28.1793V58.5625H26.5358Z" fill="white"/>
<path d="M30.6187 71.0451H31.9934L33.089 68.875H30.6187V71.0451Z" fill="white"/>
</svg>
