<svg xmlns="http://www.w3.org/2000/svg" xmlns:xlink="http://www.w3.org/1999/xlink" viewBox="0 0 103.45 123.04"><style>.A{mix-blend-mode:screen}</style><defs><linearGradient id="A" x1="51.73" x2="51.73" y1="97.18" y2="0" gradientUnits="userSpaceOnUse"><stop offset="0" stop-color="#548458"/><stop offset=".05" stop-color="#568554"/><stop offset=".39" stop-color="#65913d"/><stop offset=".72" stop-color="#6d982f"/><stop offset="1" stop-color="#719b2b"/></linearGradient><linearGradient id="B" x1="72.41" x2="72.41" y1="123.04" y2="61.71" gradientUnits="userSpaceOnUse"><stop offset="0" stop-color="#744d62"/><stop offset=".68" stop-color="#6f4857"/><stop offset="1" stop-color="#6d4551"/></linearGradient><linearGradient xlink:href="#B" id="C" x1="68.63" x2="68.63" y1="107.87" y2="100.87"/><linearGradient id="D" x1="6.04" x2="6.04" y1="74" y2="65.52" gradientUnits="userSpaceOnUse"><stop offset="0" stop-color="#c29bab"/><stop offset="1" stop-color="#bfc2d6"/></linearGradient><linearGradient xlink:href="#D" id="E" x1="103.43" x2="6.89" y1="75.94" y2="75.94"/><linearGradient xlink:href="#A" id="F" x1="45.57" x2="45.57" y1="114.64" y2="80.81"/><linearGradient xlink:href="#D" id="G" x1="103.28" x2="10.65" y1="33.03" y2="33.03"/><linearGradient xlink:href="#D" id="H" x1="60.2" x2="60.2" y1="43.28" y2="35.85"/><linearGradient xlink:href="#D" id="I" x1="14.57" x2="14.57" y1="61.14" y2="48.59"/><linearGradient xlink:href="#D" id="J" x1="62.28" x2="87.6" y1="48.24" y2="48.24"/><linearGradient xlink:href="#D" id="K" x1="8.6" x2="38.72" y1="70.05" y2="70.05"/><linearGradient xlink:href="#D" id="L" x1="24.25" x2="48.4" y1="14.97" y2="14.97"/><linearGradient xlink:href="#D" id="M" x1="43.31" x2="43.31" y1="114.64" y2="110"/><linearGradient xlink:href="#D" id="N" x1="48.01" x2="48.01" y1="107.87" y2="84.1"/><linearGradient xlink:href="#D" id="O" x1="26.83" x2="49.41" y1="106.09" y2="106.09"/></defs><g fill-rule="evenodd"><path fill="url(#A)" d="M0 69.99c0 .29.13.6.32.9C1.43 72.52 4.99 74 4.99 74l-1.77 3.48c.46 3.65 2.01 6.22 3.67 7.95 2.25 2.39 4.68 3.22 4.68 3.22 8.86 1.93 20.42 0 20.42 0 2.13 6.94 11.2 8.53 11.2 8.53C57.07 93.87 58.8 82.56 58.8 82.56a138 138 0 0 0 6.73.42c.05 0 .11.01.18.02 3.85.37 26.34 2.92 30.83-2.18 4.61-5.24 6.68-15.42 6.89-26.11.05-2.51 0-5.05-.15-7.56-.54-9.05-2.32-17.69-4.91-23.18-.05-.11-.1-.21-.15-.31-2.51-5.13-16.06-16.54-23-16.33-6.68.2-18.02 8.56-18.72 13.61s-.04.24-.04.24c0 .12-.01.23 0 .35.18 4.96 2.34 8.59 2.34 8.59H47.03c4.64-2.37 6.78-6.74 6.92-7.05.01 0 .01-.02.01-.02.58-7.39-6.74-23.63-17.34-23.03-10.13.57-24.31 11.3-25.71 18.89v.02c-.06.34-.1.68-.1 1.01-.12 4.74 2.46 10.7 4.41 14.5 0 .03.03.05.04.07-.14-.12-.27-.25-.41-.35-.02-.02-.04-.04-.07-.06h-.01c-2.14-1.73-4.73-1.87-4.73-1.87-13.51 5.82-8.11 23.85-8.11 23.85 4.05 5.98 16.19 5.02 16.19 5.02l-6.71 6.91.35-2.48C8.67 63.6 2.51 63.6 1.35 64.18.2 64.76 0 68.03 0 69.99z"/><path fill="url(#B)" d="M88.87 123.04s-4.72-11.42-15.08-19.81l-2.89-4.05s.36-11.57-4.16-22.41-10.78-13.98-10.78-13.98l1.81-1.08s9.64 10.35 12.29 18.25c0 0 2.36-.13 3.72-6.4 1.38-6.38.9-8.03.9-8.03l1.32.14s-.1 2.43-1.15 7.33-4.1 9.26-4.1 9.26.88 12.43 2.57 16.29 15.56 13.74 15.56 13.74v10.76z"/><path fill="url(#C)" d="M59.33 100.87s6.68 2.1 15.11 2.9c0 0 3.01 1.47 4.31 4.11 0 0-7.69-3.79-16.13-4.48l-4.1-1.73.8-.8Z"/><path fill="url(#D)" d="m11.76 65.52-.35 2.49S8.88 70.83 4.99 74c0 0-3.56-1.48-4.67-3.11.77.03 2.95-.07 6.56-1.55 4.6-1.89 4.87-3.82 4.87-3.82Z" opacity=".96" style="mix-blend-mode:multiply"/><path fill="url(#E)" d="M6.89 85.43c2.25 2.39 4.68 3.22 4.68 3.22 8.86 1.93 20.42 0 20.42 0 2.13 6.94 11.2 8.53 11.2 8.53C57.07 93.87 58.8 82.56 58.8 82.56s3.45.12 6.73.42c.05 0 .11.01.18.02 3.85.37 26.34 2.92 30.83-2.18 4.61-5.24 6.68-15.42 6.89-26.11-.03 0-.06 0-.09.02-.32 4.21-1.32 7.97-3.15 9.97-5.39 5.88-20.34 3.85-29.7.31-.08-.01-.16-.02-.23-.04-3.88-.9-6.17-3.15-6.92-4-.1-.11-.2-.22-.28-.33-10.35 2.88-19.16 3.01-19.16 3.01 3.26 2.16 2.61 4.45 2.61 4.45s-10.5 15.16-21.76 16.63-17.86.7-17.86.7Z" opacity=".5" style="mix-blend-mode:multiply"/><path fill="url(#F)" d="M64.57 101.46c-.24 1.88-.76 3.69-1.34 4.57-.97 1.44-2.49 1.76-3.17 1.83H60l-.27.02h-.04l-.32 2.56-.16 1.24c-.16 1.25-24.04 5.67-30.1.57-.83-.7-1.44-1.46-1.86-2.24-2.66-4.95 1.92-11.08 4-11.73l5.16.65.53.06c-.17-.25-.27-.76-.14-1.79 0 0-4.07-1.77-5.35-5.25-.49-1.35-.57-2.94.17-4.79 1.94-4.86 15.38-8.19 19.56-5.18.85.61 1.36 1.38 1.63 2.23 1.06 3.24-1.35 7.52-1.47 7.74 3.1 1.07 10.93 2.21 12.53 3.97.87.96.99 3.31.7 5.56z"/><path fill="url(#G)" d="M14.76 34.09h.01l.07.07.37.28c3.75 2.78 9.04 2.96 9.04 2.96 9.63-.58 19.54-6.31 19.54-6.31l15.06 1.95c-.49 3.37-.36 10.24-.36 10.24.72-3.13 2.09-5.62 3.41-7.43.09-.13.19-.26.28-.38 1.44-2.04 2.69-3.15 2.69-3.15h.32c11.57-1.67 31.07-1.63 34.99 4.25 1.52 2.27 2.57 6.24 3.02 10.54.02.01.05.03.07.04-.54-9.05-2.32-17.69-4.91-23.18-7.1 2.42-22.5 5.55-30.12 4.62-9.65-1.18-11.65-7.34-11.75-7.64l-.04.23c0 .12-.01.23 0 .35.18 4.96 2.34 8.59 2.34 8.59H47.02c4.64-2.37 6.78-6.74 6.92-7.05-.1.12-.9.82-6.31 2.5-5.97 1.86-30.73 1.81-33.02.61-2.28-1.21-3.71-7.27-3.71-7.27v.02c-1.43 3.61 3.72 14.85 3.86 15.16z" opacity=".5" style="mix-blend-mode:multiply"/><path fill="url(#H)" d="M58.49 43.28c.8-3.07 2.16-5.59 3.41-7.43-1.32 1.81-2.69 4.3-3.41 7.43Z" opacity=".5" style="mix-blend-mode:multiply"/><path fill="url(#I)" d="M1.93 56.08s1.42 1.64 14.74 1.26c0 0 6.37-1.27 10.53-8.75 0 0-.94 8.89-9.09 12.5 0 0-12.08.86-16.18-5.01Z" opacity=".5" style="mix-blend-mode:multiply"/><path fill="#2c2710" d="M58.49 43.28s.6 12.14 4.57 17.36c.08.11.18.22.28.33 1.24 1.35 3.85 2.79 7.15 4.04 9.36 3.54 24.31 5.57 29.7-.31 1.83-2 2.83-5.76 3.15-9.97.18-2.47.13-5.1-.13-7.62-.45-4.3-1.5-8.27-3.02-10.54-3.92-5.88-23.42-5.92-34.99-4.26-.16.13-1.51 1.2-3.01 3.16-.09.12-.19.25-.28.38-1.32 1.81-2.69 4.3-3.41 7.43Z" class="A" opacity=".76"/><path fill="url(#J)" d="M62.28 41.89s1.81 6.61 5.54 9.1c3.74 2.49 15.66 4.13 17.71 2.91s2.06-10.14-2.89-13.63c0 0 2.71 1.27 4.1 4.34s.84 10.54.12 11.27-12.71.54-18.13-2.89-6.45-11.09-6.45-11.09z" opacity=".5" style="mix-blend-mode:multiply"/><path fill="url(#K)" d="M8.6 74.97s6.55 6.39 16.11 3.94c10.15-2.6 14.02-18.27 14.02-18.27s-3.98 12.05-14.34 15.18-15.78-.84-15.78-.84z" opacity=".5" style="mix-blend-mode:multiply"/><path fill="#2c2710" d="M8.6 74.97s2.41-6.63 9.64-11.33 20.48-4.1 20.48-4.1-2.61 11.82-12.93 15.77-17.19-.35-17.19-.35z" class="A" opacity=".76"/><path fill="url(#L)" d="M24.25 24.68s10.33 2.65 17.68 0 8.05-17.95 4.06-20.6c0 0 3.47 7.96-1.72 15.82 0 0-.58 3.5-20.01 4.78Z" opacity=".5" style="mix-blend-mode:multiply"/><path fill="url(#M)" d="M42.86 111.67c10.84-.27 15.1-.94 16.51-1.24l-.16 1.24c-.16 1.25-24.04 5.67-30.1.57-.83-.7-1.44-1.46-1.86-2.24 3.52.96 8.71 1.85 15.61 1.68z" opacity=".5" style="mix-blend-mode:multiply"/><path fill="url(#N)" d="M64.57 101.46c-.24 1.88-.76 3.69-1.34 4.57-.97 1.44-2.49 1.76-3.17 1.83H60l-.27.02h-.04s-14.96-5.25-22.44-8.69l-.15-.05-.68-.22.53.06c-.17-.25-.27-.76-.14-1.79 0 0-4.07-1.77-5.35-5.25.1.13 1.74 2.28 5.7 2.44 4.1.16 12.13-2.82 13.98-4.98 1.85-2.17 1.64-5.29 1.64-5.29l.04.08c1.06 3.24-1.35 7.52-1.47 7.74s-5.18 1.16-10.16 3.57c0 0 4.74 8.69 20.5 7.01.88-.09 2.24-.98 2.89-1.04Z" opacity=".5" style="mix-blend-mode:multiply"/><path fill="url(#O)" d="M26.83 109.03s13.62 1.02 21.49-3c0 0 .34-.9-5.01-3.47 0 0 3.56.59 6.1 3.66v1.66s-11.29 2.97-22.58 1.16Z" opacity=".5" style="mix-blend-mode:multiply"/><path fill="#2c2710" d="M1.93 56.08s1.73 1.7 14.74 1.26c0 0 6.06-.85 10.53-8.75 0 0-10.31-13.78-17.86-16.05 0 0-5.45 2.32-7.41 8.46s0 15.08 0 15.08z" class="A" opacity=".76"/></g></svg>