<svg width="385" height="461" viewBox="0 0 385 461" fill="none" xmlns="http://www.w3.org/2000/svg">
<path fill-rule="evenodd" clip-rule="evenodd" d="M20.1904 80.9873L20.2904 43.0883L30.2904 37.0883L39.2904 27.9873L43.2904 25.0883L346.29 24.9883L351.19 35.0883L356.29 39.9873L366.19 45.9873L364.29 429.987L355.29 432.088L347.29 442.987L344.29 447.987H39.2904L34.2904 437.088L23.2904 430.987L20.2904 428.987L20.1904 80.9873Z" fill="black"/>
<path fill-rule="evenodd" clip-rule="evenodd" d="M144.656 450.81C146.505 452.192 151.127 454.497 153.438 455.419C158.522 455.419 176.086 455.419 192.726 460.488C209.828 455.419 226.93 455.419 232.014 455.419C234.325 454.958 238.947 452.653 240.796 450.81H192.726H144.656Z" fill="#666666"/>
<path fill-rule="evenodd" clip-rule="evenodd" d="M144.656 450.81C146.505 452.192 151.127 454.497 153.438 455.419C158.522 455.419 176.086 455.419 192.726 460.488V450.81H144.656Z" fill="url(#paint0_linear_0_3)"/>
<path fill-rule="evenodd" clip-rule="evenodd" d="M240.796 450.81C238.947 452.192 234.325 454.497 232.014 455.419C226.93 455.419 209.366 455.419 192.726 460.488V450.81H240.796Z" fill="url(#paint1_linear_0_3)"/>
<path fill-rule="evenodd" clip-rule="evenodd" d="M39.2719 21.2688H346.18L349.878 17.1208H261.133H192.726H131.714H124.319H35.5742L39.2719 21.2688Z" fill="url(#paint2_linear_0_3)"/>
<path fill-rule="evenodd" clip-rule="evenodd" d="M346.18 21.2707H39.2715L42.9693 25.8795H342.482L346.18 21.2707Z" fill="url(#paint3_linear_0_3)"/>
<path fill-rule="evenodd" clip-rule="evenodd" d="M20.7829 40.1674C30.4894 38.3238 37.8847 30.9497 39.7336 21.2711L35.5737 16.6623C35.5737 27.2626 26.7917 36.0194 16.1608 36.0194L20.7829 40.1674Z" fill="url(#paint4_linear_0_3)"/>
<path fill-rule="evenodd" clip-rule="evenodd" d="M39.2716 21.2707C37.4227 30.9493 30.0273 38.3234 20.3209 40.1669L24.943 43.3932C33.2628 40.6278 39.7338 34.1755 42.9693 25.4187L39.2716 21.2707Z" fill="url(#paint5_linear_0_3)"/>
<path fill-rule="evenodd" clip-rule="evenodd" d="M20.7829 427.311V40.1683L16.1608 36.0203V431.459L20.7829 427.311Z" fill="url(#paint6_linear_0_3)"/>
<path fill-rule="evenodd" clip-rule="evenodd" d="M20.783 40.166V427.309L24.9429 424.083V43.8531L20.783 40.166Z" fill="url(#paint7_linear_0_3)"/>
<path fill-rule="evenodd" clip-rule="evenodd" d="M346.18 21.2711C348.029 30.9497 355.424 38.3238 365.131 40.1674L369.753 36.0194C359.122 36.0194 350.34 27.2626 350.34 16.6623L346.18 21.2711Z" fill="url(#paint8_linear_0_3)"/>
<path fill-rule="evenodd" clip-rule="evenodd" d="M364.668 40.1669C354.962 38.3234 347.567 30.9493 345.718 21.2707L342.482 25.8795C345.255 34.1755 351.726 40.6278 360.508 43.854L364.668 40.1669Z" fill="url(#paint9_linear_0_3)"/>
<path fill-rule="evenodd" clip-rule="evenodd" d="M360.508 43.8531V424.083L364.668 427.309V40.166L360.508 43.8531Z" fill="url(#paint10_linear_0_3)"/>
<path fill-rule="evenodd" clip-rule="evenodd" d="M364.669 40.1683V427.311L369.291 431.459V36.0203L364.669 40.1683Z" fill="url(#paint11_linear_0_3)"/>
<path fill-rule="evenodd" clip-rule="evenodd" d="M360.508 424.085C352.189 426.85 345.718 433.302 342.482 442.059L345.718 446.668C347.567 436.989 354.962 429.615 364.668 427.772L360.508 424.085Z" fill="url(#paint12_linear_0_3)"/>
<path fill-rule="evenodd" clip-rule="evenodd" d="M364.669 427.308C354.962 429.152 347.567 436.526 345.718 446.204L349.878 450.813C349.878 440.213 358.66 431.456 369.291 431.456L364.669 427.308Z" fill="url(#paint13_linear_0_3)"/>
<path fill-rule="evenodd" clip-rule="evenodd" d="M342.482 441.598H42.9693L39.2715 446.207H346.18L342.482 441.598Z" fill="url(#paint14_linear_0_3)"/>
<path fill-rule="evenodd" clip-rule="evenodd" d="M346.18 446.205H39.2719L35.5742 450.814H144.656H192.726H240.796H349.878L346.18 446.205Z" fill="url(#paint15_linear_0_3)"/>
<path fill-rule="evenodd" clip-rule="evenodd" d="M39.2716 446.204C37.4228 436.526 30.0273 429.152 20.3209 427.308L15.6988 431.456C26.3297 431.456 35.1117 440.213 35.1117 450.813L39.2716 446.204Z" fill="url(#paint16_linear_0_3)"/>
<path fill-rule="evenodd" clip-rule="evenodd" d="M20.783 427.31C30.4895 429.154 37.8848 436.528 39.7337 446.206L42.9692 441.597C40.1959 433.301 33.7249 426.849 24.9429 423.623L20.783 427.31Z" fill="url(#paint17_linear_0_3)"/>
<path fill-rule="evenodd" clip-rule="evenodd" d="M124.318 17.1192H261.133C258.36 13.893 253.738 10.6669 249.116 8.36244C235.249 12.9713 201.046 10.6669 192.726 0.988281C184.406 10.6669 150.202 12.9713 136.336 8.36244C131.714 10.6669 127.554 13.893 124.318 17.1192Z" fill="#CCCCCC"/>
<path fill-rule="evenodd" clip-rule="evenodd" d="M124.318 17.1192H192.726V0.988281C184.406 10.6669 150.202 12.9713 136.336 8.36244C131.714 10.6669 127.554 13.893 124.318 17.1192Z" fill="url(#paint18_linear_0_3)"/>
<path fill-rule="evenodd" clip-rule="evenodd" d="M261.133 17.1192H192.726V0.988281C201.046 10.6669 235.25 12.9713 249.116 8.36244C253.738 10.6669 257.898 13.893 261.133 17.1192Z" fill="url(#paint19_linear_0_3)"/>
<path fill-rule="evenodd" clip-rule="evenodd" d="M186.255 12.0485C172.388 17.1183 146.505 16.6574 131.714 17.1183H192.726V4.67439C192.726 8.36147 191.801 10.205 186.255 12.0485Z" fill="url(#paint20_linear_0_3)"/>
<path fill-rule="evenodd" clip-rule="evenodd" d="M20.7833 213.916L40.6584 233.734L20.7833 253.552L0.908203 233.734L20.7833 213.916ZM20.7833 221.29L8.30362 233.734L20.7833 246.178L33.263 233.734L20.7833 221.29Z" fill="#999999"/>
<path fill-rule="evenodd" clip-rule="evenodd" d="M4.60591 233.734L20.7833 217.603V213.916L0.908203 233.734H4.60591Z" fill="url(#paint21_linear_0_3)"/>
<path fill-rule="evenodd" clip-rule="evenodd" d="M20.7835 217.602L4.60608 233.733H8.30379L20.7835 221.289V217.602Z" fill="url(#paint22_linear_0_3)"/>
<path fill-rule="evenodd" clip-rule="evenodd" d="M36.961 233.734L20.7836 217.603V213.916L40.6587 233.734H36.961Z" fill="url(#paint23_linear_0_3)"/>
<path fill-rule="evenodd" clip-rule="evenodd" d="M20.7836 217.602L36.961 233.733H33.2633L20.7836 221.289V217.602Z" fill="url(#paint24_linear_0_3)"/>
<path fill-rule="evenodd" clip-rule="evenodd" d="M4.60591 233.735L20.7833 249.866V253.553L0.908203 233.735H4.60591Z" fill="url(#paint25_linear_0_3)"/>
<path fill-rule="evenodd" clip-rule="evenodd" d="M20.7835 249.866L4.60608 233.735H8.30379L20.7835 246.179V249.866Z" fill="url(#paint26_linear_0_3)"/>
<path fill-rule="evenodd" clip-rule="evenodd" d="M36.961 233.735L20.7836 249.866V253.553L40.6587 233.735H36.961Z" fill="url(#paint27_linear_0_3)"/>
<path fill-rule="evenodd" clip-rule="evenodd" d="M20.7836 249.866L36.961 233.735H33.2633L20.7836 246.179V249.866Z" fill="url(#paint28_linear_0_3)"/>
<path fill-rule="evenodd" clip-rule="evenodd" d="M8.30347 233.732L20.7832 221.288L33.2629 233.732L20.7832 246.176L8.30347 233.732Z" fill="#990099"/>
<path fill-rule="evenodd" clip-rule="evenodd" d="M12.4635 233.733L20.7833 225.898L28.6409 233.733L20.7833 242.029L12.4635 233.733Z" fill="url(#paint29_linear_0_3)"/>
<path fill-rule="evenodd" clip-rule="evenodd" d="M12.4633 233.732L20.7832 225.897V221.288L8.30347 233.732H12.4633Z" fill="url(#paint30_linear_0_3)"/>
<path fill-rule="evenodd" clip-rule="evenodd" d="M28.6412 233.732L20.7836 225.897V221.288L33.2633 233.732H28.6412Z" fill="url(#paint31_linear_0_3)"/>
<path fill-rule="evenodd" clip-rule="evenodd" d="M12.4633 233.735L20.7832 241.57V246.179L8.30347 233.735H12.4633Z" fill="url(#paint32_linear_0_3)"/>
<path fill-rule="evenodd" clip-rule="evenodd" d="M28.6412 233.735L20.7836 241.57V246.179L33.2633 233.735H28.6412Z" fill="url(#paint33_linear_0_3)"/>
<path fill-rule="evenodd" clip-rule="evenodd" d="M364.669 213.916L384.544 233.734L364.669 253.552L344.794 233.734L364.669 213.916ZM364.669 221.29L352.189 233.734L364.669 246.178L377.148 233.734L364.669 221.29Z" fill="#999999"/>
<path fill-rule="evenodd" clip-rule="evenodd" d="M348.491 233.734L364.669 217.603V213.916L344.794 233.734H348.491Z" fill="url(#paint34_linear_0_3)"/>
<path fill-rule="evenodd" clip-rule="evenodd" d="M364.669 217.602L348.492 233.733H352.189L364.669 221.289V217.602Z" fill="url(#paint35_linear_0_3)"/>
<path fill-rule="evenodd" clip-rule="evenodd" d="M380.846 233.734L364.669 217.603V213.916L384.544 233.734H380.846Z" fill="url(#paint36_linear_0_3)"/>
<path fill-rule="evenodd" clip-rule="evenodd" d="M364.669 217.602L380.846 233.733H377.149L364.669 221.289V217.602Z" fill="url(#paint37_linear_0_3)"/>
<path fill-rule="evenodd" clip-rule="evenodd" d="M348.491 233.735L364.669 249.866V253.553L344.794 233.735H348.491Z" fill="url(#paint38_linear_0_3)"/>
<path fill-rule="evenodd" clip-rule="evenodd" d="M364.669 249.866L348.492 233.735H352.189L364.669 246.179V249.866Z" fill="url(#paint39_linear_0_3)"/>
<path fill-rule="evenodd" clip-rule="evenodd" d="M380.846 233.735L364.669 249.866V253.553L384.544 233.735H380.846Z" fill="url(#paint40_linear_0_3)"/>
<path fill-rule="evenodd" clip-rule="evenodd" d="M364.669 249.866L380.846 233.735H377.149L364.669 246.179V249.866Z" fill="url(#paint41_linear_0_3)"/>
<path fill-rule="evenodd" clip-rule="evenodd" d="M352.189 233.732L364.669 221.288L377.148 233.732L364.669 246.176L352.189 233.732Z" fill="#990099"/>
<path fill-rule="evenodd" clip-rule="evenodd" d="M356.811 233.733L364.669 225.898L372.989 233.733L364.669 242.029L356.811 233.733Z" fill="url(#paint42_linear_0_3)"/>
<path fill-rule="evenodd" clip-rule="evenodd" d="M356.811 233.732L364.669 225.897V221.288L352.189 233.732H356.811Z" fill="url(#paint43_linear_0_3)"/>
<path fill-rule="evenodd" clip-rule="evenodd" d="M372.989 233.732L364.669 225.897V221.288L377.149 233.732H372.989Z" fill="url(#paint44_linear_0_3)"/>
<path fill-rule="evenodd" clip-rule="evenodd" d="M356.811 233.735L364.669 241.57V246.179L352.189 233.735H356.811Z" fill="url(#paint45_linear_0_3)"/>
<path fill-rule="evenodd" clip-rule="evenodd" d="M372.989 233.735L364.669 241.57V246.179L377.149 233.735H372.989Z" fill="url(#paint46_linear_0_3)"/>
<defs>
<linearGradient id="paint0_linear_0_3" x1="144.573" y1="455.407" x2="192.725" y2="455.407" gradientUnits="userSpaceOnUse">
<stop stop-color="#945200"/>
<stop offset="1" stop-color="#E39919"/>
</linearGradient>
<linearGradient id="paint1_linear_0_3" x1="192.726" y1="455.407" x2="240.879" y2="455.407" gradientUnits="userSpaceOnUse">
<stop stop-color="#945200"/>
<stop offset="1" stop-color="#CF8300"/>
</linearGradient>
<linearGradient id="paint2_linear_0_3" x1="192.727" y1="21.4117" x2="192.727" y2="16.9452" gradientUnits="userSpaceOnUse">
<stop stop-color="#FFF18F"/>
<stop offset="1" stop-color="#FFFAE3"/>
</linearGradient>
<linearGradient id="paint3_linear_0_3" x1="192.726" y1="25.8795" x2="192.726" y2="21.4136" gradientUnits="userSpaceOnUse">
<stop stop-color="#6E4500"/>
<stop offset="1" stop-color="#CF9353"/>
</linearGradient>
<linearGradient id="paint4_linear_0_3" x1="16.1659" y1="28.5761" x2="39.4895" y2="28.5761" gradientUnits="userSpaceOnUse">
<stop stop-color="#F5AD24"/>
<stop offset="1" stop-color="#FFE56B"/>
</linearGradient>
<linearGradient id="paint5_linear_0_3" x1="20.6449" y1="32.5255" x2="42.9332" y2="32.5255" gradientUnits="userSpaceOnUse">
<stop stop-color="#6E4500"/>
<stop offset="1" stop-color="#CF9353"/>
</linearGradient>
<linearGradient id="paint6_linear_0_3" x1="16.1659" y1="233.797" x2="20.6447" y2="233.797" gradientUnits="userSpaceOnUse">
<stop stop-color="#F5AD24"/>
<stop offset="1" stop-color="#FFE56B"/>
</linearGradient>
<linearGradient id="paint7_linear_0_3" x1="20.6448" y1="233.795" x2="25.1241" y2="233.795" gradientUnits="userSpaceOnUse">
<stop stop-color="#AB671C"/>
<stop offset="1" stop-color="#784C00"/>
</linearGradient>
<linearGradient id="paint8_linear_0_3" x1="357.624" y1="40.2042" x2="357.624" y2="16.9476" gradientUnits="userSpaceOnUse">
<stop stop-color="#F5AD24"/>
<stop offset="1" stop-color="#FFE56B"/>
</linearGradient>
<linearGradient id="paint9_linear_0_3" x1="342.518" y1="32.5255" x2="364.807" y2="32.5255" gradientUnits="userSpaceOnUse">
<stop stop-color="#CF9353"/>
<stop offset="1" stop-color="#6E4500"/>
</linearGradient>
<linearGradient id="paint10_linear_0_3" x1="360.327" y1="233.795" x2="364.807" y2="233.795" gradientUnits="userSpaceOnUse">
<stop stop-color="#D18900"/>
<stop offset="1" stop-color="#F5B41E"/>
</linearGradient>
<linearGradient id="paint11_linear_0_3" x1="364.807" y1="233.797" x2="369.286" y2="233.797" gradientUnits="userSpaceOnUse">
<stop stop-color="#AB671C"/>
<stop offset="1" stop-color="#784C00"/>
</linearGradient>
<linearGradient id="paint12_linear_0_3" x1="342.518" y1="435.067" x2="364.807" y2="435.067" gradientUnits="userSpaceOnUse">
<stop stop-color="#FFBE45"/>
<stop offset="1" stop-color="#FFF0AB"/>
</linearGradient>
<linearGradient id="paint13_linear_0_3" x1="345.963" y1="439.014" x2="369.286" y2="439.014" gradientUnits="userSpaceOnUse">
<stop stop-color="#6E4500"/>
<stop offset="1" stop-color="#CF9353"/>
</linearGradient>
<linearGradient id="paint14_linear_0_3" x1="192.726" y1="446.179" x2="192.726" y2="441.713" gradientUnits="userSpaceOnUse">
<stop stop-color="#FFBE45"/>
<stop offset="1" stop-color="#FFF0AB"/>
</linearGradient>
<linearGradient id="paint15_linear_0_3" x1="192.727" y1="450.644" x2="192.727" y2="446.177" gradientUnits="userSpaceOnUse">
<stop stop-color="#472D00"/>
<stop offset="1" stop-color="#784814"/>
</linearGradient>
<linearGradient id="paint16_linear_0_3" x1="16.1661" y1="439.014" x2="39.4898" y2="439.014" gradientUnits="userSpaceOnUse">
<stop stop-color="#CF9353"/>
<stop offset="1" stop-color="#6E4500"/>
</linearGradient>
<linearGradient id="paint17_linear_0_3" x1="20.6448" y1="435.066" x2="42.9331" y2="435.066" gradientUnits="userSpaceOnUse">
<stop stop-color="#FFF0AB"/>
<stop offset="1" stop-color="#FFBE45"/>
</linearGradient>
<linearGradient id="paint18_linear_0_3" x1="124.378" y1="8.7823" x2="192.726" y2="8.7823" gradientUnits="userSpaceOnUse">
<stop stop-color="#DE8C26"/>
<stop offset="0.7175" stop-color="#FFD24F"/>
<stop offset="1" stop-color="#FFE48A"/>
</linearGradient>
<linearGradient id="paint19_linear_0_3" x1="192.726" y1="8.7823" x2="261.074" y2="8.7823" gradientUnits="userSpaceOnUse">
<stop stop-color="#945200"/>
<stop offset="1" stop-color="#E39919"/>
</linearGradient>
<linearGradient id="paint20_linear_0_3" x1="131.785" y1="10.7645" x2="192.726" y2="10.7645" gradientUnits="userSpaceOnUse">
<stop stop-color="#473626"/>
<stop offset="1" stop-color="#E8E7B3"/>
</linearGradient>
<linearGradient id="paint21_linear_0_3" x1="0.702981" y1="223.849" x2="20.6447" y2="223.849" gradientUnits="userSpaceOnUse">
<stop stop-color="#FFF18F"/>
<stop offset="1" stop-color="#FFFAE3"/>
</linearGradient>
<linearGradient id="paint22_linear_0_3" x1="4.43183" y1="225.706" x2="20.6448" y2="225.706" gradientUnits="userSpaceOnUse">
<stop stop-color="#AB5F0B"/>
<stop offset="1" stop-color="#753C00"/>
</linearGradient>
<linearGradient id="paint23_linear_0_3" x1="20.645" y1="223.849" x2="40.5871" y2="223.849" gradientUnits="userSpaceOnUse">
<stop stop-color="#EDA85F"/>
<stop offset="1" stop-color="#A36700"/>
</linearGradient>
<linearGradient id="paint24_linear_0_3" x1="20.645" y1="225.706" x2="36.8584" y2="225.706" gradientUnits="userSpaceOnUse">
<stop stop-color="#A15900"/>
<stop offset="1" stop-color="#E39644"/>
</linearGradient>
<linearGradient id="paint25_linear_0_3" x1="0.703905" y1="243.734" x2="20.646" y2="243.734" gradientUnits="userSpaceOnUse">
<stop stop-color="#EDA85F"/>
<stop offset="1" stop-color="#A36700"/>
</linearGradient>
<linearGradient id="paint26_linear_0_3" x1="4.43275" y1="241.876" x2="20.6462" y2="241.876" gradientUnits="userSpaceOnUse">
<stop stop-color="#6E4500"/>
<stop offset="1" stop-color="#CF9353"/>
</linearGradient>
<linearGradient id="paint27_linear_0_3" x1="20.6464" y1="243.734" x2="40.5876" y2="243.734" gradientUnits="userSpaceOnUse">
<stop stop-color="#AB5F0B"/>
<stop offset="1" stop-color="#753C00"/>
</linearGradient>
<linearGradient id="paint28_linear_0_3" x1="20.6464" y1="241.876" x2="36.8589" y2="241.876" gradientUnits="userSpaceOnUse">
<stop stop-color="#FFBE45"/>
<stop offset="1" stop-color="#FFF0AB"/>
</linearGradient>
<linearGradient id="paint29_linear_0_3" x1="20.6456" y1="241.811" x2="20.6456" y2="225.769" gradientUnits="userSpaceOnUse">
<stop stop-color="#F72F2F"/>
<stop offset="1" stop-color="#FF8A8A"/>
</linearGradient>
<linearGradient id="paint30_linear_0_3" x1="16.6233" y1="229.779" x2="14.4078" y2="227.558" gradientUnits="userSpaceOnUse">
<stop stop-color="#FF8C8C"/>
<stop offset="1" stop-color="#FF5252"/>
</linearGradient>
<linearGradient id="paint31_linear_0_3" x1="20.6454" y1="227.564" x2="33.133" y2="227.564" gradientUnits="userSpaceOnUse">
<stop stop-color="#FF5E5E"/>
<stop offset="1" stop-color="#B80000"/>
</linearGradient>
<linearGradient id="paint32_linear_0_3" x1="8.15833" y1="239.999" x2="20.645" y2="239.999" gradientUnits="userSpaceOnUse">
<stop stop-color="#FF5E5E"/>
<stop offset="1" stop-color="#B80000"/>
</linearGradient>
<linearGradient id="paint33_linear_0_3" x1="26.8894" y1="239.999" x2="24.674" y2="237.777" gradientUnits="userSpaceOnUse">
<stop stop-color="#FF6666"/>
<stop offset="1" stop-color="#DE0000"/>
</linearGradient>
<linearGradient id="paint34_linear_0_3" x1="344.865" y1="223.849" x2="364.806" y2="223.849" gradientUnits="userSpaceOnUse">
<stop stop-color="#FFF18F"/>
<stop offset="1" stop-color="#FFFAE3"/>
</linearGradient>
<linearGradient id="paint35_linear_0_3" x1="348.594" y1="225.706" x2="364.807" y2="225.706" gradientUnits="userSpaceOnUse">
<stop stop-color="#AB5F0B"/>
<stop offset="1" stop-color="#753C00"/>
</linearGradient>
<linearGradient id="paint36_linear_0_3" x1="364.807" y1="223.849" x2="384.749" y2="223.849" gradientUnits="userSpaceOnUse">
<stop stop-color="#EDA85F"/>
<stop offset="1" stop-color="#A36700"/>
</linearGradient>
<linearGradient id="paint37_linear_0_3" x1="364.807" y1="225.706" x2="381.02" y2="225.706" gradientUnits="userSpaceOnUse">
<stop stop-color="#A15900"/>
<stop offset="1" stop-color="#E39644"/>
</linearGradient>
<linearGradient id="paint38_linear_0_3" x1="344.866" y1="243.734" x2="364.808" y2="243.734" gradientUnits="userSpaceOnUse">
<stop stop-color="#EDA85F"/>
<stop offset="1" stop-color="#A36700"/>
</linearGradient>
<linearGradient id="paint39_linear_0_3" x1="348.595" y1="241.876" x2="364.808" y2="241.876" gradientUnits="userSpaceOnUse">
<stop stop-color="#6E4500"/>
<stop offset="1" stop-color="#CF9353"/>
</linearGradient>
<linearGradient id="paint40_linear_0_3" x1="364.808" y1="243.734" x2="384.749" y2="243.734" gradientUnits="userSpaceOnUse">
<stop stop-color="#AB5F0B"/>
<stop offset="1" stop-color="#753C00"/>
</linearGradient>
<linearGradient id="paint41_linear_0_3" x1="364.808" y1="241.876" x2="381.021" y2="241.876" gradientUnits="userSpaceOnUse">
<stop stop-color="#FFBE45"/>
<stop offset="1" stop-color="#FFF0AB"/>
</linearGradient>
<linearGradient id="paint42_linear_0_3" x1="364.807" y1="241.811" x2="364.807" y2="225.769" gradientUnits="userSpaceOnUse">
<stop stop-color="#F72F2F"/>
<stop offset="1" stop-color="#FF8A8A"/>
</linearGradient>
<linearGradient id="paint43_linear_0_3" x1="360.785" y1="229.779" x2="358.57" y2="227.558" gradientUnits="userSpaceOnUse">
<stop stop-color="#FF8C8C"/>
<stop offset="1" stop-color="#FF5252"/>
</linearGradient>
<linearGradient id="paint44_linear_0_3" x1="364.807" y1="227.564" x2="377.294" y2="227.564" gradientUnits="userSpaceOnUse">
<stop stop-color="#FF5E5E"/>
<stop offset="1" stop-color="#B80000"/>
</linearGradient>
<linearGradient id="paint45_linear_0_3" x1="352.32" y1="239.999" x2="364.807" y2="239.999" gradientUnits="userSpaceOnUse">
<stop stop-color="#FF5E5E"/>
<stop offset="1" stop-color="#B80000"/>
</linearGradient>
<linearGradient id="paint46_linear_0_3" x1="371.051" y1="239.999" x2="368.836" y2="237.777" gradientUnits="userSpaceOnUse">
<stop stop-color="#FF6666"/>
<stop offset="1" stop-color="#DE0000"/>
</linearGradient>
</defs>
</svg>
