<svg xmlns="http://www.w3.org/2000/svg" xmlns:xlink="http://www.w3.org/1999/xlink" viewBox="0 0 542.03 338.84"><defs><linearGradient xlink:href="#a" id="g" x1="271.01" x2="271.01" y1="21.95" y2="18.85"><stop offset="0" stop-color="#6e4500"/><stop offset="1" stop-color="#cf9353"/></linearGradient><linearGradient xlink:href="#a" id="h" x1="0" x2="203.76" y1="13.58" y2="13.58"><stop offset="0" stop-color="#ba7621"/><stop offset="1" stop-color="#ffd24f"/></linearGradient><linearGradient xlink:href="#a" id="b" x1="203.76" x2="271.01" y1="9.42" y2="9.42"><stop offset="0" stop-color="#ba7014"/><stop offset=".72" stop-color="#ffd24f"/><stop offset="1" stop-color="#ffe48a"/></linearGradient><linearGradient xlink:href="#b" id="i" x1="271.01" x2="338.27"/><linearGradient xlink:href="#a" id="j" x1="338.27" x2="542.03" y1="13.58" y2="13.58"><stop offset="0" stop-color="#ba7014"/><stop offset="1" stop-color="#ffd24f"/></linearGradient><linearGradient xlink:href="#a" id="c" x1="225.54" x2="271.01" y1="9.42" y2="9.42"><stop offset="0" stop-color="#473626"/><stop offset="1" stop-color="#e8e7b3"/></linearGradient><linearGradient xlink:href="#c" id="l" x1="180.05" x2="203.76" y1="13.94" y2="13.94"/><linearGradient xlink:href="#c" id="m" x1="180.05" x2="203.75" y1="13.94" y2="13.94"/><linearGradient xlink:href="#a" id="n" x1="338.27" x2="542.03" y1="328.03" y2="328.03"><stop offset="0" stop-color="#945200"/><stop offset="1" stop-color="#e39919"/></linearGradient><linearGradient xlink:href="#a" id="d" x1="271.01" x2="338.27" y1="330.84" y2="330.84"><stop offset="0" stop-color="#945200"/><stop offset=".7" stop-color="#e39919"/><stop offset="1" stop-color="#ebab21"/></linearGradient><linearGradient xlink:href="#c" id="p" x1="325.11" x2="338.27" y1="326.8" y2="326.8"/><linearGradient xlink:href="#d" id="q" x1="0" x2="203.76" y1="328.03" y2="328.03"/><linearGradient xlink:href="#d" id="r" x1="203.76" x2="271.01"/><linearGradient xlink:href="#a" id="s" x1="271.01" x2="271.01" y1="322.84" y2="319.86"><stop offset="0" stop-color="#ffd99e"/><stop offset="1" stop-color="#ffd147"/></linearGradient><linearGradient xlink:href="#c" id="t" x1="244.11" y1="328.84" y2="328.84"/><linearGradient xlink:href="#c" id="u" x1="325.11" x2="338.28" y1="326.8" y2="326.8"/><linearGradient xlink:href="#a" id="v" x1="0" x2="3.1" y1="170.84" y2="170.84"><stop offset="0" stop-color="#f5ad24"/><stop offset="1" stop-color="#ffe56b"/></linearGradient><linearGradient xlink:href="#a" id="e" x1="3.1" x2="6.2" y1="170.84" y2="170.84"><stop offset="0" stop-color="#ab671c"/><stop offset="1" stop-color="#784c00"/></linearGradient><linearGradient xlink:href="#a" id="w" x1="535.83" x2="538.93" y1="170.9" y2="170.9"><stop offset="0" stop-color="#d18900"/><stop offset="1" stop-color="#f5b41e"/></linearGradient><linearGradient xlink:href="#e" id="x" x1="538.93" x2="542.02" y1="170.9" y2="170.9"/><linearGradient xlink:href="#a" id="y" x1="271.01" x2="271.01" y1="21.95" y2="0"><stop offset="0"/><stop offset="1" stop-color="#ffc782"/></linearGradient><linearGradient xlink:href="#a" id="z" x1="271.01" x2="271.01" y1="338.84" y2="322.84"><stop offset="0" stop-color="#b58d70"/><stop offset=".09" stop-color="#bf9d85"/><stop offset=".3" stop-color="#d6c0b0"/><stop offset=".49" stop-color="#e8dbd2"/><stop offset=".68" stop-color="#f4efeb"/><stop offset=".86" stop-color="#fcfaf9"/><stop offset="1" stop-color="#fff"/></linearGradient><linearGradient id="a" gradientUnits="userSpaceOnUse"/><path id="f" d="M6.2 21.95h529.63l6.2-6.2H373.99c-1.97 0-3.66-.93-4.71-2.59l-.71-1.12-30.29-3.72-10.46 3.72-.71 1.12c-1.05 1.66-2.74 2.59-4.71 2.59h-5.7c-3.94 0-7.32-1.86-9.42-5.19l-2.83-4.47L271.03 0l-33.42 6.09-2.83 4.47c-2.11 3.32-5.49 5.19-9.42 5.19h-5.7c-1.97 0-3.66-.93-4.71-2.59l-.71-1.12-10.46-3.72-30.29 3.72-.71 1.12c-1.05 1.66-2.74 2.59-4.71 2.59H0l6.2 6.2Z"/><path id="k" d="M180.05 18.85c3.44-.36 18.27-1.54 20.07-2.01 2.57-.67 2.65-3.76 3.64-7.82v9.83h-23.7Z"/><path id="o" d="m325.11 322.84 9.35 1.02c2.18.59 3 1.89 3.81 6.89v-7.91h-13.16z"/></defs><g fill-rule="evenodd"><use xlink:href="#f" fill="#ccc"/><path fill="url(#g)" d="M538.93 18.85H3.1l3.1 3.1h529.63l3.1-3.1z"/><path fill="url(#h)" d="M3.1 18.85h200.66V8.32l-30.29 3.72-.71 1.12c-1.05 1.66-2.74 2.59-4.71 2.59H0l3.1 3.1Z"/><path fill="url(#b)" d="M203.76 8.32v10.53h67.26V0L237.6 6.09l-2.83 4.47c-2.11 3.32-5.49 5.19-9.42 5.19h-5.7c-1.97 0-3.66-.93-4.71-2.59l-.71-1.12-10.46-3.72Z"/><path fill="url(#i)" d="M271.01 0v18.85h67.26V8.32l-10.46 3.72-.71 1.12c-1.05 1.66-2.74 2.59-4.71 2.59h-5.7c-3.94 0-7.32-1.86-9.42-5.19l-2.83-4.47L271.02 0Z"/><path fill="url(#j)" d="M338.27 8.32v10.53h200.66l3.1-3.1H373.99c-1.97 0-3.66-.93-4.71-2.59l-.71-1.12-30.29-3.72Z"/><path fill="url(#c)" d="M225.54 18.85c6.6-.7 35.04-2.95 38.49-3.85 4.93-1.29 5.08-7.22 6.98-15v18.85h-45.47Z" style="mix-blend-mode:screen"/><use xlink:href="#k" fill="url(#l)" style="mix-blend-mode:screen"/><use xlink:href="#k" x="134.52" fill="url(#m)" style="mix-blend-mode:screen"/><path fill="url(#n)" d="M338.27 333.21v-10.37h200.54l3.21 3.21H372.88c-1.9 0-3.46.99-4.32 2.67l-30.29 4.49Z"/><path fill="url(#d)" d="M271.01 322.84v16l28.29-6.38 1.21-2.36c1.3-2.55 3.76-4.05 6.62-4.05h16.35c1.9 0 3.46.99 4.32 2.67l10.46 4.49v-10.37H271Z"/><use xlink:href="#o" fill="url(#p)" opacity=".5" style="mix-blend-mode:screen"/><path fill="url(#q)" d="M203.76 333.21v-10.37H3.21L0 326.05h169.14c1.9 0 3.46.99 4.32 2.67l30.29 4.49Z"/><path fill="url(#r)" d="M271.01 322.84v16l-28.29-6.38-1.21-2.36c-1.3-2.55-3.76-4.05-6.62-4.05h-16.35c-1.9 0-3.46.99-4.32 2.67l-10.46 4.49v-10.37h67.26Z"/><path fill="url(#s)" d="M6.2 319.86h529.63l2.98 2.98H3.21l2.99-2.98z"/><path fill="url(#t)" d="M244.11 322.84c9.64.77 19.55 1.61 21.44 2.12 3.12.84 4.3 2.71 5.46 9.88v-11.99h-26.9Z" opacity=".5" style="mix-blend-mode:screen"/><use xlink:href="#o" x="-134.52" fill="url(#u)" opacity=".5" style="mix-blend-mode:screen"/><path fill="url(#v)" d="M3.1 322.84V18.85L0 15.75v310.19l3.1-3.1z"/><path fill="url(#e)" d="M3.1 18.85v303.99l.11-.11 2.99-2.99V21.95l-3.1-3.1z"/><path fill="url(#w)" d="M535.83 21.95v297.91l2.98 2.98.12.11V18.85l-3.1 3.1z"/><path fill="url(#x)" d="M538.93 18.85v304.1l3.09 3.1V15.75l-3.09 3.1z"/><use xlink:href="#f" fill="url(#y)" opacity=".75" style="mix-blend-mode:screen"/><path fill="url(#z)" d="M538.81 322.84H3.21L0 326.05h169.14c1.9 0 3.46.99 4.32 2.67l30.29 4.49 10.46-4.49c.86-1.68 2.43-2.67 4.32-2.67h16.35c2.86 0 5.32 1.5 6.62 4.05l1.21 2.36 28.29 6.38 28.29-6.38 1.21-2.36c1.3-2.55 3.76-4.05 6.62-4.05h16.35c1.9 0 3.46.99 4.32 2.67l10.46 4.49 30.29-4.49c.86-1.68 2.43-2.67 4.32-2.67H542l-3.21-3.21Z" style="mix-blend-mode:multiply"/></g></svg>