<svg width="284" height="85" viewBox="0 0 284 85" fill="none" xmlns="http://www.w3.org/2000/svg">
    <g clip-path="url(#clip0_1327_197348)">
        <mask id="mask0_1327_197348" style="mask-type:luminance" maskUnits="userSpaceOnUse" x="6" y="14" width="272"
              height="57">
            <path d="M277.774 14.9998H6.77429V70.9998H277.774V14.9998Z" fill="white"/>
        </mask>
        <g mask="url(#mask0_1327_197348)">
            <path fill-rule="evenodd" clip-rule="evenodd"
                  d="M35.3792 15.2896L14.6477 20.7556L7.73612 46.7176L11.8833 65.8477L25.7043 69.9477H270.344L277.254 42.6185L274.49 19.3896L264.815 15.2896H35.3792Z"
                  fill="#493830"/>
        </g>
        <path fill-rule="evenodd" clip-rule="evenodd"
              d="M193.327 80.75V69.3077H246.942C251.192 69.3077 255.115 68.3269 258.712 65.7115C262.308 63.4231 264.923 59.8269 267.212 55.9038C269.827 51.6538 272.115 47.0769 274.404 42.8269H283.558C281.596 51.6538 277.346 63.423 273.423 71.2692C272.115 73.8846 271.135 75.8461 270.154 77.4807C266.231 78.4615 261.327 79.4423 258.385 79.4423C256.75 75.5192 252.5 74.5384 246.615 74.5384H219.481C218.173 74.5384 216.865 75.1923 216.212 76.5L193.327 80.75Z"
              fill="url(#paint0_linear_1327_197348)"/>
        <path fill-rule="evenodd" clip-rule="evenodd"
              d="M91.327 80.75V69.3077H37.3847C33.1347 69.3077 29.2116 68.3269 25.6154 65.7115C22.0193 63.4231 19.4039 59.8269 17.1154 55.9038C14.5001 51.6538 12.2116 47.4038 9.92312 42.8269H0.769287C2.73083 51.6538 6.98082 63.423 10.9039 71.2692C12.2116 73.8846 13.1924 75.8461 14.1731 77.4807C18.0962 78.4615 23 79.4423 25.9424 79.4423C27.577 75.5192 31.827 74.5384 37.7116 74.5384H64.8462C66.1539 74.5384 67.4616 75.1923 68.1154 76.5L91.327 80.75Z"
              fill="url(#paint1_linear_1327_197348)"/>
        <path fill-rule="evenodd" clip-rule="evenodd"
              d="M276.692 44.134C274.404 48.711 272.115 53.2879 269.5 57.5379C267.212 61.461 264.269 65.384 260.346 67.9994C256.423 70.6148 251.846 71.9225 246.942 71.9225H37.3847C32.4808 71.9225 28.2309 70.9417 23.9809 67.9994C20.0578 65.384 17.4424 61.461 14.827 57.5379C12.2116 53.2879 9.92316 48.711 7.6347 44.134L6.98083 43.1533L7.6347 42.1725C9.92316 37.5956 12.2116 33.0186 14.827 28.7686C17.1155 24.8456 20.0578 20.9225 23.9809 18.3071C27.9039 15.6917 32.4808 14.384 37.3847 14.384H246.942C251.846 14.384 256.096 15.3648 260.346 18.3071C264.269 20.9225 266.885 24.8456 269.5 28.7686C272.115 33.0186 274.404 37.5956 276.692 42.1725L277.346 43.1533L276.692 44.134ZM9.92315 43.1533C12.2116 47.7302 14.5001 51.9802 17.1155 56.2302C19.4039 59.8263 22.0193 63.4225 25.6155 66.0379C29.2116 68.6533 33.1347 69.634 37.3847 69.634H246.942C251.192 69.634 255.115 68.6533 258.712 66.0379C262.308 63.7494 264.923 60.1533 267.212 56.2302C269.827 51.9802 272.115 47.4033 274.404 43.1533C272.115 38.5763 269.827 34.3263 267.212 30.0763C264.923 26.4802 262.308 22.884 258.712 20.2686C255.115 17.6533 251.192 16.6725 246.942 16.6725H37.3847C33.1347 16.6725 29.2116 17.6533 25.6155 20.2686C22.0193 22.5571 19.4039 26.1533 17.1155 30.0763C14.5001 34.3263 12.2116 38.9033 9.92315 43.1533Z"
              fill="#C0C0C0"/>
        <path fill-rule="evenodd" clip-rule="evenodd"
              d="M15.1539 28.7691C17.4423 24.846 20.3847 20.9229 24.3077 18.3076C28.2308 15.6922 32.8077 14.3845 37.7116 14.3845H91.327V6.53833L68.4424 9.48064L67.7885 10.4614C67.1347 11.7691 65.827 12.4229 64.1923 12.4229H37.0577C31.1731 12.4229 27.2501 11.4422 25.2885 7.5191C22.0193 7.84603 17.4423 8.49987 13.5193 9.48064C9.26927 16.346 3.05775 32.0383 0.769287 43.1537H7.30775L7.96159 42.173C10.25 37.596 12.5385 33.0191 15.1539 28.7691Z"
              fill="url(#paint2_linear_1327_197348)"/>
        <path fill-rule="evenodd" clip-rule="evenodd"
              d="M91.327 6.53822V14.3844H142.327V-0.000244141L116.827 4.57668L114.539 7.84591C112.904 10.4613 110.288 11.769 107.346 11.769H103.096C101.462 11.769 100.481 11.1151 99.5 9.80745L98.8462 8.82668L91.327 6.53822Z"
              fill="url(#paint3_linear_1327_197348)"/>
        <path fill-rule="evenodd" clip-rule="evenodd"
              d="M142.327 0.326904V14.7115H193.327V6.86537L185.481 9.80767L184.827 10.7884C184.173 12.0961 182.865 12.75 181.231 12.75H176.981C174.039 12.75 171.423 11.4423 169.789 8.82691L167.5 5.55767L142.327 0.326904Z"
              fill="url(#paint4_linear_1327_197348)"/>
        <path fill-rule="evenodd" clip-rule="evenodd"
              d="M193.327 6.53833V14.3845H246.942C251.846 14.3845 256.096 15.3653 260.346 18.3076C264.269 20.9229 266.885 24.846 269.5 28.7691C272.115 33.0191 274.404 37.596 276.692 42.173L277.346 43.1537H283.885C281.596 32.3653 275.385 16.346 271.135 9.48064C267.212 8.49987 262.308 7.5191 259.365 7.5191C257.731 11.4422 253.481 12.4229 247.596 12.4229H220.462C218.827 12.4229 217.846 11.7691 216.865 10.4614L216.212 9.48064L193.327 6.53833Z"
              fill="url(#paint5_linear_1327_197348)"/>
        <path fill-rule="evenodd" clip-rule="evenodd"
              d="M73.3462 14.7119C75.9616 14.3849 87.077 13.4042 88.7116 13.0772C90.6731 12.4234 90.6731 10.1349 91.327 7.19263V14.7119H73.3462Z"
              fill="url(#paint6_linear_1327_197348)"/>
        <path fill-rule="evenodd" clip-rule="evenodd"
              d="M175.346 14.7119C177.962 14.3849 189.077 13.4042 190.712 13.0772C192.673 12.4234 192.673 10.1349 193.327 7.19263V14.7119H175.346Z"
              fill="url(#paint7_linear_1327_197348)"/>
        <path fill-rule="evenodd" clip-rule="evenodd"
              d="M91.327 71.9231V74.2116V80.75L99.1731 77.4808C99.8269 76.1731 101.135 75.5193 102.442 75.5193H114.865C117.154 75.5193 118.788 76.5 119.769 78.4616L120.75 80.0962L142.327 85V74.2116V71.9231H91.327Z"
              fill="url(#paint8_linear_1327_197348)"/>
        <path fill-rule="evenodd" clip-rule="evenodd"
              d="M142.327 71.9231V74.2116V85L163.904 80.0962L164.885 78.4616C165.865 76.5 167.827 75.5193 169.789 75.5193H182.212C183.519 75.5193 184.827 76.1731 185.481 77.4808L193.327 80.75V74.2116V71.9231H142.327Z"
              fill="url(#paint9_linear_1327_197348)"/>
        <path opacity="0.5" fill-rule="evenodd" clip-rule="evenodd"
              d="M67.1347 71.9231C70.7309 72.25 86.4232 73.2308 88.3847 73.8846C90.0193 74.2116 90.6731 75.1923 91.327 79.1154V71.9231H67.1347Z"
              fill="url(#paint10_linear_1327_197348)"/>
        <path opacity="0.5" fill-rule="evenodd" clip-rule="evenodd"
              d="M107.673 71.9231C112.577 72.5769 135.462 73.8846 138.077 74.5385C140.365 75.1923 141.346 76.5 142.327 82.0577V71.9231H107.673Z"
              fill="url(#paint11_linear_1327_197348)"/>
        <path opacity="0.5" fill-rule="evenodd" clip-rule="evenodd"
              d="M169.135 71.9231C172.731 72.25 188.423 73.2308 190.385 73.8846C192.019 74.2116 192.673 75.1923 193.327 79.1154V71.9231H169.135Z"
              fill="url(#paint12_linear_1327_197348)"/>
        <path fill-rule="evenodd" clip-rule="evenodd"
              d="M267.539 30.0763C270.154 34.3263 272.442 38.9033 274.731 43.1533H277.346L276.692 42.1725C274.404 37.5956 272.115 33.0186 269.5 28.7686C267.212 24.8456 264.269 20.9225 260.346 18.3071C256.423 15.6917 251.846 14.384 246.942 14.384H37.3847C32.4808 14.384 28.2309 15.3648 23.9809 18.3071C20.0578 20.9225 17.4424 24.8456 14.827 28.7686C12.2116 33.0186 9.92316 37.5956 7.6347 42.1725L6.98083 43.1533H9.59623C11.8847 38.5763 14.1731 34.3263 16.7885 30.0763C19.077 26.4802 21.6924 22.884 25.2885 20.2686C28.8847 17.6533 32.8078 16.6725 37.0578 16.6725H246.615C250.865 16.6725 254.789 17.6533 258.385 20.2686C262.635 22.884 265.25 26.4802 267.539 30.0763Z"
              fill="url(#paint13_linear_1327_197348)"/>
        <path fill-rule="evenodd" clip-rule="evenodd"
              d="M274.404 43.1541C272.115 47.731 269.827 51.981 267.212 56.231C264.923 59.8271 262.308 63.4233 258.712 66.0387C255.115 68.6541 251.192 69.6348 246.942 69.6348H168.481H115.846H37.3847C33.1347 69.6348 29.2116 68.6541 25.6154 66.0387C22.0193 63.7502 19.4039 60.1541 17.1154 56.231C14.5 51.981 12.2116 47.4041 9.92311 43.1541H7.30774L7.96158 44.1348C10.25 48.7117 12.5385 53.2887 15.1539 57.5387C17.4423 61.4618 20.3847 65.3848 24.3077 68.0002C28.2308 70.6156 32.8077 71.9233 37.7116 71.9233H117.481H167.827H247.596C252.5 71.9233 256.75 70.9425 261 68.0002C264.923 65.3848 267.538 61.4618 270.154 57.5387C272.769 53.2887 275.058 48.7117 277.346 44.1348L278 43.1541H274.404Z"
              fill="url(#paint14_linear_1327_197348)"/>
        <path fill-rule="evenodd" clip-rule="evenodd"
              d="M107.673 14.7115C112.577 14.0577 134.154 12.4231 136.769 11.7692C140.365 10.7884 140.692 6.21152 142 0.326904V14.7115H107.673Z"
              fill="url(#paint15_linear_1327_197348)"/>
    </g>
    <defs>
        <linearGradient id="paint0_linear_1327_197348" x1="193.33" y1="62.0261" x2="283.765" y2="62.0261"
                        gradientUnits="userSpaceOnUse">
            <stop stop-color="#C0C0C0"/>
            <stop offset="1" stop-color="#959594"/>
        </linearGradient>
        <linearGradient id="paint1_linear_1327_197348" x1="0.813422" y1="61.9833" x2="91.2302" y2="61.9833"
                        gradientUnits="userSpaceOnUse">
            <stop stop-color="#C0C0C0"/>
            <stop offset="0.7026" stop-color="#959594"/>
            <stop offset="1" stop-color="#959594"/>
        </linearGradient>
        <linearGradient id="paint2_linear_1327_197348" x1="0.813422" y1="24.913" x2="91.2485" y2="24.913"
                        gradientUnits="userSpaceOnUse">
            <stop stop-color="#C0C0C0"/>
            <stop offset="1" stop-color="#959594"/>
        </linearGradient>
        <linearGradient id="paint3_linear_1327_197348" x1="91.2485" y1="7.45426" x2="142.289" y2="7.45426"
                        gradientUnits="userSpaceOnUse">
            <stop stop-color="#C0C0C0"/>
            <stop offset="0.7175" stop-color="#959594"/>
            <stop offset="1" stop-color="#959594"/>
        </linearGradient>
        <linearGradient id="paint4_linear_1327_197348" x1="142.289" y1="7.45448" x2="193.33" y2="7.45448"
                        gradientUnits="userSpaceOnUse">
            <stop stop-color="#C0C0C0"/>
            <stop offset="0.7175" stop-color="#959594"/>
            <stop offset="1" stop-color="#959594"/>
        </linearGradient>
        <linearGradient id="paint5_linear_1327_197348" x1="193.33" y1="24.913" x2="283.765" y2="24.913"
                        gradientUnits="userSpaceOnUse">
            <stop stop-color="#C0C0C0"/>
            <stop offset="1" stop-color="#959594"/>
        </linearGradient>
        <linearGradient id="paint6_linear_1327_197348" x1="73.2609" y1="10.8787" x2="91.2485" y2="10.8787"
                        gradientUnits="userSpaceOnUse">
            <stop stop-color="#C0C0C0"/>
            <stop offset="1" stop-color="#959594"/>
        </linearGradient>
        <linearGradient id="paint7_linear_1327_197348" x1="175.342" y1="10.8787" x2="193.33" y2="10.8787"
                        gradientUnits="userSpaceOnUse">
            <stop stop-color="#C0C0C0"/>
            <stop offset="1" stop-color="#959594"/>
        </linearGradient>
        <linearGradient id="paint8_linear_1327_197348" x1="91.2485" y1="78.4632" x2="142.289" y2="78.4632"
                        gradientUnits="userSpaceOnUse">
            <stop stop-color="#C0C0C0"/>
            <stop offset="0.7026" stop-color="#959594"/>
            <stop offset="1" stop-color="#959594"/>
        </linearGradient>
        <linearGradient id="paint9_linear_1327_197348" x1="142.289" y1="78.4632" x2="193.33" y2="78.4632"
                        gradientUnits="userSpaceOnUse">
            <stop stop-color="#C0C0C0"/>
            <stop offset="0.7026" stop-color="#959594"/>
            <stop offset="1" stop-color="#959594"/>
        </linearGradient>
        <linearGradient id="paint10_linear_1327_197348" x1="67.1645" y1="75.3927" x2="91.2485" y2="75.3927"
                        gradientUnits="userSpaceOnUse">
            <stop stop-color="#C0C0C0"/>
            <stop offset="1" stop-color="#959594"/>
        </linearGradient>
        <linearGradient id="paint11_linear_1327_197348" x1="107.784" y1="76.942" x2="142.289" y2="76.942"
                        gradientUnits="userSpaceOnUse">
            <stop stop-color="#C0C0C0"/>
            <stop offset="1" stop-color="#959594"/>
        </linearGradient>
        <linearGradient id="paint12_linear_1327_197348" x1="169.246" y1="75.3927" x2="193.33" y2="75.3927"
                        gradientUnits="userSpaceOnUse">
            <stop stop-color="#C0C0C0"/>
            <stop offset="1" stop-color="#959594"/>
        </linearGradient>
        <linearGradient id="paint13_linear_1327_197348" x1="142.289" y1="43.2085" x2="142.289" y2="14.606"
                        gradientUnits="userSpaceOnUse">
            <stop stop-color="#C0C0C0"/>
            <stop offset="1" stop-color="#959594"/>
        </linearGradient>
        <linearGradient id="paint14_linear_1327_197348" x1="142.289" y1="71.8118" x2="142.289" y2="43.2093"
                        gradientUnits="userSpaceOnUse">
            <stop stop-color="#C0C0C0"/>
            <stop offset="1" stop-color="#959594"/>
        </linearGradient>
        <linearGradient id="paint15_linear_1327_197348" x1="107.784" y1="7.45448" x2="142.289" y2="7.45448"
                        gradientUnits="userSpaceOnUse">
            <stop stop-color="#C0C0C0"/>
            <stop offset="1" stop-color="#959594"/>
        </linearGradient>
        <clipPath id="clip0_1327_197348">
            <rect width="284" height="85" fill="white"/>
        </clipPath>
    </defs>
</svg>
