<svg width="284" height="85" viewBox="0 0 284 85" fill="none" xmlns="http://www.w3.org/2000/svg">
    <g clip-path="url(#clip0_1368_198074)">
        <path fill-rule="evenodd" clip-rule="evenodd"
              d="M34.6294 15.2899L13.8979 20.7559L6.98633 46.718L11.1335 65.848L24.9545 69.9481H269.594L276.505 42.619L273.74 19.39L264.065 15.2899H34.6294Z"
              fill="#493830"/>
    </g>
    <path fill-rule="evenodd" clip-rule="evenodd"
          d="M192.577 80.7502V69.3079H246.193C250.443 69.3079 254.366 68.3271 257.962 65.7118C261.558 63.4233 264.173 59.8271 266.462 55.9041C269.077 51.6541 271.366 47.0771 273.654 42.8271H282.808C280.846 51.6541 276.596 63.4233 272.673 71.2694C271.366 73.8848 270.385 75.8464 269.404 77.481C265.481 78.4618 260.577 79.4425 257.635 79.4425C256 75.5194 251.75 74.5387 245.866 74.5387H218.731C217.423 74.5387 216.116 75.1925 215.462 76.5002L192.577 80.7502Z"
          fill="url(#paint0_linear_1368_198074)"/>
    <path fill-rule="evenodd" clip-rule="evenodd"
          d="M90.5772 80.7502V69.3079H36.6349C32.3849 69.3079 28.4618 68.3271 24.8657 65.7118C21.2695 63.4233 18.6541 59.8271 16.3657 55.9041C13.7503 51.6541 11.4618 47.4041 9.17336 42.8271H0.0195312C1.98107 51.6541 6.23106 63.4233 10.1541 71.2694C11.4618 73.8848 12.4426 75.8464 13.4234 77.481C17.3464 78.4618 22.2503 79.4425 25.1926 79.4425C26.8272 75.5194 31.0772 74.5387 36.9618 74.5387H64.0964C65.4041 74.5387 66.7118 75.1925 67.3657 76.5002L90.5772 80.7502Z"
          fill="url(#paint1_linear_1368_198074)"/>
    <path fill-rule="evenodd" clip-rule="evenodd"
          d="M275.943 44.1343C273.654 48.7112 271.366 53.2881 268.75 57.5381C266.462 61.4612 263.519 65.3843 259.596 67.9997C255.673 70.615 251.096 71.9227 246.193 71.9227H36.6348C31.731 71.9227 27.481 70.942 23.231 67.9997C19.3079 65.3843 16.6925 61.4612 14.0771 57.5381C11.4617 53.2881 9.17328 48.7112 6.88482 44.1343L6.23096 43.1535L6.88482 42.1727C9.17328 37.5958 11.4617 33.0189 14.0771 28.7689C16.3656 24.8458 19.3079 20.9227 23.231 18.3074C27.154 15.692 31.731 14.3843 36.6348 14.3843H246.193C251.096 14.3843 255.346 15.365 259.596 18.3074C263.519 20.9227 266.135 24.8458 268.75 28.7689C271.366 33.0189 273.654 37.5958 275.943 42.1727L276.596 43.1535L275.943 44.1343ZM9.17327 43.1535C11.4617 47.7304 13.7502 51.9804 16.3656 56.2304C18.6541 59.8266 21.2694 63.4227 24.8656 66.0381C28.4617 68.6535 32.3848 69.6343 36.6348 69.6343H246.193C250.443 69.6343 254.366 68.6535 257.962 66.0381C261.558 63.7497 264.173 60.1535 266.462 56.2304C269.077 51.9804 271.366 47.4035 273.654 43.1535C271.366 38.5766 269.077 34.3266 266.462 30.0766C264.173 26.4804 261.558 22.8843 257.962 20.2689C254.366 17.6535 250.443 16.6727 246.193 16.6727H36.6348C32.3848 16.6727 28.4617 17.6535 24.8656 20.2689C21.2694 22.5574 18.6541 26.1535 16.3656 30.0766C13.7502 34.3266 11.4617 38.9035 9.17327 43.1535Z"
          fill="#763C28"/>
    <path fill-rule="evenodd" clip-rule="evenodd"
          d="M14.4041 28.7693C16.6926 24.8463 19.6349 20.9232 23.558 18.3078C27.4811 15.6924 32.058 14.3847 36.9618 14.3847H90.5772V6.53857L67.6926 9.48089L67.0388 10.4617C66.3849 11.7693 65.0772 12.4232 63.4426 12.4232H36.308C30.4234 12.4232 26.5003 11.4424 24.5388 7.51935C21.2695 7.84627 16.6926 8.50012 12.7695 9.48089C8.51951 16.3463 2.30799 32.0386 0.0195312 43.154H6.55799L7.21183 42.1732C9.50029 37.5963 11.7887 33.0193 14.4041 28.7693Z"
          fill="url(#paint2_linear_1368_198074)"/>
    <path fill-rule="evenodd" clip-rule="evenodd"
          d="M90.5771 6.53846V14.3846H141.577V0L116.077 4.57693L113.789 7.84616C112.154 10.4615 109.539 11.7692 106.596 11.7692H102.346C100.712 11.7692 99.731 11.1154 98.7502 9.80769L98.0964 8.82693L90.5771 6.53846Z"
          fill="url(#paint3_linear_1368_198074)"/>
    <path fill-rule="evenodd" clip-rule="evenodd"
          d="M141.577 0.327148V14.7118H192.577V6.86561L184.731 9.80792L184.077 10.7887C183.423 12.0964 182.116 12.7502 180.481 12.7502H176.231C173.289 12.7502 170.673 11.4425 169.039 8.82715L166.75 5.55792L141.577 0.327148Z"
          fill="url(#paint4_linear_1368_198074)"/>
    <path fill-rule="evenodd" clip-rule="evenodd"
          d="M192.577 6.53857V14.3847H246.193C251.096 14.3847 255.346 15.3655 259.596 18.3078C263.519 20.9232 266.135 24.8463 268.75 28.7693C271.366 33.0193 273.654 37.5963 275.943 42.1732L276.596 43.154H283.135C280.846 32.3655 274.635 16.3463 270.385 9.48089C266.462 8.50012 261.558 7.51935 258.616 7.51935C256.981 11.4424 252.731 12.4232 246.846 12.4232H219.712C218.077 12.4232 217.096 11.7693 216.116 10.4617L215.462 9.48089L192.577 6.53857Z"
          fill="url(#paint5_linear_1368_198074)"/>
    <path fill-rule="evenodd" clip-rule="evenodd"
          d="M72.5967 14.7121C75.2121 14.3852 86.3274 13.4044 87.9621 13.0775C89.9236 12.4236 89.9236 10.1352 90.5774 7.19287V14.7121H72.5967Z"
          fill="url(#paint6_linear_1368_198074)"/>
    <path fill-rule="evenodd" clip-rule="evenodd"
          d="M174.597 14.7121C177.212 14.3852 188.327 13.4044 189.962 13.0775C191.924 12.4236 191.924 10.1352 192.577 7.19287V14.7121H174.597Z"
          fill="url(#paint7_linear_1368_198074)"/>
    <path fill-rule="evenodd" clip-rule="evenodd"
          d="M90.5771 71.9233V74.2118V80.7503L98.4233 77.481C99.0771 76.1733 100.385 75.5195 101.693 75.5195H114.116C116.404 75.5195 118.039 76.5003 119.019 78.4618L120 80.0964L141.577 85.0003V74.2118V71.9233H90.5771Z"
          fill="url(#paint8_linear_1368_198074)"/>
    <path fill-rule="evenodd" clip-rule="evenodd"
          d="M141.577 71.9233V74.2118V85.0003L163.154 80.0964L164.135 78.4618C165.116 76.5003 167.077 75.5195 169.039 75.5195H181.462C182.769 75.5195 184.077 76.1733 184.731 77.481L192.577 80.7503V74.2118V71.9233H141.577Z"
          fill="url(#paint9_linear_1368_198074)"/>
    <path opacity="0.5" fill-rule="evenodd" clip-rule="evenodd"
          d="M66.3848 71.9233C69.9809 72.2503 85.6732 73.231 87.6348 73.8849C89.2694 74.2118 89.9232 75.1926 90.5771 79.1157V71.9233H66.3848Z"
          fill="url(#paint10_linear_1368_198074)"/>
    <path opacity="0.5" fill-rule="evenodd" clip-rule="evenodd"
          d="M106.923 71.9233C111.827 72.5772 134.712 73.8849 137.327 74.5387C139.616 75.1926 140.596 76.5003 141.577 82.058V71.9233H106.923Z"
          fill="url(#paint11_linear_1368_198074)"/>
    <path opacity="0.5" fill-rule="evenodd" clip-rule="evenodd"
          d="M168.385 71.9233C171.981 72.2503 187.673 73.231 189.635 73.8849C191.269 74.2118 191.923 75.1926 192.577 79.1157V71.9233H168.385Z"
          fill="url(#paint12_linear_1368_198074)"/>
    <path fill-rule="evenodd" clip-rule="evenodd"
          d="M266.789 30.0766C269.404 34.3266 271.693 38.9035 273.981 43.1535H276.596L275.943 42.1727C273.654 37.5958 271.366 33.0189 268.75 28.7689C266.462 24.8458 263.519 20.9227 259.596 18.3074C255.673 15.692 251.096 14.3843 246.193 14.3843H36.6348C31.731 14.3843 27.481 15.365 23.231 18.3074C19.3079 20.9227 16.6925 24.8458 14.0771 28.7689C11.4617 33.0189 9.17328 37.5958 6.88482 42.1727L6.23096 43.1535H8.84635C11.1348 38.5766 13.4233 34.3266 16.0386 30.0766C18.3271 26.4804 20.9425 22.8843 24.5387 20.2689C28.1348 17.6535 32.0579 16.6727 36.3079 16.6727H245.866C250.116 16.6727 254.039 17.6535 257.635 20.2689C261.885 22.8843 264.5 26.4804 266.789 30.0766Z"
          fill="url(#paint13_linear_1368_198074)"/>
    <path fill-rule="evenodd" clip-rule="evenodd"
          d="M273.654 43.1543C271.366 47.7312 269.077 51.9812 266.462 56.2312C264.173 59.8274 261.558 63.4235 257.962 66.0389C254.366 68.6543 250.443 69.6351 246.193 69.6351H167.731H115.097H36.635C32.385 69.6351 28.4619 68.6543 24.8658 66.0389C21.2696 63.7505 18.6543 60.1543 16.3658 56.2312C13.7504 51.9812 11.4619 47.4043 9.17348 43.1543H6.55811L7.21194 44.1351C9.5004 48.712 11.7889 53.2889 14.4042 57.5389C16.6927 61.462 19.635 65.3851 23.5581 68.0004C27.4812 70.6158 32.0581 71.9235 36.9619 71.9235H116.731H167.077H246.847C251.75 71.9235 256 70.9428 260.25 68.0004C264.173 65.3851 266.789 61.462 269.404 57.5389C272.02 53.2889 274.308 48.712 276.597 44.1351L277.25 43.1543H273.654Z"
          fill="url(#paint14_linear_1368_198074)"/>
    <path fill-rule="evenodd" clip-rule="evenodd"
          d="M106.923 14.7118C111.827 14.0579 133.404 12.4233 136.019 11.7695C139.616 10.7887 139.943 6.21176 141.25 0.327148V14.7118H106.923Z"
          fill="url(#paint15_linear_1368_198074)"/>
    <defs>
        <linearGradient id="paint0_linear_1368_198074" x1="192.58" y1="62.0264" x2="283.015" y2="62.0264"
                        gradientUnits="userSpaceOnUse">
            <stop stop-color="#763C28"/>
            <stop offset="1" stop-color="#866A60"/>
        </linearGradient>
        <linearGradient id="paint1_linear_1368_198074" x1="0.0636659" y1="61.9835" x2="90.4804" y2="61.9835"
                        gradientUnits="userSpaceOnUse">
            <stop stop-color="#763C28"/>
            <stop offset="0.7026" stop-color="#866A60"/>
            <stop offset="1" stop-color="#866A60"/>
        </linearGradient>
        <linearGradient id="paint2_linear_1368_198074" x1="0.0636659" y1="24.9133" x2="90.4988" y2="24.9133"
                        gradientUnits="userSpaceOnUse">
            <stop stop-color="#763C28"/>
            <stop offset="1" stop-color="#866A60"/>
        </linearGradient>
        <linearGradient id="paint3_linear_1368_198074" x1="90.4987" y1="7.4545" x2="141.539" y2="7.4545"
                        gradientUnits="userSpaceOnUse">
            <stop stop-color="#763C28"/>
            <stop offset="0.7175" stop-color="#866A60"/>
            <stop offset="1" stop-color="#866A60"/>
        </linearGradient>
        <linearGradient id="paint4_linear_1368_198074" x1="141.539" y1="7.45472" x2="192.58" y2="7.45472"
                        gradientUnits="userSpaceOnUse">
            <stop stop-color="#763C28"/>
            <stop offset="0.7175" stop-color="#866A60"/>
            <stop offset="1" stop-color="#866A60"/>
        </linearGradient>
        <linearGradient id="paint5_linear_1368_198074" x1="192.58" y1="24.9133" x2="283.015" y2="24.9133"
                        gradientUnits="userSpaceOnUse">
            <stop stop-color="#763C28"/>
            <stop offset="1" stop-color="#866A60"/>
        </linearGradient>
        <linearGradient id="paint6_linear_1368_198074" x1="72.5114" y1="10.8789" x2="90.499" y2="10.8789"
                        gradientUnits="userSpaceOnUse">
            <stop stop-color="#763C28"/>
            <stop offset="1" stop-color="#866A60"/>
        </linearGradient>
        <linearGradient id="paint7_linear_1368_198074" x1="174.592" y1="10.8789" x2="192.58" y2="10.8789"
                        gradientUnits="userSpaceOnUse">
            <stop stop-color="#763C28"/>
            <stop offset="1" stop-color="#866A60"/>
        </linearGradient>
        <linearGradient id="paint8_linear_1368_198074" x1="90.4987" y1="78.4634" x2="141.539" y2="78.4634"
                        gradientUnits="userSpaceOnUse">
            <stop stop-color="#763C28"/>
            <stop offset="0.7026" stop-color="#866A60"/>
            <stop offset="1" stop-color="#866A60"/>
        </linearGradient>
        <linearGradient id="paint9_linear_1368_198074" x1="141.539" y1="78.4634" x2="192.58" y2="78.4634"
                        gradientUnits="userSpaceOnUse">
            <stop stop-color="#763C28"/>
            <stop offset="0.7026" stop-color="#866A60"/>
            <stop offset="1" stop-color="#866A60"/>
        </linearGradient>
        <linearGradient id="paint10_linear_1368_198074" x1="66.4145" y1="75.393" x2="90.4986" y2="75.393"
                        gradientUnits="userSpaceOnUse">
            <stop stop-color="#763C28"/>
            <stop offset="1" stop-color="#866A60"/>
        </linearGradient>
        <linearGradient id="paint11_linear_1368_198074" x1="107.034" y1="76.9423" x2="141.539" y2="76.9423"
                        gradientUnits="userSpaceOnUse">
            <stop stop-color="#763C28"/>
            <stop offset="1" stop-color="#866A60"/>
        </linearGradient>
        <linearGradient id="paint12_linear_1368_198074" x1="168.496" y1="75.393" x2="192.58" y2="75.393"
                        gradientUnits="userSpaceOnUse">
            <stop stop-color="#763C28"/>
            <stop offset="1" stop-color="#866A60"/>
        </linearGradient>
        <linearGradient id="paint13_linear_1368_198074" x1="141.539" y1="43.2088" x2="141.539" y2="14.6063"
                        gradientUnits="userSpaceOnUse">
            <stop stop-color="#763C28"/>
            <stop offset="1" stop-color="#866A60"/>
        </linearGradient>
        <linearGradient id="paint14_linear_1368_198074" x1="141.539" y1="71.812" x2="141.539" y2="43.2095"
                        gradientUnits="userSpaceOnUse">
            <stop stop-color="#763C28"/>
            <stop offset="1" stop-color="#866A60"/>
        </linearGradient>
        <linearGradient id="paint15_linear_1368_198074" x1="107.034" y1="7.45472" x2="141.539" y2="7.45472"
                        gradientUnits="userSpaceOnUse">
            <stop stop-color="#763C28"/>
            <stop offset="1" stop-color="#866A60"/>
        </linearGradient>
        <clipPath id="clip0_1368_198074">
            <rect width="271" height="56" fill="white" transform="translate(6.02441 15)"/>
        </clipPath>
    </defs>
</svg>
