<svg xmlns="http://www.w3.org/2000/svg" viewBox="0 0 21.58 21.57">
  <defs>
    <linearGradient id="a" x1=".001" x2="1" y1=".5" y2=".5">
      <stop offset="0" stop-color="#f5d36c"/>
      <stop offset="1" stop-color="#fff5b0"/>
    </linearGradient>
    <linearGradient id="b" x2="1" y1=".5" y2=".5">
      <stop offset="0" stop-color="#ffdd6e"/>
      <stop offset="1" stop-color="#d69705"/>
    </linearGradient>
    <linearGradient id="c" x2="1" y1=".5" y2=".5">
      <stop offset="0" stop-color="#6b4200"/>
      <stop offset="1" stop-color="#a87219"/>
    </linearGradient>
    <linearGradient id="d" x2=".999" y1=".5" y2=".5">
      <stop offset="0" stop-color="#a36808"/>
      <stop offset="1" stop-color="#bf8800"/>
    </linearGradient>
    <linearGradient id="e" x1=".602" x2=".435" y1=".602" y2=".435">
      <stop offset="0" stop-color="#fff"/>
      <stop offset=".12" stop-color="#fafafa"/>
      <stop offset=".25" stop-color="#eee"/>
      <stop offset=".37" stop-color="#dadada"/>
      <stop offset=".5" stop-color="#bdbdbd"/>
      <stop offset=".63" stop-color="#999"/>
      <stop offset=".76" stop-color="#6b6b6b"/>
      <stop offset=".88" stop-color="#373737"/>
      <stop offset="1"/>
    </linearGradient>
    <linearGradient id="f" x1=".809" x2=".449" y1=".811" y2=".45">
      <stop offset="0" stop-color="#fff0b0"/>
      <stop offset="1"/>
    </linearGradient>
  </defs>
  <circle cx="11" cy="11" r="9"/>
  <g fill-rule="evenodd">
    <path fill="url(#a)" d="M2.46 10.78c.001-4.6 3.73-8.329 8.33-8.33V0a4.9 4.9 0 0 1-2.4 1.43 9.6 9.6 0 0 0-4.43 2.53C2.737 5.185 1.864 6.715 1.43 8.39A5 5 0 0 1 0 10.79h2.45z"/>
    <path fill="url(#b)" d="M10.79 2.45c4.606.001 8.339 3.734 8.34 8.34h2.45a4.9 4.9 0 0 1-1.43-2.4c-.88-3.414-3.546-6.08-6.96-6.96A5 5 0 0 1 10.79 0v2.45z"/>
    <path fill="url(#c)" d="M19.13 10.78c-.001 4.606-3.734 8.339-8.34 8.34v2.45a4.9 4.9 0 0 1 2.4-1.43c3.414-.88 6.08-3.546 6.96-6.96a5 5 0 0 1 1.43-2.4h-2.45z"/>
    <path fill="url(#d)" d="M10.79 19.12c-4.606-.001-8.339-3.734-8.34-8.34H.01a4.9 4.9 0 0 1 1.43 2.4 9.6 9.6 0 0 0 2.53 4.43c1.225 1.223 2.755 2.096 4.43 2.53a5 5 0 0 1 2.4 1.43v-2.45z"/>
    <path fill="url(#e)" d="M4.54 5.27a8.3 8.3 0 0 0-2.09 5.52H.33c1.12 0 1.54-.63 2.06-2.02.91-2.4 1.82-3.29 2.15-3.5zm.74-.74a8.3 8.3 0 0 1 5.52-2.09V.32c0 1.12-.63 1.54-2.02 2.06-2.4.91-3.29 1.82-3.5 2.15z"/>
    <path fill="url(#f)" d="M16.48 16.47c-2.7 2.698-6.877 3.244-10.18 1.33A8.35 8.35 0 0 0 17.83 6.27c1.914 3.303 1.368 7.48-1.33 10.18z"/>
  </g>
</svg>
