<svg width="302" height="76" viewBox="0 0 302 76" fill="none" xmlns="http://www.w3.org/2000/svg">
<path d="M257.866 13.3027H46.9111C38.2202 13.3027 31.1421 20.3864 31.1421 29.0841V53.9218C31.1421 62.6195 38.2202 69.7032 46.9111 69.7032H257.866C266.557 69.7032 273.635 62.6195 273.635 53.9218V29.0841C273.635 20.3416 266.557 13.3027 257.866 13.3027ZM51.9733 62.3953C42.5209 62.3953 38.3994 58.4948 38.3994 50.6938V32.2224C38.3994 23.9282 42.9241 20.5209 51.9733 20.5209H252.759C262.033 20.5209 266.333 24.1524 266.333 32.2224V50.6938C266.333 58.6741 261.943 62.3953 252.759 62.3953H51.9733Z" fill="url(#paint0_linear_76_186415)"/>
<g opacity="0.44">
<path d="M252.759 18.593H51.9733C42.924 18.593 38.3994 22.0452 38.3994 30.2945V32.2672C38.3994 23.973 42.924 20.5657 51.9733 20.5657H252.759C262.033 20.5657 266.333 24.1972 266.333 32.2672V30.2945C266.333 22.1797 262.033 18.593 252.759 18.593Z" fill="#AC4600"/>
<path d="M257.866 67.6857H46.9111C38.2202 67.6857 31.1421 60.602 31.1421 51.9043V53.877C31.1421 62.5746 38.2202 69.6583 46.9111 69.6583H257.866C266.557 69.6583 273.635 62.5746 273.635 53.877V51.9043C273.635 60.6468 266.557 67.6857 257.866 67.6857Z" fill="#AC4600"/>
</g>
<path opacity="0.3" d="M97.4884 14.5579C93.5909 14.5579 93.7253 17.0686 97.4884 17.0686C103.357 17.0686 247.384 16.9341 252.311 16.9341C257.194 16.9341 268.932 17.9204 268.932 27.6493C268.932 37.3781 268.932 44.1031 268.932 47.8691C268.932 51.6351 271.709 51.2316 271.709 47.8691C271.709 44.5066 271.709 31.3704 271.709 27.2906C271.709 23.2108 267.498 14.4683 257.374 14.4683C247.294 14.4683 97.802 14.5579 97.4884 14.5579Z" fill="white"/>
<path opacity="0.3" d="M49.1063 14.4236C53.8549 14.4236 69.9375 14.4236 73.7006 14.4236C77.4636 14.4236 77.598 17.3826 73.7006 17.3826C69.8031 17.3826 55.7812 17.3826 49.7783 17.3826C42.0729 17.3826 36.3388 21.1486 36.3388 31.2361C36.3388 39.082 36.3388 49.4385 36.3388 51.6801C36.3388 53.9218 37.4587 63.6058 49.3303 63.6058C61.2018 63.6058 177.722 63.6058 189.863 63.6058C193.357 63.6058 193.357 66.3855 190.266 66.3855C179.783 66.3855 55.1541 66.3855 48.7479 66.3855C42.3417 66.3855 33.2029 64.0093 33.2029 52.3975C33.2029 40.7856 33.2029 31.5499 33.2029 26.9321C33.2029 22.3143 38.0859 14.4236 49.1063 14.4236Z" fill="white"/>
<path opacity="0.3" d="M212.441 63.6507C206.976 63.6507 206.572 66.1613 212.575 66.1613C218.578 66.1613 250.072 66.1613 257.732 66.1613C265.437 66.1613 268.932 62.0815 270.321 58.181C271.709 54.2805 267.991 54.9081 267.677 57.1946C267.409 59.1673 264.049 63.7852 258.046 63.7852C252.043 63.83 212.665 63.6507 212.441 63.6507Z" fill="white"/>
<path d="M3.32227 65.8026C3.32227 65.8026 7.21973 66.6993 10.1316 67.596C13.0435 68.5375 16.3586 70.1963 18.1953 70.4205C20.032 70.6446 24.4671 69.7928 25.6318 69.0755C26.7966 68.403 26.259 67.2373 26.259 67.2373C26.259 67.2373 16.269 66.5648 15.0594 66.251C13.8051 66.0268 7.04053 65.0853 3.32227 65.8026Z" fill="#7F3B16"/>
<path d="M28.9021 64.413C28.9021 64.413 18.9569 61.5885 13.0435 62.53C7.13013 63.4715 3.32227 65.8477 3.32227 65.8477C3.32227 65.8477 12.7747 67.0134 16.8066 69.1654C20.8384 71.3174 27.6926 67.7307 28.4093 67.7307C29.1261 67.7307 32.5756 65.3097 28.9021 64.413Z" fill="url(#paint1_linear_76_186415)"/>
<path opacity="0.38" d="M29.2158 67.0132C29.0814 66.1165 28.9023 65.2198 28.6335 64.3232C27.1103 63.9197 18.3746 61.6332 12.9988 62.485C12.4613 62.5747 11.9237 62.6643 11.4309 62.7988C12.7301 63.5162 15.2388 64.9957 14.074 64.9957C12.5509 64.9957 15.2836 66.0717 15.0148 66.9235C14.8804 67.2822 13.9844 67.5063 12.8645 67.6857C14.3428 68.0892 15.7315 68.5823 16.7619 69.1203C20.7938 71.2723 27.6479 67.6857 28.3647 67.6857C28.5439 67.6857 28.8575 67.5512 29.2158 67.327C29.2606 67.2373 29.2606 67.1477 29.2158 67.0132Z" fill="#492410"/>
<path d="M0.724121 48.542C0.724121 48.542 0.768921 48.5868 0.81372 48.6317C1.2617 49.1697 3.81521 52.2183 6.36871 54.729C9.191 57.5087 12.0581 62.261 14.3876 63.6509C16.6723 65.0407 22.4065 67.2823 25.5872 65.9373C28.7231 64.5923 23.2129 62.9335 20.3458 61.5885C17.4787 60.2435 12.0133 55.5808 10.6246 54.5048C9.191 53.4737 0.724121 48.542 0.724121 48.542Z" fill="#7F3B16"/>
<path d="M28.9021 65.1303C28.9021 65.1303 21.1072 52.2182 14.7011 50.1559C8.29491 48.0936 0.5 48.5419 0.5 48.5419C0.5 48.5419 9.50446 55.8946 11.162 59.2122C12.8195 62.5299 17.837 64.9061 21.824 65.3544C25.8559 65.8476 29.6189 65.8476 29.6189 65.8476L28.9021 65.1303Z" fill="url(#paint2_linear_76_186415)"/>
<path opacity="0.38" d="M28.9022 65.1302C28.9022 65.1302 21.1073 52.2182 14.7011 50.1558C13.178 49.6627 11.5653 49.304 9.99731 49.0798C10.0421 49.0798 12.9092 50.2007 14.0292 51.725C15.1043 53.2493 13.1332 53.608 13.1332 53.608C13.1332 53.608 15.8659 56.3877 15.1939 58.3155C14.6563 59.8399 12.1924 59.0777 10.4453 58.0017C10.7589 58.45 11.0277 58.8535 11.2069 59.2122C12.8644 62.5299 17.8818 64.906 21.8689 65.3544C25.9007 65.8475 29.6638 65.8475 29.6638 65.8475L28.9022 65.1302Z" fill="#492410"/>
<path opacity="0.5" d="M8.9668 51.9941C8.9668 51.9941 12.6851 52.6666 15.2834 55.267C17.8817 57.8673 19.584 60.7367 22.2719 61.6782C24.9598 62.6197 24.243 60.4677 24.243 60.4677C24.243 60.4677 15.1042 52.2183 8.9668 51.9941Z" fill="#380D0A"/>
<path d="M6.23413 30.9224C6.23413 30.9224 8.33965 35.4505 10.938 40.3374C13.0883 44.3275 16.0002 50.8284 16.8513 54.5496C17.7025 58.2707 21.824 62.0816 23.5263 62.4851C25.2286 62.8886 27.4237 62.3058 27.4237 62.0816C27.4237 61.7678 8.87723 32.4915 6.23413 30.9224Z" fill="#7F3B16"/>
<path d="M28.8125 56.9705C28.8125 56.9705 31.3212 44.5068 24.467 37.6473C17.6129 30.7878 5.78613 30.1602 5.78613 30.1602C5.78613 30.1602 13.2675 41.3685 15.149 46.9727C17.0305 52.5769 18.6881 60.6469 25.9454 62.5299C33.1579 64.4577 28.8125 56.9705 28.8125 56.9705Z" fill="url(#paint3_linear_76_186415)"/>
<path opacity="0.38" d="M24.467 37.6473C23.1679 36.3472 21.6895 35.2712 20.1664 34.3745C20.1664 34.3745 24.1086 38.3198 23.3919 40.5615C22.6751 42.7584 21.2863 41.503 21.0175 41.503C20.7488 41.503 22.9439 47.69 21.7791 50.0214C20.8832 51.8147 18.1057 51.725 16.4929 51.2767C18.1057 56.0739 20.3456 61.14 25.9006 62.5747C33.1579 64.4577 28.8125 56.9705 28.8125 56.9705C28.8125 56.9705 31.3212 44.5069 24.467 37.6473Z" fill="#492410"/>
<path opacity="0.5" d="M15.373 37.6025C15.373 37.6025 21.1968 41.1892 22.8992 46.3451C24.6015 51.5009 24.7359 56.5671 24.7359 56.5671C24.7359 56.5671 25.2735 49.0351 24.6015 46.7486C23.9743 44.5069 22.5856 40.696 15.373 37.6025Z" fill="#380D0A"/>
<path opacity="0.49" d="M18.0608 34.4192C21.1071 36.4367 22.7647 39.306 21.3759 39.306C19.9424 39.306 16.1345 36.4367 13.6258 35.8539C13.6258 35.8539 15.1489 38.23 17.4337 40.5165C19.1808 42.265 20.7935 45.8965 19.2256 47.5105C17.6128 49.1245 14.8354 41.8615 12.6402 38.1404C10.4451 34.4192 8.3396 31.8188 8.3396 31.8188C8.3396 31.8188 15.0145 32.3569 18.0608 34.4192Z" fill="url(#paint4_linear_76_186415)"/>
<path opacity="0.49" d="M9.45966 49.6178C9.45966 49.6178 4.35265 49.1246 3.36708 49.2591C2.38152 49.3936 5.87579 51.2766 7.35413 52.7561C8.83248 54.2356 11.1172 57.1049 12.3715 57.1049C13.6259 57.1049 12.5955 53.6976 10.2212 52.9803C7.84692 52.2629 7.08534 51.0973 8.83248 51.0973C10.5796 51.0973 12.5507 52.6216 12.9539 52.2181C13.3123 51.8146 12.2372 50.2006 9.45966 49.6178Z" fill="url(#paint5_linear_76_186415)"/>
<path d="M15.8659 34.0605C15.8659 34.0605 13.8051 34.195 15.1043 34.9572C16.4035 35.7194 20.1665 38.2749 20.3905 37.4231C20.6145 36.6161 18.7778 34.0605 15.8659 34.0605Z" fill="#FFDE8F"/>
<path d="M16.2691 40.3824C16.2691 40.3824 15.194 39.7547 16.0451 41.8619C16.8963 43.9242 18.285 45.8521 18.509 44.5967C18.733 43.2966 17.3443 41.0549 16.2691 40.3824Z" fill="#FFDE8F"/>
<path d="M7.98139 49.7973C7.98139 49.7973 6.05506 50.1111 7.98139 50.5146C9.90772 50.9181 11.7444 51.4561 11.4309 50.9629C11.1173 50.4698 9.90772 49.4834 7.98139 49.7973Z" fill="#FFDE8F"/>
<path d="M9.50451 53.3391C9.50451 53.3391 7.98137 52.5769 9.19092 53.7874C10.4005 54.9979 11.162 55.8497 11.4308 55.1772C11.6548 54.5047 10.0869 53.5632 9.50451 53.3391Z" fill="#FFDE8F"/>
<path opacity="0.5" d="M7.57812 64.8611C7.57812 64.8611 12.3268 63.6955 14.9251 64.7266C17.5234 65.713 19.8977 66.4303 20.1217 66.4303C20.3456 66.4303 17.1202 66.4303 14.9251 65.8026C12.7299 65.175 9.10127 64.8611 7.57812 64.8611Z" fill="#380D0A"/>
<path opacity="0.49" d="M11.4309 63.3369C11.4309 63.3369 8.69817 63.7404 6.59265 64.4577C4.48713 65.2199 5.06951 65.3096 6.99584 65.7131C8.92216 66.1166 13.3124 67.4167 13.4468 66.8787C13.5812 66.3407 11.6997 65.6682 9.45974 65.3992C7.21983 65.1751 6.32386 64.8612 7.39902 64.7267C8.47418 64.5922 10.2213 63.9646 11.2517 63.9646C12.1924 63.9646 12.058 63.3369 11.4309 63.3369Z" fill="url(#paint6_linear_76_186415)"/>
<path d="M9.41496 65.3994C9.41496 65.3994 7.04065 65.7133 8.92218 66.1616C10.8485 66.6099 13.0884 66.0271 9.41496 65.3994Z" fill="#FFDE8F"/>
<path d="M40.9529 45.0448C39.4745 45.0448 38.3994 45.1344 37.5482 45.2689C36.8762 42.3547 36.1595 37.0644 36.1595 28.0529C36.1595 12.0025 42.6552 13.482 48.031 13.5717C57.9762 13.7062 64.4272 13.5717 64.4272 13.5717C64.4272 13.5717 39.4745 -3.06148 32.3964 1.19769C25.3183 5.45687 24.8703 27.1114 24.3775 44.1032C23.8847 61.0951 21.6 74.7693 34.7259 75.2176C51.2117 75.8005 67.6975 76.3833 62.5457 65.3991C57.3491 54.5046 47.6278 45.0448 40.9529 45.0448Z" fill="url(#paint7_linear_76_186415)"/>
<g opacity="0.5">
<path d="M36.2044 25.1388C35.3532 23.5697 31.6349 17.831 25.4528 21.7763C25.3632 22.5833 25.3184 23.4352 25.2288 24.2422C26.1695 23.1213 28.0959 21.5073 31.4109 22.2695C35.9804 23.3007 36.1595 27.3357 36.1595 27.9185C36.1595 26.977 36.1596 26.0355 36.2044 25.1388Z" fill="#40170A"/>
<path d="M31.187 15.0513C34.5917 15.9479 36.4284 18.0999 37.0556 19.6691C37.1452 19.4001 37.1899 19.1759 37.2795 18.9518C35.6668 16.5756 31.5902 11.6439 26.5279 13.7959C26.4384 14.1994 26.3936 14.6029 26.304 15.0064C27.4239 14.6478 29.0815 14.4684 31.187 15.0513Z" fill="#40170A"/>
<path d="M35.9803 8.64024C38.713 11.3751 39.0714 14.0651 38.937 15.8136C39.3402 15.3652 39.7434 15.0066 40.1914 14.6927C39.2954 11.3302 36.3387 3.52923 29.171 5.05357C28.947 5.54673 28.723 6.0399 28.499 6.5779C30.291 6.0399 33.158 5.86057 35.9803 8.64024Z" fill="#40170A"/>
</g>
<g opacity="0.42">
<path d="M44.8503 54.953C43.2376 54.3702 41.2664 58.3603 42.4312 59.5708C43.6408 60.7813 44.2231 60.5572 43.6408 59.9743C43.0584 59.3915 44.4471 57.1947 45.0295 57.1947C45.6119 57.1947 54.6163 63.3817 51.2117 65.982C47.807 68.5823 38.8025 66.789 36.3386 65.0853C33.8299 63.3817 33.9195 52.8907 36.5178 48.6763C39.1161 44.5068 43.7304 45.5828 43.7304 45.5828C42.7448 45.269 41.7592 45.0896 40.8633 45.0896C39.3849 45.0896 38.3098 45.1793 37.4586 45.3138C36.7866 42.3996 36.0698 37.1093 36.0698 28.0978C36.0698 12.0474 42.5656 13.5269 47.9414 13.6166C57.8866 13.7511 64.3376 13.6166 64.3376 13.6166C64.3376 13.6166 58.5586 9.76092 51.7493 6.26392C56.4979 8.68492 56.7219 12.2268 52.7796 12.4061C48.7926 12.6303 41.4008 12.8096 37.7722 15.1858C34.1883 17.6068 35.1739 28.4116 35.1739 31.9983C35.1739 35.585 35.9802 44.5965 35.3979 47.6003C34.8155 50.6042 29.2157 60.4227 32.9788 65.8027C36.7866 71.1827 51.4805 69.479 54.7507 66.2062C58.1554 62.8885 46.4631 55.5807 44.8503 54.953Z" fill="#300F0A"/>
<path d="M50.8533 5.72607C51.0773 5.86057 51.3013 5.95023 51.4804 6.0399C51.2565 5.95023 51.0773 5.81574 50.8533 5.72607Z" fill="#38320A"/>
</g>
<path opacity="0.57" d="M42.9239 47.4657C42.9239 47.4657 38.2201 46.9278 37.0106 52.0836C35.801 57.2394 37.3689 61.0503 37.9065 61.5883C38.4889 62.1711 39.6537 56.9704 41.58 54.9978C43.5063 53.0699 47.0006 52.8009 50.5396 56.2979C54.0339 59.7949 58.9169 65.0404 58.9169 63.2919C58.9169 61.5883 50.45 47.0622 42.9239 47.4657Z" fill="url(#paint8_linear_76_186415)"/>
<path d="M63.3522 67.865C62.7698 71.0482 59.2756 72.707 55.5573 73.3347C51.7942 73.9624 37.8172 74.7245 31.187 73.0657C27.2 72.0794 25.0048 64.637 23.9297 58.8535C23.9745 68.3582 25.7216 74.859 34.7261 75.2177C49.8679 75.8005 65.0098 76.2937 63.3522 67.865Z" fill="#7F3B16"/>
<path opacity="0.85" d="M31.9037 24.0627C31.9037 24.0627 26.7967 23.7937 26.1695 27.0666C25.5423 30.3394 26.0351 34.3296 26.4383 36.2126C26.7967 38.0956 28.5886 28.9496 30.067 31.4602C31.5453 33.9709 30.8285 38.8578 32.1725 38.8578C33.5612 38.8578 33.2924 42.8479 33.6508 45.6276C34.0092 48.3624 34.5468 46.1208 34.5468 42.6238C34.5468 39.0819 35.398 24.4214 31.9037 24.0627Z" fill="#F7A634"/>
<path d="M28.275 15.5444C28.275 15.5444 26.5278 16.7998 26.5278 18.0551C26.5278 19.3104 27.6478 17.5619 29.8877 18.3241C32.1276 19.0863 33.158 19.7139 33.7852 19.7139C34.4123 19.6691 34.7707 15.5444 28.275 15.5444Z" fill="url(#paint9_linear_76_186415)"/>
<path d="M32.934 8.14688C32.934 8.14688 29.4398 7.25022 28.5438 9.76089C27.6478 12.2716 30.6493 9.89538 31.9933 11.1955C33.2924 12.4957 35.6667 15.1409 36.2939 14.5132C36.9211 13.9304 37.0555 9.80572 32.934 8.14688Z" fill="url(#paint10_linear_76_186415)"/>
<path d="M33.2925 3.03591C33.2925 3.03591 35.174 1.0184 39.5642 2.04957C43.9545 3.0359 51.4358 6.66741 52.4214 7.69858C53.4069 8.68491 50.4054 8.05724 47.5384 8.05724C44.6713 8.05724 40.7738 7.69857 39.9674 8.50558C39.1611 9.31258 38.8027 7.11574 37.7723 5.81557C36.4284 4.02224 35.174 3.39458 33.2925 3.03591Z" fill="url(#paint11_linear_76_186415)"/>
<path d="M45.1638 48.4969C45.1638 48.4969 41.6248 47.5105 40.012 49.0797C38.4441 50.6489 42.9687 50.4696 45.7462 51.4559C48.5237 52.4422 52.5556 54.8184 51.2564 52.7112C50.0021 50.6041 48.4789 48.7211 45.1638 48.4969Z" fill="#FFDE8F"/>
<path d="M33.2476 25.1389C33.2476 25.901 31.8588 26.5287 30.2013 26.5287C28.499 26.5287 27.155 25.901 27.155 25.1389C27.155 24.3767 28.5438 23.749 30.2013 23.749C31.8588 23.749 33.2476 24.3319 33.2476 25.1389Z" fill="#FFDE8F"/>
<path d="M33.5611 28.5013C33.5611 28.9497 33.0235 29.3083 32.3515 29.3083C31.6795 29.3083 31.0972 28.9497 31.0972 28.5013C31.0972 28.053 31.6347 27.6943 32.3515 27.6943C32.9787 27.6943 33.5611 28.053 33.5611 28.5013Z" fill="#FFDE8F"/>
<path d="M32.3517 16.7549C32.3517 17.2481 31.4557 17.6068 30.3806 17.6068C29.3054 17.6068 28.4094 17.2032 28.4094 16.7549C28.4094 16.2617 29.3054 15.9031 30.3806 15.9031C31.5005 15.9031 32.3517 16.2617 32.3517 16.7549Z" fill="#FFDE8F"/>
<path d="M40.1017 3.08084C40.1017 3.574 39.0713 3.93268 37.7721 3.93268C36.5178 3.93268 35.4426 3.52917 35.4426 3.08084C35.4426 2.58767 36.473 2.229 37.7721 2.229C39.0713 2.229 40.1017 2.6325 40.1017 3.08084Z" fill="#FFDE8F"/>
<path d="M34.0986 9.67115C34.0986 10.2092 33.2923 10.6575 32.3515 10.6575C31.3659 10.6575 30.5596 10.2092 30.5596 9.67115C30.5596 9.13315 31.3659 8.68481 32.3515 8.68481C33.2923 8.68481 34.0986 9.13315 34.0986 9.67115Z" fill="#FFDE8F"/>
<path opacity="0.57" d="M33.5164 50.4697C33.5164 50.4697 28.9917 60.0192 32.038 65.8476C35.0843 71.6759 44.0888 69.0308 45.5671 69.8378C47.0455 70.6448 40.0121 72.0794 34.9499 70.1067C29.9325 68.1341 29.6189 65.3096 29.5741 60.9608C29.5293 56.5671 33.5164 50.4697 33.5164 50.4697Z" fill="url(#paint12_linear_76_186415)"/>
<path opacity="0.57" d="M26.7517 43.2065C26.7517 43.2065 28.1405 42.3098 28.6333 43.6996C29.126 45.0895 30.2012 48.0485 30.8284 47.8243C31.5004 47.6002 32.4859 47.645 31.9931 49.4831C31.5004 51.2765 28.1405 55.1322 27.4685 58.3602C26.8413 61.5433 25.4526 47.0173 26.7517 43.2065Z" fill="url(#paint13_linear_76_186415)"/>
<path opacity="0.57" d="M45.7912 58.8982C45.7912 58.8982 50.8982 61.0054 50.5846 63.3815C50.271 65.7577 47.4487 65.1749 45.9256 65.1749C44.4472 65.1749 48.1655 64.4575 47.7175 63.247C47.3143 62.0365 43.9993 58.8982 45.7912 58.8982Z" fill="url(#paint14_linear_76_186415)"/>
<path d="M298.678 65.8026C298.678 65.8026 294.78 66.6993 291.868 67.596C288.956 68.5375 285.641 70.1963 283.805 70.4205C281.968 70.6446 277.533 69.7928 276.368 69.0755C275.203 68.403 275.696 67.2373 275.696 67.2373C275.696 67.2373 285.686 66.5648 286.896 66.251C288.195 66.0268 294.959 65.0853 298.678 65.8026Z" fill="#7F3B16"/>
<path d="M273.098 64.413C273.098 64.413 283.043 61.5885 288.956 62.53C294.87 63.4715 298.678 65.8477 298.678 65.8477C298.678 65.8477 289.225 67.0134 285.193 69.1654C281.162 71.3174 274.307 67.7307 273.591 67.7307C272.874 67.7307 269.424 65.3097 273.098 64.413Z" fill="url(#paint15_linear_76_186415)"/>
<path opacity="0.28" d="M272.784 67.0132C272.919 66.1165 273.098 65.2198 273.367 64.3232C274.89 63.9197 283.581 61.6332 289.001 62.485C289.539 62.5747 290.076 62.6643 290.569 62.7988C289.27 63.5162 286.761 64.9957 287.926 64.9957C289.449 64.9957 286.717 66.0717 286.985 66.9235C287.12 67.2822 288.016 67.5063 289.136 67.6857C287.657 68.0892 286.269 68.5823 285.238 69.1203C281.206 71.2723 274.352 67.6857 273.635 67.6857C273.456 67.6857 273.143 67.5512 272.784 67.327C272.784 67.2373 272.74 67.1477 272.784 67.0132Z" fill="#492710"/>
<path d="M301.276 48.542C301.276 48.542 301.231 48.5868 301.186 48.6317C300.738 49.1697 298.185 52.2183 295.631 54.729C292.809 57.5087 289.942 62.261 287.612 63.6509C285.328 65.0407 279.594 67.2823 276.413 65.9373C273.277 64.5923 278.787 62.9335 281.654 61.5885C284.521 60.2435 289.987 55.5808 291.375 54.5048C292.809 53.4737 301.276 48.542 301.276 48.542Z" fill="#7F3B16"/>
<path d="M273.098 65.1303C273.098 65.1303 280.893 52.2182 287.299 50.1559C293.705 48.0936 301.5 48.5419 301.5 48.5419C301.5 48.5419 292.496 55.8946 290.838 59.2122C289.18 62.5299 284.163 64.9061 280.176 65.3544C276.144 65.8476 272.381 65.8476 272.381 65.8476L273.098 65.1303Z" fill="url(#paint16_linear_76_186415)"/>
<path opacity="0.28" d="M273.098 65.1302C273.098 65.1302 280.893 52.2182 287.299 50.1558C288.822 49.6627 290.435 49.304 292.003 49.0798C291.958 49.0798 289.091 50.2007 288.016 51.725C286.896 53.2493 288.912 53.608 288.912 53.608C288.912 53.608 286.179 56.3877 286.851 58.3155C287.389 59.8399 289.852 59.0777 291.6 58.0017C291.286 58.45 291.017 58.8535 290.838 59.2122C289.18 62.5299 284.163 64.906 280.176 65.3544C276.144 65.8475 272.381 65.8475 272.381 65.8475L273.098 65.1302Z" fill="#492710"/>
<path opacity="0.5" d="M293.033 51.9941C293.033 51.9941 289.315 52.6666 286.717 55.267C284.118 57.8673 282.416 60.7367 279.728 61.6782C277.04 62.6197 277.757 60.4677 277.757 60.4677C277.757 60.4677 286.896 52.2183 293.033 51.9941Z" fill="#38320A"/>
<path d="M295.766 30.9224C295.766 30.9224 293.66 35.4505 291.062 40.3374C288.912 44.3275 286 50.8284 285.149 54.5496C284.297 58.2707 280.176 62.0816 278.474 62.4851C276.771 62.8886 274.576 62.3058 274.576 62.0816C274.576 61.7678 293.123 32.4915 295.766 30.9224Z" fill="#7F3B16"/>
<path d="M273.187 56.9705C273.187 56.9705 270.679 44.5068 277.533 37.6473C284.387 30.7878 296.214 30.1602 296.214 30.1602C296.214 30.1602 288.732 41.3685 286.851 46.9727C284.969 52.5769 283.312 60.6469 276.054 62.5299C268.842 64.4577 273.187 56.9705 273.187 56.9705Z" fill="url(#paint17_linear_76_186415)"/>
<path opacity="0.28" d="M277.533 37.6473C278.832 36.3472 280.31 35.2712 281.833 34.3745C281.833 34.3745 277.891 38.3198 278.608 40.5615C279.325 42.7584 280.714 41.503 280.982 41.503C281.251 41.503 279.056 47.69 280.221 50.0214C281.117 51.8147 283.894 51.725 285.507 51.2767C283.894 56.0739 281.654 61.14 276.099 62.5747C268.842 64.4577 273.187 56.9705 273.187 56.9705C273.187 56.9705 270.679 44.5069 277.533 37.6473Z" fill="#492710"/>
<path opacity="0.5" d="M286.627 37.6025C286.627 37.6025 280.803 41.1892 279.101 46.3451C277.399 51.5009 277.264 56.5671 277.264 56.5671C277.264 56.5671 276.727 49.0351 277.399 46.7486C278.026 44.5069 279.414 40.696 286.627 37.6025Z" fill="#38320A"/>
<path opacity="0.49" d="M283.939 34.4192C280.893 36.4367 279.235 39.306 280.669 39.306C282.102 39.306 285.91 36.4367 288.419 35.8539C288.419 35.8539 286.896 38.23 284.611 40.5165C282.864 42.265 281.251 45.8965 282.819 47.5105C284.432 49.1245 287.209 41.8615 289.404 38.1404C291.599 34.4192 293.705 31.8188 293.705 31.8188C293.705 31.8188 286.985 32.3569 283.939 34.4192Z" fill="url(#paint18_linear_76_186415)"/>
<path opacity="0.49" d="M292.54 49.6178C292.54 49.6178 297.647 49.1246 298.633 49.2591C299.618 49.3936 296.124 51.2766 294.646 52.7561C293.167 54.2356 290.883 57.1049 289.628 57.1049C288.374 57.1049 289.404 53.6976 291.779 52.9803C294.153 52.2629 294.915 51.0973 293.167 51.0973C291.42 51.0973 289.404 52.6216 289.046 52.2181C288.688 51.8146 289.763 50.2006 292.54 49.6178Z" fill="url(#paint19_linear_76_186415)"/>
<path d="M286.134 34.0605C286.134 34.0605 288.195 34.195 286.896 34.9572C285.597 35.7194 281.833 38.2749 281.609 37.4231C281.385 36.6161 283.222 34.0605 286.134 34.0605Z" fill="#FFDE8F"/>
<path d="M285.731 40.3824C285.731 40.3824 286.806 39.7547 285.955 41.8619C285.104 43.9242 283.715 45.8521 283.491 44.5967C283.267 43.2966 284.656 41.0549 285.731 40.3824Z" fill="#FFDE8F"/>
<path d="M294.019 49.7973C294.019 49.7973 295.945 50.1111 294.019 50.5146C292.092 50.9181 290.255 51.4561 290.569 50.9629C290.883 50.4698 292.092 49.4834 294.019 49.7973Z" fill="#FFDE8F"/>
<path d="M292.495 53.3391C292.495 53.3391 294.019 52.5769 292.809 53.7874C291.599 54.9979 290.838 55.8497 290.569 55.1772C290.345 54.5047 291.913 53.5632 292.495 53.3391Z" fill="#FFDE8F"/>
<path opacity="0.5" d="M294.422 64.8611C294.422 64.8611 289.673 63.6955 287.075 64.7266C284.477 65.713 282.102 66.4303 281.878 66.4303C281.654 66.4303 284.88 66.4303 287.075 65.8026C289.27 65.175 292.899 64.8611 294.422 64.8611Z" fill="#38320A"/>
<path opacity="0.49" d="M290.569 63.3369C290.569 63.3369 293.302 63.7404 295.407 64.4577C297.513 65.2199 296.93 65.3096 295.004 65.7131C293.078 66.1166 288.732 67.4167 288.553 66.8787C288.419 66.3407 290.3 65.6682 292.54 65.3992C294.78 65.1751 295.676 64.8612 294.601 64.7267C293.526 64.5922 291.779 63.9646 290.748 63.9646C289.808 63.9646 289.942 63.3369 290.569 63.3369Z" fill="url(#paint20_linear_76_186415)"/>
<path d="M292.585 65.3994C292.585 65.3994 294.959 65.7133 293.078 66.1616C291.151 66.6099 288.912 66.0271 292.585 65.3994Z" fill="#FFDE8F"/>
<path d="M261.047 45.0448C262.525 45.0448 263.601 45.1344 264.452 45.2689C265.079 42.3547 265.841 37.0644 265.841 28.0529C265.841 12.0025 259.345 13.482 253.969 13.5717C244.024 13.7062 237.573 13.5717 237.573 13.5717C237.573 13.5717 262.57 -3.06148 269.604 1.19769C276.682 5.45687 277.13 27.1114 277.622 44.1032C278.115 61.0951 280.4 74.7693 267.274 75.2176C250.788 75.8005 234.302 76.3833 239.454 65.3991C244.651 54.5046 254.372 45.0448 261.047 45.0448Z" fill="url(#paint21_linear_76_186415)"/>
<g opacity="0.5">
<path d="M265.796 25.1388C266.647 23.5697 270.365 17.831 276.547 21.7763C276.637 22.5833 276.682 23.4352 276.771 24.2422C275.83 23.1213 273.904 21.5073 270.589 22.2695C266.02 23.3007 265.84 27.3357 265.84 27.9185C265.84 26.977 265.84 26.0355 265.796 25.1388Z" fill="#300F0A"/>
<path d="M270.813 15.0513C267.408 15.9479 265.572 18.0999 264.944 19.6691C264.855 19.4001 264.81 19.1759 264.72 18.9518C266.333 16.5756 270.41 11.6439 275.472 13.7959C275.562 14.1994 275.606 14.6029 275.696 15.0064C274.576 14.6478 272.919 14.4684 270.813 15.0513Z" fill="#300F0A"/>
<path d="M266.02 8.64024C263.287 11.3751 262.929 14.0651 263.063 15.8136C262.66 15.3652 262.257 15.0066 261.809 14.6927C262.705 11.3302 265.661 3.52923 272.829 5.05357C273.053 5.54673 273.277 6.0399 273.501 6.5779C271.709 6.0399 268.842 5.86057 266.02 8.64024Z" fill="#300F0A"/>
</g>
<g opacity="0.42">
<path d="M257.15 54.953C258.762 54.3702 260.734 58.3603 259.569 59.5708C258.359 60.7813 257.777 60.5572 258.359 59.9743C258.942 59.3915 257.553 57.1947 256.97 57.1947C256.388 57.1947 247.384 63.3817 250.788 65.982C254.193 68.5823 263.197 66.789 265.661 65.0853C268.17 63.3817 268.08 52.8907 265.482 48.6763C262.884 44.5068 258.27 45.5828 258.27 45.5828C259.255 45.269 260.241 45.0896 261.137 45.0896C262.615 45.0896 263.69 45.1793 264.541 45.3138C265.169 42.3996 265.93 37.1093 265.93 28.0978C265.93 12.0474 259.434 13.5269 254.059 13.6166C244.113 13.7511 237.662 13.6166 237.662 13.6166C237.662 13.6166 243.441 9.76092 250.251 6.26392C245.502 8.68492 245.278 12.2268 249.22 12.4061C253.207 12.6303 260.599 12.8096 264.228 15.1858C267.812 17.6068 266.826 28.4116 266.826 31.9983C266.826 35.585 266.02 44.5965 266.647 47.6003C267.229 50.6042 272.829 60.4227 269.066 65.8027C265.258 71.1827 250.564 69.479 247.294 66.2062C243.845 62.8885 255.537 55.5807 257.15 54.953Z" fill="#300F0A"/>
<path d="M251.147 5.72607C250.923 5.86057 250.699 5.95023 250.52 6.0399C250.744 5.95023 250.967 5.81574 251.147 5.72607Z" fill="#38320A"/>
</g>
<path opacity="0.57" d="M259.076 47.4657C259.076 47.4657 263.78 46.9278 264.989 52.0836C266.199 57.2394 264.631 61.0503 264.093 61.5883C263.511 62.1711 262.346 56.9704 260.42 54.9978C258.494 53.0699 254.999 52.8009 251.46 56.2979C247.966 59.7949 243.083 65.0404 243.083 63.2919C243.083 61.5883 251.55 47.0622 259.076 47.4657Z" fill="url(#paint22_linear_76_186415)"/>
<path d="M238.648 67.865C239.23 71.0482 242.725 72.707 246.443 73.3347C250.206 73.9624 264.183 74.7245 270.813 73.0657C274.8 72.0794 276.995 64.637 278.07 58.8535C278.026 68.3582 276.279 74.859 267.229 75.2177C252.132 75.8005 236.99 76.2937 238.648 67.865Z" fill="#7F3B16"/>
<path opacity="0.85" d="M270.096 24.0627C270.096 24.0627 275.203 23.7937 275.831 27.0666C276.458 30.3394 275.965 34.3296 275.562 36.2126C275.203 38.0956 273.411 28.9496 271.933 31.4602C270.41 33.9709 271.172 38.8578 269.783 38.8578C268.394 38.8578 268.663 42.8479 268.26 45.6276C267.901 48.3624 267.364 46.1208 267.364 42.6238C267.453 39.0819 266.602 24.4214 270.096 24.0627Z" fill="#F7A634"/>
<path d="M273.725 15.5444C273.725 15.5444 275.472 16.7998 275.472 18.0551C275.472 19.3104 274.352 17.5619 272.112 18.3241C269.872 19.0863 268.842 19.7139 268.215 19.7139C267.588 19.6691 267.184 15.5444 273.725 15.5444Z" fill="url(#paint23_linear_76_186415)"/>
<path d="M269.066 8.14688C269.066 8.14688 272.56 7.25022 273.456 9.76089C274.352 12.2716 271.351 9.89538 270.007 11.1955C268.708 12.4957 266.333 15.1409 265.706 14.5132C265.079 13.9304 264.944 9.80572 269.066 8.14688Z" fill="url(#paint24_linear_76_186415)"/>
<path d="M268.708 3.03591C268.708 3.03591 266.826 1.0184 262.436 2.04957C258.046 3.0359 250.564 6.66741 249.579 7.69858C248.593 8.68491 251.595 8.05724 254.462 8.05724C257.329 8.05724 261.226 7.69857 262.033 8.50558C262.839 9.31258 263.198 7.11574 264.228 5.81557C265.572 4.02224 266.826 3.39458 268.708 3.03591Z" fill="url(#paint25_linear_76_186415)"/>
<path d="M256.836 48.4969C256.836 48.4969 260.375 47.5105 261.988 49.0797C263.556 50.6489 259.031 50.4696 256.254 51.4559C253.476 52.4422 249.444 54.8184 250.743 52.7112C251.998 50.6041 253.521 48.7211 256.836 48.4969Z" fill="#FFDE8F"/>
<path d="M268.797 25.1389C268.797 25.901 270.186 26.5287 271.843 26.5287C273.546 26.5287 274.89 25.901 274.89 25.1389C274.89 24.3767 273.501 23.749 271.843 23.749C270.141 23.749 268.797 24.3319 268.797 25.1389Z" fill="#FFDE8F"/>
<path d="M268.439 28.5013C268.439 28.9497 268.976 29.3083 269.693 29.3083C270.365 29.3083 270.947 28.9497 270.947 28.5013C270.947 28.053 270.41 27.6943 269.693 27.6943C269.021 27.6943 268.439 28.053 268.439 28.5013Z" fill="#FFDE8F"/>
<path d="M269.648 16.7549C269.648 17.2481 270.544 17.6068 271.62 17.6068C272.695 17.6068 273.591 17.2032 273.591 16.7549C273.591 16.2617 272.695 15.9031 271.62 15.9031C270.544 15.9031 269.648 16.2617 269.648 16.7549Z" fill="#FFDE8F"/>
<path d="M261.898 3.08084C261.898 3.574 262.929 3.93268 264.228 3.93268C265.482 3.93268 266.557 3.52917 266.557 3.08084C266.557 2.58767 265.527 2.229 264.228 2.229C262.929 2.229 261.898 2.6325 261.898 3.08084Z" fill="#FFDE8F"/>
<path d="M267.901 9.67115C267.901 10.2092 268.707 10.6575 269.693 10.6575C270.679 10.6575 271.485 10.2092 271.485 9.67115C271.485 9.13315 270.679 8.68481 269.693 8.68481C268.707 8.68481 267.901 9.13315 267.901 9.67115Z" fill="#FFDE8F"/>
<path opacity="0.57" d="M268.483 50.4697C268.483 50.4697 273.008 60.0192 269.962 65.8476C266.916 71.6759 257.911 69.0308 256.433 69.8378C254.954 70.6448 261.988 72.0794 267.05 70.1067C272.067 68.1341 272.381 65.3096 272.426 60.9608C272.471 56.5671 268.483 50.4697 268.483 50.4697Z" fill="url(#paint26_linear_76_186415)"/>
<path opacity="0.57" d="M275.248 43.2065C275.248 43.2065 273.86 42.3098 273.367 43.6996C272.874 45.0895 271.799 48.0485 271.172 47.8243C270.5 47.6002 269.514 47.645 270.007 49.4831C270.5 51.2765 273.86 55.1322 274.531 58.3602C275.159 61.5433 276.547 47.0173 275.248 43.2065Z" fill="url(#paint27_linear_76_186415)"/>
<path opacity="0.57" d="M256.209 58.8982C256.209 58.8982 251.102 61.0054 251.415 63.3815C251.729 65.7577 254.551 65.1749 256.074 65.1749C257.553 65.1749 253.835 64.4575 254.283 63.247C254.686 62.0365 258.001 58.8982 256.209 58.8982Z" fill="url(#paint28_linear_76_186415)"/>
<defs>
<linearGradient id="paint0_linear_76_186415" x1="152.383" y1="71.1906" x2="152.383" y2="9.60743" gradientUnits="userSpaceOnUse">
<stop stop-color="#E38044"/>
<stop offset="0.2647" stop-color="#99450F"/>
<stop offset="0.9994" stop-color="#FC991A"/>
</linearGradient>
<linearGradient id="paint1_linear_76_186415" x1="3.32773" y1="66.0667" x2="30.5659" y2="66.0667" gradientUnits="userSpaceOnUse">
<stop offset="0.1636" stop-color="#99450F"/>
<stop offset="0.9994" stop-color="#FC991A"/>
</linearGradient>
<linearGradient id="paint2_linear_76_186415" x1="0.484993" y1="57.1573" x2="29.5914" y2="57.1573" gradientUnits="userSpaceOnUse">
<stop offset="0.1636" stop-color="#99450F"/>
<stop offset="0.9994" stop-color="#FC991A"/>
</linearGradient>
<linearGradient id="paint3_linear_76_186415" x1="5.76391" y1="46.5229" x2="30.1084" y2="46.5229" gradientUnits="userSpaceOnUse">
<stop offset="0.1636" stop-color="#99450F"/>
<stop offset="0.9994" stop-color="#FC991A"/>
</linearGradient>
<linearGradient id="paint4_linear_76_186415" x1="15.3737" y1="35.9209" x2="32.4387" y2="77.0297" gradientUnits="userSpaceOnUse">
<stop offset="0.0606061" stop-color="#F0C252"/>
<stop offset="1" stop-color="#EB9978"/>
</linearGradient>
<linearGradient id="paint5_linear_76_186415" x1="7.31596" y1="49.6111" x2="21.2391" y2="66.8089" gradientUnits="userSpaceOnUse">
<stop offset="0.0606061" stop-color="#F0C252"/>
<stop offset="1" stop-color="#EB9978"/>
</linearGradient>
<linearGradient id="paint6_linear_76_186415" x1="10.093" y1="64.8735" x2="26.8275" y2="70.4731" gradientUnits="userSpaceOnUse">
<stop offset="0.0606061" stop-color="#F0C252"/>
<stop offset="1" stop-color="#EB9978"/>
</linearGradient>
<linearGradient id="paint7_linear_76_186415" x1="44.7837" y1="84.0863" x2="43.6166" y2="-5.01377" gradientUnits="userSpaceOnUse">
<stop stop-color="#99450F"/>
<stop offset="0.9994" stop-color="#FC991A"/>
</linearGradient>
<linearGradient id="paint8_linear_76_186415" x1="48.2506" y1="46.454" x2="47.5481" y2="64.3205" gradientUnits="userSpaceOnUse">
<stop offset="0.0606061" stop-color="#FAB529"/>
<stop offset="1" stop-color="#FF9400"/>
</linearGradient>
<linearGradient id="paint9_linear_76_186415" x1="30.3928" y1="15.8492" x2="30.3023" y2="19.6179" gradientUnits="userSpaceOnUse">
<stop offset="0.0606061" stop-color="#FAC954"/>
<stop offset="1" stop-color="#FF9400"/>
</linearGradient>
<linearGradient id="paint10_linear_76_186415" x1="32.5041" y1="7.56226" x2="32.5041" y2="14.6554" gradientUnits="userSpaceOnUse">
<stop offset="0.0606061" stop-color="#FAC954"/>
<stop offset="1" stop-color="#FF9400"/>
</linearGradient>
<linearGradient id="paint11_linear_76_186415" x1="42.9144" y1="2.04468" x2="43.0336" y2="11.7216" gradientUnits="userSpaceOnUse">
<stop offset="0.0606061" stop-color="#FAC954"/>
<stop offset="1" stop-color="#FF9400"/>
</linearGradient>
<linearGradient id="paint12_linear_76_186415" x1="37.7942" y1="50.2387" x2="37.6176" y2="71.3424" gradientUnits="userSpaceOnUse">
<stop offset="0.0606061" stop-color="#FAB529"/>
<stop offset="1" stop-color="#FF9400"/>
</linearGradient>
<linearGradient id="paint13_linear_76_186415" x1="29.1992" y1="41.6326" x2="29.1129" y2="59.0625" gradientUnits="userSpaceOnUse">
<stop offset="0.0606061" stop-color="#FAB529"/>
<stop offset="1" stop-color="#FF9400"/>
</linearGradient>
<linearGradient id="paint14_linear_76_186415" x1="47.9459" y1="58.2692" x2="47.9459" y2="66.6721" gradientUnits="userSpaceOnUse">
<stop offset="0.0606061" stop-color="#FAB529"/>
<stop offset="1" stop-color="#FF9400"/>
</linearGradient>
<linearGradient id="paint15_linear_76_186415" x1="298.675" y1="66.0667" x2="271.436" y2="66.0667" gradientUnits="userSpaceOnUse">
<stop offset="0.1636" stop-color="#99450F"/>
<stop offset="0.9994" stop-color="#FC991A"/>
</linearGradient>
<linearGradient id="paint16_linear_76_186415" x1="301.512" y1="57.1573" x2="272.411" y2="57.1573" gradientUnits="userSpaceOnUse">
<stop offset="0.1636" stop-color="#99450F"/>
<stop offset="0.9994" stop-color="#FC991A"/>
</linearGradient>
<linearGradient id="paint17_linear_76_186415" x1="296.238" y1="46.5229" x2="271.893" y2="46.5229" gradientUnits="userSpaceOnUse">
<stop offset="0.1636" stop-color="#99450F"/>
<stop offset="0.9994" stop-color="#FC991A"/>
</linearGradient>
<linearGradient id="paint18_linear_76_186415" x1="286.628" y1="35.9207" x2="269.565" y2="77.0259" gradientUnits="userSpaceOnUse">
<stop offset="0.0606061" stop-color="#F0C252"/>
<stop offset="1" stop-color="#EB9978"/>
</linearGradient>
<linearGradient id="paint19_linear_76_186415" x1="294.685" y1="49.6108" x2="280.762" y2="66.808" gradientUnits="userSpaceOnUse">
<stop offset="0.0606061" stop-color="#F0C252"/>
<stop offset="1" stop-color="#EB9978"/>
</linearGradient>
<linearGradient id="paint20_linear_76_186415" x1="291.908" y1="64.8736" x2="275.173" y2="70.4734" gradientUnits="userSpaceOnUse">
<stop offset="0.0606061" stop-color="#F0C252"/>
<stop offset="1" stop-color="#EB9978"/>
</linearGradient>
<linearGradient id="paint21_linear_76_186415" x1="258.44" y1="81.2875" x2="257.273" y2="-7.81245" gradientUnits="userSpaceOnUse">
<stop stop-color="#99450F"/>
<stop offset="0.9994" stop-color="#FC991A"/>
</linearGradient>
<linearGradient id="paint22_linear_76_186415" x1="254.474" y1="51.2406" x2="253.847" y2="76.1461" gradientUnits="userSpaceOnUse">
<stop offset="0.0606061" stop-color="#FAB529"/>
<stop offset="1" stop-color="#FF9400"/>
</linearGradient>
<linearGradient id="paint23_linear_76_186415" x1="271.951" y1="8.12985" x2="270.448" y2="63.8142" gradientUnits="userSpaceOnUse">
<stop offset="0.0606061" stop-color="#FAC954"/>
<stop offset="1" stop-color="#FF9400"/>
</linearGradient>
<linearGradient id="paint24_linear_76_186415" x1="269.599" y1="8.06757" x2="268.096" y2="63.7374" gradientUnits="userSpaceOnUse">
<stop offset="0.0606061" stop-color="#FAC954"/>
<stop offset="1" stop-color="#FF9400"/>
</linearGradient>
<linearGradient id="paint25_linear_76_186415" x1="258.984" y1="7.78031" x2="257.481" y2="63.4599" gradientUnits="userSpaceOnUse">
<stop offset="0.0606061" stop-color="#FAC954"/>
<stop offset="1" stop-color="#FF9400"/>
</linearGradient>
<linearGradient id="paint26_linear_76_186415" x1="264.232" y1="64.5094" x2="269.538" y2="90.6172" gradientUnits="userSpaceOnUse">
<stop offset="0.0606061" stop-color="#FAB529"/>
<stop offset="1" stop-color="#FF9400"/>
</linearGradient>
<linearGradient id="paint27_linear_76_186415" x1="273.143" y1="46.856" x2="268.937" y2="91.6329" gradientUnits="userSpaceOnUse">
<stop offset="0.0606061" stop-color="#FAB529"/>
<stop offset="1" stop-color="#FF9400"/>
</linearGradient>
<linearGradient id="paint28_linear_76_186415" x1="254.242" y1="60.3811" x2="252.493" y2="79.0005" gradientUnits="userSpaceOnUse">
<stop offset="0.0606061" stop-color="#FAB529"/>
<stop offset="1" stop-color="#FF9400"/>
</linearGradient>
</defs>
</svg>
