<svg xmlns="http://www.w3.org/2000/svg" viewBox="0 0 89.99 119.61"><style>.B,.E,.F,.G{mix-blend-mode:multiply}.H{mix-blend-mode:screen}</style><g fill="#666977"><path d="m55.92 116.35.19 2.12s-2 1-2 .88.2-3 .2-3h1.61ZM31.58 93.43l5.53.77 1.14-5.92 2.03-10.48.59-3.02-7.91-3.3-1.38 21.95z"/><path d="m31.58 93.43 5.53.77 1.15-5.92L33 86.92s.82-11.25 1.37-11.61c.44-.29 4.33 1.67 5.92 2.49l.59-3.02-7.91-3.3-1.38 21.95Z" class="B" opacity=".4"/><path d="M43.33 75.31c.23.08 10.29 18.73 10.29 18.73l2.67-.71 1.94-.52-.38-.99-1.55-4.07-5.05-13.28-1.08-2.84-6.83 3.69Z"/><path d="M43.33 75.31c.23.08 10.29 18.73 10.29 18.73l2.67-.71 1.56-1.51-1.55-4.07c-1.12.41-3.16 1.13-3.55 1-.55-.18-5.48-9.97-5.67-10.97-.13-.73 2.64-2.44 4.16-3.31l-1.08-2.84-6.83 3.69Z" class="B" opacity=".4"/></g><path fill="#b6c9c9" d="M51.24 63.72c0 14.07 4.35 25.48 9.72 25.48s9.72-11.41 9.72-25.48-4.35-25.48-9.72-25.48-9.72 11.41-9.72 25.48Z"/><g fill="#7d5b51"><path d="M52.63 63.72c0 7.52 1.19 14.21 3.05 18.52 1.35 3.14 3.06 5.01 4.91 5.01.68 0 1.35-.26 1.98-.74.88-.67 1.7-1.77 2.44-3.23 2.13-4.22 3.53-11.41 3.53-19.57 0-5.51-.64-10.58-1.71-14.59-.76-2.84-1.73-5.15-2.85-6.71-1.02-1.43-2.17-2.24-3.39-2.24-1.64 0-3.16 1.47-4.43 3.98-2.13 4.22-3.53 11.41-3.53 19.56Z"/><path d="M58 65.22c0 7.52 1.19 14.21 3.05 18.52.47 1.09.98 2.02 1.52 2.78.88-.67 1.7-1.77 2.44-3.23 2.13-4.22 3.53-11.41 3.53-19.57 0-5.51-.64-10.58-1.71-14.59-.76-2.84-1.73-5.15-2.85-6.71-.88.67-1.71 1.77-2.44 3.23-2.13 4.22-3.53 11.41-3.53 19.56Z" opacity=".2" style="mix-blend-mode:multiply"/></g><path fill="#454a63" d="m48.98 25.73.21 2.58-10.32.06.32-2.85 9.79.21z"/><g fill="#666977"><path d="m50.11 53.68.25.82 2.57 8.56.14.46.47-1 1.65-3.49-.2-1.57-.65-5.35-.82-6.7-1.18-2.16-.3.13-1.3.57-.32 5.01-.14 2.16-.17 2.56z"/><path d="m50.24 49.6.04 1.52.08 3.38 2.57 8.56.61-.54 1.65-3.49-.19-1.57-2.62.93s-.32-.84-.13-1.75c.14-.66 1.41-3.21 2.09-4.54l-.82-6.7-1.18-2.16-.3.13-.25.53-1.38 5.05-.18.64Z" class="B" opacity=".4"/></g><g fill="#b6c9c9"><path d="M30.58 70.94c.31 2.07 12.48 6 14.05 6s6.68-4.78 6.68-4.78-2.75-4.71-3.14-5.04l-13.81-.78s-.3.24-.72.62c-1.14 1.01-3.2 3-3.05 3.98Z"/><path d="M30.58 70.94c.31 2.07 12.48 6 14.05 6 0 0-.09-3.68-.57-7.06l-10.43-2.92c-1.14 1.01-3.2 3-3.05 3.98Z" class="E" opacity=".4"/><path d="M31.55 53.33c.07 1.95 1.46 12.65 2.08 13.56.62.9 9.73 3.06 10.43 2.99s3.82-1.95 4.24-2.71c.39-.72 3.26-9.74 3.93-13.44l.1-.6c.2-1.52.1-4.54-.06-7.29l-.38-5.31-.04-.47-.19-.11c-.73-.42-3.31-1.91-3.49-1.91l-6.11-.11-4.75-.09-1.58.34-.06.15-.36.92-3.12 7.97-.28 1.87-.16 1.23c-.12 1.09-.22 2.23-.19 3.02z"/><path d="m34.85 42.33.26 3.66s1.89-1.18 2.35-2.16.39-4.11.72-3.92c.33.2 5.75 1.96 7.9 1.57 1.19-.22 2.25-1.16 2.95-1.95l3.24 6.31-.38-5.31-.23-.58-3.49-1.91-6.11-.11-4.75-.09-1.58.34-.06.15-.81 4.01z" class="F" opacity=".5"/><path d="M31.55 53.33c.07 1.95 1.46 12.65 2.08 13.56.62.9 9.73 3.06 10.43 2.99 3.2-8.62 3.2-18.77 1.32-30.73l-3.33-1.23-4.75-.09-1.58.34-.42 1.07-3.12 7.97s-.25 1.49-.43 3.1c-.12 1.09-.22 2.23-.19 3.02Z" class="F" opacity=".5"/><path d="M31.55 53.33c.07 1.95 1.46 12.65 2.08 13.56.62.9 9.73 3.06 10.43 2.99s3.82-1.95 4.24-2.71c.39-.72 3.26-9.74 3.93-13.44-3.8 5.35-17.82-.61-18.09-2.05-.13-.69-1.15-1.69-2.25-2.6l-.16 1.23c-.12 1.09-.22 2.23-.19 3.02z" class="G" opacity=".3"/><path d="M38.76 33.75c.16.54-.59 2.74-1.45 4.09.47.61 1.21 1.16 2.04 1.66 2.5 1.47 6.59 1.33 6.59 1.33s2.28-1.1 3.2-2.77c-1.94-2.36-2.16-4.22-1.5-4.79 3.01-2.58 3.76-4.79 3.5-5.16-.09-.13-1.26-.14-2.8-.13l-8.22.02c-.59-.32-.59-1.61-.21-1.67.25-.04 5.24.2 8.42.24 1.52.02 2.63 0 2.61-.13-.03-.19-.97-2.34-2.3-4.85-1.37-2.57-3.14-5.51-4.74-7.09l-.88-.02c-.83 0-1.99.01-2.29.18l-.29.25c-.07.06-.14.13-.21.2l-.5.51-.03.03a2 2 0 0 0-.19.22l-.93 1.16c-.05.06-.09.13-.14.19l-.14.2-.41.6-.65 1.06-.13.22-.25.44-.21.39-.39.76-.59 1.26-.1.24-.08.18-.1.25-.08.21-.22.58c-.03.07-.05.15-.08.22-.03.08-.05.16-.08.25-.02.07-.04.13-.07.2-.07.2-.12.39-.17.59-.02.06-.03.13-.05.19a9.53 9.53 0 0 0-.2.95c0 .06-.02.12-.02.17 0 .06-.02.12-.02.18 0 .05-.01.1-.01.16-.04.45 0 .83.1 1.12.8 2.21 4.14 5.6 4.3 6.13z"/></g><path fill="#ee7474" d="M25.96 6.05c.05 1.88.7 5.49 2.26 5.92s2.85-1.61 2.85-1.61-.16 1.18.54 1.5 1.34-.75 1.34-.75.48 2.64 2.05 3.07c1.56.43 3.6-2.31 3.6-2.31s1.88 2.1 2.64 1.13c0 0 .6.43 1.31.4a1.46 1.46 0 0 0 1-.4c1.02-.81 1.88-3.71.97-3.44.05-2.42-2.42-6.13-3.71-3.71-.16-1.67-2.04-3.39-3.01-2.21-.05-1.5-2.91-3.87-4.95-3.6-1.3.17-3.75 1.8-5.35 3.45-.91.94-1.55 1.89-1.53 2.58z"/><path fill="#c15a45" d="M25.96 6.05c.05 1.88.7 5.49 2.26 5.92s2.85-1.61 2.85-1.61-.16 1.18.54 1.5 1.34-.75 1.34-.75.48 2.64 2.05 3.07c1.56.43 3.6-2.31 3.6-2.31s1.88 2.1 2.64 1.13c0 0 .6.43 1.31.4l-.22-.26c-1.73-.8-2.59-3.15-2.47-3.52-.8 1.61-1.11.37-1.24-.31-1.3 2.97-4.2 2.59-4.63.19-.8 1.73-3.34 1.11-3.64-.62-1.3 1.11-2.78-.99-2.41-3.15-.78.91-1.24-.6-.44-2.24-.91.94-1.55 1.89-1.53 2.58z" opacity=".5" style="mix-blend-mode:multiply"/><g fill="#b6c9c9"><path d="M43.87 14.49s-1.56.7-2.9.05l.27-1.56s1.99-.16 2.31 0 .32 1.51.32 1.51z"/><path d="M38.76 33.75c.16.54-.59 2.74-1.45 4.09.47.61 1.21 1.16 2.04 1.66 2.5 1.47 6.59 1.33 6.59 1.33s-1.38-5.84-1-7.24c.33-1.22 2.9-3.54 3.38-5.61L40.1 28c-.59-.32-.59-1.61-.21-1.67.25-.04 5.24.2 8.42.24-.46-2.44-2.33-7.58-5.32-12.09-.83 0-1.99.01-2.29.18a6.45 6.45 0 0 0-.29.25c-.07.06-.14.13-.21.2-.17.16-.33.33-.5.51s-.02.02-.03.03a2 2 0 0 0-.19.22c-.31.36-.62.75-.93 1.16-.05.06-.09.13-.14.19l-.14.2-.41.6c-.22.34-.44.7-.65 1.06a6.17 6.17 0 0 1-.13.22l-.25.44-.21.39-.39.76c-.21.42-.4.85-.59 1.26-.03.08-.07.16-.1.24-.03.06-.05.12-.08.18-.04.09-.07.17-.1.25-.03.07-.06.14-.08.21-.08.2-.15.39-.22.58-.03.07-.05.15-.08.22-.03.08-.05.16-.08.25-.02.07-.04.13-.07.2-.07.2-.12.39-.17.59-.02.06-.03.13-.05.19a9.53 9.53 0 0 0-.2.95c0 .06-.02.12-.02.17 0 .06-.02.12-.02.18 0 .05-.01.1-.01.16-.04.45 0 .83.1 1.12.8 2.21 4.14 5.6 4.3 6.13z" class="F" opacity=".5"/><path d="M36.9 19.61c2.44 2.75 10.88 5.49 11.71 1.97-1.37-2.57-3.14-5.51-4.74-7.09 0 0-.38-.02-.88-.02-.83 0-1.99.01-2.29.18-1.32 1.09-2.68 2.95-3.8 4.96Z" opacity=".3" style="mix-blend-mode:screen"/><path d="M38.76 33.75c.16.54-.59 2.74-1.45 4.09.47.61 1.21 1.16 2.04 1.66 1.21-1.92 2.75-4.91 1.78-6.23-1.51-2.04-5.33-4.68-5.33-7.05 0-2.92 2.47-7.92 3.9-10.6l-.03.03a2 2 0 0 0-.19.22c-.31.36-.62.75-.93 1.16-.05.06-.09.13-.14.19l-.14.2-.41.6c-.22.34-.44.7-.65 1.06a6.17 6.17 0 0 1-.13.22l-.25.44-.21.39-.39.76c-.21.42-.4.85-.59 1.26-.03.08-.07.16-.1.24-.03.06-.05.12-.08.18-.04.09-.07.17-.1.25-.03.07-.06.14-.08.21-.08.2-.15.39-.22.58-.03.07-.05.15-.08.22-.03.08-.05.16-.08.25-.02.07-.04.13-.07.2-.07.2-.12.39-.17.59-.02.06-.03.13-.05.19a9.53 9.53 0 0 0-.2.95c0 .06-.02.12-.02.17 0 .06-.02.12-.02.18 0 .05-.01.1-.01.16-.04.45 0 .83.1 1.12.8 2.21 4.14 5.6 4.3 6.13z" class="F" opacity=".5"/></g><path fill="#404352" d="M31.74 50.32c.25 2 .78 3.7 1.61 3.57 1.33-.2 3.74-5.6 1.94-14.64l-3.12 7.97s-.25 1.49-.43 3.1Z"/><g fill="#b6c9c9"><path d="m49.56 38.32 5.07 11.82.21-3.27s2.43-5.63.35-9.04c-1.26-2.06-4.31.35-4.31.35l-1.32.14Z"/><path d="m49.56 38.32 5.07 11.82.21-3.27c-.77-4.03-3.96-8.69-3.96-8.69l-1.32.14Z" class="H" opacity=".4"/></g><g fill="#666977"><path d="m27.66 56.05 5.13-7.78 2.89-4.39.6-.9-4.8.56-1.03 1.45-5.92 8.32-.76 1.08c-.14.21 3.89 1.67 3.89 1.67z"/><path d="m24.53 53.3 1.41.43s2.52-4.72 3.04-4.85c.34-.09 2.42-.4 3.82-.62l2.89-4.39v-.03l-5.24 1.14-5.92 8.32z" class="B" opacity=".4"/></g><g fill="#b6c9c9"><path d="M22.24 54.73c.35 3.75 4.45 10.77 4.45 10.77l1.09-.29.99-.26s.63-5.63-.14-8.76c-1-1.99-2.45-3.24-3.72-3.68-1.57-.55-2.87.15-2.68 2.22Zm31.07 9.31c2.11 1.93 5.91.56 5.91.56l.14-1.6.14-1.66s-2.23-2.43-3.34-2.99c-1.83-.91-2.97.22-3.42 1.74-.43 1.44-.24 3.22.57 3.96Z"/><path d="M53.31 64.04c2.11 1.93 5.91.56 5.91.56l.14-1.6c-2.51 1.59-6.42-.78-6.62-2.91-.43 1.44-.24 3.22.57 3.96Z" class="G" opacity=".3"/></g><path fill="#e4ac91" d="M60.2 61.35c0-.13-.35-.61-.92-1.08-.57-.48-1.05 1.72-1.05 2.26s.92.54.92.54l.86-.22.19-1.5Z"/><path fill="#5c362a" d="M61.12 60.49c-1.68 3.83-.62 9.16-.58 9.05s-1.09-.11-1.09-.22-.44-3.5-.18-5.47 1.09-3.61 1.09-3.61l.77.26z"/><path fill="#7d5b51" d="m.003 63.517.166-1.178 79.746 11.208-.166 1.178z"/><g fill="#b6c9c9"><path d="m82.95 73.4-2.64.41.01.41.02.52L82.38 76l7.61-.22-7.04-2.38z"/><path d="m80.32 74.22.02.52L82.38 76l7.61-.22-9.67-1.56z" class="F" opacity=".5"/><path d="m80.4 75.7-1.25-.36.49-2.61 1.42.07-.66 2.9zm-54.96 42.6c-.04.11.36.15.78.16l.84-.01S38.5 95.88 38.5 94.42c0-.77-2.99-5.76-3.68-5.68s-4.3 2.53-4.99 4.3-4.3 25.03-4.38 25.26zm28.56-.38s.54-.61.77-.77c.14-.1.66-.04 1.01.01l.37.07 3.53-23.11c-.15-.69-2.14-4.94-3.61-4.84-1.08.08-3.84 4.84-3.92 6.3s1.84 22.34 1.84 22.34z"/><path d="m55.78 117.16.37.07 3.53-23.11c-.15-.69-2.14-4.94-3.61-4.84 1.45 10.96-.12 26.24-.29 27.88z" class="H" opacity=".4"/><path d="M25.44 118.3c-.04.11.36.15.78.16.65-2.92 5.05-22.35 8.59-29.72-.69.08-4.3 2.53-4.99 4.3s-4.3 25.03-4.38 25.26z" class="E" opacity=".4"/><path d="M27.82 119.61h-5.14s2.61-2.07 3.45-1.84 1.69 1.84 1.69 1.84zm25.33 0s1.95-1.46 2.63-1.69 6.51 1.69 6.51 1.69h-9.14zM27.87 47.98c-.14.28 8.14-2.44 8.97-4.24.83-1.81.69-6.6.69-6.6l-1.18.28s-3.83-2.78-5.35-.9c-1.53 1.88-1.46 8.62-1.53 8.9s-1.46 2.29-1.6 2.57z"/><path d="M27.87 47.98c-.14.28 8.14-2.44 8.97-4.24.83-1.81.69-6.6.69-6.6l-1.18.28c-.7 6.88-6.05 7.86-6.88 7.99-.07.28-1.46 2.29-1.6 2.57Zm-2.96 4.52c-1.76 1.34 1.8 10.17 2.87 12.71l-1.09.29s-4.1-7.02-4.45-10.77c-.19-2.07 1.1-2.77 2.68-2.22Z" class="G" opacity=".3"/></g><path fill="#f8c5a5" d="m28.77 64.94 1.73.69c.28.12.25 1 .25 1l-.73-.12s.16 1.81 0 2.13-.91.08-.91.08-.28-.32-.36-.56-2.18.44-2.38-.36c-.2-.79.31-2.31.31-2.31l2.09-.56zm32.52-3.59c.71.55-.39 3.41-.8 3.76s-1.81-.16-1.91-.47c-.1-.32.45-.54.45-.54s-.35-.38-.38-.76.51-.48.51-.48-.51-.16-.48-.54.54-.51.54-.51-.48-.03-.41-.54c.06-.51 2.2-.13 2.49.1z"/></svg>