<svg width="95" height="29" viewBox="0 0 95 29" fill="none" xmlns="http://www.w3.org/2000/svg">
<path d="M31.5317 22.2001H34.0662V15.4H40.2711V12.8H34.0662V9.40004H41.4073V6.80005H31.4443V22.2001H31.5317Z" fill="#092236"/>
<path d="M43.4175 9.40004H48.0494V22.2001H50.5838V9.40004H55.2157V6.80005H43.3301V9.40004H43.4175Z" fill="#092236"/>
<path d="M65.4408 14.5L60.7215 6.79996H58.5366V22.2H61.0711V12L62.1198 13.8999L65.3534 19.2L65.4408 19.2999L68.7617 13.8C69.1987 13.1 69.5483 12.3999 69.8979 11.8999V22.1H72.4323V6.69995H70.2475L65.4408 14.5Z" fill="#092236"/>
<path d="M88.1629 8.90009C86.852 7.40009 85.1041 6.6001 83.094 6.6001C81.084 6.6001 79.4235 7.40009 78.0252 8.90009C76.7143 10.4001 76.0151 12.3001 76.0151 14.5001C76.0151 16.7001 76.7143 18.6001 78.0252 20.1001C79.3361 21.6001 81.084 22.4001 83.094 22.4001C85.1041 22.4001 86.7646 21.6001 88.1629 20.1001C89.4739 18.6001 90.173 16.7001 90.173 14.5001C90.173 12.3001 89.4739 10.4001 88.1629 8.90009ZM86.2403 18.2001C85.3663 19.2001 84.405 19.7001 83.1815 19.7001C81.958 19.7001 80.9092 19.2001 80.0352 18.2001C79.1613 17.2001 78.8118 15.9001 78.8118 14.5001C78.8118 13.1001 79.2487 11.8001 80.0352 10.8001C80.9092 9.80009 81.958 9.30009 83.1815 9.30009C84.405 9.30009 85.4537 9.80009 86.3276 10.8001C87.2016 11.8001 87.5512 13.1001 87.5512 14.5001C87.5512 15.9001 87.1142 17.2001 86.2403 18.2001Z" fill="#092236"/>
<path d="M2.95385 17.7002L12.0428 7.30016V0.900146L0.157227 14.5002L2.95385 17.7002Z" fill="#092236"/>
<path d="M12.0426 28.2001V19.3L8.19727 23.7001L12.0426 28.2001Z" fill="#092236"/>
<path d="M12.0427 10L4.08984 19.1L6.97384 22.4L12.0427 16.6V10Z" fill="#092236"/>
<path d="M13.5283 0.800049V7.20004L19.8207 14.4L13.5283 21.6001V28L25.5013 14.3L13.5283 0.800049Z" fill="#092236"/>
<path d="M92.4456 1.30005C91.1347 1.30005 90.0859 2.50004 90.0859 3.90004C90.0859 5.40004 91.1347 6.50005 92.4456 6.50005C93.7565 6.50005 94.8052 5.30004 94.8052 3.90004C94.8052 2.50004 93.7565 1.30005 92.4456 1.30005ZM92.4456 6.00005C91.3969 6.00005 90.6977 5.10004 90.6977 3.90004C90.6977 2.80004 91.4843 1.80005 92.4456 1.80005C93.4943 1.80005 94.1935 2.70004 94.1935 3.90004C94.1935 5.10004 93.4943 6.00005 92.4456 6.00005Z" fill="#092236"/>
<path d="M92.9696 4.00009C93.2318 3.90009 93.4066 3.70009 93.4066 3.40009C93.4066 3.10009 93.3191 2.90009 93.1443 2.80009C92.9696 2.70009 92.7948 2.6001 92.3578 2.6001C92.0083 2.6001 91.6587 2.60009 91.4839 2.70009V5.30009H92.0082V4.30009H92.2704C92.5326 4.30009 92.7074 4.40009 92.7074 4.70009C92.7948 5.00009 92.7948 5.20009 92.8822 5.30009H93.4939C93.4065 5.20009 93.4065 5.0001 93.3191 4.6001C93.3191 4.3001 93.2318 4.10009 92.9696 4.00009ZM92.3578 3.80009H92.0957V3.1001C92.1831 3.1001 92.2704 3.1001 92.3578 3.1001C92.7074 3.1001 92.8822 3.30009 92.8822 3.50009C92.8822 3.70009 92.62 3.80009 92.3578 3.80009Z" fill="#092236"/>
</svg>
