<svg width="14" height="14" viewBox="0 0 14 14" fill="none" xmlns="http://www.w3.org/2000/svg">
<path d="M6.33334 3.63802H7.66668V4.97135H6.33334V3.63802ZM6.33334 6.30469H7.66668V10.3047H6.33334V6.30469ZM7.00001 0.304688C3.32001 0.304688 0.333344 3.29135 0.333344 6.97135C0.333344 10.6514 3.32001 13.638 7.00001 13.638C10.68 13.638 13.6667 10.6514 13.6667 6.97135C13.6667 3.29135 10.68 0.304688 7.00001 0.304688ZM7.00001 12.3047C4.06001 12.3047 1.66668 9.91135 1.66668 6.97135C1.66668 4.03135 4.06001 1.63802 7.00001 1.63802C9.94001 1.63802 12.3333 4.03135 12.3333 6.97135C12.3333 9.91135 9.94001 12.3047 7.00001 12.3047Z" fill="#E6E9EB"/>
</svg>
