<svg width="122" height="145" viewBox="0 0 122 145" fill="none" xmlns="http://www.w3.org/2000/svg">
<path d="M77.7651 141.751L79.0413 143.492L76.1409 145V143.144L77.7651 141.751Z" fill="#454A63"/>
<path d="M45.396 141.751L44.3518 143.492L46.7882 145V143.144L45.396 141.751Z" fill="#454A63"/>
<path d="M46.9036 118.664L51.5443 119.476L52.7045 116.459L54.5608 111.703L61.522 101.493L61.638 101.377L63.8423 98.1285C63.8423 98.1285 64.5384 99.5207 65.4666 101.493C65.4666 101.609 65.5826 101.609 65.5826 101.725C67.787 106.366 71.1515 113.791 71.2675 114.487C71.3836 115.415 71.8476 117.852 71.9637 118.548C71.9637 118.664 71.9637 118.78 71.9637 118.78L77.8806 115.531C77.8806 115.531 77.7646 114.835 77.5326 113.675C76.9525 110.891 75.9083 105.322 74.9802 100.217C74.7481 98.8246 74.4001 97.4323 74.168 96.0401C73.7039 93.8357 73.3559 91.7474 73.1239 90.3552C73.0078 89.6591 72.8918 88.963 72.7758 88.6149C72.6598 88.2668 72.6598 88.0348 72.6598 88.0348L59.6657 87.5707H58.1574L53.8647 87.4547C53.8647 87.4547 53.8647 87.4547 53.8647 87.5707C53.8647 87.6867 53.7487 88.0348 53.6327 88.4989C53.5167 88.7309 53.5167 89.079 53.4006 89.311C53.2846 89.7751 53.1686 90.2392 52.9366 90.8193C52.3565 92.7916 51.6603 95.576 50.9642 98.2445C49.572 103.349 48.0638 108.802 47.7157 110.31C47.3677 111.355 47.2516 112.747 47.1356 114.139C46.7876 116.343 46.9036 118.664 46.9036 118.664Z" fill="#454A63"/>
<g opacity="0.4">
<path d="M47.3679 113.675L46.9038 113.907C47.0198 112.515 47.1358 111.123 47.4839 110.078C47.948 108.57 49.3402 103.233 50.7325 98.0124C51.4286 95.2279 52.2407 92.5595 52.7048 90.5872C53.5169 89.543 53.5169 88.7309 53.4009 88.2668C53.1688 87.4546 52.3567 87.2226 53.6329 87.3386C53.981 87.3386 54.5611 87.4547 55.2572 87.5707C56.6494 87.8027 57.4615 87.6867 57.9256 87.3386C59.0858 86.6425 58.0416 85.1343 59.4339 87.3386C59.5499 87.5707 59.6659 87.8027 59.8979 88.0347C61.5222 90.5872 61.9863 91.2833 62.1023 91.3993L61.7543 98.0124C61.7543 98.0124 63.7266 95.924 61.5222 101.377L61.4062 101.493L54.445 111.703L52.5887 116.459L51.6606 117.039L52.2407 114.603C52.2407 114.603 55.6052 103.349 54.9091 102.305C54.445 101.145 47.3679 113.675 47.3679 113.675Z" fill="#454A63"/>
<path d="M71.8478 88.7308L74.1682 95.924C74.4003 97.2002 74.6323 98.5924 74.9804 100.101C76.0245 105.322 77.0687 110.774 77.5328 113.559H77.4168C77.3008 113.327 73.008 102.769 72.0799 102.885C71.1517 103.001 73.4721 117.62 73.4721 117.62L71.9639 118.432C71.8478 117.736 71.3838 115.183 71.2677 114.371C71.1517 113.675 67.6712 106.134 65.5828 101.609C65.5828 101.493 65.4668 101.493 65.4668 101.377L65.5828 89.0789L71.8478 88.7308Z" fill="#454A63"/>
</g>
<path d="M75.9089 138.039C76.0249 140.359 75.9089 144.304 75.9089 144.304L78.1133 141.983L78.2293 141.867C78.2293 141.867 79.9696 122.028 80.2016 116.459C80.2016 116.111 77.8813 113.327 76.8371 113.095C75.7929 112.747 71.0361 118.664 71.0361 118.664C71.0361 118.664 75.7929 135.718 75.9089 138.039Z" fill="#B6C9C9"/>
<path d="M44.8157 142.332L45.3958 142.912L46.788 144.072C46.788 144.072 47.4841 138.387 48.4123 134.21C49.2244 130.15 53.9812 117.387 53.9812 117.387C53.6331 115.299 50.7326 112.399 49.4564 112.167C49.3404 112.167 49.1084 112.167 48.8763 112.283C47.4841 112.747 45.1637 115.299 45.1637 115.299L44.8157 142.332Z" fill="#B6C9C9"/>
<path opacity="0.6" d="M45.512 142.912C45.512 139.431 45.628 119.244 49.5726 112.399L48.9925 112.515C47.6003 112.979 45.2799 115.531 45.2799 115.531L44.9319 142.448L45.512 142.912Z" fill="#B6C9C9"/>
<path opacity="0.6" d="M78.1131 141.984C78.2291 141.868 79.9694 122.028 80.2015 116.459C80.2015 116.111 77.8811 113.327 76.8369 113.095C78.4612 120.752 78.2291 137.807 78.1131 141.984Z" fill="#B6C9C9"/>
<path d="M73.0081 98.5924C73.0081 98.7084 73.2401 99.2885 73.5882 100.333C74.4003 103.349 76.0246 109.15 76.0246 109.15L79.7372 108.338L79.2731 107.41L79.1571 107.062L75.9085 99.5205L75.4445 98.3604L73.0081 98.5924Z" fill="#B6C9C9"/>
<g opacity="0.5">
<path d="M73.8203 98.9405L76.4887 107.874L79.2732 107.41L79.1572 107.062L76.7208 107.526L74.1684 98.8245L73.8203 98.9405Z" fill="#B6C9C9"/>
</g>
<path d="M45.7437 105.786L49.5723 107.41C49.5723 107.41 51.7767 101.841 53.0529 98.5925C53.5169 97.3163 53.865 96.3882 53.865 96.2721L51.8927 96.1561L50.7325 98.0124L46.5558 104.626L46.3237 104.974L45.7437 105.786Z" fill="#B6C9C9"/>
<g opacity="0.5">
<path d="M46.2075 104.973L49.108 106.25L53.0527 96.736L52.7046 96.62L48.876 105.785L46.4396 104.625L46.2075 104.973Z" fill="#B6C9C9"/>
</g>
<path opacity="0.5" d="M75.4445 98.3604L73.0081 98.5924C73.0081 98.7084 73.2401 99.2885 73.5882 100.333L75.9085 99.5205L75.4445 98.3604Z" fill="#B6C9C9"/>
<path opacity="0.5" d="M50.6167 98.1284L52.9371 98.7085C53.4012 97.4323 53.7492 96.5041 53.7492 96.3881L51.7769 96.2721L50.6167 98.1284Z" fill="#B6C9C9"/>
<path d="M69.9915 86.9905L70.4556 89.0789L72.8919 99.7526L74.8643 99.1725L77.5327 98.4764L77.1846 97.3162L77.0686 96.9682L74.5162 87.3386L74.0521 85.4823L72.6599 86.0624L71.3837 86.5265L71.0357 86.6425L69.9915 86.9905Z" fill="#B6C9C9"/>
<g opacity="0.5">
<path d="M71.0361 86.5265C71.2682 87.4547 72.5444 94.2998 73.2405 98.0124V98.1284L77.1851 97.3163L77.0691 96.9682L73.5885 97.6644C73.3565 96.2721 71.5002 87.1066 71.3842 86.4105L71.0361 86.5265Z" fill="#B6C9C9"/>
</g>
<path d="M48.5278 95.924C48.5278 96.04 49.572 96.5041 50.7322 96.8521C52.1244 97.3162 53.6327 97.7803 53.6327 97.7803L57.1133 88.2667L57.8093 86.4104L53.7487 84.5541L53.0526 84.2061C53.0526 84.2061 52.7045 85.0182 52.2405 86.1784C51.3123 88.6148 49.688 92.7915 48.9919 94.7638C48.9919 94.8798 48.8759 94.9958 48.8759 95.1118C48.6439 95.5759 48.5278 95.8079 48.5278 95.924Z" fill="#B6C9C9"/>
<g opacity="0.5">
<path d="M48.8762 95.1119L53.2849 96.6201L57.2296 86.1784L56.8815 86.0624L53.0529 96.156L48.9922 94.7638C48.8762 94.8798 48.8762 94.9958 48.8762 95.1119Z" fill="#B6C9C9"/>
</g>
<path d="M55.0251 108.57L69.9916 109.498C69.9916 109.498 69.4115 105.206 69.0634 102.189C68.9474 101.493 68.9474 100.913 68.8314 100.449C68.7154 99.8687 68.7154 99.5207 68.7154 99.4046L58.0416 99.1726L57.9256 99.7527L57.3455 101.493L55.0251 108.57Z" fill="#B6C9C9"/>
<g opacity="0.5">
<path d="M68.7157 108.338L68.0195 99.8688L67.6715 99.9848L68.2516 107.99L57.5778 106.946L59.0861 99.6367H58.738L57.1138 107.294L68.7157 108.338Z" fill="#B6C9C9"/>
</g>
<path opacity="0.5" d="M57.2292 101.609L69.0632 102.305C68.9472 101.609 68.9472 101.029 68.8311 100.565L57.8093 99.8687L57.2292 101.609Z" fill="#B6C9C9"/>
<path d="M68.0196 86.8745C68.2516 87.2226 69.9919 101.377 69.9919 101.377L55.9536 100.449L60.0143 87.1065L68.0196 86.8745Z" fill="#B6C9C9"/>
<g opacity="0.5">
<path d="M68.9472 100.681L67.903 87.8027L67.555 87.9187L68.5991 100.333L57.6934 99.2886L60.8258 87.6867L60.4778 87.5707L57.2292 99.5206L68.9472 100.681Z" fill="#B6C9C9"/>
</g>
<path opacity="0.5" d="M52.2407 86.1784C52.5888 86.2944 52.8208 86.4104 53.2849 86.6424C54.4451 87.1065 55.7213 87.6866 57.1135 88.1507C57.9257 88.4987 58.6218 88.7308 59.4339 89.0788C62.1023 90.123 64.5387 90.9351 65.1188 90.8191C65.5829 90.8191 66.9751 90.355 68.4834 89.775C69.0635 89.5429 69.7596 89.3109 70.4557 89.0788C71.3839 88.7308 72.196 88.3827 73.0081 88.0347C73.5882 87.8026 74.0523 87.5706 74.5164 87.4546L74.0523 85.5983L72.6601 86.1784C72.544 85.7143 72.544 85.4822 72.544 85.4822L53.749 84.6701L53.0529 84.3221C53.0529 84.206 52.7048 85.0182 52.2407 86.1784Z" fill="#B6C9C9"/>
<path d="M83.218 73.7644C83.218 73.7644 84.6102 72.3722 85.1903 72.3722C85.7704 72.3722 85.6544 76.6649 85.6544 76.6649L83.218 73.7644Z" fill="#B6C9C9"/>
<path d="M86.5825 78.8692C86.5825 78.8692 87.9747 77.4769 88.5548 77.4769C89.1349 77.4769 89.0189 81.7696 89.0189 81.7696L86.5825 78.8692Z" fill="#B6C9C9"/>
<path d="M40.0585 68.4275C40.0585 68.4275 38.3182 67.3833 37.7381 67.4994C37.158 67.6154 38.3182 71.7921 38.3182 71.7921L40.0585 68.4275Z" fill="#B6C9C9"/>
<path d="M37.9706 74.1123C37.9706 74.1123 36.2303 73.0682 35.6502 73.1842C35.0701 73.3002 36.2303 77.4769 36.2303 77.4769L37.9706 74.1123Z" fill="#B6C9C9"/>
<path d="M60.71 18.6554L64.5386 18.8875L63.9585 16.6831H63.2624H62.3343H61.2901L60.71 18.6554Z" fill="#B6C9C9"/>
<path d="M61.2905 16.6831H63.9589C67.4395 14.1306 67.9036 11.5782 66.9754 10.7661C66.6274 10.418 66.0472 10.302 65.3511 10.534C68.0196 8.67774 68.8317 4.50106 65.2351 1.71661C63.0308 -0.023678 61.4065 -0.255715 60.2463 0.208361C58.8541 0.672437 58.274 2.18068 58.39 2.99282C57.3458 2.41272 57.3458 5.19718 57.8099 6.35737C55.1415 5.19718 56.0696 7.28552 56.4177 7.98163C52.8211 8.67774 58.39 14.4787 59.2021 15.1748C56.8818 15.1748 61.2905 16.6831 61.2905 16.6831Z" fill="#FDB655"/>
<path opacity="0.5" d="M62.3347 18.4233H63.2629C63.2629 18.4233 63.2629 17.3791 63.2629 16.567H62.3347V18.4233Z" fill="#B6C9C9"/>
<path opacity="0.5" d="M61.2901 16.6831H63.9586C67.4392 14.1306 67.9032 11.5782 66.9751 10.7661C67.4392 11.6943 64.7707 13.5506 64.4227 13.5506C66.627 15.9869 61.9863 15.0588 61.5222 12.0423C61.7542 13.3185 58.1576 12.5064 58.6217 10.5341C57.5775 11.2302 57.2295 9.60591 57.4615 8.09766C57.6936 6.70544 59.0858 8.21368 59.0858 8.21368C59.0858 8.21368 58.2736 5.19719 58.3897 4.26903C58.5057 3.34088 60.014 4.38506 60.014 4.38506C60.014 4.38506 59.2018 1.36856 60.478 0.208374C59.0858 0.67245 58.5057 2.1807 58.6217 2.99283C57.5775 2.41273 57.5775 5.19719 58.0416 6.35738C55.3732 5.19719 56.3013 7.28553 56.6494 7.98164C53.0528 8.67776 58.6217 14.4787 59.4339 15.1748C56.8814 15.1748 61.2901 16.6831 61.2901 16.6831Z" fill="#FDB655"/>
<path d="M73.8203 57.7538L76.9528 72.9523L77.3009 74.4605L81.3615 73.1843L81.1295 58.4499V54.9693V54.5052L80.2014 54.8533L73.8203 57.7538Z" fill="#454A63"/>
<path opacity="0.5" d="M73.8203 57.7538L76.9528 73.0683H78.229C78.229 73.0683 76.0247 63.0907 76.0247 61.4664C76.0247 60.3062 79.2732 59.146 81.1295 58.5659V55.0854L80.2014 54.9694L73.8203 57.7538Z" fill="#454A63"/>
<path d="M82.2898 51.6048C82.2898 51.6048 84.0301 47.6601 83.7981 47.08C83.5661 46.4999 79.6214 47.5441 79.6214 47.5441L78.3452 45.5718C78.3452 45.5718 78.3452 42.2072 77.6491 41.7432C76.953 41.2791 75.0967 44.7597 75.0967 44.7597L82.2898 51.6048Z" fill="#B6C9C9"/>
<path d="M44.2357 46.6159C44.2357 46.6159 43.1915 42.4392 43.5395 41.8591C43.8876 41.279 47.6002 43.0193 47.6002 43.0193L49.2245 41.279C49.2245 41.279 49.8046 38.0305 50.6167 37.6825C51.4288 37.3344 52.705 41.047 52.705 41.047L44.2357 46.6159Z" fill="#B6C9C9"/>
<path d="M41.1028 68.7755L46.6717 69.8197L51.3125 53.8091L45.0474 51.6047L44.5834 53.8091L41.1028 68.7755Z" fill="#454A63"/>
<path opacity="0.5" d="M45.2796 67.3834L46.6719 69.8198L51.3126 53.9252L45.0476 51.7208L44.5835 53.9252C45.7437 54.7373 47.832 56.3616 47.948 56.7096C48.0641 57.0577 45.2796 67.3834 45.2796 67.3834Z" fill="#454A63"/>
<path d="M51.1968 84.3222C51.1968 84.3222 58.622 88.2668 64.887 89.543C67.2074 89.0789 75.0967 86.0624 75.0967 86.0624L72.5443 82.1178V82.0018C72.5443 82.0018 72.5443 82.0018 72.5443 81.8858C72.7763 79.4494 74.5166 63.5548 74.4006 54.7373C74.4006 54.2732 74.4006 53.9252 74.4006 53.5771L73.9365 48.2403C73.9365 48.2403 64.655 46.848 57.8098 45.4558C56.5336 45.2238 55.3734 44.8757 54.3293 44.6437C54.3293 45.2238 54.3293 45.9199 54.2133 46.616C53.7492 51.1407 51.3128 55.6655 51.3128 56.1296C51.3128 56.3616 51.7769 62.7426 52.2409 69.0077C52.2409 69.0077 52.2409 69.0077 52.2409 69.1237C52.705 74.4605 53.0531 79.7974 53.1691 81.3057C53.1691 81.4217 53.1691 81.4217 53.1691 81.4217V81.5377C53.1691 81.6537 53.1691 81.6537 53.1691 81.6537L51.1968 84.3222Z" fill="#B6C9C9"/>
<path opacity="0.5" d="M51.4287 56.0135C51.4287 56.3615 52.4729 69.7037 53.053 77.0129C53.8652 70.0518 52.3569 57.6377 52.821 56.8256C53.7491 55.5494 54.5613 51.3727 55.0253 49.2844C57.2297 53.345 60.3622 55.6654 63.6107 56.3615C64.3068 56.4775 64.8869 56.4775 65.5831 56.3615C67.5554 56.0135 69.4117 54.5052 70.9199 52.6489C71.152 54.6212 71.616 59.146 71.9641 60.1902C72.4282 61.5824 73.5884 61.3503 73.5884 61.3503C73.5884 61.3503 72.8923 79.3333 72.6602 81.8857C72.8923 79.4493 74.6326 63.5547 74.5165 54.7373C73.7044 52.7649 72.7762 50.6766 72.5442 49.9805C72.8923 49.4004 73.1243 48.8203 73.3563 48.1242C66.5112 44.2956 65.8151 42.3232 67.5554 37.2184C67.5554 37.2184 58.3899 32.4616 58.1579 38.8427C57.9258 45.3397 55.3734 43.7155 52.821 43.3674C53.053 44.7596 53.5171 46.1519 54.2132 47.4281V47.5441C54.2132 47.8921 54.0972 48.1242 53.9812 48.4722C53.9812 48.5883 53.8651 48.8203 53.8651 48.9363C53.8651 49.0523 53.7491 49.1684 53.7491 49.2844C53.7491 49.2844 53.7491 49.2844 53.7491 49.4004C53.7491 49.5164 53.6331 49.6324 53.6331 49.7484V49.8645C53.6331 49.9805 53.6331 49.9805 53.5171 50.0965C53.5171 50.2125 53.4011 50.3285 53.4011 50.4446C53.4011 50.5606 53.285 50.7926 53.285 50.9086C53.053 51.4887 52.937 51.9528 52.705 52.5329C52.5889 52.7649 52.589 52.881 52.4729 53.113C52.1249 54.0411 51.7768 54.8533 51.5448 55.3174C51.5448 55.4334 51.4287 55.4334 51.4287 55.5494C51.4287 55.6654 51.4288 55.6654 51.3127 55.7814C51.5448 55.8974 51.5448 55.8974 51.4287 56.0135Z" fill="#B6C9C9"/>
<path opacity="0.4" d="M65.003 89.5429L64.539 85.0181C64.539 85.0181 65.3511 65.759 65.6991 56.2454C65.8152 53.2289 65.8152 51.2566 65.6991 51.1406L58.0419 45.2236C56.7657 44.9916 55.6055 44.6435 54.5613 44.4115C54.5613 45.3397 54.5613 46.3838 54.3293 47.428V47.544C54.3293 47.8921 54.2133 48.1241 54.0973 48.4722C54.0973 48.5882 53.9812 48.8202 53.9812 48.9362C53.9812 49.0523 53.8652 49.1683 53.8652 49.2843C53.8652 49.2843 53.8652 49.2843 53.8652 49.4003C53.8652 49.5163 53.8652 49.6324 53.7492 49.7484V49.8644C53.7492 49.9804 53.7492 49.9804 53.6332 50.0964C53.6332 50.2124 53.5172 50.3285 53.5172 50.4445C53.5172 50.5605 53.4011 50.7925 53.4011 50.9086C53.1691 51.4887 53.0531 51.9527 52.821 52.5328C52.705 52.7649 52.705 52.8809 52.589 53.1129C52.2409 54.0411 51.8929 54.8532 51.6608 55.3173C51.6608 55.4333 51.5448 55.4333 51.5448 55.5493C51.5448 55.6653 51.5448 55.6653 51.4288 55.7814V55.8974C51.4288 56.2454 52.473 69.5876 53.0531 76.8968C53.2851 79.5652 53.4011 81.4215 53.4011 81.4215L51.1968 84.322C51.1968 84.322 58.738 88.3827 65.003 89.5429Z" fill="#B6C9C9"/>
<path d="M53.0532 42.0912C54.3294 48.5883 59.4342 53.9251 63.7269 54.9693C68.1357 55.8975 72.0803 50.7926 73.4725 46.848C71.8483 45.9198 70.456 45.1077 69.5279 44.2956C66.5114 41.8592 66.3954 39.7708 67.6716 35.9422C67.6716 35.9422 67.4395 35.8262 67.0915 35.7102C65.5832 35.014 61.5226 33.3898 59.4343 34.898C58.7382 35.3621 58.2741 36.2903 58.2741 37.6825C58.1581 42.7873 56.4178 42.9033 54.5615 42.5553C54.0974 42.3232 53.5173 42.2072 53.0532 42.0912Z" fill="#B6C9C9"/>
<path opacity="0.5" d="M54.561 42.4393C57.9256 44.8757 64.5387 46.1519 69.5275 44.2956C67.7872 42.9034 66.9751 41.5112 66.8591 39.8869C66.8591 38.7267 67.0911 37.4505 67.6712 35.9422C67.6712 35.9422 67.4391 35.8262 67.0911 35.7102C64.8867 35.4782 61.9863 35.1301 59.4338 34.8981C58.9698 35.2461 58.6217 35.8262 58.3896 36.5223C58.2736 36.8704 58.2737 37.2185 58.2737 37.6825C58.2737 38.7267 58.1576 39.5388 58.0416 40.2349C57.4615 42.6713 56.0693 42.6713 54.561 42.4393Z" fill="#B6C9C9"/>
<path opacity="0.3" d="M58.3896 39.4228C59.4338 40.1189 61.5222 40.815 62.3343 40.931C63.2625 41.0471 64.7707 40.467 66.279 39.3068C66.279 38.2626 66.511 37.1024 66.9751 35.7102C66.9751 35.7102 66.743 35.5942 66.511 35.4781L58.7377 36.1743C58.6217 36.5223 58.6217 36.7544 58.6217 37.1024C58.6217 38.1466 58.5057 38.8427 58.3896 39.4228Z" fill="#454A63"/>
<path d="M73.24 60.3062C73.24 60.3062 79.157 58.6819 82.4055 56.0135C82.8696 55.6654 83.3337 55.2013 83.6817 54.7372C82.7536 46.848 76.7206 42.9033 74.1682 44.0635C73.9361 44.1795 73.7041 44.4116 73.472 44.6436C70.1075 49.1683 73.24 60.3062 73.24 60.3062Z" fill="#B6C9C9"/>
<path opacity="0.4" d="M82.4058 56.0135C82.8699 55.6654 83.334 55.2013 83.682 54.7372C82.7539 46.848 76.7209 42.9033 74.1685 44.0635C73.8204 48.2402 77.185 55.7814 82.4058 56.0135Z" fill="#B6C9C9"/>
<path d="M42.3792 49.5164C42.6112 49.9805 42.9592 50.4446 43.4233 50.9087C46.0917 53.9252 51.6607 56.4776 51.6607 56.4776C51.6607 56.4776 52.0087 55.6654 52.5888 54.3892C53.865 51.0247 56.0694 44.6436 54.2131 41.0471C54.0971 40.815 53.865 40.583 53.633 40.467C53.0529 40.0029 52.1247 40.0029 51.0806 40.1189C48.0641 40.699 44.0034 43.9475 42.3792 49.5164Z" fill="#B6C9C9"/>
<path opacity="0.4" d="M52.4731 54.3892C53.7493 51.0247 55.9536 44.6436 54.0973 41.0471C53.9813 40.815 53.7493 40.583 53.5172 40.467C52.9371 40.0029 52.009 40.0029 50.9648 40.1189C46.208 45.4558 45.976 53.113 52.4731 54.3892Z" fill="#B6C9C9"/>
<path d="M34.6057 81.8856L36.8101 83.5099C36.8101 83.5099 48.412 70.3997 47.7159 67.8473C47.5999 67.6153 47.4838 67.2672 47.3678 67.0352C46.4396 65.759 44.1193 64.9469 42.379 65.0629C41.4508 65.1789 40.6387 65.527 40.2907 66.107C38.7824 68.4274 34.6057 81.8856 34.6057 81.8856Z" fill="#B6C9C9"/>
<path opacity="0.4" d="M34.6057 81.8857L36.8101 83.51C36.8101 83.51 48.412 70.3999 47.7159 67.8474C47.5999 67.6154 47.4838 67.2673 47.3678 67.0353C44.1193 73.5324 38.5504 80.6095 37.0421 80.9576C35.6499 81.3056 40.6387 69.2397 42.379 65.063C41.4508 65.179 40.6387 65.5271 40.2907 66.1072C38.7824 68.4275 34.6057 81.8857 34.6057 81.8857Z" fill="#B6C9C9"/>
<path d="M34.4901 85.9463C35.8823 85.5983 36.9264 82.8138 36.9264 82.8138L35.3022 81.5376L34.4901 81.7696C34.4901 81.7696 32.0537 83.2779 31.9376 83.3939C31.8216 83.5099 31.5896 83.974 31.5896 83.974L34.4901 85.9463Z" fill="#E4AC91"/>
<path d="M29.6168 81.7697L28.8047 83.1619L38.7823 88.6148L39.7105 87.2225L29.6168 81.7697Z" fill="#6D808C"/>
<path d="M27.7609 74.9246L31.3575 78.7532L30.0813 82.4658L29.0371 82.3498L30.0813 78.9852L27.4128 75.3886L27.7609 74.9246Z" fill="#6D808C"/>
<path d="M21.4958 85.1343L26.8327 85.9464L29.7332 83.1619L29.0371 82.4658L26.3687 85.0182L21.6119 84.6702L21.4958 85.1343Z" fill="#6D808C"/>
<path d="M6.76131 67.9635L0.0322266 66.6873L4.32494 71.6761L28.5729 83.626L29.9651 81.4217L6.76131 67.9635Z" fill="#C2D6D7"/>
<path d="M1.77246 67.7314L5.48508 70.6319L29.0369 82.6979L29.385 82.2338L6.41322 69.2397L1.77246 67.7314Z" fill="#B6C9C9"/>
<path d="M28.3405 84.0902C29.2687 84.5542 30.4289 84.3222 31.009 83.5101C31.5891 82.6979 31.241 81.5378 30.3128 81.0737C29.3847 80.6096 28.2245 80.8416 27.6444 81.6538C27.1803 82.4659 27.5284 83.6261 28.3405 84.0902Z" fill="#8095A5"/>
<path opacity="0.4" d="M28.6891 83.6261C29.2692 83.9741 30.1973 83.7421 30.5453 83.162C30.8934 82.5819 30.7774 81.7698 30.0813 81.4217C29.5012 81.0737 28.573 81.3057 28.225 81.8858C27.8769 82.4659 27.993 83.278 28.6891 83.6261Z" fill="#8095A5"/>
<path d="M32.1698 86.0624C32.1698 86.0624 32.2859 86.7585 32.6339 86.8745C32.8659 86.9906 33.446 86.5265 33.446 86.5265C33.446 86.5265 33.446 86.9906 33.7941 87.2226C33.9101 87.3386 34.3742 86.9906 34.6062 86.6425C34.9543 86.1784 35.3024 85.4823 35.0703 85.3663C34.7223 85.1343 33.9101 85.5983 33.9101 85.5983C33.9101 85.5983 34.4902 84.4381 34.0261 84.2061C33.562 83.9741 33.098 84.6702 33.098 84.6702C33.098 84.6702 33.33 83.9741 32.982 83.742C32.6339 83.51 32.2858 83.858 32.2858 83.858C32.2858 83.858 32.5179 82.5818 31.4737 82.9299C31.4737 82.9299 31.0096 83.394 30.5455 83.9741C30.1975 84.4381 29.8494 85.0182 30.0815 85.1343C30.5456 85.4823 31.0097 85.0182 31.0097 85.0182C31.0097 85.0182 30.8936 86.1784 31.2417 86.2944C31.5897 86.4105 32.1698 86.0624 32.1698 86.0624Z" fill="#F8C5A5"/>
<path d="M32.1698 86.0625C32.1698 86.0625 32.2859 86.7586 32.6339 86.8746C32.8659 86.9906 33.446 86.5265 33.446 86.5265C33.446 86.5265 33.446 86.9906 33.7941 87.2226C33.9101 87.3387 34.3742 86.9906 34.6062 86.6426C34.2582 86.6426 33.9101 86.6425 33.7941 86.1785C33.446 86.2945 32.4019 86.4105 32.5179 85.4824C31.7058 85.5984 31.5897 84.4382 31.5897 84.4382C31.5897 84.4382 30.7776 84.4382 30.5455 83.9741C30.1975 84.4382 29.8494 85.0183 30.0815 85.1343C30.5456 85.4824 31.0097 85.0183 31.0097 85.0183C31.0097 85.0183 30.8936 86.1785 31.2417 86.2945C31.5897 86.4105 32.1698 86.0625 32.1698 86.0625Z" fill="#E4AC91"/>
<path d="M34.4898 81.7697C33.3296 81.6537 31.3572 82.5818 31.3572 82.5818L31.2412 85.1342C31.2412 85.1342 33.0975 85.3663 32.4014 83.626C32.9815 83.3939 34.9538 83.51 34.4898 81.7697Z" fill="#F8C5A5"/>
<path d="M91.6871 85.8304L89.9468 87.9188C89.9468 87.9188 75.5605 77.4771 75.6765 74.8086C75.6765 74.5766 75.7925 74.2285 75.9085 73.9965C76.4886 72.4882 78.577 71.3281 80.3172 71.096C81.2454 70.98 82.0575 71.212 82.6376 71.7921C84.4939 73.6484 91.6871 85.8304 91.6871 85.8304Z" fill="#B6C9C9"/>
<path opacity="0.4" d="M91.6871 85.8304L89.9468 87.9187C89.9468 87.9187 75.5605 77.477 75.6765 74.8086C75.6765 74.5765 75.7925 74.2285 75.9085 73.9964C80.6653 79.6814 87.7424 85.4823 89.2507 85.5983C90.6429 85.7144 82.9857 74.9246 80.3172 71.212C81.2454 71.096 82.0575 71.328 82.6376 71.9081C84.4939 73.6484 91.6871 85.8304 91.6871 85.8304Z" fill="#B6C9C9"/>
<path d="M92.7311 89.891C91.2229 89.891 89.7146 87.3386 89.7146 87.3386L90.9908 85.8303H91.803C91.803 85.8303 94.5874 86.8745 94.7034 86.8745C94.8195 86.8745 95.1675 87.3386 95.1675 87.3386L92.7311 89.891Z" fill="#E4AC91"/>
<path d="M96.5596 84.7861L97.7197 85.9463L89.1343 93.2555L87.9741 92.0953L96.5596 84.7861Z" fill="#6D808C"/>
<path d="M96.7914 77.709L94.239 82.1177L96.2113 85.5983L97.1395 85.2502L95.3992 82.1177L97.1395 78.057L96.7914 77.709Z" fill="#6D808C"/>
<path d="M105.261 86.4104L100.272 88.3828L96.7917 86.1784L97.2558 85.2502L100.388 87.2226L105.029 85.9464L105.261 86.4104Z" fill="#6D808C"/>
<path d="M115.587 66.6873L121.968 64.2509L118.835 69.8198L97.9518 86.2945L96.0955 84.5542L115.587 66.6873Z" fill="#C2D6D7"/>
<path d="M120.344 65.527L117.559 69.1236L97.2558 85.5983L96.7917 85.1342L116.283 67.9634L120.344 65.527Z" fill="#B6C9C9"/>
<path d="M98.2997 86.7585C97.4875 87.4546 96.3273 87.4546 95.6312 86.6424C94.9351 85.9463 94.9351 84.7861 95.7472 84.2061C96.5594 83.5099 97.7196 83.5099 98.4157 84.3221C99.1118 85.0182 98.9958 86.0624 98.2997 86.7585Z" fill="#8095A5"/>
<path opacity="0.4" d="M97.8359 86.4105C97.2558 86.8746 96.4437 86.8746 95.9796 86.4105C95.5156 85.9464 95.5156 85.1343 95.9796 84.6702C96.5597 84.2061 97.3718 84.2061 97.8359 84.6702C98.416 85.1343 98.416 85.9464 97.8359 86.4105Z" fill="#8095A5"/>
<path d="M95.0519 89.5429C95.0519 89.5429 95.0519 90.2391 94.8199 90.4711C94.5878 90.7031 93.8917 90.239 93.8917 90.239C93.8917 90.239 94.0077 90.7031 93.6597 90.9352C93.5437 91.0512 93.0796 90.8191 92.7315 90.4711C92.2674 90.123 91.8034 89.5429 91.9194 89.3109C92.2675 88.9628 93.0796 89.3109 93.0796 89.3109C93.0796 89.3109 92.2674 88.3828 92.7315 88.0347C93.1956 87.6866 93.7757 88.2667 93.7757 88.2667C93.7757 88.2667 93.3116 87.6866 93.6597 87.3386C94.0077 86.9905 94.3558 87.3386 94.3558 87.3386C94.3558 87.3386 93.8917 86.1784 94.9359 86.2944C94.9359 86.2944 95.516 86.6425 96.0961 87.1065C96.5601 87.4546 97.0242 87.9187 96.7922 88.1507C96.4441 88.6148 95.864 88.2667 95.864 88.2667C95.864 88.2667 96.2121 89.3109 95.9801 89.5429C95.748 89.775 95.0519 89.5429 95.0519 89.5429Z" fill="#F8C5A5"/>
<path d="M95.0516 89.543C95.0516 89.543 95.0516 90.2391 94.8196 90.4711C94.5875 90.7032 93.8914 90.2391 93.8914 90.2391C93.8914 90.2391 94.0074 90.7032 93.6594 90.9352C93.5434 91.0512 93.0793 90.8192 92.7312 90.4711C93.0793 90.3551 93.4273 90.3551 93.4273 89.891C93.7754 90.007 94.8195 89.775 94.4715 88.9629C95.2836 88.9629 95.1676 87.8027 95.1676 87.8027C95.1676 87.8027 95.9798 87.6867 95.9798 87.1066C96.4438 87.4546 96.9079 87.9187 96.6758 88.1507C96.3278 88.6148 95.7477 88.2668 95.7477 88.2668C95.7477 88.2668 96.0958 89.3109 95.8637 89.543C95.7477 89.775 95.0516 89.543 95.0516 89.543Z" fill="#E4AC91"/>
<path d="M91.8033 85.8304C92.8474 85.4823 95.0518 85.9464 95.0518 85.9464L95.7479 88.3828C95.7479 88.3828 94.0076 88.9629 94.2397 87.1066C93.6596 86.9906 91.6872 87.5707 91.8033 85.8304Z" fill="#F8C5A5"/>
<path opacity="0.3" d="M51.1968 84.3221C51.1968 84.3221 58.622 88.2667 64.887 89.543C67.2074 89.0789 75.0967 86.0624 75.0967 86.0624L72.5443 82.1177C72.5443 82.1177 66.5113 85.2503 64.4229 85.0182C62.3346 84.7862 53.2851 81.4216 53.2851 81.4216L51.1968 84.3221Z" fill="#B6C9C9"/>
<path d="M66.9753 38.7267C66.9753 38.7267 64.4228 40.6991 62.5665 40.6991C60.7102 40.6991 58.3899 39.3068 58.3899 39.3068L55.7214 26.7768L58.2739 24.6884L63.3787 24.5724L67.2073 24.2244L68.7156 24.6884L68.8316 30.9535L66.9753 38.7267Z" fill="#593D43"/>
<path d="M53.8648 37.1024C53.9809 37.4505 54.677 38.0306 55.6051 38.6107C56.4173 39.1908 57.5775 39.7709 58.7377 40.351L58.9697 37.6825L59.6658 30.6054L56.7653 29.7932V28.9811H61.1741L61.8701 37.5665H63.4944L64.1905 28.9811H68.5993V29.7932L65.6988 30.6054L65.9308 33.1578L66.3949 38.1466L66.6269 40.467C67.323 40.1189 68.0192 39.7709 68.7153 39.4228C70.2235 38.4947 71.4997 37.5665 71.4997 37.2184C71.6158 36.8704 71.4997 35.4782 71.3837 33.6219C71.0357 30.0253 70.4556 24.9204 70.1075 23.5282C69.9915 23.2962 69.9915 23.1802 69.8755 22.9481C68.8313 21.0918 65.8148 18.3074 63.0303 18.0753C62.9143 18.0753 62.9143 18.0753 62.7983 18.0753C62.5663 18.0753 62.2182 18.1913 61.9862 18.1913C59.2017 18.8874 56.3012 21.6719 55.6051 23.4122V23.5282C55.2571 24.8044 54.561 30.0253 54.3289 33.7379C53.8648 35.3621 53.7488 36.7544 53.8648 37.1024Z" fill="#B6C9C9"/>
<path opacity="0.3" d="M66.3953 38.0306L66.6273 40.351C67.3234 40.0029 68.0195 39.6549 68.7156 39.3068C70.2239 38.3787 71.5001 37.4505 71.5001 37.1024C71.6161 36.7544 71.5001 35.3622 71.3841 33.5059C70.4559 35.7102 68.5996 37.3345 66.3953 38.0306Z" fill="#B6C9C9"/>
<path opacity="0.3" d="M53.8647 37.1024C53.9807 37.4505 54.6768 38.0305 55.605 38.6106C56.4171 39.1907 57.5773 39.7708 58.7375 40.3509L58.9695 37.6825C57.1132 36.8704 55.373 35.4781 53.9807 33.6218C53.8647 35.3621 53.7487 36.7543 53.8647 37.1024Z" fill="#B6C9C9"/>
<path opacity="0.4" d="M55.3735 23.2961C60.9424 30.6053 65.9313 28.633 69.8759 22.832C68.8317 20.9757 65.8152 18.1913 63.0308 17.9592C62.9147 17.9592 62.9148 17.9592 62.7987 17.9592C62.5667 17.9592 62.2186 18.0752 61.9866 18.0752C58.9701 18.6553 55.9536 21.4398 55.3735 23.2961Z" fill="#B6C9C9"/>
<path d="M62.1023 89.1949V89.311C62.2183 89.427 62.1023 89.1949 62.1023 89.1949Z" fill="#B6C9C9"/>
<path d="M54.2132 115.415L54.0972 115.531C54.0972 115.647 54.2132 115.415 54.2132 115.415Z" fill="#B6C9C9"/>
<path d="M79.0413 142.68L76.1409 145H86.8146C86.8146 145 84.7263 143.956 82.87 143.956C81.0137 143.84 79.0413 142.68 79.0413 142.68Z" fill="#B6C9C9"/>
<path d="M44.3512 142.68L46.7876 145H38.0862C38.0862 145 39.8265 143.956 41.3347 143.956C42.843 143.84 44.3512 142.68 44.3512 142.68Z" fill="#B6C9C9"/>
</svg>
