<svg width="51" height="36" viewBox="0 0 51 36" fill="none" xmlns="http://www.w3.org/2000/svg">
<path d="M49.4588 6.39639C48.8824 4.25522 47.1941 2.56698 45.0529 1.99051C41.1412 0.919922 25.4941 0.919922 25.4941 0.919922C25.4941 0.919922 9.84706 0.919922 5.93529 1.94933C3.83529 2.5258 2.10588 4.25522 1.52941 6.39639C0.5 10.3082 0.5 18.4199 0.5 18.4199C0.5 18.4199 0.5 26.5729 1.52941 30.4435C2.10588 32.5846 3.79412 34.2729 5.93529 34.8493C9.88824 35.9199 25.4941 35.9199 25.4941 35.9199C25.4941 35.9199 41.1412 35.9199 45.0529 34.8905C47.1941 34.314 48.8824 32.6258 49.4588 30.4846C50.4882 26.5729 50.4882 18.4611 50.4882 18.4611C50.4882 18.4611 50.5294 10.3082 49.4588 6.39639Z" fill="#393939"/>
<path d="M20.5117 10.9258V25.914L33.5235 18.4199L20.5117 10.9258Z" fill="white"/>
</svg>
