<svg width="63" height="232" viewBox="0 0 63 232" fill="none" xmlns="http://www.w3.org/2000/svg">
<path fill-rule="evenodd" clip-rule="evenodd" d="M21.8747 139.125H41.3434C41.5622 144.156 41.1247 149.188 40.4684 154.219C37.6247 183.094 39.5934 180.906 39.1559 196.875C38.9372 208.031 38.2809 222.25 36.7497 230.781C32.3747 232.531 24.7184 227.938 24.9372 223.344C26.6872 210.438 24.9372 195.781 22.7497 184.844C21.6559 179.156 21.2184 178.719 21.6559 172.813C22.3122 163.188 22.7497 151.156 21.8747 139.125Z" fill="url(#paint0_radial_74_12561)"/>
<path opacity="0.6" fill-rule="evenodd" clip-rule="evenodd" d="M33.6875 176.969C31.9375 186.375 32.1562 185.282 33.9062 194.032C36.0937 203.657 37.625 216.563 33.4688 222.907C31.0625 226.407 27.7813 226.407 25.375 218.969C25.1563 220.5 25.1563 222.032 24.9375 223.563C24.7188 228.157 32.375 232.75 36.75 231C38.2813 222.469 38.9375 208.25 39.1563 197.094C39.5938 181.125 37.625 183.313 40.4687 154.438C40.9062 149.407 41.3438 144.375 41.3438 139.344H21.875C22.0937 143.5 22.3125 147.875 22.3125 152.032C23.625 145.907 26.6875 143.938 29.75 144.594C36.0938 146.344 36.3125 156.407 35.875 163.407C35.4375 168 34.5625 172.375 33.6875 176.969Z" fill="url(#paint1_radial_74_12561)"/>
<path opacity="0.25" fill-rule="evenodd" clip-rule="evenodd" d="M24.9375 194.25C24.9375 197.094 25.5937 199.937 26.0312 202.781C26.6875 208.031 26.6875 210.875 26.4687 214.156C26.25 218.094 26.25 219.844 26.6875 220.062C27.3438 220.281 29.0937 216.781 29.75 213.719C31.0625 208.687 31.2813 202.344 31.0625 197.969C30.8438 196.219 30.8438 194.25 29.9688 192.719C28.4375 189.656 24.9375 192.281 24.9375 194.25Z" fill="url(#paint2_linear_74_12561)"/>
<path opacity="0.15" fill-rule="evenodd" clip-rule="evenodd" d="M38.9377 208.25C37.1877 215.907 35.0002 220.719 31.2815 225.75C32.8127 224.219 34.344 222.25 35.6565 219.844C37.6252 216.563 38.719 213.063 38.719 208.907C38.9377 208.688 38.9377 208.469 38.9377 208.25ZM25.1565 224.875C28.8752 221.157 30.844 216.344 32.3752 210.875C34.7815 201.907 36.094 191.625 39.1565 187.469C39.1565 186.375 39.1565 185.282 38.9377 184.188C33.9065 194.25 34.7815 199.719 31.2815 210.657C29.969 215.25 27.5627 219.844 24.9377 222.688C24.9377 222.907 24.9377 223.344 24.719 223.563C25.1565 224 25.1565 224.438 25.1565 224.875ZM30.6252 189C32.8127 184.625 35.0002 180.25 37.1877 175.875C38.5002 173.032 39.3752 170.188 39.594 166.907C39.8127 164.719 40.0315 162.313 40.2502 159.469C37.1877 175.438 33.6877 178.719 28.8752 190.532C28.0002 192.938 27.344 194.907 26.6877 196.657C25.8127 199.938 25.594 202.782 25.8127 206.282C25.8127 206.938 25.8127 207.594 25.8127 208.25C26.0315 201.469 26.6877 197.094 30.6252 189ZM24.5002 194.25C26.0315 176.75 31.2815 173.25 35.4377 155.969C30.4065 170.407 25.3752 175.875 24.0627 187.907C23.844 189.657 23.844 191.188 24.0627 192.938C24.2815 193.157 24.2815 193.594 24.5002 194.25ZM22.3127 180.907C22.969 170.844 28.4377 163.188 31.719 155.094C34.344 148.532 34.7815 145.469 35.219 139.344H33.2502C32.3752 146.563 31.719 150.063 28.6565 157.5C25.594 164.938 23.4065 170.188 22.094 174.563C21.6565 176.75 21.6565 178.719 22.3127 180.907C22.094 181.344 22.3127 181.563 22.3127 182C22.094 181.563 22.3127 181.344 22.3127 180.907Z" fill="#312C06"/>
<path opacity="0.35" fill-rule="evenodd" clip-rule="evenodd" d="M23.1875 157.063C23.1875 159.031 22.75 163.406 22.5313 167.781C22.3125 171.938 21.875 176.094 22.0938 178.063C23.4063 190.75 29.0938 185.5 30.1875 178.719C31.0625 173.469 30.8438 166.906 30.1875 161.438C28.2188 148.969 23.4063 147 23.1875 157.063Z" fill="url(#paint3_linear_74_12561)"/>
<path fill-rule="evenodd" clip-rule="evenodd" d="M44.625 130.594C43.75 131.907 43.75 137.813 43.75 138.469C43.75 139.344 42.2187 140.219 40.0312 140.875C37.8437 141.532 35 141.75 31.7187 141.75C28.4375 141.75 25.5937 141.313 23.4062 140.875C21.2187 140.219 19.9062 139.344 19.9062 138.469C19.9062 137.813 19.9062 131.688 19.0312 130.594C23.1875 130.594 27.5625 130.594 31.9375 130.594C36.0937 130.594 40.4687 130.594 44.625 130.594Z" fill="url(#paint4_linear_74_12561)"/>
<path fill-rule="evenodd" clip-rule="evenodd" d="M31.7187 108.719H61.0312C61.0312 122.719 49.6562 134.094 31.7187 134.094C13.7812 134.094 2.40625 122.719 2.40625 108.719H31.7187Z" fill="url(#paint5_radial_74_12561)"/>
<path opacity="0.1" fill-rule="evenodd" clip-rule="evenodd" d="M51.8438 108.719C51.625 119.438 44.1875 128.625 33.9062 132.344C47.6875 131.25 58.625 120.969 58.4063 108.719H51.8438Z" fill="url(#paint6_radial_74_12561)"/>
<path fill-rule="evenodd" clip-rule="evenodd" d="M63 100.406C62.7812 102.375 62.7812 104.344 62.5625 106.313C62.3438 108.719 58.8437 110.906 53.1562 112.438C47.6875 113.969 40.0313 115.063 31.5 115.063C23.1875 115.063 15.5312 114.188 9.84375 112.657C4.15625 111.125 0.656277 108.938 0.437527 106.531C0.218777 104.563 0.21875 102.594 0 100.625C10.0625 100.625 20.7813 100.625 31.2812 100.625C42.2187 100.407 52.9375 100.406 63 100.406Z" fill="url(#paint7_linear_74_12561)"/>
<path fill-rule="evenodd" clip-rule="evenodd" d="M58.4062 101.282C58.4062 102.813 58.1875 104.344 58.1875 105.657C57.9687 107.844 54.9062 109.813 49.6562 111.344C44.625 112.657 37.625 113.532 29.9687 113.532C22.3125 113.532 15.3125 112.657 10.2812 111.125C5.25 109.594 1.96873 107.625 1.74998 105.438C1.74998 103.907 1.53125 102.375 1.53125 101.063C10.7187 101.063 20.3437 101.282 29.9687 101.282C39.5937 101.063 49.2187 101.282 58.4062 101.282Z" fill="url(#paint8_radial_74_12561)"/>
<path fill-rule="evenodd" clip-rule="evenodd" d="M31.4999 91.4375C40.2499 91.4375 47.9062 92.5313 53.5937 94.2813C59.0624 96.0313 62.5624 98.2188 62.3437 100.844C62.1249 103.25 58.6249 105.656 53.1562 107.188C47.6874 108.719 40.0312 109.812 31.7187 109.812C30.1874 109.812 28.6562 109.812 27.1249 109.812C26.9062 109.812 26.4687 109.812 26.2499 109.812C25.8124 110.031 24.4999 112.219 23.6249 112.875C23.8437 112.219 24.0625 111.344 24.5 110.469C24.5 110.25 24.7187 110.031 24.5 109.812C24.2812 109.594 24.0624 109.594 23.8437 109.594C22.3124 109.375 20.7812 109.375 19.4687 109.156C18.1562 108.937 17.9374 110.031 17.2812 109.812C16.8437 109.812 17.2812 108.719 15.9687 108.5C13.7812 108.063 11.8125 107.625 10.2812 107.188C8.5312 106.75 6.99994 106.094 5.68744 105.438C5.03119 105.219 4.37494 106.312 3.93744 106.969C4.15619 106.531 4.37494 106.094 4.59369 105.438C4.59369 105.219 4.81244 105.219 4.59369 105C4.59369 104.781 4.37493 104.781 4.37493 104.781C2.40618 103.687 1.09368 102.156 1.09368 100.844C0.87493 98.2188 4.37493 96.0313 9.84368 94.2813C15.0937 92.5313 22.7499 91.4375 31.4999 91.4375Z" fill="url(#paint9_radial_74_12561)"/>
<g opacity="0.5">
<path fill-rule="evenodd" clip-rule="evenodd" d="M25.8122 176.969C26.2497 169.969 23.6247 157.5 22.3122 147.219C22.5309 156.406 22.0934 165.594 21.6559 173.031C21.2184 178.937 21.6559 179.375 22.7497 185.062C24.7184 194.687 26.2497 206.937 25.5934 218.531C27.5622 212.406 28.2184 202.562 27.5622 197.531C27.1247 193.375 25.5934 190.312 24.4997 186.375C24.0622 184.406 25.5934 180.469 25.8122 176.969Z" fill="url(#paint10_radial_74_12561)"/>
</g>
<path fill-rule="evenodd" clip-rule="evenodd" d="M31.7186 91.0002C40.4686 91.0002 48.3437 92.094 54.0312 93.844C59.7187 95.594 62.9999 97.7815 62.9999 100.406C62.7811 102.813 59.2811 105.219 53.5936 106.75C47.9061 108.281 40.2499 109.375 31.7186 109.375C23.1874 109.375 15.5311 108.5 9.84365 106.75C4.15615 105.219 0.656174 102.813 0.437424 100.406C0.218675 97.7815 3.71865 95.594 9.40615 93.844C15.0937 92.094 22.9686 91.0002 31.7186 91.0002Z" fill="url(#paint11_linear_74_12561)"/>
<path fill-rule="evenodd" clip-rule="evenodd" d="M31.7183 92.094C39.812 92.094 47.0308 92.969 52.2808 94.5002C57.5308 96.0315 60.5933 98.0002 60.5933 100.188C60.3746 102.375 57.0933 104.344 51.8433 105.656C46.5933 106.969 39.5933 107.844 31.7183 107.844C23.8433 107.844 16.8433 106.969 11.5933 105.656C6.34331 104.344 3.06206 102.375 2.84331 100.188C2.62456 98.0002 5.90581 96.0315 11.1558 94.5002C16.4058 92.969 23.6245 92.094 31.7183 92.094Z" fill="url(#paint12_radial_74_12561)"/>
<path fill-rule="evenodd" clip-rule="evenodd" d="M38.9375 208.25C40.0312 208.688 39.375 210.438 39.1563 211.094C38.9375 213.063 38.7187 216.344 38.9375 217C38.9375 217.219 38.7188 217.438 38.7188 217.657C37.1875 220.063 31.2812 222.032 28 221.375C26.9062 221.157 25.375 220.282 25.375 219.188C25.375 218.313 25.5938 217.875 25.5938 215.032C25.5938 214.813 25.5937 214.375 25.375 214.157C25.375 213.938 25.375 213.719 25.5938 213.719C25.8125 214.375 26.4687 214.813 27.3437 215.032C29.9687 215.907 35.4375 213.719 37.4062 211.969C38.5 210.438 38.9375 209.563 38.9375 208.25Z" fill="url(#paint13_linear_74_12561)"/>
<path fill-rule="evenodd" clip-rule="evenodd" d="M25.5936 210.875C25.5936 211.75 25.5936 212.844 25.8124 213.281C26.0311 213.937 26.6874 214.375 27.5624 214.594C30.1874 215.469 35.6561 213.281 37.6249 211.531C38.7186 210.656 38.9374 209.562 38.9374 208.25C39.1561 206.719 39.1561 205.844 39.1561 204.75C39.1561 204.312 39.3749 203.437 39.5936 202.781C39.8124 201.906 39.8124 201.25 39.3749 201.25C37.4061 204.969 32.3749 207.594 28.2186 207.812C27.3436 207.812 26.4686 207.594 26.0311 206.937C25.5936 207.156 25.3749 207.812 25.5936 208.469C25.5936 209.562 25.5936 209.562 25.5936 210.875Z" fill="url(#paint14_linear_74_12561)"/>
<path fill-rule="evenodd" clip-rule="evenodd" d="M25.375 205.406C25.375 206.062 25.375 206.5 25.5938 206.938C26.25 207.594 26.9063 207.813 27.7813 207.813C31.9375 207.594 36.9687 204.969 38.9375 201.25C39.1562 198.625 39.1562 196.438 39.375 193.813C39.5937 192.5 39.375 192.281 39.1563 192.062C36.0938 196.875 28.6563 200.594 24.9375 199.937C24.2813 200.375 24.5 201.031 24.7187 201.906C25.375 203.437 25.375 203.875 25.375 205.406Z" fill="url(#paint15_linear_74_12561)"/>
<path fill-rule="evenodd" clip-rule="evenodd" d="M25.8125 197.75C28.6562 197.969 31.2812 197.969 33.9062 197.094C36.0937 195.781 38.0625 194.031 39.1562 192.063C39.1562 191.188 39.375 190.531 39.375 189.875C39.375 189.219 39.5937 188.344 39.5937 187.688C39.5937 187.469 39.375 187.25 39.1562 187.25C37.8437 188.344 36.0937 189.219 34.125 189.875C30.1875 190.969 24.0625 191.188 23.625 190.094C22.9687 190.531 23.625 192.281 23.8437 193.156C24.0625 193.813 24.0625 194.688 24.0625 195.344C24.2812 197.313 24.0625 197.531 25.8125 197.75Z" fill="url(#paint16_linear_74_12561)"/>
<path opacity="0.2" fill-rule="evenodd" clip-rule="evenodd" d="M38.2812 190.094C38.2812 191.187 37.625 192.719 37.4063 193.156C36.5313 194.25 34.5625 196.219 33.25 196.656C31.0625 197.531 28.2187 197.531 25.8125 197.531H26.0313C28.875 197.75 31.5 197.75 34.125 196.875C36.3125 195.562 38.2812 193.812 39.375 191.844C39.375 190.969 39.5938 190.312 39.5938 189.656C39.5938 189 39.8125 188.125 39.8125 187.469C39.8125 187.25 39.5937 187.031 39.375 187.031C38.2812 188.125 36.9688 188.781 35.4375 189.219C36.9688 189 38.2812 188.125 38.2812 190.094Z" fill="url(#paint17_linear_74_12561)"/>
<path opacity="0.2" fill-rule="evenodd" clip-rule="evenodd" d="M37.8438 199.063C37.625 200.594 36.9688 201.907 36.3125 203C34.3438 205.844 30.4063 207.375 26.9063 206.938C26.0313 206.938 25.5937 206.5 25.1562 205.844C25.1562 206.282 25.1563 206.5 25.375 206.719C26.0313 207.375 26.6875 207.594 27.5625 207.594C31.7188 207.375 36.75 204.75 38.7188 201.032C38.9375 198.407 38.9375 196.219 39.1563 193.594C39.375 192.282 39.1563 192.063 38.9375 191.844C38.2813 193.157 37.1875 194.25 35.875 195.125C38.0625 194.469 38.7188 195.344 37.8438 199.063Z" fill="url(#paint18_linear_74_12561)"/>
<path opacity="0.2" fill-rule="evenodd" clip-rule="evenodd" d="M35.4375 205.188C36.0937 204.969 37.8437 203.875 38.0625 204.094C38.0625 204.313 38.0625 204.75 38.0625 205.406C38.0625 206.281 38.5 206.281 38.2812 207.594C38.0625 209.125 37.4062 210.656 36.3125 211.75C35 212.844 32.5937 214.156 30.4062 214.594C28.4375 215.031 26.25 214.813 25.5938 212.844C25.5938 213.063 25.5938 213.281 25.5938 213.5C25.8125 214.156 26.4687 214.594 27.3437 214.813C29.9687 215.688 35.4375 213.5 37.4062 211.75C38.5 210.875 38.7187 209.781 38.7187 208.469C38.9375 206.938 38.9375 206.063 38.9375 204.969C38.9375 204.531 39.1562 203.656 39.375 203C39.5937 202.125 39.5937 201.469 39.1562 201.469C38.2812 202.781 36.9687 204.094 35.4375 205.188Z" fill="url(#paint19_linear_74_12561)"/>
<path opacity="0.5" fill-rule="evenodd" clip-rule="evenodd" d="M25.8125 197.75C27.3437 197.969 28.875 197.969 30.1875 197.75C28.875 197.75 27.125 197.531 26.9062 196.438C26.6875 196 27.125 195.125 27.125 194.469C27.125 193.813 26.25 192.719 27.5625 192.063C29.75 190.969 31.5 190.969 33.4687 190.094C29.5312 190.969 24.0625 191.188 23.625 190.094C22.9687 190.531 23.625 192.281 23.8437 193.156C24.0625 193.813 24.0625 194.688 24.0625 195.344C24.2812 197.313 24.0625 197.531 25.8125 197.75Z" fill="url(#paint20_linear_74_12561)"/>
<path opacity="0.5" fill-rule="evenodd" clip-rule="evenodd" d="M32.5938 197.969C29.9688 199.5 27.125 200.156 25.1562 199.937C24.5 200.375 24.7188 201.031 24.9375 201.906C25.375 203.437 25.375 203.875 25.375 205.187C25.375 205.844 25.375 206.281 25.5938 206.719C26.25 207.375 26.9063 207.594 27.7813 207.594C28.4375 207.594 28.875 207.594 29.5312 207.375C28 207.156 27.7812 206.062 28.4375 205.187C29.0937 204.094 28.4375 203.437 28.2188 202.562C27.3438 200.375 30.625 199.5 32.5938 197.969Z" fill="url(#paint21_linear_74_12561)"/>
<path opacity="0.5" fill-rule="evenodd" clip-rule="evenodd" d="M29.7499 207.594C29.0936 207.813 28.4374 207.813 27.9999 207.813C27.1249 207.813 26.2499 207.594 25.8124 206.938C25.3749 207.157 25.1561 207.813 25.3749 208.469C25.8124 209.781 25.8124 209.782 25.8124 211.094C25.8124 211.969 25.8124 213.063 26.0311 213.5C26.2499 214.157 26.9061 214.594 27.7811 214.813C28.8749 215.25 30.8436 215.032 32.5936 214.375C31.4999 214.594 29.3124 215.031 28.8749 213.938C28.4374 213.281 29.3124 212.406 29.0936 211.531C29.0936 210.875 28.2186 209.781 29.5311 208.688C31.0624 207.594 33.2499 207.375 35.4374 205.406C33.4686 206.281 31.4999 207.156 29.7499 207.594Z" fill="url(#paint22_linear_74_12561)"/>
<path opacity="0.5" fill-rule="evenodd" clip-rule="evenodd" d="M32.1563 214.157C30.4063 214.594 28.6562 215.032 27.3437 214.594C26.4687 214.375 26.0313 213.719 25.5938 213.282C25.375 213.282 25.375 213.5 25.375 213.719C25.375 213.938 25.375 214.375 25.5938 214.594C25.5938 217.438 25.375 217.875 25.375 218.75C25.375 219.844 26.9062 220.719 28 220.938C28.6562 221.157 29.5313 221.157 30.4063 220.938C29.0938 220.938 28.2188 220.5 28.875 218.969C28.875 218.75 29.0938 218.313 28.875 217.438C28.6563 216.344 29.0937 216.125 30.1875 215.907C34.125 214.594 35.2187 214.375 37.1875 211.532C35.875 212.844 34.125 213.719 32.1563 214.157Z" fill="url(#paint23_linear_74_12561)"/>
<path fill-rule="evenodd" clip-rule="evenodd" d="M25.1559 200.156C24.4996 201.25 25.8122 201.25 26.6872 201.25C29.7497 200.813 32.5934 199.281 34.7809 197.094C33.0309 198.406 26.6871 201.25 25.1559 200.156Z" fill="url(#paint24_linear_74_12561)"/>
<path fill-rule="evenodd" clip-rule="evenodd" d="M25.5934 207.156C24.9371 208.031 26.2496 208.469 27.1246 208.469C30.1871 208.469 33.0309 207.156 35.2184 205.625C31.4996 207.812 26.6871 208.687 25.5934 207.156Z" fill="url(#paint25_linear_74_12561)"/>
<path fill-rule="evenodd" clip-rule="evenodd" d="M23.8438 190.094C25.8125 191.625 33.0313 190.094 35.4375 189.657C33.25 190.75 24.7187 192.719 23.8438 190.094Z" fill="url(#paint26_linear_74_12561)"/>
<path opacity="0.2" fill-rule="evenodd" clip-rule="evenodd" d="M35.875 212.625C36.9687 212.188 37.4062 211.75 38.2812 211.313C38.9375 210.875 38.9375 211.313 38.9375 211.969C38.9375 212.625 38.5 213.282 38.5 213.938C38.2812 215.469 38.5 215.25 38.7188 216.563C38.9375 217.657 38.0625 218.532 37.1875 219.188C37.8437 218.75 38.5 218.313 38.7188 217.657C38.9375 217.438 39.1562 217.219 38.9375 217C38.7187 216.344 38.9375 213.063 39.1562 211.094C39.1562 210.657 40.0312 208.688 38.9375 208.25C38.9375 209.563 38.5 210.438 37.625 211.532C36.9688 211.969 36.5312 212.188 35.875 212.625Z" fill="url(#paint27_linear_74_12561)"/>
<path fill-rule="evenodd" clip-rule="evenodd" d="M25.8124 213.719C25.1562 214.594 26.6874 215.25 27.3437 215.469C30.4062 215.906 33.2499 214.812 35.4374 213.281C32.1562 215.031 27.5624 215.906 25.8124 213.719Z" fill="url(#paint28_linear_74_12561)"/>
<path opacity="0.7" fill-rule="evenodd" clip-rule="evenodd" d="M38.9375 208.25C40.0312 208.688 39.375 210.438 39.1563 211.094C38.9375 213.063 38.7187 216.344 38.9375 217C38.9375 217.219 38.7188 217.438 38.7188 217.657C37.1875 220.063 31.2812 222.032 28 221.375C26.9062 221.157 25.375 220.282 25.375 219.188C25.375 218.313 25.5938 217.875 25.5938 215.032C25.5938 214.813 25.5937 214.375 25.375 214.157C25.375 213.938 25.375 213.719 25.5938 213.719C25.8125 214.375 26.4687 214.813 27.3437 215.032C29.9687 215.907 35.4375 213.719 37.4062 211.969C38.5 210.438 38.9375 209.563 38.9375 208.25Z" fill="url(#paint29_radial_74_12561)"/>
<path opacity="0.7" fill-rule="evenodd" clip-rule="evenodd" d="M25.5936 210.875C25.5936 211.75 25.5936 212.844 25.8124 213.281C26.0311 213.937 26.6874 214.375 27.5624 214.594C30.1874 215.469 35.6561 213.281 37.6249 211.531C38.7186 210.656 38.9374 209.562 38.9374 208.25C39.1561 206.719 39.1561 205.844 39.1561 204.75C39.1561 204.312 39.3749 203.437 39.5936 202.781C39.8124 201.906 39.8124 201.25 39.3749 201.25C37.4061 204.969 32.3749 207.594 28.2186 207.812C27.3436 207.812 26.4686 207.594 26.0311 206.937C25.5936 207.156 25.3749 207.812 25.5936 208.469C25.5936 209.562 25.5936 209.562 25.5936 210.875Z" fill="url(#paint30_radial_74_12561)"/>
<path opacity="0.7" fill-rule="evenodd" clip-rule="evenodd" d="M25.375 205.406C25.375 206.062 25.375 206.5 25.5938 206.938C26.25 207.594 26.9063 207.813 27.7813 207.813C31.9375 207.594 36.9687 204.969 38.9375 201.25C39.1562 198.625 39.1562 196.438 39.375 193.813C39.5937 192.5 39.375 192.281 39.1563 192.062C36.0938 196.875 28.6563 200.594 24.9375 199.937C24.2813 200.375 24.5 201.031 24.7187 201.906C25.375 203.437 25.375 203.875 25.375 205.406Z" fill="url(#paint31_radial_74_12561)"/>
<path opacity="0.7" fill-rule="evenodd" clip-rule="evenodd" d="M25.8125 197.75C28.6562 197.969 31.2812 197.969 33.9062 197.094C36.0937 195.781 38.0625 194.031 39.1562 192.063C39.1562 191.188 39.375 190.531 39.375 189.875C39.375 189.219 39.5937 188.344 39.5937 187.688C39.5937 187.469 39.375 187.25 39.1562 187.25C37.8437 188.344 36.0937 189.219 34.125 189.875C30.1875 190.969 24.0625 191.188 23.625 190.094C22.9687 190.531 23.625 192.281 23.8437 193.156C24.0625 193.813 24.0625 194.688 24.0625 195.344C24.2812 197.313 24.0625 197.531 25.8125 197.75Z" fill="url(#paint32_radial_74_12561)"/>
<path fill-rule="evenodd" clip-rule="evenodd" d="M12.6877 61.9062C10.9377 59.7187 8.31271 54.9062 13.7815 47.6875C14.219 56.6562 25.3752 57.75 25.8127 47.25C25.8127 44.8437 25.3752 41.5625 23.4065 37.625C18.8127 27.7812 24.719 24.7187 32.3752 16.1875C36.3127 11.8125 36.969 3.71875 33.469 0C42.2189 3.28125 44.844 10.9375 44.6252 17.5C44.4065 21.2187 43.3127 25.5937 41.344 30.625C40.0315 34.125 40.0314 36.0937 40.4689 37.625C42.4377 45.7187 54.0315 49.4375 45.719 60.8125C43.969 63 42.4377 64.75 41.344 66.5C38.5002 70.4375 39.594 74.8125 42.4377 76.7812C47.6877 80.2812 54.0315 74.375 51.844 66.9375C61.9065 78.3125 61.4689 94.9375 51.4064 103.906C43.7502 110.687 39.8127 105.656 34.1252 105.656C28.0002 105.656 22.5315 110.25 16.1877 105.219C8.96897 99.5312 7.65647 91.2187 9.62522 83.3437C12.2502 72.4062 17.9377 68.9062 12.6877 61.9062Z" fill="url(#paint33_linear_74_12561)"/>
<path fill-rule="evenodd" clip-rule="evenodd" d="M13.3446 93.4065C13.7821 95.8127 15.0945 98.0002 17.5008 99.7502C20.782 101.938 24.9383 102.156 27.7821 99.5315C29.0946 98.219 29.7508 97.344 34.3446 98.219C37.6258 98.8752 39.3758 102.813 44.6258 100.844C54.2508 97.1252 55.782 87.2815 53.157 80.719C50.7508 86.6252 45.9383 88.3752 41.1258 85.969C35.0008 82.9065 31.2821 74.3752 35.2195 67.594C42.8758 54.2502 44.407 58.4065 35.2195 42.219C30.1883 33.469 30.6258 30.844 33.4695 24.2815C27.3445 27.5627 25.5946 31.9377 26.4696 38.0627C26.6883 40.469 28.4383 44.1877 29.7508 47.9065C31.2821 52.2815 31.2821 57.7502 28.6571 60.8127C24.7196 65.1877 17.0633 64.094 15.5321 57.094C12.6883 63.4377 22.0945 67.8127 20.3445 72.4065C18.157 78.5315 12.0321 86.1877 13.3446 93.4065Z" fill="url(#paint34_linear_74_12561)"/>
<path fill-rule="evenodd" clip-rule="evenodd" d="M4.81283 40.6877C5.46908 36.969 8.75032 33.2502 11.8128 30.844C10.7191 37.844 15.5315 37.844 13.1253 43.7502C11.1565 40.6877 5.25031 44.1877 8.31281 49.8752C7.43781 50.094 3.71908 46.3752 4.81283 40.6877Z" fill="#FD5F04"/>
<defs>
<radialGradient id="paint0_radial_74_12561" cx="0" cy="0" r="1" gradientUnits="userSpaceOnUse" gradientTransform="translate(-22.2045 188.23) scale(71.7082 71.7082)">
<stop stop-color="#C27D48"/>
<stop offset="1" stop-color="#663812"/>
</radialGradient>
<radialGradient id="paint1_radial_74_12561" cx="0" cy="0" r="1" gradientUnits="userSpaceOnUse" gradientTransform="translate(-67.643 180.231) scale(114.855 114.855)">
<stop offset="0.658" stop-color="white"/>
<stop offset="0.6676" stop-color="#F2F2F2"/>
<stop offset="0.6914" stop-color="#D8D8D7"/>
<stop offset="0.7188" stop-color="#C2C2C1"/>
<stop offset="0.7508" stop-color="#B1B1B0"/>
<stop offset="0.7904" stop-color="#A6A6A5"/>
<stop offset="0.8459" stop-color="#9F9F9E"/>
<stop offset="1" stop-color="#9D9D9C"/>
</radialGradient>
<linearGradient id="paint2_linear_74_12561" x1="24.9633" y1="205.599" x2="31.0087" y2="205.599" gradientUnits="userSpaceOnUse">
<stop stop-color="#8A705D"/>
<stop offset="1"/>
</linearGradient>
<linearGradient id="paint3_linear_74_12561" x1="34.7305" y1="177.435" x2="16.4249" y2="159.13" gradientUnits="userSpaceOnUse">
<stop/>
<stop offset="1" stop-color="#8A705D"/>
</linearGradient>
<linearGradient id="paint4_linear_74_12561" x1="18.8657" y1="136.197" x2="44.644" y2="136.197" gradientUnits="userSpaceOnUse">
<stop stop-color="#4A4A54"/>
<stop offset="0.29" stop-color="#6C6F7D"/>
<stop offset="0.5045" stop-color="#5D5F6B"/>
<stop offset="0.7893" stop-color="#4F505A"/>
<stop offset="1" stop-color="#4A4A54"/>
</linearGradient>
<radialGradient id="paint5_radial_74_12561" cx="0" cy="0" r="1" gradientUnits="userSpaceOnUse" gradientTransform="translate(24.1461 102.003) scale(48.4684 48.4684)">
<stop stop-color="#4F5354"/>
<stop offset="0.6134" stop-color="#4A4A54"/>
<stop offset="0.8412" stop-color="#444452"/>
<stop offset="1" stop-color="#3D3C4F"/>
</radialGradient>
<radialGradient id="paint6_radial_74_12561" cx="0" cy="0" r="1" gradientUnits="userSpaceOnUse" gradientTransform="translate(34.879 108.931) scale(33.268 33.2679)">
<stop/>
<stop offset="0.2369" stop-color="#020201"/>
<stop offset="0.3222" stop-color="#090707"/>
<stop offset="0.3831" stop-color="#141210"/>
<stop offset="0.4323" stop-color="#25201D"/>
<stop offset="0.4744" stop-color="#3B332E"/>
<stop offset="0.5117" stop-color="#574A43"/>
<stop offset="0.5455" stop-color="#77665C"/>
<stop offset="0.5765" stop-color="#9D8679"/>
<stop offset="0.6054" stop-color="#C8AB9A"/>
<stop offset="0.631" stop-color="#F6D2BD"/>
<stop offset="0.6357" stop-color="#FFDAC4"/>
<stop offset="0.6384" stop-color="#F6D2BD"/>
<stop offset="0.6531" stop-color="#C8AB9A"/>
<stop offset="0.6696" stop-color="#9D8679"/>
<stop offset="0.6874" stop-color="#77665C"/>
<stop offset="0.7067" stop-color="#574A43"/>
<stop offset="0.7281" stop-color="#3B332E"/>
<stop offset="0.7523" stop-color="#25201D"/>
<stop offset="0.7805" stop-color="#141210"/>
<stop offset="0.8153" stop-color="#090707"/>
<stop offset="0.8642" stop-color="#020201"/>
<stop offset="1"/>
</radialGradient>
<linearGradient id="paint7_linear_74_12561" x1="0.486062" y1="107.597" x2="63.0234" y2="107.597" gradientUnits="userSpaceOnUse">
<stop stop-color="#4A4A54"/>
<stop offset="0.29" stop-color="#6C6F7D"/>
<stop offset="0.5045" stop-color="#5D5F6B"/>
<stop offset="0.7893" stop-color="#4F505A"/>
<stop offset="1" stop-color="#4A4A54"/>
</linearGradient>
<radialGradient id="paint8_radial_74_12561" cx="0" cy="0" r="1" gradientUnits="userSpaceOnUse" gradientTransform="translate(25.8779 90.5085) scale(33.0455 33.0454)">
<stop stop-color="#E66719"/>
<stop offset="1"/>
</radialGradient>
<radialGradient id="paint9_radial_74_12561" cx="0" cy="0" r="1" gradientUnits="userSpaceOnUse" gradientTransform="translate(18.3885 106.049) scale(37.7328 37.7328)">
<stop stop-color="#B07B13"/>
<stop offset="1"/>
</radialGradient>
<radialGradient id="paint10_radial_74_12561" cx="0" cy="0" r="1" gradientUnits="userSpaceOnUse" gradientTransform="translate(-1.3047 175.127) scale(62.6001 62.6001)">
<stop stop-color="#8A705D"/>
<stop offset="1"/>
</radialGradient>
<linearGradient id="paint11_linear_74_12561" x1="0.480956" y1="100.141" x2="63.0281" y2="100.141" gradientUnits="userSpaceOnUse">
<stop stop-color="#B86930"/>
<stop offset="1" stop-color="#4F463B"/>
</linearGradient>
<radialGradient id="paint12_radial_74_12561" cx="0" cy="0" r="1" gradientUnits="userSpaceOnUse" gradientTransform="translate(32.2731 118.381) scale(33.717 33.717)">
<stop stop-color="#FFCE1F"/>
<stop offset="0.3866" stop-color="#FFAA00"/>
<stop offset="0.4949" stop-color="#FDA300"/>
<stop offset="0.656" stop-color="#F78F00"/>
<stop offset="0.849" stop-color="#EC6E00"/>
<stop offset="1" stop-color="#E34F00"/>
</radialGradient>
<linearGradient id="paint13_linear_74_12561" x1="25.3647" y1="214.764" x2="39.4551" y2="214.764" gradientUnits="userSpaceOnUse">
<stop stop-color="#331316"/>
<stop offset="0.0278532" stop-color="#411A17"/>
<stop offset="0.0823801" stop-color="#572519"/>
<stop offset="0.1347" stop-color="#642C1B"/>
<stop offset="0.1822" stop-color="#692E1B"/>
<stop offset="0.3714" stop-color="#642C1C"/>
<stop offset="0.6052" stop-color="#55261E"/>
<stop offset="0.8216" stop-color="#401D22"/>
</linearGradient>
<linearGradient id="paint14_linear_74_12561" x1="25.1349" y1="208.011" x2="39.5728" y2="208.011" gradientUnits="userSpaceOnUse">
<stop stop-color="#331316"/>
<stop offset="0.0278532" stop-color="#411A17"/>
<stop offset="0.0823801" stop-color="#572519"/>
<stop offset="0.1347" stop-color="#642C1B"/>
<stop offset="0.1822" stop-color="#692E1B"/>
<stop offset="0.3714" stop-color="#642C1C"/>
<stop offset="0.6052" stop-color="#55261E"/>
<stop offset="0.8216" stop-color="#401D22"/>
</linearGradient>
<linearGradient id="paint15_linear_74_12561" x1="24.7076" y1="199.875" x2="39.6727" y2="199.875" gradientUnits="userSpaceOnUse">
<stop stop-color="#331316"/>
<stop offset="0.0278532" stop-color="#411A17"/>
<stop offset="0.0823801" stop-color="#572519"/>
<stop offset="0.1347" stop-color="#642C1B"/>
<stop offset="0.1822" stop-color="#692E1B"/>
<stop offset="0.3714" stop-color="#642C1C"/>
<stop offset="0.6052" stop-color="#55261E"/>
<stop offset="0.8216" stop-color="#401D22"/>
</linearGradient>
<linearGradient id="paint16_linear_74_12561" x1="23.4474" y1="192.549" x2="39.594" y2="192.549" gradientUnits="userSpaceOnUse">
<stop stop-color="#331316"/>
<stop offset="0.0278532" stop-color="#411A17"/>
<stop offset="0.0823801" stop-color="#572519"/>
<stop offset="0.1347" stop-color="#642C1B"/>
<stop offset="0.1822" stop-color="#692E1B"/>
<stop offset="0.3714" stop-color="#642C1C"/>
<stop offset="0.6052" stop-color="#55261E"/>
<stop offset="0.8216" stop-color="#401D22"/>
</linearGradient>
<linearGradient id="paint17_linear_74_12561" x1="25.6854" y1="192.549" x2="39.594" y2="192.549" gradientUnits="userSpaceOnUse">
<stop stop-color="#DED8D1"/>
<stop offset="0.1866" stop-color="#C9C2BC"/>
<stop offset="0.5307" stop-color="#A8A09A"/>
<stop offset="0.8142" stop-color="#938B85"/>
<stop offset="1" stop-color="#8C837D"/>
</linearGradient>
<linearGradient id="paint18_linear_74_12561" x1="25.4194" y1="199.875" x2="39.6727" y2="199.875" gradientUnits="userSpaceOnUse">
<stop stop-color="#DED8D1"/>
<stop offset="0.1866" stop-color="#C9C2BC"/>
<stop offset="0.5307" stop-color="#A8A09A"/>
<stop offset="0.8142" stop-color="#938B85"/>
<stop offset="1" stop-color="#8C837D"/>
</linearGradient>
<linearGradient id="paint19_linear_74_12561" x1="25.7403" y1="208.011" x2="39.5729" y2="208.011" gradientUnits="userSpaceOnUse">
<stop stop-color="#DED8D1"/>
<stop offset="0.1866" stop-color="#C9C2BC"/>
<stop offset="0.5307" stop-color="#A8A09A"/>
<stop offset="0.8142" stop-color="#938B85"/>
<stop offset="1" stop-color="#8C837D"/>
</linearGradient>
<linearGradient id="paint20_linear_74_12561" x1="23.4474" y1="193.893" x2="33.5219" y2="193.893" gradientUnits="userSpaceOnUse">
<stop stop-color="#4A2C18"/>
<stop offset="1"/>
</linearGradient>
<linearGradient id="paint21_linear_74_12561" x1="24.7076" y1="202.872" x2="32.5518" y2="202.872" gradientUnits="userSpaceOnUse">
<stop stop-color="#4A2C18"/>
<stop offset="1"/>
</linearGradient>
<linearGradient id="paint22_linear_74_12561" x1="25.1349" y1="210.068" x2="35.1377" y2="210.068" gradientUnits="userSpaceOnUse">
<stop stop-color="#4A2C18"/>
<stop offset="1"/>
</linearGradient>
<linearGradient id="paint23_linear_74_12561" x1="25.3647" y1="216.558" x2="37.0556" y2="216.558" gradientUnits="userSpaceOnUse">
<stop stop-color="#4A2C18"/>
<stop offset="1"/>
</linearGradient>
<linearGradient id="paint24_linear_74_12561" x1="24.9266" y1="199.118" x2="34.7122" y2="199.118" gradientUnits="userSpaceOnUse">
<stop stop-color="#42362E"/>
<stop offset="1"/>
</linearGradient>
<linearGradient id="paint25_linear_74_12561" x1="25.4324" y1="207.114" x2="35.2177" y2="207.114" gradientUnits="userSpaceOnUse">
<stop stop-color="#42362E"/>
<stop offset="1"/>
</linearGradient>
<linearGradient id="paint26_linear_74_12561" x1="23.7366" y1="190.567" x2="35.3288" y2="190.567" gradientUnits="userSpaceOnUse">
<stop stop-color="#42362E"/>
<stop offset="1"/>
</linearGradient>
<linearGradient id="paint27_linear_74_12561" x1="35.8643" y1="213.645" x2="39.4551" y2="213.645" gradientUnits="userSpaceOnUse">
<stop stop-color="#DED8D1"/>
<stop offset="0.1866" stop-color="#C9C2BC"/>
<stop offset="0.5307" stop-color="#A8A09A"/>
<stop offset="0.8142" stop-color="#938B85"/>
<stop offset="1" stop-color="#8C837D"/>
</linearGradient>
<linearGradient id="paint28_linear_74_12561" x1="25.66" y1="214.34" x2="35.46" y2="214.34" gradientUnits="userSpaceOnUse">
<stop stop-color="#42362E"/>
<stop offset="1"/>
</linearGradient>
<radialGradient id="paint29_radial_74_12561" cx="0" cy="0" r="1" gradientUnits="userSpaceOnUse" gradientTransform="translate(27.8484 207.136) scale(17.5411 17.5411)">
<stop offset="0.7063" stop-color="white"/>
<stop offset="0.7097" stop-color="#FDFDFD"/>
<stop offset="0.7519" stop-color="#EBE6E1"/>
<stop offset="0.7975" stop-color="#DED5CC"/>
<stop offset="0.8485" stop-color="#D4C9BD"/>
<stop offset="0.9086" stop-color="#CEC1B5"/>
<stop offset="1" stop-color="#CCBFB2"/>
</radialGradient>
<radialGradient id="paint30_radial_74_12561" cx="0" cy="0" r="1" gradientUnits="userSpaceOnUse" gradientTransform="translate(26.0725 200.458) scale(17.8629 17.8629)">
<stop offset="0.6357" stop-color="white"/>
<stop offset="0.6398" stop-color="#FDFDFD"/>
<stop offset="0.6922" stop-color="#EBE6E1"/>
<stop offset="0.7488" stop-color="#DED5CC"/>
<stop offset="0.8121" stop-color="#D4C9BD"/>
<stop offset="0.8866" stop-color="#CEC1B5"/>
<stop offset="1" stop-color="#CCBFB2"/>
</radialGradient>
<radialGradient id="paint31_radial_74_12561" cx="0" cy="0" r="1" gradientUnits="userSpaceOnUse" gradientTransform="translate(26.5818 193.294) scale(17.6934 17.6934)">
<stop offset="0.6357" stop-color="white"/>
<stop offset="0.6398" stop-color="#FDFDFD"/>
<stop offset="0.6922" stop-color="#EBE6E1"/>
<stop offset="0.7488" stop-color="#DED5CC"/>
<stop offset="0.8121" stop-color="#D4C9BD"/>
<stop offset="0.8866" stop-color="#CEC1B5"/>
<stop offset="1" stop-color="#CCBFB2"/>
</radialGradient>
<radialGradient id="paint32_radial_74_12561" cx="0" cy="0" r="1" gradientUnits="userSpaceOnUse" gradientTransform="translate(28.7914 187.053) scale(13.092 13.092)">
<stop offset="0.6357" stop-color="white"/>
<stop offset="0.6398" stop-color="#FDFDFD"/>
<stop offset="0.6922" stop-color="#EBE6E1"/>
<stop offset="0.7488" stop-color="#DED5CC"/>
<stop offset="0.8121" stop-color="#D4C9BD"/>
<stop offset="0.8866" stop-color="#CEC1B5"/>
<stop offset="1" stop-color="#CCBFB2"/>
</radialGradient>
<linearGradient id="paint33_linear_74_12561" x1="33.7286" y1="107.181" x2="33.7286" y2="0.0295323" gradientUnits="userSpaceOnUse">
<stop offset="1.2e-07" stop-color="#FFBB00"/>
<stop offset="0.5316" stop-color="#FF5319"/>
<stop offset="1" stop-color="#FF4000"/>
</linearGradient>
<linearGradient id="paint34_linear_74_12561" x1="33.5185" y1="101.164" x2="33.5185" y2="24.3027" gradientUnits="userSpaceOnUse">
<stop offset="1.2e-07" stop-color="#FFBB00"/>
<stop offset="0.5316" stop-color="#FF5319"/>
<stop offset="1" stop-color="#FF4000"/>
</linearGradient>
</defs>
</svg>
