<svg xmlns="http://www.w3.org/2000/svg" xmlns:xlink="http://www.w3.org/1999/xlink" viewBox="0 0 536.27 351.68"><style>.H{fill-rule:evenodd}.I{fill:#0970c0}.J{fill:#09ffff}.K{fill:#09b9ea}</style><g class="K"><circle cx="274.17" cy="64.52" r=".79"/><circle cx="258.9" cy="149.13" r=".79"/><circle cx="371.63" cy="191.16" r=".79"/><circle cx="393.89" cy="287.56" r=".79"/></g><g class="I"><use xlink:href="#B" class="H"/><circle cx="284.92" cy="141.02" r=".79"/></g><g fill="#095cc0"><circle cx="238.73" cy="105.08" r=".79"/><circle cx="191.17" cy="46.25" r=".79"/><circle cx="284.14" cy="19.35" r=".79"/><circle cx="334.13" cy="158.17" r=".79"/><use xlink:href="#B" x="18.53" y="-146.16" class="H"/></g><use xlink:href="#B" x="-139.79" y="182.19" class="H J"/><g class="I"><circle cx="368.82" cy="30" r=".79"/><circle cx="362.04" cy="134.31" r=".79"/><circle cx="161.16" cy="96.59" r=".79"/><circle cx="481.08" cy="22.95" r=".79"/><circle cx="202.7" cy="137.75" r=".79"/><circle cx="275.07" cy="350.89" r=".79"/><use xlink:href="#B" x="213.37" y="-146.13" class="H"/><circle cx="213" cy="40.72" r=".79"/><use xlink:href="#B" x="43.74" y="82.29" class="H"/><circle cx="115.53" cy="132.78" r=".79"/><circle cx="133.37" cy="20.92" r=".79"/><path d="M301.75 206.52c0 .43-.35.79-.79.79s-.79-.35-.79-.79.35-.79.79-.79.79.35.79.79ZM240.3 76.4c0 .43-.35.79-.79.79s-.79-.35-.79-.79.35-.79.79-.79.79.35.79.79Z" class="H"/><circle cx="423.4" cy="264.03" r=".79"/></g><circle cx="377.95" cy="79.55" r=".79" class="K"/><g class="I"><circle cx="416.52" cy="86.09" r=".79"/><use xlink:href="#B" x="3.85" y="131.03" class="H"/></g><g class="J"><circle cx="178.64" cy="109.61" r=".79"/><use xlink:href="#B" x="-70.03" y="-39.84" class="H"/><circle cx="244.19" cy="20.14" r=".79"/><circle cx="111.47" cy="79.53" r=".79"/></g><use xlink:href="#B" x="-22.87" y="74.4" fill="#92ffff" class="H"/><g class="J"><circle cx="266.69" cy="48.7" r=".79"/><circle cx="415.73" cy="156.3" r=".79"/><circle cx="256.1" cy="235.93" r=".79"/><circle cx="147.53" cy="242.79" r=".79"/><path d="M415.73 8.23c0 .43-.35.79-.79.79s-.79-.35-.79-.79.35-.79.79-.79.79.35.79.79Zm-53.34 56.26c0 .43-.35.79-.79.79s-.79-.35-.79-.79.35-.79.79-.79.79.35.79.79Z" class="H"/><circle cx="334.92" cy="109.61" r=".79"/><circle cx="253.64" cy="109.87" r=".79"/><circle cx="278.94" cy="247.08" r=".79"/></g><circle cx="256.89" cy="179.15" r=".79" class="K"/><g class="I"><circle cx="207.37" cy="146.95" r=".79"/><circle cx="170.18" cy="129.02" r=".79"/></g><g fill="#095cc0"><circle cx="123.99" cy="93.08" r=".79"/><circle cx="76.42" cy="34.25" r=".79"/><use xlink:href="#B" x="-152.72" y="-151.6" class="H"/><circle cx="89.67" cy="211.66" r=".79"/><use xlink:href="#B" x="-102.72" y="-12.79" class="H"/><circle cx="225.9" cy=".79" r=".79"/></g><g class="I"><circle cx="46.42" cy="84.59" r=".79"/><circle cx="87.96" cy="125.75" r=".79"/><circle cx="98.26" cy="28.72" r=".79"/><use xlink:href="#B" x="-228.18" y="76.91" class="H"/><circle cx=".79" cy="120.78" r=".79"/><circle cx="18.63" cy="8.92" r=".79"/><circle cx="124.78" cy="64.39" r=".79"/></g><g class="J"><use xlink:href="#B" x="-258.22" y="-61.34" class="H"/><circle cx="129.45" cy="8.13" r=".79"/></g><circle cx="184.5" cy="221.34" r=".79" fill="#92ffff"/><g class="J"><circle cx="141.36" cy="223.92" r=".79"/><circle cx="32.79" cy="230.79" r=".79"/><circle cx="246.87" cy="52.49" r=".79"/><circle cx="220.18" cy="97.61" r=".79"/><circle cx="141.45" cy="103.41" r=".79"/><circle cx="164.2" cy="235.07" r=".79"/><use xlink:href="#B" x="39.32" y="72.36" class="H"/></g><g class="I"><path d="M472.15 132c0 .43-.35.79-.79.79s-.79-.35-.79-.79.35-.79.79-.79.79.35.79.79Zm-64.9-34.73c0 .43-.35.79-.79.79s-.79-.35-.79-.79.35-.79.79-.79.79.35.79.79Z" class="H"/><circle cx="62.09" cy="17.52" r=".79"/><circle cx="351.02" cy="154.02" r=".79"/><circle cx="431.47" cy="180.74" r=".79"/></g><circle cx="466.94" cy="122.06" r=".79" class="J"/><defs><path id="B" d="M322.9 158.95c0 .43-.35.79-.79.79s-.79-.35-.79-.79.35-.79.79-.79.79.35.79.79Z"/></defs></svg>