<svg xmlns="http://www.w3.org/2000/svg" viewBox="0 0 171.83 136.66">
  <style>
    .A{mix-blend-mode:overlay}
  </style>
  <defs>
    <linearGradient id="A" x1="83.96" x2="83.96" y1="132.56" y2="0" gradientUnits="userSpaceOnUse">
      <stop offset="0" stop-color="#d17724"/>
      <stop offset=".03" stop-color="#d57e2a"/>
      <stop offset=".15" stop-color="#e29641"/>
      <stop offset=".28" stop-color="#eca852"/>
      <stop offset=".42" stop-color="#f2b25b"/>
      <stop offset=".59" stop-color="#f4b65f"/>
      <stop offset=".73" stop-color="#ecab55"/>
      <stop offset=".96" stop-color="#d7903c"/>
      <stop offset="1" stop-color="#d48b38"/>
    </linearGradient>
    <linearGradient id="B" x1="85.92" x2="85.92" y1="138.27" y2="114.93" gradientUnits="userSpaceOnUse">
      <stop offset="0" stop-color="#d17724"/>
      <stop offset=".04" stop-color="#d57e2a"/>
      <stop offset=".2" stop-color="#e29641"/>
      <stop offset=".37" stop-color="#eca852"/>
      <stop offset=".55" stop-color="#f2b25b"/>
      <stop offset=".76" stop-color="#f4b65f"/>
      <stop offset=".84" stop-color="#ecab55"/>
      <stop offset=".98" stop-color="#d7903c"/>
      <stop offset="1" stop-color="#d48b38"/>
    </linearGradient>
  </defs>
  <path fill="url(#A)" d="m15.54 0 2.62 18.24c0 1.46 2.62 2.61 2.62 2.61l-1.57 5.21 1.31.98-.79 4.24-1.05 2.61s1.83 13.52 1.57 25.57 2.09 37.14.52 42.35-.26 4.4-.26 4.4 9.16 1.79 10.99 1.63l-12.3 1.3s-5.76 14.5-12.3 17.59 17.53 5.54 41.09 5.38c23.55-.16 66.47 1.3 83.74-.33s30.36-7.49 30.36-7.49-8.64-1.79-10.99-20.52c-2.36-18.73-.26-47.24-.26-47.24l-8.37-.65s8.64-3.75 9.68-3.75c0 0-2.35-10.59-1.31-20.04l2.88-26.88V2.12L15.54 0z"/>
  <path fill="#fff" d="M144.1 45.44c1.6-6.97.4-12.69-4-11.44 0 0-2.01.16-3.63 1.43-.4-5.09-1.27-9.84-3.17-13.01-1.55-2.58-.79-8.03-3.83-10.01-7.28-4.73-20.95-4.4-29-4.5-39-.47-53.58 2.28-59.44 10.3-1.99-.28-8.02-.48-12.39 6.25-4.58 7.05-.64 17.73 7.37 18.52-.49 11.89.03 24.99.55 31.99.88 11.77 3.06 18.06 1.31 26.82s2.63 15.33 19.26 15.6 30.64 1.09 52.53.55c12.16-.3 19.59-.95 23.65-4.14.52.2 1.12.35 1.83.45 8.98 1.27 9.79-6.89 6.53-11.99-1.41-2.2-3.05-2.74-4.45-2.64-.8-15.5 1.33-34.04.03-40.8-.52-2.72-.42-7.65-.44-13.14 2.63 2.6 6.59 2.85 7.3-.24z" class="A" opacity=".15"/>
  <g fill="#2d1400">
    <path d="M131.74 131.78c17.27-1.63 30.36-7.49 30.36-7.49s-5.14-1.07-8.57-10.17c-3.76 2.2-11.23 4.4-24.64 5.08-21.01 1.07-79.75.8-96.47-.53-9.13-.73-13.02-3.68-14.67-6.22-2.12 4.47-6.29 12.13-10.83 14.28-6.54 3.09 17.53 5.54 41.09 5.38 23.55-.16 66.47 1.3 83.74-.33Z" opacity=".07"/>
    <path d="M131.74 131.78c17.27-1.63 30.36-7.49 30.36-7.49s-3.33-.69-6.42-5.7c-1.86 2.49-11.04 3.7-36.71 4.23-29.72.61-79.82-.61-95.29-.92-5.69-.11-8.69-.87-10.21-1.77-1.92 2.88-4.19 5.49-6.55 6.61-6.54 3.09 17.53 5.54 41.09 5.38 23.55-.16 66.47 1.3 83.74-.33Z" opacity=".07"/>
    <path d="M18.16 18.24c0 1.47 2.62 2.61 2.62 2.61l-1.57 5.21 1.26.94c5.12-9.77 16.17-19.38 39.64-20.65 45.43-2.46 88.37-4.07 90.52 28.69a41.36 41.36 0 0 1 .22-2.95l2.88-26.88V2.12L15.54 0l2.62 18.24z" opacity=".1"/>
    <path d="M18.16 18.24c0 1.47 2.62 2.61 2.62 2.61l-1.57 5.21 1.31.98-.79 4.24-1.05 2.61s1.83 13.52 1.57 25.57 2.09 37.14.52 42.35-.26 4.4-.26 4.4 9.16 1.79 10.99 1.63l-12.3 1.3s-5.76 14.5-12.3 17.59c-1.71.81-1.33 1.57.59 2.26 1.73-.66 2.79-2.21 3.17-3.71 1.13-4.47 7.19-5.18 8.32-6.59 1.14-1.41 1.51-6.36 3.4-8 1.89-1.65 8.32-2.35 11.35-2.35s-2.65-2.12-7.19-3.3-3.4-2.12-3.4-2.12-.76-1.41-.76-2.82.38-2.35 1.14-4 .76-1.18 3.03-1.65 0 0-.76-2.82-1.51-.94-1.89-1.65 0-1.41.38-2.82.76-2.12.76-2.12l-.38-1.88s-.76-1.88-1.89-4.24c-1.14-2.35 1.51-3.3 2.65-5.41 1.14-2.12.38-3.3-1.89-7.06-2.27-3.77-.76-4.94-.38-6.36.38-1.41 7.19-1.18 7.19-1.18s-5.29-1.18-7.19-2.12c-1.89-.94-1.51-3.3-1.51-4.94s.76-2.59.76-2.59 1.14-1.18 1.14-2.12 0-2.82-.38-4.94-1.51-3.77-2.65-6.12-.38-2.82 1.51-5.18.38-2.12.38-3.53.38-2.35.38-3.53 1.89-1.18 3.78-2.83-3.03-1.65-4.54-2.35-2.65-3.53-2.65-5.65 3.78-2.12.76-4.71C18.56 6.96 17.4 3.28 16.65.04l-1.1-.02 2.62 18.24z" opacity=".15"/>
  </g>
  <g fill="#2d1400" opacity=".12">
    <path d="m150.84 32.09 2.88-26.88V2.12l-3.44-.05c.28.63.96 2.06 2.04 3.74 1.46 2.27-.67 1.35-1.61 4.43-.94 3.07-2.04 3.53-2.04 5.8s-2.92 2.73-1.46 5 1.82 4.54 1.82 5.91-.36 1.14-.73 3.18c-.36 2.05-3.29.68-1.82 3.64 1.46 2.95 2.19 2.04 1.46 4.77s-1.1 2.95 0 5c1.09 2.05 3.65 1.82 1.09 5-2.55 3.18-2.92 4.09-4.38 5s-4.36-.05-2.18 2.36c0 0 8.64-3.75 9.68-3.75 0 0-2.35-10.59-1.31-20.04z"/>
    <path d="M151.1 103.76c-2.36-18.73-.26-47.24-.26-47.24l-8.37-.65c2.18 2.41 3.28.36 4.37 3.09s.73 3.64.36 5c-.36 1.36-.73 2.5-.36 3.64.36 1.14 1.82.45 1.09 3.18s-1.46 2.27-.73 4.32c.73 2.04 1.09 3.86 1.09 4.77s-1.46 2.04-3.29 2.27c-1.82.23-4.01 1.36-2.19 1.82 1.83.45 3.29.91 2.92 2.73-.36 1.82-1.09 2.95-.36 4.09s1.09 3.64 1.46 5c.36 1.36 0 .91.36 3.63.36 2.73 0 2.73-1.83 5-1.82 2.27-1.46 3.18 1.46 4.32s4.01 1.14 2.55 3.18-2.55 4.32-.37 5.68c2.19 1.36 1.83.91 3.29 2.95s2.94 2.89 3.48 4.85c.09.33.13.76.18 1.21 3.87-1.3 6.13-2.31 6.13-2.31s-8.64-1.79-10.99-20.52z"/>
  </g>
  <path fill="#2d1400" d="m153.09 12.57.63-7.36V2.12L15.54 0l1.63 10.71c1.64-1.3 3.93-2.59 6.78-2.9 6.18-.66 24.36-3.3 67.61-2.97s56.49 3.74 59.14 5.39c.81.5 1.63 1.37 2.39 2.34z" opacity=".15"/>
  <path fill="url(#B)" d="M1.15 122.02s-2.43 5.49-.22 9.06c0 0 8.82-.55 10.59-.27l-9.26 1.65s-.22 3.29 4.19 3.98 80.93-.41 112.91-.14h46.75c.66.14 7.94-8.37 5.07-13.04 0 0-10.58 1.1-21.83 1.37s-19.41-.14-19.41-.14-2.42 3.43-2.65 5.08l-.88-5.35s-11.25 1.37-25.8.96-15.66-.82-15.66-.82-3.09 3.02-3.53 6.86c0 0-1.76-5.76-5.07-7.41 0 0-25.14 2.33-75.2-1.79z"/>
  <path fill="#fff" d="M171.16 123.26s-10.58 1.1-21.83 1.37-19.41-.14-19.41-.14-2.42 3.43-2.65 5.08l-.88-5.35s-11.25 1.37-25.8.96-15.66-.82-15.66-.82-3.09 3.02-3.53 6.86c0 0-1.76-5.76-5.07-7.41 0 0-25.14 2.33-75.2-1.79 0 0-2.1 4.75-.61 8.29 1.16-.25 2.2-.6 1.8-.98-.82-.76-1.02-2.93-.41-3.57s-.2-1.53 2.05-1.53 3.27.13 3.48 1.02c.2.89-2.25 2.55 1.23 2.16 3.48-.38 5.11 0 5.52-.64s-1.84-2.16 2.05-1.91 7.98.25 9.41 1.02c1.43.76-1.43.76 3.27.89 4.71.13 5.12 0 6.55-.38s6.14 0 6.14.38.2.89 0 1.4-2.66.89-.2 1.27 3.89 1.15 4.5.38c.61-.76 1.02-2.17 1.02-2.17s1.23-1.66 3.48-1.4c2.25.25 3.07 1.02 3.27 1.4s-.82 1.27.82 1.4 4.3.51 4.3.51.41-1.78 1.84-1.91 4.3-1.15 5.11 0c.82 1.15 1.84 1.02 4.09.25 2.25-.76 1.64-1.78 3.27-1.66 1.64.13.61 2.16 3.07 2.93 2.46.76 3.48 3.57 5.32 4.33s.61.25 2.25-2.68 3.89-4.08 4.91-4.08 4.5 1.27 4.5 1.27 3.48-.89 4.71-.76 4.3-.89 6.14-.13.41 1.53 2.25 2.17 3.27.51 4.3-.13c1.02-.64 0-.76 1.84-1.4s2.05-1.78 3.27-.64c1.23 1.15.2 2.55 3.48 1.53 3.27-1.02 4.5-1.4 5.12-1.02.61.38-.61 2.17.82 2.8 1.43.64 3.68 1.78 3.68 1.78s0-1.53 1.84-3.69c1.84-2.17 3.07-2.8 5.94-2.29 2.86.51 3.48.51 4.91.38s2.46-1.02 3.27-.51c.82.51 3.27 1.15 3.27 1.15s-2.25 1.53 1.64 1.15 4.3-.25 4.09-1.02c-.2-.76-.61-2.67 2.05-2.04 2.66.64 4.71 2.68 6.96 2.17s4.3-1.53 5.73-1.02.61 1.27 1.84 2.42c.16.15.38.37.63.63.93-2.2 1.31-4.54.22-6.32z" opacity=".11" style="mix-blend-mode:overlay"/>
  <path fill="#ffca92" d="M171.16 123.26c-3.31.74-6.77.92-10.2 1.17a254.62 254.62 0 0 1-10.34.51 275.78 275.78 0 0 1-10.37.07c-1.73-.01-3.45-.06-5.18-.11l-5.17-.24.27-.1c-.55.82-1.07 1.65-1.53 2.49a16.64 16.64 0 0 0-.63 1.27c-.18.42-.34.85-.4 1.28-.01.11-.18.2-.36.19-.16 0-.29-.09-.31-.19s-.94-5.35-.94-5.35l.47.22c-3.44.4-6.89.65-10.36.83a201.4 201.4 0 0 1-10.43.27c-3.49 0-6.96-.11-10.43-.22l-5.21-.21-2.61-.15-1.31-.1c-.22-.02-.44-.04-.66-.07l-.34-.04-.18-.03-.1-.02h-.06l-.04-.02c-.02 0-.01 0-.09-.03l.8-.12a13.61 13.61 0 0 0-1.29 1.57c-.38.54-.73 1.1-1.02 1.66-.59 1.13-.97 2.29-1.11 3.47-.02.21-.31.36-.64.34-.27-.01-.49-.14-.54-.3a19.66 19.66 0 0 0-.75-1.96c-.29-.65-.61-1.29-.97-1.92-.37-.63-.77-1.25-1.27-1.83s-1.08-1.13-1.83-1.52l.41.07c-3.16.29-6.29.44-9.44.55l-9.45.21c-6.3.04-12.6-.05-18.89-.23l-18.83-.88-9.38-.64-4.68-.39c-1.55-.17-3.09-.38-4.61-.72 1.6-.08 3.18-.04 4.75.02 1.57.07 3.12.2 4.68.3l9.37.58 18.78.82c6.26.2 12.54.31 18.8.28 6.26-.02 12.56-.13 18.74-.54h.04c.14-.01.28.02.37.07.95.48 1.59 1.09 2.14 1.71a12.59 12.59 0 0 1 1.38 1.91c.39.65.72 1.31 1.02 1.97a22.61 22.61 0 0 1 .79 2.01l-1.19.04c.14-1.24.56-2.47 1.18-3.64.31-.59.67-1.17 1.07-1.73a13.79 13.79 0 0 1 1.38-1.66l.8-.12c-.07-.02-.04-.01-.06-.02h.02l.05.01.13.02.29.04c.2.02.41.04.62.07l1.27.11 2.57.16 5.17.24 10.37.28c3.45.02 6.91-.05 10.36-.21 3.44-.16 6.9-.39 10.28-.76h.01c.21-.02.42.06.45.2v.02l.83 5.36h-.67c.07-.47.25-.91.45-1.34.2-.44.43-.86.67-1.29a34.09 34.09 0 0 1 1.61-2.5c.04-.07.15-.1.25-.1h.02l5.16.09 5.16.01c3.44 0 6.88-.07 10.31-.18 3.43-.1 6.86-.28 10.28-.5l5.13-.35c1.71-.1 3.43-.18 5.18-.15z"/>
  <path fill="#2d1400" d="M167.58 134.95c.66-.77 1.43-1.81 2.14-2.99l-45.11-.12c-25.3.15-57.47 1.68-76.38.61-15.07-.85-34.67-.25-45.98.11 0 .39.12 1.83 1.55 2.87 1.45-.02 3.42 0 6.12.08 9.82.31 26.52-.92 58.45-.31s45.44-.15 60.91 0 30.21-.31 36.35-.31c.72 0 1.37.02 1.96.06z" opacity=".06"/>
  <path fill="#fff" d="M46.86 99.11s-7.54-2.07-4.82 5.07C44.75 111.31 55 113 57.72 110c2.71-3-5.13-9.94-10.85-10.88zm85.33 1.32c-.77-1.68-1.91-2.9-3.11-3.78.27-1.23.48-2.54.63-3.95 2-17.91 1.6-42.29.8-55.23s-1.6-19.9-13.19-23.88-42.76-1.99-47.16-2.24c0 0-18.38.75-20.38 8.21l-.61 2.27c-2.33-.78-5.6-.83-8.98 2.46-5.09 4.95-.31 14.31 5.48 16.17-.15 1.78-.25 3.65-.3 5.64-2-.01-4.79.98-4.79 6.55 0 5.24 1.74 8.85 3.81 10.09-1.89 11.84-5.08 23.5 3.38 30.46 11.19 9.21 9.99 17.17 39.57 19.16 14.97 1.01 25.13.55 31.77-2.48.24.21.57.38 1 .49 5.12 1.31 14.47-4.69 12.06-9.95zm4.52-82.2s-1.81.56-.9 3.75c.9 3.19 5.12 3 5.73 1.31.6-1.69-1.21-6.57-4.82-5.07zm-73.28 92.54s-3.03.47-.76 2.24 8.53 2.6 11.94 1.06c3.41-1.53-4.17-4.36-11.18-3.3z" class="A" opacity=".15"/>
</svg>
