<svg width="1690" height="1495" viewBox="0 0 1690 1495" fill="none" xmlns="http://www.w3.org/2000/svg">
    <path d="M1651.6 10.3269C1648.08 1.14811 1641.91 1.14807 1639.27 1.14807C1635.74 1.14807 1630.45 1.14811 1626.93 10.3269C1621.64 22.9478 1625.16 61.9578 1626.05 72.284C1626.93 82.6101 1633.1 96.3782 1631.33 110.146C1630.45 117.031 1634.86 115.883 1639.27 113.588C1643.67 115.883 1648.08 117.031 1647.2 110.146C1645.43 97.5255 1651.6 82.6101 1652.49 72.284C1653.37 60.8105 1656.01 22.9478 1651.6 10.3269Z" fill="url(#paint0_linear_1367_11603)"/>
    <path opacity="0.11" d="M1634.86 17.2103C1635.74 6.88411 1637.5 2.2947 1640.15 0H1639.27C1635.74 0 1630.45 3.48776e-05 1626.93 9.17884C1621.64 21.7997 1625.16 60.8096 1626.05 71.1357C1626.93 81.4619 1633.1 95.2301 1631.33 108.998C1630.45 115.882 1634.86 114.735 1639.27 112.44C1639.27 112.44 1640.15 112.44 1640.15 113.588C1641.03 112.44 1641.91 112.44 1641.91 112.44C1641.91 112.44 1644.55 97.5249 1640.15 78.0199C1635.74 58.5149 1633.98 40.1573 1634.86 17.2103Z" fill="#2B0004"/>
    <path opacity="0.09" d="M1625.16 65.4014C1625.16 67.6961 1625.16 69.9908 1625.16 71.1381C1626.05 81.4643 1632.21 95.2325 1630.45 109.001C1629.57 115.885 1633.98 114.738 1638.38 112.443C1642.79 114.738 1647.2 115.885 1646.32 109.001C1645.43 97.5272 1649.84 84.9064 1650.72 74.5802C1648.96 76.8749 1646.32 79.1696 1642.79 80.317C1633.1 84.9064 1627.81 73.4328 1625.16 65.4014Z" fill="#2B0004"/>
    <path opacity="0.18" d="M1625.16 28.681C1625.16 28.681 1625.16 16.0601 1629.57 19.5021C1633.98 22.9442 1628.69 49.3332 1633.1 69.9855C1637.5 90.6378 1636.62 94.0799 1638.38 104.406C1639.27 115.88 1634.86 114.732 1633.98 105.553C1633.1 97.522 1628.69 83.7538 1626.93 68.8383C1624.28 55.07 1625.16 28.681 1625.16 28.681Z" fill="#2B0004"/>
    <path d="M1656.89 120.471C1656.89 129.65 1650.72 137.681 1643.67 137.681H1633.98C1626.04 137.681 1620.76 129.65 1620.76 120.471C1620.76 111.292 1626.93 103.261 1633.98 103.261H1643.67C1650.72 103.261 1656.89 111.292 1656.89 120.471Z" fill="url(#paint1_linear_1367_11603)"/>
    <path opacity="0.09" d="M1634.86 137.683H1643.67C1651.6 137.683 1656.89 129.652 1656.89 120.473C1656.89 119.326 1656.89 118.178 1656.89 117.031C1656.01 119.326 1654.25 122.768 1648.96 122.768C1641.03 122.768 1633.98 121.62 1634.86 113.589C1634.86 105.558 1637.5 104.41 1637.5 104.41H1633.98C1626.04 104.41 1620.76 112.442 1620.76 121.62C1620.76 126.21 1622.52 130.799 1624.28 133.094C1626.93 134.241 1630.45 136.536 1634.86 137.683Z" fill="#2B0004"/>
    <path opacity="0.18" d="M1623.4 126.206C1623.4 126.206 1622.52 115.88 1627.81 111.29C1633.1 106.701 1629.57 117.027 1631.33 123.911C1633.98 130.795 1626.93 128.5 1623.4 126.206Z" fill="#2B0004"/>
    <path d="M1633.1 103.261C1626.04 104.408 1620.76 111.292 1620.76 120.471C1620.76 125.06 1621.64 128.502 1623.4 130.797C1623.4 129.65 1623.4 129.65 1623.4 128.502C1619.88 111.292 1631.33 104.408 1633.1 103.261Z" fill="#E37800"/>
    <path opacity="0.18" d="M1656.89 119.323C1655.13 122.765 1648.96 123.912 1631.33 122.765C1625.16 122.765 1622.52 121.618 1620.76 120.47C1620.76 129.649 1626.93 136.533 1633.98 136.533H1643.67C1650.72 137.681 1656.89 129.649 1656.89 119.323C1656.89 120.47 1656.89 120.47 1656.89 119.323Z" fill="#2B0004"/>
    <path d="M1673.64 152.596C1673.64 167.512 1663.94 180.133 1652.48 180.133H1626.04C1614.59 180.133 1604.89 167.512 1604.89 152.596C1604.89 137.681 1614.59 125.06 1626.04 125.06H1652.48C1663.94 125.06 1673.64 137.681 1673.64 152.596Z" fill="url(#paint2_linear_1367_11603)"/>
    <path opacity="0.09" d="M1673.64 152.596C1673.64 145.712 1670.99 138.828 1667.47 133.091C1668.35 136.533 1668.35 139.975 1667.47 142.27C1664.82 145.712 1648.08 142.27 1637.5 141.123C1628.69 141.123 1634.86 127.355 1635.74 125.06H1625.16C1613.71 125.06 1604.01 137.681 1604.01 152.596C1604.01 167.512 1613.71 180.133 1625.16 180.133H1651.6C1663.94 180.133 1673.64 167.512 1673.64 152.596Z" fill="#2B0004"/>
    <path opacity="0.18" d="M1608.42 150.302C1608.42 150.302 1609.3 139.976 1616.35 137.681C1623.4 135.386 1624.28 143.418 1627.81 145.712C1632.22 148.007 1611.06 150.302 1608.42 150.302Z" fill="#2B0004"/>
    <path opacity="0.18" d="M1664.82 144.567C1663.94 144.567 1663.06 144.568 1661.3 143.42C1657.77 143.42 1653.37 143.42 1649.84 142.273C1637.5 141.125 1620.76 141.126 1615.47 143.42C1611.06 145.715 1607.54 144.567 1606.66 142.273C1605.77 145.715 1605.77 148.01 1605.77 151.452C1605.77 154.894 1606.66 159.483 1607.54 162.925C1611.94 166.367 1619.88 169.809 1632.21 173.251C1648.08 176.693 1658.65 176.693 1665.71 174.399C1670.99 169.809 1674.52 161.778 1674.52 152.599C1674.52 149.157 1673.64 145.715 1672.76 142.273C1670.99 144.567 1668.35 145.715 1664.82 144.567Z" fill="#2B0004"/>
    <path d="M1621.64 125.06C1611.94 127.355 1604.01 138.828 1604.01 152.596C1604.01 157.186 1604.89 161.775 1606.66 165.217C1607.54 161.775 1607.54 158.333 1607.54 154.891C1605.77 136.534 1618.99 127.355 1621.64 125.06Z" fill="#E37800"/>
    <path opacity="0.66" d="M1645.43 4.58752C1645.43 4.58752 1638.38 4.58756 1641.03 19.5031C1643.67 34.4187 1644.55 41.3029 1645.43 60.8078C1646.32 81.4601 1650.72 69.9865 1650.72 52.7762C1651.6 35.566 1652.49 8.02958 1645.43 4.58752Z" fill="#F4BF1A"/>
    <path opacity="0.54" d="M1646.31 6.8826C1644.55 5.73525 1640.15 4.58804 1642.79 14.9142C1645.43 25.2404 1647.2 36.7138 1648.08 42.4505C1649.84 49.3347 1650.72 37.8612 1650.72 28.6824C1650.72 20.6509 1649.84 10.3247 1646.31 6.8826Z" fill="white"/>
    <path opacity="0.66" d="M1646.31 104.409C1646.31 104.409 1639.26 103.262 1641.03 110.146C1641.91 117.03 1652.48 121.619 1654.25 117.03C1656.89 111.293 1648.96 104.409 1646.31 104.409Z" fill="#F4BF1A"/>
    <path opacity="0.54" d="M1645.43 105.558C1645.43 105.558 1641.91 106.706 1645.43 109C1648.08 112.442 1651.6 113.59 1653.37 111.295C1654.25 110.148 1648.96 104.411 1645.43 105.558Z" fill="white"/>
    <path opacity="0.54" d="M1653.37 112.438C1653.37 112.438 1651.6 113.585 1652.49 114.733C1653.37 115.88 1654.25 114.733 1654.25 114.733C1654.25 113.585 1654.25 112.438 1653.37 112.438Z" fill="white"/>
    <path opacity="0.54" d="M1650.72 52.7811C1650.72 55.0758 1649.84 57.3706 1649.84 57.3706C1648.96 57.3706 1648.96 55.0758 1648.96 52.7811C1648.96 50.4864 1649.84 48.1918 1649.84 48.1918C1650.72 48.1918 1650.72 50.4864 1650.72 52.7811Z" fill="white"/>
    <path opacity="0.66" d="M1654.25 126.21C1654.25 126.21 1645.43 123.916 1643.67 128.505C1642.79 133.094 1653.37 138.831 1661.3 136.536C1670.11 135.389 1663.06 128.505 1654.25 126.21Z" fill="#F4BF1A"/>
    <path opacity="0.54" d="M1653.37 127.353C1653.37 127.353 1649.84 128.5 1653.37 130.795C1656.01 133.09 1659.54 134.237 1661.3 133.09C1663.06 130.795 1656.89 126.206 1653.37 127.353Z" fill="white"/>
    <path opacity="0.54" d="M1662.18 133.093C1662.18 133.093 1661.3 134.24 1661.3 135.388C1662.18 136.535 1663.06 135.388 1663.06 135.388C1663.94 134.24 1663.06 134.24 1662.18 133.093Z" fill="white"/>
    <path d="M58.1666 10.3269C54.6413 1.14811 48.4721 1.14807 45.8281 1.14807C42.3028 1.14807 37.0147 1.14811 33.4894 10.3269C28.2015 22.9478 31.7269 61.9578 32.6082 72.284C33.4895 82.6101 39.6587 96.3782 37.8961 110.146C37.0147 117.031 41.4214 115.883 45.8281 113.588C50.2347 115.883 54.6413 117.031 53.7599 110.146C51.9973 97.5255 58.1666 82.6101 59.048 72.284C59.9293 60.8105 63.4545 22.9478 58.1666 10.3269Z" fill="url(#paint3_linear_1367_11603)"/>
    <path opacity="0.11" d="M41.4214 17.2103C41.4214 6.88411 44.0653 2.2947 46.7093 0H45.8281C42.3028 0 37.0147 3.48776e-05 33.4894 9.17884C28.2015 21.7997 31.7269 60.8096 32.6082 71.1357C33.4895 81.4619 39.6587 95.2301 37.8961 108.998C37.0147 115.882 41.4214 114.735 45.8281 112.44C45.8281 112.44 46.7093 112.44 46.7093 113.588C47.5906 112.44 48.4721 112.44 48.4721 112.44C48.4721 112.44 51.1159 97.5249 46.7093 78.0199C43.184 58.5149 40.5401 40.1573 41.4214 17.2103Z" fill="#2B0004"/>
    <path opacity="0.09" d="M31.7263 65.4014C31.7263 67.6961 31.7263 69.9908 31.7263 71.1381C32.6076 81.4643 38.777 95.2325 37.0143 109.001C36.133 115.885 40.5396 114.738 44.9462 112.443C49.3528 114.738 53.7595 115.885 52.8782 109.001C51.1156 97.5272 56.4035 84.9064 57.2848 74.5802C55.5222 76.8749 52.8781 79.1696 49.3528 80.317C40.5396 84.9064 34.3703 73.4328 31.7263 65.4014Z" fill="#2B0004"/>
    <path opacity="0.18" d="M32.6083 28.681C32.6083 28.681 32.6083 16.0601 37.0149 19.5021C41.4216 22.9442 36.1336 49.3332 40.5402 69.9855C44.9468 90.6378 44.0655 94.0799 45.8282 104.406C46.7095 115.88 42.3029 114.732 41.4216 105.553C40.5402 97.522 36.1336 83.7538 34.3709 68.8383C31.727 55.07 32.6083 28.681 32.6083 28.681Z" fill="#2B0004"/>
    <path d="M64.3363 120.471C64.3363 129.65 58.1671 137.681 50.2352 137.681H40.5406C32.6087 137.681 26.4395 129.65 26.4395 120.471C26.4395 111.292 32.6087 103.261 40.5406 103.261H50.2352C58.1671 103.261 64.3363 111.292 64.3363 120.471Z" fill="url(#paint4_linear_1367_11603)"/>
    <path opacity="0.09" d="M42.3032 137.683H51.1164C59.0483 137.683 65.2177 129.652 65.2177 120.473C65.2177 119.326 65.2177 118.178 65.2177 117.031C64.3363 119.326 62.5737 122.768 57.2858 122.768C49.3539 122.768 42.3032 121.62 43.1845 113.589C43.1845 105.558 45.8285 104.41 45.8285 104.41H42.3032C34.3712 104.41 28.202 112.442 28.202 121.62C28.202 126.21 29.9646 130.799 31.7273 133.094C34.3713 134.241 37.0152 136.536 42.3032 137.683Z" fill="#2B0004"/>
    <path opacity="0.18" d="M30.8452 126.206C30.8452 126.206 29.9639 115.88 35.2519 111.29C40.5398 106.701 37.0145 117.027 38.7771 123.911C40.5398 130.795 33.4892 128.5 30.8452 126.206Z" fill="#2B0004"/>
    <path d="M40.5405 103.261C33.4899 104.408 28.202 111.292 28.202 120.471C28.202 125.06 29.0834 128.502 30.846 130.797C30.846 129.65 30.846 129.65 30.846 128.502C27.3207 111.292 37.8966 104.408 40.5405 103.261Z" fill="#E37800"/>
    <path opacity="0.18" d="M64.3363 119.323C62.5736 122.765 56.4044 123.912 38.7779 122.765C32.6086 122.765 29.9647 121.618 28.202 120.47C28.202 129.649 34.3713 136.533 41.4219 136.533H51.1164C58.167 137.681 64.3363 129.649 64.3363 119.323C64.3363 120.47 64.3363 120.47 64.3363 119.323Z" fill="#2B0004"/>
    <path d="M80.1988 152.596C80.1988 167.512 70.5043 180.133 59.0471 180.133H32.6073C21.1501 180.133 11.4554 167.512 11.4554 152.596C11.4554 137.681 21.1501 125.06 32.6073 125.06H59.0471C71.3856 125.06 80.1988 137.681 80.1988 152.596Z" fill="url(#paint5_linear_1367_11603)"/>
    <path opacity="0.09" d="M80.1992 152.596C80.1992 145.712 77.5553 138.828 74.03 133.091C74.9113 136.533 74.9113 139.975 74.03 142.27C71.386 145.712 54.6409 142.27 44.065 141.123C35.2517 141.123 41.4209 127.355 42.3022 125.06H31.7263C20.2691 125.06 10.5746 137.681 10.5746 152.596C10.5746 167.512 20.2691 180.133 31.7263 180.133H58.1661C71.386 180.133 80.1992 167.512 80.1992 152.596Z" fill="#2B0004"/>
    <path opacity="0.18" d="M15.8625 150.302C15.8625 150.302 16.744 139.976 23.7946 137.681C30.8452 135.386 31.7265 143.418 35.2518 145.712C38.7771 148.007 17.6252 150.302 15.8625 150.302Z" fill="#2B0004"/>
    <path opacity="0.18" d="M71.3861 144.567C70.5047 144.567 69.6235 144.568 67.8608 143.42C64.3355 143.42 59.9288 143.42 56.4035 142.273C44.065 141.125 27.3199 141.126 22.0319 143.42C17.6253 145.715 14.1 144.567 13.2187 142.273C12.3373 145.715 12.3373 148.01 12.3373 151.452C12.3373 154.894 13.2186 159.483 14.0999 162.925C18.5065 166.367 26.4385 169.809 38.777 173.251C54.6409 176.693 65.2168 176.693 72.2674 174.399C77.5554 169.809 81.0807 161.778 81.0807 152.599C81.0807 149.157 80.1994 145.715 79.3181 142.273C78.4367 144.567 75.7927 145.715 71.3861 144.567Z" fill="#2B0004"/>
    <path d="M29.082 125.06C19.3874 127.355 11.4554 138.828 11.4554 152.596C11.4554 157.186 12.3368 161.775 14.0994 165.217C14.9808 161.775 14.9808 158.333 14.9808 154.891C13.2182 136.534 25.5566 127.355 29.082 125.06Z" fill="#E37800"/>
    <path opacity="0.66" d="M52.8789 4.58752C52.8789 4.58752 45.8283 4.58756 48.4723 19.5031C51.1163 34.4187 51.9976 41.3029 52.8789 60.8078C53.7602 81.4601 58.1668 69.9865 58.1668 52.7762C58.1668 35.566 59.0482 8.02958 52.8789 4.58752Z" fill="#F4BF1A"/>
    <path opacity="0.54" d="M53.7599 6.8826C51.9973 5.73525 47.5907 4.58804 50.2347 14.9142C52.8787 25.2404 54.6412 36.7138 55.5226 42.4505C57.2852 49.3347 58.1666 37.8612 58.1666 28.6824C58.1666 20.6509 57.2852 10.3247 53.7599 6.8826Z" fill="white"/>
    <path opacity="0.66" d="M52.8772 104.409C52.8772 104.409 45.8265 103.262 47.5892 110.146C48.4705 117.03 59.0464 121.619 60.809 117.03C64.3343 111.293 55.5211 104.409 52.8772 104.409Z" fill="#F4BF1A"/>
    <path opacity="0.54" d="M51.9977 105.558C51.9977 105.558 48.4724 106.706 51.9977 109C54.6417 112.442 58.1669 113.59 59.9296 111.295C60.8109 110.148 55.523 104.411 51.9977 105.558Z" fill="white"/>
    <path opacity="0.54" d="M60.8103 112.438C60.8103 112.438 59.0476 113.585 59.9289 114.733C60.8102 115.88 61.6917 114.733 61.6917 114.733C61.6917 113.585 61.6916 112.438 60.8103 112.438Z" fill="white"/>
    <path opacity="0.54" d="M58.1661 52.7811C58.1661 55.0758 57.2848 57.3706 57.2848 57.3706C56.4035 57.3706 56.4034 55.0758 56.4034 52.7811C56.4034 50.4864 57.2848 48.1918 57.2848 48.1918C57.2848 48.1918 58.1661 50.4864 58.1661 52.7811Z" fill="white"/>
    <path opacity="0.66" d="M60.8098 126.21C60.8098 126.21 51.9966 123.916 50.2339 128.505C49.3526 133.094 59.9285 138.831 67.8604 136.536C76.6737 135.389 69.6231 128.505 60.8098 126.21Z" fill="#F4BF1A"/>
    <path opacity="0.54" d="M60.81 127.353C60.81 127.353 57.2847 128.5 60.81 130.795C63.4539 133.09 66.9792 134.237 68.7418 133.09C69.6232 130.795 64.3353 126.206 60.81 127.353Z" fill="white"/>
    <path opacity="0.54" d="M69.6235 133.093C69.6235 133.093 67.8608 134.24 68.7421 135.388C69.6235 136.535 70.5049 135.388 70.5049 135.388C70.5049 134.24 70.5048 134.24 69.6235 133.093Z" fill="white"/>
    <path d="M1651.61 1485.82C1648.08 1495 1641.91 1495 1639.27 1495C1635.74 1495 1630.45 1495 1626.93 1485.82C1621.64 1473.2 1625.17 1434.19 1626.05 1423.86C1626.93 1413.54 1633.1 1399.77 1631.33 1386C1630.45 1379.12 1634.86 1380.26 1639.27 1382.56C1643.67 1380.26 1648.08 1379.12 1647.2 1386C1645.44 1398.62 1651.61 1413.54 1652.49 1423.86C1653.37 1434.19 1656.01 1473.2 1651.61 1485.82Z" fill="url(#paint6_linear_1367_11603)"/>
    <path opacity="0.11" d="M1634.86 1477.79C1635.74 1488.12 1637.5 1492.71 1640.15 1495H1639.27C1635.74 1495 1630.45 1495 1626.93 1485.82C1621.64 1473.2 1625.17 1434.19 1626.05 1423.86C1626.93 1413.54 1633.1 1399.77 1631.33 1386C1630.45 1379.12 1634.86 1380.26 1639.27 1382.56H1640.15C1641.03 1383.71 1641.91 1383.71 1641.91 1383.71C1641.91 1383.71 1644.55 1398.62 1640.15 1418.13C1635.74 1436.48 1633.98 1454.84 1634.86 1477.79Z" fill="#2B0004"/>
    <path opacity="0.09" d="M1625.17 1429.6C1625.17 1427.31 1625.17 1425.01 1625.17 1423.86C1626.05 1413.54 1632.22 1399.77 1630.45 1386C1629.57 1379.12 1633.98 1380.26 1638.38 1382.56C1642.79 1380.26 1647.2 1379.12 1646.32 1386C1645.44 1397.48 1649.84 1410.1 1650.72 1420.42C1648.96 1418.13 1646.32 1415.83 1642.79 1414.69C1633.1 1410.1 1627.81 1421.57 1625.17 1429.6Z" fill="#2B0004"/>
    <path opacity="0.18" d="M1625.16 1466.32C1625.16 1466.32 1625.16 1478.94 1629.57 1475.49C1633.98 1472.05 1628.69 1445.66 1633.1 1425.01C1637.5 1404.36 1636.62 1400.92 1638.38 1390.59C1639.27 1379.12 1634.86 1380.26 1633.98 1389.44C1633.1 1397.47 1628.69 1411.24 1626.93 1426.16C1624.28 1439.93 1625.16 1466.32 1625.16 1466.32Z" fill="#2B0004"/>
    <path d="M1656.89 1374.53C1656.89 1365.35 1650.72 1357.32 1643.67 1357.32H1633.98C1626.05 1357.32 1620.76 1365.35 1620.76 1374.53C1620.76 1383.71 1626.93 1391.74 1633.98 1391.74H1643.67C1650.72 1391.74 1656.89 1383.71 1656.89 1374.53Z" fill="url(#paint7_linear_1367_11603)"/>
    <path opacity="0.09" d="M1634.86 1357.32H1643.67C1651.6 1357.32 1656.89 1365.35 1656.89 1374.53C1656.89 1375.68 1656.89 1376.82 1656.89 1377.97C1656.01 1375.68 1654.25 1372.23 1648.96 1372.23C1641.03 1372.23 1633.98 1373.38 1634.86 1381.41C1634.86 1389.44 1637.5 1390.59 1637.5 1390.59H1633.98C1626.05 1390.59 1620.76 1382.56 1620.76 1373.38C1620.76 1368.79 1622.52 1364.2 1624.28 1361.91C1626.93 1360.76 1630.45 1358.47 1634.86 1357.32Z" fill="#2B0004"/>
    <path opacity="0.18" d="M1623.4 1368.79C1623.4 1368.79 1622.52 1379.12 1627.81 1383.71C1633.1 1388.3 1629.57 1377.97 1631.34 1371.09C1633.98 1364.2 1626.93 1366.5 1623.4 1368.79Z" fill="#2B0004"/>
    <path d="M1633.1 1391.74C1626.05 1390.59 1620.76 1383.7 1620.76 1374.53C1620.76 1369.94 1621.64 1366.49 1623.4 1364.2C1623.4 1365.35 1623.4 1365.35 1623.4 1366.49C1619.88 1383.7 1631.33 1390.59 1633.1 1391.74Z" fill="#E37800"/>
    <path opacity="0.18" d="M1656.89 1375.68C1655.13 1372.23 1648.96 1371.09 1631.33 1372.23C1625.16 1372.23 1622.52 1373.38 1620.76 1374.53C1620.76 1365.35 1626.93 1358.47 1633.98 1358.47H1643.67C1650.72 1357.32 1656.89 1365.35 1656.89 1375.68C1656.89 1374.53 1656.89 1374.53 1656.89 1375.68Z" fill="#2B0004"/>
    <path d="M1673.64 1342.4C1673.64 1327.49 1663.94 1314.86 1652.49 1314.86H1626.05C1614.59 1314.86 1604.89 1327.49 1604.89 1342.4C1604.89 1357.32 1614.59 1369.94 1626.05 1369.94H1652.49C1663.94 1369.94 1673.64 1357.32 1673.64 1342.4Z" fill="url(#paint8_linear_1367_11603)"/>
    <path opacity="0.09" d="M1673.64 1342.4C1673.64 1349.29 1670.99 1356.17 1667.47 1361.91C1668.35 1358.47 1668.35 1355.02 1667.47 1353.88C1664.82 1350.43 1648.08 1353.88 1637.5 1355.02C1628.69 1355.02 1634.86 1368.79 1635.74 1371.09H1625.16C1613.71 1371.09 1604.01 1358.47 1604.01 1343.55C1604.01 1328.64 1613.71 1316.01 1625.16 1316.01H1651.6C1663.94 1314.87 1673.64 1327.49 1673.64 1342.4Z" fill="#2B0004"/>
    <path opacity="0.18" d="M1608.42 1344.7C1608.42 1344.7 1609.3 1355.02 1616.35 1357.32C1623.4 1359.61 1624.28 1351.58 1627.81 1349.29C1632.22 1346.99 1611.06 1344.7 1608.42 1344.7Z" fill="#2B0004"/>
    <path opacity="0.18" d="M1664.82 1350.44C1663.94 1350.44 1663.06 1350.44 1661.3 1351.58C1657.77 1351.58 1653.37 1351.58 1649.84 1352.73C1637.5 1353.88 1620.76 1353.88 1615.47 1351.58C1611.06 1349.29 1607.54 1350.44 1606.66 1352.73C1605.78 1349.29 1605.78 1346.99 1605.78 1343.55C1605.78 1340.11 1606.66 1335.52 1607.54 1332.08C1611.95 1328.64 1619.88 1325.19 1632.22 1321.75C1648.08 1318.31 1658.66 1318.31 1665.71 1320.6C1670.99 1325.19 1674.52 1333.23 1674.52 1342.4C1674.52 1345.85 1673.64 1349.29 1672.76 1352.73C1670.99 1350.44 1668.35 1349.29 1664.82 1350.44Z" fill="#2B0004"/>
    <path d="M1621.64 1369.94C1611.95 1367.64 1604.01 1356.17 1604.01 1342.4C1604.01 1337.81 1604.89 1333.22 1606.66 1329.78C1607.54 1333.22 1607.54 1336.66 1607.54 1340.1C1605.78 1358.46 1619 1367.64 1621.64 1369.94Z" fill="#E37800"/>
    <path opacity="0.66" d="M1645.44 1490.41C1645.44 1490.41 1638.39 1490.41 1641.03 1475.49C1643.67 1460.58 1644.55 1453.69 1645.44 1434.19C1646.32 1413.54 1650.72 1425.01 1650.72 1442.22C1651.6 1459.43 1652.49 1486.97 1645.44 1490.41Z" fill="#F4BF1A"/>
    <path opacity="0.54" d="M1646.32 1488.11C1644.55 1489.26 1640.15 1490.41 1642.79 1480.08C1645.43 1469.76 1647.2 1458.28 1648.08 1452.55C1649.84 1445.66 1650.72 1457.14 1650.72 1466.31C1650.72 1474.35 1649.84 1484.67 1646.32 1488.11Z" fill="white"/>
    <path opacity="0.66" d="M1646.32 1390.59C1646.32 1390.59 1639.27 1391.74 1641.03 1384.85C1641.91 1377.97 1652.48 1373.38 1654.25 1377.97C1656.89 1383.7 1648.96 1390.59 1646.32 1390.59Z" fill="#F4BF1A"/>
    <path opacity="0.54" d="M1645.44 1389.44C1645.44 1389.44 1641.91 1388.3 1645.44 1386C1648.08 1382.56 1651.6 1381.41 1653.37 1383.71C1654.25 1384.85 1648.96 1390.59 1645.44 1389.44Z" fill="white"/>
    <path opacity="0.54" d="M1653.37 1382.56C1653.37 1382.56 1651.61 1381.41 1652.49 1380.27C1653.37 1379.12 1654.25 1380.27 1654.25 1380.27C1654.25 1381.41 1654.25 1382.56 1653.37 1382.56Z" fill="white"/>
    <path opacity="0.54" d="M1650.72 1442.22C1650.72 1439.93 1649.84 1437.63 1649.84 1437.63C1648.96 1437.63 1648.96 1439.93 1648.96 1442.22C1648.96 1444.52 1649.84 1446.81 1649.84 1446.81C1650.72 1446.81 1650.72 1444.52 1650.72 1442.22Z" fill="white"/>
    <path opacity="0.66" d="M1654.25 1368.79C1654.25 1368.79 1645.44 1371.08 1643.67 1366.5C1642.79 1361.91 1653.37 1356.17 1661.3 1358.46C1670.11 1359.61 1663.06 1367.64 1654.25 1368.79Z" fill="#F4BF1A"/>
    <path opacity="0.54" d="M1653.37 1367.65C1653.37 1367.65 1649.84 1366.5 1653.37 1364.2C1656.01 1361.91 1659.54 1360.76 1661.3 1361.91C1663.06 1364.2 1656.89 1368.79 1653.37 1367.65Z" fill="white"/>
    <path opacity="0.54" d="M1662.18 1361.91C1662.18 1361.91 1661.3 1360.76 1661.3 1359.61C1662.18 1358.46 1663.06 1359.61 1663.06 1359.61C1663.94 1360.76 1663.06 1361.91 1662.18 1361.91Z" fill="white"/>
    <path d="M58.1666 1485.82C54.6413 1495 48.4721 1495 45.8281 1495C42.3028 1495 37.0147 1495 33.4894 1485.82C28.2015 1473.2 31.7269 1434.19 32.6082 1423.86C33.4895 1413.54 39.6587 1399.77 37.8961 1386C37.0147 1379.12 41.4214 1380.26 45.8281 1382.56C50.2347 1380.26 54.6413 1379.12 53.7599 1386C51.9973 1398.62 58.1666 1413.54 59.048 1423.86C59.9293 1434.19 63.4545 1473.2 58.1666 1485.82Z" fill="url(#paint9_linear_1367_11603)"/>
    <path opacity="0.11" d="M41.4214 1477.79C41.4214 1488.12 44.0653 1492.71 46.7093 1495H45.8281C42.3028 1495 37.0147 1495 33.4894 1485.82C28.2015 1473.2 31.7269 1434.19 32.6082 1423.86C33.4895 1413.54 39.6587 1399.77 37.8961 1386C37.0147 1379.12 41.4214 1380.26 45.8281 1382.56H46.7093C47.5906 1383.71 48.4721 1383.71 48.4721 1383.71C48.4721 1383.71 51.1159 1398.62 46.7093 1418.13C43.184 1436.48 40.5401 1454.84 41.4214 1477.79Z" fill="#2B0004"/>
    <path opacity="0.09" d="M31.7263 1429.6C31.7263 1427.31 31.7263 1425.01 31.7263 1423.86C32.6076 1413.54 38.777 1399.77 37.0143 1386C36.133 1379.12 40.5396 1380.26 44.9462 1382.56C49.3528 1380.26 53.7595 1379.12 52.8782 1386C51.1156 1397.48 56.4035 1410.1 57.2848 1420.42C55.5222 1418.13 52.8781 1415.83 49.3528 1414.69C40.5396 1410.1 34.3703 1421.57 31.7263 1429.6Z" fill="#2B0004"/>
    <path opacity="0.18" d="M32.6083 1466.32C32.6083 1466.32 32.6083 1478.94 37.0149 1475.49C41.4216 1472.05 36.1336 1445.66 40.5402 1425.01C44.9468 1404.36 44.0655 1400.92 45.8282 1390.59C46.7095 1379.12 42.3029 1380.26 41.4216 1389.44C40.5402 1397.47 36.1336 1411.24 34.3709 1426.16C31.727 1439.93 32.6083 1466.32 32.6083 1466.32Z" fill="#2B0004"/>
    <path d="M64.3363 1374.53C64.3363 1365.35 58.1671 1357.32 50.2352 1357.32H40.5406C32.6087 1357.32 26.4395 1365.35 26.4395 1374.53C26.4395 1383.71 32.6087 1391.74 40.5406 1391.74H50.2352C58.1671 1391.74 64.3363 1383.71 64.3363 1374.53Z" fill="url(#paint10_linear_1367_11603)"/>
    <path opacity="0.09" d="M42.3032 1357.32H51.1164C59.0483 1357.32 65.2177 1365.35 65.2177 1374.53C65.2177 1375.68 65.2177 1376.82 65.2177 1377.97C64.3363 1375.68 62.5737 1372.23 57.2858 1372.23C49.3539 1372.23 42.3032 1373.38 43.1845 1381.41C43.1845 1389.44 45.8285 1390.59 45.8285 1390.59H42.3032C34.3712 1390.59 28.202 1382.56 28.202 1373.38C28.202 1368.79 29.9646 1364.2 31.7273 1361.91C34.3713 1360.76 37.0152 1358.47 42.3032 1357.32Z" fill="#2B0004"/>
    <path opacity="0.18" d="M30.8452 1368.79C30.8452 1368.79 29.9639 1379.12 35.2519 1383.71C40.5398 1388.3 37.0145 1377.97 38.7771 1371.09C40.5398 1364.2 33.4892 1366.5 30.8452 1368.79Z" fill="#2B0004"/>
    <path d="M40.5405 1391.74C33.4899 1390.59 28.202 1383.7 28.202 1374.53C28.202 1369.94 29.0834 1366.49 30.846 1364.2C30.846 1365.35 30.846 1365.35 30.846 1366.49C27.3207 1383.7 37.8966 1390.59 40.5405 1391.74Z" fill="#E37800"/>
    <path opacity="0.18" d="M64.3363 1375.68C62.5736 1372.23 56.4044 1371.09 38.7779 1372.23C32.6086 1372.23 29.9647 1373.38 28.202 1374.53C28.202 1365.35 34.3713 1358.47 41.4219 1358.47H51.1164C58.167 1357.32 64.3363 1365.35 64.3363 1375.68C64.3363 1374.53 64.3363 1374.53 64.3363 1375.68Z" fill="#2B0004"/>
    <path d="M80.1988 1342.4C80.1988 1327.49 70.5043 1314.86 59.0471 1314.86H32.6073C21.1501 1314.86 11.4554 1327.49 11.4554 1342.4C11.4554 1357.32 21.1501 1369.94 32.6073 1369.94H59.0471C71.3856 1369.94 80.1988 1357.32 80.1988 1342.4Z" fill="url(#paint11_linear_1367_11603)"/>
    <path opacity="0.09" d="M80.1992 1342.4C80.1992 1349.29 77.5553 1356.17 74.03 1361.91C74.9113 1358.47 74.9113 1355.02 74.03 1353.88C71.386 1350.43 54.6409 1353.88 44.065 1355.02C35.2517 1355.02 41.4209 1368.79 42.3022 1371.09H31.7263C20.2691 1371.09 10.5746 1358.47 10.5746 1343.55C10.5746 1328.64 20.2691 1316.01 31.7263 1316.01H58.1661C71.386 1314.87 80.1992 1327.49 80.1992 1342.4Z" fill="#2B0004"/>
    <path opacity="0.18" d="M15.8625 1344.7C15.8625 1344.7 16.744 1355.02 23.7946 1357.32C30.8452 1359.61 31.7265 1351.58 35.2518 1349.29C38.7771 1346.99 17.6252 1344.7 15.8625 1344.7Z" fill="#2B0004"/>
    <path opacity="0.18" d="M71.3861 1350.44C70.5047 1350.44 69.6235 1350.44 67.8608 1351.58C64.3355 1351.58 59.9288 1351.58 56.4035 1352.73C44.065 1353.88 27.3199 1353.88 22.0319 1351.58C17.6253 1349.29 14.1 1350.44 13.2187 1352.73C12.3373 1349.29 12.3373 1346.99 12.3373 1343.55C12.3373 1340.11 13.2186 1335.52 14.0999 1332.08C18.5065 1328.64 26.4385 1325.19 38.777 1321.75C54.6409 1318.31 65.2168 1318.31 72.2674 1320.6C77.5554 1325.19 81.0807 1333.23 81.0807 1342.4C81.0807 1345.85 80.1994 1349.29 79.3181 1352.73C78.4367 1350.44 75.7927 1349.29 71.3861 1350.44Z" fill="#2B0004"/>
    <path d="M29.082 1369.94C19.3874 1367.64 11.4554 1356.17 11.4554 1342.4C11.4554 1337.81 12.3368 1333.22 14.0994 1329.78C14.9808 1333.22 14.9808 1336.66 14.9808 1340.1C13.2182 1358.46 25.5566 1367.64 29.082 1369.94Z" fill="#E37800"/>
    <path opacity="0.66" d="M52.8789 1490.41C52.8789 1490.41 45.8283 1490.41 48.4723 1475.49C51.1163 1460.58 51.9976 1453.69 52.8789 1434.19C53.7602 1413.54 58.1668 1425.01 58.1668 1442.22C58.1668 1459.43 59.0482 1486.97 52.8789 1490.41Z" fill="#F4BF1A"/>
    <path opacity="0.54" d="M53.7599 1488.11C51.9973 1489.26 47.5907 1490.41 50.2347 1480.08C52.8787 1469.76 54.6412 1458.28 55.5226 1452.55C57.2852 1445.66 58.1666 1457.14 58.1666 1466.31C58.1666 1474.35 57.2852 1484.67 53.7599 1488.11Z" fill="white"/>
    <path opacity="0.66" d="M52.8772 1390.59C52.8772 1390.59 45.8265 1391.74 47.5892 1384.85C48.4705 1377.97 59.0464 1373.38 60.809 1377.97C64.3343 1383.7 55.5211 1390.59 52.8772 1390.59Z" fill="#F4BF1A"/>
    <path opacity="0.54" d="M51.9977 1389.44C51.9977 1389.44 48.4724 1388.3 51.9977 1386C54.6417 1382.56 58.1669 1381.41 59.9296 1383.71C60.8109 1384.85 55.523 1390.59 51.9977 1389.44Z" fill="white"/>
    <path opacity="0.54" d="M60.8103 1382.56C60.8103 1382.56 59.0476 1381.41 59.9289 1380.27C60.8102 1379.12 61.6917 1380.27 61.6917 1380.27C61.6917 1381.41 61.6916 1382.56 60.8103 1382.56Z" fill="white"/>
    <path opacity="0.54" d="M58.1661 1442.22C58.1661 1439.93 57.2848 1437.63 57.2848 1437.63C56.4035 1437.63 56.4034 1439.93 56.4034 1442.22C56.4034 1444.52 57.2848 1446.81 57.2848 1446.81C57.2848 1446.81 58.1661 1444.52 58.1661 1442.22Z" fill="white"/>
    <path opacity="0.66" d="M60.8098 1368.79C60.8098 1368.79 51.9966 1371.08 50.2339 1366.5C49.3526 1361.91 59.9285 1356.17 67.8604 1358.46C76.6737 1359.61 69.6231 1367.64 60.8098 1368.79Z" fill="#F4BF1A"/>
    <path opacity="0.54" d="M60.81 1367.65C60.81 1367.65 57.2847 1366.5 60.81 1364.2C63.4539 1361.91 66.9792 1360.76 68.7418 1361.91C69.6232 1364.2 64.3353 1368.79 60.81 1367.65Z" fill="white"/>
    <path opacity="0.54" d="M69.6235 1361.91C69.6235 1361.91 67.8608 1360.76 68.7421 1359.61C69.6235 1358.46 70.5049 1359.61 70.5049 1359.61C70.5049 1360.76 70.5048 1361.91 69.6235 1361.91Z" fill="white"/>
    <path d="M90.7768 177.839C90.7768 177.839 193.892 192.755 264.398 184.723C264.398 184.723 282.024 240.943 297.888 253.564L319.04 195.049L338.429 182.429C338.429 182.429 488.255 199.639 700.654 208.818C913.053 219.144 1325.51 213.407 1331.68 211.112C1337.85 208.818 1337.85 213.407 1351.07 217.997C1364.29 222.586 1374.87 261.596 1374.87 261.596L1382.8 217.997C1382.8 217.997 1435.68 213.407 1442.73 213.407C1449.78 213.407 1452.42 239.796 1452.42 239.796C1452.42 239.796 1476.22 222.586 1481.51 205.376C1481.51 205.376 1561.71 207.67 1592.56 195.049C1623.4 182.429 1596.08 1298.8 1596.08 1298.8C1596.08 1298.8 1232.09 1277 1085.79 1288.47C1085.79 1288.47 1069.93 1262.09 1066.4 1239.14C1066.4 1239.14 1058.47 1273.56 1050.54 1286.18C1050.54 1286.18 931.561 1283.89 839.903 1286.18C748.246 1288.47 660.994 1298.8 660.994 1298.8L649.537 1281.59H631.911L620.453 1255.2L585.2 1302.24C585.2 1302.24 520.864 1297.65 400.122 1302.24C279.381 1306.83 71.3877 1317.16 71.3877 1317.16L90.7768 177.839Z" fill="url(#paint12_linear_1367_11603)"/>
    <path opacity="0.08" d="M1591.67 197.347C1560.83 209.968 1480.63 207.673 1480.63 207.673C1478.86 212.263 1476.22 217.999 1471.81 221.441C1506.19 283.398 1547.61 411.902 1552.9 672.35C1559.06 995.903 1524.69 1188.66 1477.98 1294.21C1546.73 1297.66 1595.2 1299.95 1595.2 1299.95C1595.2 1299.95 1622.52 184.726 1591.67 197.347Z" fill="#2D1400"/>
    <path opacity="0.14" d="M1591.67 197.347C1581.98 200.789 1567 203.084 1552.01 205.378C1556.42 226.031 1561.71 255.862 1563.47 293.724C1568.76 383.218 1566.11 1032.62 1563.47 1159.97C1562.59 1217.34 1557.3 1264.38 1552.01 1299.95C1579.33 1301.1 1595.2 1302.25 1595.2 1302.25C1595.2 1302.25 1622.52 184.726 1591.67 197.347Z" fill="#2D1400"/>
    <path opacity="0.08" d="M165.689 386.657C182.434 290.28 222.094 231.765 267.041 195.049C265.279 189.313 263.516 184.723 263.516 184.723C193.01 191.607 89.895 177.839 89.895 177.839L70.5059 1318.31C70.5059 1318.31 166.57 1313.72 266.16 1309.13C128.673 1118.67 125.148 623.011 165.689 386.657Z" fill="#2D1400"/>
    <path opacity="0.14" d="M121.623 313.227C121.623 242.091 133.962 204.228 145.419 183.576C113.691 181.281 90.7768 177.839 90.7768 177.839L71.3877 1318.31C71.3877 1318.31 111.047 1316.01 165.689 1313.72C164.808 1313.72 163.927 1312.57 163.927 1312.57C111.929 1273.56 121.623 454.351 121.623 313.227Z" fill="#2D1400"/>
    <path opacity="0.1" d="M1595.2 1298.8C1574.93 1287.33 1552.9 1277 1535.27 1273.56C1481.51 1262.09 1516.76 1262.09 1492.97 1252.91C1470.05 1243.73 1474.46 1247.17 1467.41 1235.7C1460.36 1224.22 1444.49 1239.14 1425.1 1244.88C1406.6 1250.61 1425.1 1244.88 1409.24 1250.61C1393.38 1256.35 1399.55 1239.14 1386.33 1229.96C1372.22 1220.78 1369.58 1233.4 1356.36 1244.88C1342.26 1256.35 1356.36 1244.88 1335.21 1239.14C1314.06 1233.4 1319.34 1256.35 1298.19 1250.61C1277.04 1244.88 1284.09 1256.35 1275.28 1256.35C1265.58 1256.35 1259.41 1235.7 1247.08 1220.78C1235.62 1205.87 1224.16 1258.65 1203.01 1264.38C1181.86 1270.12 1167.76 1267.82 1156.3 1264.38C1144.84 1260.94 1135.15 1267.82 1116.64 1267.82C1098.13 1267.82 1088.44 1250.61 1076.98 1226.52C1065.52 1203.57 1061.12 1179.48 1051.42 1200.13C1041.73 1220.78 1037.32 1229.96 1032.91 1237.99C1028.51 1247.17 1016.17 1243.73 1004.71 1234.55C993.254 1225.37 983.56 1237.99 983.56 1237.99C983.56 1237.99 973.865 1260.94 950.951 1260.94C928.036 1260.94 950.951 1260.94 934.205 1251.76C918.342 1242.58 906.003 1257.5 891.902 1260.94C877.8 1264.38 891.902 1260.94 877.801 1249.47C863.699 1237.99 873.394 1234.55 861.055 1228.81C849.598 1223.08 838.141 1266.68 831.09 1266.68C824.04 1266.68 798.481 1260.94 784.38 1257.5C770.279 1254.06 767.635 1266.68 758.822 1278.15C749.127 1289.62 737.67 1268.97 721.806 1266.68C705.942 1263.23 679.502 1272.41 679.502 1272.41L668.045 1268.97C668.045 1268.97 665.401 1257.5 660.995 1248.32C656.588 1239.14 644.249 1242.58 635.436 1236.85C625.742 1231.11 632.792 1216.19 631.03 1193.25C628.386 1170.3 616.928 1204.72 601.064 1223.08C584.319 1240.29 591.37 1249.47 589.607 1272.41C586.963 1295.36 566.693 1268.97 552.591 1268.97C538.49 1268.97 531.44 1283.89 524.389 1283.89C517.338 1283.89 505.881 1283.89 494.424 1280.44C482.967 1277 498.831 1259.79 497.068 1250.61C494.424 1241.43 478.56 1250.61 468.866 1250.61C459.171 1250.61 459.171 1262.09 450.358 1273.56C440.663 1285.03 422.155 1282.74 410.698 1279.3C399.241 1275.86 406.291 1262.09 394.834 1252.91C383.377 1243.73 373.682 1256.35 355.175 1247.17C336.667 1237.99 355.175 1247.17 338.429 1241.43C321.684 1235.7 321.684 1250.61 331.379 1262.09C341.073 1273.56 305.82 1279.3 298.77 1285.03C291.719 1290.77 270.567 1285.03 256.466 1285.03C242.365 1285.03 256.466 1285.03 249.415 1275.86C242.365 1266.68 246.772 1255.2 239.721 1252.91C232.67 1249.47 218.569 1273.56 218.569 1273.56L200.061 1285.03C200.061 1285.03 174.503 1294.21 160.402 1285.03C146.3 1275.86 143.656 1281.59 116.335 1285.03C88.133 1288.48 74.0317 1235.7 74.0317 1235.7H71.3877L69.6251 1314.87C69.6251 1314.87 277.618 1304.54 398.36 1299.95C519.101 1295.36 583.438 1299.95 583.438 1299.95L618.691 1252.91L630.148 1279.3H647.775L659.232 1296.51C659.232 1296.51 746.483 1286.18 838.141 1283.89C929.799 1281.59 1048.78 1283.89 1048.78 1283.89C1056.71 1271.27 1064.64 1236.85 1064.64 1236.85C1068.17 1258.65 1084.03 1286.18 1084.03 1286.18C1230.33 1273.56 1594.32 1296.51 1594.32 1296.51C1594.32 1296.51 1595.2 1299.95 1595.2 1298.8Z" fill="#2D1400"/>
    <path d="M1595.2 1301.1L1340.5 1295.36C1319.34 1295.36 1298.19 1294.21 1277.04 1294.21L1213.58 1293.06C1171.28 1293.06 1128.98 1291.92 1086.67 1294.21H1084.91L1084.03 1293.06C1082.27 1289.62 1079.62 1285.03 1077.86 1281.59C1076.1 1277 1074.34 1273.56 1072.57 1268.97C1069.05 1260.94 1066.4 1251.76 1064.64 1242.58H1069.05C1067.28 1250.61 1064.64 1258.64 1062 1266.67C1061.12 1270.12 1059.35 1274.71 1057.59 1278.15C1055.83 1281.59 1054.07 1286.18 1052.3 1289.62L1051.42 1290.77H1050.54C1034.68 1290.77 1017.93 1289.62 1002.07 1289.62H953.594C920.985 1289.62 888.376 1290.77 856.648 1291.92C824.039 1293.06 791.43 1295.36 759.702 1297.65C727.093 1299.95 695.366 1303.39 662.756 1306.83H660.113L658.35 1304.54L646.893 1287.33L651.299 1289.62H633.673H630.148L628.385 1286.18L616.928 1259.79L625.741 1260.94L590.488 1307.98L588.725 1310.27H586.081C543.778 1307.98 500.593 1307.98 458.289 1309.13C437.137 1309.13 415.104 1310.27 393.952 1310.27L329.616 1312.57L265.279 1314.86L200.942 1316.01C157.757 1317.16 115.454 1318.31 72.2686 1318.31V1317.16C115.454 1313.72 157.757 1310.27 200.942 1307.98L265.279 1303.39L329.616 1299.95L393.952 1296.51C415.104 1295.36 437.137 1294.21 458.289 1294.21C479.441 1293.06 501.474 1293.06 522.626 1294.21C543.778 1294.21 565.811 1295.36 586.963 1296.51L580.793 1298.8L616.046 1252.91L621.334 1246.02L624.86 1254.05L636.317 1281.59L631.91 1278.15H649.537H652.181L653.943 1280.44L665.401 1297.65L660.994 1295.36C693.603 1291.92 726.212 1289.62 758.821 1288.47C791.43 1287.33 824.039 1286.18 856.648 1286.18C889.257 1286.18 921.866 1286.18 954.475 1286.18L1052.3 1287.33L1050.54 1288.47C1052.3 1285.03 1054.06 1281.59 1054.95 1278.15C1056.71 1274.71 1057.59 1270.12 1058.47 1266.67C1061.12 1258.64 1062.88 1250.61 1064.64 1242.58L1067.29 1232.25L1069.05 1242.58C1070.81 1250.61 1073.45 1259.79 1076.98 1266.67C1078.74 1270.12 1080.5 1274.71 1082.27 1278.15C1084.03 1281.59 1086.67 1286.18 1088.44 1289.62L1085.79 1288.47C1106.94 1286.18 1128.1 1285.03 1149.25 1283.88C1170.4 1282.74 1191.55 1282.74 1212.7 1282.74C1233.86 1282.74 1255.01 1282.74 1276.16 1282.74C1297.31 1282.74 1318.46 1283.88 1339.61 1285.03C1360.77 1286.18 1381.92 1287.33 1403.07 1287.33C1424.22 1288.47 1445.37 1289.62 1466.53 1290.77C1508.83 1293.06 1551.13 1296.51 1594.32 1301.1H1595.2Z" fill="#A86C27"/>
    <path opacity="0.1" d="M1602.25 262.746C1599.61 220.294 1596.08 196.2 1591.67 197.347C1560.83 209.968 1480.63 207.673 1480.63 207.673C1474.46 224.883 1451.54 242.094 1451.54 242.094C1451.54 242.094 1449.78 215.705 1441.85 215.705C1433.92 215.705 1381.92 220.294 1381.92 220.294L1373.99 263.893C1373.99 263.893 1364.29 224.883 1350.19 220.294C1336.97 215.705 1336.97 209.968 1330.8 213.41C1324.63 215.705 912.172 220.294 699.772 211.115C487.373 200.789 337.547 184.726 337.547 184.726L318.158 197.347L297.006 255.862C281.143 243.241 263.516 187.021 263.516 187.021C193.01 193.905 89.895 180.137 89.895 180.137V197.347C94.3016 200.789 101.352 201.936 111.928 198.494C141.893 189.316 165.689 189.316 174.502 195.052C184.197 200.789 188.603 221.441 209.755 221.441C230.907 221.441 237.958 206.526 253.821 227.178C270.567 247.83 270.567 238.652 279.38 259.304C289.075 279.956 296.125 294.872 296.125 294.872C296.125 294.872 303.176 239.799 312.87 230.62C322.565 221.441 324.328 221.441 345.479 215.705C366.631 209.968 362.225 198.494 380.732 206.526C399.24 215.705 410.697 232.915 410.697 232.915C410.697 232.915 420.392 268.483 440.663 250.125C461.814 232.915 466.221 214.557 480.322 223.736C494.423 232.915 503.237 244.388 512.931 244.388C522.626 244.388 556.997 244.388 556.997 244.388C556.997 244.388 571.099 223.736 578.149 235.21C585.2 246.683 613.402 229.473 636.317 226.031C659.231 222.589 678.62 237.504 691.84 237.504C705.942 237.504 738.551 234.062 745.601 234.062C749.127 234.062 782.617 271.925 789.667 257.009C800.243 234.062 839.903 240.946 859.292 245.536C878.681 250.125 890.139 234.062 895.427 242.094C910.409 266.188 913.053 230.62 935.967 230.62C980.034 230.62 980.034 227.178 998.541 239.799C1017.05 251.272 1019.69 254.714 1042.61 245.536C1065.52 236.357 1075.22 222.589 1082.27 230.62C1089.32 239.799 1117.52 251.272 1126.33 245.536C1136.03 239.799 1181.86 234.062 1212.7 242.094C1225.04 245.536 1210.94 270.777 1219.75 274.219C1232.97 279.956 1265.58 262.746 1269.11 251.272C1273.52 230.62 1294.67 221.441 1315.82 236.357C1336.97 251.272 1392.49 289.135 1397.78 262.746C1402.19 236.357 1407.48 239.799 1414.53 242.094C1421.58 245.536 1430.39 251.272 1447.14 257.009C1463 262.746 1475.34 245.536 1482.39 247.83C1489.44 251.272 1492.08 221.441 1510.59 238.652C1529.1 255.862 1538.79 235.21 1529.1 255.862C1519.4 276.514 1524.69 282.251 1533.51 282.251C1543.2 282.251 1556.42 270.778 1566.11 273.072C1572.28 277.662 1590.79 276.514 1602.25 262.746Z" fill="#2D1400"/>
    <path d="M90.7759 176.691C104.877 177.839 119.86 178.986 133.961 180.133C148.062 181.281 163.045 182.428 177.146 182.428C191.247 182.428 206.23 183.575 220.331 183.575C234.432 183.575 249.414 182.428 263.516 181.281H265.278L266.16 183.575C267.922 189.312 270.566 196.196 272.329 201.933C274.973 207.67 276.736 213.406 279.38 220.291C282.024 226.027 284.667 231.764 287.311 237.501C289.955 243.238 293.481 247.827 297.006 251.269L292.599 253.564L313.751 195.049L314.633 193.901L315.514 192.754L334.903 180.133H335.784H336.666C424.798 189.312 512.05 197.344 600.182 204.228C644.248 207.67 688.315 209.964 732.381 211.112C776.447 212.259 820.513 212.259 864.58 213.406C952.712 213.406 1040.84 213.406 1128.98 212.259L1261.18 211.112H1293.78C1304.36 211.112 1315.82 211.112 1326.39 209.964H1327.28H1328.16H1329.04C1329.92 209.964 1329.92 209.964 1330.8 209.964C1331.68 209.964 1333.44 209.964 1334.33 209.964C1335.21 209.964 1336.09 211.112 1336.97 211.112C1339.61 213.406 1341.38 214.554 1344.02 215.701C1344.9 216.849 1346.66 216.848 1347.55 216.848L1349.31 217.996C1350.19 217.996 1351.07 219.143 1351.95 219.143C1355.48 221.438 1357.24 223.733 1359.88 227.175C1364.29 232.911 1366.94 239.795 1369.58 245.532C1372.22 252.416 1373.99 258.153 1375.75 265.037H1368.7L1376.63 221.438L1377.51 217.996H1380.16L1422.46 214.554L1433.03 213.406H1438.32H1440.09H1440.97H1441.85C1443.61 213.406 1444.49 214.554 1445.37 215.701C1447.14 217.996 1448.02 220.29 1448.9 222.585C1449.78 224.88 1450.66 227.175 1450.66 229.469C1451.54 234.059 1452.42 238.648 1452.42 243.238L1448.02 240.943C1450.66 238.648 1453.3 236.353 1455.95 234.059C1458.59 231.764 1461.24 229.469 1463.88 226.027C1466.52 223.733 1469.17 220.291 1470.93 217.996C1472.69 214.554 1475.34 212.259 1476.22 208.817L1477.1 206.522H1478.86C1487.68 206.522 1497.37 206.522 1507.07 206.522C1516.76 206.522 1525.57 206.522 1535.27 206.522C1544.08 206.522 1553.78 205.375 1562.59 204.228C1571.4 203.08 1581.1 201.933 1589.91 198.491V199.638C1581.1 203.08 1571.4 205.375 1562.59 206.522C1552.89 207.67 1544.08 208.817 1534.39 209.964C1515.88 211.112 1497.37 212.259 1478.86 212.259L1480.63 211.112C1478.86 215.701 1477.1 219.143 1474.46 222.585C1471.81 226.027 1470.05 229.469 1467.41 231.764C1464.76 235.206 1462.12 237.501 1459.47 239.795C1456.83 242.09 1454.19 244.385 1450.66 246.68L1447.14 248.974L1446.25 243.238C1446.25 238.648 1445.37 235.206 1444.49 230.617C1443.61 227.175 1441.85 222.585 1440.97 220.291C1440.09 219.143 1440.08 219.143 1438.32 219.143H1433.03L1422.46 220.291L1380.16 224.88L1383.68 221.438L1375.75 265.037L1373.1 282.247L1368.7 266.185C1366.93 260.448 1365.17 253.564 1362.53 247.827C1359.88 242.09 1357.24 236.353 1354.6 231.764C1352.83 229.469 1351.07 227.175 1349.31 226.027C1348.43 226.027 1348.43 226.027 1348.43 224.88L1346.66 223.733C1344.9 223.733 1344.02 222.585 1342.26 221.438C1339.61 220.291 1336.97 217.996 1334.33 216.848C1333.44 215.701 1333.44 215.701 1332.56 215.701C1332.56 215.701 1332.56 215.701 1331.68 215.701H1330.8C1329.92 215.701 1329.04 215.701 1329.04 215.701H1328.16C1316.7 216.849 1306.12 216.848 1294.67 216.848L1261.18 217.996C1217.11 219.143 1173.04 219.143 1128.98 219.143C1040.84 219.143 952.712 217.996 864.58 215.701C820.513 214.554 776.447 212.259 732.381 211.112L666.281 207.67L600.182 204.228C556.116 201.933 512.049 199.638 467.983 196.196C423.917 193.901 379.851 189.312 335.784 184.723H337.547L318.158 197.344L319.92 195.049L297.887 253.564L296.125 258.153L292.599 255.858C287.312 251.269 283.786 245.532 280.261 239.795C276.736 234.059 274.092 228.322 271.448 222.585C266.16 209.964 261.753 198.491 258.228 185.87L260.872 188.165C246.77 189.312 231.788 189.312 217.687 189.312C203.586 189.312 188.603 188.165 174.502 187.017C160.401 185.87 145.418 184.723 131.317 182.428C118.978 182.428 104.877 180.133 90.7759 176.691Z" fill="#FFBF74"/>
    <path d="M0 1324.04C0 1336.66 22.9144 1345.84 50.2355 1345.84C78.4379 1345.84 100.471 1335.52 100.471 1324.04V166.367C100.471 153.746 77.5566 144.567 50.2355 144.567C22.0331 144.567 0 154.893 0 166.367V1324.04Z" fill="url(#paint13_linear_1367_11603)"/>
    <path opacity="0.1" d="M24.6778 148.008C22.9152 167.513 21.1527 201.934 22.034 245.533C23.7966 313.227 23.7965 712.505 20.2712 835.271C15.8646 958.038 28.2032 1211.6 24.6778 1267.82C22.9152 1297.65 21.1525 1324.04 20.2712 1342.4C29.0845 1344.7 38.7791 1346.99 50.2364 1346.99C61.6936 1346.99 72.2695 1345.84 80.2014 1342.4C80.2014 1324.04 79.3201 553.023 79.3201 430.257C79.3201 306.343 75.7947 211.112 73.1507 168.661C72.2694 160.629 72.2694 153.745 71.3881 145.713C65.2188 144.566 58.1683 143.419 50.2364 143.419C40.5418 144.566 31.7285 145.713 24.6778 148.008Z" fill="white"/>
    <path d="M1588.15 1324.04C1588.15 1336.66 1611.06 1345.84 1638.38 1345.84C1666.59 1345.84 1688.62 1335.52 1688.62 1324.04V166.367C1688.62 153.746 1665.71 144.567 1638.38 144.567C1610.18 144.567 1588.15 154.893 1588.15 166.367V1324.04Z" fill="url(#paint14_linear_1367_11603)"/>
    <path opacity="0.1" d="M1614.59 146.86C1611.06 161.775 1608.42 187.017 1609.3 224.879C1611.06 302.899 1611.94 338.467 1609.3 384.361C1606.66 430.255 1606.66 865.101 1606.66 970.657C1606.66 1077.36 1613.71 1200.13 1608.42 1283.88C1606.66 1306.83 1605.78 1325.19 1604.89 1338.96C1613.71 1342.4 1626.05 1344.69 1639.27 1344.69C1649.84 1344.69 1660.42 1343.55 1668.35 1340.1C1668.35 1317.16 1670.99 1264.38 1670.99 1138.17C1670.99 940.826 1670.99 380.919 1669.23 285.689C1668.35 242.09 1667.47 189.311 1665.71 145.712C1657.77 143.417 1648.08 142.27 1638.38 142.27C1630.45 144.565 1622.52 145.712 1614.59 146.86Z" fill="white"/>
    <path opacity="0.15" d="M1659.54 561.053C1662.18 480.739 1660.42 371.74 1663.06 314.373C1665.7 261.595 1665.7 183.575 1663.06 145.712C1656.01 143.417 1647.2 142.27 1638.38 142.27C1632.21 142.27 1626.05 142.27 1620.76 143.417C1620.76 152.596 1620.76 162.922 1620.76 177.838C1621.64 215.701 1617.23 285.689 1620.76 396.982C1624.28 508.275 1620.76 540.401 1631.33 600.063C1641.91 662.02 1656.89 641.368 1659.54 561.053Z" fill="white"/>
    <path opacity="0.1" d="M1639.26 144.567C1611.06 144.567 1589.03 154.893 1589.03 166.367V172.103C1590.79 169.809 1592.55 168.661 1595.2 169.809C1606.66 175.546 1612.82 152.598 1619.88 156.04C1626.93 159.482 1624.28 161.777 1633.1 159.482C1641.91 157.188 1648.96 153.746 1655.13 156.04C1661.3 158.335 1660.42 165.219 1669.23 166.367C1678.04 167.514 1679.81 187.019 1688.62 205.377C1688.62 206.524 1689.5 206.524 1689.5 207.671V166.367C1689.5 154.893 1666.59 144.567 1639.26 144.567Z" fill="#2D1400"/>
    <path opacity="0.15" d="M35.2515 234.059C33.4888 369.447 37.0141 431.404 36.1327 486.477C35.2514 541.549 62.5725 597.77 65.2165 502.54C68.7418 406.162 66.0978 255.859 64.3351 217.997C63.4538 198.492 62.5725 168.66 62.5725 144.566C59.0472 144.566 54.6406 143.419 50.234 143.419C46.7087 143.419 44.0647 143.419 41.4207 143.419C38.7768 156.04 36.1328 181.281 35.2515 234.059Z" fill="white"/>
    <path opacity="0.15" d="M49.3536 849.04C49.3536 849.04 41.4217 854.776 41.4217 901.818C41.4217 948.859 37.8964 1065.89 37.8964 1132.44C37.8964 1198.98 39.6591 1322.9 45.8284 1318.31C51.9976 1313.72 70.5054 1329.78 68.7428 1221.93C67.8614 1114.08 74.0307 785.935 49.3536 849.04Z" fill="white"/>
    <path opacity="0.18" d="M1522.93 649.399C1500.9 479.591 1488.56 314.372 1415.41 314.372C1403.07 314.372 1390.73 315.519 1380.16 316.667C1372.22 297.162 1344.9 273.068 1309.65 290.278C1309.65 290.278 1259.41 310.93 1286.73 333.877C1280.57 333.877 1273.51 332.73 1267.35 330.435C1231.21 317.814 1070.81 290.278 939.493 290.278C808.175 290.278 706.823 290.278 582.556 294.867C459.17 299.457 339.31 277.657 262.635 312.077C262.635 312.077 195.654 362.561 193.892 532.369C192.129 664.314 190.366 863.953 226.501 1000.49C212.399 1010.81 190.366 1036.06 207.993 1093.42C232.67 1174.89 279.38 1237.99 338.429 1204.72C349.886 1197.83 359.581 1190.95 368.394 1182.92C435.375 1211.6 504.999 1207.01 534.083 1192.1C579.031 1169.15 619.572 1126.7 657.469 1166.85C696.247 1207.01 730.619 1217.34 876.037 1210.45C1022.34 1202.42 1036.44 1134.73 1070.81 1149.64C1105.18 1164.56 1092.84 1197.83 1245.31 1195.54C1396.9 1193.24 1462.12 1172.59 1492.08 1103.75C1522.93 1034.91 1544.96 819.206 1522.93 649.399Z" fill="white"/>
    <path opacity="0.11" d="M1443.61 514.015C1440.09 406.164 1357.24 360.27 1196.84 360.27C1045.25 360.27 874.275 372.891 760.584 376.333C750.889 353.386 703.298 325.849 612.521 328.144C612.521 328.144 498.83 325.849 506.762 369.449C451.239 367.154 410.698 363.712 410.698 363.712C410.698 363.712 286.431 341.912 253.822 477.3C221.213 611.54 240.602 896.083 257.347 977.545C274.974 1059.01 326.09 1129 410.698 1133.58C495.305 1138.17 539.371 1116.37 646.012 1133.58C753.533 1150.79 885.732 1169.15 988.847 1142.76C1091.96 1116.37 1214.47 1173.74 1323.75 1149.65C1433.04 1125.55 1477.1 1053.27 1478.86 961.482C1481.51 873.136 1447.14 621.866 1443.61 514.015Z" fill="#F4BF7A"/>
    <path opacity="0.11" d="M1484.15 620.715C1484.15 620.715 1470.93 614.978 1473.57 672.345C1475.34 728.566 1488.56 836.417 1505.3 796.259C1522.93 756.102 1511.47 616.125 1484.15 620.715Z" fill="white"/>
    <path opacity="0.1" d="M50.2355 144.567C22.0331 144.567 0 154.893 0 166.367V189.314C3.5253 185.872 7.0505 181.282 7.0505 177.84C7.0505 167.514 8.81325 166.367 17.6265 166.367C26.4398 166.367 26.4397 164.072 32.609 160.63C38.7783 158.335 50.2354 146.862 55.5234 154.893C60.8113 162.925 55.5234 168.661 65.218 174.398C74.9126 180.135 73.15 166.367 82.8445 172.103C92.5391 177.84 100.471 193.903 100.471 193.903C100.471 193.903 100.471 193.903 101.352 195.05V167.514C100.471 154.893 78.4379 144.567 50.2355 144.567Z" fill="#2D1400"/>
    <path opacity="0.1" d="M89.0138 1332.07C79.3192 1337.81 76.6753 1338.96 65.218 1337.81C52.8795 1336.66 47.5915 1330.93 37.8969 1321.75C28.2023 1312.57 19.3892 1325.19 13.2199 1325.19C9.69458 1325.19 4.40663 1318.3 0 1311.42V1324.04C0 1336.66 22.9144 1345.84 50.2355 1345.84C71.3873 1345.84 89.8952 1340.1 96.9458 1330.93C95.1831 1332.07 94.3017 1328.63 89.0138 1332.07Z" fill="#2D1400"/>
    <path opacity="0.1" d="M1689.5 1324.04V1305.68C1685.97 1311.42 1681.57 1319.45 1677.16 1324.04C1663.06 1340.1 1652.48 1332.07 1644.55 1326.34C1636.62 1320.6 1618.11 1328.63 1607.54 1328.63C1601.37 1328.63 1594.32 1313.72 1589.03 1301.09V1322.89C1589.03 1335.51 1611.94 1344.69 1639.26 1344.69C1666.59 1346.99 1689.5 1336.66 1689.5 1324.04Z" fill="#2D1400"/>
    <path opacity="0.15" d="M1644.55 921.321C1644.55 921.321 1635.74 913.29 1633.98 955.742C1633.1 998.194 1623.4 1098.01 1626.05 1151.94C1628.69 1207.01 1644.55 1314.86 1653.37 1278.15C1662.18 1242.58 1661.3 1108.34 1658.66 1064.74C1656.89 1019.99 1657.77 914.437 1644.55 921.321Z" fill="white"/>
    <path opacity="0.1" d="M374.564 223.732C374.564 223.732 345.48 227.174 351.649 232.911C357.818 238.648 347.242 247.827 365.75 247.827C384.258 247.827 393.071 261.595 392.19 247.827C390.427 235.206 384.258 222.585 374.564 223.732Z" fill="#2D1400"/>
    <path opacity="0.1" d="M179.79 228.321C179.79 228.321 169.215 214.553 158.639 224.879C148.063 234.058 148.063 228.321 144.537 242.089C141.893 255.857 127.792 251.268 141.893 255.857C155.995 259.3 150.707 246.679 163.045 252.415C175.384 258.152 184.197 260.447 184.197 260.447C184.197 260.447 194.773 231.763 179.79 228.321Z" fill="#2D1400"/>
    <path opacity="0.1" d="M213.281 245.535C213.281 245.535 199.179 247.829 202.705 254.713C205.349 262.745 196.535 257.008 205.349 262.745C214.162 268.482 214.162 268.482 214.162 268.482C214.162 268.482 218.569 259.303 226.5 259.303C235.314 258.155 229.144 240.945 213.281 245.535Z" fill="#2D1400"/>
    <path opacity="0.1" d="M1181.86 254.714C1177.45 254.714 1148.37 260.451 1152.77 263.893C1157.18 267.335 1150.13 275.366 1161.59 281.103C1173.93 286.84 1186.26 283.398 1190.67 283.398C1195.96 283.398 1200.37 257.009 1181.86 254.714Z" fill="#2D1400"/>
    <path opacity="0.1" d="M674.214 1202.42C674.214 1202.42 651.299 1202.42 660.112 1213.89C668.926 1225.37 666.281 1236.84 680.383 1236.84C694.484 1236.84 703.297 1242.58 705.06 1231.1C705.941 1219.63 695.365 1219.63 674.214 1202.42Z" fill="#2D1400"/>
    <path opacity="0.1" d="M218.568 1203.57C214.161 1202.42 195.654 1194.39 189.484 1211.6C183.315 1228.81 186.84 1226.52 177.146 1233.4C168.333 1239.14 169.214 1242.58 177.146 1247.17C185.078 1250.61 189.484 1247.17 200.06 1247.17C210.636 1247.17 215.043 1229.96 220.331 1227.67C224.738 1225.37 252.058 1211.6 218.568 1203.57Z" fill="#2D1400"/>
    <path opacity="0.1" d="M1533.51 306.344C1529.1 305.196 1500.02 309.786 1508.83 320.112C1517.64 329.291 1529.1 329.291 1525.57 337.322C1522.93 345.354 1516.76 356.827 1523.81 362.564C1531.74 368.301 1540.56 383.216 1540.56 383.216C1540.56 383.216 1544.08 380.922 1544.96 355.68C1546.73 331.585 1568.76 313.228 1533.51 306.344Z" fill="#2D1400"/>
    <path opacity="0.1" d="M1117.52 1226.52C1117.52 1226.52 1089.32 1241.44 1106.94 1249.47C1125.45 1257.5 1127.21 1247.17 1141.32 1251.76C1155.42 1256.35 1163.35 1254.06 1169.52 1247.17C1175.69 1239.14 1169.52 1218.49 1155.42 1218.49C1141.32 1218.49 1135.15 1223.08 1135.15 1223.08C1135.15 1223.08 1133.38 1203.57 1117.52 1226.52Z" fill="#2D1400"/>
    <defs>
        <linearGradient id="paint0_linear_1367_11603" x1="1607.67" y1="130.5" x2="1687.6" y2="17.6546" gradientUnits="userSpaceOnUse">
            <stop offset="0.0458024" stop-color="#AB5400"/>
            <stop offset="1" stop-color="#F28900"/>
        </linearGradient>
        <linearGradient id="paint1_linear_1367_11603" x1="1628.1" y1="140.026" x2="1665.21" y2="100.409" gradientUnits="userSpaceOnUse">
            <stop offset="0.0458024" stop-color="#AB5400"/>
            <stop offset="1" stop-color="#F28900"/>
        </linearGradient>
        <linearGradient id="paint2_linear_1367_11603" x1="1630.36" y1="169.16" x2="1671.25" y2="122.051" gradientUnits="userSpaceOnUse">
            <stop offset="0.0458024" stop-color="#AB5400"/>
            <stop offset="1" stop-color="#F28900"/>
        </linearGradient>
        <linearGradient id="paint3_linear_1367_11603" x1="14.7357" y1="130.5" x2="94.6673" y2="17.6528" gradientUnits="userSpaceOnUse">
            <stop offset="0.0458024" stop-color="#AB5400"/>
            <stop offset="1" stop-color="#F28900"/>
        </linearGradient>
        <linearGradient id="paint4_linear_1367_11603" x1="35.1787" y1="140.028" x2="72.2934" y2="100.41" gradientUnits="userSpaceOnUse">
            <stop offset="0.0458024" stop-color="#AB5400"/>
            <stop offset="1" stop-color="#F28900"/>
        </linearGradient>
        <linearGradient id="paint5_linear_1367_11603" x1="37.4369" y1="169.157" x2="78.3163" y2="122.054" gradientUnits="userSpaceOnUse">
            <stop offset="0.0458024" stop-color="#AB5400"/>
            <stop offset="1" stop-color="#F28900"/>
        </linearGradient>
        <linearGradient id="paint6_linear_1367_11603" x1="1607.67" y1="1364.65" x2="1687.59" y2="1477.49" gradientUnits="userSpaceOnUse">
            <stop offset="0.0458024" stop-color="#AB5400"/>
            <stop offset="1" stop-color="#F28900"/>
        </linearGradient>
        <linearGradient id="paint7_linear_1367_11603" x1="1628.1" y1="1355.12" x2="1665.21" y2="1394.74" gradientUnits="userSpaceOnUse">
            <stop offset="0.0458024" stop-color="#AB5400"/>
            <stop offset="1" stop-color="#F28900"/>
        </linearGradient>
        <linearGradient id="paint8_linear_1367_11603" x1="1630.36" y1="1325.98" x2="1671.25" y2="1373.09" gradientUnits="userSpaceOnUse">
            <stop offset="0.0458024" stop-color="#AB5400"/>
            <stop offset="1" stop-color="#F28900"/>
        </linearGradient>
        <linearGradient id="paint9_linear_1367_11603" x1="14.7366" y1="1364.65" x2="94.6648" y2="1477.49" gradientUnits="userSpaceOnUse">
            <stop offset="0.0458024" stop-color="#AB5400"/>
            <stop offset="1" stop-color="#F28900"/>
        </linearGradient>
        <linearGradient id="paint10_linear_1367_11603" x1="35.1804" y1="1355.12" x2="72.2927" y2="1394.74" gradientUnits="userSpaceOnUse">
            <stop offset="0.0458024" stop-color="#AB5400"/>
            <stop offset="1" stop-color="#F28900"/>
        </linearGradient>
        <linearGradient id="paint11_linear_1367_11603" x1="37.4369" y1="1325.98" x2="78.3155" y2="1373.08" gradientUnits="userSpaceOnUse">
            <stop offset="0.0458024" stop-color="#AB5400"/>
            <stop offset="1" stop-color="#F28900"/>
        </linearGradient>
        <linearGradient id="paint12_linear_1367_11603" x1="6.54858" y1="747.758" x2="1650.52" y2="747.758" gradientUnits="userSpaceOnUse">
            <stop stop-color="#D17724"/>
            <stop offset="0.0307823" stop-color="#D57E2B"/>
            <stop offset="0.1539" stop-color="#E39742"/>
            <stop offset="0.2835" stop-color="#ECA852"/>
            <stop offset="0.4223" stop-color="#F2B35C"/>
            <stop offset="0.587" stop-color="#F4B65F"/>
            <stop offset="0.7252" stop-color="#ECAC56"/>
            <stop offset="0.9623" stop-color="#D8903D"/>
            <stop offset="1" stop-color="#D48B38"/>
        </linearGradient>
        <linearGradient id="paint13_linear_1367_11603" x1="100.692" y1="745.46" x2="-0.052879" y2="745.46" gradientUnits="userSpaceOnUse">
            <stop stop-color="#D17724"/>
            <stop offset="0.0307823" stop-color="#D57E2B"/>
            <stop offset="0.1539" stop-color="#E39742"/>
            <stop offset="0.2835" stop-color="#ECA852"/>
            <stop offset="0.4223" stop-color="#F2B35C"/>
            <stop offset="0.587" stop-color="#F4B65F"/>
            <stop offset="0.7252" stop-color="#ECAC56"/>
            <stop offset="0.9623" stop-color="#D8903D"/>
            <stop offset="1" stop-color="#D48B38"/>
        </linearGradient>
        <linearGradient id="paint14_linear_1367_11603" x1="1689.31" y1="745.46" x2="1588.55" y2="745.46" gradientUnits="userSpaceOnUse">
            <stop stop-color="#D17724"/>
            <stop offset="0.0307823" stop-color="#D57E2B"/>
            <stop offset="0.1539" stop-color="#E39742"/>
            <stop offset="0.2835" stop-color="#ECA852"/>
            <stop offset="0.4223" stop-color="#F2B35C"/>
            <stop offset="0.587" stop-color="#F4B65F"/>
            <stop offset="0.7252" stop-color="#ECAC56"/>
            <stop offset="0.9623" stop-color="#D8903D"/>
            <stop offset="1" stop-color="#D48B38"/>
        </linearGradient>
    </defs>
</svg>
