<?xml version="1.0" encoding="UTF-8"?>
<svg xmlns="http://www.w3.org/2000/svg" xmlns:xlink="http://www.w3.org/1999/xlink" viewBox="0 0 800 400">
	<style>
		.A,.D,.E{mix-blend-mode:multiply}.C{mix-blend-mode:soft-light}.F{fill:#4563b6}.G{opacity:.5}.H{opacity:.4}.I{fill:#250cb0}.J{fill:#fff}.K{fill-rule:evenodd}.L{fill:#d3b5c5}
	</style>
	<defs>
		<radialGradient xlink:href="#CI" id="A" cx="436.35" cy="129.81" r="16.21" fx="436.35" fy="129.81">
			<stop offset="0" stop-color="#ae9593"></stop>
			<stop offset="1" stop-color="#ac4b83"></stop>
		</radialGradient>
		<radialGradient xlink:href="#A" id="B" cx="445.38" cy="136.91" r="8.2" fx="445.38" fy="136.91"></radialGradient>
		<radialGradient xlink:href="#A" id="C" cx="435.93" cy="131.62" r="10.3" fx="435.93"
						fy="131.62"></radialGradient>
		<radialGradient xlink:href="#A" id="D" cx="432.46" cy="135.35" r="7.6" fx="432.46" fy="135.35"></radialGradient>
		<radialGradient xlink:href="#A" id="E" cx="428.43" cy="142.29" r="2.66" fx="428.43"
						fy="142.29"></radialGradient>
		<radialGradient xlink:href="#CI" id="F" cx="389.21" cy="-2327.39" r="7.16" fx="389.21" fy="-2327.39"
						gradientTransform="matrix(1 0 0 1.42 0 3349.03)">
			<stop offset="0" stop-color="#53a5e3"></stop>
			<stop offset=".99" stop-color="#0a59d9"></stop>
		</radialGradient>
		<radialGradient xlink:href="#CI" id="G" cx="388.76" cy="52.87" r="3.82" fx="388.76" fy="52.87">
			<stop offset="0" stop-color="#224799"></stop>
			<stop offset=".99" stop-color="#002a86"></stop>
		</radialGradient>
		<radialGradient xlink:href="#CI" id="H" cx="434.33" cy="-6513.27" r="4.02" fx="434.33" fy="-6513.27"
						gradientTransform="matrix(2.3 0 0 5.47 -611.28 35716.57)">
			<stop offset="0" stop-color="#abeeff"></stop>
			<stop offset="1" stop-color="#6a90de"></stop>
		</radialGradient>
		<radialGradient xlink:href="#G" id="I" cx="440.21" cy="62.63" r="2.51" fx="440.21" fy="62.63"
						gradientTransform="matrix(1.45 0 0 1 -252.37 0)"></radialGradient>
		<radialGradient xlink:href="#CI" id="J" cx="387.74" cy="55.68" r="7.86" fx="387.74" fy="55.68">
			<stop offset="0" stop-color="#e4fbff"></stop>
			<stop offset="1" stop-color="#91bbff"></stop>
		</radialGradient>
		<radialGradient xlink:href="#CI" id="K" cx="442.08" cy="61.82" r="5.53" fx="442.08" fy="61.82"
						gradientTransform="matrix(1.45 0 0 1 -252.37 0)">
			<stop offset="0" stop-color="#4166d4"></stop>
			<stop offset=".99" stop-color="#0d0ad9"></stop>
		</radialGradient>
		<radialGradient xlink:href="#CI" id="L" cx="442.8" cy="62.45" r="1.23" fx="442.8" fy="62.45"
						gradientTransform="matrix(1.45 0 0 1 -252.37 0)">
			<stop offset="0" stop-color="#2644ba"></stop>
			<stop offset=".99" stop-color="#0006b0"></stop>
		</radialGradient>
		<radialGradient xlink:href="#L" id="M" cx="439.16" cy="62.48" fx="439.16" fy="62.48"></radialGradient>
		<radialGradient xlink:href="#J" id="N" cx="389.42" cy="53.43" r="2.42" fx="389.42" fy="53.43"></radialGradient>
		<radialGradient xlink:href="#J" id="O" cx="391.58" cy="54.31" r="2.01" fx="391.58" fy="54.31"></radialGradient>
		<radialGradient xlink:href="#J" id="P" cx="383.44" cy="54.42" r="2.17" fx="383.44" fy="54.42"></radialGradient>
		<radialGradient xlink:href="#G" id="Q" cx="426.75" cy="61.38" r=".79" fx="426.75" fy="61.38"
						gradientTransform="scale(-1 1) rotate(-3.22 -2.91308393 14494.48220025)"></radialGradient>
		<radialGradient xlink:href="#CI" id="R" cx="388.63" cy="66.67" r="4.15" fx="388.63" fy="66.67">
			<stop offset="0" stop-color="#7bbcdd"></stop>
			<stop offset="1" stop-color="#3e39c8"></stop>
		</radialGradient>
		<radialGradient xlink:href="#J" id="S" cx="441.5" cy="65.31" r="2.5" fx="441.5" fy="65.31"
						gradientTransform="matrix(1.45 0 0 1 -252.37 0)"></radialGradient>
		<radialGradient xlink:href="#J" id="T" cx="388.69" cy="67.03" r="2.36" fx="388.69" fy="67.03"></radialGradient>
		<radialGradient xlink:href="#J" id="U" cx="391.12" cy="67.96" r="2.26" fx="391.12" fy="67.96"></radialGradient>
		<radialGradient xlink:href="#J" id="V" cx="382.94" cy="67.71" r="2.12" fx="382.94" fy="67.71"></radialGradient>
		<radialGradient xlink:href="#CI" id="W" cx="383.79" cy="87.12" r="9.69" fx="383.79" fy="87.12">
			<stop offset="0" stop-color="#4578ab"></stop>
			<stop offset=".99" stop-color="#1000a4"></stop>
		</radialGradient>
		<radialGradient xlink:href="#W" id="X" cx="350.92" cy="86.09" r="9.7" fx="350.92" fy="86.09"
						gradientTransform="scale(-1 1) rotate(-1.69 14.51121143 25178.40979789)"></radialGradient>
		<radialGradient xlink:href="#W" id="Y" cx="386.2" cy="87.11" r="9.71" fx="386.2" fy="87.11"></radialGradient>
		<radialGradient xlink:href="#CI" id="Z" cx="430.01" cy="44.33" r="13.69" fx="430.01" fy="44.33">
			<stop offset="0" stop-color="#4188d4"></stop>
			<stop offset=".99" stop-color="#0a45d9"></stop>
		</radialGradient>
		<radialGradient xlink:href="#G" id="a" cx="430.01" cy="60.59" r="3.83" fx="430.01" fy="60.59"></radialGradient>
		<radialGradient xlink:href="#H" id="b" cx="452.48" cy="-6511.84" r="4.03" fx="452.48"
						fy="-6511.84"></radialGradient>
		<radialGradient xlink:href="#J" id="c" cx="429.04" cy="63.41" r="7.87" fx="429.04" fy="63.41"></radialGradient>
		<radialGradient xlink:href="#J" id="d" cx="430.67" cy="61.15" r="2.42" fx="430.67" fy="61.15"></radialGradient>
		<radialGradient xlink:href="#J" id="e" cx="432.84" cy="62.04" r="2.02" fx="432.84" fy="62.04"></radialGradient>
		<radialGradient xlink:href="#J" id="f" cx="424.7" cy="62.15" r="2.18" fx="424.7" fy="62.15"></radialGradient>
		<radialGradient xlink:href="#G" id="g" cx="385.06" cy="66.8" r=".8" fx="385.06" fy="66.8"
						gradientTransform="scale(-1 1) rotate(-3.22 -2.91308393 14494.48220025)"></radialGradient>
		<radialGradient xlink:href="#R" id="h" cx="430.04" cy="74.43" r="4.16" fx="430.04" fy="74.43"></radialGradient>
		<radialGradient xlink:href="#J" id="i" cx="470.05" cy="73.07" r="2.51" fx="470.05" fy="73.07"
						gradientTransform="matrix(1.45 0 0 1 -252.37 0)"></radialGradient>
		<radialGradient xlink:href="#J" id="j" cx="430.1" cy="74.79" r="2.36" fx="430.1" fy="74.79"></radialGradient>
		<radialGradient xlink:href="#J" id="k" cx="432.55" cy="75.73" r="2.26" fx="432.55" fy="75.73"></radialGradient>
		<radialGradient xlink:href="#J" id="l" cx="424.35" cy="75.47" r="2.12" fx="424.35" fy="75.47"></radialGradient>
		<radialGradient xlink:href="#G" id="m" cx="401.18" cy="36.24" r="13.11" fx="401.18" fy="36.24"></radialGradient>
		<radialGradient xlink:href="#K" id="n" cx="416.84" cy="24.23" r="30.62" fx="416.84" fy="24.23"></radialGradient>
		<radialGradient xlink:href="#G" id="o" cx="408.59" cy="50.39" r="11.07" fx="408.59" fy="50.39"></radialGradient>
		<radialGradient xlink:href="#CI" id="p" cx="413.55" cy="99.86" r="29.27" fx="413.55" fy="99.86">
			<stop offset="0" stop-color="#92e2ff"></stop>
			<stop offset="1" stop-color="#5c8fff"></stop>
		</radialGradient>
		<radialGradient xlink:href="#K" id="q" cx="418.85" cy="81.6" r="20.44" fx="418.85" fy="81.6"></radialGradient>
		<radialGradient xlink:href="#G" id="r" cx="388.32" cy="83.32" r="9.56" fx="388.32" fy="83.32"></radialGradient>
		<radialGradient xlink:href="#R" id="s" cx="411.37" cy="94.44" r="18.18" fx="411.37" fy="94.44"
						gradientTransform="matrix(.93 0 0 1 30.81 0)"></radialGradient>
		<radialGradient xlink:href="#J" id="t" cx="414.52" cy="94.09" r="14.07" fx="414.52" fy="94.09"
						gradientTransform="matrix(.93 0 0 1 30.81 0)"></radialGradient>
		<radialGradient xlink:href="#CI" id="u" cx="393.65" cy="133.17" r="32.16" fx="393.65" fy="133.17">
			<stop offset="0" stop-color="#4e71b7"></stop>
			<stop offset="1" stop-color="#2f39a7"></stop>
		</radialGradient>
		<radialGradient xlink:href="#G" id="v" cx="393.74" cy="133.42" r="28.53" fx="393.74"
						fy="133.42"></radialGradient>
		<radialGradient xlink:href="#J" id="w" cx="414.57" cy="105.02" r="37.95" fx="414.57"
						fy="105.02"></radialGradient>
		<radialGradient xlink:href="#R" id="x" cx="418.24" cy="133.49" r="33.54" fx="418.24"
						fy="133.49"></radialGradient>
		<radialGradient xlink:href="#CI" id="y" cx="412.98" cy="128.76" r="21.84" fx="412.98" fy="128.76">
			<stop offset="0" stop-color="#89e0ff"></stop>
			<stop offset="1" stop-color="#5599eb"></stop>
		</radialGradient>
		<radialGradient xlink:href="#G" id="z" cx="410.87" cy="130.2" r="17" fx="410.87" fy="130.2"></radialGradient>
		<radialGradient xlink:href="#R" id="AA" cx="422.58" cy="102.55" r="14.91" fx="422.58"
						fy="102.55"></radialGradient>
		<radialGradient xlink:href="#J" id="AB" cx="422.88" cy="102.55" r="14.91" fx="422.88"
						fy="102.55"></radialGradient>
		<radialGradient xlink:href="#u" id="AC" cx="422.81" cy="104.18" r="12.49" fx="422.81"
						fy="104.18"></radialGradient>
		<radialGradient xlink:href="#G" id="AD" cx="422.25" cy="104.87" r="11.6" fx="422.25"
						fy="104.87"></radialGradient>
		<radialGradient xlink:href="#J" id="AE" cx="423.31" cy="114.32" r="2.24" fx="423.31" fy="114.32"
						gradientTransform="rotate(.12 420.28889617 114.15151714)"></radialGradient>
		<radialGradient xlink:href="#R" id="AF" cx="423.1" cy="114.4" r="2.61" fx="423.1" fy="114.4"></radialGradient>
		<radialGradient xlink:href="#CI" id="AG" cx="422.14" cy="104.36" r="11.98" fx="422.14" fy="104.36">
			<stop offset="0" stop-color="#d6ffe8"></stop>
			<stop offset="1" stop-color="#92bcff"></stop>
		</radialGradient>
		<radialGradient xlink:href="#R" id="AH" cx="401.91" cy="102.61" r="14.89" fx="401.91"
						fy="102.61"></radialGradient>
		<radialGradient xlink:href="#J" id="AI" cx="402.2" cy="102.61" r="14.89" fx="402.2"
						fy="102.61"></radialGradient>
		<radialGradient xlink:href="#u" id="AJ" cx="402.13" cy="104.24" r="12.47" fx="402.13"
						fy="104.24"></radialGradient>
		<radialGradient xlink:href="#G" id="AK" cx="401.58" cy="104.92" r="11.58" fx="401.58"
						fy="104.92"></radialGradient>
		<radialGradient xlink:href="#J" id="AL" cx="402.63" cy="114.36" r="2.24" fx="402.63"
						fy="114.36"></radialGradient>
		<radialGradient xlink:href="#R" id="AM" cx="402.42" cy="114.44" r="2.61" fx="402.42"
						fy="114.44"></radialGradient>
		<radialGradient xlink:href="#AG" id="AN" cx="401.53" cy="104.42" r="11.96" fx="401.53"
						fy="104.42"></radialGradient>
		<radialGradient xlink:href="#K" id="AO" cx="391.88" cy="83.99" r=".04" fx="391.88" fy="83.99"></radialGradient>
		<radialGradient xlink:href="#J" id="AP" cx="416.53" cy="126.76" r="32.22" fx="416.53"
						fy="126.76"></radialGradient>
		<radialGradient xlink:href="#R" id="AQ" cx="387.85" cy="127.47" r="23.55" fx="387.85"
						fy="127.47"></radialGradient>
		<radialGradient xlink:href="#F" id="AR" cx="396.92" cy="88.6" r="13.24" fx="396.92" fy="88.6"></radialGradient>
		<radialGradient xlink:href="#G" id="AS" cx="395.71" cy="94.69" r="3.86" fx="395.71" fy="94.69"></radialGradient>
		<radialGradient xlink:href="#AG" id="AT" cx="445.78" cy="-6507.2" r="2.46" fx="445.78" fy="-6507.2"
						gradientTransform="matrix(1.45 0 0 5.47 -252.37 35716.57)"></radialGradient>
		<radialGradient xlink:href="#R" id="AU" cx="446.68" cy="107.42" r="4.23" fx="446.68" fy="107.42"
						gradientTransform="matrix(1.45 0 0 1 -252.37 0)"></radialGradient>
		<radialGradient xlink:href="#J" id="AV" cx="446.13" cy="107.3" r="2.46" fx="446.13" fy="107.3"
						gradientTransform="matrix(1.45 0 0 1 -252.37 0)"></radialGradient>
		<radialGradient xlink:href="#G" id="AW" cx="444.99" cy="104.46" r="2.54" fx="444.99" fy="104.46"
						gradientTransform="matrix(1.45 0 0 1 -252.37 0)"></radialGradient>
		<radialGradient xlink:href="#J" id="AX" cx="394.68" cy="97.5" fx="394.68" fy="97.5"></radialGradient>
		<radialGradient xlink:href="#K" id="AY" cx="446.74" cy="103.68" r="5.44" fx="446.74"
						fy="103.68"></radialGradient>
		<radialGradient xlink:href="#L" id="AZ" cx="447.62" cy="104.28" r="1.24" fx="447.62"
						fy="104.28"></radialGradient>
		<radialGradient xlink:href="#L" id="Aa" cx="443.93" cy="104.3" fx="443.93" fy="104.3"></radialGradient>
		<radialGradient xlink:href="#J" id="Ab" cx="396.37" cy="95.25" r="2.42" fx="396.37" fy="95.25"></radialGradient>
		<radialGradient xlink:href="#J" id="Ac" cx="398.56" cy="96.14" r="2.01" fx="398.56" fy="96.14"></radialGradient>
		<radialGradient xlink:href="#J" id="Ad" cx="390.33" cy="96.23" r="2.18" fx="390.33" fy="96.23"></radialGradient>
		<radialGradient xlink:href="#G" id="Ae" cx="396.37" cy="100.44" r=".85" fx="396.37"
						fy="100.44"></radialGradient>
		<radialGradient xlink:href="#G" id="Af" cx="417.5" cy="102.75" r=".79" fx="417.5" fy="102.75"
						gradientTransform="scale(-1 1) rotate(-3.22 -2.91308393 14494.48220025)"></radialGradient>
		<radialGradient xlink:href="#K" id="Ag" cx="380.52" cy="90.57" r="10.8" fx="380.52" fy="90.57"></radialGradient>
		<radialGradient xlink:href="#G" id="Ah" cx="380.52" cy="103.4" r="3.06" fx="380.52" fy="103.4"></radialGradient>
		<radialGradient xlink:href="#J" id="Ai" cx="379.12" cy="111.19" r="26.9" fx="379.12"
						fy="111.19"></radialGradient>
		<radialGradient xlink:href="#J" id="Aj" cx="381.05" cy="103.85" r="1.92" fx="381.05"
						fy="103.85"></radialGradient>
		<radialGradient xlink:href="#J" id="Ak" cx="382.78" cy="104.55" r="1.59" fx="382.78"
						fy="104.55"></radialGradient>
		<radialGradient xlink:href="#J" id="Al" cx="376.25" cy="104.62" r="1.72" fx="376.25"
						fy="104.62"></radialGradient>
		<radialGradient xlink:href="#G" id="Am" cx="381.03" cy="107.95" r=".67" fx="381.03"
						fy="107.95"></radialGradient>
		<radialGradient xlink:href="#G" id="An" cx="431.43" cy="110.75" r=".63" fx="431.43" fy="110.75"
						gradientTransform="scale(-1 1) rotate(-3.22 -2.91308393 14494.48220025)"></radialGradient>
		<radialGradient xlink:href="#F" id="Ao" cx="438.03" cy="90.7" r="13.05" fx="438.03" fy="90.7"></radialGradient>
		<radialGradient xlink:href="#G" id="Ap" cx="436.22" cy="94.56" r="3.91" fx="436.22" fy="94.56"></radialGradient>
		<radialGradient xlink:href="#AG" id="Aq" cx="475.36" cy="-6507.2" r="2.47" fx="475.36" fy="-6507.2"
						gradientTransform="matrix(1.45 0 0 5.47 -252.37 35716.57)"></radialGradient>
		<radialGradient xlink:href="#R" id="Ar" cx="475.16" cy="107.33" r="4.28" fx="475.16" fy="107.33"
						gradientTransform="matrix(1.45 0 0 1 -252.37 0)"></radialGradient>
		<radialGradient xlink:href="#J" id="As" cx="474.58" cy="107.22" r="2.51" fx="474.58" fy="107.22"
						gradientTransform="matrix(1.45 0 0 1 -252.37 0)"></radialGradient>
		<radialGradient xlink:href="#G" id="At" cx="473.32" cy="104.37" r="2.56" fx="473.32" fy="104.37"
						gradientTransform="matrix(1.45 0 0 1 -252.37 0)"></radialGradient>
		<radialGradient xlink:href="#J" id="Au" cx="435.71" cy="97.38" r="7.89" fx="435.71" fy="97.38"></radialGradient>
		<radialGradient xlink:href="#K" id="Av" cx="475.16" cy="103.58" r="5.46" fx="475.16"
						fy="103.58"></radialGradient>
		<radialGradient xlink:href="#L" id="Aw" cx="476.02" cy="104.19" fx="476.02" fy="104.19"></radialGradient>
		<radialGradient xlink:href="#L" id="Ax" cx="472.17" cy="104.19" fx="472.17" fy="104.19"></radialGradient>
		<radialGradient xlink:href="#J" id="Ay" cx="436.93" cy="95.13" r="2.41" fx="436.93" fy="95.13"></radialGradient>
		<radialGradient xlink:href="#J" id="Az" cx="439.21" cy="96.03" r="2.01" fx="439.21" fy="96.03"></radialGradient>
		<radialGradient xlink:href="#J" id="BA" cx="430.87" cy="96.1" r="2.19" fx="430.87" fy="96.1"></radialGradient>
		<radialGradient xlink:href="#G" id="BB" cx="437.26" cy="100.34" r=".85" fx="437.26"
						fy="100.34"></radialGradient>
		<radialGradient xlink:href="#G" id="BC" cx="376.74" cy="100.34" r=".8" fx="376.74" fy="100.34"
						gradientTransform="scale(-1 1) rotate(-3.22 -2.91308393 14494.48220025)"></radialGradient>
		<radialGradient xlink:href="#J" id="BD" cx="414.71" cy="123.45" r="13.9" fx="414.71"
						fy="123.45"></radialGradient>
		<radialGradient xlink:href="#J" id="BE" cx="416.7" cy="122.08" r="29.54" fx="416.7"
						fy="122.08"></radialGradient>
		<radialGradient xlink:href="#R" id="BF" cx="416.84" cy="124.77" r="26.25" fx="416.84"
						fy="124.77"></radialGradient>
		<radialGradient xlink:href="#CI" id="BG" cx="415.74" cy="144.38" r="10.94" fx="415.74" fy="144.38">
			<stop offset="0" stop-color="#5240b5"></stop>
			<stop offset=".99" stop-color="#2a0086"></stop>
		</radialGradient>
		<radialGradient xlink:href="#G" id="BH" cx="405.33" cy="42.82" r="17.68" fx="405.33"
						fy="42.82"></radialGradient>
		<radialGradient xlink:href="#p" id="BI" cx="411.81" cy="69.38" r="17.74" fx="411.81"
						fy="69.38"></radialGradient>
		<radialGradient xlink:href="#F" id="BJ" cx="412.41" cy="-3751.39" r="10.88" fx="412.41" fy="-3751.39"
						gradientTransform="matrix(1 0 0 1.9 0 7168.73)"></radialGradient>
		<radialGradient xlink:href="#R" id="BK" cx="412.08" cy="69.65" r="22.88" fx="412.08"
						fy="69.65"></radialGradient>
		<radialGradient xlink:href="#J" id="BL" cx="412.53" cy="69.65" r="22.88" fx="412.53"
						fy="69.65"></radialGradient>
		<radialGradient xlink:href="#u" id="BM" cx="412.42" cy="72.16" r="19.16" fx="412.42"
						fy="72.16"></radialGradient>
		<radialGradient xlink:href="#G" id="BN" cx="411.57" cy="73.21" r="17.79" fx="411.57"
						fy="73.21"></radialGradient>
		<radialGradient xlink:href="#J" id="BO" cx="413.18" cy="87.7" r="3.42" fx="413.18" fy="87.7"></radialGradient>
		<radialGradient xlink:href="#R" id="BP" cx="412.86" cy="87.84" r="3.98" fx="412.86" fy="87.84"></radialGradient>
		<radialGradient xlink:href="#AG" id="BQ" cx="411.45" cy="72.44" r="18.38" fx="411.45"
						fy="72.44"></radialGradient>
		<radialGradient xlink:href="#CI" id="BR" cx="402.16" cy="-3072.23" r="9.13" fx="402.16" fy="-3072.23"
						gradientTransform="matrix(1 0 0 1.63 0 5017.55)">
			<stop offset="0" stop-color="#5379e3"></stop>
			<stop offset=".99" stop-color="#3221f0"></stop>
		</radialGradient>
		<radialGradient xlink:href="#G" id="BS" cx="401.28" cy="23.14" r="2.97" fx="401.28" fy="23.14"></radialGradient>
		<radialGradient xlink:href="#H" id="BT" cx="440.08" cy="-6522.61" r="1.02" fx="440.08"
						fy="-6522.61"></radialGradient>
		<radialGradient xlink:href="#J" id="BU" cx="400.49" cy="25.34" r="6.15" fx="400.49" fy="25.34"></radialGradient>
		<radialGradient xlink:href="#J" id="BV" cx="401.78" cy="23.57" r="1.89" fx="401.78" fy="23.57"></radialGradient>
		<radialGradient xlink:href="#J" id="BW" cx="403.46" cy="24.26" r="1.58" fx="403.46" fy="24.26"></radialGradient>
		<radialGradient xlink:href="#J" id="BX" cx="397.16" cy="24.36" r="1.7" fx="397.16" fy="24.36"></radialGradient>
		<radialGradient xlink:href="#G" id="BY" cx="427.44" cy="30.07" r=".62" fx="427.44" fy="30.07"
						gradientTransform="rotate(.64 547.84851628 -2253.75643757)"></radialGradient>
		<radialGradient xlink:href="#R" id="BZ" cx="401.21" cy="33.95" r="3.23" fx="401.21" fy="33.95"></radialGradient>
		<radialGradient xlink:href="#J" id="Ba" cx="450.3" cy="32.88" r="1.94" fx="450.3" fy="32.88"
						gradientTransform="matrix(1.45 0 0 1 -252.37 0)"></radialGradient>
		<radialGradient xlink:href="#J" id="Bb" cx="401.26" cy="34.22" r="1.85" fx="401.26" fy="34.22"></radialGradient>
		<radialGradient xlink:href="#J" id="Bc" cx="403.14" cy="34.95" r="1.77" fx="403.14" fy="34.95"></radialGradient>
		<radialGradient xlink:href="#J" id="Bd" cx="396.81" cy="34.76" r="1.66" fx="396.81" fy="34.76"></radialGradient>
		<radialGradient xlink:href="#J" id="Be" cx="422.73" cy="142.42" r="31.27" fx="422.73"
						fy="142.42"></radialGradient>
		<radialGradient xlink:href="#A" id="Bf" cx="386.23" cy="139.15" r="15.28" fx="386.23"
						fy="139.15"></radialGradient>
		<radialGradient xlink:href="#A" id="Bg" cx="386.23" cy="145.07" r="13.53" fx="386.23"
						fy="145.07"></radialGradient>
		<radialGradient xlink:href="#CI" id="Bh" cx="408.91" cy="11557.87" r="46.15" fx="408.91" fy="11557.87"
						gradientTransform="matrix(1 0 0 .41 0 -4686.72)">
			<stop offset="0" stop-color="#d4ead7"></stop>
			<stop offset="1" stop-color="#c2ddef"></stop>
		</radialGradient>
		<radialGradient xlink:href="#CI" id="Bi" cx="442.86" cy="95.23" r="4.94" fx="442.86" fy="95.23">
			<stop offset="0" stop-color="#93a2ff"></stop>
			<stop offset="1" stop-color="#7587d1"></stop>
		</radialGradient>
		<radialGradient xlink:href="#CI" id="Bj" cx="310.36" cy="11556.1" r="8.37" fx="310.36" fy="11556.1"
						gradientTransform="matrix(.99825016 .05913215 -.02424418 .40928257 288.69 -4688.89)">
			<stop offset="0" stop-color="#d4ead7"></stop>
			<stop offset="1" stop-color="#a4d1ef"></stop>
		</radialGradient>
		<radialGradient xlink:href="#Bj" id="Bk" cx="463.69" cy="11513.61" r="6.68" fx="463.69" fy="11513.61"
						gradientTransform="rotate(-4.11 -64660.07657844 2471.7342615) scale(1 .41)"></radialGradient>
		<linearGradient xlink:href="#CI" id="Bl" x1="414.35" x2="414.35" y1="258.82" y2="137.18">
			<stop offset=".02" stop-color="#dd751a"></stop>
			<stop offset=".24" stop-color="#a3451a"></stop>
			<stop offset="1" stop-color="#c3582d"></stop>
		</linearGradient>
		<linearGradient xlink:href="#CI" id="Bm" x1="389.02" x2="476.53" y1="151.07" y2="151.07">
			<stop offset="0" stop-color="#c77cbd"></stop>
			<stop offset="1" stop-color="#974577"></stop>
		</linearGradient>
		<linearGradient xlink:href="#Bm" id="Bn" x1="364.3" x2="394.32" y1="172.56" y2="172.56"></linearGradient>
		<linearGradient xlink:href="#Bm" id="Bo" x1="398.54" x2="420.08" y1="246.41" y2="246.41"></linearGradient>
		<linearGradient xlink:href="#Bm" id="Bp" x1="352.18" y1="187.22" y2="187.22"></linearGradient>
		<linearGradient xlink:href="#Bm" id="Bq" x1="424.55" x2="466.4" y1="156.88" y2="156.88"></linearGradient>
		<linearGradient xlink:href="#Bm" id="Br" x1="399.63" y1="191.49" y2="191.49"></linearGradient>
		<linearGradient xlink:href="#Bm" id="Bs" x1="421.32" x2="429" y1="210.9" y2="210.9"></linearGradient>
		<linearGradient xlink:href="#Bm" id="Bt" x1="420.08" x2="431.63" y1="226.85" y2="226.85"></linearGradient>
		<linearGradient xlink:href="#Bm" id="Bu" x1="403.87" x2="420.08" y1="246.41" y2="246.41"></linearGradient>
		<linearGradient xlink:href="#Bm" id="Bv" x1="415.22" x2="439.55" y1="154.37" y2="154.37"></linearGradient>
		<linearGradient xlink:href="#Bm" id="Bw" x1="395.8" x2="436.01" y1="175" y2="175"></linearGradient>
		<linearGradient xlink:href="#Bm" id="Bx" x1="425.56" x2="462.84" y1="193.28" y2="193.28"></linearGradient>
		<linearGradient xlink:href="#Bm" id="By" x1="399.63" x2="425.08" y1="203.69" y2="203.69"></linearGradient>
		<linearGradient xlink:href="#Bm" id="Bz" x1="401.32" y1="214.6" y2="214.6"></linearGradient>
		<linearGradient xlink:href="#Bm" id="CA" x1="374.7" x2="394.32" y1="179.4" y2="179.4"></linearGradient>
		<linearGradient xlink:href="#Bm" id="CB" x1="357.57" x2="364.3" y1="151.86" y2="151.86"></linearGradient>
		<linearGradient xlink:href="#Bm" id="CC" x1="394.32" x2="405.27" y1="179.04" y2="179.04"></linearGradient>
		<linearGradient xlink:href="#Bl" id="CD" x1="436.35" x2="436.35" y1="146.05" y2="113.56"></linearGradient>
		<linearGradient xlink:href="#CI" id="CE" x1="406.75" x2="406.75" y1="146.41" y2="123.73">
			<stop offset="0" stop-color="#cf568b"></stop>
			<stop offset="1" stop-color="#fff"></stop>
		</linearGradient>
		<linearGradient xlink:href="#CI" id="CF" x1="388.41" x2="388.41" y1="150.58" y2="127.71">
			<stop offset=".24" stop-color="#a3451a"></stop>
			<stop offset="1" stop-color="#c3582d"></stop>
		</linearGradient>
		<linearGradient xlink:href="#CI" id="CG" x1="414.35" x2="414.35" y1="258.82" y2="7.68">
			<stop offset="0" stop-color="#191e26"></stop>
			<stop offset=".12" stop-color="#252c38"></stop>
			<stop offset=".36" stop-color="#455169"></stop>
			<stop offset=".71" stop-color="#778db6"></stop>
			<stop offset="1" stop-color="#a7c5fe"></stop>
		</linearGradient>
		<linearGradient id="CI" gradientUnits="userSpaceOnUse"></linearGradient>
		<clipPath id="CH">
			<path fill="none" d="M0 0h800v400H0z"></path>
		</clipPath>
	</defs>
	<g clip-path="url(#CH)">
		<g class="K">
			<path fill="url(#Bl)"
				  d="m463.16 160.62-1.16 3.29 14.53 10.82v2.02s-5.73 6.89-13.68 11.24l-3.61.85-10.71 10.5 2.76 1.8-19.73 16.55.95.85-.88 1.16-8.24 10.83-3.3 3.48-2.53 2.67-3.19 18.57-10.49 3.58-4.74-2.59-2 .13 1.41-2.39.99-1.67 1.9-17.62 1.8-1.7-7.21-23.55 3.61-5.41s-8.7-8.48-9.76-10.29c-.8-1.36-2.93-4.41-3.92-5.82l-.53-.75 7.05-4.56 3.77-2.44-1.91-3.82-2.55 2.02-9.65 2.44-3.08 1.7-4.35-1.17-10.39-18.67.57-3.05.17-.88-.74-3.82h-3.29s-4.77-1.72-6.52-5.46l-2.31-10.5s13.37-1.75 16.47-1.75 20.68 2.07 20.68 2.07l-.32-2.07s18.62 1.59 26.09 2.7c7.48 1.11 23.23 3.82 23.23 3.82s28.53-.05 38.19 2.6v1.27l-13.37 13.05z"></path>
			<path fill="url(#Bm)"
				  d="m476.53 147.57-21.32 2.55-19.63 2.02-14.53 2.98h-5.62l-14.53-9.77-9.87-4.88-2.01-3.29 1.91 6.36 24.29 12.52 9.33.95 10.82-.95 6.5 2.65 7.82 4.14 10.71 2.12 1.6-1.06 1.16-3.29 13.37-13.05z"
				  class="G" style="mix-blend-mode:multiply"></path>
			<path fill="url(#Bn)"
				  d="m391.03 177.7 3.29-1.38-2.55 2.02-9.65 2.44-3.08 1.69-4.34-1.17-10.4-18.66 6.26 8.16 6.26 2.23 14.21 4.67z"
				  class="G" style="mix-blend-mode:multiply"></path>
			<path fill="url(#Bo)"
				  d="m420.08 234.01-2.53 2.67-3.2 18.56-10.48 3.58-4.74-2.59-.59-2.27.99-1.67 1.9-17.63 4.25 3.4H408l12.08-4.05z"
				  class="G" style="mix-blend-mode:multiply"></path>
			<path fill="url(#Bp)"
				  d="M476.53 176.75s-5.73 6.89-13.68 11.24l-3.61.85-10.71 10.5-8.06-1.54-14.9 1.5 5.14 1h12.2l8.38.85-19.73 16.55-3.82-.32-4.24 3.29-7 2.55 9.97-1.17 5.17-2.34-8.24 10.83-3.3 3.48-4.02.66-8.7.85-4.14-2.55-7.21-23.55 2.23 2.12 15.12-1.91 9.92-4.46 5.73-4.03h-3.92l-4.14.95-12.2 3.07-7.43 1.06-1.69-2.23s-8.7-8.48-9.76-10.29c-.8-1.36-2.93-4.41-3.92-5.82l6.47 1.48 2.13 1.11 11.14-.8 21.21-5.59-12.53-1.51-11.34.74-8.91-.74h-1.65l3.77-2.44-1.91-3.82-2.44-2.12-17.39-6.15-9.61-8.46.17-.88-.74-3.82h-3.29s-4.77-1.72-6.52-5.46l-2.31-10.5 2.47 4.82 10.66 8.38 29.75 13.58 11.88 3.18 29.06 1.49 16.55 9.86h8.49l15.48-3.5Z"
				  class="G" style="mix-blend-mode:multiply"></path>
			<path fill="url(#Bq)"
				  d="m463.16 160.62-11.67-2.44-7.42-3.06 2.86-2.98 13.26-1.07 6.21-2.29-22.33 2.48-8.49.88-11.03 4.87 10.82-.95 13.26 6.58 11.77 2.33 1.6-1.06 1.16-3.29z"
				  opacity=".2" style="mix-blend-mode:multiply"></path>
			<path fill="url(#Br)"
				  d="m452.55 180.25-5.83 9.76-13.95 6.76-8.22.66 2.33-13.34-20.52 5.41-1.01 12.49-2.86 2.97-2.86-.95 1.69 2.23 7.43-1.06 16.34-4.03.48-1.85 14.9-1.5 8.06 1.54 10.71-10.5 3.61-.85s9.44-5.83 13.68-11.24l-15.48 3.5h-8.49Z"
				  class="G" style="mix-blend-mode:multiply"></path>
			<path fill="url(#Bs)" d="m429 201.14-1.27 16.23-4.24 3.29-2.17-10.45 1.96-5.04 5.72-4.03z" class="G"
				  style="mix-blend-mode:multiply"></path>
			<path fill="url(#Bt)" d="m426.46 222.04-6.38 11.97 4.06-4.48 7.49-9.84-5.17 2.35z" class="G"
				  style="mix-blend-mode:multiply"></path>
			<path fill="url(#Bu)" d="m408 238.06-4.13 20.76 10.48-3.58 3.2-18.56 2.53-2.67-12.08 4.05z" class="G"
				  style="mix-blend-mode:multiply"></path>
			<path fill="url(#Bv)" d="m435.37 156.06 4.18-4.33-3.97.41-14.53 2.98h-5.62l-.21.94 9.33.95 10.82-.95z"
				  class="G" style="mix-blend-mode:multiply"></path>
			<path fill="url(#Bw)"
				  d="m436.01 170.38-9.12 13.71-12.54-1.51-2.37-11.74-5.58-.46-10.6-4.47 11.14 2.98 29.07 1.49z"
				  class="G" style="mix-blend-mode:multiply"></path>
			<path fill="url(#Bx)"
				  d="m446.72 190 11.2-2.78 4.92.77-3.6.85-10.72 10.5-8.06-1.54-14.9 1.5 7.21-2.53 13.95-6.77z" class="G"
				  style="mix-blend-mode:multiply"></path>
			<path fill="url(#By)" d="m405.35 201.99 13.4-.85h6.33L409.44 205l-8.12 1.23-1.69-2.22 2.86.95 2.86-2.97z"
				  class="G" style="mix-blend-mode:multiply"></path>
			<path fill="url(#Bt)" d="m426.46 222.04-6.38 11.97 11.55-14.32-5.17 2.35z" class="G"
				  style="mix-blend-mode:multiply"></path>
			<path fill="url(#Bz)"
				  d="m403.87 258.82 4.13-20.76 4.59-3.06 3.9-11.79-3.13-13.58 9.92-4.46 5.72-4.03h-3.92l-23.76 5.09 4.03-4.24 1.01-12.49 20.53-5.41-12.54-1.51-2.37-11.74 24.03-.46 16.54 9.87h8.49l15.49-3.5-13.69 11.24-3.6.85-10.72 10.5-8.06-1.54-8.83.89 5.4 1.61 14.25.84-19.73 16.55-3.82-.32-5.07 3.51-2.58 1.91 6.38-.75 5.17-2.35-11.55 14.32-2.53 2.67-3.2 18.56-10.48 3.58z"
				  class="G" style="mix-blend-mode:multiply"></path>
			<path fill="#bc833f"
				  d="m386.46 190.23 19.9 3.05 19.49-1.79 13.7-5.75 10.71-1.65 21.2-2.33-3.92 3.26-12.94 2.2-7.22 1.69h-5.13l-16.85 3.83-19.73 5.29-11.35.66-7.86-8.46zm10.27 10.91 8.74-.57 19.33-5.4 15.16-1.89 17.86-3.05-1.56 1.26-14.96 1.79-2.38.5-14.37 2.46-19.2 5.75h-4.83l-2.32.61-1.47-1.46zm1.81 16.53 14.98 1.07 9.74-2.37 5.74-6.19h11.51l-5.11 4.28-6.8-.59-5.4 4.22-7.3 2.57h-16.44l-.92-2.99zm3.78 12.34 10.9 3.08 8.1-1.4 2-.83-1.26 1.06-1.19.64-8.05 1.45-10.2-3.02-.3-.98z"
				  style="mix-blend-mode:soft-light"></path>
			<path fill="#db633b"
				  d="m389.02 137.18 2.01 3.29 9.87 4.88 14.53 9.77h5.62l14.96-3.03 3.54-.36-1.21-8.03-35.18-5.2-14.14-1.32z"
				  class="G"></path>
			<path fill="url(#CA)"
				  d="m391.03 177.7-12.23 1.86-4.1 1.74 4.34 1.17 3.08-1.69 9.65-2.44 2.55-2.02-3.29 1.38z" class="G"
				  style="mix-blend-mode:multiply"></path>
			<path fill="url(#CB)" d="M364.3 154.89v-3.16l-3.2-2.91-.67 5.04-2.86-.87 3.44 1.9h3.29z" class="G"
				  style="mix-blend-mode:multiply"></path>
			<path fill="#c5632f"
				  d="m371.86 155.12 22.46 6.75 13.86 1.9 9.31 5.66-10.55-.54-12.62-2.98-22.46-10.79z"></path>
			<path fill="url(#CC)" d="m396.23 180.14 9.04 1.62-10.95-5.44 1.91 3.82z" class="G"
				  style="mix-blend-mode:multiply"></path>
		</g>
		<path fill="url(#CD)"
			  d="m452.52 146.05-4.44-10.16-1.79-.43-.96.43-3.53-10.43h-.6l-3.44-11.64-1.26-.26-.82 6.2v6.83l-.32.65-1.11-9.91-2.97-1.48-1.06 6.38-.74.42.53 16.44-.56.45-2.95-13.12-2.73-1.1-1.83-.61-1.76 21.25 32.34.09z"></path>
		<path fill="url(#A)"
			  d="m450.51 145.83-3.31-.43-.91-9.94-.96.43-1.7 3.2h-.97l-1.99-11.31 1.13-2.32h-.6l-2.96 3.53-.6-.05-1.29-11.71.15-3.67-.82 6.2v6.83l-.32.65v14.37l-1.39 1.69-2.8-18.59.41-7.8-.3-1.06-1.06 6.38 1.05 5.92.52 9.72-1.38 1.22-.93-16.44.53 16.44-.56.45-.77 2.3-2.24 1.22-3.65-18.07-.85-.28-1.76 21.25 21.76.06 10.58.03-2.01-.22z"
			  class="G" style="mix-blend-mode:multiply"></path>
		<path fill="url(#B)"
			  d="m440.67 127.78-2.43 1.21v5.21l.78.55 1.65 11.26h2.38l9.47.04-5.32-.65-.91-9.94-.96.43-1.7 3.2h-.97l-1.99-11.31z"
			  class="G" style="mix-blend-mode:multiply"></path>
		<path fill="url(#C)"
			  d="m436.35 117.23 1.29 11.71.6.05v5.21l-2.16 4.13-.69 7.67h-1.76l.34-2.7 1.39-1.69v-14.37l.32-.65v-6.83l.67-2.53z"
			  class="G" style="mix-blend-mode:multiply"></path>
		<path fill="url(#D)" d="m431.17 124.71-.21 1.66.31 1.78.52 9.72.84 7.62 1 .51.34-2.7-2.8-18.59z" class="G"
			  style="mix-blend-mode:multiply"></path>
		<path fill="url(#E)" d="m430.41 139.09-.69.98.69 5.42-3.97-.21v-2.22l2.24-1.22.77-2.3.56-.45h.4z" class="G"
			  style="mix-blend-mode:multiply"></path>
		<g class="L">
			<path d="m449.48 139.09-2.91-.58.1 1.11 3.24.45-.43-.98zm1.4 3.2-4.12-1.72.03.33 4.24 1.74-.15-.35z"
				  opacity=".2" style="mix-blend-mode:multiply"></path>
			<path d="m442.75 128.27-1.02 5.52.51 2.85 1.32-5.98-.81-2.39zm-4.04-11.26-2.05 3.08.72 6.5 2.87-4.36-1.54-5.22zm-7.13 10.44 3.38-3.72.4 3.51-2.52 8.54-1.26-8.33z"
				  class="A G"></path>
		</g>
		<g class="K">
			<path fill="url(#F)"
				  d="m393.38 53.66-2.16-2.1c-1.42-5.24-2.67-11.09-3.56-18.43-1.27 7.24-2.27 13.91-4.02 18.43l-1.55 2.42s4.77-2.96 11.3-.32Z"></path>
			<path fill="url(#G)" d="M382.08 53.98s5.24-3.19 11.3-.32c0 0-5.32 2.44-11.3.32Z"></path>
			<path fill="url(#H)" d="m390.56 67.58-.53 59.09h-9.17l2.55-59.1c3.73-1 7.15 0 7.15 0z"></path>
			<path fill="url(#I)"
				  d="m390.6 62.46-1.71-.13-.62.76.36.59-.25-1.98-2.21.02-.31 1.55.03-.46.23-.45-1.68.26-.31 1.97 6.27.41.2-2.54z"></path>
			<path fill="url(#J)" d="m383.51 65.58.48-11.07s3.61-1.72 6.65-.27l-.25 10.75-6.89.59Z"></path>
			<path fill="url(#K)"
				  d="m382.42 65.92.36-2.97s.65-.92 1.53-1.23l-.05 2.69 1.16-.26.12-2.85s1.34-.66 3.15-.04l-.06 2.93 1.32.17.27-2.68s.85.29 1.31 1.14l-.02 3.04s-2.86-1.91-9.11.05Z"></path>
			<path fill="url(#L)" d="m390.23 61.69-.53.23-.21 2.39.47.06.27-2.68z"></path>
			<path fill="url(#M)" d="m384.31 61.73.5.3-.1 2.28-.44.1.04-2.68z"></path>
			<g class="F">
				<path d="m384 54.52-1.1-.67s5.58-2.42 9.2-.06l-1.45.45s-2.79-1.28-6.65.27Z"></path>
				<path d="m382.9 53.85 1 2.88.13-2.32-1.13-.56zm5.18-1.09-.12 3.69 1.3-3.63-1.17-.06z"></path>
			</g>
			<path fill="url(#N)" d="M387.95 56.44h.73l1.74-3.4s-.49-.16-1.18-.23l-1.3 3.63Z"></path>
			<path d="m392.1 53.79-1.5 2.64.05-2.19 1.45-.45z" class="F"></path>
			<path fill="url(#O)" d="m390.6 56.43-.01.44 1.67-2.79-.16-.29-1.5 2.64z"></path>
			<path fill="url(#P)" d="m382.9 53.85-.12.36 1.1 3.03.02-.51-1-2.88z"></path>
			<path d="M384.83 61s0-2.37-.32-2.58-.5 2.87-.5 2.87l.82-.29Z" class="F"></path>
			<path fill="url(#Q)" d="M384.43 61.15s-.13-1.78.28-2.18c0 0 .14 1 .13 2.04l-.41.15Z"></path>
			<path d="m382.08 53.98 1.55-2.42s3.57-2.09 7.58 0l2.16 2.1s-5.86-3.03-11.3.32Z" class="C J"></path>
			<path fill="url(#R)" d="m382.41 67.24.96 1.27s3.6-1.48 7.19-.24l.96-.9s-2.9-2.29-9.11-.13Z"></path>
			<path fill="url(#S)" d="M382.41 67.24s5.24-2.01 9.11.13v-1.49s-3.69-2.23-9.1.05v1.31Z"></path>
			<path d="m382.41 67.24.87 3.22.09-1.95-.96-1.27zm5.08-.84-.03 3.36.78-3.34-.75-.02zm4.03.97-.98 3.53.02-2.64.96-.89z"
				  class="F"></path>
			<path fill="url(#T)" d="m388.24 66.42 1.29.2-.99 3.39-1.08-.25.78-3.34z"></path>
			<path fill="url(#U)" d="m390.54 70.9.01-.9.97-2.63-.98 3.53z"></path>
			<path fill="url(#V)" d="m383.28 70.46-.87-3.22.26-.1.64 2.64-.03.68z"></path>
			<path d="m382.41 67.24.87 3.23v1.59s4.34-2.19 7.26-.56v-.59l.98-3.54s-2.84-2.16-9.11-.13Z"
				  class="D H I"></path>
			<path d="M389.97 100.81s.5-27.19-.4-28.01c-.9-.83-1.28 27.96-1.28 27.96l1.68.06Z" class="F"></path>
			<path fill="#44419f" d="m390.42 82.56-8 7.9-1.56 36.21h9.17l.39-44.11z" class="E" opacity=".8"></path>
			<path d="m382.78 54.21 1.1 3.03-.03.6s4.26-1.58 6.74-.97l1.67-2.79 1.13-.41s-5.11-3.01-11.3.32l.7.23Z"
				  class="D H I"></path>
			<path d="M382.58 100.81s.56-27.17 1.49-27.98c.93-.8.2 27.97.2 27.97h-1.68zm2.51-.01s.85-28.29 1.91-28.77.48 28.76.48 28.76h-2.39z"
				  class="F"></path>
			<path fill="url(#W)" d="M383.04 100.81s.32-24.83 1.26-27.38c0 0 .57 9.19-.04 27.37h-1.22Z"></path>
			<path fill="url(#X)" d="M389.51 100.8s.65-24.84-.19-27.41c0 0-.92 9.18-1.03 27.37l1.22.04Z"></path>
			<path fill="url(#Y)" d="M385.09 100.8s.96-27.36 1.83-27.38c.69-.02.26 27.38.26 27.38h-2.09Z"></path>
			<path fill="url(#Z)"
				  d="m434.64 61.39-2.2-2.11c-1.49-5.26-2.81-11.12-3.79-18.49-1.19 7.26-2.11 13.94-3.81 18.48l-1.53 2.43s4.74-2.97 11.33-.32Z"></path>
			<path fill="url(#a)" d="M423.31 61.71s5.22-3.2 11.33-.32c0 0-5.3 2.45-11.33.32Z"></path>
			<path fill="url(#b)" d="m431.98 75.34.19 59.26h-9.19l1.84-59.27c3.72-1 7.17.01 7.17.01z"></path>
			<path fill="url(#c)" d="m424.89 73.34.35-11.1s3.59-1.72 6.66-.27l-.17 11.34-6.85.03Z"></path>
			<g class="F">
				<path d="m425.24 62.24-1.11-.67s5.56-2.43 9.22-.05l-1.45.45s-2.81-1.29-6.66.27Z"></path>
				<path d="m424.13 61.57 1.04 2.89.1-2.32-1.14-.57zm5.18-1.09-.08 3.7 1.25-3.64-1.17-.06z"></path>
			</g>
			<path fill="url(#d)" d="M429.23 64.18h.74l1.7-3.41s-.49-.16-1.18-.23l-1.25 3.64Z"></path>
			<path d="m433.35 61.52-1.47 2.64.02-2.19 1.45-.45z" class="F"></path>
			<path fill="url(#e)" d="M431.88 64.16v.44l1.63-2.8-.16-.28-1.47 2.64z"></path>
			<path fill="url(#f)" d="m424.13 61.57-.11.37 1.13 3.03.02-.51-1.04-2.89z"></path>
			<path d="M426.16 68.75s-.04-2.38-.35-2.59-.47 2.88-.47 2.88l.81-.29z" class="F"></path>
			<path fill="url(#g)" d="M425.75 68.89s-.16-1.79.25-2.19c0 0 .15 1.01.15 2.04l-.41.15Z"></path>
			<path d="m423.31 61.71 1.53-2.43s3.56-2.1 7.6 0l2.2 2.11s-5.91-3.04-11.33.32Z" class="C J"></path>
			<path fill="url(#h)" d="m423.8 74.99.98 1.27s3.59-1.48 7.21-.24l.95-.9s-2.94-2.3-9.14-.14Z"></path>
			<path fill="url(#i)" d="M423.8 74.99s5.22-2.01 9.14.14v-1.5s-3.74-2.24-9.14.04v1.32Z"></path>
			<path d="m423.8 74.99.91 3.24.07-1.96-.98-1.28zm5.08-.83.02 3.37.74-3.35-.76-.02zm4.06.97-.94 3.55-.02-2.65.96-.9z"
				  class="F"></path>
			<path fill="url(#j)" d="m429.64 74.18 1.3.2-.96 3.4-1.08-.25.74-3.35z"></path>
			<path fill="url(#k)" d="m432 78.68-.01-.9.95-2.65-.94 3.55z"></path>
			<path fill="url(#l)" d="m424.71 78.23-.91-3.24.26-.09.67 2.65-.02.68z"></path>
			<path d="m423.8 74.99.91 3.24v1.59s4.35-2.19 7.29-.56v-.59l.93-3.55s-2.87-2.17-9.14-.14Zm.22-13.05 1.14 3.04-.02.6s4.25-1.58 6.74-.97l1.64-2.8 1.12-.41s-5.16-3.02-11.33.32l.71.23Z"
				  class="D H I"></path>
			<path fill="url(#m)"
				  d="M395.13 53.05h-1.74l4.57-5.45s7.11-12.78 11.02-28.19l-3.33 25.97-3 2.19-7.52 5.48Z"></path>
			<path fill="url(#n)"
				  d="M408.97 19.41s5 14.64 9.8 25.18l5.02 3.95-21.91-1.86 1.66-1.86s2.52-9.7 5.42-25.41Z"></path>
			<path fill="url(#o)" d="m423.79 48.54-8.59 5.57-21.82-1.05 8.51-6.38 21.9 1.86z"></path>
			<path d="m397.57 54.94-2.44-1.89 7.52-5.48 18.51.99-2.34 2.32-15.49-.31-5.76 4.37z" class="F"></path>
			<path fill="#817fff" d="m403.46 49.89 15.36.99 1.12 29.58-17.98-1.13 1.5-29.44z"></path>
			<path d="m396.03 79.82 1.54-24.88 5.89-5.05-.98 29.39-6.45.54z" class="F"></path>
			<path fill="url(#p)" d="m394.7 135.58 1.27-42.98 29.91-.1.68 43.55-31.86-.47z"></path>
			<path d="m394.7 135.58-8.91.01 1.71-42.95 8.47-.04-1.27 42.98z" class="F"></path>
			<path fill="url(#q)"
				  d="M423.1 80.66c1.07 5.29 1.5 7.75 3.98 11.84l3.29 1.31-36.32.13 1.92-1.85 3.18-12.93 23.94 1.5Z"></path>
			<path fill="url(#r)"
				  d="m384.13 93.96 2.7-2.12c2.47-3.86 3.3-5.91 4.65-11.05l7.67-1.65c-.66 5.27-1.73 9.14-3.18 12.93l-1.92 1.85-9.92.03Z"></path>
			<path fill="url(#s)"
				  d="m428.85 93.81.01 1.71-2.89 1.99-29.28.09-9.4-.4-1.45-2.23-.19-1.01 9.27-.03 33.93-.12z"></path>
			<path fill="url(#t)" d="m428.86 95.52-33.45-.03-.49-1.56 33.93-.12.01 1.71z"></path>
			<path fill="url(#u)"
				  d="m394.02 135.53-5.86.04h-1.73c1.1-19.49 4.74-33.76 4.74-33.76.33 1.13.62 2.38.88 3.7 2.31 11.77 1.97 30.02 1.97 30.02Z"></path>
			<path fill="url(#v)"
				  d="m394.02 135.53-5.86.04c.76-13.57 2.76-24.6 3.89-30.06 2.31 11.77 1.97 30.02 1.97 30.02Z"></path>
			<path d="M403.23 135.69s2.06-25.57 6.21-35.23l2.67-1.59s-4.41 12.85-8.31 36.82h-.56Z" class="F"></path>
			<path fill="url(#w)" d="M412.11 98.88s6.48 12.38 7.47 37.06l-15.79-.25s2.35-27.13 8.31-36.82Z"></path>
			<path fill="url(#x)" d="M418.98 135.94s-.7-23.05-6.65-34.19c0 0-5.75 14.41-7.49 33.94l14.14.25Z"></path>
			<path fill="url(#y)" d="M418.12 135.84s-.39-24.48-6.42-32.38c0 0-5.35 13.96-6.86 32.23l13.28.15Z"></path>
			<path fill="url(#z)"
				  d="m414.68 135.85-9.84-.15c.64-6.17 1.5-11.4 2.32-15.5 1.29-6.53 2.47-10.18 2.47-10.18.54.79 1.02 1.84 1.45 3.08 2.75 7.79 3.59 22.75 3.59 22.75Z"></path>
			<path fill="#44419f" d="m403.35 91.95-4.19-12.8 4.95.31-.76 12.49z" class="E" opacity=".8"></path>
			<path fill="url(#AA)"
				  d="M424.07 114.24h.27s.36-7.7-2.18-14.11l-.37.32s-2.63 4.83-3.02 14.28l5.31-.49Z"></path>
			<path fill="url(#AB)" d="M424.38 114.24h.27s.11-7.67-2.49-14.11c0 0-2.7 5.15-3.09 14.6l5.31-.49Z"></path>
			<path fill="url(#AC)"
				  d="m424.38 114.37-.82-.02-4.14-.1c.33-6.5 1.57-9.86 2.26-11.26.29-.58.48-.83.48-.83 2.19 4.95 2.22 12.22 2.22 12.22Z"></path>
			<path fill="url(#AD)"
				  d="m423.57 114.35-4.14-.1c.33-6.5 1.57-9.86 2.26-11.26 1.8 4.72 1.88 10.95 1.88 11.37Z"></path>
		</g>
		<path fill="url(#AE)" d="M419.42 114.24h5.69v.48h-5.69z" transform="rotate(359.88 420.049 115.032)"></path>
		<g class="K">
			<path fill="url(#AF)" d="m425.12 114.71-.74.45-5.62-.05v-.38l.66-.48v.47l5.7-.01z"></path>
			<path fill="url(#AG)"
				  d="M421.08 104.46s.8 1.8.48 9.79h.1s.19-7.8.99-9.79l-.64-2.05s-.6 1.04-.93 2.05Z"></path>
			<path fill="url(#AH)"
				  d="M403.4 114.28h.27s.4-7.69-2.1-14.09l-.38.32s-2.66 4.82-3.11 14.26l5.31-.49Z"></path>
			<path fill="url(#AI)" d="M403.71 114.28h.27s.15-7.66-2.4-14.09c0 0-2.73 5.15-3.18 14.58l5.31-.49Z"></path>
			<path fill="url(#AJ)"
				  d="m403.71 114.42-.82-.02-4.14-.1c.37-6.5 1.63-9.85 2.33-11.25.29-.58.48-.82.48-.82 2.16 4.94 2.14 12.2 2.14 12.2Z"></path>
			<path fill="url(#AK)"
				  d="m402.89 114.4-4.14-.1c.37-6.5 1.63-9.85 2.33-11.25 1.77 4.72 1.81 10.93 1.81 11.35Z"></path>
			<path fill="url(#AL)" d="M398.75 114.29v.48l5.69-.01v-.48l-5.69.01z"></path>
			<path fill="url(#AM)" d="m404.44 114.76-.74.44-5.62-.05v-.38l.67-.48v.48l5.69-.01z"></path>
			<path fill="url(#AN)"
				  d="M400.46 104.51s.79 1.8.42 9.77h.1s.23-7.79 1.05-9.78l-.63-2.04s-.6 1.03-.94 2.05Z"></path>
			<path d="m428.86 95.52-2.89 1.99.01 1.32-30.36 2.75-8.59 3.04.26-7.42-1.45-2.23-.19-1.01 9.27-.03.49 1.56 33.45.03z"
				  class="D H I"></path>
			<path fill="url(#AO)" d="M391.89 83.98s-.03.02-.05.03.03-.02.05-.03Z"></path>
			<path fill="url(#AP)" d="m379.06 124 55.32-1.13.14 23.36-56.73.12 1.27-22.35z"></path>
			<path fill="url(#AQ)" d="m392.53 123.73-.64 22.51-14.1.11 1.27-22.35 13.47-.27z"></path>
			<path fill="url(#AR)"
				  d="m400.39 95.5-2.2-2.11c-1.45-5.25-2.73-11.1-3.65-18.45-1.27 7.24-2.27 13.91-4.03 18.43l-1.57 2.42s4.82-2.95 11.44-.29Z"></path>
			<path fill="url(#AS)" d="M388.94 95.79s5.3-3.18 11.44-.29c0 0-5.38 2.43-11.44.29Z"></path>
			<path fill="url(#AT)"
				  d="m395.58 110.32-.04 1.38-.8 34.57-4.42-.02 1.13-32.47.16-3.45s.01 0 .04-.01c2.38-.99 3.87-.04 3.93 0Z"></path>
			<path fill="url(#AU)"
				  d="m398.12 107.5-.22 1.87c-2.25.28-2.31.95-2.31.95-2.06-.64-3.68-.1-3.93 0-.02 0-.04.01-.04.01-.61-.92-2.3-1.28-2.3-1.28v-1.31l.74-.23c.06-.02.12-.04.18-.05.06-.02.12-.03.18-.05h.01l.25-.07c4.5-1.14 7.19.05 7.42.16h.02z"></path>
			<path fill="url(#AV)" d="M389.31 109.05s3.95-1.38 8.58.32l.22-1.87s-3.67-1.53-8.8.23v1.31Z"></path>
			<path fill="url(#AW)"
				  d="m397.59 104.29-1.73-.13-.62.76.36.59-.26-1.98-2.24.01-.31 1.55.04-.46.22-.46-1.7.26-.3 1.98 6.34.42.2-2.54z"></path>
			<path fill="url(#AX)" d="m390.42 107.4.47-11.07s3.65-1.71 6.73-.25l-.23 10.76-6.97.57Z"></path>
			<path fill="url(#AY)"
				  d="m389.32 107.73.36-2.97s.66-.92 1.55-1.23l-.04 2.69 1.18-.26.12-2.85s1.61-.58 3.44.05l-.3 2.86 1.33.17.27-2.68s.78.24 1.02 1.1l-.12 2.87s-3.95-1.29-8.8.23Z"></path>
			<path fill="url(#AZ)" d="m397.22 103.52-.54.23-.21 2.39.48.06.27-2.68z"></path>
			<path fill="url(#Aa)" d="m391.22 103.54.51.31-.1 2.28-.45.1.04-2.69z"></path>
			<path d="M397.89 109.37c-2.25.28-2.31.95-2.31.95l-.04 1.38c-1.87.45-3.45 1.57-4.09 2.08l.16-3.45c-.61-.92-2.3-1.28-2.3-1.28 3.68-.92 6.68-.27 7.94.1h.02c.02 0 .04.01.06.02l.52.18h.02z"
				  class="D H I"></path>
			<g class="F">
				<path d="m390.89 96.32-1.11-.67s5.64-2.41 9.31-.03l-1.47.45s-2.82-1.29-6.73.25Z"></path>
				<path d="m389.78 95.66 1.02 2.88.12-2.32-1.14-.56zm5.23-1.08-.12 3.69 1.3-3.63-1.18-.06z"></path>
			</g>
			<path fill="url(#Ab)" d="M394.9 98.27h.74l1.75-3.39s-.5-.16-1.19-.23l-1.3 3.63Z"></path>
			<path d="m399.09 95.62-1.51 2.64.04-2.19 1.47-.45z" class="F"></path>
			<path fill="url(#Ac)" d="m397.58 98.26-.01.44 1.68-2.79-.16-.29-1.51 2.64z"></path>
			<path fill="url(#Ad)" d="m389.78 95.66-.12.36 1.11 3.03.03-.51-1.02-2.88z"></path>
			<path d="M396.12 101.43s.16-2.53.5-2.73.36 3.1.36 3.1l-.86-.36z" class="F"></path>
			<path fill="url(#Ae)" d="M396.55 101.61s.25-1.89-.17-2.35c0 0-.22 1.06-.26 2.16l.43.18Z"></path>
			<path d="M391.75 102.82s-.01-2.37-.32-2.58-.5 2.87-.5 2.87l.82-.29z" class="F"></path>
			<path fill="url(#Af)" d="M391.34 102.96s-.14-1.78.28-2.18c0 0 .15 1 .13 2.04l-.41.14Z"></path>
			<path d="m389.66 96.02 1.12 3.03-.03.6s4.3-1.56 6.82-.95l1.68-2.79 1.14-.41s-5.18-3.03-11.44.29l.71.23Z"
				  class="D H I"></path>
			<path d="m388.94 95.79 1.57-2.42s3.61-2.08 7.68.02l2.2 2.11s-5.93-3.05-11.44.29Z" class="C J"></path>
			<path fill="url(#Ag)"
				  d="m384.23 104.04-1.74-1.67c-1.24-4.16-1.96-8.8-2.83-14.6-.87 5.69-1.96 10.04-3.26 14.57l-1.25 1.91s3.84-2.33 9.08-.22Z"></path>
			<path fill="url(#Ah)" d="M375.15 104.27s4.22-2.51 9.08-.22c0 0-4.28 1.92-9.08.22Z"></path>
			<path fill="url(#Ai)" d="m374.9 146.41 1.8-41.71s2.9-1.35 5.34-.2l-.86 41.84-6.28.07Z"></path>
			<g class="F">
				<path d="m376.69 104.69-.88-.53s4.48-1.9 7.39-.02l-1.17.35s-2.24-1.02-5.34.2Z"></path>
				<path d="m375.81 104.16.8 2.28.11-1.83-.91-.45zm4.16-.85-.11 2.92 1.05-2.87-.94-.05z"></path>
			</g>
			<path fill="url(#Aj)" d="M379.87 106.23h.59l1.4-2.68s-.39-.13-.95-.18l-1.05 2.87Z"></path>
			<path d="m383.21 104.14-1.22 2.08.05-1.73 1.17-.35z" class="F"></path>
			<path fill="url(#Ak)" d="m381.99 106.22-.01.35 1.35-2.2-.12-.23-1.22 2.08z"></path>
			<path fill="url(#Al)" d="m375.81 104.16-.09.29.87 2.4.02-.41-.8-2.28z"></path>
			<path d="M380.83 108.73s.13-2 .41-2.16c.27-.16.28 2.45.28 2.45l-.68-.29Z" class="F"></path>
			<path fill="url(#Am)" d="M381.17 108.88s.21-1.5-.12-1.86c0 0-.17.84-.22 1.71l.34.14Z"></path>
			<path d="M377.35 109.83s0-1.88-.25-2.04c-.25-.17-.41 2.27-.41 2.27l.66-.23Z" class="F"></path>
			<path fill="url(#An)" d="M377.03 109.94s-.1-1.41.23-1.73c0 0 .11.79.1 1.61l-.33.11Z"></path>
			<path d="m375.72 104.45.88 2.4-.02.47s3.42-1.24 5.41-.75l1.34-2.2.9-.32s-4.1-2.4-9.08.22l.56.18Z"
				  class="D H I"></path>
			<path d="m375.15 104.27 1.25-1.91s2.88-1.65 6.09.02l1.74 1.67s-4.7-2.41-9.08.22Z" class="C J"></path>
			<path d="m383.33 104.37.9-.32-1.74-1.67c-1.19-4.18-2.03-8.84-2.83-14.6-1.08 5.69-1.94 10.66-3.26 14.57l-1.25 1.91c.17.06.34.12.52.17l.05.02.88 2.4-.02.47s.01 0 .03-.01l-1.71 39.1 6.28-.07.81-39.77 1.34-2.2zm-8.09-.15a4.62 4.62 0 0 1 .32-.16 4.87 4.87 0 0 0-.35.18s.02-.01.03-.02z"
				  class="D H I"></path>
			<path fill="url(#Ao)"
				  d="m440.96 95.38-2.38-2.12c-2-5.19-3.64-11.32-4.85-18.52-.65 6.95-1.4 13.25-2.92 18.48l-1.46 2.42s4.72-2.95 11.6-.27Z"></path>
			<path fill="url(#Ap)" d="M429.36 95.65s5.19-3.18 11.6-.27c0 0-5.31 2.42-11.6.27Z"></path>
			<path fill="url(#Aq)"
				  d="m437.05 110.24.05 1.39 1.49 34.68-5.4-.05-.23-32.56-.03-3.46s.01 0 .04-.01c2.41-.98 4.03-.02 4.09.02Z"></path>
			<path fill="url(#Ar)"
				  d="m439.5 107.43-.1 1.87c-2.32.27-2.34.95-2.34.95-2.18-.65-3.83-.11-4.09-.02-.02 0-.04.01-.04.01-.69-.92-2.46-1.29-2.46-1.29l-.06-1.32.75-.23c.06-.02.12-.04.18-.05.06-.02.12-.03.18-.05h.01l.26-.06c4.59-1.13 7.44.08 7.69.19h.02z"></path>
			<path fill="url(#As)" d="M430.46 108.95s4.01-1.37 8.94.35l.1-1.87s-3.9-1.55-9.1.2l.06 1.32Z"></path>
			<path fill="url(#At)"
				  d="m438.73 104.2-1.79-.13-.6.75.42.6-.4-1.99h-2.3l-.23 1.56.01-.46.21-.46-1.74.25-.2 1.99 6.59.44.03-2.55z"></path>
			<path fill="url(#Au)" d="m431.52 107.3-.16-11.1s3.6-1.7 6.83-.24l.51 10.8-7.18.55Z"></path>
			<path fill="url(#Av)"
				  d="m430.39 107.63.21-2.97s.63-.92 1.52-1.22l.12 2.7 1.2-.26-.05-2.86s1.62-.57 3.54.06l-.12 2.87 1.39.18.1-2.69s.82.24 1.13 1.11l.08 2.88s-4.17-1.31-9.1.2Z"></path>
			<path fill="url(#Aw)" d="m438.29 103.43-.53.22-.06 2.41.5.06.09-2.69z"></path>
			<path fill="url(#Ax)" d="m432.12 103.43.55.31.03 2.29-.46.1-.12-2.7z"></path>
			<path d="M439.39 109.3c-2.32.27-2.34.95-2.34.95l.05 1.39c-1.92.45-3.5 1.57-4.15 2.07l-.03-3.46c-.69-.92-2.46-1.29-2.46-1.29 3.76-.91 6.92-.25 8.25.13h.03c.02 0 .05.01.07.02l.55.18h.03z"
				  class="D H I"></path>
			<g class="F">
				<path d="m431.37 96.19-1.17-.67s5.57-2.41 9.46-.01l-1.46.45s-2.95-1.3-6.83.24Z"></path>
				<path d="m430.2 95.52 1.2 2.89-.01-2.32-1.19-.57zm5.25-1.07.12 3.7 1.09-3.64-1.21-.07z"></path>
			</g>
			<path fill="url(#Ay)" d="M435.56 98.15h.76l1.56-3.4s-.52-.16-1.23-.24l-1.09 3.64Z"></path>
			<path d="m439.66 95.51-1.36 2.64-.1-2.2 1.46-.44z" class="F"></path>
			<path fill="url(#Az)" d="m438.3 98.15.02.44 1.52-2.8-.18-.28-1.36 2.64z"></path>
			<path fill="url(#BA)" d="m430.2 95.52-.11.36 1.31 3.05v-.52l-1.2-2.89z"></path>
			<path d="M437.03 101.33s0-2.54.33-2.74c.34-.2.58 3.11.58 3.11l-.91-.37Z" class="F"></path>
			<path fill="url(#BB)" d="M437.48 101.51s.13-1.9-.33-2.36c0 0-.15 1.06-.13 2.17l.45.18Z"></path>
			<path d="M432.62 102.71s-.15-2.38-.49-2.59c-.33-.21-.35 2.88-.35 2.88l.83-.29Z" class="F"></path>
			<path fill="url(#BC)" d="M432.21 102.85s-.25-1.79.16-2.19c0 0 .21 1.01.26 2.05l-.42.14Z"></path>
			<path d="m430.09 95.88 1.31 3.04v.6s4.31-1.56 6.92-.94l1.52-2.8 1.13-.41s-5.46-3.05-11.6.27l.74.23Z"
				  class="D H I"></path>
			<path d="m429.36 95.65 1.46-2.42s3.53-2.08 7.77.04l2.38 2.12s-6.22-3.07-11.6.27Z" class="C J"></path>
			<path fill="url(#BD)" d="m433.95 121.96.35 1.75-1.26 1.3-37.91.05.01-3.23 38.81.13z"></path>
			<g class="I">
				<path d="m434.3 123.71-39.17.34v1.01l37.91-.05 1.26-1.3z" class="D H"></path>
				<path d="m434.3 123.71-1.25 2.39-37.97.56.05-2.61 39.17-.34z" class="D H"></path>
			</g>
			<path fill="url(#CE)"
				  d="m433.19 146.26-.09-14.49-2.72-.01-.13 9.03-.66 1.78.35-7.97-5.95-1.99-1.01 2.4.01 5.4 1.03 1.41v.94l-1.02.66-2.92.94-.33-5.34-8.83-5-4.28 1.54-1.81 3.46 1.32 4.12-1.33 1.88.01-4.51-3.39-1.49-2.21 1.97-1.86 2.62.04 1.41-1.69-.09.48-6.48-1.13-6.66-.39 8.73-2.26 1.88-1.19.18-.69-3.55.4-15.25-1.45-.05-1.44 11.31-2.29 5.29-2.38 2.91-.69-.94-.43-4.78-.89.94-1.32 3.38-2.23 1.78-2.75-1.13-.17 3.92 63.69-.1-.23-7.69-1.38 2.92-2.44.47-1.35 4.25z"
				  opacity=".2" style="mix-blend-mode:multiply"></path>
			<path d="m415.31 117.28-1.6.88s-1.76 2.02-2.38 3.72h.5s-2.07 11.51-2.23 24.41l.51-.02s2.09-24.11 5.2-29Z"
				  class="F"></path>
			<path fill="url(#BE)" d="M419.76 146.14s.34-20.31-4.45-28.86c0 0-4.67 9.15-5.2 29l9.65-.14Z"></path>
			<path fill="url(#BF)" d="M411.1 146.23s.59-18.16 4.18-25.73c0 0 4.19 9.57 4.22 25.77l-8.4-.04Z"></path>
			<path fill="url(#BG)" d="M414.74 121.8s3.9 8.58 3.93 24.32l-7.56.12s.59-16.44 3.63-24.44Z"></path>
			<path d="m423.79 48.54-5.02-3.96-15.22.24-1.66 1.86 21.9 1.86z" class="C J"></path>
			<path fill="url(#BH)"
				  d="M410.22 46.79V33.74c-3.14 11.47-5.62 21.89-8.66 29.36l-2.35 2.5 2.62.39 2.88-3.31 13.4.94-1.33 2.03 4.42-2.19-7.25-2.36-3.73-14.3Z"></path>
			<path fill="url(#BI)" d="m403.35 91.95 14.31-.05-.88-26.25-11.79-.86-1.64 27.16z"></path>
			<g class="F">
				<path d="m403.35 91.95-1.39-12.62.92-12.02 2.11-2.52-1.64 27.16z"></path>
				<path d="m402.88 67.31-1.05-1.32 2.88-3.31 13.4.94-1.33 2.03-11.79-.86-2.11 2.52z"></path>
			</g>
			<path fill="url(#BJ)"
				  d="m421.2 63.45-3.68-2.59c-3.07-8.33-5.4-16.75-7.29-27.12-1.74 10.4-3.46 19.96-4.98 26.54l-.93 1.69 16.88 1.48Z"></path>
			<path fill="url(#BK)"
				  d="M414.35 87.58h.41s.57-11.82-3.26-21.64l-.57.49s-4.03 7.42-4.68 21.91l8.09-.76Z"></path>
			<path fill="url(#BL)" d="M414.81 87.58h.41s.2-11.77-3.73-21.64c0 0-4.13 7.91-4.78 22.41l8.09-.76Z"></path>
			<path fill="url(#BM)"
				  d="m414.82 87.79-1.24-.03-6.31-.15c.54-9.98 2.45-15.13 3.5-17.29.44-.89.73-1.27.73-1.27 3.31 7.58 3.32 18.74 3.32 18.74Z"></path>
			<path fill="url(#BN)"
				  d="m413.57 87.76-6.31-.15c.54-9.98 2.45-15.13 3.5-17.29 2.71 7.24 2.8 16.8 2.81 17.44Z"></path>
			<path fill="url(#BO)" d="M407.26 87.61v.73l8.68-.03-.01-.73-8.67.03z"></path>
			<path fill="url(#BP)" d="m415.94 88.31-1.12.69-8.57-.06v-.59l1.01-.74v.73l8.68-.03z"></path>
			<path fill="url(#BQ)"
				  d="M409.83 72.58s1.21 2.76.68 15.01h.15s.32-11.96 1.55-15.03l-.96-3.14s-.91 1.59-1.42 3.15Z"></path>
			<path d="m405.24 60.29 12.28.58 3.68 2.58-16.88-1.47.92-1.69z" class="C J"></path>
			<path d="m418.11 63.62-1.33 2.03v.5l-12.02 2.54-2.11 1.67.23-3.05-1.05-1.32 2.88-3.31 13.4.94z"
				  class="D H I"></path>
			<path fill="url(#BR)"
				  d="m404.86 23.75-1.68-1.64c-1.12-4.1-2.1-8.68-2.82-14.43-.97 5.67-1.72 10.89-3.07 14.44l-1.2 1.9s3.69-2.33 8.76-.27Z"></path>
			<path fill="url(#BS)" d="M396.09 24.02s4.06-2.51 8.76-.27c0 0-4.12 1.92-8.76.27Z"></path>
			<path fill="url(#BT)"
				  d="m402.71 34.65-.03 5.19-3.79 7.71-2.28 1.83.56-14.73c2.89-.79 5.54 0 5.54 0z"></path>
			<path fill="url(#BU)" d="m397.24 33.1.34-8.67s2.79-1.35 5.16-.22l-.21 8.85-5.29.04Z"></path>
			<g class="F">
				<path d="m397.58 24.43-.85-.52s4.32-1.91 7.13-.06l-1.12.36s-2.17-1-5.16.22Z"></path>
				<path d="m396.73 23.91.78 2.26.09-1.82-.87-.44zm4.01-.86-.09 2.89.99-2.84-.91-.04z"></path>
			</g>
			<path fill="url(#BV)" d="M400.65 25.94h.57l1.34-2.67s-.38-.12-.91-.18l-.99 2.84Z"></path>
			<path d="m403.86 23.85-1.15 2.07.03-1.71 1.12-.36z" class="F"></path>
			<path fill="url(#BW)" d="m402.71 25.92-.01.34 1.28-2.19-.12-.22-1.15 2.07z"></path>
			<path fill="url(#BX)" d="m396.73 23.91-.09.29.86 2.37.01-.4-.78-2.26z"></path>
			<path d="M401.74 29.28s.13-1.85.37-2c.25-.15.24 2.27.24 2.27l-.62-.27Z" class="F"></path>
			<path fill="url(#BY)" d="M402.05 29.42s.19-1.39-.11-1.72c0 0-.16.78-.2 1.59l.31.14Z"></path>
			<path d="m396.09 24.02 1.2-1.9s2.77-1.64 5.88 0l1.68 1.64s-4.55-2.36-8.76.27Z" class="C J"></path>
			<path fill="url(#BZ)" d="m396.39 34.4.75.99s2.79-1.16 5.57-.2l.74-.7s-2.25-1.79-7.06-.09Z"></path>
			<path fill="url(#Ba)" d="M396.39 34.4s4.05-1.58 7.06.09v-1.17s-2.87-1.74-7.06.05v1.03Z"></path>
			<path d="m396.39 34.4.68 2.52.07-1.53-.75-.99zm3.93-.67-.01 2.64.6-2.62-.59-.02zm3.13.75-.75 2.77.01-2.06.74-.71z"
				  class="F"></path>
			<path fill="url(#Bb)" d="m400.91 33.75 1 .15-.76 2.66-.84-.19.6-2.62z"></path>
			<path fill="url(#Bc)" d="M402.7 37.25v-.7l.75-2.07-.75 2.77z"></path>
			<path fill="url(#Bd)" d="m397.07 36.92-.68-2.52.2-.08.5 2.07-.02.53z"></path>
			<path d="m396.39 34.4.69 2.53v1.24s3.36-1.72 5.63-.45v-.46l.75-2.77s-2.2-1.69-7.06-.09Zm.25-10.2.86 2.37-.02.47s3.29-1.24 5.22-.77l1.28-2.19.87-.33s-3.97-2.35-8.76.27l.55.18Z"
				  class="D H I"></path>
			<path fill="url(#Be)"
				  d="m437.8 141.58 2.8.9 2.08 2.06h1.84l3.68 1.87h-76.7l-3.59.24 2.98-2.66 4.75-.78.18 1.99 6.24 1.07 5.09.03 2.86-2.31 3.39-.32 1.25.76 2.11 1.23 14.16-.21 2.3.13 11.25-.07 8.18-.46 5.15-3.47z"></path>
			<g class="I">
				<path d="m440.6 142.48-1.63 1.44-5.83 1.43 9.54-.81-2.08-2.06zm3.92 2.06-11.79 1.73-3.62-.87-9.62.14-4.81.79 33.52.08-3.68-1.87zm-54.51-.55-.9 1.48h5.09l5.01.91-12.06-.08 2.86-2.31zm-19.12 0 3.41 1.48 4.74.94-11.13.24 2.98-2.66z"
					  class="D H"></path>
			</g>
		</g>
		<path fill="url(#CF)"
			  d="m367.91 146.65 10.58-14.46 1.42 1.02v3.21l1-2.39 2.51-6.32 1.08 1.71 1.01 13.01 1.16-1.88 6.93.46 15.3 6.58-4.34 2.99-30.96-2.21-5.69-1.72z"></path>
		<path fill="url(#Bf)"
			  d="m394.13 143.77-7.45-3.23-1.16 1.89-2.56 2.39-2.11.05-.92-5.32 3.24-10.46.78-.58-.51-.81-3.51 8.71-6.19 7.96 1.86-7.26 2.91-4.93-10.59 14.46 5.69 1.72 30.96 2.21-.41-4.06-10.03-2.75Zm-7.38-1.8 7.18 2.24 5.67 1.96-11.71-.89-1.86-2.79.71-.52Zm-2.11 4.34-.36-.55.26-.48 2.63.24 3.98.65-6.51.14Z"
			  class="G" style="mix-blend-mode:multiply"></path>
		<path fill="#c095ac" d="m386.67 140.55 7.46 3.22 10.02 2.75h2.27l-12.82-5.51-6.93-.46z"
			  style="mix-blend-mode:soft-light"></path>
		<path fill="url(#Bg)"
			  d="m394.13 143.77-.2.44 5.67 1.96-11.71-.89-.73.24 3.98.65-6.51.14-.35-.56-1.34-.93-4.61.97 2.51-.91-.93-5.32-4.47 3.97-1.72.85-5.82 2.27 5.7 1.72 30.96 2.21-.41-4.06-10.02-2.75z"
			  opacity=".3" style="mix-blend-mode:multiply"></path>
		<path d="m387.83 141.05-.41 1.13.94.29.52-.97-1.05-.45zm1.32 1.67 1.07-.64 1.39.61-1.2.42-1.26-.39z" class="L"
			  opacity=".3" style="mix-blend-mode:multiply"></path>
		<path fill="#c39ab0"
			  d="m375.76 141.76 5.27-5.82 2.12-6.84-.44.36-2.8 6.96-4.15 5.34zm-.18-4.65-3.21 3.44 6.12-8.36-2.91 4.92z"
			  opacity=".3" style="mix-blend-mode:multiply"></path>
		<path fill="#b888a2" d="m380.84 144.88-2.51.91-.54 2.88-4.09-.29 3.22-2.8 3.92-.7z" class="G"
			  style="mix-blend-mode:multiply"></path>
		<path d="m384.82 133.53-4.31 4.1-.6 1.93.35 2.04 4.75-5.23-.19-2.84zm-3.36 1.04 3.1-4.36-.06-.79-2.47 3.31-.57 1.84z"
			  class="A G L"></path>
		<path fill="url(#CG)"
			  d="M476.53 146.3c-5.26-1.44-16.13-2.08-24.93-2.37l-.57-1.29-.02-.05-1.36-3.12-.17-.38-1.4-3.19-1.79-.43-.96.43-1.77-5.23-.81-2.39-.95-2.81h-.6l-1.78-6.04-.71-2.42-.94-3.19-.57-.12-.09-2.07-.05-1.39s.02-.67 2.34-.95l.1-1.87-.08-2.88c-.19-.56-.6-.85-.87-1l-.23-4.95 1.52-2.8.06-.02c.68-.21 1.07-.39 1.07-.39l-2.38-2.12c-2-5.19-3.64-11.32-4.85-18.52-.45 4.79-.95 9.26-1.71 13.29l-.03-8.78v-.59l.93-3.55v-1.5s-.44-.25-1.2-.5l.13-8.53h.01l1.64-2.8.04-.02c.68-.22 1.08-.4 1.08-.4l-2.2-2.11c-1.49-5.26-2.81-11.12-3.79-18.49-1.19 7.26-2.11 13.94-3.81 18.48l-1.53 2.43.71.23 1.14 3.04-.26 8.3a13.33 13.33 0 0 0-1.09.41v1.32s.1-.03.26-.09l-.25.09.91 3.23-.27 8.42c-.49-1.68-.85-3.53-1.35-5.99l-5.83-.37 2.67.17-.61-16.08 1.87-.93-1.96-1.37-.39-10.34 4.94-3.2-5.02-3.95c-4.8-10.53-9.8-25.18-9.8-25.18-1.76 6.92-4.16 13.31-6.27 18.25v-.41l.75-2.77v-1.17s-.33-.2-.91-.39l.15-6.66 1.28-2.19h.03c.53-.18.84-.33.84-.33l-1.68-1.64c-1.12-4.1-2.1-8.68-2.82-14.43-.97 5.67-1.72 10.89-3.07 14.44l-1.2 1.9.55.18.86 2.37-.26 6.48a11.2 11.2 0 0 0-.85.32v1.03s.07-.03.19-.07l-.2.07.68 2.52-.45 12.28-3.23 3.87 1.87.09 2.31 1.79L396 79.79l-.77.16c-.26-1.61-.5-3.28-.72-5.05l-.94 5.41-2.12.46a63.44 63.44 0 0 1-1.07 3.73l.12-13.05v-.59l.98-3.54v-1.49s-.22-.14-.64-.31a4.21 4.21 0 0 1 .65.31l.02-3.04c-.31-.57-.79-.89-1.07-1.03l.11-4.93 1.67-2.79.04-.02c.68-.22 1.08-.4 1.08-.4l-2.16-2.1c-1.42-5.24-2.67-11.09-3.56-18.44-1.27 7.24-2.27 13.91-4.02 18.43l-1.55 2.42.7.23 1.1 3.03-.21 4.84c-.53.39-.89.88-.89.88l-.36 2.97v1.31l.24-.09-.25.09.87 3.22-1.3 29.99c-.3-1.18-.57-2.41-.83-3.69-.53-2.7-.98-5.64-1.49-8.98l-1.68 8.57c-.49 2.05-1.02 4.01-1.59 6l-1.25 1.91.56.18.88 2.4-.02.47-1.26 29.19-.82 1.11c-2.68-.26-4.93-.45-5.86-.45-3.11 0-16.47 1.75-16.47 1.75l2.31 10.5c.71 1.51 1.91 2.69 3.09 3.56s.02 0 .02 0c1.73 1.28 3.42 1.89 3.42 1.89h3.29l.74 3.82-.17.88-.57 3.05 10.39 18.67 4.35 1.17 3.08-1.7 9.65-2.44 2.55-2.02 1.91 3.82-3.77 2.44-7.05 4.56.53.75 1.76 2.53-1.24-.19 4.14 4.46c2.39 2.84 9.03 9.31 9.03 9.31l-3.61 5.41 2.53 8.25.82 2.68 3.86 12.62-1.8 1.7-1.9 17.62-.99 1.67-1.41 2.39 2-.13 4.74 2.59 10.49-3.58 3.19-18.57 2.53-2.67 1.98-2.09 1.25-1.05-.42.17.48-.51.76-.99 7.49-9.84.88-1.16-.95-.85 6.74-5.66 2.21-1.86 10.77-9.04-2.76-1.8 10.71-10.5 3.61-.85a41.46 41.46 0 0 0 4.62-2.95h.07l.42-.36a54.95 54.95 0 0 0 4.93-4.15c1.37-1.23 2.64-2.51 3.64-3.78v-2.02l-14.53-10.82.86-2.43.31-.86 13.37-13.05v-1.27zm-74.57-66.97h-.03.03zm-26.5 24.78.1-.05c-.06.03-.11.05-.15.08h.01c.01 0 .03-.02.05-.02zm57.52 12.59-.87-.43-.02-6.71c.32.18.63.41.83.68l.03 3.46.02 3zm-9.35-55.16c.06-.03.11-.06.18-.09l-.2.1h.01zm.43 13.37c.16-.06.41-.13.7-.21l-.7.22zm-27.72-51.02s.09-.04.14-.07c-.06.03-.11.05-.15.08h.01zm.25 10.44.55-.17c-.18.05-.36.11-.54.17zM382.4 53.82c.06-.03.11-.06.18-.09l-.2.1h.01zm.27 13.33c.16-.06.41-.13.71-.21l-.7.22z"
			  style="mix-blend-mode:screen"></path>
		<g class="K">
			<path fill="url(#Bh)"
				  d="m437.18 89.41 12.94 1.19-1.84 1.25s25.54 4.15 30.71 6.74-22.87 8.24-74.86 8.5-75.58-3.18-75.58-3.18l14.13.25-1.24-1.09s10.14-3.78 20.18-3.77l-3.25 5.23s45.15 4.3 70.93-.31 8.94-11.77 8.94-11.77l-1.06-3.04z"></path>
			<path fill="url(#Bi)"
				  d="M437.62 90.6s8.38 1.47 10.27 3.64c1.47 1.68-5.55 5.61-5.55 5.61s4-3.32-4.11-7.4l-.61-1.85Z"></path>
			<path fill="url(#Bj)" d="M304.83 102.28s4.85-8.54 14.78.9l-14.78-.9Z"></path>
			<path fill="url(#Bk)" d="M450.83 90.6s3.52-6.01 11.77 0h-11.77Z"></path>
		</g>
	</g>
</svg>
