<svg width="118" height="43" viewBox="0 0 118 43" fill="none" xmlns="http://www.w3.org/2000/svg">
<path d="M13.6335 11.8V16.1001V40.5001L10.8369 34.1001V16.1001V11.8H0L1.92263 16.1001H9.87548V34.4001L13.6335 42.9001L17.3915 34.4001V16.1001H25.4317L27.3543 11.8H13.6335Z" fill="#FF9D00"/>
<path d="M15.0317 9.7H17.9158V6.5H15.0317V0H12.2352V6.5H9.43848V9.7H12.2352H15.0317Z" fill="#FF9D00"/>
<path d="M19.3145 24.6999H21.6741L23.5968 20.3999H19.3145V24.6999Z" fill="#FF9D00"/>
<path d="M41.6872 13.3999H38.8907V18.9999H37.2302V13.3999H34.4336V11.8999H41.5999V13.3999H41.6872Z" fill="#092236"/>
<path d="M50.2518 11.8999V18.9999H48.5913V16.1999H44.6586V18.9999H42.998V11.8999H44.6586V14.6999H48.5913V11.8999H50.2518Z" fill="#092236"/>
<path d="M53.8349 13.3999V14.5999H58.5542V16.1999H53.8349V17.3999H59.4281V18.8999H52.2617V11.8999H59.4281V13.4999H53.8349V13.3999Z" fill="#092236"/>
<path d="M67.3812 13.3999V14.5999H72.1005V16.1999H67.3812V18.9999H65.7207V11.8999H72.8871V13.4999H67.3812V13.3999Z" fill="#092236"/>
<path d="M81.5388 11.8999V16.0999C81.5388 18.0999 80.9271 18.9999 79.0918 18.9999H76.8196C75.1591 18.9999 74.2852 18.3999 74.2852 16.3999V11.8999H76.1204V16.4999C76.1204 17.1999 76.5573 17.3999 77.1691 17.3999H78.7422C79.5288 17.3999 79.7036 17.0999 79.7036 16.3999V11.8999H81.5388Z" fill="#092236"/>
<path d="M85.9964 11.8999L88.793 17.3999V11.8999H90.4535V18.9999H87.7443L84.9476 13.4999V18.9999H83.2871V11.8999H85.9964Z" fill="#092236"/>
<path d="M92.376 11.8999H97.0953C98.8432 11.8999 99.6297 12.5999 99.6297 14.6999V16.1999C99.6297 18.0999 99.1054 19.0999 97.3575 19.0999H92.376V11.8999ZM94.0365 17.3999H97.0953C97.707 17.3999 97.8819 16.8999 97.8819 16.1999V14.4999C97.8819 13.5999 97.6197 13.3999 97.0079 13.3999H93.9491V17.3999H94.0365Z" fill="#092236"/>
<path d="M102.951 13.3999V14.5999H107.67V16.1999H102.951V17.3999H108.544V18.8999H101.378V11.8999H108.544V13.4999H102.951V13.3999Z" fill="#092236"/>
<path d="M110.117 11.8999H114.836C116.584 11.8999 117.371 12.5999 117.371 14.6999V16.1999C117.371 18.0999 116.846 19.0999 115.099 19.0999H110.117V11.8999ZM111.778 17.3999H114.836C115.448 17.3999 115.623 16.8999 115.623 16.1999V14.4999C115.623 13.5999 115.361 13.3999 114.749 13.3999H111.69V17.3999H111.778Z" fill="#092236"/>
<path d="M46.5809 25.2H41.8617V34.7H39.065V25.2H34.3457V22.5H46.6684V25.2H46.5809Z" fill="#092236"/>
<path d="M58.9034 31.7001L60.4764 34.7001H57.2429L55.9319 32.1001H51.0379V34.7001H48.2412V22.6001H56.8933C58.9907 22.6001 60.0394 23.3001 60.389 25.3001C60.4764 25.8001 60.4764 26.7001 60.4764 27.3001C60.4764 27.9001 60.4764 28.8001 60.389 29.3001C60.2142 30.5001 59.7773 31.2001 58.9034 31.7001ZM50.9504 29.2001H56.5437C57.068 29.2001 57.505 28.7001 57.505 28.1001V26.3001C57.505 25.7001 57.068 25.2001 56.5437 25.2001H50.9504V29.2001Z" fill="#092236"/>
<path d="M74.7219 34.7001H71.8379L71.0513 31.9001H65.3707L64.5842 34.7001H61.7002L64.9337 22.6001H71.4883L74.7219 34.7001ZM67.1186 25.3001L66.0699 29.2001H70.2649L69.2161 25.3001H67.1186Z" fill="#092236"/>
<path d="M76.208 22.5H84.3357C87.3071 22.5 88.618 23.8 88.618 27.2V29.7C88.618 33 87.6567 34.6 84.7727 34.6H76.2954V22.5H76.208ZM79.0047 32H84.2483C85.2971 32 85.6466 31.2 85.6466 29.9V27C85.6466 25.4 85.2097 25.1 84.2483 25.1H79.0921V32H79.0047Z" fill="#092236"/>
<path d="M93.512 25.2001V27.3001H101.552V30.0001H93.512V32.1001H102.95V34.7001H90.6279V22.6001H102.95V25.2001H93.512Z" fill="#092236"/>
<path d="M115.797 31.7001L117.37 34.7001H114.136L112.825 32.1001H107.931V34.7001H105.135V22.6001H113.787C115.884 22.6001 116.933 23.3001 117.283 25.3001C117.37 25.8001 117.37 26.7001 117.37 27.3001C117.37 27.9001 117.37 28.8001 117.283 29.3001C117.02 30.5001 116.671 31.2001 115.797 31.7001ZM107.844 29.2001H113.437C113.962 29.2001 114.399 28.7001 114.399 28.1001V26.3001C114.399 25.7001 113.962 25.2001 113.437 25.2001H107.844V29.2001Z" fill="#092236"/>
</svg>
