<svg width="120" height="43" viewBox="0 0 120 43" fill="none" xmlns="http://www.w3.org/2000/svg">
<path fill-rule="evenodd" clip-rule="evenodd" d="M8.59694 0C20.4872 0.182927 32.1945 0.182924 44.0847 0.182924C44.8164 0.731705 45.914 1.09756 46.4628 1.28048C47.0116 1.46341 49.7555 0.914631 51.036 0.182924C71.1579 0.182924 91.4628 0.182927 111.585 0C111.951 0 112.316 0.182921 112.499 0.365848C112.682 0.548775 113.048 0.731707 113.231 0.914634C113.597 1.09756 113.78 1.46341 113.78 1.64634C115.792 8.04878 117.804 14.4512 119.999 21.0366V24.3293C117.987 30.1829 115.609 34.5732 113.78 40.4268C113.597 40.7927 113.414 40.9756 113.231 41.1585C113.048 41.3415 112.682 41.5244 112.499 41.7073C112.134 41.8902 111.951 42.0732 111.585 42.0732C77.0116 41.7073 42.8043 41.7073 8.77988 42.0732C8.41403 42.0732 8.04817 41.8902 7.86525 41.7073C7.68232 41.5244 7.31648 41.3415 7.13355 41.1585C6.7677 40.9756 6.58474 40.6098 6.58474 40.4268C5.85303 38.2317 5.12135 36.2195 4.38965 34.3902V34.2073C4.38965 33.8415 4.20672 33.2927 3.47501 32.378C2.37745 29.8171 1.27987 27.2561 0.365234 24.3293V21.0366C2.56036 14.6341 4.57254 8.2317 6.58474 1.64634C6.76766 1.28048 6.95062 1.09756 7.13355 0.914634C7.31648 0.731707 7.68232 0.548775 7.86525 0.365848C7.86525 0.182921 8.23109 0 8.59694 0Z" fill="url(#paint0_radial_656_179270)"/>
<path d="M10.9761 9.14636C9.32976 14.2683 7.68345 19.3903 6.03711 24.5122C7.68345 29.6342 9.32976 34.7561 10.9761 39.8781C43.72 39.5122 76.281 39.5122 109.025 39.8781C110.671 34.7561 112.318 29.6342 113.964 24.5122C112.318 19.3903 110.671 14.2683 109.025 9.14636C76.281 9.51222 43.72 9.51222 10.9761 9.14636Z" fill="url(#paint1_linear_656_179270)"/>
<path fill-rule="evenodd" clip-rule="evenodd" d="M8.04883 3.47603V0.18335C7.8659 0.18335 7.68294 0.366274 7.50001 0.366274C7.31708 0.5492 6.95124 0.732133 6.76832 0.91506C6.40246 1.09799 6.21956 1.46384 6.21956 1.64676C4.20736 8.23213 2.19512 14.6346 0 21.037V24.3297C2.19512 17.9272 4.20736 11.5248 6.21956 4.93944C6.40248 4.57359 6.58539 4.39067 6.76832 4.20774C6.95124 4.02481 7.31708 3.84189 7.50001 3.65896C7.86587 3.65896 7.8659 3.47603 8.04883 3.47603Z" fill="url(#paint2_radial_656_179270)"/>
<path fill-rule="evenodd" clip-rule="evenodd" d="M111.586 0V3.29268C111.769 3.29268 111.952 3.47561 112.135 3.65854C112.318 3.84146 112.684 4.02439 112.866 4.20732C113.232 4.39024 113.415 4.75609 113.415 4.93902C115.427 11.3415 117.44 17.7439 119.635 24.3293V21.0366C117.44 14.4512 115.427 8.04878 113.415 1.64634C113.232 1.28048 113.049 1.09756 112.866 0.914634C112.684 0.731707 112.318 0.548775 112.135 0.365848C112.135 0.182921 111.952 0.182927 111.586 0Z" fill="url(#paint3_radial_656_179270)"/>
<path fill-rule="evenodd" clip-rule="evenodd" d="M109.023 38.2316C76.279 37.8658 43.718 37.8658 10.9741 38.2316C9.51073 33.2926 7.86439 28.5365 6.40098 23.7804C6.21805 24.1462 6.21808 24.3292 6.03516 24.695C7.6815 29.817 9.32781 34.9389 10.9741 40.0609C43.718 39.695 76.279 39.695 109.023 40.0609C110.669 34.9389 112.316 29.817 113.962 24.695C113.779 24.3292 113.779 24.1462 113.596 23.7804C111.95 28.5365 110.486 33.2926 109.023 38.2316Z" fill="url(#paint4_radial_656_179270)"/>
<path fill-rule="evenodd" clip-rule="evenodd" d="M5.12151 33.8418C5.12151 33.4759 4.38979 32.9272 3.10931 31.8296C2.92638 31.6467 2.74347 31.4637 2.56055 31.4637C3.84103 32.7442 4.20688 33.6589 4.20688 34.2076V34.3906C4.20688 34.5735 4.02393 34.9394 3.841 35.4881C4.02393 35.3052 4.20689 35.1223 4.38982 34.9394C4.75567 34.5735 5.12151 34.0247 5.12151 33.8418Z" fill="url(#paint5_radial_656_179270)"/>
<path fill-rule="evenodd" clip-rule="evenodd" d="M44.0859 0.18335C45.0006 1.64676 46.0981 2.5614 46.6469 2.5614C47.1957 2.5614 49.2079 1.64676 51.0372 0.18335C49.9396 0.915057 47.1957 1.28091 46.464 1.28091C45.9152 1.28091 44.8176 0.915057 44.0859 0.18335Z" fill="url(#paint6_radial_656_179270)"/>
<path fill-rule="evenodd" clip-rule="evenodd" d="M109.023 38.2317V39.878C110.67 34.7561 112.316 29.6341 113.962 24.5122C113.78 24.1463 113.78 23.9634 113.597 23.5975C111.95 28.5366 110.487 33.2927 109.023 38.2317Z" fill="url(#paint7_radial_656_179270)"/>
<path fill-rule="evenodd" clip-rule="evenodd" d="M10.9741 38.2316C9.51073 33.2926 7.86439 28.5365 6.40098 23.7804C6.21805 24.1462 6.21808 24.3292 6.03516 24.695C7.6815 29.817 9.32781 34.9389 10.9741 40.0609V38.2316Z" fill="url(#paint8_radial_656_179270)"/>
<path fill-rule="evenodd" clip-rule="evenodd" d="M96.0371 39.6952C96.9517 39.1464 100.976 39.3294 101.342 39.6952C100.61 40.6099 99.6957 41.1586 98.964 41.1586C98.4152 41.1586 96.7688 40.4269 96.0371 39.6952Z" fill="url(#paint9_radial_656_179270)"/>
<path fill-rule="evenodd" clip-rule="evenodd" d="M98.9636 41.1585C99.6953 41.1585 100.61 40.6097 101.342 39.6951C101.159 39.5121 100.427 39.3292 99.6953 39.3292C99.3295 39.5122 97.8661 41.1585 98.9636 41.1585Z" fill="url(#paint10_radial_656_179270)"/>
<path fill-rule="evenodd" clip-rule="evenodd" d="M5.12109 8.78025C5.48695 7.49976 5.85281 6.21927 6.21867 4.93878C6.21867 4.75585 6.40156 4.57293 6.58449 4.39C6.95034 4.02415 7.49914 3.84122 7.865 3.47537C8.04792 3.29244 8.23083 3.29244 8.41375 3.29244C10.7918 3.29244 12.987 3.29244 15.365 3.10951C16.0967 3.10951 18.1089 2.56073 19.2064 2.37781C19.9381 2.37781 20.4869 2.37781 21.2186 2.37781C22.4991 2.56073 23.4138 2.92658 24.5113 3.10951C24.6943 3.10951 25.0601 3.10951 25.243 3.10951C42.6211 3.10951 59.8162 3.29244 77.1942 3.29244C77.5601 3.29244 77.926 2.92659 78.2918 2.92659C79.2065 2.74366 80.8528 2.56073 81.5845 2.56073C81.9503 2.56073 82.4991 2.56073 82.865 2.56073C83.4138 2.74366 83.7796 3.10951 84.3284 3.10951C84.6942 3.29244 85.243 3.10951 85.7918 3.10951C94.3894 3.10951 102.804 2.92659 111.402 2.92659C111.767 2.92659 111.95 2.92659 112.316 3.29244C112.682 3.6583 113.048 3.84122 113.414 4.20708C113.048 3.84122 112.682 3.6583 112.133 3.29244C111.95 3.29244 111.767 3.10951 111.402 3.10951C102.438 3.10951 93.6577 3.29244 84.6943 3.47537C84.5113 3.47537 84.3284 3.47537 84.3284 3.6583C83.2308 4.20708 82.865 4.57293 81.5845 4.93878C81.4016 4.93878 81.0357 4.93878 80.8528 4.93878C80.1211 4.75585 79.2065 4.57293 78.4748 4.20708C78.1089 4.02415 77.743 4.02415 77.5601 3.84122C77.3772 3.84122 77.1942 3.6583 76.8284 3.6583C76.4625 3.6583 75.9138 3.47537 75.5479 3.47537C58.7187 3.47537 41.8894 3.29244 25.0601 3.29244C24.8772 3.29244 24.8772 3.29244 24.6942 3.47537C24.5113 3.65829 24.1455 3.84122 23.9625 4.20708C23.0479 4.93878 22.1333 5.85342 20.8528 5.67049C20.1211 5.48756 19.5723 5.48756 19.0235 5.12171C17.926 4.75586 17.0113 4.20708 15.9138 3.6583C15.365 3.47537 14.6333 3.29244 14.0845 3.29244C12.4382 3.29244 10.6089 3.29244 8.96257 3.29244C8.77964 3.29244 8.59668 3.29244 8.41375 3.47537C8.0479 3.65829 7.68204 4.02415 7.31618 4.39C7.13326 4.57293 6.95035 4.57293 6.76742 5.12171C5.85279 6.4022 5.48695 7.49976 5.12109 8.78025Z" fill="url(#paint11_radial_656_179270)"/>
<path fill-rule="evenodd" clip-rule="evenodd" d="M15.3652 3.29244C16.6457 2.74366 18.8408 2.37781 19.3896 2.37781C21.2189 2.37781 23.7799 2.92659 24.3286 3.47537C23.2311 5.30463 21.5847 6.03634 20.853 6.03634C19.9384 6.21927 16.8286 5.30464 15.3652 3.29244Z" fill="url(#paint12_radial_656_179270)"/>
<path fill-rule="evenodd" clip-rule="evenodd" d="M77.377 3.65868C77.5599 3.47575 78.1087 3.10989 78.2916 3.10989C79.3891 2.92696 81.7672 2.74404 83.0477 2.92697C83.5965 3.10989 84.1452 3.47575 84.3282 3.65868C83.2306 4.75624 81.9501 5.30502 81.5842 5.30502C81.0355 5.30502 78.8404 4.75624 77.377 3.65868Z" fill="url(#paint13_radial_656_179270)"/>
<path fill-rule="evenodd" clip-rule="evenodd" d="M80.8549 5.12207C81.2207 5.12207 81.4036 5.30499 81.5865 5.12207C81.9524 5.12207 82.6841 4.75621 83.5988 4.0245C83.7817 3.84157 84.1475 3.65865 84.3304 3.47572C84.1475 3.29279 83.7817 2.92695 83.05 2.74402C82.8671 2.74402 82.6841 2.74402 82.3182 2.74402C82.1353 2.74402 80.1231 4.93914 80.8549 5.12207Z" fill="url(#paint14_radial_656_179270)"/>
<path fill-rule="evenodd" clip-rule="evenodd" d="M13.5371 37.3169C12.9883 37.3169 12.4395 37.3168 11.8907 36.951C11.3419 36.5851 10.7932 36.0364 10.6103 35.4876C10.2444 34.573 8.04925 29.2681 8.23218 28.5364C8.41511 27.9876 8.96391 27.9876 8.59806 26.7071C8.2322 25.6095 7.31756 23.5973 7.50048 22.6827C7.68341 22.1339 7.86637 21.2193 8.0493 20.6705C8.41515 19.39 10.2444 14.2681 10.7932 13.5364C11.1591 12.9876 12.2566 12.6217 12.8054 12.2559C14.0858 11.5242 13.72 11.5242 15.5493 11.5242C19.9395 11.5242 24.1468 11.7071 28.5371 11.89C30.5493 12.073 31.281 12.0729 33.1102 11.7071C35.1224 11.5242 40.4273 11.7071 42.0736 12.2559C42.9883 12.6217 54.8785 19.9388 56.159 21.7681C56.7078 22.4998 58.5371 28.7193 58.5371 29.8168C58.72 31.0973 58.5371 31.829 58.9029 33.2925C59.0859 34.0242 59.6346 36.2193 58.5371 36.4022C57.8054 36.5851 55.9761 36.5851 55.0615 36.5851C53.0493 36.7681 51.22 36.7681 49.2078 36.951C46.6469 37.1339 46.4639 36.4022 44.2688 36.4022C41.342 36.2193 39.3298 36.4022 36.403 36.7681C33.6591 36.951 32.5615 36.7681 30.0005 36.5851C26.8908 36.2193 26.342 36.4022 23.4151 36.951C21.5859 37.3168 17.7444 37.1339 15.5493 37.1339H14.8176C14.6346 37.3168 14.0859 37.3169 13.5371 37.3169Z" fill="url(#paint15_radial_656_179270)"/>
<path fill-rule="evenodd" clip-rule="evenodd" d="M62.5618 36.7681C61.6472 36.7681 61.0984 35.6705 60.7325 34.9388C59.8179 32.3778 58.9033 29.451 58.7203 26.7071C58.5374 25.0608 58.3545 24.3291 57.9886 22.6827C57.8057 21.951 58.7204 21.0364 59.2691 20.4876C60.3667 19.39 60.9154 18.6583 62.1959 17.7437C64.2081 16.2803 65.1228 14.9998 66.7691 13.5364C67.3179 13.1705 67.5008 13.1705 68.2325 13.1705C69.8789 13.1705 69.8789 12.073 71.1594 11.89C72.9887 11.7071 74.8179 11.7071 76.4643 11.5242C78.4764 11.5242 80.3057 12.073 82.3179 11.89C83.4154 11.89 83.7813 12.2559 84.3301 13.1705C84.8789 14.451 85.2448 15.1827 85.7935 16.4632C87.6228 22.4998 88.9033 28.3534 90.1838 34.573C90.3667 35.3047 90.1838 36.4022 89.4521 36.5851C88.5374 36.5851 83.0496 37.1339 82.3179 36.951C80.8545 36.5851 81.0374 36.4022 79.2082 36.4022C75.9155 36.4022 72.9886 36.5851 69.8789 36.7681C67.5008 37.3169 64.7569 36.951 62.5618 36.7681Z" fill="url(#paint16_radial_656_179270)"/>
<path fill-rule="evenodd" clip-rule="evenodd" d="M92.7434 36.9508C91.28 36.7679 91.0971 35.3045 90.9141 34.2069C90.7312 33.8411 90.5483 33.1094 90.7312 32.7435C91.0971 31.646 90.9141 31.0972 90.5483 30.1825C89.9995 28.3533 89.4507 26.8899 88.719 25.0606C88.1702 23.7801 87.8044 21.4021 87.4385 19.9386C87.0727 18.1094 86.5239 16.0972 86.158 14.2679C85.9751 13.3533 86.341 13.3533 86.7068 12.8045C86.8898 12.6216 87.2556 12.2557 87.4385 12.2557C87.8044 12.0728 89.4507 12.0728 89.9995 12.0728C91.28 11.8899 92.7434 11.8899 94.0239 11.8899C96.402 11.8899 99.6946 13.1703 101.89 12.2557C103.17 11.7069 103.719 11.8899 105.182 11.8899C105.548 11.8899 106.646 11.8899 107.012 11.8899C107.56 12.0728 107.926 12.6216 108.292 12.8045C109.207 13.5362 109.39 14.2679 109.573 15.3655C110.304 17.7435 110.304 19.3899 111.402 21.585C111.768 22.3167 112.5 23.7801 112.317 24.5118C112.317 25.7923 112.5 26.1582 111.951 27.4386C111.585 28.1704 111.036 30.1826 111.036 30.9143C111.036 31.463 111.219 31.463 110.853 32.0118C110.304 33.1094 109.573 34.3899 109.024 35.4874C108.841 36.0362 108.475 36.2191 108.109 36.585C107.56 36.9508 107.195 37.3167 106.463 37.3167C102.439 37.4996 98.0483 37.6826 94.0239 37.3167C93.6581 36.9508 93.1093 36.9508 92.7434 36.9508Z" fill="url(#paint17_radial_656_179270)"/>
<path fill-rule="evenodd" clip-rule="evenodd" d="M53.78 18.6584C54.5117 19.3901 55.4263 19.573 56.5239 19.7559C57.2556 19.7559 58.1702 19.2072 58.9019 18.8413C60.1824 18.1096 61.8288 16.6462 62.9263 15.7315C63.841 14.9998 64.7556 14.2681 65.4873 13.3535C65.6702 13.1706 65.8531 12.9876 66.036 12.8047C66.219 12.6218 66.036 11.8901 65.8531 11.8901C62.0116 11.7072 57.6214 11.7072 53.78 11.7072C51.9507 11.7072 50.4873 11.8901 48.658 11.8901C48.2921 11.8901 45.1824 11.8901 44.9995 12.073C44.6336 12.4389 45.3653 12.9876 45.5483 13.1706C46.28 13.9023 47.7434 14.8169 48.8409 15.3657C50.4873 16.2803 51.4019 16.2803 53.0482 17.5608C53.2312 18.1096 53.5971 18.4754 53.78 18.6584Z" fill="url(#paint18_radial_656_179270)"/>
<path fill-rule="evenodd" clip-rule="evenodd" d="M14.9997 12.6218C13.3534 12.6218 11.1583 13.7194 10.7925 15.1828C10.4266 16.8291 6.95095 23.7804 8.41437 24.8779C9.69486 25.7926 8.78023 28.9023 11.3412 28.9023C21.951 28.9023 16.6461 25.0609 22.8656 23.2316C23.7802 22.8657 29.9997 23.4145 32.9265 22.6828C38.9631 21.2194 36.5851 19.573 44.268 21.7682C47.1949 22.4999 48.4754 22.4999 51.5851 23.9633C52.8656 24.695 57.0729 23.9633 52.8656 21.2194C48.6583 18.4755 46.4632 18.4755 41.7071 14.9999C38.7802 12.8048 41.5242 12.6218 35.4876 12.6218C30.9144 12.6218 32.1949 13.9023 30.3656 14.2682C29.268 14.4511 23.4144 12.6218 21.0363 12.6218C19.9387 12.4389 15.9144 12.6218 14.9997 12.6218Z" fill="url(#paint19_radial_656_179270)"/>
<path fill-rule="evenodd" clip-rule="evenodd" d="M48.8428 12.6221C48.1111 12.4392 45.733 12.988 47.3794 13.9026C48.6599 14.6343 51.9525 16.4636 53.4159 16.4636C54.1476 16.4636 55.9769 17.927 57.2574 18.11C58.9038 18.2929 58.172 18.11 59.8184 17.3782C61.4647 16.4636 62.7452 16.6465 63.8428 14.8173C64.2086 14.2685 65.855 13.3539 64.7574 12.6221C64.7574 12.6221 50.1232 12.4392 49.5745 12.8051C49.3915 12.6221 48.8428 12.6221 48.8428 12.6221Z" fill="url(#paint20_radial_656_179270)"/>
<path fill-rule="evenodd" clip-rule="evenodd" d="M59.2676 23.7804C59.2676 20.8535 59.2675 22.134 61.2797 19.573C62.1944 18.2925 65.67 15.9145 67.1334 14.8169C68.048 14.0852 68.4139 16.4633 71.7066 13.1706C72.2554 12.6218 82.4992 12.4389 83.2309 13.1706C85.9749 15.7316 85.609 20.1218 86.3407 22.134C86.5237 22.4999 87.6212 29.2682 87.6212 29.4511C86.8895 31.4633 80.1212 29.8169 77.5603 29.9999C76.6456 29.9999 73.7188 29.0852 72.9871 28.1706C71.7066 26.7072 69.6944 24.8779 67.6822 24.8779C64.2066 24.8779 62.3773 25.0608 59.2676 24.1462C59.2676 23.9633 59.2676 23.9633 59.2676 23.7804Z" fill="url(#paint21_radial_656_179270)"/>
<path fill-rule="evenodd" clip-rule="evenodd" d="M67.6836 26.524C66.9519 26.1581 62.7446 26.3411 62.3788 27.0728C61.83 27.9874 60.9154 27.8045 61.4641 29.8167C62.0129 31.6459 61.0983 32.1947 64.208 32.1947C65.6715 32.1947 71.891 32.9264 71.7081 30.7313C71.5251 28.7191 71.1593 28.902 69.6958 27.6216C69.33 27.4386 68.0495 26.7069 67.6836 26.524Z" fill="url(#paint22_radial_656_179270)"/>
<path fill-rule="evenodd" clip-rule="evenodd" d="M20.8535 27.6222C20.8535 27.2563 21.5852 24.6954 21.951 24.6954C22.6827 24.6954 23.5974 24.1466 24.8779 23.9636C25.4267 23.9636 26.1583 23.5978 27.4388 23.5978C29.2681 23.5978 29.451 23.4149 31.2803 23.9636C32.012 24.1466 37.3169 23.049 38.0486 22.6832C39.1462 22.3173 40.6096 22.8661 40.9755 24.1466C41.7072 25.7929 39.6949 26.5246 38.5974 27.0734C37.134 27.8051 32.3779 28.9027 30.3657 29.6344C27.2559 30.7319 26.3413 28.3539 24.6949 29.0856C24.3291 29.2685 22.3169 29.2685 21.951 28.9027C21.4023 28.7197 20.8535 27.6222 20.8535 27.6222Z" fill="url(#paint23_radial_656_179270)"/>
<path fill-rule="evenodd" clip-rule="evenodd" d="M87.0723 13.9028C86.7065 16.0979 86.7065 15.3662 87.4382 17.5613C87.8041 18.4759 88.1699 20.1223 88.1699 21.2198C88.3528 23.232 89.4504 22.6832 90.9138 23.4149C90.9138 23.4149 93.1089 23.7808 93.4748 23.9637C96.0358 25.0613 97.1333 24.3296 99.8772 25.9759C101.158 26.7076 103.17 26.8906 104.267 28.354C104.633 28.9028 109.755 29.4515 110.304 29.0857C111.219 28.354 110.67 27.9881 111.402 26.8906C111.95 26.1589 112.133 23.7808 111.585 22.8662C111.036 22.1345 111.036 21.7686 110.304 21.4028C110.121 21.2198 108.658 15.3662 108.292 14.4515C108.109 13.9028 107.926 13.171 107.194 12.6223C105.548 11.7076 106.097 12.0735 104.45 12.0735C104.267 12.0735 102.255 12.6223 101.524 12.8052C99.6943 12.9881 99.1455 13.171 96.9504 13.171C94.2065 13.171 96.0358 12.2564 93.109 12.2564C91.2797 12.4393 87.4382 12.2564 87.0723 13.9028Z" fill="url(#paint24_radial_656_179270)"/>
<path fill-rule="evenodd" clip-rule="evenodd" d="M51.5859 17.7436C52.8664 18.6582 55.4274 20.3045 56.525 21.4021C56.8908 21.768 57.0738 22.1338 57.2567 22.4997C57.8055 24.3289 58.3542 26.5241 58.903 28.3533C58.7201 25.9753 58.1713 24.8777 57.8054 22.6826C57.6225 21.9509 58.3542 20.8533 58.7201 20.3045C59.2689 19.7558 60.0006 19.207 60.7323 18.6582C61.2811 18.2924 61.8298 17.9265 62.3786 17.3777C63.842 16.0972 65.4884 14.6338 66.586 13.5363C64.3908 15.3655 62.1957 17.1948 59.8176 19.0241C59.6347 19.207 58.7201 19.9387 57.9884 20.3045C56.8908 21.0363 56.525 20.8533 55.4274 20.3045C54.5128 19.7558 53.781 19.0241 53.0493 18.4753C52.5005 18.1094 51.9518 17.9265 51.5859 17.7436Z" fill="url(#paint25_radial_656_179270)"/>
<defs>
<radialGradient id="paint0_radial_656_179270" cx="0" cy="0" r="1" gradientUnits="userSpaceOnUse" gradientTransform="translate(25.3282 -62.6239) scale(114.118 114.118)">
<stop stop-color="#B0A499"/>
<stop offset="1" stop-color="#7A6E63"/>
</radialGradient>
<linearGradient id="paint1_linear_656_179270" x1="59.9958" y1="39.877" x2="59.9958" y2="9.14051" gradientUnits="userSpaceOnUse">
<stop stop-color="#66584D"/>
<stop offset="1" stop-color="#544639"/>
</linearGradient>
<radialGradient id="paint2_radial_656_179270" cx="0" cy="0" r="1" gradientUnits="userSpaceOnUse" gradientTransform="translate(-6.87827 15.779) scale(55.3991 55.3988)">
<stop stop-color="#918173"/>
<stop offset="1"/>
</radialGradient>
<radialGradient id="paint3_radial_656_179270" cx="0" cy="0" r="1" gradientUnits="userSpaceOnUse" gradientTransform="translate(125.312 22.1409) scale(41.0794 41.0791)">
<stop stop-color="#918173"/>
<stop offset="1" stop-color="white"/>
</radialGradient>
<radialGradient id="paint4_radial_656_179270" cx="0" cy="0" r="1" gradientUnits="userSpaceOnUse" gradientTransform="translate(98.2965 111.963) scale(164.037 164.037)">
<stop stop-color="#B0A499"/>
<stop offset="1" stop-color="#69594B"/>
</radialGradient>
<radialGradient id="paint5_radial_656_179270" cx="0" cy="0" r="1" gradientUnits="userSpaceOnUse" gradientTransform="translate(1.99421 39.2197) scale(8.0096 8.00965)">
<stop stop-color="#B0A499"/>
<stop offset="1" stop-color="#4F3C2A"/>
</radialGradient>
<radialGradient id="paint6_radial_656_179270" cx="0" cy="0" r="1" gradientUnits="userSpaceOnUse" gradientTransform="translate(51.0886 0.0838375) scale(9.80401 9.80396)">
<stop stop-color="#B0A499"/>
<stop offset="1" stop-color="#4F3C2A"/>
</radialGradient>
<radialGradient id="paint7_radial_656_179270" cx="0" cy="0" r="1" gradientUnits="userSpaceOnUse" gradientTransform="translate(118.246 36.8138) scale(30.6345 30.6344)">
<stop stop-color="#918173"/>
<stop offset="1"/>
</radialGradient>
<radialGradient id="paint8_radial_656_179270" cx="0" cy="0" r="1" gradientUnits="userSpaceOnUse" gradientTransform="translate(16.9483 35.7016) scale(34.8656 34.8659)">
<stop stop-color="#918173"/>
<stop offset="1" stop-color="white"/>
</radialGradient>
<radialGradient id="paint9_radial_656_179270" cx="0" cy="0" r="1" gradientUnits="userSpaceOnUse" gradientTransform="translate(103.992 39.9469) scale(9.08093 9.08088)">
<stop stop-color="#85786B"/>
<stop offset="1" stop-color="#4F3C2A"/>
</radialGradient>
<radialGradient id="paint10_radial_656_179270" cx="0" cy="0" r="1" gradientUnits="userSpaceOnUse" gradientTransform="translate(105.217 41.7548) scale(11.2044 11.2043)">
<stop stop-color="#918173"/>
<stop offset="1"/>
</radialGradient>
<radialGradient id="paint11_radial_656_179270" cx="0" cy="0" r="1" gradientUnits="userSpaceOnUse" gradientTransform="translate(13.5498 -43.9365) scale(149.801 149.801)">
<stop stop-color="#918173"/>
<stop offset="1"/>
</radialGradient>
<radialGradient id="paint12_radial_656_179270" cx="0" cy="0" r="1" gradientUnits="userSpaceOnUse" gradientTransform="translate(25.0298 3.65464) scale(14.479 14.479)">
<stop stop-color="#85786B"/>
<stop offset="1" stop-color="#4F3C2A"/>
</radialGradient>
<radialGradient id="paint13_radial_656_179270" cx="0" cy="0" r="1" gradientUnits="userSpaceOnUse" gradientTransform="translate(85.2644 3.80739) scale(13.1458 13.1458)">
<stop stop-color="#85786B"/>
<stop offset="1" stop-color="#4F3C2A"/>
</radialGradient>
<radialGradient id="paint14_radial_656_179270" cx="0" cy="0" r="1" gradientUnits="userSpaceOnUse" gradientTransform="translate(87.627 5.94981) scale(8.29406 8.29408)">
<stop stop-color="#918173"/>
<stop offset="1"/>
</radialGradient>
<radialGradient id="paint15_radial_656_179270" cx="0" cy="0" r="1" gradientUnits="userSpaceOnUse" gradientTransform="translate(-8.15476 -158.999) scale(236.11 236.11)">
<stop stop-color="#918173"/>
<stop offset="1" stop-color="#55473A"/>
</radialGradient>
<radialGradient id="paint16_radial_656_179270" cx="0" cy="0" r="1" gradientUnits="userSpaceOnUse" gradientTransform="translate(57.6493 -120.383) scale(176.555 176.555)">
<stop stop-color="#918173"/>
<stop offset="1" stop-color="#55473A"/>
</radialGradient>
<radialGradient id="paint17_radial_656_179270" cx="0" cy="0" r="1" gradientUnits="userSpaceOnUse" gradientTransform="translate(155.637 -142.339) scale(205.87 205.87)">
<stop stop-color="#918173"/>
<stop offset="1" stop-color="#55473A"/>
</radialGradient>
<radialGradient id="paint18_radial_656_179270" cx="0" cy="0" r="1" gradientUnits="userSpaceOnUse" gradientTransform="translate(61.6067 -140.074) scale(167.985 167.985)">
<stop stop-color="#918173"/>
<stop offset="1" stop-color="#55473A"/>
</radialGradient>
<radialGradient id="paint19_radial_656_179270" cx="0" cy="0" r="1" gradientUnits="userSpaceOnUse" gradientTransform="translate(-4.82113 -162.831) scale(220.883 220.883)">
<stop stop-color="#6B5F55"/>
<stop offset="1" stop-color="#695B4E"/>
</radialGradient>
<radialGradient id="paint20_radial_656_179270" cx="0" cy="0" r="1" gradientUnits="userSpaceOnUse" gradientTransform="translate(21.0339 -170.997) scale(242.26 242.26)">
<stop stop-color="#6B5F55"/>
<stop offset="1" stop-color="#695B4E"/>
</radialGradient>
<radialGradient id="paint21_radial_656_179270" cx="0" cy="0" r="1" gradientUnits="userSpaceOnUse" gradientTransform="translate(125.892 -158.788) scale(202.069 202.069)">
<stop stop-color="#6B5F55"/>
<stop offset="1" stop-color="#695B4E"/>
</radialGradient>
<radialGradient id="paint22_radial_656_179270" cx="0" cy="0" r="1" gradientUnits="userSpaceOnUse" gradientTransform="translate(93.9344 -107.799) scale(159.133 159.133)">
<stop stop-color="#6B5F55"/>
<stop offset="1" stop-color="#695B4E"/>
</radialGradient>
<radialGradient id="paint23_radial_656_179270" cx="0" cy="0" r="1" gradientUnits="userSpaceOnUse" gradientTransform="translate(-2.03228 -153.347) scale(196.576 196.576)">
<stop stop-color="#6B5F55"/>
<stop offset="1" stop-color="#695B4E"/>
</radialGradient>
<radialGradient id="paint24_radial_656_179270" cx="0" cy="0" r="1" gradientUnits="userSpaceOnUse" gradientTransform="translate(163.533 -169.809) scale(224.251 224.251)">
<stop stop-color="#6B5F55"/>
<stop offset="1" stop-color="#695B4E"/>
</radialGradient>
<radialGradient id="paint25_radial_656_179270" cx="0" cy="0" r="1" gradientUnits="userSpaceOnUse" gradientTransform="translate(50.1342 -9.2418) scale(79.4591 79.459)">
<stop stop-color="#918173"/>
<stop offset="1" stop-color="white"/>
</radialGradient>
</defs>
</svg>
